<svg width="20" height="20" viewBox="0 0 20 20" fill="none" xmlns="http://www.w3.org/2000/svg">
<path d="M9.99984 4.5833L9.5495 5.01671C9.66734 5.13913 9.82992 5.2083 9.99984 5.2083C10.1698 5.2083 10.3323 5.13913 10.4502 5.01671L9.99984 4.5833ZM7.85488 15.2677C6.59183 14.272 5.21073 13.2997 4.11508 12.0659C3.04085 10.8563 2.2915 9.44485 2.2915 7.61369H1.0415C1.0415 9.83494 1.96692 11.5295 3.18044 12.8959C4.37253 14.2383 5.89215 15.3121 7.08102 16.2494L7.85488 15.2677ZM2.2915 7.61369C2.2915 5.8213 3.30431 4.3182 4.6868 3.68626C6.0299 3.07234 7.83455 3.23492 9.5495 5.01671L10.4502 4.14988C8.41525 2.0357 6.05325 1.68726 4.16714 2.5494C2.32043 3.39354 1.0415 5.35363 1.0415 7.61369H2.2915ZM7.08102 16.2494C7.50788 16.5859 7.96612 16.9447 8.4305 17.216C8.89475 17.4873 9.4245 17.7078 9.99984 17.7078V16.4578C9.74184 16.4578 9.43825 16.3572 9.06117 16.1368C8.68425 15.9165 8.29324 15.6133 7.85488 15.2677L7.08102 16.2494ZM12.9187 16.2494C14.1075 15.3121 15.6272 14.2383 16.8193 12.8959C18.0328 11.5295 18.9582 9.83494 18.9582 7.61369H17.7082C17.7082 9.44485 16.9588 10.8563 15.8846 12.0659C14.7889 13.2997 13.4078 14.272 12.1448 15.2677L12.9187 16.2494ZM18.9582 7.61369C18.9582 5.35363 17.6793 3.39354 15.8325 2.5494C13.9464 1.68726 11.5844 2.0357 9.5495 4.14988L10.4502 5.01671C12.1651 3.23492 13.9698 3.07234 15.3128 3.68626C16.6953 4.3182 17.7082 5.8213 17.7082 7.61369H18.9582ZM12.1448 15.2677C11.7064 15.6133 11.3154 15.9165 10.9385 16.1368C10.5614 16.3572 10.2578 16.4578 9.99984 16.4578V17.7078C10.5752 17.7078 11.1049 17.4873 11.5692 17.216C12.0336 16.9447 12.4918 16.5859 12.9187 16.2494L12.1448 15.2677Z" fill="#626262"/>
</svg>
