<svg width="554" height="307" viewBox="0 0 554 307" fill="none" xmlns="http://www.w3.org/2000/svg">
<g clip-path="url(#clip0_141_22594)">
<path fill-rule="evenodd" clip-rule="evenodd" d="M0 10C0 4.47715 4.47715 0 10 0H544C549.523 0 554 4.47715 554 10V297C554 302.523 549.523 307 544 307H10C4.47716 307 0 302.523 0 297V10Z" fill="#3498DB"/>
<path fill-rule="evenodd" clip-rule="evenodd" d="M288.086 64.6692C293.713 57.9487 298.158 57.4972 306.921 57.5133C310.277 57.5133 311.996 55.6669 315.711 54.6731C322.686 52.8085 331.717 51.341 338.175 52.5545C356.156 55.9329 366.955 73.6555 366.955 73.6555C366.955 73.6555 368.509 75.7438 373.172 84.3813C376.71 90.9265 381.022 100.268 384.537 109.29C387.069 115.789 386.604 128.752 387.129 129.899C388.283 132.411 391.855 135.166 394.464 138.13C397.801 141.923 400.198 145.943 401.26 148.779C404.966 158.656 400.882 170.916 400.452 177.259C399.61 189.59 409.498 189.697 409.498 189.697C409.498 189.697 408.574 191.591 406.871 192.374C405.168 193.156 402.713 192.831 402.713 192.831C402.713 192.831 405.339 195.837 406.069 199.247C406.798 202.658 405.665 206.468 405.665 206.468L285.514 184.558L281.987 181.241C279.696 181.234 277.477 180.443 275.701 178.999C273.036 176.804 270.767 172.206 271.218 168.531C271.882 163.089 276.251 158.654 275.986 157.041C275.616 154.772 267.215 151.282 264.625 140.512C262.035 129.742 264.599 115.358 267.252 104.255C268.729 98.0905 273.737 89.07 278.647 80.4284C282.288 74.0264 285.819 67.3724 288.086 64.6692Z" fill="#E09F7B"/>
<path fill-rule="evenodd" clip-rule="evenodd" d="M253.389 123.193C253.389 123.193 257.459 119.49 262.334 114.281C267.272 109.006 273.062 102.521 274.646 102.187C277.142 101.665 277.576 103.866 277.576 103.866L276.416 104.743L276.756 106.811L266.249 122.915L277.719 111.344L279.366 117.559C279.366 117.559 275.527 123.584 268.328 131.784C261.336 139.759 252.747 150.587 252.747 150.587C252.747 150.587 259.532 150.599 261.556 149.565C263.688 148.477 268.807 142.177 271.254 141.974C272.984 141.831 274.731 142.708 275.17 143.857C275.596 144.967 273.272 146.965 272.139 148.694C271.005 150.424 270.119 153.375 268.254 154.742C264.459 157.527 256.117 162.317 247.563 165.244C240.515 167.663 233.537 167.969 226.97 172.146C214.613 180.007 202.713 189.822 194.728 197.272C187.279 204.22 183.321 209.091 183.321 209.091L192.431 207.54L197.61 251.567C197.61 251.567 164.303 257.114 139.751 254.693C126.127 253.349 115.801 248.362 112.338 241.978C110.242 238.113 112.742 228.319 124.056 217.053C142.137 199.038 175.611 176.536 195.175 163.049C199.675 159.881 203.738 156.136 207.259 151.912C212.977 144.925 217.725 136.267 223.647 125.922C227.95 118.41 233.523 102.177 237.034 99.3144C239.626 97.2018 241.814 97.5808 240.515 102.181C238.62 108.897 232.314 121.772 233.965 125.576C234.399 126.584 236.123 127.069 237.565 126.807C239.434 126.469 246.427 118.946 252.844 111.877C257.18 107.097 261.346 102.011 263.136 101.461C264.688 100.983 267.367 101.923 266.076 105.09C263.665 111.016 253.389 123.193 253.389 123.193Z" fill="#FFDDC0"/>
<path fill-rule="evenodd" clip-rule="evenodd" d="M293.507 182.829L356.679 183.17C356.679 183.17 362.842 188.774 373.398 192.771C388.202 198.375 407.82 203.622 416.405 216.637C424.865 229.462 427.402 251.627 430.061 270.543C431.292 279.291 433.14 292.011 433.14 292.011C433.14 292.011 374.991 297.929 328.117 298.374C272.432 298.905 245.649 292.023 245.649 292.023C245.649 292.023 242.485 280.485 242.269 277.003C241.663 267.213 244.219 251.849 244.219 251.849C244.219 251.849 237.955 251.72 227.096 253.26C220.663 254.173 212.189 255.477 206.665 255.925C202.733 256.241 200.537 255.834 200.537 255.834C200.537 255.834 198.387 253.818 196.294 249.426C193.87 244.318 191.393 236.323 190.637 229.506C189.896 222.745 190.31 214.011 191.669 209.445C192.857 205.46 194.971 205.186 194.971 205.186C194.971 205.186 204.913 202.068 219.192 197.294C228.063 194.327 239.315 189.864 248.752 187.721C261.762 184.768 275.561 184.772 283.752 184.295C291.082 183.877 293.507 182.829 293.507 182.829Z" fill="white"/>
<path fill-rule="evenodd" clip-rule="evenodd" d="M290.969 76.6213C295.212 70.9167 314.138 69.0441 318.168 73.1945C321.45 76.587 325.288 89.5 328.844 95.9927C334.407 106.142 339.429 110.244 341.591 111.577C345.529 114.006 351.841 111.79 356.51 111.939C358.581 112.006 360.884 112.947 361.561 114.268C367.584 125.941 351.808 131.537 351.808 131.537C351.808 131.537 349.964 158.471 350.798 171.426C351.214 178.004 356.765 183.186 356.765 183.186C356.765 183.186 352.617 186.613 345.941 189.155C338.71 191.917 328.612 193.83 320.375 193.822C312.026 193.822 304.561 192.066 299.766 189.258C297.186 187.745 295.003 185.642 293.398 183.122C293.398 183.122 299.914 182.237 302.326 176.236C304.739 170.235 303.044 159.112 303.044 159.112C303.044 159.112 299.738 158.911 296.703 155.433C291.796 149.789 286.06 139.14 284.664 133.695C282.403 124.883 283.769 119.361 283.769 119.361L283.793 102.965L282.973 96.4221C282.973 96.4221 285.526 90.7578 285.821 89.9717C287.533 85.416 289.297 78.8749 290.969 76.6213Z" fill="#FFDDC0"/>
<path fill-rule="evenodd" clip-rule="evenodd" d="M277.572 104.11L328.364 95.2793C329.345 97.3386 330.47 99.327 331.73 101.23C333.667 104.102 336.332 107.225 336.332 107.225L330.697 105.134L329.743 111.315L328.17 112.885L308.721 115.689L307.648 114.989L304.246 106.374C304.246 106.374 301.27 105.642 299.7 106.979C298.13 108.315 297.96 111.72 297.96 111.72L295.047 114.802L295.231 117.318L281.427 119.583L279.637 118.797L276.639 105.868L277.572 104.11Z" fill="#3E5476"/>
<path fill-rule="evenodd" clip-rule="evenodd" d="M305.444 101.594L329.531 97.7422L327.153 110.643L310.01 113.312L305.444 101.594ZM279.344 106.251L296.477 103.576L295.485 113.909L294.594 115.088L281.512 117.071L279.344 106.251Z" fill="#5172A8"/>
<path fill-rule="evenodd" clip-rule="evenodd" d="M195.518 0L296.8 103.261L295.566 114.576L281.294 116.962L100.896 0H195.518Z" fill="#72EAEB" fill-opacity="0.66"/>
<path fill-rule="evenodd" clip-rule="evenodd" d="M262.081 0L329.495 97.9114L327.038 110.957L309.933 113.007L158.805 0H262.081Z" fill="#FF8FAE" fill-opacity="0.75"/>
<path d="M154.041 241.357C153.901 241.355 153.765 241.311 153.65 241.231C153.536 241.151 153.449 241.038 153.4 240.907C153.351 240.776 153.343 240.633 153.377 240.498C153.411 240.362 153.486 240.24 153.591 240.148C163.466 231.71 170.992 222.812 178.268 214.217C184.341 207.041 190.075 200.262 196.599 194.497C212.047 180.84 226.003 171.44 230.571 169.386C234.458 167.639 237.216 167.082 240.137 166.494C243.906 165.734 247.799 164.95 254.684 161.454C255.856 160.862 257.012 160.289 258.119 159.737C263.481 157.086 268.114 154.796 268.995 152.66C270.123 149.924 271.608 147.965 272.692 146.534C274.064 144.72 274.511 144.038 274.062 143.423C273.918 143.218 273.731 143.047 273.514 142.92C273.297 142.794 273.056 142.716 272.806 142.692C271.462 142.52 269.476 143.397 267.482 145.042C266.788 145.638 266.142 146.287 265.55 146.983C264.296 148.394 262.998 149.844 260.255 150.688C258.731 151.158 256.214 151.122 253.007 151.073C247.938 150.999 240.996 150.898 234.702 152.918C234.528 152.971 234.34 152.954 234.179 152.87C234.017 152.786 233.895 152.641 233.84 152.468C233.784 152.295 233.799 152.107 233.881 151.945C233.963 151.783 234.106 151.659 234.278 151.601C240.788 149.513 247.866 149.618 253.028 149.692C255.982 149.737 258.533 149.771 259.847 149.368C262.223 148.636 263.281 147.445 264.516 146.066C265.154 145.315 265.852 144.616 266.601 143.976C268.918 142.065 271.248 141.095 272.983 141.321C273.421 141.371 273.844 141.512 274.224 141.735C274.604 141.958 274.932 142.259 275.188 142.617C276.265 144.113 275.176 145.55 273.798 147.368C272.701 148.814 271.335 150.616 270.276 153.184C269.197 155.804 264.578 158.084 258.735 160.975C257.62 161.525 256.468 162.095 255.301 162.686C248.249 166.262 244.259 167.066 240.402 167.844C237.559 168.417 234.874 168.959 231.128 170.642C226.639 172.658 212.848 181.965 197.506 195.527C191.059 201.225 185.356 207.966 179.323 215.104C172.015 223.749 164.462 232.679 154.492 241.192C154.366 241.299 154.206 241.357 154.041 241.357ZM253.698 135.675C253.525 135.671 253.359 135.603 253.234 135.484C253.108 135.364 253.032 135.202 253.021 135.029C253.009 134.856 253.063 134.686 253.172 134.551C253.281 134.416 253.436 134.326 253.608 134.3C255.299 134.076 262.475 126.201 268.241 119.873C270.706 117.168 273.254 114.37 275.489 112.024C275.972 111.519 276.54 111.102 277.166 110.79C277.248 110.743 277.339 110.713 277.434 110.702C277.528 110.691 277.624 110.7 277.715 110.727C277.806 110.755 277.89 110.801 277.963 110.863C278.035 110.924 278.094 111 278.136 111.086C278.178 111.171 278.201 111.264 278.205 111.359C278.209 111.454 278.194 111.548 278.16 111.637C278.126 111.725 278.074 111.806 278.007 111.874C277.94 111.941 277.86 111.995 277.772 112.03C277.292 112.269 276.857 112.589 276.487 112.975C274.264 115.312 271.719 118.104 269.26 120.803C260.994 129.874 255.83 135.399 253.785 135.669L253.698 135.675Z" fill="black"/>
<path d="M253.117 150.827C252.988 150.827 252.863 150.791 252.754 150.724C252.645 150.657 252.557 150.56 252.499 150.446C252.441 150.332 252.417 150.204 252.428 150.077C252.439 149.949 252.485 149.827 252.561 149.724C254.826 146.701 258.364 142.49 262.112 138.033C268.298 130.676 275.309 122.338 278.633 116.9C278.728 116.743 278.882 116.631 279.061 116.588C279.24 116.544 279.428 116.574 279.585 116.669C279.742 116.764 279.855 116.918 279.898 117.096C279.942 117.275 279.912 117.463 279.817 117.619C276.438 123.147 269.391 131.528 263.172 138.92C259.439 143.355 255.911 147.556 253.676 150.551C253.612 150.638 253.527 150.708 253.43 150.756C253.332 150.804 253.225 150.828 253.117 150.827ZM258.19 132.127C258.058 132.127 257.928 132.089 257.816 132.018C257.705 131.947 257.616 131.846 257.561 131.726C257.505 131.606 257.486 131.472 257.504 131.342C257.523 131.211 257.578 131.088 257.665 130.988C257.814 130.815 272.616 113.511 276.089 106.376C276.129 106.294 276.184 106.221 276.252 106.161C276.32 106.101 276.399 106.055 276.485 106.025C276.571 105.996 276.662 105.983 276.753 105.989C276.844 105.994 276.932 106.017 277.014 106.057C277.096 106.097 277.169 106.152 277.229 106.22C277.29 106.288 277.336 106.367 277.365 106.453C277.395 106.538 277.408 106.629 277.402 106.72C277.397 106.81 277.373 106.899 277.333 106.98C273.786 114.275 259.331 131.169 258.717 131.887C258.652 131.963 258.571 132.023 258.48 132.064C258.389 132.106 258.29 132.127 258.19 132.127ZM246.651 130.607C246.494 130.608 246.34 130.555 246.217 130.458C246.093 130.36 246.007 130.223 245.972 130.069C245.937 129.916 245.956 129.755 246.026 129.614C246.095 129.472 246.211 129.359 246.354 129.293C249.11 127.995 255.214 121.179 261.118 114.588C264.619 110.679 268.242 106.638 271.5 103.33C273.038 101.77 275.297 101.024 276.754 101.594C277.661 101.947 278.168 102.737 278.208 103.812C278.211 103.902 278.196 103.993 278.163 104.078C278.131 104.163 278.082 104.24 278.02 104.306C277.957 104.372 277.882 104.426 277.799 104.463C277.716 104.5 277.626 104.52 277.535 104.523H277.515C277.335 104.523 277.162 104.453 277.033 104.328C276.904 104.202 276.829 104.032 276.824 103.852C276.804 103.171 276.485 102.969 276.248 102.874C275.44 102.556 273.761 103.007 272.492 104.285C269.26 107.569 265.645 111.598 262.154 115.495C255.891 122.496 249.959 129.109 246.95 130.526C246.858 130.576 246.756 130.604 246.651 130.607Z" fill="black"/>
<path d="M155.267 256.012C129.64 256.012 112.766 249.944 111.17 239.644C109.305 227.551 129.984 210.446 136.783 204.83C149.546 194.279 163.048 184.845 174.969 176.506C188.352 167.151 199.911 159.07 205.99 152.476C208.368 149.898 211.403 145.292 212.427 143.51C214.161 140.487 216.046 137.396 217.868 134.403C220.204 130.573 222.222 127.251 223.323 125.09C224.926 121.928 227.253 116.624 228.144 114.501C233.51 101.661 237.086 96.5612 240.093 97.4522C240.375 97.5269 240.637 97.6611 240.863 97.8458C241.089 98.0304 241.272 98.2612 241.4 98.5226C242.228 100.19 241.079 103.211 239.337 107.781C239.02 108.613 238.687 109.488 238.349 110.401C235.925 116.93 234.123 123.683 234.341 124.629C234.62 125.848 235.456 126.003 236.8 126.157L236.907 126.169C239.392 126.443 246.425 118.402 252.636 111.298C255.111 108.476 257.671 105.537 260.063 102.977C261.911 100.996 264.116 100.26 265.677 101.105C266.843 101.734 267.322 103.12 266.93 104.703C265.542 110.329 249.072 128.852 248.373 129.638C248.313 129.709 248.24 129.768 248.157 129.81C248.075 129.853 247.984 129.878 247.892 129.885C247.799 129.892 247.706 129.88 247.618 129.85C247.53 129.82 247.449 129.773 247.379 129.712C247.31 129.65 247.253 129.575 247.214 129.491C247.174 129.407 247.151 129.316 247.148 129.224C247.144 129.131 247.159 129.039 247.191 128.952C247.224 128.865 247.274 128.786 247.338 128.719C247.506 128.529 264.277 109.67 265.585 104.372C265.827 103.393 265.621 102.645 265.019 102.32C264.211 101.883 262.673 102.207 261.075 103.919C258.699 106.463 256.147 109.383 253.678 112.206C245.138 121.978 239.737 127.89 236.747 127.541L236.642 127.529C235.391 127.386 233.502 127.171 232.989 124.937C232.585 123.167 235.434 114.286 237.05 109.922C237.39 109.007 237.725 108.128 238.042 107.301C239.479 103.53 240.719 100.272 240.16 99.1454C240.116 99.0543 240.051 98.9745 239.971 98.9123C239.891 98.85 239.798 98.807 239.699 98.7866C238.285 98.3714 235.353 100.849 229.421 115.044C228.526 117.19 226.188 122.528 224.558 125.727C223.441 127.945 221.408 131.273 219.056 135.135C217.238 138.12 215.361 141.206 213.633 144.206C212.55 146.09 209.496 150.729 207.017 153.42C200.83 160.116 189.217 168.236 175.777 177.637C163.881 185.954 150.396 195.376 137.676 205.894C131.026 211.389 110.804 228.114 112.548 239.434C114.247 250.392 136.389 256.322 167.665 254.194C177.539 253.53 187.37 252.335 197.114 250.612C197.204 250.596 197.296 250.598 197.384 250.617C197.473 250.637 197.557 250.674 197.631 250.726C197.706 250.778 197.769 250.844 197.818 250.92C197.867 250.996 197.9 251.082 197.916 251.171C197.931 251.26 197.929 251.352 197.91 251.44C197.89 251.528 197.853 251.612 197.801 251.686C197.749 251.761 197.683 251.824 197.606 251.873C197.53 251.921 197.444 251.954 197.355 251.97C187.562 253.703 177.683 254.905 167.76 255.57C163.396 255.867 159.227 256.012 155.267 256.012Z" fill="black"/>
<path d="M183.937 209.735C183.759 209.731 183.589 209.659 183.463 209.534C183.337 209.409 183.264 209.24 183.259 209.062C183.254 208.884 183.318 208.712 183.438 208.58C183.557 208.448 183.723 208.367 183.901 208.354C183.929 208.354 186.784 208.183 192.118 206.917C192.294 206.883 192.476 206.918 192.626 207.015C192.777 207.111 192.884 207.263 192.925 207.436C192.966 207.61 192.939 207.793 192.848 207.947C192.757 208.101 192.61 208.214 192.437 208.262C186.966 209.56 184.097 209.727 183.976 209.733L183.937 209.735Z" fill="black"/>
<path d="M203.659 256.915C201.335 256.915 199.893 256.544 199.27 255.651C188.588 240.331 187.992 217.97 191.666 208.381C192.599 205.946 193.759 204.551 195.114 204.227C199.65 203.15 205.52 201.133 212.316 198.796C215.579 197.674 218.955 196.512 222.633 195.297C224.825 194.573 227.045 193.793 229.395 192.971C238.406 189.81 248.619 186.228 259.34 185.186C264.231 184.708 268.874 184.509 273.365 184.315C282.326 183.93 290.064 183.597 296.655 181.233C301.96 179.33 303.777 172.696 302.548 159.723C302.531 159.54 302.587 159.358 302.704 159.217C302.821 159.075 302.99 158.986 303.173 158.969C303.356 158.952 303.538 159.007 303.68 159.124C303.821 159.241 303.911 159.409 303.928 159.592C305.225 173.299 303.12 180.38 297.124 182.533C290.335 184.968 282.498 185.305 273.424 185.696C268.953 185.887 264.332 186.087 259.483 186.561C248.93 187.587 238.802 191.138 229.864 194.273C227.508 195.099 225.281 195.886 223.077 196.609C219.41 197.819 216.038 198.982 212.773 200.102C205.942 202.451 200.044 204.481 195.442 205.571C194.595 205.773 193.694 206.982 192.967 208.875C189.835 217.049 189.645 239.41 200.414 254.863C201.469 256.376 209.989 255.078 218.228 253.826C226.548 252.563 235.979 251.127 243.837 251.279C244.014 251.29 244.18 251.368 244.301 251.498C244.422 251.628 244.488 251.799 244.486 251.976C244.484 252.153 244.414 252.322 244.291 252.449C244.168 252.577 244 252.652 243.823 252.659H243.809C236.066 252.52 226.702 253.935 218.436 255.193C211.722 256.203 206.853 256.915 203.659 256.915Z" fill="black"/>
<path d="M245.859 293.063C245.707 293.063 245.558 293.013 245.437 292.92C245.316 292.827 245.23 292.697 245.19 292.549C245.065 292.08 242.121 280.967 241.756 275.526C241.311 269.007 242.523 260.61 243.408 254.476C243.786 251.855 244.114 249.594 244.239 248.005C245.217 235.709 243.027 226.539 240.653 222.056C240.605 221.976 240.575 221.887 240.563 221.794C240.551 221.701 240.558 221.607 240.584 221.517C240.609 221.427 240.653 221.344 240.712 221.271C240.771 221.198 240.844 221.139 240.927 221.095C241.009 221.051 241.1 221.025 241.193 221.017C241.287 221.01 241.381 221.021 241.47 221.05C241.558 221.08 241.64 221.127 241.71 221.189C241.78 221.251 241.837 221.327 241.877 221.411C245.023 227.35 246.455 237.582 245.619 248.114C245.491 249.747 245.16 252.029 244.78 254.673C243.903 260.745 242.701 269.06 243.138 275.436C243.501 280.745 246.504 292.086 246.534 292.199C246.561 292.301 246.564 292.408 246.543 292.512C246.522 292.615 246.477 292.713 246.413 292.796C246.348 292.88 246.265 292.948 246.17 292.995C246.076 293.042 245.971 293.067 245.865 293.068L245.859 293.063ZM433.037 293.033C432.872 293.033 432.713 292.974 432.587 292.867C432.462 292.76 432.379 292.611 432.354 292.449C431.568 287.375 430.991 283.61 430.696 281.374C430.291 278.353 429.911 275.407 429.554 272.537C426.041 245.095 423.503 225.268 412.924 213.54C405.01 204.767 393.215 200.56 381.809 196.495C368.537 191.762 356.001 187.293 351.063 176.085C348.137 169.443 350.456 138.618 350.545 137.308C350.559 137.125 350.645 136.956 350.785 136.836C350.924 136.717 351.105 136.658 351.288 136.672C351.471 136.686 351.641 136.772 351.76 136.911C351.88 137.05 351.939 137.23 351.925 137.413C351.903 137.731 349.543 169.201 352.329 175.529C357.027 186.192 369.289 190.564 382.272 195.192C393.841 199.317 405.802 203.582 413.95 212.615C424.82 224.665 427.38 244.665 430.922 272.362C431.29 275.231 431.671 278.175 432.065 281.195C432.358 283.412 432.934 287.173 433.718 292.237C433.732 292.327 433.728 292.418 433.707 292.506C433.686 292.594 433.647 292.678 433.593 292.751C433.539 292.824 433.472 292.886 433.394 292.933C433.316 292.98 433.23 293.011 433.14 293.025C433.106 293.031 433.072 293.033 433.037 293.033ZM383.139 297.744C382.982 297.744 382.83 297.69 382.708 297.593C382.586 297.495 382.5 297.358 382.466 297.206C380.557 288.869 377.674 278.687 377.094 277.06C377 276.955 376.941 276.822 376.926 276.681C376.906 276.497 376.953 276.312 377.059 276.16C377.164 276.007 377.322 275.899 377.502 275.853C378.272 275.726 378.27 275.728 380.33 283.194C381.654 287.998 382.925 292.993 383.82 296.902C383.84 296.99 383.843 297.081 383.827 297.171C383.812 297.26 383.779 297.346 383.731 297.423C383.683 297.499 383.619 297.566 383.545 297.618C383.471 297.671 383.387 297.708 383.298 297.728C383.246 297.74 383.193 297.745 383.139 297.744Z" fill="black"/>
<path d="M372.566 272.53C372.382 272.53 372.207 272.457 372.077 272.327C371.947 272.197 371.874 272.022 371.873 271.839C371.873 254.451 379.276 227.919 391.673 213.622C391.733 213.553 391.805 213.497 391.886 213.456C391.968 213.415 392.056 213.391 392.147 213.385C392.237 213.378 392.328 213.389 392.414 213.418C392.501 213.447 392.58 213.492 392.649 213.551C392.718 213.61 392.774 213.683 392.815 213.764C392.856 213.845 392.88 213.933 392.887 214.023C392.893 214.114 392.882 214.204 392.853 214.29C392.825 214.377 392.779 214.456 392.72 214.525C380.704 228.395 373.267 255.074 373.267 271.839C373.267 271.93 373.249 272.021 373.213 272.105C373.178 272.189 373.126 272.266 373.061 272.33C372.996 272.394 372.918 272.445 372.834 272.479C372.749 272.514 372.658 272.531 372.566 272.53ZM283.857 103.61C283.685 103.61 283.519 103.546 283.392 103.43C283.264 103.315 283.185 103.156 283.168 102.985C282.934 100.582 282.718 98.2496 282.627 96.1532C282.62 95.9703 282.686 95.792 282.81 95.6572C282.934 95.5224 283.106 95.442 283.29 95.4336C283.471 95.432 283.647 95.4992 283.78 95.6215C283.914 95.7438 283.997 95.9122 284.011 96.0928C284.1 98.1569 284.314 100.467 284.546 102.852C284.555 102.942 284.546 103.033 284.52 103.12C284.493 103.207 284.45 103.287 284.392 103.357C284.334 103.427 284.263 103.485 284.183 103.528C284.103 103.571 284.015 103.597 283.924 103.606L283.857 103.61ZM306.419 160.252C303.823 160.252 301.57 159.819 299.892 158.819C297.265 157.249 294.404 154.058 291.137 149.063C286.25 141.59 282.742 132.223 282.795 126.789C282.831 123.255 282.997 120.836 283.142 119.129C283.165 118.952 283.255 118.791 283.394 118.678C283.532 118.566 283.709 118.512 283.887 118.527C284.065 118.542 284.231 118.624 284.349 118.758C284.467 118.892 284.529 119.066 284.522 119.244C284.381 120.931 284.215 123.318 284.181 126.807C284.13 131.915 287.615 141.159 292.297 148.313C295.402 153.062 298.196 156.199 300.605 157.636C305.761 160.72 318.098 157.648 327.618 153.02C334.938 149.462 337.025 146.527 339.235 143.421C339.639 142.866 340.027 142.308 340.447 141.746C340.562 141.609 340.724 141.522 340.901 141.502C341.078 141.482 341.256 141.531 341.398 141.638C341.54 141.746 341.635 141.903 341.663 142.079C341.692 142.254 341.651 142.434 341.551 142.58C341.132 143.131 340.742 143.677 340.359 144.221C338.136 147.331 335.857 150.548 328.22 154.262C321.411 157.559 312.873 160.252 306.419 160.252Z" fill="black"/>
<path fill-rule="evenodd" clip-rule="evenodd" d="M303.32 160.281C303.32 160.281 309.08 160.355 316.291 158.517C322.975 156.814 336.728 148.354 336.728 148.354C336.728 148.354 325.046 161.571 317.504 164.681C310.392 167.618 303.31 165.171 303.31 165.171L303.32 160.281Z" fill="black"/>
<path d="M298.764 100.971C298.612 100.971 298.463 100.921 298.343 100.828C298.222 100.736 298.135 100.606 298.095 100.459C297.921 99.8099 297.792 99.4128 297.79 99.4027C297.762 99.3166 297.751 99.2257 297.758 99.1354C297.765 99.045 297.79 98.957 297.831 98.8762C297.872 98.7954 297.929 98.7235 297.998 98.6646C298.067 98.6058 298.147 98.561 298.234 98.5329C298.32 98.5049 298.411 98.4941 298.502 98.5011C298.592 98.5082 298.68 98.5329 298.761 98.574C298.842 98.6151 298.914 98.6717 298.973 98.7406C299.032 98.8094 299.077 98.8892 299.105 98.9754C299.105 98.9754 299.245 99.4007 299.433 100.1C299.48 100.277 299.455 100.466 299.364 100.624C299.272 100.783 299.121 100.899 298.944 100.947C298.885 100.963 298.825 100.971 298.764 100.971ZM296.972 120.248C296.868 120.248 296.766 120.225 296.673 120.181C296.58 120.137 296.497 120.072 296.432 119.992C294.816 117.986 294.141 116.537 294.279 115.295C294.42 114.005 295.406 113.225 296.36 112.473C297.35 111.689 298.38 110.878 298.784 109.413C298.997 108.584 299.095 107.73 299.077 106.875C299.078 106.692 299.151 106.516 299.281 106.387C299.411 106.257 299.586 106.184 299.77 106.184C299.954 106.184 300.129 106.256 300.259 106.386C300.389 106.515 300.463 106.69 300.463 106.873C300.481 107.854 300.365 108.834 300.12 109.784C299.59 111.683 298.277 112.721 297.22 113.555C296.299 114.285 295.731 114.765 295.657 115.448C295.566 116.271 296.172 117.464 297.511 119.125C297.594 119.226 297.646 119.349 297.662 119.478C297.677 119.608 297.656 119.739 297.599 119.857C297.543 119.975 297.454 120.074 297.344 120.144C297.233 120.213 297.105 120.25 296.974 120.25L296.972 120.248Z" fill="black"/>
<path fill-rule="evenodd" clip-rule="evenodd" d="M314.675 126.515C314.675 126.515 313.847 137.839 304.292 139.26C295.851 140.514 292.652 129.448 292.652 129.448C292.652 129.448 297.976 129.167 303.13 128.492C308.175 127.831 314.675 126.515 314.675 126.515Z" fill="white"/>
<path d="M302.981 140.051C295.101 140.051 292.02 129.75 291.987 129.639C291.959 129.539 291.953 129.434 291.971 129.331C291.988 129.229 292.028 129.132 292.088 129.047C292.149 128.962 292.228 128.892 292.319 128.842C292.41 128.792 292.512 128.764 292.616 128.758C292.67 128.758 297.974 128.47 303.039 127.807C308.003 127.156 314.473 125.852 314.537 125.837C314.642 125.816 314.75 125.82 314.854 125.847C314.957 125.875 315.052 125.926 315.132 125.996C315.213 126.067 315.276 126.155 315.316 126.253C315.356 126.352 315.373 126.459 315.366 126.565C315.366 126.684 314.38 138.458 304.395 139.944C303.927 140.013 303.454 140.049 302.981 140.051ZM293.604 130.083C294.529 132.534 297.77 139.528 304.191 138.577C311.541 137.484 313.424 130.012 313.865 127.379C311.864 127.769 307.094 128.67 303.219 129.176C299.344 129.681 295.357 129.97 293.604 130.083ZM308.385 93.7607C308.235 93.7613 308.088 93.7127 307.968 93.6225C307.847 93.5323 307.76 93.4053 307.718 93.2608C307.677 93.1163 307.684 92.9624 307.738 92.8223C307.793 92.6822 307.891 92.5636 308.019 92.4847C314.172 88.6769 319.487 91.1402 319.71 91.247C319.875 91.3272 320.002 91.4697 320.062 91.6433C320.123 91.8168 320.111 92.0071 320.031 92.1722C319.951 92.3374 319.808 92.464 319.634 92.5241C319.46 92.5842 319.269 92.5729 319.104 92.4928C318.901 92.394 314.218 90.2653 308.739 93.6579C308.633 93.7239 308.51 93.7595 308.385 93.7607ZM283.9 98.1671C283.758 98.1681 283.62 98.126 283.504 98.0464C283.387 97.9667 283.298 97.8534 283.248 97.7217C283.198 97.5899 283.19 97.4461 283.225 97.3095C283.259 97.1729 283.335 97.0501 283.441 96.9577C283.599 96.8186 287.363 93.5752 293.139 95.5023C293.307 95.5651 293.444 95.6907 293.522 95.8525C293.599 96.0143 293.61 96.1997 293.553 96.3696C293.496 96.5395 293.375 96.6806 293.215 96.7633C293.056 96.8459 292.871 96.8635 292.699 96.8125C287.68 95.1354 284.399 97.9635 284.366 97.9917C284.238 98.1066 284.072 98.1692 283.9 98.1671Z" fill="black"/>
<path d="M278.982 104.485C278.857 104.484 278.735 104.449 278.628 104.383C278.522 104.318 278.435 104.226 278.377 104.116C278.318 104.005 278.291 103.881 278.298 103.757C278.304 103.632 278.345 103.512 278.414 103.409C282.671 96.8977 284.7 90.804 286.33 85.9057C288.573 79.1671 290.193 74.299 295.889 72.9021C296.066 72.8618 296.252 72.8926 296.407 72.9878C296.561 73.0829 296.672 73.2349 296.716 73.4109C296.759 73.5869 296.732 73.7729 296.639 73.9289C296.546 74.0848 296.396 74.1982 296.22 74.2446C291.266 75.454 289.826 79.7879 287.644 86.3391C285.989 91.31 283.93 97.4984 279.574 104.158C279.511 104.259 279.424 104.341 279.321 104.398C279.217 104.456 279.1 104.485 278.982 104.485ZM346.206 113.757C346.166 113.757 346.126 113.754 346.086 113.747C333.834 111.649 327.321 95.4544 323.009 84.7386C322.508 83.4909 322.035 82.3197 321.595 81.2393C319.005 75.0549 316.045 69.2092 311.955 68.3082C309.612 67.7921 306.997 68.8887 303.961 71.6563C303.895 71.7231 303.816 71.7758 303.729 71.8112C303.642 71.8466 303.548 71.864 303.454 71.8623C303.361 71.8606 303.268 71.8398 303.182 71.8013C303.097 71.7628 303.02 71.7073 302.956 71.6382C302.893 71.5691 302.844 71.4879 302.813 71.3994C302.782 71.3109 302.769 71.2171 302.776 71.1236C302.782 71.03 302.807 70.9388 302.85 70.8554C302.893 70.772 302.953 70.6982 303.025 70.6384C306.419 67.5422 309.438 66.3368 312.254 66.9596C316.699 67.9373 319.712 73.1621 322.872 80.7071C323.324 81.7875 323.801 82.9708 324.304 84.2246C328.501 94.6541 334.841 110.417 346.327 112.385C346.498 112.414 346.651 112.506 346.757 112.643C346.863 112.78 346.914 112.951 346.9 113.124C346.885 113.296 346.806 113.457 346.679 113.574C346.552 113.691 346.385 113.757 346.212 113.757H346.206Z" fill="black"/>
<path d="M266.045 110.651H265.948C265.766 110.625 265.602 110.529 265.491 110.382C265.381 110.236 265.333 110.052 265.358 109.87C266.639 100.598 273.036 89.092 279.818 76.9048C281.071 74.6532 282.342 72.3673 283.607 70.0512C288.906 60.3433 298.129 54.8766 304.591 57.5998C304.751 57.677 304.875 57.8126 304.938 57.9787C305.001 58.1448 304.997 58.3285 304.928 58.492C304.858 58.6554 304.729 58.786 304.566 58.8567C304.403 58.9274 304.218 58.9328 304.051 58.8718C298.233 56.4226 289.785 61.6213 284.821 70.7124C283.556 73.0305 282.283 75.3204 281.029 77.576C274.317 89.6464 267.975 101.048 266.73 110.06C266.705 110.224 266.623 110.373 266.497 110.482C266.372 110.59 266.211 110.65 266.045 110.651ZM351.584 132.193C351.414 132.191 351.252 132.127 351.126 132.014C351.001 131.9 350.921 131.745 350.903 131.577C350.884 131.409 350.928 131.24 351.026 131.102C351.124 130.964 351.269 130.867 351.434 130.828C355.538 129.917 363.021 124.96 361.726 117.635C361.262 115.015 360.07 113.319 358.183 112.61C355.594 111.636 352.192 112.759 350.172 114.374C350.101 114.432 350.019 114.476 349.931 114.502C349.843 114.529 349.75 114.537 349.659 114.528C349.567 114.518 349.479 114.491 349.398 114.447C349.318 114.403 349.246 114.343 349.189 114.272C349.132 114.2 349.089 114.118 349.064 114.029C349.039 113.941 349.032 113.849 349.043 113.758C349.054 113.667 349.083 113.579 349.128 113.499C349.173 113.419 349.234 113.349 349.307 113.293C351.562 111.495 355.455 110.108 358.669 111.318C360.304 111.923 362.397 113.485 363.09 117.395C364.547 125.63 356.275 131.169 351.735 132.177C351.685 132.187 351.635 132.192 351.584 132.193ZM281.794 120.078C281.208 120.078 280.431 119.994 279.849 119.623C278.788 118.949 278.586 117.512 278.566 117.351L276.165 106.895C276.129 106.78 275.741 105.375 276.309 104.422C276.877 103.468 278.295 103.212 278.453 103.176L328.034 94.7624C328.215 94.7316 328.4 94.7738 328.55 94.8797C328.7 94.9855 328.801 95.1464 328.832 95.3268C328.863 95.5072 328.82 95.6925 328.714 95.8418C328.608 95.9911 328.447 96.0923 328.266 96.123L278.679 104.539C278.374 104.589 277.695 104.799 277.499 105.127C277.303 105.456 277.39 106.149 277.499 106.549L279.923 117.113C279.968 117.426 280.156 118.183 280.588 118.458C281.021 118.732 282.002 118.716 282.407 118.659L295.103 116.625C295.193 116.611 295.284 116.614 295.373 116.635C295.461 116.656 295.544 116.694 295.618 116.747C295.692 116.8 295.754 116.867 295.802 116.944C295.849 117.022 295.881 117.107 295.896 117.197C295.91 117.286 295.907 117.378 295.886 117.466C295.865 117.554 295.827 117.637 295.774 117.711C295.721 117.784 295.653 117.846 295.576 117.894C295.499 117.942 295.413 117.974 295.323 117.988L282.619 120.024C282.346 120.061 282.07 120.08 281.794 120.078Z" fill="black"/>
<path d="M309.125 116.259C308.679 116.271 308.238 116.169 307.844 115.963C307.084 115.523 306.759 114.574 306.725 114.467C305.46 110.585 304.433 107.847 303.981 107.146C303.779 106.837 302.92 106.606 301.645 106.759C300.114 106.942 299.144 107.521 299.055 107.779C298.938 108.117 298.679 109.206 298.115 112.48C298.084 112.66 297.983 112.821 297.833 112.926C297.683 113.032 297.497 113.074 297.316 113.043C297.136 113.012 296.974 112.91 296.869 112.761C296.763 112.611 296.721 112.426 296.752 112.246C297.222 109.504 297.548 107.896 297.746 107.327C298.15 106.176 300.007 105.563 301.479 105.386C302.322 105.285 304.363 105.184 305.145 106.394C305.821 107.444 307.094 111.129 308.042 114.036C308.102 114.213 308.302 114.626 308.539 114.763C308.834 114.876 309.155 114.905 309.466 114.848L327.28 112.381C327.722 112.293 328.137 112.104 328.493 111.828C328.777 111.518 328.974 111.137 329.062 110.726L330.636 101.228C330.674 101.054 330.777 100.901 330.924 100.801C331.071 100.701 331.251 100.662 331.427 100.691C331.603 100.72 331.76 100.815 331.867 100.957C331.974 101.099 332.023 101.277 332.002 101.453L330.424 110.974C330.398 111.111 330.174 112.155 329.436 112.838C328.699 113.522 327.618 113.723 327.49 113.745L309.676 116.213C309.494 116.242 309.31 116.258 309.125 116.259Z" fill="black"/>
<path d="M335.847 107.641C335.763 107.641 335.679 107.626 335.601 107.595L330.743 105.75C330.659 105.718 330.581 105.67 330.515 105.607C330.449 105.545 330.395 105.471 330.358 105.388C330.321 105.306 330.3 105.216 330.298 105.126C330.295 105.035 330.31 104.945 330.342 104.86C330.375 104.776 330.423 104.698 330.486 104.632C330.548 104.566 330.622 104.513 330.705 104.476C330.788 104.439 330.878 104.418 330.968 104.416C331.059 104.413 331.149 104.428 331.234 104.46L336.102 106.303C336.252 106.361 336.378 106.469 336.457 106.61C336.536 106.751 336.563 106.914 336.534 107.073C336.504 107.231 336.421 107.375 336.297 107.478C336.173 107.581 336.017 107.638 335.855 107.639L335.847 107.641ZM353.12 122.608C353.051 122.607 352.983 122.596 352.918 122.576C352.743 122.52 352.597 122.397 352.513 122.234C352.429 122.071 352.413 121.882 352.469 121.707C352.745 120.898 353.218 120.17 353.848 119.59C354.477 119.01 355.241 118.596 356.071 118.385C356.246 118.347 356.429 118.377 356.582 118.47C356.735 118.564 356.845 118.712 356.891 118.885C356.936 119.058 356.913 119.241 356.826 119.397C356.738 119.553 356.594 119.669 356.423 119.721C355.819 119.873 355.262 120.172 354.803 120.592C354.345 121.013 353.999 121.541 353.796 122.128C353.75 122.27 353.66 122.394 353.538 122.48C353.416 122.567 353.269 122.611 353.12 122.608ZM353.285 112.406C353.203 112.407 353.122 112.392 353.045 112.364C345.268 109.504 336.811 92.1298 336.455 91.4001C336.375 91.2352 336.363 91.0451 336.423 90.8718C336.483 90.6985 336.61 90.5561 336.775 90.4759C336.941 90.3957 337.131 90.3843 337.305 90.4442C337.479 90.5041 337.621 90.6304 337.702 90.7954C340.635 96.8749 347.719 108.937 353.526 111.072C353.677 111.129 353.804 111.237 353.884 111.377C353.964 111.518 353.992 111.682 353.964 111.841C353.935 112 353.852 112.144 353.728 112.248C353.604 112.352 353.447 112.409 353.285 112.41V112.406ZM266.161 144.812C266.028 144.811 265.899 144.773 265.787 144.702C265.676 144.63 265.587 144.529 265.532 144.408C264.538 142.237 263.815 139.951 263.378 137.603C263.36 137.513 263.359 137.42 263.376 137.33C263.394 137.24 263.429 137.154 263.481 137.077C263.532 137.001 263.598 136.935 263.675 136.885C263.752 136.834 263.838 136.799 263.928 136.782C264.019 136.765 264.112 136.766 264.202 136.786C264.292 136.805 264.378 136.842 264.453 136.895C264.529 136.947 264.593 137.014 264.643 137.092C264.692 137.17 264.725 137.257 264.74 137.347C265.155 139.584 265.843 141.761 266.789 143.83C266.827 143.912 266.849 144.001 266.853 144.092C266.857 144.183 266.843 144.273 266.811 144.358C266.78 144.444 266.732 144.522 266.67 144.589C266.608 144.655 266.534 144.709 266.452 144.747C266.36 144.789 266.261 144.811 266.161 144.812ZM276.659 180.208C276.536 180.209 276.416 180.176 276.311 180.114C276.091 179.987 270.911 176.888 270.561 170.236C270.276 164.848 273.24 160.539 274.663 158.468C274.889 158.157 275.099 157.834 275.291 157.501C275.509 157.047 274.741 156.245 273.365 154.864C272.493 153.987 271.406 152.897 270.199 151.472C270.089 151.331 270.038 151.153 270.056 150.975C270.075 150.797 270.162 150.633 270.299 150.517C270.436 150.402 270.612 150.344 270.791 150.356C270.97 150.368 271.137 150.448 271.258 150.581C272.426 151.964 273.493 153.032 274.347 153.891C276.059 155.608 277.19 156.743 276.54 158.097C276.32 158.497 276.075 158.882 275.806 159.251C274.469 161.194 271.684 165.243 271.943 170.164C272.254 176.05 276.962 178.886 277.01 178.914C277.141 178.991 277.242 179.109 277.299 179.249C277.356 179.39 277.365 179.545 277.325 179.691C277.285 179.837 277.199 179.966 277.078 180.058C276.958 180.15 276.81 180.2 276.659 180.2V180.208ZM286.294 184.879C286.22 184.879 286.146 184.867 286.076 184.843C280.795 183.087 278.309 176.661 279.035 171.712C279.069 171.537 279.169 171.382 279.314 171.279C279.46 171.176 279.64 171.133 279.816 171.159C279.993 171.185 280.153 171.278 280.262 171.418C280.372 171.559 280.423 171.736 280.405 171.913C279.865 175.602 281.431 181.845 286.512 183.534C286.668 183.587 286.8 183.692 286.884 183.832C286.969 183.973 287.001 184.138 286.975 184.3C286.949 184.461 286.866 184.608 286.741 184.715C286.617 184.821 286.458 184.88 286.294 184.881V184.879Z" fill="black"/>
<path d="M409.59 190.113C408.125 190.113 405.634 189.804 403.499 188.018C401.042 185.962 399.775 182.576 399.735 177.927C399.706 174.783 400.26 171.755 400.844 168.55C401.931 162.602 403.052 156.456 400.401 149.06C398.179 142.869 394.138 138.878 390.885 135.673C388.141 132.968 385.975 130.835 386.137 128.416C386.246 126.804 386.044 117.509 384.723 112.506C383.612 108.273 381.836 104.455 378.609 97.5208C378.039 96.2973 377.423 94.9749 376.758 93.5337L376.075 92.0501C372.924 85.2126 370.202 79.3064 365.292 72.6625C359.714 65.1135 353.035 59.1045 346.965 56.1716C337.11 51.4124 322.316 51.9385 310.985 57.4657C310.903 57.5108 310.813 57.5387 310.719 57.5479C310.626 57.557 310.531 57.5471 310.442 57.5187C310.352 57.4903 310.27 57.4441 310.199 57.3829C310.128 57.3217 310.07 57.2467 310.029 57.1625C309.988 57.0783 309.964 56.9866 309.96 56.893C309.955 56.7995 309.97 56.706 310.002 56.6182C310.035 56.5305 310.085 56.4503 310.15 56.3825C310.215 56.3147 310.293 56.2608 310.379 56.224C322.065 50.5275 337.358 49.9953 347.571 54.9278C353.835 57.9515 360.704 64.1197 366.41 71.8421C371.404 78.6009 374.152 84.5676 377.334 91.4735L378.017 92.9531C378.682 94.3944 379.298 95.7167 379.866 96.9383C383.127 103.947 384.917 107.807 386.064 112.155C387.438 117.396 387.628 126.802 387.515 128.509C387.394 130.305 389.362 132.244 391.851 134.701C395.203 138.005 399.371 142.117 401.698 148.61C404.474 156.351 403.315 162.686 402.199 168.814C401.628 171.953 401.086 174.918 401.112 177.931C401.149 182.14 402.246 185.188 404.371 186.964C407.067 189.23 410.578 188.686 410.615 188.681C410.792 188.66 410.971 188.707 411.114 188.814C411.257 188.92 411.354 189.078 411.383 189.254C411.413 189.43 411.373 189.61 411.272 189.757C411.171 189.904 411.018 190.007 410.843 190.044C410.428 190.098 410.009 190.121 409.59 190.113ZM405.844 206.327C405.776 206.328 405.708 206.319 405.642 206.299C405.555 206.273 405.474 206.23 405.403 206.172C405.333 206.115 405.275 206.044 405.232 205.964C405.189 205.883 405.162 205.796 405.153 205.705C405.144 205.615 405.153 205.523 405.18 205.436C406.628 200.651 405.382 196.446 401.367 192.578C401.297 192.516 401.24 192.441 401.2 192.356C401.159 192.272 401.137 192.18 401.133 192.087C401.129 191.994 401.144 191.901 401.178 191.813C401.211 191.726 401.262 191.646 401.327 191.579C401.392 191.512 401.47 191.458 401.556 191.422C401.642 191.386 401.735 191.367 401.829 191.368C401.923 191.368 402.015 191.388 402.101 191.425C402.187 191.462 402.264 191.516 402.329 191.584C406.691 195.787 408.097 200.583 406.505 205.838C406.462 205.979 406.374 206.103 406.255 206.191C406.137 206.279 405.992 206.327 405.844 206.327ZM320.688 194.338C317.043 194.356 313.404 194.032 309.82 193.372C301.756 191.838 296.061 188.615 293.353 184.053C293.26 183.896 293.233 183.708 293.278 183.531C293.324 183.353 293.438 183.201 293.596 183.108C293.753 183.015 293.942 182.988 294.12 183.033C294.297 183.078 294.45 183.192 294.543 183.35C297.045 187.561 302.423 190.556 310.08 192.018C325.318 194.918 345.333 190.949 355.647 182.983C355.793 182.882 355.972 182.841 356.148 182.868C356.323 182.895 356.481 182.988 356.59 183.128C356.699 183.268 356.749 183.445 356.731 183.621C356.713 183.797 356.628 183.96 356.493 184.075C348.24 190.449 333.962 194.338 320.688 194.338ZM281.413 117.763C281.254 117.763 281.1 117.708 280.977 117.608C280.854 117.509 280.769 117.37 280.736 117.215L278.43 106.33C278.411 106.238 278.411 106.144 278.43 106.052C278.448 105.961 278.485 105.874 278.538 105.797C278.591 105.72 278.659 105.654 278.738 105.604C278.817 105.554 278.906 105.52 278.998 105.505L296.576 102.671C296.681 102.652 296.789 102.658 296.892 102.688C296.995 102.718 297.089 102.771 297.167 102.843C297.246 102.916 297.306 103.006 297.344 103.106C297.381 103.206 297.395 103.313 297.384 103.419L296.374 113.937C296.353 114.114 296.268 114.276 296.134 114.393C296.001 114.511 295.828 114.574 295.65 114.572C295.601 114.57 295.553 114.563 295.505 114.55C295.53 114.598 295.549 114.649 295.562 114.701C295.604 114.879 295.575 115.067 295.479 115.223C295.384 115.379 295.23 115.492 295.052 115.536L293.939 115.806L281.544 117.745C281.501 117.754 281.457 117.76 281.413 117.763ZM279.936 106.763L281.956 116.288L293.644 114.461L294.703 114.203C294.813 114.176 294.928 114.176 295.038 114.203C294.993 114.11 294.969 114.008 294.97 113.905V113.814L295.905 104.185L279.936 106.763ZM309.731 113.929C309.588 113.929 309.448 113.884 309.332 113.802C309.215 113.72 309.126 113.604 309.078 113.469L304.862 101.677C304.828 101.582 304.815 101.48 304.825 101.379C304.835 101.278 304.866 101.18 304.918 101.093C304.97 101.006 305.041 100.932 305.124 100.875C305.208 100.817 305.303 100.779 305.403 100.762L329.507 96.8778C329.615 96.8599 329.726 96.8681 329.831 96.9018C329.936 96.9354 330.031 96.9935 330.108 97.0711C330.186 97.1488 330.244 97.2438 330.278 97.3483C330.311 97.4528 330.319 97.5638 330.301 97.672L328.117 110.807C328.092 110.951 328.022 111.085 327.917 111.187C327.811 111.29 327.676 111.356 327.531 111.377L309.824 113.921C309.793 113.926 309.762 113.928 309.731 113.929ZM306.448 101.998L310.195 112.48L326.84 110.089L328.779 98.3977L306.448 101.998Z" fill="black"/>
</g>
<defs>
<clipPath id="clip0_141_22594">
<rect width="554" height="307" rx="10" fill="white"/>
</clipPath>
</defs>
</svg>
