<svg width="20" height="20" viewBox="0 0 20 20" fill="none" xmlns="http://www.w3.org/2000/svg">
<path d="M12.4998 12.084L14.463 12.6923L12.5885 13.1142L12.4231 14.0427L10.4165 13.334L12.4998 12.084Z" fill="#2C79FF"/>
<path d="M1.02295 12.9021L14.6912 4.95898C14.8251 6.09209 15.3736 7.13557 16.2309 7.88846L2.56263 15.8316C1.7053 15.0787 1.15686 14.0352 1.02295 12.9021Z" fill="#2C79FF"/>
<path d="M1.88027 13.0896L15.5485 5.14648C15.4533 5.68372 15.8114 6.38452 16.208 6.84251L2.53967 14.7857C2.14317 14.3277 1.78504 13.6269 1.88027 13.0896ZM18.1662 8.34023L4.49793 16.2834C4.11366 16.5067 3.62523 16.5116 3.05122 16.1802C2.87826 16.0786 2.71468 15.9618 2.56243 15.8312L16.2307 7.88806C16.383 8.01865 16.5465 8.13543 16.7195 8.23701C17.2935 8.56842 17.7819 8.56353 18.1662 8.34023Z" fill="#1260BC"/>
<path d="M2.53953 14.7862L16.2078 6.84308C16.3552 7.001 16.5248 7.13665 16.7112 7.24575C16.8676 7.34207 17.0428 7.40392 17.225 7.42717L3.55669 15.3703C3.37449 15.3471 3.19934 15.2852 3.04294 15.1889C2.8565 15.0798 2.68692 14.9441 2.53953 14.7862ZM1.55597 11.6248L15.2242 3.68164C14.856 3.89565 14.6553 4.36258 14.6909 4.95914L1.02261 12.9023C0.986996 12.3057 1.1877 11.8388 1.55597 11.6248ZM2.1637 12.5872L15.832 4.64405C15.749 4.70026 15.6803 4.77494 15.6311 4.86222C15.5819 4.94949 15.5536 5.04699 15.5484 5.14705L1.88013 13.0902C1.88528 12.9901 1.91358 12.8926 1.96278 12.8053C2.01199 12.7181 2.08076 12.6434 2.1637 12.5872Z" fill="#1260BC"/>
<path d="M2.93703 13.8064L16.6053 5.86328C16.5836 5.87921 16.5655 5.89963 16.5524 5.92316C16.5392 5.94669 16.5313 5.97277 16.5291 5.99963L2.86084 13.9428C2.863 13.9159 2.87093 13.8898 2.88408 13.8663C2.89722 13.8428 2.91528 13.8223 2.93703 13.8064Z" fill="#1260BC"/>
<path d="M17.5696 7.33398L3.90134 15.2771C3.79678 15.3382 3.67774 15.3702 3.55664 15.3696L17.2249 7.42643C17.346 7.42701 17.4651 7.39509 17.5696 7.33398Z" fill="#1260BC"/>
<path d="M2.80566 13.5778L16.4739 5.63465C16.4876 5.62668 16.5022 5.62059 16.5175 5.61655C16.5364 5.61293 16.5559 5.61687 16.572 5.62753C16.6055 5.64878 16.6318 5.67959 16.6476 5.71598C16.6748 5.7746 16.6698 5.83098 16.6381 5.84941L2.96984 13.7925C3.00155 13.7741 3.00655 13.7177 2.97934 13.6591C2.96353 13.6227 2.93718 13.5919 2.90368 13.5707C2.88765 13.56 2.86808 13.5561 2.84917 13.5597C2.83392 13.5637 2.81929 13.5698 2.80566 13.5778Z" fill="#1260BC"/>
<path d="M17.0307 6.28323L3.36242 14.2264C3.31443 14.2562 3.25949 14.2731 3.203 14.2753C3.14651 14.2774 3.09044 14.2648 3.0403 14.2387C2.96478 14.1889 2.90582 14.1178 2.87092 14.0343C2.85957 14.0054 2.85617 13.9739 2.86106 13.9431L16.5293 6C16.5245 6.03073 16.5279 6.06221 16.5392 6.09119C16.5741 6.17464 16.6331 6.24581 16.7086 6.2956C16.7587 6.3217 16.8148 6.33428 16.8713 6.33211C16.9278 6.32994 16.9827 6.31309 17.0307 6.28323Z" fill="#1260BC"/>
<path d="M17.1575 6.51349L3.48926 14.4566C3.52203 14.4376 3.55239 14.4147 3.57969 14.3884L17.248 6.44531C17.2207 6.47159 17.1903 6.49448 17.1575 6.51349Z" fill="#1260BC"/>
<path d="M2.03076 12.3595L15.699 4.41633C15.8024 4.35771 15.921 4.3318 16.0394 4.34203C16.1787 4.35488 16.3133 4.39929 16.433 4.47187C16.6521 4.60677 16.8408 4.78559 16.9874 4.99706L3.31912 12.9402C3.17255 12.7287 2.98378 12.5499 2.76468 12.415C2.64503 12.3424 2.51043 12.298 2.37107 12.2852C2.25273 12.2749 2.13407 12.3008 2.03076 12.3595Z" fill="#1260BC"/>
<path d="M3.31934 12.9412L16.9876 4.99805C17.2986 5.47635 17.5247 6.09879 17.2481 6.44476L3.57982 14.3879C3.8564 14.0419 3.63034 13.4195 3.31934 12.9412Z" fill="#1260BC"/>
<path d="M17.7008 7.56098L4.03255 15.5041C4.25627 15.3599 4.42103 15.1405 4.49706 14.8854L18.1653 6.94225C18.0893 7.19732 17.9246 7.41678 17.7008 7.56098ZM1.42432 11.3963L15.0926 3.45315C15.1672 3.40988 15.2472 3.37642 15.3304 3.3536C15.5262 3.31183 15.7284 3.30935 15.9252 3.34628C16.1221 3.38322 16.3096 3.45884 16.477 3.56876L2.80871 11.5119C2.64131 11.402 2.45378 11.3264 2.25695 11.2894C2.06013 11.2525 1.85793 11.255 1.66207 11.2967C1.57887 11.3196 1.49896 11.353 1.42432 11.3963ZM5.34007 15.0529L19.0084 7.10981C19.0192 7.1049 19.0311 7.10293 19.0429 7.1041C19.0547 7.10528 19.066 7.10956 19.0756 7.1165C19.0847 7.12181 19.0932 7.12805 19.1009 7.13511C19.1248 7.15589 19.1432 7.1823 19.1544 7.21196C19.1655 7.24162 19.1691 7.27358 19.1648 7.30497C19.045 7.8216 18.7347 8.27401 18.2958 8.57175L4.62756 16.5149C5.06642 16.2172 5.37673 15.7647 5.49647 15.2481C5.50079 15.2167 5.49721 15.1848 5.48607 15.1551C5.47492 15.1254 5.45656 15.099 5.43265 15.0782C5.42487 15.0712 5.41638 15.065 5.40732 15.0596C5.39769 15.0527 5.3864 15.0484 5.37459 15.0472C5.36279 15.0461 5.35088 15.048 5.34007 15.0529Z" fill="#2C79FF"/>
<path d="M2.80876 11.5121C3.04288 11.6504 3.25724 11.8198 3.44601 12.0155C4.25024 12.8514 4.69146 14.0573 4.49711 14.8856C4.33411 15.3499 4.0201 15.6109 3.63425 15.6099C3.42486 15.5836 3.22352 15.5128 3.04378 15.4022C2.82782 15.2756 2.63154 15.1181 2.46118 14.9347C1.90444 14.2934 1.59893 13.4974 1.69603 12.9507C1.75054 12.5166 2.01033 12.2612 2.37131 12.2859C2.51067 12.2988 2.64527 12.3432 2.76493 12.4158C2.98402 12.5507 3.17279 12.7295 3.31935 12.941C3.63035 13.4193 3.85641 14.0417 3.57983 14.3877C3.51065 14.4567 3.42055 14.5009 3.32362 14.5133C3.22669 14.5257 3.12838 14.5056 3.04404 14.4563C2.90321 14.3663 2.79205 14.2367 2.72448 14.0839C2.68209 13.9987 2.66514 13.9032 2.67566 13.8087C2.67709 13.7548 2.69429 13.7026 2.72512 13.6585C2.75594 13.6144 2.79905 13.5803 2.84908 13.5604C2.86799 13.5568 2.88756 13.5607 2.90359 13.5714C2.93709 13.5927 2.96344 13.6235 2.97925 13.6598C3.00938 13.7247 3.00002 13.7869 2.95865 13.7979C2.93046 13.8106 2.90637 13.8309 2.8891 13.8565C2.87182 13.8822 2.86204 13.9121 2.86086 13.943C2.85596 13.9738 2.85937 14.0052 2.87071 14.0342C2.90561 14.1177 2.96458 14.1888 3.04009 14.2386C3.10228 14.2698 3.17259 14.2809 3.24136 14.2706C3.31014 14.2602 3.37403 14.2288 3.42426 14.1807C3.68519 13.8478 3.33047 13.2398 3.20974 13.0519C3.09197 12.882 2.94053 12.7383 2.76482 12.6295C2.66788 12.5709 2.55881 12.5353 2.44596 12.5254C2.14379 12.504 1.92728 12.721 1.88029 13.0898C1.78506 13.627 2.14319 14.3278 2.5397 14.7858C2.68708 14.9437 2.85666 15.0794 3.0431 15.1885C3.1995 15.2848 3.37465 15.3466 3.55685 15.3699C3.89218 15.3703 4.17119 15.1366 4.31659 14.7275C4.48679 13.9908 4.09295 12.92 3.37665 12.176C3.20622 11.9985 3.01253 11.845 2.80087 11.7195C2.65075 11.6214 2.4825 11.5544 2.30605 11.5224C2.1296 11.4904 1.94853 11.4942 1.77354 11.5334C1.26878 11.6726 0.98067 12.1967 1.02277 12.9019C1.15668 14.035 1.70512 15.0784 2.56244 15.8313C2.7147 15.9619 2.87828 16.0787 3.05124 16.1803C4.19596 16.8412 5.00033 16.1647 5.31692 15.0855C5.32847 15.0449 5.36649 15.0363 5.40737 15.0599C5.41643 15.0652 5.42492 15.0714 5.4327 15.0785C5.45661 15.0992 5.47497 15.1257 5.48612 15.1553C5.49726 15.185 5.50084 15.2169 5.49652 15.2483C5.15886 16.3983 4.29327 17.1135 3.05783 16.4003C2.86782 16.2889 2.6883 16.1605 2.5215 16.0167C1.58353 15.1941 0.983303 14.0533 0.836521 12.8144C0.790064 12.0296 1.10682 11.4503 1.66211 11.297C1.85797 11.2552 2.06017 11.2527 2.257 11.2896C2.45382 11.3266 2.64136 11.4022 2.80876 11.5121Z" fill="#2C79FF"/>
<path d="M2.80859 11.5115L16.4769 3.56836C16.711 3.70667 16.9254 3.87598 17.1141 4.07171C17.9184 4.90761 18.3596 6.11348 18.1652 6.94184L4.49695 14.885C4.6913 14.0566 4.25008 12.8508 3.44585 12.0149C3.25708 11.8191 3.04272 11.6498 2.80859 11.5115Z" fill="#2C79FF"/>
<path d="M10.9397 7.65581C10.5171 7.25427 10.0367 6.92221 9.51567 6.67136C9.5076 6.66748 9.49875 6.66567 9.48986 6.66607C9.48096 6.66647 9.4723 6.66908 9.46459 6.67367L7.527 7.82361C7.51683 7.82972 7.50885 7.83905 7.50428 7.85022C7.4997 7.86138 7.49877 7.87377 7.50162 7.88553C7.50447 7.89729 7.51095 7.90778 7.52009 7.91542C7.52923 7.92306 7.54053 7.92745 7.5523 7.92792C8.02242 7.9614 8.79932 8.30083 9.57682 9.04654C10.3615 9.79932 10.9639 11.1813 10.4394 13.2622C10.4366 13.2727 10.4368 13.2838 10.44 13.2941C10.4432 13.3044 10.4493 13.3136 10.4575 13.3204C10.4657 13.3272 10.4757 13.3314 10.4862 13.3324C10.4967 13.3335 10.5072 13.3313 10.5165 13.3262L12.4262 12.1985C12.4341 12.1941 12.4408 12.1879 12.4458 12.1803C12.4508 12.1727 12.4539 12.164 12.455 12.1549C12.6576 10.3521 12.1803 8.84593 10.9397 7.65581Z" fill="#1260BC"/>
</svg>
