<svg width="34" height="34" viewBox="0 0 34 34" fill="none" xmlns="http://www.w3.org/2000/svg">
<path d="M16.9999 0.679688C7.99842 0.679688 0.678223 8.00159 0.678223 16.9997C0.678223 25.9978 7.99842 33.3197 16.9999 33.3197C25.998 33.3197 33.3199 25.9978 33.3199 16.9997C33.3199 8.00159 25.998 0.679688 16.9999 0.679688ZM30.9195 16.9997C30.9195 20.1838 29.8383 23.1197 28.0363 25.4657C27.5263 25.0679 26.984 23.9918 27.494 22.8766C28.0091 21.7546 28.1434 19.157 28.0244 18.1455C27.9122 17.1357 27.3869 14.703 25.9606 14.6792C24.536 14.6588 23.5585 14.1879 22.7119 12.4981C20.9558 8.98249 26.0082 8.30759 24.2521 6.36279C23.7608 5.81539 21.221 8.61019 20.8487 4.88549C20.8249 4.61859 21.0782 4.21909 21.4199 3.80429C26.9347 5.65729 30.9195 10.8712 30.9195 16.9997ZM15.0874 3.21779C14.7542 3.86719 13.8753 4.13069 13.3415 4.61859C12.1787 5.67089 11.6789 5.52469 11.0533 6.53449C10.4226 7.54429 8.38942 8.99779 8.38942 9.72879C8.38942 10.4598 9.41622 11.32 9.92962 11.1534C10.443 10.9834 11.7979 10.9936 12.5935 11.2724C13.3908 11.5546 19.2473 11.8368 17.3807 16.7872C16.7891 18.3614 14.1966 18.0962 13.5064 20.7023C13.4027 21.0848 13.044 22.7185 13.0219 23.2523C12.9794 24.0785 13.6067 27.1929 12.8094 27.1929C12.0087 27.1929 9.85482 24.4066 9.85482 23.9017C9.85482 23.3968 9.29722 21.6271 9.29722 20.1107C9.29722 18.596 6.71662 18.6198 6.71662 16.6053C6.71662 14.7897 8.11572 13.8853 7.80122 13.0132C7.49352 12.1462 5.03532 12.1173 4.01022 12.0102C4.90654 9.6911 6.40585 7.65342 8.35323 6.10771C10.3006 4.562 12.6254 3.56433 15.0874 3.21779ZM12.6207 30.2087C13.4571 29.7667 13.5421 29.1955 14.3003 29.1666C15.1673 29.1275 15.8728 28.8283 16.8503 28.6124C17.7173 28.4237 19.2694 27.5431 20.6345 27.4309C21.7871 27.3374 24.06 27.4904 24.672 28.6022C22.9171 29.7675 20.9199 30.5179 18.8318 30.7962C16.7437 31.0746 14.6196 30.8736 12.6207 30.2087Z" fill="#010F2E"/>
</svg>
