<svg width="42" height="42" viewBox="0 0 42 42" fill="none" xmlns="http://www.w3.org/2000/svg">
<path d="M41.125 13.125L21 2.625L0.875 13.125L21 23.625C30.7213 18.5588 29.75 19.145 29.75 18.8913L20.58 13.895C20.3758 13.779 20.226 13.5866 20.1637 13.3601C20.1013 13.1337 20.1315 12.8917 20.2475 12.6875C20.3635 12.4833 20.5559 12.3335 20.7824 12.2712C21.0088 12.2088 21.2508 12.239 21.455 12.355L31.08 17.605C31.955 18.1125 30.6075 18.6287 33.285 17.2375L41.125 13.125Z" fill="#010F2E"/>
<path d="M21 25.602L8.75 19.2495V25.3745C8.75 29.9595 21.9625 32.4708 29.75 29.0408V21.0433L21 25.602ZM33.25 25.3745V19.2495L31.5 20.1245V28.0783C31.9869 27.8006 32.3999 27.4101 32.7045 26.9396C33.009 26.4691 33.1961 25.9324 33.25 25.3745ZM29.75 21.0433L31.5 20.1245V18.3745C31.5 18.0508 31.64 18.077 29.75 19.0658V21.0433ZM29.75 34.3695C28.5863 35.0433 28.875 36.0408 28.875 39.3745H32.375V35.8745C32.3732 35.5691 32.2914 35.2695 32.1379 35.0055C31.9844 34.7415 31.7645 34.5222 31.5 34.3695V28.0783C30.9516 28.4589 30.3651 28.7815 29.75 29.0408V34.3695Z" fill="#010F2E"/>
</svg>
