<svg width="20" height="20" viewBox="0 0 20 20" fill="none" xmlns="http://www.w3.org/2000/svg">
<path d="M19.5832 6.25L9.99984 1.25L0.416504 6.25L9.99984 11.25C14.629 8.8375 14.1665 9.11667 14.1665 8.99583L9.79984 6.61667C9.70259 6.56141 9.63128 6.46979 9.60158 6.36196C9.57189 6.25413 9.58625 6.13891 9.6415 6.04167C9.69676 5.94442 9.78838 5.87311 9.89621 5.84341C10.004 5.81372 10.1193 5.82808 10.2165 5.88333L14.7998 8.38333C15.2165 8.625 14.5748 8.87083 15.8498 8.20833L19.5832 6.25Z" fill="#2C79FF"/>
<path d="M9.99984 12.1919L4.1665 9.1669V12.0836C4.1665 14.2669 10.4582 15.4627 14.1665 13.8294V10.0211L9.99984 12.1919ZM15.8332 12.0836V9.1669L14.9998 9.58357V13.3711C15.2317 13.2389 15.4284 13.0529 15.5734 12.8289C15.7184 12.6048 15.8075 12.3492 15.8332 12.0836ZM14.1665 10.0211L14.9998 9.58357V8.75024C14.9998 8.59607 15.0665 8.60857 14.1665 9.0794V10.0211ZM14.1665 16.3669C13.6123 16.6877 13.7498 17.1627 13.7498 18.7502H15.4165V17.0836C15.4156 16.9381 15.3767 16.7955 15.3036 16.6698C15.2305 16.544 15.1258 16.4396 14.9998 16.3669V13.3711C14.7387 13.5523 14.4594 13.7059 14.1665 13.8294V16.3669Z" fill="#2C79FF"/>
</svg>
