<svg width="20" height="20" viewBox="0 0 20 20" fill="none" xmlns="http://www.w3.org/2000/svg">
<path fill-rule="evenodd" clip-rule="evenodd" d="M10.0002 1.66602C6.31826 1.66602 3.3335 4.70425 3.3335 8.4521C3.3335 12.1706 5.46126 16.5097 8.78108 18.0613C9.55491 18.4231 10.4454 18.4231 11.2192 18.0613C14.5391 16.5097 16.6668 12.1706 16.6668 8.4521C16.6668 4.70425 13.6821 1.66602 10.0002 1.66602ZM12.5002 8.33268C12.5002 9.71339 11.3809 10.8327 10.0002 10.8327C8.61945 10.8327 7.50016 9.71339 7.50016 8.33268C7.50016 6.95197 8.61945 5.83268 10.0002 5.83268C11.3809 5.83268 12.5002 6.95197 12.5002 8.33268Z" fill="#2C79FF"/>
</svg>
