<svg width="93" height="25" viewBox="0 0 93 25" fill="none" xmlns="http://www.w3.org/2000/svg">
<g clip-path="url(#clip0_1249_22291)">
<path d="M69.9068 25H65.4673C65.471 24.9884 65.4748 24.9692 65.4824 24.9653C65.7393 24.9537 65.9849 24.8882 66.238 24.8458C66.3778 24.815 66.5139 24.7803 66.6461 24.734C66.9408 24.6415 67.2317 24.5259 67.5076 24.3833V20.9567H65.0516L64.9987 21.0106V22.1708C64.9987 22.2248 64.9987 22.2749 65.0667 22.3173H66.17V23.331C66.0302 23.4312 65.8753 23.5045 65.7128 23.5507C65.4673 23.624 65.2141 23.6664 64.961 23.6779C64.8212 23.6856 64.6776 23.701 64.5453 23.6394C64.3375 23.6586 64.1562 23.57 63.9786 23.4891C63.6574 23.3426 63.3816 23.0998 63.1927 22.7953C63.0227 22.5331 62.9207 22.2364 62.8904 21.9241C62.864 21.6543 62.8564 21.3768 62.9131 21.0993C62.9698 20.8218 63.0491 20.5712 63.1965 20.34C63.3438 20.1048 63.5441 19.9044 63.7783 19.7579C64.0202 19.6115 64.2922 19.519 64.5718 19.4881C64.6285 19.4804 64.6851 19.4766 64.7418 19.4766C64.8212 19.4727 64.9005 19.4766 64.9761 19.4766C65.0592 19.4727 65.1385 19.4881 65.2179 19.5113C65.2897 19.5305 65.3615 19.5459 65.437 19.5498C65.5995 19.5614 65.7317 19.6346 65.8678 19.7001C66.0113 19.7656 66.1398 19.8543 66.2494 19.9699C66.2872 20.0085 66.3212 20.0663 66.3892 20.0856C66.529 19.9352 66.665 19.7811 66.8048 19.6307C66.9899 19.4303 67.1562 19.2068 67.3564 19.0179C67.3602 19.014 67.3564 19.0063 67.3564 18.9986C67.3526 18.987 67.3489 18.9755 67.3413 18.9639C67.1562 18.7673 66.7859 18.5554 66.4761 18.432C66.3476 18.3819 66.2154 18.3356 66.0831 18.2894C65.9471 18.2431 65.8111 18.2162 65.6675 18.2046C65.4635 18.193 65.2632 18.1314 65.0554 18.1545C64.9232 18.166 64.7947 18.166 64.6625 18.1545C64.4811 18.1352 64.3073 18.2162 64.1297 18.1969C63.8955 18.3048 63.6234 18.2855 63.4043 18.4359C63.2267 18.4551 63.0907 18.5669 62.9396 18.644C62.7809 18.7327 62.6335 18.8406 62.5013 18.9639C62.1877 19.2414 61.9307 19.5845 61.7532 19.9699C61.6663 20.1588 61.5831 20.3515 61.5378 20.5597C61.5113 20.6946 61.4547 20.8256 61.466 20.9682C61.3942 21.053 61.4282 21.1571 61.432 21.2535C61.4395 21.3537 61.3715 21.4385 61.3867 21.5387C61.398 21.6351 61.4018 21.7276 61.4207 21.8239C61.4509 21.955 61.4433 22.0937 61.4584 22.2286C61.4962 22.5062 61.5718 22.7798 61.6814 23.0381C61.7985 23.3349 61.961 23.6085 62.1688 23.8514C62.4333 24.1713 62.762 24.4334 63.1322 24.6107C63.238 24.6608 63.34 24.7109 63.4458 24.7572C63.6348 24.8458 63.8426 24.8805 64.0466 24.9268C64.0655 24.9306 64.2809 24.9961 64.296 25.0077H0V23.4428C0.0377834 23.4389 0.0377834 23.4659 0.0377834 23.4929C0.034005 23.597 0.0755668 23.6856 0.11335 23.782C0.241814 24.1135 0.551637 24.4681 0.940806 24.6184C1.08438 24.6762 1.23174 24.7225 1.39043 24.7225H22.3375C22.4509 24.7186 22.5605 24.6955 22.6662 24.657C22.9799 24.549 23.2443 24.3679 23.4295 24.0826C23.5957 23.8398 23.6864 23.5469 23.6864 23.2501C23.6826 16.6628 23.6826 10.0717 23.6864 3.48443C23.6864 3.1992 23.6033 2.92168 23.4484 2.6827C23.3388 2.50925 23.1952 2.36278 23.0252 2.25486C22.772 2.09297 22.4811 2.00817 22.1826 2.01203C15.3741 2.00432 8.56927 2.00432 1.76448 2.00432C1.5869 2.00432 1.40932 1.99275 1.22796 2.03515C1.10327 2.06599 0.982368 2.10453 0.861461 2.14693C0.619647 2.23944 0.445844 2.42831 0.290932 2.62103C0.211587 2.72125 0.120907 2.83688 0.117128 2.9872C0.0491184 3.04502 0.0944584 3.16451 0 3.20691V0H91.6247C91.6209 0.0115634 91.6171 0.0346901 91.6096 0.0346901C91.4736 0.0308356 91.364 0.0925069 91.2469 0.158033C91.1297 0.223558 91.0201 0.28523 90.9521 0.393154C90.869 0.52806 90.7481 0.63984 90.7103 0.81329C90.699 0.874961 90.6725 0.932778 90.6801 0.998304C90.6877 1.06768 90.6121 1.11008 90.6385 1.18332C90.6461 1.20644 90.6272 1.24884 90.6423 1.26041C90.7028 1.31437 90.6725 1.38375 90.6801 1.44542C90.6839 1.47626 90.6914 1.50709 90.7028 1.53407C90.835 1.90025 90.869 1.91566 91.1071 2.13922C91.2922 2.31653 91.5265 2.36664 91.7645 2.40518C91.9345 2.42445 92.1045 2.39362 92.2595 2.32038C92.505 2.2086 92.728 2.06213 92.8489 1.78847C92.8942 1.68825 92.9282 1.57262 93 1.48397V25H70.8098C70.806 24.9846 70.8136 24.9653 70.8287 24.9615H70.8401C71.0479 24.9692 71.2443 24.9036 71.437 24.8381C71.6713 24.7572 71.9093 24.6531 72.102 24.4951C72.3665 24.2754 72.5932 24.0094 72.7141 23.6741C72.7519 23.5777 72.801 23.4736 72.8048 23.3734C72.8086 23.2732 72.8652 23.1923 72.8539 23.0882C72.8426 22.9803 72.8426 22.8723 72.8539 22.7683C72.869 22.5833 72.8275 22.4098 72.7746 22.2402C72.6839 21.9396 72.495 21.6813 72.2456 21.504C72.0567 21.3691 71.8489 21.2573 71.6335 21.1725C71.4673 21.0993 71.2934 21.0415 71.1159 20.9952C70.8325 20.9258 70.5567 20.8256 70.296 20.6869C70.1524 20.6059 70.0202 20.5211 69.9673 20.3515C69.9635 20.34 69.9559 20.3284 69.9484 20.3207C69.9484 20.2475 69.9521 20.1742 69.9484 20.101C69.9408 19.916 70.0353 19.7811 70.1675 19.6731C70.2733 19.5845 70.67 19.4843 70.8098 19.4689C70.961 19.4496 71.097 19.5344 71.2443 19.5113C71.2708 19.5074 71.2746 19.5344 71.2935 19.5382C71.505 19.6115 71.7128 19.6924 71.8526 19.8697C71.8942 19.8736 71.9358 19.862 71.9698 19.835C72.0189 19.7965 72.0227 19.7348 72.0642 19.6924C72.2343 19.5305 72.393 19.3532 72.5403 19.1721C72.6272 19.0718 72.7179 18.9755 72.8161 18.8868V18.7982C72.5743 18.5669 72.2796 18.4166 71.966 18.2971C71.8904 18.2701 71.7998 18.2971 71.7393 18.2239C71.6524 18.247 71.5844 18.1699 71.5013 18.1853C71.4181 18.1969 71.3388 18.1506 71.2632 18.1506C70.9118 18.1468 70.5605 18.1237 70.2129 18.2239C69.9219 18.3048 69.5139 18.4628 69.2683 18.6556C69.034 18.8329 68.8413 19.0564 68.694 19.3147C68.5315 19.5999 68.505 19.9198 68.4559 20.2359C68.4408 20.3438 68.4937 20.4363 68.4975 20.5404C68.5013 20.6869 68.5504 20.8218 68.5995 20.9567C68.6977 21.2226 68.9131 21.3961 69.102 21.585C69.1776 21.6582 69.7179 21.9126 69.835 21.9511C70.1259 22.0436 70.4169 22.1323 70.704 22.2325C70.9194 22.3096 71.1234 22.406 71.2935 22.5717C71.3652 22.6411 71.3879 22.7374 71.4446 22.8145V23.1691C71.3161 23.358 71.2103 23.4813 71.0176 23.5623C70.8741 23.6201 70.7229 23.6548 70.5718 23.6664C70.3942 23.6818 70.2242 23.6317 70.0542 23.5893C69.8992 23.5507 69.7557 23.4813 69.6272 23.3888C69.4912 23.3002 69.3703 23.1923 69.2683 23.0651C69.1096 23.2347 68.9547 23.4043 68.8035 23.57C68.6335 23.7589 68.4899 23.9709 68.3048 24.125C68.301 24.1829 68.3048 24.2175 68.3426 24.2484C68.3728 24.2715 68.4106 24.2715 68.4408 24.3023C68.6033 24.4565 68.7922 24.5837 68.9962 24.6762C69.0831 24.7148 69.1776 24.7495 69.2645 24.788C69.3929 24.842 69.529 24.8805 69.6688 24.9075C69.6763 24.9229 69.8879 24.9884 69.9068 25ZM90.2078 8.68794C90.2078 8.395 90.204 8.10977 90.2078 7.82455C90.2116 7.53932 90.2116 7.2618 90.238 6.98042C90.272 6.60268 90.2456 6.22109 90.2456 5.8395C90.2456 5.46562 90.2532 5.09174 90.2456 4.71785C90.238 4.34397 90.2758 3.96623 90.2154 3.59235C90.1927 3.43817 90.1511 3.284 90.0907 3.14138C89.9735 2.88699 89.83 2.65957 89.6071 2.48612C89.3161 2.25871 89.0025 2.12381 88.6322 2.12381H59.6222C59.5919 2.91397 59.6033 8.51835 59.6373 8.68794H90.2078ZM74.2292 24.8381H88.6549C88.8778 24.8381 89.0781 24.7649 89.2783 24.6839C89.4219 24.6261 89.5277 24.522 89.6486 24.4334C89.8149 24.3139 89.9055 24.1482 90.0076 23.9863C90.1776 23.7165 90.2267 23.412 90.2418 23.1036C90.2569 22.7297 90.2456 22.3558 90.2456 21.982C90.2456 21.6081 90.2532 21.2342 90.2456 20.8603C90.238 20.4864 90.2494 20.1241 90.2191 19.7541C90.1889 19.3956 90.1738 19.0294 90.2456 18.671C90.272 18.5438 90.2494 18.4089 90.2494 18.2778H74.2292V24.8381ZM79.1788 16.8208H90.2456C90.2758 16.127 90.2607 10.4302 90.2343 10.2644H79.1788V16.8208ZM31.3262 6.3984C31.2695 6.25578 31.2015 6.144 31.1902 6.02451C31.1713 5.86263 31.1108 5.72001 31.0617 5.5774C31.005 5.42707 30.9824 5.26519 30.9219 5.11486C30.8539 4.95683 30.801 4.79109 30.7632 4.62535C30.7254 4.46731 30.6801 4.31314 30.6272 4.15896C30.5743 4.00863 30.5479 3.8506 30.4836 3.70028C30.4194 3.54995 30.3778 3.38421 30.3249 3.22618C30.2985 3.14138 30.2834 3.04502 30.2494 2.95637C30.2154 2.86771 30.204 2.77521 30.1625 2.69426C30.1209 2.61332 30.1134 2.51311 30.0907 2.42445C30.0605 2.30882 29.9962 2.2086 29.9962 2.09297H28.6776C28.6058 2.31653 28.5416 2.53623 28.4736 2.75594C28.3375 3.17993 28.2015 3.60392 28.073 4.02791C27.9937 4.28615 27.9068 4.5444 27.8123 4.7988C27.7141 5.05319 27.6537 5.33457 27.5705 5.59667C27.5025 5.81637 27.427 6.03222 27.3514 6.26735C27.3363 6.18255 27.306 6.12858 27.2909 6.06691C27.2418 5.8395 27.1851 5.61594 27.1322 5.39238C27.0831 5.19195 27.034 4.99537 26.9849 4.79494C26.9358 4.60993 26.8829 4.42492 26.8375 4.23605C26.7809 4.00093 26.728 3.76195 26.6713 3.52683C26.6259 3.33796 26.573 3.15294 26.5315 2.96408C26.4899 2.76364 26.4295 2.56321 26.3917 2.36278C26.3728 2.27027 26.3917 2.15464 26.3086 2.09682H24.8199C24.8463 2.31267 24.9144 2.5054 24.9786 2.70197C25.0353 2.88699 25.0919 3.06815 25.1373 3.25316C25.2053 3.51912 25.2997 3.77351 25.3564 4.04332C25.3829 4.17438 25.4395 4.30157 25.4698 4.43648C25.5 4.57138 25.5453 4.69858 25.5869 4.82963C25.636 4.98767 25.6814 5.14955 25.7305 5.30759C25.7834 5.46562 25.8287 5.63136 25.8627 5.79325C25.8854 5.9243 25.9458 6.0515 25.9798 6.1864C26.0101 6.32131 26.0592 6.46007 26.1008 6.59497C26.1801 6.84937 26.2519 7.10376 26.3275 7.35816C26.3955 7.58171 26.4597 7.80913 26.5239 8.03654C26.5806 8.22541 26.6373 8.41813 26.694 8.61085H27.8992C27.8501 8.54533 27.9295 8.52991 27.9408 8.47595C27.9748 8.31406 28.0504 8.15988 28.0844 7.998C28.1373 7.75517 28.2317 7.5239 28.296 7.28492C28.3753 6.97656 28.5038 6.67977 28.5831 6.36756C28.6474 6.12088 28.7418 5.88575 28.806 5.63907C28.8892 5.33071 29.0063 5.03006 29.1008 4.72171C29.1537 4.55211 29.2141 4.38252 29.267 4.21292C29.2783 4.18208 29.2443 4.12812 29.3312 4.12812C29.3539 4.21677 29.3728 4.31314 29.403 4.40564C29.4748 4.65618 29.5655 4.89901 29.6335 5.14955C29.7166 5.4502 29.8375 5.74314 29.9169 6.04764C29.9811 6.29818 30.0756 6.54487 30.1474 6.79155C30.238 7.09991 30.3552 7.40056 30.4383 7.70891C30.5025 7.94789 30.6234 8.17145 30.6423 8.42199C30.7066 8.46439 30.6537 8.56845 30.7292 8.60315H31.9761C31.9685 8.50678 32.0101 8.4297 32.0252 8.35261C32.0479 8.24083 32.1159 8.13676 32.131 8.02112C32.1461 7.90549 32.233 7.80142 32.2103 7.67422C32.2972 7.52775 32.3123 7.35816 32.3615 7.20012C32.4106 7.04209 32.4484 6.87249 32.4937 6.71446C32.5693 6.46007 32.6448 6.20567 32.7166 5.94743C32.8111 5.62751 32.898 5.30373 32.9924 4.98381C33.0869 4.6716 33.1662 4.35168 33.2645 4.03561C33.3627 3.71955 33.4421 3.39192 33.5403 3.072C33.6008 2.87542 33.6461 2.67499 33.699 2.47842C33.7368 2.35122 33.7783 2.22402 33.8199 2.08912H32.3879C32.0479 3.51141 31.6738 4.92985 31.3262 6.3984ZM72.1889 11.4593V10.3878L74.4673 13.9454V16.7014C74.9169 16.7245 75.7179 16.7168 75.8766 16.6898V13.9261C75.903 13.9069 75.9257 13.8799 75.9446 13.8529C76.1448 13.4636 76.4169 13.1206 76.6398 12.7467C76.7872 12.5 76.9647 12.2726 77.1083 12.022C77.335 11.6289 77.6033 11.2589 77.8413 10.8696C77.9547 10.6807 78.0718 10.4995 78.1965 10.3184C78.2305 10.2683 78.2494 10.2336 78.2154 10.1796H76.6398C76.5038 10.3068 76.4358 10.488 76.3375 10.6499C76.2431 10.8117 76.1448 10.9813 76.0466 11.1471C75.9484 11.3128 75.8464 11.4632 75.7594 11.6289C75.6725 11.7946 75.5705 11.9642 75.4723 12.1261C75.3703 12.288 75.3098 12.4615 75.1851 12.5887C75.1474 12.5848 75.1133 12.5617 75.0945 12.527C75.0567 12.4229 74.9887 12.3304 74.9358 12.234C74.762 11.891 74.5693 11.5634 74.3841 11.228C74.2368 10.9621 74.097 10.6961 73.9534 10.4302C73.9043 10.3415 73.8589 10.249 73.7834 10.195H67.16V11.4709H68.966V16.7052H70.3791V11.4593H72.1889ZM36.7519 10.1796V14.697C36.7103 14.6893 36.6763 14.6623 36.6612 14.6238C36.597 14.4735 36.4912 14.3501 36.4118 14.2075C36.3212 14.0456 36.2267 13.8837 36.1322 13.7257C36.0151 13.5291 35.8904 13.3364 35.7771 13.136C35.6184 12.8546 35.437 12.5887 35.2859 12.3034C35.1612 12.0683 35.0101 11.8447 34.8741 11.6173C34.7872 11.4747 34.7116 11.3244 34.6209 11.1856C34.4736 10.9621 34.3489 10.7231 34.2053 10.4995C34.1335 10.3916 34.1033 10.2529 33.9824 10.1796H32.131V16.7014C32.5617 16.7245 33.3816 16.7168 33.5441 16.6898V12.103C34.4849 13.6602 35.3917 15.1904 36.3023 16.7014H38.1688V10.2297L38.1196 10.1796H36.7519ZM42.136 24.8343H43.9761C44.0063 24.0749 43.9912 18.4898 43.9647 18.3164H42.5705V22.8068C42.5705 22.8145 42.5668 22.8184 42.563 22.8222C42.5592 22.8261 42.5554 22.8299 42.5479 22.8338C41.6448 21.3267 40.7456 19.8196 39.8501 18.3125H37.9458V24.8304H39.3552V20.1858L42.136 24.8343ZM59.063 22.7875C59.0252 22.803 58.9799 22.7875 58.9647 22.749C58.8589 22.5293 58.7191 22.3327 58.5945 22.1246C58.5 21.9627 58.4055 21.8047 58.3111 21.6428C58.1864 21.4346 58.0617 21.2265 57.937 21.0183C57.835 20.8488 57.7406 20.6714 57.6348 20.5057C57.5063 20.3091 57.393 20.101 57.272 19.9006C57.1511 19.7001 57.0227 19.4843 56.898 19.2761C56.7733 19.068 56.6486 18.8599 56.5239 18.6556C56.4521 18.5399 56.4068 18.4012 56.3086 18.3125H54.4458V24.8304H55.8174V20.1665C55.8741 20.2436 55.927 20.3245 55.9761 20.4093C56.1008 20.6329 56.2406 20.8449 56.3766 21.0607C56.5013 21.2689 56.6259 21.4732 56.7506 21.6852C56.8451 21.8471 56.9358 22.0089 57.0302 22.167C57.1474 22.3636 57.272 22.5601 57.3892 22.7567C57.5176 22.9687 57.6385 23.1846 57.767 23.3965C57.903 23.6201 58.039 23.8437 58.1751 24.0634C58.2997 24.2638 58.4244 24.4642 58.5416 24.6685C58.5718 24.7263 58.6096 24.7803 58.6587 24.8265H60.4458V18.3125H59.0743L59.063 22.7875ZM40.961 5.34613C40.961 5.18039 40.9874 5.00694 40.9534 4.84505C40.9194 4.67545 40.8967 4.502 40.8476 4.33241C40.7985 4.16281 40.7569 3.98165 40.6814 3.82362C40.5718 3.58464 40.4358 3.35723 40.2733 3.15295C40.0957 2.92553 39.8841 2.72895 39.6537 2.55936C39.4345 2.40903 39.204 2.28184 38.9622 2.18162C38.6448 2.03515 38.3048 1.97734 37.9685 1.93108C37.7494 1.90025 37.5227 1.93494 37.2998 1.92337C37.0768 1.91181 36.8652 1.98504 36.6461 2.01203C36.5781 2.01973 36.5139 2.03515 36.4534 2.05828C36.1738 2.1585 35.8867 2.24329 35.6373 2.41289C35.4786 2.51696 35.3199 2.61332 35.1877 2.75208C35.097 2.84844 35.0025 2.94095 34.9118 3.03346C34.7305 3.21462 34.6134 3.43432 34.4849 3.65402C34.4093 3.79278 34.3489 3.94311 34.3035 4.09729C34.2166 4.37481 34.1259 4.64847 34.1335 4.94527C34.1335 4.97225 34.1448 5.01079 34.1297 5.02621C34.0504 5.11486 34.1033 5.21893 34.0957 5.31144C34.0882 5.4078 34.073 5.51958 34.0995 5.60823C34.1259 5.68147 34.1373 5.75856 34.1297 5.83179C34.1146 5.91659 34.1826 5.97826 34.1713 6.05535C34.1562 6.16328 34.194 6.26349 34.2242 6.35214C34.3224 6.62966 34.398 6.91875 34.5605 7.16929C34.6776 7.35045 34.7872 7.53546 34.9383 7.68964C35.0819 7.83225 35.2141 7.98643 35.3804 8.09821C35.4975 8.17916 35.6146 8.25624 35.7393 8.32562C35.9055 8.41428 36.0793 8.49137 36.2569 8.55304C36.6083 8.68023 36.9748 8.74961 37.3451 8.76503C37.568 8.77274 37.7947 8.79972 38.0176 8.73034C38.097 8.70722 38.1839 8.74961 38.2632 8.70336C38.335 8.66482 38.4295 8.71878 38.4937 8.6494C38.7544 8.60314 38.9962 8.50293 39.2305 8.39115C39.4534 8.28323 39.6461 8.12519 39.8501 7.97487C40.0315 7.83996 40.16 7.67037 40.296 7.50077C40.3564 7.43525 40.4093 7.36587 40.4547 7.28878C40.5453 7.11533 40.6511 6.94573 40.7191 6.76072C40.8476 6.40996 40.9421 6.05535 40.9647 5.68532C40.9685 5.57354 40.961 5.46176 40.961 5.34613ZM52.5907 8.61471H53.5088C53.8149 8.61471 54.1247 8.61856 54.4307 8.61471C54.7254 8.607 55.0239 8.65325 55.3186 8.57616C55.5302 8.60315 55.7267 8.49137 55.9345 8.49522C56.1763 8.39115 56.4295 8.33333 56.6675 8.2177C56.9584 8.07894 57.2267 7.90163 57.4723 7.69349C57.6272 7.5663 57.7632 7.41212 57.8728 7.24252C57.937 7.13845 58.0164 7.04209 58.0731 6.92646C58.1788 6.7029 58.2733 6.47549 58.3489 6.24036C58.3942 6.09775 58.4207 5.94742 58.432 5.7971C58.4584 5.50416 58.4395 5.21122 58.4395 4.91443C58.4395 4.86047 58.4055 4.81422 58.4055 4.77182C58.4018 4.56368 58.3413 4.37095 58.2809 4.18208C58.1562 3.79278 57.9521 3.43432 57.6839 3.12982C57.5781 3.01033 57.4534 2.92168 57.3363 2.82146C57.238 2.73666 57.1285 2.66728 57.0113 2.60947C56.8111 2.50925 56.6146 2.39747 56.3955 2.33965C56.2179 2.28955 56.0479 2.22017 55.8627 2.19704C55.7758 2.18548 55.6776 2.19319 55.6058 2.1585C55.5076 2.11224 55.4131 2.15079 55.3262 2.12381C55.228 2.09682 55.1297 2.08526 55.0277 2.08526C54.2834 2.08526 53.5353 2.08526 52.7909 2.08526H52.5945L52.5907 8.61471ZM56.1877 14.1035C56.2443 14.2538 56.3237 14.381 56.3955 14.5082C56.5693 14.8397 56.7393 15.1788 56.9055 15.5142C56.9924 15.6838 57.0756 15.8572 57.1625 16.0268C57.2758 16.2504 57.3967 16.4739 57.5139 16.7014C58.1448 16.7245 59.0252 16.7168 59.1763 16.6859C59.1461 16.6281 59.1197 16.5665 59.0856 16.5048C58.9383 16.2542 58.7834 16.0037 58.636 15.7532C58.5491 15.6028 58.466 15.4525 58.3791 15.3022C58.2317 15.0517 58.0806 14.8011 57.9295 14.5506C57.8312 14.3848 57.733 14.2191 57.631 14.0572C57.6121 14.0225 57.6083 13.984 57.6272 13.9493C57.7632 13.9377 57.8879 13.8799 58.0126 13.8375C58.1751 13.7797 58.2922 13.6525 58.432 13.5638C58.5 13.5214 58.5378 13.4366 58.5907 13.375C58.8023 13.1283 58.9043 12.8276 58.9421 12.5231C58.9761 12.2263 58.9874 11.918 58.9118 11.6212C58.8778 11.4632 58.8249 11.3128 58.7532 11.1664C58.6285 10.9235 58.3186 10.6229 58.0731 10.5034C57.9219 10.4379 57.7708 10.38 57.6121 10.3299C57.4458 10.2721 57.2758 10.2644 57.1096 10.2182C57.0189 10.195 56.9131 10.2105 56.8149 10.2143C56.7166 10.2182 56.6335 10.1681 56.5353 10.1719C55.7834 10.1796 55.0315 10.1758 54.2796 10.1758H54.1398L54.0907 10.2259V16.7014H55.5V14.1035H56.1877ZM27.5479 22.2402C27.6385 22.4098 27.7179 22.5794 27.8086 22.7374C28.0013 23.0766 28.1562 23.4351 28.3413 23.7743C28.534 24.125 28.6965 24.4912 28.8854 24.8304H30.5592C30.4496 24.6454 30.3438 24.4681 30.238 24.2908C30.1511 24.1405 30.0718 23.9863 29.9811 23.8398C29.8338 23.5893 29.6788 23.3387 29.5315 23.0882C29.437 22.9263 29.3426 22.7683 29.2481 22.6064C29.1461 22.4329 29.0479 22.2595 28.9496 22.0899C29.1725 22.0128 29.3917 21.9665 29.5844 21.8355C29.7846 21.6967 29.9584 21.531 30.0718 21.3074C30.2305 20.9952 30.3401 20.6714 30.3212 20.313C30.3174 20.2475 30.3212 20.1781 30.3212 20.1126C30.3174 19.9545 30.2909 19.7965 30.2418 19.6462C30.0529 19.0834 29.8678 18.883 29.4106 18.6093C29.267 18.5207 29.097 18.486 28.9345 18.4282C28.8287 18.3935 28.7229 18.3703 28.6133 18.3588C28.3602 18.3241 28.1033 18.3087 27.8463 18.3087C27.1058 18.3202 26.369 18.3125 25.6285 18.3125C25.5718 18.3125 25.5113 18.2971 25.4622 18.3241V24.8304H26.8753V22.2402H27.5479ZM45.4383 5.87805C45.4496 5.83565 45.4987 5.86263 45.5176 5.83179C45.5365 5.80096 45.563 5.81637 45.5856 5.80866C45.8048 5.7547 46.0088 5.65063 46.1826 5.50416C46.5605 5.1881 46.738 4.76411 46.7683 4.27074C46.7758 4.13583 46.7645 4.00478 46.7683 3.86987C46.772 3.70028 46.7305 3.54224 46.6889 3.38421C46.5982 3.0296 46.3904 2.74823 46.1146 2.53238C45.9673 2.41674 45.7897 2.34351 45.6121 2.27798C45.4345 2.2086 45.2494 2.16235 45.0605 2.13537C44.8526 2.10068 44.6411 2.08526 44.4295 2.08141C43.6625 2.09297 42.8992 2.08526 42.1322 2.08526H41.9395V8.607H43.3149V6.01295H44.0214C44.1008 6.17484 44.1952 6.33287 44.2821 6.49861C44.4559 6.82624 44.6033 7.16543 44.7846 7.48921C44.9698 7.82455 45.1133 8.17916 45.3098 8.50678C45.3325 8.54533 45.3438 8.58773 45.3703 8.60315H47.0063C47.0063 8.57616 47.0101 8.55689 46.9987 8.53762C46.8778 8.35646 46.772 8.16759 46.6587 7.97872C46.5 7.71662 46.3489 7.45452 46.194 7.19241C45.9937 6.85708 45.8123 6.51018 45.5932 6.18255C45.5819 6.06691 45.461 5.99753 45.4383 5.87805ZM49.1826 18.3125C49.1184 18.378 49.0655 18.459 49.0013 18.5322C48.8275 18.7365 48.6272 18.9138 48.461 19.1258C48.2985 19.3301 48.1058 19.5113 47.932 19.7001C47.6335 20.02 47.3577 20.3669 47.0365 20.6676C47.0025 20.6984 46.9572 20.7293 46.9421 20.7678C46.9043 20.8719 46.8136 20.9181 46.7305 21.0299V18.3164H45.3287V24.8343H46.738V21.7738C46.8249 21.8625 46.9043 21.9241 46.9572 22.0089C47.063 22.1747 47.2028 22.3057 47.3237 22.4522C47.4295 22.5833 47.5466 22.7066 47.6486 22.8377C47.8111 23.0496 47.9887 23.2501 48.1587 23.4582C48.2758 23.6047 48.3854 23.7627 48.529 23.8861C48.5441 23.8976 48.5668 23.913 48.5668 23.9285C48.5894 24.0171 48.6612 24.0672 48.7254 24.1212C48.7935 24.1829 48.8237 24.2715 48.8879 24.3332C49.0466 24.4835 49.1713 24.6647 49.2998 24.8304H51.2758C51.17 24.7687 51.1587 24.6762 51.0907 24.6107C50.9773 24.5028 50.8791 24.3833 50.7771 24.2677C50.5428 24.0017 50.3123 23.728 50.0705 23.4659C49.8778 23.2539 49.7078 23.0188 49.4924 22.8261C49.4811 22.8184 49.4736 22.8068 49.466 22.7991C49.3489 22.5871 49.1524 22.4406 49.0013 22.2595C48.8199 22.0398 48.6348 21.8201 48.4307 21.6158C48.3665 21.5503 48.3136 21.4655 48.2456 21.3961C48.2154 21.3691 48.2305 21.3344 48.2267 21.2997C48.5101 20.9837 48.8275 20.7023 49.0995 20.3708C49.3338 20.0817 49.6171 19.835 49.8665 19.5537C50.199 19.1759 50.5693 18.829 50.9018 18.4474C50.9395 18.405 50.9811 18.3665 51.0302 18.3125H49.1826ZM49.8816 14.0572H52.6625V12.7428H49.8816V11.5402H52.8174V10.2336L52.7683 10.1835H48.5214L48.4761 10.2297V16.7014H52.9761V15.3793H49.8854L49.8816 14.0572ZM25.4509 10.1796C25.4509 11.5634 25.4547 12.9317 25.4471 14.3C25.4471 14.4658 25.5038 14.62 25.4887 14.7818C25.5529 14.8474 25.5151 14.9437 25.5416 15.0208C25.6096 15.2444 25.6965 15.4641 25.8023 15.6722C25.8589 15.7917 25.9383 15.9035 26.029 15.9998C26.1196 16.0846 26.2066 16.1772 26.2935 16.2697C26.4333 16.4123 26.5995 16.5279 26.7846 16.605C26.9207 16.6667 27.0642 16.7206 27.2078 16.7669C27.3514 16.8131 27.5101 16.8208 27.6574 16.8632C27.7594 16.8941 27.8841 16.8478 27.9861 16.8748C28.0844 16.9056 28.1902 16.9056 28.2922 16.8748C28.3715 16.8555 28.4509 16.8555 28.5264 16.8748C28.6134 16.8902 28.6814 16.8247 28.7645 16.8324C28.8703 16.8401 28.9685 16.7939 29.0705 16.763C29.1877 16.7283 29.2972 16.6744 29.4106 16.6358C29.5957 16.5703 29.7695 16.4662 29.9131 16.3313C30.0756 16.1926 30.2229 16.0345 30.3514 15.8611C30.4685 15.6915 30.5592 15.5065 30.6272 15.3138C30.6839 15.1634 30.7519 15.0131 30.7481 14.8435C30.8199 14.7703 30.7557 14.6739 30.7859 14.6007C30.8161 14.5236 30.8275 14.4388 30.8199 14.354V10.2451L30.7708 10.1835H29.4068V14.1728C29.4068 14.4619 29.3237 14.7471 29.1725 14.9938C29.0668 15.1711 28.8514 15.3677 28.6587 15.4448C28.5227 15.4988 28.3829 15.5604 28.228 15.545C28.1108 15.5335 27.9861 15.5681 27.8766 15.5373C27.6423 15.4718 27.3136 15.3369 27.136 15.0478C27.0605 14.9206 26.9698 14.8088 26.932 14.6546C26.8867 14.5005 26.864 14.3463 26.8564 14.1844V10.2374L26.7997 10.1796H25.4509ZM33.3929 18.3087C33.3741 18.3318 33.3552 18.3549 33.3438 18.3819C33.2758 18.5553 33.2078 18.7249 33.136 18.8945C33.0076 19.1836 32.8867 19.4727 32.7657 19.7618C32.6788 19.9738 32.5844 20.1781 32.4975 20.3901C32.3841 20.6714 32.267 20.9451 32.1499 21.2265C32.0327 21.504 31.9081 21.7931 31.7909 22.0745C31.6738 22.3597 31.5567 22.6295 31.4433 22.9109C31.3149 23.2308 31.1675 23.543 31.0315 23.8591C30.9295 24.0942 30.835 24.3409 30.7292 24.5722C30.6877 24.657 30.6537 24.7456 30.6272 24.8343H32.1725L32.694 23.4852H35.1839L35.728 24.8381H37.2771C37.2809 24.8111 37.2809 24.7842 37.2771 24.7572C37.2091 24.5876 37.1373 24.4141 37.0617 24.2484C36.9899 24.0903 36.9144 23.9362 36.8501 23.7781C36.7594 23.5392 36.6499 23.3002 36.5554 23.0612C36.4912 22.8993 36.4043 22.749 36.3438 22.591C36.2267 22.2749 36.0793 21.9704 35.9584 21.6505C35.8753 21.4346 35.7771 21.2188 35.6826 21.0068C35.6108 20.8565 35.5466 20.7023 35.4861 20.5481C35.4257 20.3939 35.3501 20.2436 35.2897 20.0894C35.1763 19.8042 35.0554 19.5228 34.9345 19.2376C34.8174 18.9678 34.6965 18.698 34.5718 18.4282C34.5567 18.3935 34.5869 18.3472 34.5453 18.3164H33.3929V18.3087ZM59.4559 16.0538C59.4937 16.1656 59.5882 16.1887 59.6562 16.2427C59.7771 16.339 59.9055 16.4277 60.0378 16.5048C60.204 16.605 60.3854 16.6821 60.5705 16.736C60.8048 16.8016 61.0353 16.8748 61.2846 16.871C61.3526 16.871 61.4169 16.8555 61.4887 16.9018C61.5529 16.9326 61.6322 16.9288 61.6927 16.8902C61.7267 16.871 61.7645 16.8632 61.8023 16.871C61.9987 16.8787 62.1877 16.8401 62.3804 16.7939C62.6562 16.7245 62.966 16.6166 63.17 16.4701C63.4496 16.2774 63.6763 16.0191 63.8388 15.7146C63.9824 15.4371 64.0164 15.1287 64.0579 14.8281C64.0655 14.7626 64.0504 14.6932 64.0617 14.6277C64.0693 14.5621 63.9975 14.5159 64.0202 14.4426C64.0428 14.3578 64.0088 14.2808 63.9824 14.1998C63.9295 14.0032 63.835 13.8144 63.7103 13.6563C63.4723 13.3673 63.1587 13.1861 62.8149 13.0666C62.5693 12.9818 62.3199 12.9047 62.0705 12.8238C61.8703 12.7582 61.6662 12.7043 61.4773 12.5925C61.3186 12.4961 61.194 12.3805 61.1373 12.1955C61.1033 12.0876 61.1373 11.9874 61.1146 11.8949C61.1788 11.8216 61.194 11.7291 61.2544 11.6636C61.4018 11.5094 61.602 11.413 61.8136 11.3976C62.0214 11.3784 62.2368 11.3629 62.4446 11.4285C62.6411 11.4901 62.83 11.5518 62.9773 11.7098C63.0076 11.7407 63.0265 11.7908 63.0756 11.7946C63.1549 11.7831 63.1436 11.706 63.1814 11.6674C63.3438 11.4978 63.5063 11.3321 63.6574 11.1471C63.7708 11.0045 63.9257 10.8927 64.0126 10.7269C63.937 10.6306 63.8426 10.5458 63.7368 10.488C63.5743 10.3916 63.4043 10.3107 63.2305 10.2374C63.1171 10.1912 63 10.1565 62.8791 10.1334C62.7506 10.1064 62.6259 10.0601 62.4899 10.0755C62.3615 10.091 62.2443 10.0139 62.1121 10.037C62.0139 10.0524 61.9156 10.037 61.8136 10.0717C61.7116 10.1064 61.602 10.0948 61.5 10.1102C61.2846 10.1488 61.073 10.2143 60.8728 10.3068C60.6083 10.4263 60.3665 10.5959 60.17 10.8156C60.0453 10.9467 59.9358 11.1008 59.8526 11.2627C59.7582 11.4477 59.728 11.652 59.66 11.8409C59.6788 12.0799 59.6373 12.3227 59.694 12.5655C59.7998 13.0126 59.9962 13.2478 60.3098 13.4867C60.4496 13.5947 60.6083 13.6872 60.7708 13.7527C60.9559 13.8298 61.1448 13.8953 61.3338 13.9647C61.6436 14.0765 61.961 14.1574 62.2481 14.3193C62.3577 14.381 62.4597 14.4658 62.539 14.5621C62.6751 14.7279 62.6826 15.0324 62.5466 15.1981C62.4824 15.2829 62.4068 15.3523 62.3199 15.4101C62.1914 15.4872 62.0554 15.5527 61.9118 15.5604C61.7154 15.572 61.5189 15.5874 61.3186 15.5296C61.1184 15.4718 60.7519 15.2945 60.6083 15.1557C60.5441 15.0902 60.4836 15.017 60.4383 14.9399C60.4043 14.9977 60.3967 15.0401 60.3627 15.0709C60.2343 15.202 60.1171 15.3407 59.9962 15.4718C59.8111 15.6452 59.6448 15.8572 59.4559 16.0538ZM44.6788 14.4272H44.6297C44.1083 13.0088 43.5869 11.5942 43.0693 10.1796H41.4635C41.4861 10.249 41.5353 10.2991 41.5428 10.3531C41.5768 10.5265 41.6637 10.6768 41.7242 10.8387C41.7809 11.0006 41.8526 11.1702 41.9244 11.336C42.0151 11.5441 42.102 11.7561 42.1776 11.9719C42.306 12.3381 42.4534 12.6966 42.5932 13.0589C42.6763 13.2709 42.767 13.479 42.8426 13.6949C42.9559 13.9955 43.073 14.2923 43.1902 14.5891C43.2809 14.8242 43.3829 15.0555 43.4698 15.2906C43.5907 15.6105 43.7229 15.9305 43.8401 16.2542C43.893 16.4046 43.9496 16.5549 44.0063 16.7052H45.1474C45.2834 16.3776 45.4118 16.0422 45.5516 15.7146C45.5894 15.6221 45.6423 15.5373 45.6688 15.4448C45.7519 15.1596 45.8804 14.8936 45.9937 14.62C46.0655 14.4388 46.1373 14.2538 46.2204 14.0726C46.296 13.9069 46.3602 13.7296 46.4207 13.5561C46.4849 13.375 46.5642 13.2015 46.636 13.0242C46.704 12.8546 46.7758 12.6812 46.8476 12.5116C46.9194 12.342 46.9874 12.157 47.0554 11.9796C47.1234 11.8023 47.2028 11.6289 47.2708 11.4516C47.3388 11.2743 47.4106 11.1085 47.4786 10.9389C47.5617 10.7269 47.6411 10.515 47.7317 10.3068C47.7506 10.2606 47.7657 10.2259 47.7469 10.1796H46.2771C45.7443 11.5942 45.2116 13.0126 44.6788 14.4272ZM47.7997 8.607H51.7972V7.29263H49.2091V2.11224C49.2091 2.10453 49.2053 2.10068 49.2015 2.09682C49.1977 2.09297 49.194 2.08911 49.1977 2.09297H47.7997V8.607ZM53.131 24.8343V18.3164C52.704 18.2932 51.9181 18.301 51.767 18.3279V24.8343H53.131ZM39.4345 16.7014H40.8023V10.2374L40.7532 10.1835H39.4307V16.7014H39.4345ZM65.0819 10.1796V16.7052H65.7733C65.7733 16.7052 66.2267 16.7091 66.4421 16.7014V10.2259L66.3929 10.1758L65.0819 10.1796Z" fill="#FEFDFC"/>
<path d="M0 3.2068C0.0906801 3.16441 0.0491184 3.04492 0.117128 2.9871C0.117128 2.83678 0.207809 2.72114 0.290932 2.62093C0.449622 2.4282 0.619647 2.23934 0.861461 2.15068C0.982368 2.10443 1.10327 2.06974 1.22796 2.0389C1.40932 1.99265 1.5869 2.00421 1.76448 2.00421H22.1788C22.4773 2.00421 22.7683 2.08901 23.0214 2.2509C23.1914 2.35882 23.3388 2.50529 23.4446 2.67874C23.5995 2.91772 23.6826 3.19524 23.6826 3.48047C23.6788 10.0677 23.6788 16.6589 23.6826 23.2461C23.6826 23.5429 23.5919 23.8359 23.4257 24.0787C23.2368 24.3639 22.9761 24.5489 22.6625 24.653C22.5567 24.6915 22.4471 24.7147 22.3338 24.7185H1.39043C1.23174 24.7185 1.08438 24.6684 0.940806 24.6145C0.555416 24.4641 0.241814 24.1095 0.11335 23.778C0.0755668 23.6817 0.034005 23.593 0.0377834 23.489C0.0377834 23.462 0.0377834 23.435 0 23.4388L0 3.2068ZM9.53652 14.3423C9.78212 14.4425 9.98237 14.589 10.1902 14.7124C10.4698 14.8781 10.7494 15.0477 11.0252 15.2173C11.1914 15.3214 11.369 15.41 11.5315 15.5141C11.8451 15.7184 12.17 15.9072 12.4987 16.0807C12.9824 16.3351 13.4622 16.5972 13.9723 16.8015C14.1537 16.8709 14.3312 16.9556 14.5126 17.0135C14.7053 17.0713 14.8829 17.1831 15.0945 17.1831C15.2078 17.264 15.3552 17.2447 15.4798 17.2987C15.6045 17.3527 15.7443 17.3449 15.8804 17.3796C16.0617 17.422 16.2506 17.4182 16.4358 17.4606C16.5189 17.476 16.6058 17.476 16.6889 17.4606C16.7834 17.4452 16.8589 17.5107 16.9458 17.503C17.2859 17.4799 17.6297 17.5415 17.9698 17.4644C18.0605 17.449 18.1549 17.449 18.2456 17.4644C18.3401 17.476 18.4118 17.4028 18.5063 17.422C18.6008 17.4413 18.6801 17.3835 18.7632 17.3873C18.8879 17.3912 18.9975 17.3141 19.1184 17.3411C19.1864 17.2717 19.2771 17.3141 19.3526 17.2871C19.4811 17.2486 19.6096 17.2139 19.7418 17.1792C19.9496 17.1252 20.1612 17.0867 20.3615 17.0135C20.5806 16.9287 20.8111 16.867 21.0189 16.7475C21.1549 16.7475 21.2531 16.6473 21.3778 16.6087C21.5365 16.5625 21.6801 16.4546 21.8312 16.3698C21.8312 16.3004 21.8463 16.2349 21.8199 16.1732H21.6159C21.597 16.1886 21.5743 16.204 21.5516 16.2117C21.3589 16.2965 20.8262 16.4469 20.6259 16.497C20.5428 16.5124 20.4597 16.5355 20.3804 16.5663C20.3048 16.5972 20.2103 16.5779 20.1234 16.6049C20.0441 16.6319 19.9458 16.5895 19.8665 16.6511C19.6285 16.6357 19.3942 16.7128 19.1562 16.6935C19.005 16.682 18.8539 16.682 18.7066 16.6935C18.4345 16.7167 18.1662 16.6627 17.898 16.6434C17.7922 16.6357 17.6788 16.6357 17.5844 16.6049C17.5126 16.5818 17.437 16.601 17.3841 16.5663C17.3161 16.5201 17.2481 16.5394 17.1801 16.5317C17.1612 16.5317 17.1423 16.5278 17.1272 16.5201C16.9496 16.4546 16.7607 16.4314 16.5756 16.3736C16.4018 16.3197 16.2204 16.2773 16.0466 16.2233C15.7066 16.1154 15.3703 15.9882 15.0378 15.8571C14.7053 15.7261 14.3728 15.5873 14.0554 15.4254C13.432 15.1171 12.8086 14.8126 12.204 14.4695C11.9395 14.3192 11.6675 14.1804 11.3917 14.0532C11.1159 13.926 10.8778 13.7449 10.5982 13.6331C10.6134 13.6177 10.6247 13.5984 10.636 13.5907C10.8249 13.4982 10.9723 13.344 11.1234 13.2053C11.3917 12.9624 11.6335 12.6926 11.8489 12.3997C12.0076 12.1761 12.1549 11.9449 12.2909 11.7059C12.427 11.4708 12.5365 11.2241 12.6196 10.9658C12.6839 10.7577 12.7594 10.5573 12.7972 10.3375C12.8199 10.1872 12.8463 10.0369 12.8804 9.89043C12.9106 9.77094 12.8766 9.65146 12.9144 9.54739C12.9559 9.42404 12.9521 9.30455 12.9484 9.18121C12.9408 8.96536 12.9748 8.74951 12.9144 8.53366C12.8841 8.42574 12.8917 8.30625 12.8804 8.19062C12.8615 8.02102 12.8237 7.85142 12.7935 7.68568C12.7443 7.44285 12.6725 7.20388 12.5781 6.97646C12.4874 6.74134 12.3778 6.51007 12.2494 6.29422C12.0718 5.98201 11.8489 5.70835 11.6222 5.43854C11.5202 5.3229 11.4068 5.21498 11.2821 5.12247C11.199 5.05694 11.1234 4.976 11.0327 4.91047C10.8438 4.77171 10.6436 4.64452 10.4395 4.52888C10.2166 4.40169 9.98615 4.29762 9.74433 4.20896C9.5403 4.13187 9.32872 4.06635 9.11713 4.01624C8.90932 3.96228 8.69396 3.91988 8.48237 3.88904C8.24055 3.86206 7.99874 3.82352 7.75315 3.84279C7.66625 3.8505 7.57935 3.86206 7.49244 3.8081C7.42443 3.7657 7.36398 3.84664 7.29597 3.84664C7.06549 3.8505 6.83501 3.83894 6.60453 3.87748C6.48363 3.89675 6.35894 3.93915 6.23048 3.92759C6.16625 3.99311 6.08312 3.95071 6.01511 3.97384C5.8073 4.04708 5.59572 4.09333 5.38791 4.16656C5.16121 4.24751 4.93829 4.34387 4.71914 4.45179C4.57557 4.52117 4.43955 4.60212 4.3073 4.69077C4.02771 4.87193 3.76322 5.08393 3.52141 5.31905C3.41184 5.42697 3.30605 5.54261 3.21159 5.66595C3.10579 5.80085 2.99244 5.93191 2.89798 6.07837C2.76574 6.28266 2.61839 6.47538 2.52393 6.69894C2.4597 6.84541 2.38413 6.98417 2.32746 7.1345C2.20655 7.44671 2.11209 7.76663 2.04408 8.09426C2.03275 8.14436 1.99496 8.18291 1.99874 8.23687C2.01008 8.29083 2.0063 8.3448 1.99496 8.3949C1.94207 8.53366 1.94584 8.68399 1.92695 8.8266C1.90806 8.96922 1.92317 9.11954 1.92317 9.26601C1.92317 9.41248 1.88917 9.57437 1.93451 9.70156C1.97985 9.84032 1.9194 9.98679 2.00252 10.114C1.97607 10.2142 2.0403 10.299 2.0403 10.3992C2.04408 10.4956 2.09698 10.5919 2.11209 10.6883C2.16499 11.0121 2.28212 11.3127 2.4068 11.6057C2.5995 12.0759 2.86398 12.5115 3.19647 12.8931C3.41562 13.1436 3.64232 13.3941 3.91058 13.5907C4.14106 13.7603 4.36776 13.9338 4.62091 14.061C4.74937 14.1265 4.88539 14.1882 5.01763 14.246C5.24811 14.3462 5.48615 14.4156 5.7204 14.4965C5.85642 14.5428 6.01133 14.5543 6.15491 14.589C6.29849 14.6237 6.44962 14.6276 6.59698 14.6584C6.71788 14.6854 6.84635 14.6777 6.97481 14.6969C7.17884 14.7239 7.39421 14.6969 7.60202 14.7085C7.8136 14.7201 8.02141 14.6353 8.233 14.6661C8.24433 14.6661 8.26322 14.6661 8.27078 14.6622C8.31612 14.6044 8.38413 14.6237 8.43325 14.6314C8.50126 14.643 8.53149 14.5697 8.59572 14.5852C8.70151 14.616 8.78841 14.5273 8.89421 14.5466C8.97355 14.4657 9.0869 14.5196 9.17758 14.4695C9.28715 14.4001 9.42695 14.4156 9.53652 14.3423ZM20.3841 4.20511C20.301 4.05093 20.1537 4.07791 20.0479 4.01239C19.9912 3.9777 19.9043 3.99311 19.8287 3.97384C19.7645 3.95842 19.704 3.91217 19.6322 3.92373C19.5605 3.9353 19.4849 3.88904 19.4131 3.88904C19.2015 3.88904 18.9937 3.82352 18.7821 3.84279C18.6914 3.8505 18.5932 3.86592 18.5025 3.8081C18.461 3.78497 18.4118 3.78497 18.3703 3.8081C18.2985 3.86977 18.2191 3.84664 18.1474 3.84279C17.9584 3.82352 17.7733 3.86206 17.5957 3.8929C17.403 3.93144 17.2141 3.9854 17.029 4.04708C16.8174 4.1126 16.3262 4.37085 16.1788 4.51347C15.8766 4.7987 15.5894 5.09549 15.4383 5.50021C15.3589 5.70449 15.2947 5.92034 15.2834 6.13234C15.272 6.41757 15.2494 6.70665 15.3098 6.99959C15.3514 7.21929 15.4118 7.43514 15.4912 7.64328C15.6612 8.05186 15.903 8.42574 16.2091 8.7418C16.5718 9.11954 16.9383 9.49728 17.3652 9.80949C17.6222 9.9945 17.8678 10.1911 18.102 10.4069C18.3778 10.669 18.665 10.9273 18.8728 11.2588C19.073 11.5787 19.2015 11.9179 19.2053 12.2995C19.1977 12.392 19.2015 12.4883 19.2091 12.5808C19.2242 12.6849 19.1486 12.7659 19.1675 12.8661C19.1108 12.9085 19.1297 12.9817 19.0995 13.0395C18.971 13.2746 18.8388 13.4905 18.6159 13.6562C18.3589 13.8605 18.0491 13.9839 17.7242 14.0186C17.3237 14.0532 16.9194 14.0455 16.5302 13.8721C16.3451 13.7911 16.1713 13.6832 16.0126 13.5522C15.8312 13.4018 15.7103 13.1976 15.6045 12.9856C15.5101 12.8005 15.4421 12.6001 15.4005 12.392C15.3665 12.2031 15.3174 12.0065 15.3589 11.8138C15.3023 11.7598 15.272 11.6828 15.1889 11.702L15.068 11.81C15.1133 11.8947 15.0378 11.9487 15.0378 12.0181C15.0378 12.1915 15.0491 12.3688 15.0038 12.5423C14.9773 12.6541 15 12.7813 15 12.9046C14.9962 13.0318 14.9962 13.159 15.0038 13.2862C15.0151 13.4057 14.9547 13.5136 14.9584 13.6293C14.9547 13.8143 14.9773 14.0031 15.0189 14.1843C15.102 14.3115 15.2456 14.3732 15.3967 14.4117C15.5554 14.4503 15.7065 14.5196 15.869 14.5582C16.0277 14.6044 16.1902 14.6391 16.3526 14.6584C16.568 14.6777 16.7834 14.7278 17.0025 14.7124C17.1763 14.6969 17.3577 14.7085 17.5315 14.7085C17.5655 14.7085 17.6071 14.7201 17.6297 14.7046C17.694 14.6622 17.7733 14.6507 17.8489 14.67C17.932 14.6854 17.9924 14.6237 18.068 14.6276C18.2305 14.6276 18.3816 14.5659 18.5365 14.5235C18.7746 14.4541 19.005 14.3539 19.2204 14.2267C19.4358 14.0956 19.636 13.9453 19.8249 13.7757C19.8967 13.7102 19.9383 13.6177 20.0063 13.5522C20.2179 13.3402 20.3161 13.0549 20.4597 12.8005C20.4559 12.6772 20.5277 12.5731 20.5466 12.4536C20.5655 12.3457 20.6071 12.2339 20.6108 12.126C20.6146 12.0027 20.6562 11.887 20.66 11.7637C20.66 11.6404 20.6335 11.5209 20.6222 11.4014C20.6108 11.2356 20.5844 11.0738 20.5428 10.9119C20.4446 10.538 20.3879 10.4262 20.2292 10.1217C20.0365 9.75553 19.7796 9.44717 19.5038 9.14652C19.3791 9.01162 19.2431 8.89598 19.1071 8.77264C18.9748 8.6493 18.8312 8.53752 18.699 8.41032C18.631 8.34094 18.5592 8.27927 18.4836 8.22531C18.2683 8.08269 18.0793 7.90539 17.8678 7.75892C17.762 7.68568 17.6788 7.58547 17.5806 7.50452C17.3917 7.3542 17.0214 6.99574 16.9081 6.81072C16.8249 6.67582 16.7267 6.54476 16.6927 6.37902C16.67 6.28266 16.6285 6.19015 16.6171 6.08994C16.602 5.98587 16.6209 5.87794 16.6134 5.77002C16.6058 5.65824 16.6436 5.55802 16.6738 5.45395C16.7343 5.23425 16.8627 5.0608 17.0176 4.89891C17.2481 4.65223 17.5504 4.57514 17.8526 4.49034C18.1474 4.50576 18.4458 4.45179 18.7406 4.52888C18.9295 4.57899 19.1184 4.63681 19.2771 4.74859C19.4471 4.86422 19.5945 5.00684 19.7116 5.17643C19.8854 5.42697 20.029 5.75845 20.029 6.04368C20.0252 6.13234 20.0592 6.22099 20.1234 6.28266C20.1877 6.29422 20.2519 6.30193 20.3086 6.22099C20.2594 6.14775 20.3463 6.08223 20.3463 5.99743C20.3539 5.48093 20.3123 4.96444 20.3804 4.45179C20.3879 4.367 20.3879 4.28605 20.3841 4.20511ZM21.767 22.2208C21.7406 22.1977 21.7179 22.1553 21.6952 22.1553C21.5139 22.1437 21.3438 22.0551 21.1587 22.0705C21.1322 22.0744 21.0982 22.0821 21.0793 22.0705C21 22.0011 20.9055 22.0281 20.8186 22.0358C20.7242 22.0474 20.6486 21.9934 20.5617 21.9896C20.4144 21.9896 20.2708 21.9819 20.1234 21.9587C19.9194 21.9202 19.704 21.951 19.4924 21.9163C19.2544 21.8778 19.0088 21.9125 18.7632 21.8778C18.4345 21.8315 18.0945 21.8778 17.7582 21.8392C17.3426 21.7891 16.9194 21.8392 16.5 21.8007C16.0315 21.7622 15.5592 21.7853 15.0869 21.793C14.6146 21.8007 14.1461 21.7313 13.67 21.7467C13.2733 21.7622 12.8728 21.7506 12.4723 21.7506H11.3917C11.0252 21.7506 10.6587 21.7429 10.2922 21.7506C9.93703 21.7583 9.58186 21.712 9.23048 21.7891C8.48992 21.8046 7.74937 21.7544 7.00882 21.8277C6.8199 21.847 6.63098 21.8277 6.43829 21.8315C6.24937 21.8354 6.07179 21.8431 5.88287 21.8624C5.53904 21.9009 5.18766 21.8508 4.84005 21.9086C4.62091 21.9433 4.39043 21.8739 4.17128 21.951C3.89924 21.924 3.63476 21.9934 3.36272 21.9896C3.18514 21.9896 3.00756 22.059 2.82997 22.0281C2.82242 22.0281 2.81486 22.0243 2.81108 22.0281C2.74685 22.0936 2.66373 22.0628 2.59194 22.0667C2.51637 22.0667 2.45592 22.1206 2.3728 22.1129C2.26322 22.1013 2.16877 22.1669 2.06675 22.2131C2.10453 22.3288 2.20655 22.3211 2.27456 22.3442C2.3539 22.3712 2.44458 22.3596 2.53149 22.3827C2.61839 22.4059 2.71662 22.402 2.80731 22.4213C2.93577 22.4482 3.06801 22.4328 3.20403 22.4598C3.35139 22.4906 3.5063 22.4752 3.65743 22.4984C3.85013 22.5292 4.05038 22.5061 4.25063 22.5369C4.49622 22.5754 4.74937 22.5408 4.99874 22.5754C5.30856 22.6217 5.62595 22.5754 5.94333 22.614C6.34761 22.6641 6.75567 22.6101 7.16373 22.6525C7.56045 22.6911 7.96096 22.6718 8.36146 22.6602C8.75819 22.6487 9.14736 22.7181 9.54408 22.7065C10.0466 22.6949 10.5529 22.7026 11.0554 22.7026H12.5668C13.0693 22.7026 13.5756 22.6911 14.0781 22.7065C14.5806 22.7219 15.0756 22.6564 15.5743 22.6602C16.0013 22.6641 16.4244 22.6795 16.8552 22.6333C17.2972 22.587 17.7469 22.6487 18.1927 22.587C18.461 22.5523 18.7292 22.5947 19.0013 22.5523C19.2657 22.5099 19.5378 22.5562 19.8098 22.5061C19.9798 22.4752 20.1537 22.5292 20.3237 22.4675C20.3992 22.4405 20.4937 22.4521 20.5768 22.4675C20.6713 22.4829 20.7469 22.4136 20.8375 22.4251C21.0113 22.4482 21.1776 22.3596 21.3514 22.3866C21.4156 22.3326 21.5063 22.3712 21.5668 22.3403C21.6272 22.3095 21.7254 22.3365 21.767 22.2208Z" fill="#FEA815"/>
<path d="M64.2885 25C64.2696 24.9884 64.058 24.9229 64.0391 24.919C63.8351 24.8728 63.631 24.8381 63.4383 24.7494C63.3326 24.7032 63.2268 24.6492 63.1247 24.603C62.7545 24.4218 62.4257 24.1636 62.1613 23.8436C61.9572 23.6008 61.791 23.3271 61.6739 23.0303C61.5643 22.7721 61.4925 22.4984 61.4509 22.2209C61.4358 22.086 61.4434 21.9472 61.4132 21.8162C61.3905 21.7198 61.3905 21.6273 61.3792 21.531C61.364 21.4307 61.432 21.3459 61.4245 21.2457C61.4169 21.1532 61.3867 21.0492 61.4585 20.9605C61.4509 20.8179 61.5038 20.6868 61.5303 20.5519C61.5718 20.3399 61.655 20.1511 61.7456 19.9622C61.9232 19.5768 62.1802 19.2376 62.4938 18.9562C62.626 18.829 62.7734 18.7211 62.932 18.6363C63.0832 18.5592 63.2192 18.4474 63.3968 18.4281C63.6159 18.2778 63.8917 18.2932 64.1222 18.1891C64.3036 18.2084 64.4774 18.1275 64.655 18.1467C64.7872 18.1583 64.9157 18.1583 65.0479 18.1467C65.2557 18.1236 65.456 18.1853 65.66 18.1969C65.7998 18.2084 65.9396 18.2354 66.0756 18.2817C66.2079 18.3279 66.3401 18.3742 66.4686 18.4243C66.7784 18.5438 67.1487 18.7596 67.3338 18.9562C67.3414 18.9677 67.3451 18.9793 67.3489 18.9909C67.3489 18.9986 67.3527 19.0063 67.3489 19.0101C67.1525 19.199 66.9862 19.4226 66.7973 19.623C66.6575 19.7733 66.5215 19.9314 66.3817 20.0778C66.3099 20.0586 66.2797 20.0046 66.2419 19.9622C66.1323 19.8504 66.0038 19.7579 65.8603 19.6924C65.7205 19.6269 65.5882 19.5536 65.4295 19.5421C65.354 19.5382 65.2822 19.5266 65.2104 19.5035C65.131 19.4765 65.0517 19.465 64.9686 19.4688C64.8892 19.4688 64.8099 19.465 64.7343 19.4688C64.6776 19.4727 64.621 19.4727 64.5643 19.4804C64.2847 19.5151 64.0127 19.6076 63.7708 19.7502C63.5366 19.8967 63.3363 20.0971 63.189 20.3322C63.0454 20.5635 62.9623 20.8217 62.9056 21.0916C62.8489 21.3614 62.8565 21.6466 62.8829 21.9164C62.9132 22.2286 63.0152 22.5293 63.1852 22.7914C63.3741 23.0959 63.6499 23.3348 63.9711 23.4852C64.1487 23.5661 64.3338 23.6548 64.5378 23.6355C64.6701 23.6972 64.8137 23.6817 64.9535 23.674C65.2104 23.6625 65.4598 23.6201 65.7053 23.5468C65.8716 23.5044 66.0265 23.4312 66.1625 23.3271V22.3134H65.063C64.995 22.2749 64.995 22.2248 64.995 22.1669V21.0068L65.0479 20.9528H67.5038V24.3755C67.228 24.5182 66.9409 24.6338 66.6424 24.7263C66.5064 24.7687 66.3703 24.8072 66.2343 24.8381C65.9812 24.8843 65.7356 24.946 65.4786 24.9576C65.4749 24.9576 65.4711 24.9807 65.4635 24.9923L64.2885 25Z" fill="#010101"/>
<path d="M69.9068 25C69.8879 24.9884 69.6763 24.9229 69.6574 24.9191C69.5214 24.8921 69.3854 24.8535 69.2532 24.7996C69.1663 24.761 69.0718 24.7302 68.9849 24.6878C68.7809 24.5953 68.5919 24.4681 68.4295 24.3139C68.3992 24.2831 68.3615 24.2831 68.3312 24.2599C68.2972 24.2291 68.2935 24.1944 68.2935 24.1366C68.4748 23.9786 68.6184 23.7666 68.7922 23.5816C68.9471 23.412 69.0982 23.2424 69.2569 23.0766C69.3589 23.2038 69.4799 23.3117 69.6159 23.4004C69.7443 23.4929 69.8917 23.5623 70.0428 23.6008C70.2129 23.6394 70.3829 23.6933 70.5605 23.6779C70.7154 23.6664 70.8665 23.6317 71.0063 23.5739C71.199 23.4929 71.3048 23.3696 71.4333 23.1807V22.8261C71.3766 22.7451 71.3539 22.6526 71.2821 22.5833C71.1159 22.4175 70.9081 22.3212 70.6927 22.2441C70.4055 22.14 70.1146 22.0552 69.8275 21.9627C69.7103 21.9241 69.17 21.6698 69.0945 21.5965C68.9055 21.4076 68.694 21.2342 68.5919 20.9682C68.5428 20.8333 68.4937 20.6984 68.4899 20.552C68.4862 20.4479 68.4295 20.3554 68.4484 20.2475C68.4975 19.9314 68.5277 19.6115 68.6864 19.3262C68.8338 19.068 69.0265 18.8444 69.2607 18.6671C69.5101 18.4744 69.9144 18.3164 70.2053 18.2354C70.5529 18.1391 70.9043 18.1583 71.2557 18.1622C71.3312 18.1622 71.4144 18.2085 71.4937 18.1969C71.5768 18.1853 71.6448 18.2624 71.7317 18.2354C71.7922 18.3087 71.8829 18.2778 71.9584 18.3087C72.272 18.4282 72.5668 18.5785 72.8086 18.8097V18.8984C72.7103 18.987 72.6197 19.0834 72.5328 19.1836C72.3854 19.3686 72.2267 19.5421 72.0567 19.704C72.0189 19.7425 72.0113 19.8081 71.9622 19.8466C71.9282 19.8736 71.8867 19.8851 71.8451 19.8813C71.7015 19.704 71.4975 19.6192 71.2859 19.5498C71.2708 19.5459 71.2632 19.519 71.2368 19.5228C71.0894 19.5459 70.9534 19.4611 70.8023 19.4804C70.6625 19.4958 70.262 19.5999 70.16 19.6847C70.0315 19.7926 69.9333 19.9237 69.9408 20.1126C69.9446 20.1858 69.9408 20.259 69.9408 20.3323C69.9484 20.34 69.9559 20.3515 69.9597 20.3631C70.0126 20.5327 70.1448 20.6213 70.2884 20.6984C70.5491 20.8333 70.8212 20.9374 71.1083 21.0068C71.2859 21.053 71.4559 21.1109 71.6259 21.1841C71.8413 21.2689 72.0491 21.3807 72.238 21.5156C72.4912 21.6967 72.6763 21.955 72.767 22.2556C72.8199 22.4252 72.8615 22.5987 72.8464 22.7837C72.835 22.8916 72.835 22.9995 72.8464 23.1036C72.8577 23.2038 72.801 23.2886 72.7972 23.3888C72.7935 23.4891 72.7443 23.5893 72.7066 23.6895C72.5819 24.0248 72.3589 24.2908 72.0945 24.5105C71.9018 24.6724 71.6675 24.7726 71.4295 24.8535C71.2368 24.9191 71.0403 24.9846 70.8325 24.9769C70.8174 24.9769 70.8023 24.9884 70.7985 25.0039V25.0154L69.9068 25ZM92.9962 1.48397C92.9207 1.57262 92.8904 1.68825 92.8451 1.78847C92.7242 2.06213 92.5013 2.2086 92.2557 2.32038C92.1045 2.39747 91.9307 2.42445 91.7645 2.40518C91.5265 2.36664 91.2922 2.31653 91.1071 2.13922C90.8728 1.91566 90.8388 1.89639 90.7028 1.53407C90.6914 1.50709 90.6839 1.47626 90.6801 1.44542C90.6726 1.38375 90.7028 1.31437 90.6423 1.26041C90.631 1.24884 90.6461 1.20644 90.6385 1.18332C90.6159 1.11008 90.6914 1.06768 90.6801 0.998304C90.6726 0.936633 90.699 0.874961 90.7103 0.81329C90.7443 0.643694 90.869 0.52806 90.9521 0.393154C91.0164 0.28523 91.1335 0.219704 91.2469 0.158033C91.3602 0.0963614 91.4736 0.0308356 91.6096 0.0346901C91.6134 0.0346901 91.6171 0.0115634 91.6247 0H92.0176C92.0214 0.0115634 92.029 0.0346901 92.0328 0.0308356C92.1612 0.0231267 92.267 0.0886525 92.3804 0.142615C92.6902 0.300648 92.9056 0.597441 92.9698 0.944342C92.9698 0.952051 92.9925 0.952051 93.0038 0.959759L92.9962 1.48397ZM92.762 1.50324C92.762 1.42615 92.7393 1.35291 92.7657 1.31051C92.8111 1.23343 92.8224 1.14863 92.7846 1.09467C92.7355 1.02143 92.8073 0.932778 92.7355 0.874961C92.7053 0.686093 92.5806 0.558896 92.4597 0.435554C92.3275 0.289084 92.1423 0.208141 91.9459 0.211995C91.8854 0.211995 91.8589 0.158033 91.7947 0.169596C91.7872 0.219704 91.7418 0.204286 91.704 0.208141C91.6549 0.21585 91.6058 0.200432 91.5529 0.219704C91.1637 0.343047 90.9521 0.63984 90.8841 1.02143C90.8275 1.33364 90.9181 1.65742 91.1297 1.89254C91.2695 2.05442 91.5529 2.23558 91.7834 2.21246C91.8401 2.20475 91.9005 2.21246 91.961 2.21246C92.0781 2.20475 92.1877 2.1662 92.2897 2.10839C92.4295 2.0313 92.5428 1.91952 92.6297 1.78076C92.6826 1.6844 92.6751 1.57262 92.762 1.50324Z" fill="#030303"/>
<path d="M92.9964 0.95976C92.9851 0.955905 92.9662 0.952051 92.9624 0.944342C92.9019 0.597441 92.6828 0.300648 92.373 0.142615C92.2596 0.0886525 92.1576 0.0231267 92.0254 0.0308356C92.0216 0.0308356 92.0178 0.00770891 92.0103 0H92.9926L92.9964 0.95976Z" fill="#F8F8F8"/>
<path d="M90.2079 8.68816H59.6336C59.6034 8.51857 59.5883 2.91419 59.6185 2.12402H88.6286C88.9951 2.12402 89.3125 2.25893 89.6034 2.48634C89.8301 2.66365 89.9699 2.88721 90.087 3.1416C90.1475 3.28421 90.1891 3.43839 90.2117 3.59257C90.2722 3.96645 90.2344 4.34419 90.2419 4.71807C90.2495 5.09195 90.2419 5.46584 90.2419 5.83972C90.2419 6.22131 90.2684 6.6029 90.2344 6.98064C90.2079 7.26201 90.2079 7.54339 90.2042 7.82476C90.2042 8.10614 90.2079 8.39522 90.2079 8.68816ZM74.2294 24.8383V18.278H90.2495C90.2495 18.4091 90.2722 18.544 90.2457 18.6712C90.1739 19.0335 90.1928 19.3997 90.2193 19.7543C90.2495 20.1243 90.2382 20.4905 90.2457 20.8605C90.2533 21.2306 90.2457 21.6083 90.2457 21.9822C90.2457 22.3561 90.2571 22.7299 90.2419 23.1038C90.2306 23.4122 90.1815 23.7167 90.0077 23.9865C89.9019 24.1484 89.8112 24.3141 89.6488 24.4336C89.5278 24.5223 89.4183 24.6263 89.2785 24.6842C89.0782 24.7651 88.878 24.8383 88.655 24.8383C83.9132 24.8383 79.1676 24.8383 74.4258 24.8383H74.2294Z" fill="#FEA714"/>
<path d="M79.1787 16.8211V10.2646H90.2303C90.2606 10.4304 90.2719 16.1273 90.2417 16.8211H79.1787Z" fill="#FEA815"/>
<path d="M31.3261 6.39815C31.6737 4.93346 32.0478 3.51502 32.3878 2.08887H33.8198C33.7783 2.22377 33.7329 2.35097 33.6989 2.47817C33.6422 2.67474 33.6007 2.87518 33.5402 3.07175C33.442 3.39167 33.3664 3.7193 33.2644 4.03537C33.1662 4.35529 33.0868 4.6675 32.9924 4.98356C32.8941 5.30348 32.811 5.62726 32.7165 5.94718C32.641 6.20157 32.5654 6.45597 32.4936 6.71421C32.4483 6.8761 32.4105 7.04184 32.3614 7.19988C32.3123 7.35791 32.2972 7.53136 32.2103 7.67397C32.2329 7.80117 32.146 7.90139 32.1309 8.02088C32.1158 8.14036 32.0478 8.24058 32.0251 8.35236C32.01 8.4333 31.9684 8.51039 31.976 8.6029H30.7291C30.6536 8.56821 30.7065 8.46799 30.6422 8.42174C30.6234 8.16734 30.5024 7.94764 30.4382 7.70866C30.3551 7.40031 30.2342 7.09966 30.1473 6.7913C30.0755 6.54076 29.9848 6.29793 29.9168 6.04739C29.8375 5.74289 29.7128 5.44995 29.6334 5.14931C29.5654 4.89877 29.4747 4.65208 29.4029 4.4054C29.3765 4.31289 29.3538 4.21653 29.3312 4.12787C29.2443 4.12787 29.2783 4.18184 29.2669 4.21267C29.2103 4.38227 29.1498 4.55186 29.1007 4.72146C29.0062 5.02982 28.8891 5.33047 28.806 5.63882C28.738 5.88551 28.6473 6.12063 28.583 6.36731C28.5037 6.67952 28.3752 6.97632 28.2959 7.28467C28.2317 7.52365 28.1372 7.75492 28.0843 7.99775C28.0503 8.15964 27.9747 8.31381 27.9407 8.4757C27.9294 8.52966 27.8501 8.54508 27.8992 8.61061H26.6939C26.6372 8.41403 26.5768 8.22516 26.5239 8.03629C26.4596 7.80888 26.3954 7.58532 26.3274 7.35791C26.2518 7.10351 26.1838 6.84527 26.1007 6.59473C26.0591 6.45982 26.0138 6.32106 25.9798 6.18615C25.9495 6.04739 25.8891 5.92791 25.8626 5.793C25.8286 5.62726 25.7833 5.46537 25.7304 5.30734C25.6813 5.14545 25.6359 4.98742 25.5868 4.82939C25.549 4.70219 25.4999 4.57114 25.4697 4.43623C25.4395 4.30132 25.3866 4.17413 25.3563 4.04308C25.2997 3.77326 25.2052 3.51887 25.1372 3.25291C25.0881 3.0679 25.0352 2.88289 24.9785 2.70173C24.9181 2.50515 24.8501 2.31243 24.8198 2.09658H26.3085C26.3916 2.15439 26.3765 2.27003 26.3916 2.36253C26.4294 2.56682 26.4898 2.7634 26.5314 2.96383C26.5692 3.1527 26.6259 3.33771 26.6712 3.52658C26.7279 3.7617 26.7808 4.00068 26.8375 4.2358C26.8828 4.42467 26.9357 4.60583 26.9848 4.7947C27.0377 4.99127 27.0868 5.1917 27.1322 5.39214C27.1888 5.61569 27.2455 5.83925 27.2909 6.06667C27.306 6.12834 27.3362 6.1823 27.3513 6.2671C27.4307 6.03198 27.5024 5.81613 27.5705 5.59642C27.6536 5.33046 27.714 5.0568 27.8123 4.79855C27.9105 4.5403 27.9936 4.28591 28.073 4.02766C28.2052 3.60367 28.3375 3.17968 28.4735 2.75569C28.5453 2.53984 28.6095 2.32013 28.6775 2.09272H29.9999C29.9961 2.20836 30.0642 2.30857 30.0944 2.4242C30.1171 2.51286 30.1246 2.60922 30.1662 2.69402C30.2077 2.77881 30.2228 2.87132 30.2531 2.95612C30.2833 3.04092 30.2984 3.14113 30.3286 3.22593C30.3815 3.38396 30.4231 3.54585 30.4873 3.70003C30.5516 3.85421 30.578 4.00839 30.6309 4.15871C30.6838 4.31289 30.7291 4.46707 30.7669 4.6251C30.8047 4.7947 30.8614 4.95658 30.9256 5.11462C30.9861 5.26494 31.0087 5.42297 31.0654 5.57715C31.1183 5.71976 31.175 5.86623 31.1939 6.02427C31.2014 6.1399 31.2694 6.25168 31.3261 6.39815ZM72.1888 11.4591H70.3828V16.6973H68.9697V11.4591H67.1637V10.1832H73.7833C73.8551 10.241 73.9004 10.3297 73.9533 10.4183C74.1007 10.6843 74.2405 10.9503 74.3841 11.2162C74.5692 11.5516 74.7619 11.883 74.9357 12.2222C74.9848 12.3224 75.0528 12.4111 75.0944 12.5152C75.1095 12.5499 75.1435 12.5768 75.1851 12.5768C75.3097 12.4496 75.3778 12.2685 75.4722 12.1143C75.5705 11.9601 75.6687 11.7867 75.7594 11.6171C75.8501 11.4475 75.9521 11.2972 76.0465 11.1353C76.141 10.9734 76.2392 10.8038 76.3375 10.6381C76.4357 10.4723 76.4999 10.2989 76.6397 10.1678H78.2153C78.2493 10.2218 78.2304 10.2565 78.1964 10.3066C78.0717 10.4877 77.9546 10.6689 77.8412 10.8578C77.607 11.2471 77.3387 11.6171 77.1082 12.0102C76.9647 12.2608 76.7871 12.4882 76.6397 12.7349C76.413 13.1088 76.1448 13.4518 75.9445 13.8411C75.9256 13.8681 75.9029 13.8912 75.8765 13.9143V16.678C75.7178 16.705 74.9168 16.7127 74.4672 16.6895V13.9336L72.1888 10.3759V11.4591Z" fill="#030303"/>
<path d="M36.7521 10.1796H38.1161L38.1652 10.2297V16.6975H36.2987C35.3881 15.1904 34.4851 13.6602 33.5405 12.0992V16.686C33.3781 16.7129 32.5582 16.7206 32.1274 16.6975V10.1758H33.9788C34.096 10.249 34.13 10.3878 34.2017 10.4957C34.3453 10.7193 34.47 10.9582 34.6174 11.1818C34.708 11.3206 34.7836 11.4709 34.8705 11.6135C35.0103 11.8409 35.1577 12.0645 35.2824 12.2996C35.4335 12.5848 35.6186 12.8508 35.7735 13.1321C35.8869 13.3326 36.0116 13.5253 36.1287 13.7219C36.2232 13.8838 36.3138 14.0418 36.4083 14.2037C36.4876 14.3424 36.5934 14.4696 36.6577 14.62C36.6728 14.6585 36.7068 14.6855 36.7483 14.6932L36.7521 10.1796Z" fill="#010101"/>
<path d="M42.136 24.8343L39.3551 20.1858V24.8343H37.9458V18.3164H39.8501C40.7493 19.8196 41.6486 21.3267 42.5478 22.8377C42.5516 22.8338 42.5592 22.83 42.5629 22.8261C42.5667 22.8223 42.5705 22.8146 42.5705 22.8107V18.3164H43.9647C43.9949 18.486 44.0063 24.0711 43.976 24.8343H42.136Z" fill="#030303"/>
<path d="M59.0669 22.7914V18.3203H60.4385V24.8343H58.6475C58.5984 24.7919 58.5606 24.7379 58.5304 24.6763C58.4133 24.472 58.2848 24.2715 58.1639 24.0711C58.0279 23.8475 57.8881 23.6278 57.7559 23.4043C57.6274 23.1923 57.5065 22.9764 57.378 22.7644C57.2609 22.5679 57.1362 22.3713 57.0191 22.1747C56.9246 22.0128 56.8339 21.8509 56.7395 21.6929C56.6148 21.4848 56.4901 21.2766 56.3654 21.0685C56.2332 20.8526 56.0896 20.6368 55.9649 20.4171C55.9158 20.3323 55.8667 20.2513 55.8062 20.1743V24.8381H54.4385V18.3164H56.3012C56.4032 18.4051 56.4448 18.54 56.5166 18.6595C56.6412 18.8676 56.7659 19.0757 56.8906 19.28C57.0153 19.4882 57.14 19.6963 57.2647 19.9044C57.3894 20.1126 57.4989 20.313 57.6274 20.5096C57.737 20.6753 57.8314 20.8526 57.9297 21.0222C58.0543 21.2304 58.179 21.4385 58.3037 21.6467C58.3982 21.8085 58.4926 21.9666 58.5871 22.1285C58.7118 22.3366 58.8516 22.5332 58.9574 22.7529C58.98 22.7914 59.0254 22.8068 59.0669 22.7914Z" fill="#010101"/>
<path d="M40.961 5.34621C40.961 5.45799 40.9648 5.57362 40.961 5.6854C40.9384 6.05928 40.8439 6.41389 40.7154 6.76079C40.6474 6.94966 40.5416 7.1154 40.4509 7.28885C40.4056 7.36594 40.3527 7.43532 40.2923 7.50085C40.1562 7.67044 40.024 7.84004 39.8464 7.97495C39.6462 8.12527 39.4535 8.2833 39.2268 8.39123C38.9925 8.50686 38.7507 8.60708 38.49 8.64948C38.4258 8.71886 38.3275 8.66489 38.2595 8.70344C38.1802 8.74969 38.0933 8.70729 38.0139 8.73042C37.791 8.79595 37.5643 8.77282 37.3414 8.76511C36.9711 8.74969 36.6008 8.68031 36.2532 8.55311C36.0756 8.4953 35.9018 8.41821 35.7356 8.32956C35.6147 8.26018 35.4938 8.18309 35.3766 8.10214C35.2104 7.98651 35.0782 7.83619 34.9346 7.69357C34.7834 7.53939 34.6739 7.35438 34.5567 7.17322C34.3905 6.92268 34.3149 6.63359 34.2205 6.35607C34.1902 6.26742 34.1487 6.16335 34.1676 6.05928C34.1789 5.98219 34.1109 5.92052 34.126 5.83572C34.1336 5.75863 34.1222 5.68154 34.0958 5.61216C34.0693 5.51966 34.0807 5.41173 34.092 5.31537C34.0996 5.21901 34.0504 5.11879 34.126 5.03014C34.1373 5.01472 34.1298 4.98003 34.1298 4.9492C34.1222 4.6524 34.2129 4.37488 34.2998 4.10122C34.3452 3.94704 34.4056 3.80057 34.485 3.65796C34.6134 3.43825 34.7305 3.21855 34.9119 3.03739C35.0064 2.94488 35.097 2.84852 35.1877 2.75601C35.32 2.61725 35.4824 2.52089 35.6373 2.41682C35.8867 2.24722 36.1739 2.16243 36.4535 2.06221C36.5177 2.03908 36.5819 2.02367 36.6462 2.01596C36.8653 1.99283 37.0769 1.91574 37.2998 1.9273C37.5227 1.93887 37.7494 1.90418 37.9686 1.93501C38.3049 1.98512 38.6449 2.04294 38.9623 2.18555C39.2041 2.28962 39.4346 2.41682 39.6537 2.56329C39.8842 2.73289 40.092 2.93332 40.2734 3.15688C40.4358 3.36116 40.5719 3.58858 40.6814 3.82755C40.757 3.98944 40.7986 4.16674 40.8477 4.33634C40.8968 4.50594 40.9232 4.67939 40.9535 4.84898C40.9875 5.00701 40.961 5.18046 40.961 5.34621ZM35.5807 5.37704C35.5958 5.52351 35.5693 5.69696 35.6147 5.87427C35.6751 6.12481 35.7507 6.36378 35.8943 6.57963C36.0719 6.84944 36.3061 7.06915 36.5857 7.21947C36.8653 7.37365 37.1714 7.40063 37.4736 7.45459C37.6059 7.47772 37.723 7.40449 37.8515 7.41605C37.9686 7.42761 38.0744 7.38907 38.1764 7.35052C38.388 7.27343 38.592 7.16936 38.7771 7.03446C38.9812 6.88799 39.1059 6.69141 39.2381 6.48713C39.3212 6.35607 39.3703 6.20575 39.427 6.06699C39.4799 5.93594 39.4724 5.78176 39.5101 5.643C39.5404 5.52351 39.5177 4.92607 39.4686 4.80273C39.4346 4.71408 39.4346 4.61771 39.393 4.53292C39.3552 4.44812 39.3099 4.35561 39.2683 4.26696C39.1021 3.92391 38.8376 3.68494 38.5164 3.48836C38.2822 3.34574 38.0215 3.3072 37.7646 3.25709C37.5492 3.21469 37.1109 3.25709 36.8993 3.34189C36.718 3.41127 36.5366 3.4845 36.3817 3.6117C36.2683 3.6965 36.1663 3.79286 36.0681 3.89693C35.9321 4.05882 35.8187 4.24383 35.7356 4.44041C35.66 4.61001 35.5844 4.95305 35.5844 5.05712C35.5844 5.15734 35.5807 5.24985 35.5807 5.37704ZM52.5907 8.61479V2.08148H55.024C55.126 2.07763 55.2242 2.09305 55.3225 2.12003C55.4132 2.14701 55.5076 2.10846 55.6021 2.15472C55.6739 2.18941 55.7721 2.1817 55.859 2.19326C56.0441 2.21639 56.2142 2.28962 56.3918 2.33588C56.6109 2.39369 56.8074 2.50933 57.0076 2.60569C57.1248 2.66351 57.2343 2.73289 57.3326 2.81768C57.4497 2.9179 57.5782 3.00655 57.6802 3.12604C57.9484 3.43054 58.1525 3.78901 58.2771 4.17831C58.3376 4.36718 58.3981 4.5599 58.4018 4.76804C58.4018 4.81044 58.4396 4.85669 58.4358 4.91065C58.4321 5.20359 58.451 5.50039 58.4283 5.79332C58.4169 5.94365 58.3905 6.09397 58.3452 6.23659C58.2696 6.47171 58.1751 6.69912 58.0693 6.92268C58.0127 7.03831 57.9333 7.13082 57.8691 7.23874C57.7595 7.40834 57.6235 7.55866 57.4686 7.68586C57.223 7.894 56.9509 8.07131 56.6638 8.21007C56.4295 8.3257 56.1726 8.38352 55.9308 8.48759C55.723 8.48373 55.5265 8.59551 55.3149 8.56853C55.0202 8.64562 54.7217 8.59937 54.427 8.60708C54.121 8.61479 53.8111 8.60708 53.5051 8.60708L52.5907 8.61479ZM54.0038 7.29271C54.1965 7.29271 54.3741 7.285 54.5517 7.29656C54.7293 7.30813 54.8918 7.22333 55.0656 7.25416C55.2129 7.28114 55.3527 7.19249 55.5001 7.21562C55.7041 7.13467 55.9157 7.08457 56.1122 6.9805C56.4144 6.82246 56.66 6.56807 56.8036 6.252C56.8603 6.13637 56.8867 6.00532 56.9321 5.88583C56.9661 5.79718 56.9169 5.68925 56.985 5.60445C56.9925 5.59289 56.9887 5.56591 56.985 5.54664C56.9698 5.33079 57.0076 5.11879 56.951 4.90294C56.9018 4.71408 56.8149 4.42114 56.7091 4.2631C56.5996 4.10507 56.4635 3.96631 56.3124 3.85068C56.1499 3.73119 55.9686 3.63483 55.7797 3.56545C55.6663 3.51919 55.5379 3.51149 55.4245 3.4768C55.296 3.4344 55.16 3.4845 55.0429 3.40356H54.0076L54.0038 7.29271Z" fill="#030303"/>
<path d="M56.1877 14.1034H55.4962V16.7013H54.0869V10.2258L54.136 10.1757H54.2796C55.0315 10.1757 55.7834 10.1796 56.5353 10.1719C56.6335 10.1719 56.7166 10.2181 56.8149 10.2143C56.9093 10.2104 57.0151 10.195 57.1096 10.2181C57.2758 10.2605 57.4459 10.2682 57.6121 10.3299C57.767 10.38 57.9219 10.4378 58.0731 10.5034C58.3187 10.6228 58.6285 10.9235 58.7532 11.1663C58.8212 11.3089 58.8741 11.4631 58.9118 11.6212C58.9874 11.9179 58.9799 12.2263 58.9421 12.5231C58.9043 12.8276 58.8023 13.1282 58.5907 13.3749C58.5378 13.4366 58.5 13.5214 58.432 13.5638C58.2922 13.6524 58.1751 13.7796 58.0126 13.8375C57.8841 13.8799 57.7632 13.9377 57.6272 13.9492C57.6083 13.9839 57.6083 14.0263 57.631 14.0572C57.733 14.2229 57.8312 14.3848 57.9295 14.5505C58.0806 14.8011 58.2317 15.0516 58.3791 15.3022C58.466 15.4525 58.5491 15.6028 58.636 15.7531C58.7834 16.0037 58.9383 16.2542 59.0857 16.5047C59.1197 16.5626 59.1461 16.6242 59.1763 16.6859C59.0252 16.7167 58.1448 16.7244 57.5139 16.7013C57.3967 16.4739 57.2796 16.2504 57.1625 16.0268C57.0756 15.8572 56.9925 15.6837 56.9056 15.5142C56.7355 15.1788 56.5693 14.8435 56.3955 14.5081C56.3237 14.3771 56.2443 14.2537 56.1877 14.1034ZM55.4962 12.9008H56.199C56.3237 12.897 56.4484 12.897 56.5693 12.9047C56.694 12.9201 56.8035 12.8623 56.9244 12.8546C57.0605 12.8392 57.1851 12.7852 57.2872 12.6927C57.5252 12.4923 57.5365 12.2147 57.4723 11.9488C57.4156 11.7098 57.3098 11.6057 57.0265 11.4978C56.9585 11.4708 56.8867 11.4824 56.83 11.4554C56.7582 11.4284 56.6826 11.4169 56.6071 11.4207H55.4925L55.4962 12.9008Z" fill="#010101"/>
<path d="M27.5478 22.2406H26.8677V24.8308H25.4546V18.3206C25.5037 18.2937 25.5642 18.3091 25.6208 18.3091C26.3614 18.3091 27.1019 18.3168 27.8387 18.3052C28.0956 18.3052 28.3526 18.3245 28.6057 18.3553C28.7153 18.3669 28.8249 18.39 28.9269 18.4247C29.0893 18.4825 29.2594 18.5172 29.403 18.6059C29.8601 18.8795 30.0453 19.08 30.2342 19.6427C30.2833 19.793 30.3098 19.9511 30.3135 20.113C30.3135 20.1785 30.3098 20.2479 30.3135 20.3134C30.3324 20.6719 30.2229 20.9956 30.0642 21.3078C29.9508 21.5314 29.7808 21.6971 29.5768 21.8359C29.3878 21.967 29.1649 22.0132 28.942 22.0903C29.0402 22.2599 29.1385 22.4333 29.2405 22.6068C29.3349 22.7687 29.4294 22.9267 29.5239 23.0886C29.675 23.3391 29.8261 23.5897 29.9735 23.8402C30.0604 23.9905 30.1435 24.1447 30.2304 24.2912C30.3324 24.4685 30.4382 24.6419 30.5516 24.8308H28.8778C28.6888 24.4916 28.5264 24.1254 28.3337 23.7747C28.1448 23.4316 27.9936 23.0732 27.8009 22.7378C27.7178 22.576 27.6385 22.4102 27.5478 22.2406ZM26.8639 21.0265C26.879 21.0303 26.8979 21.0342 26.9168 21.0342C27.2644 21.0149 27.612 21.0689 27.9596 20.9995C28.0881 20.9725 28.2241 20.9995 28.3564 20.9609C28.5793 20.8916 28.7455 20.7644 28.8286 20.5408C28.8853 20.3866 28.8627 20.2324 28.8362 20.0706C28.8022 19.8354 28.6397 19.7275 28.4735 19.6427C28.2846 19.5464 28.0654 19.5309 27.8576 19.5194C27.578 19.5078 27.2946 19.5155 27.015 19.5155C26.9659 19.5155 26.913 19.4962 26.8677 19.5348V21.0265H26.8639Z" fill="#030303"/>
<path d="M45.4385 5.87764C45.4573 5.99713 45.5783 6.06651 45.5971 6.18985C45.8163 6.51363 45.9976 6.86053 46.1979 7.19972C46.3528 7.46182 46.5077 7.72393 46.6626 7.98603C46.7722 8.17104 46.878 8.36377 47.0027 8.54492C47.014 8.5642 47.014 8.57962 47.0102 8.61045H45.3742C45.3478 8.59503 45.3364 8.55263 45.3138 8.51409C45.1135 8.18646 44.9699 7.828 44.7886 7.49651C44.6072 7.17274 44.4599 6.83355 44.2861 6.50592C44.1992 6.34018 44.1047 6.18214 44.0254 6.02026H43.3226V8.61045H41.9473V2.081H42.14C42.907 2.081 43.6702 2.08871 44.4372 2.07715C44.6488 2.081 44.8604 2.09642 45.0682 2.13111C45.2571 2.15809 45.4422 2.20435 45.6198 2.27373C45.8012 2.33925 45.9788 2.41634 46.1223 2.52812C46.3981 2.74397 46.606 3.02534 46.6966 3.37995C46.7344 3.54184 46.7798 3.69987 46.776 3.86562C46.7722 4.00052 46.7835 4.13157 46.776 4.26648C46.7458 4.756 46.5682 5.18384 46.1903 5.49991C46.0128 5.64637 45.8087 5.75044 45.5858 5.80441C45.5631 5.81212 45.5329 5.80055 45.5178 5.82753C45.5027 5.85451 45.4498 5.83139 45.4385 5.87764ZM43.3226 4.76756C43.7231 4.76756 44.1123 4.7637 44.5052 4.76756C44.7017 4.77141 44.8793 4.70974 45.0568 4.62494C45.1891 4.55942 45.3213 4.30502 45.3213 4.17783V3.82707C45.3024 3.8078 45.2873 3.78467 45.2798 3.75769C45.2042 3.60351 45.0795 3.48017 44.9246 3.40308C44.7584 3.31828 44.577 3.30672 44.4032 3.29516C44.048 3.26818 43.6891 3.28745 43.3226 3.28745V4.76756Z" fill="#010101"/>
<path d="M49.1824 18.3129H51.03C50.9771 18.3669 50.9356 18.4055 50.9016 18.4478C50.5691 18.8294 50.1988 19.1763 49.8663 19.5541C49.6207 19.8355 49.3373 20.0821 49.0993 20.3712C48.8273 20.7027 48.5099 20.9841 48.2265 21.3001C48.2303 21.3348 48.2189 21.3657 48.2454 21.3965C48.3134 21.4659 48.3625 21.5507 48.4305 21.6162C48.6346 21.8205 48.8197 22.0402 49.0011 22.2599C49.1522 22.4411 49.3487 22.5875 49.4658 22.7995C49.4734 22.8111 49.4809 22.8188 49.4922 22.8265C49.7076 23.0192 49.8776 23.2544 50.0703 23.4663C50.3121 23.7285 50.5426 24.0021 50.7769 24.2681C50.8789 24.3837 50.9771 24.5071 51.0905 24.6111C51.1547 24.6728 51.1698 24.7692 51.2756 24.8308H49.2996C49.1711 24.6651 49.0464 24.4839 48.8877 24.3336C48.8197 24.2719 48.7933 24.1833 48.7252 24.1216C48.6648 24.0676 48.593 24.0175 48.5666 23.9289C48.5628 23.9135 48.5401 23.898 48.5288 23.8865C48.3852 23.7631 48.2794 23.6051 48.1585 23.4586C47.9885 23.2505 47.8109 23.0501 47.6484 22.8381C47.5464 22.707 47.4293 22.5798 47.3235 22.4526C47.2026 22.3023 47.0628 22.1713 46.957 22.0094C46.9041 21.9284 46.8247 21.8668 46.7378 21.7742V24.8347H45.3285V18.3168H46.7303V21.0303C46.8134 20.9186 46.9041 20.8684 46.9419 20.7682C46.957 20.7297 47.0023 20.6989 47.0363 20.668C47.3575 20.3674 47.6333 20.0243 47.9318 19.7005C48.1094 19.5078 48.2983 19.3305 48.4608 19.1262C48.627 18.9142 48.8273 18.7369 49.0011 18.5326C49.0653 18.4594 49.122 18.3823 49.1824 18.3129ZM49.8814 14.0576V15.3797H52.9721V16.7018H48.4721V10.2263L48.5174 10.18H52.7643L52.8134 10.2301V11.533H49.8776V12.7355H52.6585V14.0538L49.8814 14.0576ZM25.4507 10.18H26.8109L26.8676 10.2379V14.1848C26.8751 14.3429 26.8978 14.5009 26.9431 14.6551C26.9809 14.8092 27.0716 14.921 27.1472 15.0482C27.321 15.3373 27.6497 15.4722 27.8877 15.5377C27.9973 15.5686 28.122 15.5339 28.2391 15.5454C28.3978 15.5609 28.5338 15.4953 28.6698 15.4452C28.8625 15.372 29.0779 15.1754 29.1837 14.9943C29.3348 14.7476 29.4179 14.4623 29.4179 14.1733C29.4179 12.9129 29.4179 11.6524 29.4179 10.3882V10.18H30.7819L30.831 10.2417V14.3467C30.8386 14.4315 30.8235 14.5125 30.797 14.5934C30.7668 14.6666 30.831 14.763 30.7592 14.8362C30.7668 15.0058 30.695 15.1523 30.6383 15.3065C30.5703 15.4992 30.4759 15.6842 30.3587 15.8499C30.2303 16.0234 30.0829 16.1814 29.9205 16.3202C29.7769 16.4551 29.6031 16.5592 29.4179 16.6247C29.3046 16.6594 29.195 16.7133 29.0779 16.7519C28.9759 16.7827 28.8814 16.829 28.7718 16.8213C28.6887 16.8136 28.6207 16.8829 28.5338 16.8637C28.4545 16.8444 28.3751 16.8444 28.2996 16.8637C28.2013 16.8945 28.0955 16.8945 27.9935 16.8637C27.8915 16.8328 27.7668 16.8791 27.6648 16.8521C27.5174 16.8097 27.3625 16.8059 27.2152 16.7557C27.0678 16.7095 26.928 16.6517 26.792 16.5939C26.6069 16.5168 26.4406 16.405 26.3008 16.2624C26.2139 16.1737 26.127 16.0812 26.0363 15.9926C25.9456 15.8962 25.8663 15.7883 25.8096 15.6688C25.7038 15.4606 25.6169 15.2448 25.5489 15.0212C25.5225 14.9403 25.5603 14.8516 25.496 14.7823C25.5111 14.6204 25.4507 14.4623 25.4545 14.3005C25.4507 12.9321 25.4507 11.5638 25.4507 10.18ZM33.3927 18.3091H34.5414C34.5791 18.3399 34.5527 18.3823 34.5678 18.4209C34.6925 18.6907 34.8134 18.9566 34.9305 19.2303C35.0514 19.5117 35.1723 19.7969 35.2857 20.0821C35.3462 20.2363 35.4217 20.3866 35.4822 20.5408C35.5426 20.695 35.6069 20.8492 35.6786 20.9995C35.7769 21.2115 35.8713 21.4235 35.9545 21.6432C36.0754 21.9593 36.2227 22.2638 36.3399 22.5837C36.4003 22.7456 36.4872 22.8959 36.5514 23.0539C36.6459 23.2929 36.7517 23.528 36.8462 23.7709C36.9066 23.9327 36.9859 24.0831 37.0577 24.2411C37.1333 24.4107 37.2013 24.5803 37.2731 24.7499C37.2769 24.7769 37.2769 24.8038 37.2731 24.8308H35.724L35.1799 23.4779H32.69L32.1686 24.827H30.6232C30.6497 24.7383 30.6837 24.6497 30.7252 24.5649C30.831 24.3297 30.9217 24.0869 31.0275 23.8518C31.1635 23.5357 31.3147 23.2235 31.4393 22.9036C31.5527 22.6222 31.6698 22.3486 31.787 22.0672C31.9041 21.7897 32.0288 21.5006 32.1459 21.2192C32.263 20.9378 32.3802 20.6642 32.4935 20.3828C32.5804 20.1708 32.6749 19.9665 32.7618 19.7545C32.8827 19.4654 33.0036 19.1763 33.132 18.8873C33.2076 18.7215 33.2756 18.5481 33.3399 18.3746C33.3587 18.3553 33.3739 18.3322 33.3927 18.3091ZM34.6887 22.2214C34.428 21.5468 34.1749 20.8877 33.9104 20.2055L33.1434 22.2175C33.3399 22.2406 34.4469 22.2406 34.6887 22.2214ZM59.4557 16.0542C59.6484 15.8577 59.8147 15.6495 59.996 15.4529C60.1169 15.318 60.2378 15.1793 60.3625 15.0521C60.3927 15.0212 60.4003 14.975 60.4381 14.921C60.4872 15.002 60.5439 15.0713 60.6081 15.1369C60.7517 15.2795 61.122 15.4568 61.3184 15.5108C61.5149 15.5647 61.7152 15.5493 61.9116 15.5416C62.0552 15.5339 62.1912 15.4684 62.3197 15.3913C62.4066 15.3334 62.4822 15.2641 62.5464 15.1793C62.6824 15.0174 62.6749 14.709 62.5388 14.5433C62.4557 14.4431 62.3575 14.3621 62.2479 14.3005C61.957 14.1386 61.6396 14.0576 61.3336 13.9458C61.1446 13.8803 60.9557 13.8109 60.7706 13.7338C60.6043 13.6683 60.4494 13.5797 60.3096 13.4679C59.996 13.2289 59.8033 12.9938 59.6938 12.5467C59.6371 12.3038 59.6786 12.061 59.6598 11.822C59.7278 11.6293 59.7618 11.425 59.8524 11.2439C59.9356 11.0781 60.0451 10.9278 60.1698 10.7968C60.3663 10.5809 60.6043 10.4075 60.8688 10.288C61.0691 10.1955 61.2807 10.1299 61.496 10.0914C61.6018 10.076 61.7152 10.0875 61.8096 10.0528C61.9041 10.0182 62.0099 10.0297 62.1081 10.0182C62.2404 9.99888 62.3575 10.0721 62.486 10.0567C62.622 10.0413 62.7467 10.0914 62.8751 10.1145C62.996 10.1376 63.1132 10.1723 63.2265 10.2186C63.4003 10.2918 63.5703 10.3766 63.7328 10.4691C63.8386 10.5308 63.9331 10.6117 64.0086 10.7081C63.9217 10.8738 63.7744 10.9856 63.6535 11.1282C63.5061 11.3133 63.3436 11.479 63.1774 11.6486C63.1396 11.6871 63.1509 11.7681 63.0716 11.7758C63.0225 11.7719 63.0036 11.7257 62.9734 11.691C62.826 11.533 62.6371 11.4713 62.4406 11.4096C62.229 11.3441 62.0174 11.3595 61.8096 11.3788C61.598 11.3942 61.3978 11.4906 61.2504 11.6447C61.1862 11.7103 61.1711 11.8028 61.1106 11.876C61.1295 11.9685 61.0993 12.0687 61.1333 12.1767C61.1938 12.3655 61.3147 12.4773 61.4734 12.5737C61.6585 12.6854 61.8663 12.7433 62.0666 12.8049C62.3159 12.8859 62.5653 12.9668 62.8109 13.0478C63.1585 13.1672 63.4721 13.3484 63.7064 13.6375C63.831 13.7994 63.9255 13.9844 63.9784 14.181C64.0011 14.2619 64.0388 14.3429 64.0162 14.4238C63.9973 14.497 64.0691 14.5394 64.0577 14.6088C64.0502 14.6782 64.0615 14.7437 64.054 14.8092C64.0124 15.1137 63.9784 15.4182 63.8348 15.6958C63.6723 15.9964 63.4457 16.2547 63.1661 16.4512C62.962 16.5977 62.6522 16.7056 62.3764 16.775C62.1837 16.8213 61.9985 16.8637 61.7983 16.8521C61.7605 16.8444 61.7227 16.8521 61.6887 16.8714C61.6283 16.9099 61.5489 16.9138 61.4847 16.8829C61.4129 16.8367 61.3487 16.8483 61.2807 16.8521C61.0351 16.8598 60.8008 16.7866 60.5666 16.7172C60.3814 16.6632 60.2001 16.5823 60.0338 16.4859C59.8978 16.4088 59.7731 16.3202 59.6522 16.2238C59.588 16.1853 59.4897 16.166 59.4557 16.0542ZM44.6786 14.4277C45.2114 13.0131 45.7404 11.5946 46.2731 10.18H47.7429C47.7655 10.2302 47.7467 10.2648 47.7278 10.3072C47.6371 10.5154 47.5615 10.7312 47.4746 10.9394C47.4066 11.109 47.331 11.2786 47.2668 11.452C47.1988 11.6255 47.1195 11.8028 47.0514 11.9801C46.9834 12.1574 46.9192 12.3424 46.8436 12.512C46.7718 12.6854 46.7001 12.8512 46.632 13.0246C46.564 13.2019 46.4809 13.3754 46.4167 13.5565C46.3562 13.73 46.292 13.9073 46.2164 14.073C46.1371 14.2542 46.0653 14.4354 45.9897 14.6204C45.8802 14.894 45.7479 15.16 45.6648 15.4452C45.6383 15.5377 45.5854 15.6264 45.5477 15.715C45.4079 16.0427 45.2794 16.378 45.1434 16.7056H44.0023C43.9456 16.5553 43.889 16.4088 43.8361 16.2547C43.7189 15.9309 43.5867 15.6148 43.4658 15.2911C43.3789 15.0559 43.2769 14.8247 43.1862 14.5895C43.0691 14.2927 42.9519 13.996 42.8386 13.6953C42.7593 13.4833 42.6723 13.2713 42.5892 13.0593C42.4456 12.697 42.2983 12.3424 42.1736 11.9724C42.098 11.7565 42.0111 11.5484 41.9205 11.3364C41.8487 11.1706 41.7807 11.0049 41.7202 10.8392C41.6598 10.6734 41.5766 10.5269 41.5388 10.3535C41.5275 10.3034 41.4822 10.2494 41.4595 10.18H43.0653C43.5829 11.5869 44.1043 13.0054 44.6257 14.4277H44.6786ZM47.7996 8.60742V2.09339H49.1975C49.1938 2.08954 49.1975 2.09339 49.2013 2.09725C49.2051 2.1011 49.2089 2.10881 49.2089 2.11267V7.2892H51.797V8.60742H47.7996Z" fill="#030303"/>
<path d="M53.131 24.8343H51.7671V18.328C51.9182 18.301 52.7003 18.2933 53.131 18.3164V24.8343ZM39.4346 16.7014V10.1835H40.757L40.8061 10.2375V16.7014H39.4346ZM65.0819 10.1797H66.3968L66.4459 10.2298V16.7053C66.2268 16.713 66.0001 16.7053 65.7771 16.7091C65.5542 16.713 65.32 16.7091 65.0857 16.7091V10.1797H65.0819Z" fill="#010101"/>
<path d="M9.53672 14.3429C9.42715 14.4122 9.28735 14.4007 9.17778 14.4623C9.0871 14.5124 8.97375 14.4623 8.89441 14.5394C8.79239 14.5202 8.70171 14.6088 8.59592 14.578C8.53547 14.5626 8.50146 14.6358 8.43345 14.6242C8.38055 14.6165 8.31632 14.5934 8.27098 14.6551C8.2672 14.6628 8.24831 14.6628 8.2332 14.6589C8.02161 14.6281 7.8138 14.7129 7.60222 14.7013C7.39063 14.6898 7.17904 14.7206 6.97501 14.6898C6.85033 14.6705 6.71809 14.682 6.59718 14.6512C6.44982 14.6165 6.30247 14.6165 6.15511 14.5818C6.00776 14.5471 5.85662 14.5356 5.7206 14.4893C5.48635 14.4084 5.24831 14.339 5.01783 14.2388C4.88559 14.181 4.74957 14.1193 4.62111 14.0538C4.36796 13.9227 4.13748 13.7531 3.91078 13.5835C3.63874 13.3831 3.41582 13.1326 3.19667 12.8859C2.86418 12.5043 2.5997 12.0687 2.407 11.5985C2.28232 11.3055 2.16519 11.001 2.11229 10.6811C2.09718 10.5848 2.04428 10.4923 2.0405 10.392C2.03672 10.2918 1.97249 10.207 2.00272 10.1068C1.9196 9.98346 1.98005 9.83314 1.93471 9.69438C1.88937 9.56333 1.92337 9.40529 1.92337 9.25882C1.92337 9.11236 1.90826 8.96203 1.92715 8.81942C1.94604 8.67295 1.94227 8.53033 1.99516 8.38772C2.0065 8.33761 2.01028 8.28365 1.99894 8.22968C1.99138 8.17572 2.03295 8.13718 2.04428 8.08707C2.11229 7.75944 2.20675 7.43567 2.32766 7.12731C2.38433 6.97699 2.46368 6.83823 2.52413 6.69176C2.61859 6.4682 2.76594 6.27162 2.89819 6.07119C2.99264 5.92472 3.10222 5.79367 3.21179 5.65876C3.31002 5.53542 3.41204 5.41979 3.52161 5.31186C3.76342 5.07674 4.02413 4.8686 4.30751 4.68359C4.43975 4.59493 4.57577 4.51399 4.71934 4.44461C4.93471 4.33668 5.15763 4.24032 5.38811 4.15938C5.59592 4.08614 5.81128 4.03989 6.01531 3.96666C6.08332 3.94353 6.17023 3.98593 6.23068 3.9204C6.35914 3.93197 6.48383 3.89342 6.60473 3.87029C6.83521 3.83175 7.06569 3.84331 7.29617 3.83946C7.36796 3.83946 7.42841 3.75466 7.49264 3.80091C7.57577 3.85488 7.66645 3.84331 7.75335 3.8356C7.99894 3.81633 8.24076 3.85488 8.48257 3.88186C8.69793 3.91269 8.90952 3.95124 9.11733 4.00906C9.32892 4.06302 9.5405 4.12469 9.74453 4.20178C9.98257 4.29043 10.2168 4.39836 10.4397 4.5217C10.6438 4.63733 10.8403 4.76453 11.0329 4.90329C11.1198 4.96881 11.1954 5.04976 11.2823 5.11528C11.407 5.20779 11.5204 5.31572 11.6224 5.43135C11.8491 5.70116 12.072 5.97483 12.2496 6.28704C12.378 6.50674 12.4876 6.73416 12.5783 6.96928C12.669 7.20055 12.7445 7.43952 12.7937 7.68621C12.8239 7.8558 12.8617 8.02154 12.8806 8.19114C12.8919 8.30677 12.8881 8.42626 12.9146 8.53419C12.9712 8.75004 12.941 8.96589 12.9486 9.18174C12.9523 9.30122 12.9599 9.42457 12.9146 9.54791C12.8768 9.65583 12.9108 9.77532 12.8806 9.89096C12.8465 10.0374 12.8239 10.1877 12.7974 10.3381C12.7596 10.5539 12.6879 10.7582 12.6198 10.9663C12.5367 11.2246 12.4234 11.4713 12.2911 11.7064C12.1551 11.9454 12.0078 12.1766 11.8491 12.4002C11.6337 12.6931 11.3919 12.9668 11.1198 13.2096C10.9687 13.3523 10.8214 13.5026 10.6324 13.5951C10.6173 13.6028 10.606 13.6221 10.5947 13.6375C10.878 13.7493 11.1161 13.9304 11.3881 14.0576C11.6602 14.181 11.936 14.3236 12.2005 14.4739C12.805 14.817 13.4284 15.1215 14.0518 15.4298C14.373 15.5917 14.7017 15.7305 15.0342 15.8615C15.3667 15.9926 15.703 16.1236 16.043 16.2277C16.2168 16.2816 16.3982 16.324 16.572 16.378C16.7534 16.4358 16.9423 16.459 17.1236 16.5245C17.1425 16.5283 17.1576 16.5322 17.1765 16.536C17.2445 16.5437 17.3088 16.5245 17.3806 16.5707C17.4335 16.6054 17.509 16.5861 17.5808 16.6093C17.679 16.6401 17.7924 16.644 17.8944 16.6478C18.1627 16.6671 18.4309 16.7172 18.703 16.6979C18.8541 16.6864 19.0052 16.6864 19.1526 16.6979C19.3906 16.7172 19.6249 16.6401 19.8629 16.6555C19.9423 16.5939 20.0405 16.6401 20.1199 16.6093C20.2068 16.5784 20.3012 16.5977 20.3768 16.5707C20.4561 16.5437 20.5392 16.5206 20.6224 16.5013C20.8226 16.4512 21.3554 16.3009 21.5481 16.2161C21.5707 16.2046 21.5934 16.193 21.6123 16.1776H21.8163C21.839 16.2392 21.8239 16.3009 21.8277 16.3742C21.6765 16.4551 21.5329 16.563 21.3743 16.6131C21.2496 16.6517 21.1513 16.7519 21.0153 16.7519C20.8075 16.8675 20.577 16.933 20.3579 17.0178C20.1576 17.0949 19.946 17.1296 19.7382 17.1836C19.6098 17.2183 19.4775 17.2491 19.3491 17.2915C19.2697 17.3185 19.1828 17.2761 19.1148 17.3455C18.9901 17.3185 18.8806 17.3917 18.7596 17.3917C18.6765 17.3917 18.5896 17.4457 18.5027 17.4264C18.4158 17.4071 18.3365 17.4842 18.242 17.4688C18.1513 17.4534 18.0569 17.4534 17.9662 17.4688C17.6261 17.5459 17.2823 17.4842 16.9423 17.5074C16.8516 17.5112 16.776 17.4495 16.6853 17.465C16.6022 17.4804 16.5153 17.4804 16.4322 17.465C16.2471 17.4226 16.0581 17.4264 15.8768 17.384C15.7445 17.3532 15.601 17.357 15.4763 17.3031C15.3516 17.2491 15.208 17.2684 15.0909 17.1874C14.8831 17.1874 14.7017 17.0795 14.509 17.0178C14.3277 16.96 14.1463 16.8752 13.9687 16.8059C13.4586 16.6054 12.9788 16.3433 12.4952 16.0851C12.1664 15.9116 11.8415 15.7227 11.5279 15.5185C11.3654 15.4144 11.1879 15.3219 11.0216 15.2217C10.742 15.0521 10.4624 14.8825 10.1866 14.7167C9.98257 14.5895 9.77854 14.4469 9.53672 14.3429ZM11.0367 9.54791C11.0367 9.39373 11.0405 9.23955 11.0367 9.08923C11.0367 8.93505 11.0254 8.77702 11.0065 8.62284C10.98 8.44168 10.9498 8.25667 10.9272 8.07551C10.9083 7.92518 10.8365 7.78642 10.8403 7.63224C10.6816 7.23523 10.5644 6.83052 10.3415 6.46049C10.1602 6.17141 9.9599 5.89388 9.74075 5.63564C9.62363 5.49302 9.45738 5.40051 9.32136 5.27332C9.05688 5.0382 8.74327 4.89173 8.43345 4.74526C8.24831 4.66431 8.05562 4.6065 7.85914 4.57181C7.65511 4.53326 7.4473 4.53326 7.24327 4.49472C7.06947 4.46388 6.90322 4.54097 6.72942 4.53326C6.60096 4.52555 6.48383 4.60264 6.35159 4.57566C6.26091 4.64889 6.14378 4.63348 6.03798 4.67973C5.93219 4.72598 5.8264 4.76838 5.7206 4.81464C5.4939 4.91485 5.28232 5.04976 5.09718 5.2155C4.79113 5.48531 4.54176 5.81294 4.35662 6.18297C4.14126 6.61467 3.98257 7.06178 3.92589 7.54359C3.86166 7.63224 3.91834 7.74017 3.88055 7.82497C3.84655 7.91747 3.83521 8.01383 3.85033 8.1102C3.85788 8.21812 3.80121 8.30677 3.80499 8.4147C3.81254 8.71535 3.80877 9.01599 3.80877 9.31664C3.80877 9.35519 3.79365 9.40915 3.81254 9.43613C3.87678 9.52093 3.85411 9.61729 3.84655 9.70209C3.83521 9.80616 3.90322 9.8871 3.88811 9.98732C3.86922 10.1068 3.95234 10.2109 3.92589 10.3304C4.02035 10.5462 4.04302 10.7852 4.11859 11.0126C4.2395 11.3634 4.37552 11.7103 4.56821 12.0225C4.62489 12.1111 4.66645 12.2113 4.73824 12.2923C4.8667 12.4426 4.97249 12.6122 5.11229 12.7548C5.15385 12.7934 5.17274 12.8782 5.22942 12.9013C5.30876 12.9321 5.3541 12.9938 5.40322 13.0478C5.61103 13.2636 5.86418 13.4139 6.12111 13.5565C6.38559 13.7069 6.67274 13.8186 6.96745 13.888C7.17904 13.9343 7.39063 13.9921 7.60977 13.996H7.90448C8.02161 13.9921 8.13874 13.9921 8.25965 13.9998C8.38433 14.0152 8.4939 13.9304 8.61481 13.9574C8.64126 13.9651 8.66393 13.9343 8.68282 13.9304C8.83395 13.9227 8.96242 13.8456 9.09844 13.7917C9.32892 13.7069 9.54428 13.5797 9.72564 13.4139C9.89945 13.2559 10.0581 13.0824 10.2055 12.9013C10.3491 12.724 10.4057 12.4966 10.5569 12.327C10.6287 12.0726 10.742 11.8297 10.8062 11.5715C10.8818 11.2824 10.9423 10.9856 10.9801 10.6888C11.0141 10.419 11.0518 10.1415 11.0292 9.86397C11.0292 9.74834 11.0367 9.64812 11.0367 9.54791Z" fill="#FEFDFC"/>
<path d="M20.3842 4.20542C20.3918 4.29022 20.3918 4.37116 20.3842 4.45596C20.3162 4.9686 20.3578 5.4851 20.3502 6.0016C20.3502 6.0864 20.2596 6.14807 20.3124 6.22516C20.2558 6.3061 20.1915 6.29839 20.1273 6.28683C20.0631 6.22516 20.0291 6.1365 20.0329 6.04785C20.0329 5.76262 19.8893 5.43114 19.7155 5.1806C19.5946 5.011 19.4472 4.86839 19.281 4.75275C19.1223 4.64097 18.9334 4.5793 18.7444 4.53305C18.4497 4.45596 18.1512 4.50992 17.8565 4.49451C17.5543 4.5793 17.252 4.65639 17.0215 4.90308C16.8666 5.06496 16.7381 5.24227 16.6777 5.45812C16.6512 5.56219 16.6097 5.66241 16.6172 5.77419C16.6248 5.88211 16.6097 5.99003 16.621 6.09411C16.6323 6.19047 16.6739 6.28297 16.6966 6.38319C16.7306 6.54508 16.8288 6.67613 16.9119 6.81489C17.0253 6.9999 17.3956 7.35837 17.5845 7.50869C17.6827 7.58963 17.7658 7.68985 17.8716 7.76308C18.0832 7.90955 18.2684 8.09071 18.4875 8.22947C18.5669 8.28344 18.6386 8.34896 18.7029 8.41449C18.8351 8.53783 18.9787 8.64961 19.1109 8.77681C19.2432 8.904 19.383 9.01578 19.5077 9.15069C19.7835 9.44748 20.0442 9.75584 20.2331 10.1259C20.3918 10.4304 20.4485 10.5421 20.5467 10.916C20.5883 11.0741 20.6147 11.2398 20.6261 11.4055C20.6336 11.525 20.6638 11.6445 20.6638 11.7679C20.6638 11.8912 20.6185 12.0068 20.6147 12.1302C20.6109 12.2381 20.5694 12.3499 20.5505 12.4578C20.5316 12.5773 20.4598 12.6814 20.4636 12.8047C20.32 13.0591 20.2218 13.3405 20.0102 13.5563C19.9422 13.6219 19.9044 13.7182 19.8288 13.7799C19.6399 13.9495 19.4397 14.0998 19.2243 14.2309C19.0089 14.3581 18.7822 14.4583 18.5404 14.5277C18.3855 14.5662 18.2344 14.6356 18.0719 14.6317C17.9925 14.6317 17.9359 14.6895 17.8528 14.6741C17.7772 14.6549 17.6978 14.6664 17.6336 14.7088C17.6109 14.7242 17.5694 14.7127 17.5354 14.7127C17.3578 14.7127 17.1802 14.7011 17.0064 14.7165C16.7873 14.7319 16.5719 14.6818 16.3565 14.6626C16.1941 14.6433 16.0316 14.6086 15.8729 14.5623C15.7142 14.5238 15.5593 14.4544 15.4006 14.4159C15.2495 14.3773 15.1021 14.3157 15.0228 14.1885C14.9812 14.0073 14.9585 13.8223 14.9623 13.6334C14.9585 13.5139 15.019 13.4099 15.0077 13.2904C15.0001 13.1632 15.0001 13.036 15.0039 12.9088C15.0039 12.7893 14.9812 12.6621 15.0077 12.5465C15.053 12.3692 15.0379 12.1957 15.0417 12.0223C15.0417 11.949 15.121 11.8951 15.0719 11.8141L15.1928 11.7062C15.2759 11.6869 15.3062 11.764 15.3628 11.818C15.3213 12.0107 15.3704 12.2073 15.4044 12.3961C15.4422 12.6043 15.514 12.8047 15.6084 12.9897C15.7142 13.2017 15.8351 13.406 16.0165 13.5563C16.1714 13.6874 16.3452 13.7953 16.5341 13.8763C16.9195 14.0458 17.3276 14.0574 17.7281 14.0227C18.053 13.988 18.3628 13.8647 18.6198 13.6604C18.8389 13.4947 18.9749 13.2788 19.1034 13.0437C19.1336 12.9859 19.1147 12.9165 19.1714 12.8702C19.1525 12.77 19.2318 12.6891 19.213 12.585C19.2054 12.4925 19.2054 12.3961 19.2092 12.3036C19.2054 11.922 19.0769 11.5829 18.8767 11.2629C18.6689 10.9314 18.3855 10.6732 18.1059 10.4111C17.8716 10.1991 17.6261 9.99867 17.3691 9.81365C16.9459 9.50144 16.5795 9.12371 16.213 8.74597C15.9069 8.4299 15.6651 8.05602 15.4951 7.64745C15.4119 7.43931 15.3515 7.22346 15.3137 7.00376C15.257 6.71467 15.2759 6.42559 15.2873 6.1365C15.2948 5.92451 15.3666 5.70866 15.4422 5.50437C15.5933 5.09966 15.8805 4.80286 16.1827 4.51763C16.3301 4.37887 16.8213 4.12062 17.0329 4.05124C17.218 3.98572 17.4069 3.93561 17.5958 3.89706C17.7772 3.86623 17.9585 3.82768 18.1475 3.84696C18.2192 3.85467 18.2986 3.87394 18.3704 3.81227C18.4119 3.78914 18.4611 3.78914 18.5026 3.81227C18.5933 3.87008 18.6915 3.85467 18.7822 3.84696C18.9976 3.82768 19.2016 3.89321 19.4132 3.89321C19.485 3.89321 19.5568 3.94332 19.6323 3.9279C19.7079 3.91248 19.7646 3.96259 19.8288 3.97801C19.9044 3.99728 19.9875 3.98186 20.048 4.01655C20.1538 4.07437 20.3011 4.05124 20.3842 4.20542Z" fill="#FEFDFC"/>
<path d="M21.7668 22.2213C21.729 22.3331 21.6308 22.3177 21.5703 22.3485C21.5099 22.3793 21.4192 22.3408 21.3549 22.3948C21.1811 22.3678 21.0149 22.4603 20.8411 22.4333C20.7542 22.4217 20.6748 22.4911 20.5804 22.4757C20.4973 22.4603 20.4028 22.4487 20.3272 22.4757C20.1572 22.5374 19.9796 22.4834 19.8134 22.5142C19.5451 22.5644 19.2693 22.5181 19.0048 22.5605C18.7328 22.6029 18.4607 22.5605 18.1963 22.5952C17.7504 22.6569 17.3008 22.5913 16.8587 22.6414C16.4318 22.6877 16.0048 22.6723 15.5779 22.6684C15.0791 22.6646 14.5842 22.7301 14.0816 22.7147C13.5829 22.6993 13.0728 22.7108 12.5703 22.7108H11.059C10.5565 22.7108 10.0502 22.6993 9.54764 22.7147C9.15092 22.7262 8.76175 22.6569 8.36502 22.6684C7.9683 22.68 7.56402 22.7031 7.16729 22.6607C6.75923 22.6183 6.35117 22.6723 5.94689 22.6222C5.62951 22.5836 5.31213 22.626 5.0023 22.5836C4.74915 22.5489 4.49978 22.5836 4.25419 22.5451C4.05394 22.5142 3.85747 22.5374 3.66099 22.5065C3.50986 22.4834 3.35495 22.4988 3.20759 22.468C3.07535 22.441 2.93933 22.4564 2.81087 22.4295C2.71641 22.4102 2.62195 22.414 2.53505 22.3909C2.44815 22.3639 2.35747 22.3755 2.27812 22.3524C2.21011 22.3292 2.11187 22.3408 2.07031 22.2213C2.17233 22.1751 2.26679 22.1095 2.37636 22.1211C2.45948 22.1288 2.51993 22.0748 2.5955 22.0748C2.67107 22.0748 2.75419 22.1057 2.81465 22.0363C2.81842 22.0324 2.82598 22.0363 2.83354 22.0363C3.0149 22.0633 3.1887 21.9978 3.36628 21.9978C3.63832 22.0016 3.90281 21.9284 4.17485 21.9592C4.39399 21.8783 4.62447 21.9515 4.84361 21.9168C5.19122 21.8628 5.5426 21.9091 5.88643 21.8706C6.07157 21.8513 6.25671 21.8436 6.44185 21.8397C6.62699 21.8359 6.82346 21.8551 7.01238 21.8359C7.75293 21.7626 8.49349 21.8166 9.23404 21.7973C9.5892 21.7202 9.94059 21.7665 10.2958 21.7588C10.6623 21.7511 11.0288 21.7588 11.3953 21.7588H12.4759C12.8764 21.7588 13.2731 21.7703 13.6736 21.7549C14.1459 21.7395 14.6144 21.8089 15.0905 21.8012C15.5628 21.7935 16.035 21.7665 16.5036 21.8089C16.9267 21.8474 17.3461 21.7973 17.7617 21.8474C18.098 21.886 18.4343 21.8397 18.7668 21.886C19.0124 21.9207 19.258 21.886 19.496 21.9245C19.7076 21.9592 19.923 21.9284 20.127 21.9669C20.2706 21.99 20.4179 21.9978 20.5653 21.9978C20.6522 22.0016 20.7277 22.0556 20.8222 22.044C20.9053 22.0363 20.9998 22.0093 21.0829 22.0787C21.098 22.0903 21.1358 22.0825 21.1623 22.0787C21.3474 22.0633 21.5174 22.1519 21.6988 22.1635C21.7177 22.1596 21.7403 22.1982 21.7668 22.2213Z" fill="#686764"/>
<path d="M92.7619 1.50304C92.675 1.57242 92.6826 1.6842 92.6259 1.77285C92.5428 1.90776 92.4256 2.01954 92.2859 2.10048C92.1876 2.16215 92.0743 2.19684 91.9571 2.20455C91.9005 2.20455 91.84 2.2007 91.7796 2.20455C91.5491 2.23153 91.2657 2.05037 91.1259 1.88463C90.9143 1.64951 90.8236 1.32573 90.8803 1.01352C90.9483 0.628077 91.1561 0.335139 91.5491 0.211796C91.602 0.196378 91.6511 0.207942 91.7002 0.200233C91.738 0.196378 91.7833 0.211796 91.7909 0.161688C91.8551 0.150125 91.8816 0.207942 91.942 0.204087C92.1385 0.200233 92.3236 0.281176 92.4559 0.427646C92.5806 0.554843 92.7015 0.68204 92.7317 0.867054C92.8035 0.92487 92.7317 1.01352 92.7808 1.08676C92.8186 1.14457 92.8073 1.22937 92.7619 1.30261C92.7393 1.35272 92.7619 1.42595 92.7619 1.50304ZM91.806 1.28719C91.9307 1.48762 92.0554 1.6842 92.1801 1.88463C92.2443 1.87307 92.3047 1.89619 92.3652 1.86921C92.369 1.84994 92.3652 1.82681 92.3539 1.80754C92.2556 1.65722 92.1574 1.50304 92.0629 1.34886C92.0554 1.33344 92.0516 1.31803 92.0516 1.29875L92.112 1.23708H92.1763C92.3765 1.11759 92.3841 0.928725 92.3652 0.732148C92.2821 0.593387 92.2745 0.577969 92.1725 0.539425C92.0932 0.508589 92.01 0.485463 91.9231 0.477754C91.7493 0.470045 91.5717 0.473899 91.3904 0.473899V1.87307H91.5831V1.28719H91.806Z" fill="#F8F8F8"/>
<path d="M35.5806 5.3771V5.04947C35.5806 4.94925 35.6561 4.60235 35.7317 4.43276C35.8148 4.23618 35.9244 4.05117 36.0642 3.88928C36.1624 3.78521 36.2682 3.6927 36.3778 3.60405C36.5327 3.473 36.7141 3.40362 36.8954 3.33424C37.107 3.25329 37.5491 3.20704 37.7607 3.24944C38.0176 3.29955 38.2745 3.33809 38.5126 3.48071C38.8337 3.67728 39.0982 3.91241 39.2644 4.25931C39.306 4.34796 39.3513 4.43661 39.3891 4.52526C39.4307 4.61392 39.4269 4.70642 39.4647 4.79508C39.5138 4.92227 39.5365 5.51586 39.5063 5.63535C39.4685 5.77796 39.4798 5.93214 39.4231 6.05934C39.3665 6.20195 39.3211 6.34842 39.2342 6.47947C39.102 6.67991 38.9773 6.88034 38.7733 7.02681C38.5881 7.16171 38.3879 7.26578 38.1725 7.34287C38.0667 7.38142 37.9609 7.41996 37.8476 7.4084C37.7191 7.39683 37.602 7.47007 37.4697 7.44694C37.1675 7.39298 36.8614 7.366 36.5818 7.21182C36.3022 7.05764 36.068 6.83794 35.8904 6.57198C35.7468 6.35613 35.6712 6.11715 35.6108 5.86662C35.5692 5.69702 35.5995 5.52357 35.5806 5.3771ZM54.0037 7.29276V3.40362H55.039C55.1561 3.48456 55.2922 3.4306 55.4206 3.47685C55.534 3.5154 55.6624 3.52311 55.7758 3.5655C55.9647 3.63488 56.1461 3.73125 56.3085 3.85073C56.4634 3.96251 56.5995 4.10513 56.709 4.26316C56.8148 4.42119 56.9055 4.71413 56.9508 4.903C57.0037 5.11885 56.9697 5.3347 56.9848 5.54669C56.9848 5.56597 56.9924 5.59295 56.9848 5.60451C56.9168 5.68931 56.966 5.79338 56.932 5.88589C56.8866 6.00538 56.8602 6.13643 56.8035 6.25206C56.6561 6.56427 56.4143 6.81867 56.1083 6.9767C55.9118 7.08077 55.7002 7.13088 55.4962 7.21182C55.3488 7.18869 55.209 7.2812 55.0617 7.25037C54.8879 7.21953 54.7216 7.30433 54.5478 7.29276C54.3778 7.28505 54.1964 7.29276 54.0037 7.29276Z" fill="#FEFDFC"/>
<path d="M55.496 12.9009V11.4169H56.6106C56.6862 11.4131 56.7618 11.4246 56.8335 11.4516C56.8902 11.4786 56.9658 11.467 57.03 11.494C57.3134 11.6019 57.4192 11.7021 57.4759 11.945C57.5401 12.2109 57.5288 12.4885 57.2907 12.6889C57.1887 12.7814 57.064 12.8354 56.928 12.8508C56.8071 12.8585 56.6975 12.9163 56.5728 12.9009C56.4482 12.8932 56.3272 12.8932 56.2026 12.9009H55.496ZM26.8638 21.0261V19.5305C26.9091 19.492 26.962 19.5151 27.0111 19.5113C27.2907 19.5074 27.5741 19.4997 27.8537 19.5151C28.0653 19.5228 28.2806 19.5421 28.4696 19.6385C28.6396 19.7271 28.7983 19.8312 28.8323 20.0663C28.855 20.2282 28.8814 20.3785 28.8247 20.5366C28.7416 20.764 28.5754 20.8873 28.3524 20.9567C28.2202 20.9952 28.0842 20.9721 27.9557 20.9952C27.6081 21.0685 27.2605 21.0107 26.9129 21.0299C26.8978 21.0299 26.8789 21.0299 26.8638 21.0261ZM43.3222 4.76798V3.28401C43.6849 3.28401 44.0439 3.26474 44.4028 3.29172C44.5766 3.30328 44.758 3.31485 44.9242 3.39965C45.0754 3.47674 45.2 3.60008 45.2794 3.75426C45.2869 3.78124 45.3021 3.80436 45.3209 3.82364V4.17439C45.3209 4.30544 45.1887 4.55984 45.0565 4.62151C44.8789 4.70631 44.7013 4.76798 44.5048 4.76412C44.1157 4.76412 43.7227 4.76798 43.3222 4.76798ZM34.6925 22.221C34.4469 22.2402 33.3398 22.2364 33.1471 22.221L33.9141 20.2089C34.1749 20.8873 34.4318 21.5464 34.6925 22.221Z" fill="#F8F8F8"/>
<path d="M11.0367 9.54734C11.0367 9.64756 11.0291 9.74778 11.0367 9.84799C11.0593 10.1255 11.0216 10.3992 10.9876 10.6728C10.9498 10.9696 10.8893 11.2664 10.8138 11.5555C10.7495 11.8176 10.6324 12.0566 10.5644 12.311C10.417 12.4806 10.3566 12.708 10.213 12.8853C10.0656 13.0665 9.90317 13.2399 9.73315 13.3979C9.54801 13.5637 9.33642 13.6909 9.10594 13.7757C8.96992 13.8296 8.84146 13.9029 8.69033 13.9144C8.67143 13.9144 8.65254 13.9453 8.62232 13.9414C8.49763 13.9144 8.38806 13.9992 8.26715 13.9838C8.15002 13.9761 8.0329 13.9761 7.91199 13.98H7.61728C7.39813 13.9761 7.19033 13.9183 6.97496 13.872C6.68025 13.8027 6.3931 13.6909 6.12861 13.5406C5.87169 13.4018 5.62232 13.2476 5.41073 13.0318C5.35783 12.9778 5.31249 12.9161 5.23693 12.8853C5.18025 12.8622 5.16136 12.7812 5.1198 12.7388C4.98 12.5962 4.87043 12.4266 4.74574 12.2763C4.67395 12.1915 4.62861 12.0951 4.57572 12.0065C4.37924 11.6943 4.24322 11.3474 4.12609 10.9966C4.05053 10.7731 4.02786 10.5341 3.9334 10.3144C3.95985 10.1949 3.87672 10.0908 3.89562 9.97133C3.91073 9.87497 3.84272 9.79017 3.85405 9.6861C3.86161 9.60131 3.88428 9.50494 3.82005 9.42015C3.80116 9.39317 3.81627 9.34306 3.81627 9.30066C3.81627 9.00001 3.82383 8.69936 3.81249 8.39872C3.80871 8.29079 3.86917 8.20214 3.85783 8.09421C3.84272 7.99785 3.85405 7.89764 3.88806 7.80898C3.92206 7.72419 3.86539 7.61626 3.9334 7.52761C3.9863 7.0458 4.14876 6.59868 4.36413 6.16699C4.54549 5.79696 4.79864 5.46933 5.10468 5.19952C5.28982 5.03378 5.50141 4.89887 5.72811 4.79865C5.8339 4.7524 5.94347 4.71 6.04549 4.66375C6.1475 4.61749 6.26841 4.63291 6.35909 4.55968C6.48756 4.58666 6.60468 4.50957 6.73693 4.51728C6.91073 4.52884 7.07698 4.4479 7.25078 4.47873C7.45481 4.51342 7.66262 4.51728 7.86665 4.55582C8.06312 4.59051 8.2596 4.65218 8.44096 4.73313C8.75078 4.8796 9.06438 5.02221 9.32886 5.26119C9.46488 5.38453 9.63113 5.47704 9.74826 5.62351C9.9674 5.88561 10.1677 6.15928 10.349 6.44836C10.5757 6.81839 10.6928 7.22696 10.8478 7.62012C10.844 7.77429 10.9158 7.91305 10.9347 8.06338C10.9573 8.24454 10.9876 8.42955 11.014 8.61071C11.0367 8.76489 11.0442 8.91907 11.0442 9.0771C11.0405 9.23899 11.0367 9.39317 11.0367 9.54734Z" fill="#FEA815"/>
<path d="M91.8059 1.28759H91.5867V1.88118H91.394V0.482009C91.5754 0.482009 91.7492 0.4743 91.9268 0.485864C92.0137 0.493573 92.0968 0.512845 92.1762 0.547535C92.2744 0.582225 92.282 0.597643 92.3689 0.740258C92.3877 0.936835 92.3802 1.1257 92.1799 1.24519H92.1157L92.0553 1.30686C92.0553 1.32228 92.059 1.34155 92.0666 1.35697C92.161 1.51115 92.2593 1.66147 92.3575 1.81565C92.3689 1.83492 92.3726 1.8542 92.3689 1.87732C92.3084 1.9043 92.2442 1.88118 92.1837 1.89274C92.0553 1.6846 91.9306 1.48802 91.8059 1.28759ZM92.1724 0.979234C92.1799 0.882873 92.1799 0.79422 92.1157 0.72484C91.9381 0.643896 91.7605 0.694004 91.5905 0.686295V1.11799H91.9684C92.0515 1.09872 92.1233 1.04861 92.1724 0.979234Z" fill="#030303"/>
<path d="M92.1727 0.979396C92.1236 1.04878 92.0518 1.09888 91.9687 1.11816H91.5908V0.682603C91.7646 0.690312 91.9384 0.644059 92.116 0.721148C92.1765 0.794383 92.1802 0.883035 92.1727 0.979396Z" fill="#F8F8F8"/>
</g>
<defs>
<clipPath id="clip0_1249_22291">
<rect width="93" height="25" fill="white"/>
</clipPath>
</defs>
</svg>
