<svg width="42" height="42" viewBox="0 0 42 42" fill="none" xmlns="http://www.w3.org/2000/svg">
<path d="M5.90642 28.875L12.4689 33.4688V39.7031C12.4689 39.7901 12.5035 39.8736 12.565 39.9351C12.6266 39.9967 12.71 40.0312 12.797 40.0312H18.7033C18.7903 40.0312 18.8738 39.9967 18.9353 39.9351C18.9969 39.8736 19.0314 39.7901 19.0314 39.7031V30.5747C19.0293 29.6551 18.7858 28.7523 18.3251 27.9565C17.8644 27.1606 17.2028 26.4998 16.4064 26.04L12.9545 24.0187C12.7318 23.8889 12.4837 23.8085 12.2271 23.7829C11.9705 23.7574 11.7114 23.7874 11.4674 23.8708C11.2234 23.9542 11.0002 24.0891 10.8129 24.2663C10.6257 24.4436 10.4787 24.6591 10.382 24.8981C10.2565 25.2242 10.2269 25.5795 10.2967 25.9219L14.1292 28.3172L13.4336 29.4328L8.18361 26.1516C8.03755 26.0592 7.93379 25.913 7.89486 25.7447L5.48642 15.5269C5.25453 15.4099 4.99433 15.3609 4.73579 15.3854C4.47725 15.41 4.2309 15.507 4.02513 15.6655C3.81937 15.8239 3.66255 16.0373 3.57277 16.281C3.48299 16.5246 3.46389 16.7887 3.51767 17.0428L5.90642 28.875ZM36.5139 15.5269L34.1252 25.7447C34.0862 25.913 33.9825 26.0592 33.8364 26.1516L28.5864 29.4328L27.8908 28.3172L31.7233 25.9219C31.7931 25.5795 31.7635 25.2242 31.638 24.8981C31.5413 24.6591 31.3944 24.4436 31.2071 24.2663C31.0198 24.0891 30.7966 23.9542 30.5526 23.8708C30.3086 23.7874 30.0495 23.7574 29.7929 23.7829C29.5364 23.8085 29.2883 23.8889 29.0655 24.0187L25.5939 26.04C24.7976 26.4998 24.1359 27.1606 23.6753 27.9565C23.2146 28.7523 22.971 29.6551 22.9689 30.5747V39.7031C22.9689 39.7901 23.0035 39.8736 23.065 39.9351C23.1266 39.9967 23.21 40.0312 23.297 40.0312H29.2033C29.2903 40.0312 29.3738 39.9967 29.4353 39.9351C29.4969 39.8736 29.5314 39.7901 29.5314 39.7031V33.4688L36.0939 28.875L38.463 17.0625C38.5168 16.8084 38.4977 16.5443 38.4079 16.3006C38.3181 16.057 38.1613 15.8436 37.9555 15.6852C37.7498 15.5267 37.5034 15.4296 37.2449 15.4051C36.9863 15.3806 36.7261 15.4296 36.4942 15.5466L36.5139 15.5269ZM21.6105 11.3531C21.2804 11.4318 20.9365 11.4318 20.6064 11.3531L12.4689 9.1875V15.0938C12.4689 15.964 12.8146 16.7986 13.43 17.4139C14.0453 18.0293 14.8799 18.375 15.7502 18.375H26.2502C27.1204 18.375 27.955 18.0293 28.5704 17.4139C29.1857 16.7986 29.5314 15.964 29.5314 15.0938V9.26625L21.6105 11.3531Z" fill="#010F2E"/>
<path d="M35.1354 5.15175L21.2426 2.22487C21.1538 2.20629 21.0622 2.20629 20.9735 2.22487L7.0807 5.15175C6.9388 5.18731 6.81285 5.26927 6.72286 5.3846C6.63286 5.49993 6.58398 5.64202 6.58398 5.78831C6.58398 5.9346 6.63286 6.07669 6.72286 6.19202C6.81285 6.30736 6.9388 6.38931 7.0807 6.42487L20.9669 10.0802C21.077 10.1064 21.1916 10.1064 21.3016 10.0802L35.1616 6.42487C35.3029 6.38649 35.4273 6.30198 35.515 6.18477C35.6027 6.06757 35.6487 5.92441 35.6457 5.77806C35.6426 5.63171 35.5908 5.49057 35.4983 5.37708C35.4059 5.2636 35.2781 5.18428 35.1354 5.15175Z" fill="#010F2E"/>
</svg>
