<svg width="20" height="20" viewBox="0 0 20 20" fill="none" xmlns="http://www.w3.org/2000/svg">
<path d="M2.8125 17.5H2.1875C2.10462 17.5 2.02513 17.5329 1.96653 17.5915C1.90792 17.6501 1.875 17.7296 1.875 17.8125C1.875 17.8954 1.90792 17.9749 1.96653 18.0335C2.02513 18.0921 2.10462 18.125 2.1875 18.125H5.9375V12.1875H2.8125V17.5ZM3.75 12.8125H5C5.08288 12.8125 5.16237 12.8454 5.22097 12.904C5.27958 12.9626 5.3125 13.0421 5.3125 13.125C5.3125 13.2079 5.27958 13.2874 5.22097 13.346C5.16237 13.4046 5.08288 13.4375 5 13.4375H3.75C3.66712 13.4375 3.58763 13.4046 3.52903 13.346C3.47042 13.2874 3.4375 13.2079 3.4375 13.125C3.4375 13.0421 3.47042 12.9626 3.52903 12.904C3.58763 12.8454 3.66712 12.8125 3.75 12.8125ZM3.75 14.375H5C5.08288 14.375 5.16237 14.4079 5.22097 14.4665C5.27958 14.5251 5.3125 14.6046 5.3125 14.6875C5.3125 14.7704 5.27958 14.8499 5.22097 14.9085C5.16237 14.9671 5.08288 15 5 15H3.75C3.66712 15 3.58763 14.9671 3.52903 14.9085C3.47042 14.8499 3.4375 14.7704 3.4375 14.6875C3.4375 14.6046 3.47042 14.5251 3.52903 14.4665C3.58763 14.4079 3.66712 14.375 3.75 14.375ZM3.75 15.9375H5C5.08288 15.9375 5.16237 15.9704 5.22097 16.029C5.27958 16.0876 5.3125 16.1671 5.3125 16.25C5.3125 16.3329 5.27958 16.4124 5.22097 16.471C5.16237 16.5296 5.08288 16.5625 5 16.5625H3.75C3.66712 16.5625 3.58763 16.5296 3.52903 16.471C3.47042 16.4124 3.4375 16.3329 3.4375 16.25C3.4375 16.1671 3.47042 16.0876 3.52903 16.029C3.58763 15.9704 3.66712 15.9375 3.75 15.9375ZM6.5625 17.5V18.125H7.8125V15.3125C7.8125 15.0639 7.91127 14.8254 8.08709 14.6496C8.2629 14.4738 8.50136 14.375 8.75 14.375H11.25C11.4986 14.375 11.7371 14.4738 11.9129 14.6496C12.0887 14.8254 12.1875 15.0639 12.1875 15.3125V18.125H13.4375V9.375H6.5625V17.5ZM10 10.9375C10.2472 10.9375 10.4889 11.0108 10.6945 11.1482C10.9 11.2855 11.0602 11.4807 11.1549 11.7091C11.2495 11.9376 11.2742 12.1889 11.226 12.4314C11.1778 12.6738 11.0587 12.8966 10.8839 13.0714C10.7091 13.2462 10.4863 13.3653 10.2439 13.4135C10.0014 13.4617 9.75005 13.437 9.52165 13.3423C9.29324 13.2477 9.09801 13.0875 8.96066 12.882C8.82331 12.6764 8.75 12.4347 8.75 12.1875C8.75 11.856 8.8817 11.538 9.11612 11.3036C9.35054 11.0692 9.66848 10.9375 10 10.9375Z" fill="#2C79FF"/>
<path d="M8.4375 15.3125V18.125H9.6875V15H8.75C8.66712 15 8.58763 15.0329 8.52903 15.0915C8.47042 15.1501 8.4375 15.2296 8.4375 15.3125ZM11.25 15H10.3125V18.125H11.5625V15.3125C11.5625 15.2296 11.5296 15.1501 11.471 15.0915C11.4124 15.0329 11.3329 15 11.25 15Z" fill="#2C79FF"/>
<path d="M10 12.8125C10.3452 12.8125 10.625 12.5327 10.625 12.1875C10.625 11.8423 10.3452 11.5625 10 11.5625C9.65482 11.5625 9.375 11.8423 9.375 12.1875C9.375 12.5327 9.65482 12.8125 10 12.8125Z" fill="#2C79FF"/>
<path d="M17.8125 17.5H17.1875V11.875H14.0625V18.125H17.8125C17.8954 18.125 17.9749 18.0921 18.0335 18.0335C18.0921 17.9749 18.125 17.8954 18.125 17.8125C18.125 17.7296 18.0921 17.6501 18.0335 17.5915C17.9749 17.5329 17.8954 17.5 17.8125 17.5ZM15 12.8125H16.25C16.3329 12.8125 16.4124 12.8454 16.471 12.904C16.5296 12.9626 16.5625 13.0421 16.5625 13.125C16.5625 13.2079 16.5296 13.2874 16.471 13.346C16.4124 13.4046 16.3329 13.4375 16.25 13.4375H15C14.9171 13.4375 14.8376 13.4046 14.779 13.346C14.7204 13.2874 14.6875 13.2079 14.6875 13.125C14.6875 13.0421 14.7204 12.9626 14.779 12.904C14.8376 12.8454 14.9171 12.8125 15 12.8125ZM15 14.375H16.25C16.3329 14.375 16.4124 14.4079 16.471 14.4665C16.5296 14.5251 16.5625 14.6046 16.5625 14.6875C16.5625 14.7704 16.5296 14.8499 16.471 14.9085C16.4124 14.9671 16.3329 15 16.25 15H15C14.9171 15 14.8376 14.9671 14.779 14.9085C14.7204 14.8499 14.6875 14.7704 14.6875 14.6875C14.6875 14.6046 14.7204 14.5251 14.779 14.4665C14.8376 14.4079 14.9171 14.375 15 14.375ZM15 15.9375H16.25C16.3329 15.9375 16.4124 15.9704 16.471 16.029C16.5296 16.0876 16.5625 16.1671 16.5625 16.25C16.5625 16.3329 16.5296 16.4124 16.471 16.471C16.4124 16.5296 16.3329 16.5625 16.25 16.5625H15C14.9171 16.5625 14.8376 16.5296 14.779 16.471C14.7204 16.4124 14.6875 16.3329 14.6875 16.25C14.6875 16.1671 14.7204 16.0876 14.779 16.029C14.8376 15.9704 14.9171 15.9375 15 15.9375ZM14.0625 10.3125H17.5V11.25H14.0625V10.3125ZM2.5 10.625H5.9375V11.5625H2.5V10.625ZM14.0625 8.29688L10 5.68438L5.9375 8.29688V8.75H14.0625V8.29688ZM10.1688 5.05L10.3125 5.14375V4.0625H12.5V2.1875H10.3125C10.3125 2.10462 10.2796 2.02513 10.221 1.96653C10.1624 1.90792 10.0829 1.875 10 1.875C9.91712 1.875 9.83763 1.90792 9.77903 1.96653C9.72042 2.02513 9.6875 2.10462 9.6875 2.1875V5.14375L9.83125 5.05C9.8816 5.01769 9.94017 5.00052 10 5.00052C10.0598 5.00052 10.1184 5.01769 10.1688 5.05Z" fill="#2C79FF"/>
</svg>
