<svg width="38" height="38" viewBox="0 0 38 38" fill="none" xmlns="http://www.w3.org/2000/svg">
<path fill-rule="evenodd" clip-rule="evenodd" d="M19.0002 3.16699C12.0046 3.16699 6.3335 8.93964 6.3335 16.0606C6.3335 23.1257 10.3763 31.37 16.6839 34.3181C18.1542 35.0055 19.8461 35.0055 21.3164 34.3181C27.6241 31.37 31.6668 23.1257 31.6668 16.0606C31.6668 8.93964 25.9958 3.16699 19.0002 3.16699ZM23.7502 15.8337C23.7502 18.457 21.6235 20.5837 19.0002 20.5837C16.3768 20.5837 14.2502 18.457 14.2502 15.8337C14.2502 13.2103 16.3768 11.0837 19.0002 11.0837C21.6235 11.0837 23.7502 13.2103 23.7502 15.8337Z" fill="#010F2E"/>
</svg>
