<svg width="38" height="38" viewBox="0 0 38 38" fill="none" xmlns="http://www.w3.org/2000/svg">
<path d="M19.6743 3.79405C19.4828 3.64099 19.2449 3.55762 18.9998 3.55762C18.7546 3.55762 18.5167 3.64099 18.3252 3.79405L11.1455 9.53807C10.9724 9.67712 10.8464 9.86612 10.7845 10.0793C10.7227 10.2926 10.728 10.5197 10.7997 10.7298C10.8748 10.9414 11.0128 11.1249 11.1952 11.2557C11.3776 11.3865 11.5957 11.4583 11.8201 11.4615H12.1783V33.0019C12.1799 33.3825 12.3319 33.7469 12.6011 34.0158C12.8703 34.2847 13.2349 34.4363 13.6154 34.4376H16.8463C17.1329 34.4376 17.4078 34.3237 17.6104 34.1211C17.8131 33.9184 17.9269 33.6436 17.9269 33.357V27.9757C17.9269 27.6891 18.0407 27.4143 18.2434 27.2117C18.446 27.009 18.7209 26.8952 19.0075 26.8952C19.2941 26.8952 19.5689 27.009 19.7716 27.2117C19.9742 27.4143 20.088 27.6891 20.088 27.9757V33.357C20.088 33.6436 20.2019 33.9184 20.4045 34.1211C20.6072 34.3237 20.882 34.4376 21.1686 34.4376H24.3995C24.78 34.4363 25.1447 34.2847 25.4139 34.0158C25.6831 33.7469 25.8351 33.3825 25.8367 33.0019V11.4615H26.1948C26.4193 11.4583 26.6374 11.3865 26.8198 11.2557C27.0022 11.1249 27.1402 10.9414 27.2152 10.7298C27.287 10.5197 27.2923 10.2926 27.2304 10.0793C27.1685 9.86612 27.0425 9.67712 26.8694 9.53807L19.6743 3.79405ZM22.1334 17.823C21.9931 18.3785 21.7081 18.8869 21.3074 19.2965C20.9067 19.706 20.4046 20.002 19.8523 20.1544C19.3 20.3067 18.7171 20.31 18.1631 20.1638C17.6091 20.0176 17.1038 19.7271 16.6985 19.3221C16.2933 18.917 16.0027 18.4118 15.8563 17.8578C15.7098 17.3039 15.7128 16.721 15.865 16.1686C16.0171 15.6162 16.3129 15.114 16.7223 14.7132C17.1317 14.3123 17.64 14.0271 18.1955 13.8866C18.7405 13.7412 19.314 13.7416 19.8588 13.8879C20.4035 14.0341 20.9002 14.3209 21.2991 14.7197C21.698 15.1184 21.9851 15.615 22.1315 16.1597C22.2779 16.7044 22.2786 17.278 22.1334 17.823ZM20.0803 17.0187C20.0803 17.2324 20.017 17.4414 19.8982 17.6191C19.7795 17.7968 19.6107 17.9353 19.4133 18.017C19.2158 18.0988 18.9986 18.1202 18.7889 18.0785C18.5793 18.0368 18.3868 17.9339 18.2357 17.7828C18.0846 17.6317 17.9816 17.4391 17.9399 17.2295C17.8982 17.0199 17.9196 16.8027 18.0014 16.6052C18.0832 16.4078 18.2217 16.239 18.3994 16.1203C18.5771 16.0015 18.786 15.9381 18.9998 15.9381C19.2863 15.9381 19.5612 16.052 19.7638 16.2546C19.9665 16.4573 20.0803 16.7321 20.0803 17.0187ZM31.2087 15.0444H29.4103C29.2216 15.0444 29.0348 15.0815 28.8606 15.1538C28.6863 15.226 28.528 15.3319 28.3946 15.4654C28.2613 15.5989 28.1556 15.7573 28.0835 15.9317C28.0115 16.106 27.9745 16.2929 27.9747 16.4815V32.9989C27.9747 33.3791 28.1255 33.7438 28.3941 34.0129C28.6626 34.282 29.027 34.4337 29.4072 34.4345H31.6193C32.3642 34.4357 33.0791 34.1414 33.6073 33.6161C34.1354 33.0909 34.4337 32.3776 34.4365 31.6327V18.2753C34.4365 17.4184 34.0961 16.5966 33.4902 15.9907C32.8843 15.3848 32.0625 15.0444 31.2056 15.0444H31.2087ZM32.1858 24.7371C32.1858 25.0237 32.072 25.2985 31.8693 25.5012C31.6667 25.7038 31.3918 25.8177 31.1053 25.8177C30.8187 25.8177 30.5438 25.7038 30.3412 25.5012C30.1385 25.2985 30.0247 25.0237 30.0247 24.7371V20.4302C30.0247 20.2883 30.0526 20.1478 30.1069 20.0167C30.1612 19.8856 30.2408 19.7665 30.3412 19.6662C30.4415 19.5658 30.5606 19.4862 30.6917 19.4319C30.8228 19.3776 30.9634 19.3497 31.1053 19.3497C31.2472 19.3497 31.3877 19.3776 31.5188 19.4319C31.6499 19.4862 31.769 19.5658 31.8693 19.6662C31.9697 19.7665 32.0493 19.8856 32.1036 20.0167C32.1579 20.1478 32.1858 20.2883 32.1858 20.4302V24.7371ZM8.58921 15.0444H6.79391C5.93702 15.0444 5.11523 15.3848 4.50931 15.9907C3.9034 16.5966 3.563 17.4184 3.563 18.2753V31.6142C3.56198 31.9846 3.63406 32.3516 3.77511 32.6941C3.91615 33.0366 4.12339 33.3479 4.38495 33.6101C4.64651 33.8724 4.95725 34.0805 5.29937 34.2225C5.64149 34.3645 6.00825 34.4376 6.37866 34.4376H8.58921C8.96996 34.4376 9.33511 34.2863 9.60434 34.0171C9.87357 33.7478 10.0248 33.3827 10.0248 33.0019V16.4846C10.0254 16.2957 9.98875 16.1085 9.91688 15.9338C9.845 15.7591 9.73935 15.6003 9.60598 15.4665C9.47261 15.3327 9.31415 15.2265 9.13967 15.1541C8.96519 15.0816 8.77812 15.0444 8.58921 15.0444ZM7.97174 24.7309C7.98437 24.88 7.96591 25.03 7.91754 25.1716C7.86916 25.3132 7.79192 25.4431 7.69071 25.5533C7.58949 25.6634 7.46651 25.7514 7.32955 25.8115C7.19258 25.8717 7.04462 25.9027 6.89502 25.9027C6.74543 25.9027 6.59747 25.8717 6.4605 25.8115C6.32353 25.7514 6.20055 25.6634 6.09934 25.5533C5.99812 25.4431 5.92088 25.3132 5.87251 25.1716C5.82413 25.03 5.80568 24.88 5.81831 24.7309V20.4225C5.80568 20.2735 5.82413 20.1234 5.87251 19.9819C5.92088 19.8403 5.99812 19.7103 6.09934 19.6002C6.20055 19.49 6.32353 19.4021 6.4605 19.3419C6.59747 19.2818 6.74543 19.2507 6.89502 19.2507C7.04462 19.2507 7.19258 19.2818 7.32955 19.3419C7.46651 19.4021 7.58949 19.49 7.69071 19.6002C7.79192 19.7103 7.86916 19.8403 7.91754 19.9819C7.96591 20.1234 7.98437 20.2735 7.97174 20.4225V24.7309Z" fill="#010F2E"/>
</svg>
