<svg width="38" height="38" viewBox="0 0 38 38" fill="none" xmlns="http://www.w3.org/2000/svg">
<path d="M17.4167 20.715V17.5483C15.4265 17.7242 13.3154 18.3674 11.0833 19.478V22.5292C13.3374 21.4736 15.4485 20.8689 17.4167 20.715ZM17.4167 13.8209V10.5717C15.5255 10.6597 13.4144 11.3524 11.0833 12.6498V15.767C13.4473 14.5465 15.5584 13.8978 17.4167 13.8209ZM31.1389 21.4571V18.4224C28.555 19.6979 26.4439 20.0882 24.8056 19.5934V15.899C24.5856 15.833 24.3712 15.7505 24.1623 15.6516C24.1073 15.6186 23.9259 15.5251 23.6181 15.3712C23.3102 15.2173 23.1205 15.1238 23.049 15.0908C22.9776 15.0578 22.8044 14.9754 22.5295 14.8434C22.2546 14.7115 22.065 14.6263 21.9605 14.5878C21.856 14.5493 21.6774 14.4778 21.4245 14.3734C21.1716 14.2689 20.9737 14.2002 20.8307 14.1672C20.6878 14.1342 20.4954 14.0875 20.2535 14.027C20.0116 13.9665 19.7944 13.9253 19.602 13.9033C19.4096 13.8813 19.1924 13.8593 18.9505 13.8373C18.7086 13.8154 18.4667 13.8044 18.2248 13.8044C17.9719 13.8044 17.7025 13.8209 17.4167 13.8538V17.5153H17.73C18.8516 17.5153 19.9099 17.6747 20.9049 17.9936C21.9 18.3125 22.9858 18.7633 24.1623 19.346C24.3712 19.445 24.5856 19.5275 24.8056 19.5934V22.6941C25.2674 22.881 25.7677 22.9745 26.3064 22.9745C27.6259 22.9745 29.2367 22.4687 31.1389 21.4571ZM31.1389 14.4146V11.2974C29.2807 12.298 27.5984 12.7983 26.092 12.7983C25.5972 12.7983 25.1684 12.7543 24.8056 12.6663V15.899C26.4329 16.3608 28.544 15.866 31.1389 14.4146ZM8.97222 8.44412C8.97222 8.82896 8.87601 9.18081 8.68359 9.49967C8.49117 9.81854 8.23553 10.0714 7.91667 10.2584V31.1386C7.91667 31.2925 7.86719 31.4189 7.76823 31.5179C7.66927 31.6169 7.54282 31.6663 7.38889 31.6663H6.33333C6.1794 31.6663 6.05295 31.6169 5.95399 31.5179C5.85503 31.4189 5.80556 31.2925 5.80556 31.1386V10.2584C5.48669 10.0714 5.23105 9.81854 5.03863 9.49967C4.84621 9.18081 4.75 8.82896 4.75 8.44412C4.75 7.86136 4.95616 7.36382 5.36849 6.9515C5.78082 6.53917 6.27836 6.33301 6.86111 6.33301C7.44387 6.33301 7.94141 6.53917 8.35373 6.9515C8.76606 7.36382 8.97222 7.86136 8.97222 8.44412ZM33.25 9.49967V22.0839C33.25 22.5127 33.0576 22.8261 32.6727 23.024C32.5628 23.079 32.4693 23.1284 32.3924 23.1724C29.9954 24.4479 27.9667 25.0856 26.3064 25.0856C25.3388 25.0856 24.4702 24.8932 23.7005 24.5084L23.2387 24.2775C22.535 23.9146 21.9907 23.6507 21.6059 23.4858C21.2211 23.3209 20.7208 23.1614 20.105 23.0075C19.4893 22.8535 18.8626 22.7766 18.2248 22.7766C17.1033 22.7766 15.8086 23.0185 14.3407 23.5023C12.8728 23.9861 11.6166 24.5468 10.572 25.1846C10.4071 25.2835 10.2257 25.333 10.0278 25.333C9.85185 25.333 9.67593 25.289 9.5 25.2011C9.14815 24.9921 8.97222 24.6843 8.97222 24.2775V12.0396C8.97222 11.6548 9.14265 11.3524 9.48351 11.1325C9.86835 10.9016 10.2999 10.6679 10.7782 10.4315C11.2565 10.1951 11.8832 9.90925 12.6584 9.57389C13.4336 9.23853 14.272 8.9664 15.1736 8.75749C16.0752 8.54857 16.9274 8.44412 17.73 8.44412C18.9615 8.44412 20.1105 8.61455 21.1771 8.9554C22.2436 9.29626 23.3927 9.76906 24.6241 10.3738C25.042 10.5827 25.5312 10.6872 26.092 10.6872C27.4334 10.6872 29.1377 10.0714 31.2049 8.83995C31.4468 8.70801 31.6172 8.61455 31.7161 8.55957C32.057 8.38364 32.3979 8.39464 32.7387 8.59256C33.0796 8.81246 33.25 9.11484 33.25 9.49967Z" fill="#010F2E"/>
</svg>
