<svg width="38" height="38" viewBox="0 0 38 38" fill="none" xmlns="http://www.w3.org/2000/svg">
<path d="M5.34375 33.25H4.15625C3.99878 33.25 3.84776 33.3126 3.73641 33.4239C3.62506 33.5353 3.5625 33.6863 3.5625 33.8438C3.5625 34.0012 3.62506 34.1522 3.73641 34.2636C3.84776 34.3749 3.99878 34.4375 4.15625 34.4375H11.2812V23.1562H5.34375V33.25ZM7.125 24.3438H9.5C9.65747 24.3438 9.8085 24.4063 9.91985 24.5177C10.0312 24.629 10.0938 24.78 10.0938 24.9375C10.0938 25.095 10.0312 25.246 9.91985 25.3573C9.8085 25.4687 9.65747 25.5312 9.5 25.5312H7.125C6.96753 25.5312 6.81651 25.4687 6.70516 25.3573C6.59381 25.246 6.53125 25.095 6.53125 24.9375C6.53125 24.78 6.59381 24.629 6.70516 24.5177C6.81651 24.4063 6.96753 24.3438 7.125 24.3438ZM7.125 27.3125H9.5C9.65747 27.3125 9.8085 27.3751 9.91985 27.4864C10.0312 27.5978 10.0938 27.7488 10.0938 27.9062C10.0938 28.0637 10.0312 28.2147 9.91985 28.3261C9.8085 28.4374 9.65747 28.5 9.5 28.5H7.125C6.96753 28.5 6.81651 28.4374 6.70516 28.3261C6.59381 28.2147 6.53125 28.0637 6.53125 27.9062C6.53125 27.7488 6.59381 27.5978 6.70516 27.4864C6.81651 27.3751 6.96753 27.3125 7.125 27.3125ZM7.125 30.2812H9.5C9.65747 30.2812 9.8085 30.3438 9.91985 30.4552C10.0312 30.5665 10.0938 30.7175 10.0938 30.875C10.0938 31.0325 10.0312 31.1835 9.91985 31.2948C9.8085 31.4062 9.65747 31.4688 9.5 31.4688H7.125C6.96753 31.4688 6.81651 31.4062 6.70516 31.2948C6.59381 31.1835 6.53125 31.0325 6.53125 30.875C6.53125 30.7175 6.59381 30.5665 6.70516 30.4552C6.81651 30.3438 6.96753 30.2812 7.125 30.2812ZM12.4688 33.25V34.4375H14.8438V29.0938C14.8438 28.6213 15.0314 28.1683 15.3655 27.8342C15.6995 27.5002 16.1526 27.3125 16.625 27.3125H21.375C21.8474 27.3125 22.3005 27.5002 22.6345 27.8342C22.9686 28.1683 23.1562 28.6213 23.1562 29.0938V34.4375H25.5312V17.8125H12.4688V33.25ZM19 20.7812C19.4697 20.7812 19.9289 20.9205 20.3195 21.1815C20.71 21.4425 21.0145 21.8134 21.1942 22.2474C21.374 22.6814 21.421 23.1589 21.3294 23.6196C21.2377 24.0803 21.0115 24.5035 20.6794 24.8356C20.3472 25.1678 19.924 25.394 19.4633 25.4856C19.0026 25.5773 18.5251 25.5302 18.0911 25.3505C17.6572 25.1707 17.2862 24.8663 17.0253 24.4757C16.7643 24.0852 16.625 23.626 16.625 23.1562C16.625 22.5264 16.8752 21.9223 17.3206 21.4769C17.766 21.0315 18.3701 20.7812 19 20.7812Z" fill="#010F2E"/>
<path d="M16.0312 29.0938V34.4375H18.4062V28.5H16.625C16.4675 28.5 16.3165 28.5626 16.2052 28.6739C16.0938 28.7853 16.0312 28.9363 16.0312 29.0938ZM21.375 28.5H19.5938V34.4375H21.9688V29.0938C21.9688 28.9363 21.9062 28.7853 21.7948 28.6739C21.6835 28.5626 21.5325 28.5 21.375 28.5Z" fill="#010F2E"/>
<path d="M19 24.3438C19.6558 24.3438 20.1875 23.8121 20.1875 23.1562C20.1875 22.5004 19.6558 21.9688 19 21.9688C18.3442 21.9688 17.8125 22.5004 17.8125 23.1562C17.8125 23.8121 18.3442 24.3438 19 24.3438Z" fill="#010F2E"/>
<path d="M33.8438 33.25H32.6562V22.5625H26.7188V34.4375H33.8438C34.0012 34.4375 34.1522 34.3749 34.2636 34.2636C34.3749 34.1522 34.4375 34.0012 34.4375 33.8438C34.4375 33.6863 34.3749 33.5353 34.2636 33.4239C34.1522 33.3126 34.0012 33.25 33.8438 33.25ZM28.5 24.3438H30.875C31.0325 24.3438 31.1835 24.4063 31.2948 24.5177C31.4062 24.629 31.4688 24.78 31.4688 24.9375C31.4688 25.095 31.4062 25.246 31.2948 25.3573C31.1835 25.4687 31.0325 25.5312 30.875 25.5312H28.5C28.3425 25.5312 28.1915 25.4687 28.0802 25.3573C27.9688 25.246 27.9062 25.095 27.9062 24.9375C27.9062 24.78 27.9688 24.629 28.0802 24.5177C28.1915 24.4063 28.3425 24.3438 28.5 24.3438ZM28.5 27.3125H30.875C31.0325 27.3125 31.1835 27.3751 31.2948 27.4864C31.4062 27.5978 31.4688 27.7488 31.4688 27.9062C31.4688 28.0637 31.4062 28.2147 31.2948 28.3261C31.1835 28.4374 31.0325 28.5 30.875 28.5H28.5C28.3425 28.5 28.1915 28.4374 28.0802 28.3261C27.9688 28.2147 27.9062 28.0637 27.9062 27.9062C27.9062 27.7488 27.9688 27.5978 28.0802 27.4864C28.1915 27.3751 28.3425 27.3125 28.5 27.3125ZM28.5 30.2812H30.875C31.0325 30.2812 31.1835 30.3438 31.2948 30.4552C31.4062 30.5665 31.4688 30.7175 31.4688 30.875C31.4688 31.0325 31.4062 31.1835 31.2948 31.2948C31.1835 31.4062 31.0325 31.4688 30.875 31.4688H28.5C28.3425 31.4688 28.1915 31.4062 28.0802 31.2948C27.9688 31.1835 27.9062 31.0325 27.9062 30.875C27.9062 30.7175 27.9688 30.5665 28.0802 30.4552C28.1915 30.3438 28.3425 30.2812 28.5 30.2812ZM26.7188 19.5938H33.25V21.375H26.7188V19.5938ZM4.75 20.1875H11.2812V21.9688H4.75V20.1875ZM26.7188 15.7641L19 10.8003L11.2812 15.7641V16.625H26.7188V15.7641ZM19.3206 9.595L19.5938 9.77312V7.71875H23.75V4.15625H19.5938C19.5938 3.99878 19.5312 3.84776 19.4198 3.73641C19.3085 3.62506 19.1575 3.5625 19 3.5625C18.8425 3.5625 18.6915 3.62506 18.5802 3.73641C18.4688 3.84776 18.4062 3.99878 18.4062 4.15625V9.77312L18.6794 9.595C18.775 9.53362 18.8863 9.50099 19 9.50099C19.1137 9.50099 19.225 9.53362 19.3206 9.595Z" fill="#010F2E"/>
</svg>
