<svg width="20" height="20" viewBox="0 0 20 20" fill="none" xmlns="http://www.w3.org/2000/svg">
<path d="M1.6665 9.99967C1.6665 6.85697 1.6665 5.28563 2.64281 4.30932C3.61913 3.33301 5.19047 3.33301 8.33317 3.33301H11.6665C14.8092 3.33301 16.3806 3.33301 17.3568 4.30932C18.3332 5.28563 18.3332 6.85697 18.3332 9.99967V11.6663C18.3332 14.809 18.3332 16.3804 17.3568 17.3567C16.3806 18.333 14.8092 18.333 11.6665 18.333H8.33317C5.19047 18.333 3.61913 18.333 2.64281 17.3567C1.6665 16.3804 1.6665 14.809 1.6665 11.6663V9.99967Z" stroke="#2C79FF" stroke-width="1.5"/>
<path d="M5.8335 3.33301V2.08301" stroke="#2C79FF" stroke-width="1.5" stroke-linecap="round"/>
<path d="M14.1665 3.33301V2.08301" stroke="#2C79FF" stroke-width="1.5" stroke-linecap="round"/>
<path d="M2.0835 7.5H17.9168" stroke="#2C79FF" stroke-width="1.5" stroke-linecap="round"/>
<path d="M15.0002 14.1663C15.0002 14.6266 14.6271 14.9997 14.1668 14.9997C13.7066 14.9997 13.3335 14.6266 13.3335 14.1663C13.3335 13.7061 13.7066 13.333 14.1668 13.333C14.6271 13.333 15.0002 13.7061 15.0002 14.1663Z" fill="#2C79FF"/>
<path d="M15.0002 10.8333C15.0002 11.2936 14.6271 11.6667 14.1668 11.6667C13.7066 11.6667 13.3335 11.2936 13.3335 10.8333C13.3335 10.3731 13.7066 10 14.1668 10C14.6271 10 15.0002 10.3731 15.0002 10.8333Z" fill="#2C79FF"/>
<path d="M10.8332 14.1663C10.8332 14.6266 10.4601 14.9997 9.99984 14.9997C9.53959 14.9997 9.1665 14.6266 9.1665 14.1663C9.1665 13.7061 9.53959 13.333 9.99984 13.333C10.4601 13.333 10.8332 13.7061 10.8332 14.1663Z" fill="#2C79FF"/>
<path d="M10.8332 10.8333C10.8332 11.2936 10.4601 11.6667 9.99984 11.6667C9.53959 11.6667 9.1665 11.2936 9.1665 10.8333C9.1665 10.3731 9.53959 10 9.99984 10C10.4601 10 10.8332 10.3731 10.8332 10.8333Z" fill="#2C79FF"/>
<path d="M6.66667 14.1663C6.66667 14.6266 6.29357 14.9997 5.83333 14.9997C5.3731 14.9997 5 14.6266 5 14.1663C5 13.7061 5.3731 13.333 5.83333 13.333C6.29357 13.333 6.66667 13.7061 6.66667 14.1663Z" fill="#2C79FF"/>
<path d="M6.66667 10.8333C6.66667 11.2936 6.29357 11.6667 5.83333 11.6667C5.3731 11.6667 5 11.2936 5 10.8333C5 10.3731 5.3731 10 5.83333 10C6.29357 10 6.66667 10.3731 6.66667 10.8333Z" fill="#2C79FF"/>
</svg>
