<svg width="20" height="20" viewBox="0 0 20 20" fill="none" xmlns="http://www.w3.org/2000/svg">
<path d="M10.0002 13.3337C5.20026 13.3337 4.34994 8.54991 4.19931 4.75572C4.15741 3.70031 4.13646 3.1726 4.53289 2.68435C4.92931 2.19611 5.40379 2.11605 6.35273 1.95594C7.28945 1.7979 8.51391 1.66699 10.0002 1.66699C11.4865 1.66699 12.711 1.7979 13.6477 1.95594C14.5967 2.11605 15.0711 2.19611 15.4675 2.68435C15.864 3.1726 15.843 3.70031 15.8011 4.75572C15.6505 8.54991 14.8002 13.3337 10.0002 13.3337Z" stroke="#2C79FF" stroke-width="1.5"/>
<path d="M15.8335 4.16699L16.624 4.4305C17.4491 4.70552 17.8616 4.84303 18.0975 5.17039C18.3335 5.49776 18.3335 5.9326 18.3334 6.80228V6.86272C18.3334 7.58 18.3334 7.93864 18.1607 8.23207C17.9881 8.52549 17.6746 8.69966 17.0476 9.04799L14.5835 10.417" stroke="#2C79FF" stroke-width="1.5"/>
<path d="M4.16645 4.16699L3.37594 4.4305C2.55089 4.70552 2.13836 4.84303 1.90242 5.17039C1.66647 5.49776 1.66648 5.9326 1.6665 6.80228V6.86272C1.66653 7.58 1.66654 7.93864 1.8392 8.23207C2.01185 8.52549 2.32536 8.69966 2.95238 9.04799L5.41645 10.417" stroke="#2C79FF" stroke-width="1.5"/>
<path d="M10 14.167V15.8337" stroke="#2C79FF" stroke-width="1.5" stroke-linecap="round"/>
<path d="M12.9168 18.3333H7.0835L7.36618 16.9199C7.44409 16.5304 7.7861 16.25 8.18333 16.25H11.817C12.2142 16.25 12.5562 16.5304 12.6342 16.9199L12.9168 18.3333Z" stroke="#2C79FF" stroke-width="1.5" stroke-linecap="round" stroke-linejoin="round"/>
<path d="M15 18.333H5" stroke="#2C79FF" stroke-width="1.5" stroke-linecap="round"/>
</svg>
