<svg width="20" height="20" viewBox="0 0 20 20" fill="none" xmlns="http://www.w3.org/2000/svg">
<path d="M8.5835 10.9158C8.7161 10.9158 8.84328 10.8607 8.93705 10.7625C9.03082 10.6642 9.0835 10.531 9.0835 10.3921C9.0835 10.2532 9.03082 10.12 8.93705 10.0218C8.84328 9.92362 8.7161 9.86844 8.5835 9.86844C8.09309 9.87567 7.60714 9.77029 7.15979 9.5597C7.66739 8.97555 8.03563 8.27375 8.23434 7.51179H8.5835C8.7161 7.51179 8.84328 7.45662 8.93705 7.3584C9.03082 7.26019 9.0835 7.12699 9.0835 6.98809C9.0835 6.8492 9.03082 6.71599 8.93705 6.61778C8.84328 6.51957 8.7161 6.46439 8.5835 6.46439H6.8335V5.94069C6.8335 5.8018 6.78082 5.66859 6.68705 5.57038C6.59328 5.47217 6.4661 5.41699 6.3335 5.41699C6.20089 5.41699 6.07371 5.47217 5.97994 5.57038C5.88617 5.66859 5.8335 5.8018 5.8335 5.94069V6.46439H4.0835C3.95089 6.46439 3.82371 6.51957 3.72994 6.61778C3.63617 6.71599 3.5835 6.8492 3.5835 6.98809C3.5835 7.12699 3.63617 7.26019 3.72994 7.3584C3.82371 7.45662 3.95089 7.51179 4.0835 7.51179H7.1825C7.005 8.05144 6.71602 8.54342 6.33617 8.95267C6.08649 8.68864 5.8768 8.38621 5.71436 8.05583C5.68415 7.99468 5.64272 7.94037 5.59245 7.89601C5.54218 7.85165 5.48405 7.81811 5.42139 7.7973C5.35873 7.7765 5.29276 7.76884 5.22727 7.77477C5.16178 7.78069 5.09805 7.80009 5.03973 7.83185C4.9814 7.8636 4.92963 7.90709 4.88737 7.95983C4.84511 8.01257 4.81319 8.07351 4.79345 8.13919C4.7737 8.20486 4.76652 8.27396 4.7723 8.34255C4.77808 8.41113 4.79672 8.47785 4.82715 8.53888C5.00892 8.90882 5.23536 9.25275 5.5009 9.56219C5.05554 9.77173 4.57167 9.87628 4.0835 9.86844C3.95089 9.86844 3.82371 9.92362 3.72994 10.0218C3.63617 10.12 3.5835 10.2532 3.5835 10.3921C3.5835 10.531 3.63617 10.6642 3.72994 10.7625C3.82371 10.8607 3.95089 10.9158 4.0835 10.9158C4.8727 10.9315 5.65004 10.7131 6.32579 10.2858C7.00587 10.7164 7.78905 10.9349 8.5835 10.9158Z" fill="#2C79FF"/>
<path d="M18.5939 6.69314H12.8647C12.7128 6.69314 12.5671 6.75373 12.4596 6.8616C12.3522 6.96946 12.2918 7.11576 12.2918 7.2683C12.2918 7.42084 12.3522 7.56714 12.4596 7.675C12.5671 7.78287 12.7128 7.84346 12.8647 7.84346H18.021V16.1833H9.84151L11.6434 13.0177C11.6895 12.9295 11.7154 12.8319 11.7189 12.7324V3.24216C11.7189 3.08962 11.6585 2.94332 11.5511 2.83546C11.4437 2.7276 11.2979 2.667 11.146 2.66699H1.40641C1.25447 2.667 1.10875 2.7276 1.00131 2.83546C0.893867 2.94332 0.833504 3.08962 0.833496 3.24216V12.7324C0.833504 12.8849 0.893867 13.0312 1.00131 13.139C1.10875 13.2469 1.25447 13.3075 1.40641 13.3075H8.28141V16.7585C8.28379 16.9104 8.34499 17.0554 8.45203 17.1627C8.55907 17.2701 8.70354 17.3314 8.85484 17.3337H18.5939C18.7459 17.3337 18.8916 17.2731 18.999 17.1652C19.1065 17.0573 19.1668 16.911 19.1668 16.7585V7.2683C19.1668 7.11576 19.1065 6.96947 18.999 6.86161C18.8916 6.75374 18.7459 6.69314 18.5939 6.69314ZM1.97933 3.81732H10.5731V12.1572H1.97933V3.81732ZM10.1588 13.3075L9.42725 14.5928V13.3075H10.1588Z" fill="#2C79FF"/>
<path d="M13.667 12.5212V14.1253C13.667 14.2469 13.7084 14.3635 13.7821 14.4494C13.8557 14.5354 13.9557 14.5837 14.0598 14.5837C14.164 14.5837 14.264 14.5354 14.3376 14.4494C14.4113 14.3635 14.4527 14.2469 14.4527 14.1253V13.667H15.6313V14.1253C15.6313 14.2469 15.6727 14.3635 15.7463 14.4494C15.82 14.5354 15.9199 14.5837 16.0241 14.5837C16.1283 14.5837 16.2283 14.5354 16.3019 14.4494C16.3756 14.3635 16.417 14.2469 16.417 14.1253V12.5212C16.417 12.0957 16.2721 11.6877 16.0143 11.3868C15.7564 11.086 15.4067 10.917 15.042 10.917C14.6773 10.917 14.3276 11.086 14.0697 11.3868C13.8119 11.6877 13.667 12.0957 13.667 12.5212ZM15.042 11.8337C15.1982 11.8339 15.348 11.9064 15.4585 12.0352C15.569 12.1641 15.6311 12.3389 15.6313 12.5212V12.7503H14.4527V12.5212C14.4529 12.3389 14.515 12.1641 14.6255 12.0352C14.736 11.9064 14.8858 11.8339 15.042 11.8337Z" fill="#2C79FF"/>
<path d="M14.5837 10.0003C15.0899 10.0003 15.5003 9.58992 15.5003 9.08366C15.5003 8.5774 15.0899 8.16699 14.5837 8.16699C14.0774 8.16699 13.667 8.5774 13.667 9.08366C13.667 9.58992 14.0774 10.0003 14.5837 10.0003Z" fill="#2C79FF"/>
</svg>
