<svg width="20" height="20" viewBox="0 0 20 20" fill="none" xmlns="http://www.w3.org/2000/svg">
<path d="M3.3335 8.45308C3.3335 4.70523 6.31826 1.66699 10.0002 1.66699C13.6821 1.66699 16.6668 4.70523 16.6668 8.45308C16.6668 12.1716 14.5391 16.5107 11.2192 18.0623C10.4454 18.4241 9.55491 18.4241 8.78108 18.0623C5.46126 16.5107 3.3335 12.1716 3.3335 8.45308Z" stroke="#2C79FF" stroke-width="1.5"/>
<path d="M10 10.833C11.3807 10.833 12.5 9.71372 12.5 8.33301C12.5 6.9523 11.3807 5.83301 10 5.83301C8.61929 5.83301 7.5 6.9523 7.5 8.33301C7.5 9.71372 8.61929 10.833 10 10.833Z" stroke="#2C79FF" stroke-width="1.5"/>
</svg>
