<svg width="20" height="20" viewBox="0 0 20 20" fill="none" xmlns="http://www.w3.org/2000/svg">
<path d="M14.5811 15.4046L17.1899 7.57843C18.2302 4.45761 18.7503 2.89719 17.9267 2.07351C17.1029 1.24982 15.5424 1.76996 12.4215 2.81023L4.64548 5.40214C2.91063 5.98041 2.04319 6.26953 1.7799 6.90563C1.71802 7.05513 1.6806 7.21363 1.66909 7.37502C1.62011 8.0617 2.26665 8.70824 3.55974 10.0012L3.79526 10.2367C4.00751 10.449 4.11363 10.5552 4.19385 10.6732C4.35208 10.9062 4.44188 11.1789 4.45311 11.4602C4.4588 11.603 4.43653 11.7514 4.39198 12.0482C4.2289 13.1347 4.14736 13.6779 4.24342 14.0959C4.43488 14.9292 5.07983 15.5832 5.91031 15.7864C6.32696 15.8883 6.8713 15.8145 7.96 15.6667L8.01953 15.6587C8.32643 15.617 8.47992 15.5962 8.62725 15.6051C8.89467 15.6212 9.153 15.7083 9.37567 15.8574C9.49825 15.9396 9.60775 16.0491 9.82675 16.2681L10.0362 16.4774C11.2948 17.736 11.924 18.3652 12.5916 18.3324C12.7756 18.3234 12.9564 18.2807 13.1251 18.2065C13.7368 17.9373 14.0183 17.0931 14.5811 15.4046Z" stroke="#2C79FF" stroke-width="1.5"/>
<path d="M5 15L17.5 2.5" stroke="#2C79FF" stroke-width="1.5" stroke-linecap="round"/>
</svg>
