<svg width="20" height="20" viewBox="0 0 20 20" fill="none" xmlns="http://www.w3.org/2000/svg">
<g clip-path="url(#clip0_77_14703)">
<path d="M9.99984 18.3337C14.6022 18.3337 18.3332 14.6027 18.3332 10.0003C18.3332 5.39795 14.6022 1.66699 9.99984 1.66699C5.39746 1.66699 1.6665 5.39795 1.6665 10.0003C1.6665 14.6027 5.39746 18.3337 9.99984 18.3337Z" stroke="#2C79FF" stroke-width="1.5" stroke-linecap="round" stroke-linejoin="round"/>
<path d="M9.99984 15.0003C12.7613 15.0003 14.9998 12.7617 14.9998 10.0003C14.9998 7.2389 12.7613 5.00033 9.99984 5.00033C7.23841 5.00033 4.99984 7.2389 4.99984 10.0003C4.99984 12.7617 7.23841 15.0003 9.99984 15.0003Z" stroke="#2C79FF" stroke-width="1.5" stroke-linecap="round" stroke-linejoin="round"/>
<path d="M9.99984 11.667C10.9203 11.667 11.6665 10.9208 11.6665 10.0003C11.6665 9.07985 10.9203 8.33366 9.99984 8.33366C9.07936 8.33366 8.33317 9.07985 8.33317 10.0003C8.33317 10.9208 9.07936 11.667 9.99984 11.667Z" stroke="#2C79FF" stroke-width="1.5" stroke-linecap="round" stroke-linejoin="round"/>
</g>
<defs>
<clipPath id="clip0_77_14703">
<rect width="20" height="20" fill="white"/>
</clipPath>
</defs>
</svg>
