<svg width="32" height="33" viewBox="0 0 32 33" fill="none" xmlns="http://www.w3.org/2000/svg">
<path d="M25.2836 17.2285H24.666C24.3052 14.796 22.2857 12.8755 19.7569 12.5806C20.829 11.5847 21.4977 10.1839 21.4977 8.63477C21.4977 5.61929 18.9649 3.16602 15.8518 3.16602C12.7388 3.16602 10.2061 5.61929 10.2061 8.63477C10.2061 10.184 10.8747 11.5847 11.9469 12.5806C9.41807 12.8755 7.39859 14.796 7.03774 17.2285H6.42014C4.94648 17.2285 3.81705 18.4948 4.02466 19.9026L5.3747 29.1607C5.4309 29.5461 5.77147 29.8327 6.17335 29.8327H25.5304C25.9323 29.8327 26.2729 29.5461 26.3291 29.1607L27.679 19.9037C27.8872 18.4918 26.7545 17.2285 25.2836 17.2285ZM11.8191 8.63477C11.8191 6.48086 13.6282 4.72852 15.8518 4.72852C18.0755 4.72852 19.8845 6.48086 19.8845 8.63477C19.8845 10.7887 18.0755 12.541 15.8518 12.541C13.6282 12.541 11.8191 10.7887 11.8191 8.63477ZM12.6257 14.1035H19.078C21.0255 14.1035 22.655 15.4477 23.0297 17.2285H8.674C9.04873 15.4477 10.6782 14.1035 12.6257 14.1035ZM26.0819 19.684L24.8297 28.2702H6.87396L5.62173 19.6827C5.55214 19.2116 5.92788 18.791 6.42014 18.791C6.64308 18.791 25.1903 18.791 25.2836 18.791C25.7753 18.791 26.1517 19.2105 26.0819 19.684Z" fill="#201E1A"/>
<path d="M15.852 22.4258C14.2182 22.4258 12.8889 23.4226 12.8889 24.648C12.8889 25.8734 14.2182 26.8702 15.852 26.8702C17.4857 26.8702 18.8148 25.8734 18.8148 24.648C18.8148 23.4226 17.4857 22.4258 15.852 22.4258ZM15.852 25.3888C15.3074 25.3888 14.8642 25.0565 14.8642 24.648C14.8642 24.2395 15.3074 23.9072 15.852 23.9072C16.3966 23.9072 16.8396 24.2395 16.8396 24.648C16.8396 25.0565 16.3966 25.3888 15.852 25.3888Z" fill="#201E1A"/>
</svg>
