<svg width="204" height="50" viewBox="0 0 204 50" fill="none" xmlns="http://www.w3.org/2000/svg">
<path d="M14.4432 39.4902C13.0968 39.4902 11.8116 39.223 10.6284 38.6681C9.44517 38.1337 8.38437 37.3732 7.48677 36.4073C6.58917 35.4413 5.87517 34.3314 5.36517 33.0777C4.85517 31.824 4.58997 30.4675 4.58997 29.0083C4.58997 27.549 4.85517 26.1925 5.36517 24.9388C5.87517 23.6851 6.58917 22.5547 7.48677 21.6092C8.38437 20.6638 9.44517 19.9034 10.6284 19.369C11.8116 18.8346 13.0968 18.5469 14.4432 18.5469C16.0752 18.5469 17.5644 18.9168 18.9312 19.6773C20.298 20.4377 21.42 21.4448 22.3176 22.6985L18.7884 24.61C18.258 23.9728 17.6052 23.459 16.8504 23.089C16.0956 22.7191 15.3 22.5136 14.4228 22.5136C13.6068 22.5136 12.852 22.678 12.138 23.0274C11.424 23.3562 10.7916 23.8289 10.2612 24.425C9.73077 25.021 9.30237 25.6993 8.99637 26.4803C8.69037 27.2613 8.54757 28.1039 8.54757 29.0083C8.54757 29.9126 8.69037 30.7347 8.99637 31.5157C9.30237 32.2967 9.73077 32.9955 10.2612 33.571C10.7916 34.167 11.424 34.6192 12.138 34.9686C12.852 35.318 13.6068 35.4824 14.4228 35.4824C15.3 35.4824 16.0956 35.2974 16.8504 34.9069C17.6052 34.5164 18.2376 34.0026 18.768 33.386L22.2972 35.318C21.3996 36.5717 20.2776 37.5788 18.9108 38.3392C17.5644 39.1202 16.0752 39.4902 14.4432 39.4902Z" fill="#201E1A"/>
<path d="M30.5184 39.4894C29.1924 39.4894 28.0092 39.14 26.928 38.4618C25.8468 37.7835 24.99 36.8586 24.3372 35.7077C23.6844 34.5567 23.3784 33.2824 23.3784 31.8849C23.3784 30.8367 23.562 29.8296 23.9292 28.9253C24.2964 28.0004 24.8064 27.1988 25.4592 26.5C26.112 25.8012 26.8668 25.2669 27.744 24.8558C28.6212 24.4653 29.5392 24.2598 30.5184 24.2598C31.8444 24.2598 33.0276 24.6092 34.1088 25.2874C35.19 25.9656 36.0468 26.8905 36.6996 28.0415C37.3524 29.1924 37.6584 30.4667 37.6584 31.8849C37.6584 32.933 37.4748 33.9196 37.1076 34.8239C36.7404 35.7282 36.2304 36.5503 35.5776 37.2491C34.9248 37.9479 34.17 38.4823 33.2928 38.8934C32.436 39.3044 31.518 39.4894 30.5184 39.4894ZM30.5184 35.5227C31.1304 35.5227 31.6812 35.3583 32.1708 35.0294C32.6604 34.7006 33.048 34.2484 33.3132 33.7141C33.5988 33.1591 33.7212 32.5631 33.7212 31.926C33.7212 31.2683 33.5784 30.6517 33.2928 30.0968C33.0072 29.5418 32.6196 29.1102 32.13 28.7814C31.6404 28.4525 31.11 28.2881 30.5184 28.2881C29.9268 28.2881 29.376 28.4525 28.8864 28.8019C28.3968 29.1308 28.0092 29.5829 27.744 30.1379C27.4584 30.6928 27.3156 31.2888 27.3156 31.9465C27.3156 32.6248 27.4584 33.2413 27.744 33.7757C28.0296 34.3101 28.4172 34.7417 28.9068 35.0705C29.3964 35.3583 29.9268 35.5227 30.5184 35.5227Z" fill="#201E1A"/>
<path d="M38.9027 33.8374V24.6914H42.8603V32.7481C42.8603 33.2619 42.9827 33.7141 43.2275 34.1251C43.4723 34.5362 43.7987 34.865 44.2067 35.0911C44.6147 35.3378 45.0635 35.4611 45.5531 35.4611C46.0427 35.4611 46.5119 35.3378 46.9199 35.0911C47.3279 34.8445 47.6543 34.5362 47.8991 34.1251C48.1439 33.7141 48.2663 33.2619 48.2663 32.7481V24.6914H52.2239L52.2443 39.1195H48.2867L48.2663 38.0302C47.7971 38.4823 47.2259 38.8523 46.5935 39.1195C45.9407 39.3867 45.2675 39.51 44.5535 39.51C43.5131 39.51 42.5747 39.2633 41.7383 38.7495C40.8815 38.2357 40.2083 37.5575 39.6983 36.7148C39.1679 35.8516 38.9027 34.8856 38.9027 33.8374Z" fill="#201E1A"/>
<path d="M55.08 39.4895L55.0596 25.0614H59.0172L59.0376 26.1302C59.5068 25.678 60.078 25.3081 60.7104 25.0409C61.3632 24.7737 62.0364 24.6504 62.7504 24.6504C63.2808 24.6504 63.7908 24.7326 64.3212 24.8765L62.7708 28.9048C62.424 28.761 62.0772 28.6787 61.7304 28.6787C61.2408 28.6787 60.7716 28.8021 60.3636 29.0487C59.9556 29.2953 59.6292 29.6036 59.3844 30.0147C59.1396 30.4257 59.0172 30.8779 59.0172 31.3917V39.469H55.08V39.4895Z" fill="#201E1A"/>
<path d="M69.9924 39.4687C69.258 39.4071 68.544 39.2632 67.8708 38.996C67.1976 38.7494 66.5856 38.4 66.0552 37.9478C65.5248 37.5162 65.1168 36.9819 64.8108 36.3653L68.136 34.9266C68.238 35.0704 68.4012 35.2554 68.6052 35.4198C68.8092 35.6048 69.0744 35.7487 69.3804 35.8926C69.6864 36.0364 70.0332 36.0981 70.4412 36.0981C70.7268 36.0981 71.0328 36.057 71.298 35.9953C71.5836 35.9131 71.808 35.8103 71.9712 35.6254C72.1344 35.461 72.2364 35.2349 72.2364 34.9471C72.2364 34.6388 72.1344 34.4128 71.91 34.2483C71.6856 34.0839 71.4204 33.9606 71.1144 33.8784C70.8084 33.7962 70.5024 33.7345 70.2168 33.6729C69.3396 33.529 68.5032 33.2412 67.728 32.8507C66.9528 32.4602 66.3204 31.9259 65.8308 31.3093C65.3412 30.6721 65.0964 29.9117 65.0964 29.0279C65.0964 28.0619 65.3412 27.2193 65.8512 26.5205C66.3612 25.8217 67.014 25.2668 67.83 24.8763C68.646 24.4858 69.5232 24.3008 70.4616 24.3008C71.5836 24.3008 72.6036 24.5269 73.5624 24.9996C74.5212 25.4723 75.276 26.13 75.8676 26.9932L72.7464 28.8635C72.624 28.6785 72.4608 28.5141 72.2568 28.3291C72.0528 28.1647 71.8284 28.0208 71.5836 27.8975C71.3388 27.7742 71.0532 27.7125 70.7676 27.692C70.4004 27.6714 70.0536 27.692 69.7476 27.7537C69.4416 27.8359 69.1968 27.9592 69.0336 28.1442C68.85 28.3291 68.7684 28.5963 68.7684 28.9252C68.7684 29.2335 68.9112 29.4801 69.1764 29.624C69.462 29.7678 69.768 29.8911 70.1352 29.9528C70.5024 30.035 70.8084 30.1172 71.094 30.1994C71.9304 30.4666 72.7056 30.816 73.44 31.2271C74.1744 31.6381 74.766 32.1519 75.2148 32.7685C75.6636 33.3646 75.8676 34.0839 75.8472 34.906C75.8472 35.8515 75.5616 36.6941 75.0108 37.4135C74.4396 38.1328 73.7256 38.6672 72.828 39.0371C71.9304 39.4071 70.992 39.551 69.9924 39.4687Z" fill="#201E1A"/>
<path d="M84.3336 39.4903C83.0076 39.4903 81.8244 39.1409 80.7432 38.4627C79.662 37.7844 78.8052 36.8596 78.1524 35.7086C77.4996 34.5576 77.1936 33.2834 77.1936 31.8858C77.1936 30.8376 77.3772 29.8511 77.7444 28.9467C78.1116 28.0219 78.6216 27.2203 79.2744 26.5215C79.9272 25.8227 80.682 25.2883 81.5592 24.8773C82.4364 24.4868 83.3544 24.2812 84.3336 24.2812C85.476 24.2812 86.5164 24.5279 87.4548 25.0211C88.3932 25.5144 89.1888 26.1721 89.8416 27.0353C90.4944 27.878 90.9636 28.844 91.2492 29.9127C91.5348 30.9815 91.5756 32.0913 91.392 33.2423H81.4572C81.5796 33.6739 81.7836 34.0438 82.0284 34.3932C82.2936 34.7426 82.62 35.0098 83.0076 35.2153C83.3952 35.4209 83.844 35.5236 84.354 35.5236C84.8436 35.5236 85.3128 35.4209 85.7208 35.1742C86.1492 34.9276 86.496 34.6193 86.802 34.2082L90.8412 35.1537C90.2496 36.428 89.3928 37.4761 88.23 38.2983C87.0672 39.0998 85.7616 39.4903 84.3336 39.4903ZM81.3144 30.3032H87.3936C87.2712 29.8305 87.0672 29.3989 86.7612 29.0084C86.4552 28.6179 86.1084 28.3301 85.7004 28.1041C85.2924 27.878 84.8436 27.7752 84.354 27.7752C83.8848 27.7752 83.436 27.878 83.0076 28.1041C82.5996 28.3301 82.2324 28.6179 81.9468 29.0084C81.6408 29.3783 81.4368 29.81 81.3144 30.3032Z" fill="#201E1A"/>
<path d="M130.274 45.7992H126.317V24.1571H130.274V25.7191C130.723 25.1436 131.274 24.6914 131.906 24.3215C132.539 23.9515 133.273 23.7871 134.11 23.7871C135.15 23.7871 136.129 23.9926 137.027 24.3831C137.945 24.7736 138.74 25.3286 139.434 26.0274C140.128 26.7262 140.658 27.5277 141.046 28.4526C141.433 29.3569 141.637 30.3435 141.637 31.3916C141.637 32.4398 141.433 33.4264 141.046 34.3512C140.658 35.2761 140.107 36.0777 139.434 36.7765C138.74 37.4753 137.945 38.0096 137.027 38.4207C136.109 38.8112 135.13 39.0167 134.11 39.0167C133.273 39.0167 132.539 38.8318 131.906 38.4618C131.274 38.0919 130.723 37.6397 130.274 37.0848V45.7992ZM134.048 27.6099C133.396 27.6099 132.824 27.7744 132.294 28.1238C131.764 28.4731 131.356 28.9253 131.07 29.4802C130.764 30.0557 130.621 30.6723 130.621 31.3711C130.621 32.0699 130.764 32.6865 131.07 33.262C131.376 33.8374 131.784 34.2896 132.294 34.6184C132.804 34.9473 133.396 35.1323 134.048 35.1323C134.701 35.1323 135.293 34.9678 135.823 34.6184C136.354 34.2896 136.782 33.8374 137.108 33.262C137.435 32.6865 137.598 32.0699 137.598 31.3505C137.598 30.6723 137.435 30.0352 137.129 29.4597C136.823 28.8842 136.394 28.432 135.844 28.0826C135.313 27.7744 134.701 27.6099 134.048 27.6099Z" fill="#201E1A"/>
<path d="M151.45 29.0479H148.879V39.4887H144.922V29.0479H142.943V25.0607H144.922V20.5391H148.879V25.0607H151.45V29.0479Z" fill="#201E1A"/>
<path d="M154.795 23.4169C154.224 23.4169 153.734 23.232 153.347 22.8415C152.959 22.451 152.755 21.9782 152.755 21.4233C152.755 20.8478 152.959 20.3751 153.347 20.0052C153.734 19.6147 154.224 19.4297 154.775 19.4297C155.346 19.4297 155.815 19.6147 156.203 20.0052C156.59 20.3957 156.774 20.8684 156.774 21.4233C156.774 21.9988 156.59 22.4715 156.203 22.8415C155.856 23.232 155.366 23.4169 154.795 23.4169ZM152.796 25.0817H156.754V39.5098H152.796V25.0817Z" fill="#201E1A"/>
<path d="M165.26 39.4894C163.934 39.4894 162.751 39.14 161.67 38.4618C160.589 37.7835 159.732 36.8586 159.079 35.7077C158.426 34.5567 158.12 33.2824 158.12 31.8849C158.12 30.8367 158.304 29.8296 158.671 28.9253C159.038 28.0004 159.548 27.1988 160.201 26.5C160.854 25.8012 161.609 25.2669 162.486 24.8558C163.363 24.4653 164.281 24.2598 165.26 24.2598C166.586 24.2598 167.77 24.6092 168.851 25.2874C169.932 25.9656 170.789 26.8905 171.442 28.0415C172.094 29.1924 172.4 30.4667 172.4 31.8849C172.4 32.933 172.217 33.9196 171.85 34.8239C171.482 35.7282 170.972 36.5503 170.32 37.2491C169.667 37.9479 168.912 38.4823 168.035 38.8934C167.178 39.3044 166.26 39.4894 165.26 39.4894ZM165.26 35.5227C165.872 35.5227 166.423 35.3583 166.913 35.0294C167.402 34.7006 167.79 34.2484 168.055 33.7141C168.341 33.1591 168.463 32.5631 168.463 31.926C168.463 31.2683 168.32 30.6517 168.035 30.0968C167.749 29.5418 167.362 29.1102 166.872 28.7814C166.382 28.4525 165.852 28.2881 165.26 28.2881C164.669 28.2881 164.118 28.4525 163.628 28.8019C163.139 29.1308 162.751 29.5829 162.486 30.1379C162.2 30.6928 162.058 31.2888 162.058 31.9465C162.058 32.6248 162.2 33.2413 162.486 33.7757C162.772 34.3101 163.159 34.7417 163.649 35.0705C164.159 35.3583 164.689 35.5227 165.26 35.5227Z" fill="#201E1A"/>
<path d="M187.048 30.323V39.4895H183.09V31.4123C183.09 30.8984 182.968 30.4463 182.723 30.0352C182.478 29.6242 182.152 29.2953 181.744 29.0692C181.336 28.8226 180.887 28.6993 180.397 28.6993C179.908 28.6993 179.438 28.8226 179.03 29.0692C178.622 29.3159 178.296 29.6242 178.051 30.0352C177.806 30.4463 177.684 30.8984 177.684 31.4123V39.4895H173.726L173.706 25.0614H177.684L177.704 26.1302C178.174 25.678 178.745 25.3081 179.377 25.0409C180.03 24.7737 180.703 24.6504 181.417 24.6504C182.458 24.6504 183.396 24.897 184.253 25.4108C185.089 25.9247 185.762 26.6029 186.272 27.4456C186.782 28.3293 187.048 29.2748 187.048 30.323Z" fill="#201E1A"/>
<path d="M193.514 39.4687C192.78 39.4071 192.066 39.2632 191.393 38.996C190.72 38.7494 190.108 38.4 189.577 37.9478C189.047 37.5162 188.639 36.9819 188.333 36.3653L191.658 34.9266C191.76 35.0704 191.923 35.2554 192.127 35.4198C192.331 35.6048 192.596 35.7487 192.902 35.8926C193.208 36.0364 193.555 36.0981 193.963 36.0981C194.249 36.0981 194.555 36.057 194.82 35.9953C195.106 35.9131 195.33 35.8103 195.493 35.6254C195.656 35.461 195.758 35.2349 195.758 34.9471C195.758 34.6388 195.656 34.4128 195.432 34.2483C195.208 34.0839 194.942 33.9606 194.636 33.8784C194.33 33.7962 194.024 33.7345 193.739 33.6729C192.862 33.529 192.025 33.2412 191.25 32.8507C190.475 32.4602 189.842 31.9259 189.353 31.3093C188.863 30.6721 188.618 29.9117 188.618 29.0279C188.618 28.0619 188.863 27.2193 189.373 26.5205C189.883 25.8217 190.536 25.2668 191.352 24.8763C192.168 24.4858 193.045 24.3008 193.984 24.3008C195.106 24.3008 196.126 24.5269 197.084 24.9996C198.043 25.4723 198.798 26.13 199.39 26.9932L196.268 28.8635C196.146 28.6785 195.983 28.5141 195.779 28.3291C195.575 28.1647 195.35 28.0208 195.106 27.8975C194.861 27.7742 194.575 27.7125 194.29 27.692C193.922 27.6714 193.576 27.692 193.27 27.7537C192.964 27.8359 192.719 27.9592 192.556 28.1442C192.372 28.3291 192.29 28.5963 192.29 28.9252C192.29 29.2335 192.433 29.4801 192.698 29.624C192.984 29.7678 193.29 29.8911 193.657 29.9528C194.024 30.035 194.33 30.1172 194.616 30.1994C195.452 30.4666 196.228 30.816 196.962 31.2271C197.696 31.6381 198.288 32.1519 198.737 32.7685C199.186 33.3646 199.39 34.0839 199.369 34.906C199.369 35.8515 199.084 36.6941 198.533 37.4135C197.962 38.1328 197.248 38.6672 196.35 39.0371C195.473 39.4071 194.514 39.551 193.514 39.4687Z" fill="#201E1A"/>
<path d="M96.4308 19.697C99.8376 17.1485 103.244 14.5794 106.672 12.0308C106.549 11.8458 106.386 11.5992 106.223 11.332C106.019 11.0032 105.774 10.6332 105.529 10.2222C104.693 8.86569 104.672 8.72182 104.448 8.57795C103.918 8.22855 103.224 8.37242 99.6336 10.0783C99.2052 10.2838 97.2264 11.2293 95.1864 12.8324C94.7376 13.1818 94.1256 13.6956 94.044 14.4355C93.9828 15.1137 94.3704 15.6276 94.7172 16.1414C94.9008 16.4291 95.1048 16.758 95.3292 17.1485C95.676 17.8062 96.0636 18.6488 96.4308 19.697Z" fill="#0052B4"/>
<path d="M85.0272 17.9706C88.4544 17.6829 91.8612 17.4157 95.2884 17.1279C95.064 16.7374 94.86 16.4086 94.6764 16.1209C94.3296 15.607 93.942 15.0932 94.0032 14.415C94.0848 13.6751 94.6968 13.1613 95.1456 12.8119C97.1856 11.2087 99.1644 10.2633 99.5928 10.0578C103.183 8.3519 103.877 8.20803 104.407 8.55743C104.652 8.72185 104.652 8.84517 105.488 10.2017C105.754 10.6127 105.978 10.9827 106.182 11.3115C109.568 8.18748 111.343 4.83737 112.22 2.84375C109.732 3.6042 106.998 4.303 104.02 4.91958C101.347 5.45396 98.838 5.84446 96.492 6.09109C95.3292 7.73532 93.9624 9.50286 92.31 11.291C89.8212 14.0861 87.2916 16.2853 85.0272 17.9706Z" fill="#201E1A"/>
<path d="M123.583 21.7327C122.767 19.6774 121.604 17.8688 120.136 16.3273C118.667 14.7653 116.974 13.5527 115.036 12.6689C113.098 11.7851 111.037 11.3535 108.814 11.3535C106.61 11.3535 104.55 11.7851 102.612 12.6689C100.674 13.5527 98.9807 14.7653 97.5119 16.3273C96.0431 17.8893 94.8803 19.698 94.0643 21.7327C93.2279 23.788 92.8199 25.9666 92.8199 28.3096C92.8199 30.6526 93.2279 32.8517 94.0643 34.8865C94.9007 36.9417 96.0431 38.7298 97.5119 40.2919C98.9807 41.8539 100.674 43.0665 102.612 43.9503C104.55 44.834 106.61 45.2656 108.814 45.2656C110.507 45.2656 112.118 44.9984 113.648 44.4846C115.688 45.2862 117.892 46.2727 119.83 47.1154C119.646 44.7518 119.422 43.1076 119.585 40.8262C119.768 40.6413 119.952 40.4563 120.136 40.2713C121.604 38.7093 122.747 36.9006 123.583 34.8659C124.42 32.8106 124.828 30.632 124.828 28.289C124.828 25.9666 124.42 23.788 123.583 21.7327ZM108.834 38.8326C107.528 38.8326 106.284 38.5654 105.121 38.0105C103.958 37.4556 102.938 36.6951 102.061 35.7497C101.184 34.7837 100.49 33.6739 99.9803 32.3996C99.4703 31.1253 99.2255 29.7688 99.2255 28.3096C99.2255 26.8503 99.4703 25.5144 99.9803 24.2401C100.49 22.9864 101.184 21.856 102.061 20.89C102.938 19.924 103.958 19.1636 105.121 18.6087C106.284 18.0537 107.528 17.7865 108.834 17.7865C110.14 17.7865 111.384 18.0743 112.547 18.6087C113.71 19.1636 114.73 19.924 115.607 20.8695C116.484 21.8149 117.178 22.9453 117.688 24.2196C118.198 25.4938 118.442 26.8503 118.442 28.289C118.442 29.7483 118.198 31.1048 117.688 32.3585C117.178 33.6122 116.484 34.7426 115.607 35.7086C114.73 36.6746 113.71 37.435 112.547 37.9899C111.384 38.5449 110.14 38.8326 108.834 38.8326Z" fill="#2C79FF"/>
</svg>
