<svg width="32" height="33" viewBox="0 0 32 33" fill="none" xmlns="http://www.w3.org/2000/svg">
<path d="M23.5103 14.0843C24.2367 15.5732 24.612 17.2088 24.6074 18.8654C24.6074 21.0351 23.964 23.1561 22.7585 24.9601C21.5531 26.7642 19.8398 28.1703 17.8352 29.0006C15.8307 29.8309 13.6249 30.0482 11.4969 29.6249C9.36883 29.2016 7.41411 28.1568 5.87988 26.6225C4.34566 25.0883 3.30084 23.1336 2.87754 21.0056C2.45425 18.8775 2.6715 16.6718 3.50182 14.6672C4.33213 12.6626 5.73823 10.9493 7.54228 9.74388C9.34634 8.53845 11.4673 7.89505 13.6371 7.89505C15.1476 7.89237 16.642 8.20451 18.0252 8.81157C18.1492 8.86123 18.2619 8.93528 18.3567 9.02933C18.4515 9.12338 18.5265 9.23552 18.5771 9.35909C18.6278 9.48265 18.6531 9.61514 18.6516 9.74867C18.6501 9.88221 18.6217 10.0141 18.5683 10.1365C18.5149 10.2589 18.4374 10.3693 18.3405 10.4611C18.2435 10.553 18.1292 10.6245 18.0041 10.6713C17.879 10.7182 17.7458 10.7394 17.6124 10.7338C17.479 10.7282 17.348 10.6958 17.2273 10.6386C16.0957 10.1419 14.8729 9.88685 13.6371 9.88966C11.8618 9.88966 10.1265 10.4161 8.65043 11.4023C7.17438 12.3886 6.02394 13.7904 5.34459 15.4305C4.66524 17.0706 4.48749 18.8753 4.83382 20.6164C5.18015 22.3576 6.035 23.9569 7.29028 25.2121C8.54555 26.4674 10.1449 27.3223 11.886 27.6686C13.6271 28.0149 15.4318 27.8372 17.0719 27.1578C18.712 26.4785 20.1138 25.328 21.1001 23.852C22.0864 22.376 22.6128 20.6406 22.6128 18.8654C22.6157 17.5111 22.3086 16.1742 21.7152 14.9569C21.5995 14.7189 21.5831 14.4446 21.6696 14.1945C21.7561 13.9443 21.9384 13.7388 22.1765 13.6231C22.4145 13.5073 22.6888 13.4909 22.9389 13.5774C23.1891 13.6639 23.3946 13.8463 23.5103 14.0843ZM13.6371 15.8735C13.9016 15.8735 14.1552 15.7684 14.3423 15.5814C14.5293 15.3943 14.6344 15.1407 14.6344 14.8762C14.6344 14.6117 14.5293 14.358 14.3423 14.171C14.1552 13.9839 13.9016 13.8789 13.6371 13.8789C12.6508 13.8789 11.6867 14.1713 10.8667 14.7192C10.0467 15.2672 9.40755 16.0459 9.03013 16.9571C8.65272 17.8683 8.55397 18.8709 8.74637 19.8382C8.93878 20.8055 9.4137 21.694 10.1111 22.3914C10.8084 23.0887 11.697 23.5636 12.6642 23.7561C13.6315 23.9485 14.6342 23.8497 15.5453 23.4723C16.4565 23.0949 17.2353 22.4557 17.7832 21.6357C18.3311 20.8157 18.6236 19.8516 18.6236 18.8654C18.6236 18.6009 18.5185 18.3472 18.3315 18.1602C18.1444 17.9731 17.8908 17.8681 17.6263 17.8681C17.3618 17.8681 17.1081 17.9731 16.9211 18.1602C16.734 18.3472 16.629 18.6009 16.629 18.8654C16.629 19.4571 16.4535 20.0356 16.1247 20.5276C15.796 21.0196 15.3287 21.4031 14.782 21.6295C14.2353 21.856 13.6337 21.9152 13.0534 21.7998C12.473 21.6843 11.9399 21.3994 11.5215 20.981C11.103 20.5625 10.8181 20.0294 10.7026 19.4491C10.5872 18.8687 10.6465 18.2671 10.8729 17.7204C11.0994 17.1737 11.4828 16.7064 11.9748 16.3777C12.4669 16.0489 13.0453 15.8735 13.6371 15.8735ZM29.0444 9.0988L26.224 11.9202C26.1085 12.0361 25.9661 12.1217 25.8094 12.1692C25.6528 12.2167 25.4869 12.2247 25.3264 12.1924L22.3236 11.594L14.3451 19.5724C14.1571 19.7541 13.9051 19.8546 13.6436 19.8524C13.3822 19.8501 13.132 19.7452 12.9471 19.5603C12.7622 19.3754 12.6573 19.1253 12.655 18.8638C12.6528 18.6023 12.7533 18.3504 12.935 18.1623L20.9134 10.1839L20.315 7.18198C20.2834 7.02144 20.2918 6.85559 20.3395 6.69906C20.3871 6.54253 20.4726 6.40013 20.5882 6.28441L23.4036 3.45706C23.5154 3.34564 23.652 3.26233 23.8022 3.21398C23.9524 3.16563 24.112 3.15362 24.2677 3.17893C24.4235 3.20424 24.571 3.26615 24.6982 3.35958C24.8254 3.45301 24.9286 3.57529 24.9993 3.71636L26.2599 6.24053L28.7831 7.50112C28.9241 7.57184 29.0464 7.67504 29.1398 7.80222C29.2333 7.92939 29.2952 8.07693 29.3205 8.23269C29.3458 8.38846 29.3338 8.54801 29.2854 8.69823C29.2371 8.84845 29.1538 8.98505 29.0424 9.0968L29.0444 9.0988ZM26.6508 8.66696L25.0731 7.87511C24.8797 7.7794 24.723 7.62277 24.6273 7.42931L23.8355 5.8466L22.3714 7.31163L22.8412 9.66127L25.1908 10.132L26.6508 8.66696Z" fill="#201E1A"/>
</svg>
