<svg width="12" height="20" viewBox="0 0 12 20" fill="none" xmlns="http://www.w3.org/2000/svg">
<path d="M11.2054 0.0839903H7.542C7.53365 0.0839321 7.52531 0.0843024 7.51701 0.0851008C3.81831 0.0967675 3.33525 2.68093 3.33331 4.93955C3.32818 4.96093 3.32557 4.98283 3.32554 5.00482V6.59038H0.794219C0.720591 6.59038 0.649977 6.61964 0.597914 6.67174C0.54585 6.72383 0.516602 6.79449 0.516602 6.86816V10.7784C0.516602 10.8521 0.54585 10.9228 0.597914 10.9749C0.649977 11.0269 0.720591 11.0562 0.794219 11.0562H3.32554V19.637C3.32554 19.7107 3.35479 19.7814 3.40685 19.8335C3.45891 19.8856 3.52953 19.9148 3.60316 19.9148H7.29741C7.37104 19.9148 7.44166 19.8856 7.49372 19.8335C7.54578 19.7814 7.57503 19.7107 7.57503 19.637V11.0565H11.2052C11.2788 11.0565 11.3494 11.0272 11.4015 10.9751C11.4535 10.923 11.4828 10.8524 11.4828 10.7787V6.86843C11.4828 6.79476 11.4535 6.72411 11.4015 6.67202C11.3494 6.61992 11.2788 6.59066 11.2052 6.59066H7.29741V4.48871H11.2052C11.2788 4.48871 11.3494 4.45945 11.4015 4.40735C11.4535 4.35526 11.4828 4.28461 11.4828 4.21093V0.361768C11.4828 0.325303 11.4757 0.289187 11.4617 0.255487C11.4478 0.221788 11.4274 0.191164 11.4016 0.165366C11.3759 0.139569 11.3453 0.119103 11.3116 0.10514C11.278 0.0911766 11.2419 0.0839903 11.2054 0.0839903Z" fill="white"/>
</svg>
