<svg width="1160" height="256" viewBox="0 0 1160 256" fill="none" xmlns="http://www.w3.org/2000/svg">
<g clip-path="url(#clip0_183_14793)">
<rect x="-40" width="1240" height="256" rx="10" fill="#2C79FF"/>
<path fill-rule="evenodd" clip-rule="evenodd" d="M-29.1214 -267.39C42.2863 -242.427 86.92 -169.075 105.897 -95.8322C122.646 -31.1873 87.5044 29.767 64.0754 92.3101C39.4331 158.092 28.4683 234.562 -31.5428 271.06C-98.1051 311.541 -183.902 316.848 -255.777 286.836C-327.236 256.998 -373.912 189.457 -400.866 116.846C-426.62 47.4671 -431.175 -30.48 -398.16 -96.725C-367.046 -159.154 -298.708 -185.873 -235.407 -215.147C-168.474 -246.1 -98.7218 -291.721 -29.1214 -267.39Z" fill="#F4C01E"/>
<path fill-rule="evenodd" clip-rule="evenodd" d="M1257.52 -84.4698C1183.54 -155.396 1067.55 -164.284 967.436 -142.25C879.075 -122.802 827.022 -42.9439 765.862 23.7422C701.533 93.8819 615.9 154.062 608.651 248.946C600.611 354.189 646.863 461.074 727.227 529.466C807.127 597.462 917.354 612.383 1021.6 600.372C1121.21 588.895 1218.15 546.553 1277.9 466.016C1334.2 390.119 1324.53 291.178 1321.03 196.753C1317.34 96.9113 1329.63 -15.3386 1257.52 -84.4698Z" fill="#0FBDF4"/>
</g>
<defs>
<clipPath id="clip0_183_14793">
<rect width="1160" height="256" rx="10" fill="white"/>
</clipPath>
</defs>
</svg>
