<svg width="20" height="20" viewBox="0 0 20 20" fill="none" xmlns="http://www.w3.org/2000/svg">
<path d="M1.66675 13.333C1.66675 10.976 1.66675 9.79751 2.39898 9.06526C3.13121 8.33301 4.30972 8.33301 6.66675 8.33301H13.3334C15.6904 8.33301 16.8689 8.33301 17.6012 9.06526C18.3334 9.79751 18.3334 10.976 18.3334 13.333C18.3334 15.69 18.3334 16.8685 17.6012 17.6008C16.8689 18.333 15.6904 18.333 13.3334 18.333H6.66675C4.30972 18.333 3.13121 18.333 2.39898 17.6008C1.66675 16.8685 1.66675 15.69 1.66675 13.333Z" stroke="#717070" stroke-width="1.5"/>
<path d="M10 11.667V15.0003" stroke="#717070" stroke-width="1.5" stroke-linecap="round"/>
<path d="M5 8.33366V6.66699C5 3.90557 7.23857 1.66699 10 1.66699C12.7614 1.66699 15 3.90557 15 6.66699V8.33366" stroke="#717070" stroke-width="1.5" stroke-linecap="round"/>
</svg>
