<svg width="20" height="20" viewBox="0 0 20 20" fill="none" xmlns="http://www.w3.org/2000/svg">
<g id="mail">
<path id="Vector" d="M1.66669 9.99967C1.66669 6.85697 1.66669 5.28563 2.643 4.30932C3.61931 3.33301 5.19065 3.33301 8.33335 3.33301H11.6667C14.8094 3.33301 16.3808 3.33301 17.357 4.30932C18.3334 5.28563 18.3334 6.85697 18.3334 9.99967C18.3334 13.1423 18.3334 14.7138 17.357 15.69C16.3808 16.6663 14.8094 16.6663 11.6667 16.6663H8.33335C5.19065 16.6663 3.61931 16.6663 2.643 15.69C1.66669 14.7138 1.66669 13.1423 1.66669 9.99967Z" stroke="#717070" stroke-width="1.5"/>
<path id="Vector_2" d="M5 6.66699L6.79908 8.16623C8.32961 9.44166 9.09492 10.0794 10 10.0794C10.9051 10.0794 11.6704 9.44166 13.2009 8.16623L15 6.66699" stroke="#717070" stroke-width="1.5" stroke-linecap="round"/>
</g>
</svg>
