<svg width="290" height="290" viewBox="0 0 290 290" fill="none" xmlns="http://www.w3.org/2000/svg">
<path d="M112.25 274.895C111.174 274.895 110.109 274.68 109.118 274.262C108.127 273.844 107.229 273.232 106.478 272.462C105.728 271.691 105.139 270.778 104.746 269.777C104.354 268.775 104.166 267.705 104.194 266.63L104.98 236.635H84.7805C69.3863 236.635 58.3945 223.947 58.3945 208.356V103.082C58.3945 87.8848 69.3863 75.5195 84.7805 75.5195H246.443C261.838 75.5195 275.899 87.8808 275.899 103.082V208.352C275.899 223.943 261.842 236.631 246.443 236.631H168.208L116.942 273.384C115.575 274.367 113.934 274.896 112.25 274.895ZM84.7886 91.6306C78.1669 91.6306 74.5137 96.6613 74.5137 103.082V208.352C74.5137 214.953 78.3884 220.52 84.7886 220.52H113.257C114.333 220.518 115.399 220.733 116.39 221.15C117.382 221.568 118.28 222.181 119.031 222.952C119.782 223.723 120.37 224.637 120.761 225.639C121.153 226.642 121.339 227.713 121.308 228.789L120.728 250.849L160.922 222.034C162.291 221.051 163.93 220.524 165.614 220.524H246.443C252.844 220.524 259.787 214.953 259.787 208.356V103.082C259.787 96.6613 253.065 91.6306 246.443 91.6306H84.7886Z" fill="#2C79FF" fill-opacity="0.1"/>
<path d="M26.9055 169.776C25.0044 169.776 23.8686 169.108 22.334 167.746C16.4413 162.53 14.0972 155.679 14.0972 147.938V42.6676C14.0972 27.4707 25.089 15.1055 40.4831 15.1055H202.146C217.54 15.1055 231.601 27.4667 231.601 42.6676V47.3277C231.601 49.4642 230.752 51.5131 229.242 53.0238C227.731 54.5345 225.682 55.3832 223.546 55.3832C221.409 55.3832 219.36 54.5345 217.85 53.0238C216.339 51.5131 215.49 49.4642 215.49 47.3277V42.6676C215.49 36.2473 208.768 31.2166 202.146 31.2166H40.4831C33.8615 31.2166 30.2083 36.2473 30.2083 42.6676V147.938C30.2083 151.023 30.6111 153.556 33.0156 155.687C36.3466 158.635 36.2741 163.734 33.3218 167.061C31.7267 168.854 29.1288 169.776 26.9055 169.776Z" fill="#2C79FF" fill-opacity="0.1"/>
<path d="M137.424 127.882H105.202C104.133 127.882 103.109 127.457 102.354 126.702C101.598 125.947 101.174 124.922 101.174 123.854C101.174 122.786 101.598 121.761 102.354 121.006C103.109 120.251 104.133 119.826 105.202 119.826H137.424C138.492 119.826 139.517 120.251 140.272 121.006C141.027 121.761 141.452 122.786 141.452 123.854C141.452 124.922 141.027 125.947 140.272 126.702C139.517 127.457 138.492 127.882 137.424 127.882ZM193.813 127.882H153.535C152.467 127.882 151.442 127.457 150.687 126.702C149.932 125.947 149.507 124.922 149.507 123.854C149.507 122.786 149.932 121.761 150.687 121.006C151.442 120.251 152.467 119.826 153.535 119.826H193.813C194.881 119.826 195.905 120.251 196.661 121.006C197.416 121.761 197.84 122.786 197.84 123.854C197.84 124.922 197.416 125.947 196.661 126.702C195.905 127.457 194.881 127.882 193.813 127.882ZM226.035 127.882H209.924C208.856 127.882 207.831 127.457 207.076 126.702C206.32 125.947 205.896 124.922 205.896 123.854C205.896 122.786 206.32 121.761 207.076 121.006C207.831 120.251 208.856 119.826 209.924 119.826H226.035C227.103 119.826 228.128 120.251 228.883 121.006C229.638 121.761 230.063 122.786 230.063 123.854C230.063 124.922 229.638 125.947 228.883 126.702C228.128 127.457 227.103 127.882 226.035 127.882ZM121.313 148.021H105.202C104.133 148.021 103.109 147.596 102.354 146.841C101.598 146.086 101.174 145.061 101.174 143.993C101.174 142.925 101.598 141.9 102.354 141.145C103.109 140.389 104.133 139.965 105.202 139.965H121.313C122.381 139.965 123.405 140.389 124.161 141.145C124.916 141.9 125.34 142.925 125.34 143.993C125.34 145.061 124.916 146.086 124.161 146.841C123.405 147.596 122.381 148.021 121.313 148.021ZM169.646 148.021H137.424C136.356 148.021 135.331 147.596 134.576 146.841C133.82 146.086 133.396 145.061 133.396 143.993C133.396 142.925 133.82 141.9 134.576 141.145C135.331 140.389 136.356 139.965 137.424 139.965H169.646C170.714 139.965 171.739 140.389 172.494 141.145C173.249 141.9 173.674 142.925 173.674 143.993C173.674 145.061 173.249 146.086 172.494 146.841C171.739 147.596 170.714 148.021 169.646 148.021ZM226.035 148.021H185.757C184.689 148.021 183.664 147.596 182.909 146.841C182.154 146.086 181.729 145.061 181.729 143.993C181.729 142.925 182.154 141.9 182.909 141.145C183.664 140.389 184.689 139.965 185.757 139.965H226.035C227.103 139.965 228.128 140.389 228.883 141.145C229.638 141.9 230.063 142.925 230.063 143.993C230.063 145.061 229.638 146.086 228.883 146.841C228.128 147.596 227.103 148.021 226.035 148.021ZM145.479 172.187H105.202C104.133 172.187 103.109 171.763 102.354 171.008C101.598 170.252 101.174 169.228 101.174 168.16C101.174 167.091 101.598 166.067 102.354 165.311C103.109 164.556 104.133 164.132 105.202 164.132H145.479C146.548 164.132 147.572 164.556 148.327 165.311C149.083 166.067 149.507 167.091 149.507 168.16C149.507 169.228 149.083 170.252 148.327 171.008C147.572 171.763 146.548 172.187 145.479 172.187ZM201.868 172.187H161.59C160.522 172.187 159.498 171.763 158.742 171.008C157.987 170.252 157.563 169.228 157.563 168.16C157.563 167.091 157.987 166.067 158.742 165.311C159.498 164.556 160.522 164.132 161.59 164.132H201.868C202.937 164.132 203.961 164.556 204.716 165.311C205.472 166.067 205.896 167.091 205.896 168.16C205.896 169.228 205.472 170.252 204.716 171.008C203.961 171.763 202.937 172.187 201.868 172.187ZM226.035 172.187H217.979C216.911 172.187 215.887 171.763 215.131 171.008C214.376 170.252 213.952 169.228 213.952 168.16C213.952 167.091 214.376 166.067 215.131 165.311C215.887 164.556 216.911 164.132 217.979 164.132H226.035C227.103 164.132 228.128 164.556 228.883 165.311C229.638 166.067 230.063 167.091 230.063 168.16C230.063 169.228 229.638 170.252 228.883 171.008C228.128 171.763 227.103 172.187 226.035 172.187ZM121.313 192.326H105.202C104.133 192.326 103.109 191.902 102.354 191.146C101.598 190.391 101.174 189.367 101.174 188.298C101.174 187.23 101.598 186.206 102.354 185.45C103.109 184.695 104.133 184.271 105.202 184.271H121.313C122.381 184.271 123.405 184.695 124.161 185.45C124.916 186.206 125.34 187.23 125.34 188.298C125.34 189.367 124.916 190.391 124.161 191.146C123.405 191.902 122.381 192.326 121.313 192.326ZM165.618 192.326H137.424C136.356 192.326 135.331 191.902 134.576 191.146C133.82 190.391 133.396 189.367 133.396 188.298C133.396 187.23 133.82 186.206 134.576 185.45C135.331 184.695 136.356 184.271 137.424 184.271H165.618C166.687 184.271 167.711 184.695 168.466 185.45C169.222 186.206 169.646 187.23 169.646 188.298C169.646 189.367 169.222 190.391 168.466 191.146C167.711 191.902 166.687 192.326 165.618 192.326Z" fill="#2C79FF" fill-opacity="0.1"/>
</svg>
