<svg width="32" height="32" viewBox="0 0 32 32" fill="none" xmlns="http://www.w3.org/2000/svg">
<path d="M27.6094 25.724L23.0822 21.1968C24.4875 19.39 25.3333 17.1275 25.3333 14.6667C25.3333 8.78516 20.5482 4 14.6667 4C8.78516 4 4 8.78516 4 14.6667C4 20.5482 8.78516 25.3333 14.6667 25.3333C17.1275 25.3333 19.39 24.4875 21.1968 23.0822L25.724 27.6094C25.9844 27.8698 26.3255 28 26.6667 28C27.0078 28 27.349 27.8698 27.6094 27.6094C28.1302 27.0885 28.1302 26.2448 27.6094 25.724ZM6.66667 14.6667C6.66667 10.2552 10.2552 6.66667 14.6667 6.66667C19.0781 6.66667 22.6667 10.2552 22.6667 14.6667C22.6667 19.0781 19.0781 22.6667 14.6667 22.6667C10.2552 22.6667 6.66667 19.0781 6.66667 14.6667Z" fill="#333333"/>
</svg>
