<svg width="20" height="18" viewBox="0 0 20 18" fill="none" xmlns="http://www.w3.org/2000/svg">
<path d="M17.5418 3.49381C17.9299 3.29325 18.8594 2.69742 19.2975 1.41853C19.2975 1.41853 18.2417 2.18242 16.8047 2.27242L16.7786 2.28686C16.4021 1.87457 15.9437 1.54544 15.4328 1.32049C14.9219 1.09554 14.3697 0.979737 13.8115 0.980472C11.5883 0.980472 9.78628 2.78381 9.78628 5.00825C9.78628 5.34575 9.8282 5.67353 9.90677 5.98686L9.88734 5.95769C9.88734 5.95769 5.57593 6.20492 1.51133 1.75575C1.51133 1.75575 -0.28569 4.81158 2.79115 7.14853C2.11737 7.26075 0.9275 6.65408 0.9275 6.65408C0.9275 6.65408 0.994683 9.86686 4.1834 10.6535C3.66703 10.7885 2.7012 10.833 2.38694 10.6985C2.38694 10.6985 2.85833 13.1474 6.11479 13.5746C5.28388 14.0466 3.73449 15.4844 0.230957 15.2146C0.230957 15.2146 2.74673 17.2816 7.41765 16.9899C12.0886 16.6982 15.4797 13.5519 16.8494 10.2266C18.2192 6.9013 17.838 5.00797 17.838 5.00797C17.838 5.00797 18.9826 4.40686 19.7694 2.96908C19.406 3.07797 18.0582 3.40742 17.5565 3.52936C17.5515 3.51758 17.5466 3.50573 17.5418 3.49381Z" fill="white"/>
</svg>
