<svg width="36" height="36" viewBox="0 0 36 36" fill="none" xmlns="http://www.w3.org/2000/svg">
<path d="M26.8305 30.1266C26.3536 26.511 24.5822 24 18 24C11.4178 24 9.64623 26.511 9.16942 30.1264M26.8305 30.1266C30.57 27.3989 33 22.9831 33 18C33 9.71572 26.2842 3 18 3C9.71572 3 3 9.71572 3 18C3 22.9831 5.42988 27.3987 9.16942 30.1264M26.8305 30.1266C24.3531 31.9337 21.3011 33 18 33C14.6988 33 11.6467 31.9336 9.16942 30.1264M22.5 15C22.5 17.4854 20.4854 19.5 18 19.5C15.5146 19.5 13.5 17.4854 13.5 15C13.5 12.5147 15.5146 10.5 18 10.5C20.4854 10.5 22.5 12.5147 22.5 15Z" stroke="#201E1A" stroke-width="3" stroke-linecap="round"/>
</svg>
