<svg width="28" height="28" viewBox="0 0 28 28" fill="none" xmlns="http://www.w3.org/2000/svg">
<path fill-rule="evenodd" clip-rule="evenodd" d="M11.7771 5.1123H16.2215C20.4117 5.1123 22.507 5.1123 23.8086 6.41405C25.1104 7.7158 25.1104 9.81093 25.1104 14.0012C25.1104 18.1914 25.1104 20.2866 23.8086 21.5883C22.507 22.8901 20.4117 22.8901 16.2215 22.8901H11.7771C7.58681 22.8901 5.49168 22.8901 4.18993 21.5883C2.88818 20.2866 2.88818 18.1914 2.88818 14.0012C2.88818 9.81093 2.88818 7.7158 4.18993 6.41405C5.49168 5.1123 7.58681 5.1123 11.7771 5.1123ZM15.3882 10.6679C15.3882 10.2076 15.7613 9.83453 16.2215 9.83453H21.7771C22.2373 9.83453 22.6104 10.2076 22.6104 10.6679C22.6104 11.1281 22.2373 11.5012 21.7771 11.5012H16.2215C15.7613 11.5012 15.3882 11.1281 15.3882 10.6679ZM16.4993 14.0012C16.4993 13.541 16.8724 13.1679 17.3326 13.1679H21.7771C22.2373 13.1679 22.6104 13.541 22.6104 14.0012C22.6104 14.4614 22.2373 14.8345 21.7771 14.8345H17.3326C16.8724 14.8345 16.4993 14.4614 16.4993 14.0012ZM17.6104 17.3345C17.6104 16.8743 17.9835 16.5012 18.4437 16.5012H21.7771C22.2373 16.5012 22.6104 16.8743 22.6104 17.3345C22.6104 17.7947 22.2373 18.1679 21.7771 18.1679H18.4437C17.9835 18.1679 17.6104 17.7947 17.6104 17.3345ZM12.8882 10.6679C12.8882 11.8952 11.8933 12.8901 10.666 12.8901C9.43866 12.8901 8.44374 11.8952 8.44374 10.6679C8.44374 9.44056 9.43866 8.44564 10.666 8.44564C11.8933 8.44564 12.8882 9.44056 12.8882 10.6679ZM10.666 19.5567C15.1104 19.5567 15.1104 18.5619 15.1104 17.3345C15.1104 16.1072 13.1205 15.1123 10.666 15.1123C8.21136 15.1123 6.22152 16.1072 6.22152 17.3345C6.22152 18.5619 6.22152 19.5567 10.666 19.5567Z" fill="white"/>
</svg>
