<?xml version="1.0" encoding="utf-8"?>
<!-- Generator: Adobe Illustrator 27.0.0, SVG Export Plug-In . SVG Version: 6.00 Build 0)  -->
<svg version="1.1" xmlns="http://www.w3.org/2000/svg" xmlns:xlink="http://www.w3.org/1999/xlink" x="0px" y="0px"
	 viewBox="0 0 500 432" style="enable-background:new 0 0 500 432;" xml:space="preserve">
<style type="text/css">
	.st0{fill:#EBEBEB;}
	.st1{fill:#F0F0F0;}
	.st2{fill:#F5F5F5;}
	.st3{fill:#E6E6E6;}
	.st4{fill:#E0E0E0;}
	.st5{fill:#FAFAFA;}
	.st6{fill:#FFFFFF;}
	.st7{display:none;}
	.st8{display:inline;}
	.st9{fill:#407BFF;}
	.st10{opacity:0.9;fill:#FFFFFF;}
	.st11{opacity:0.2;}
	.st12{fill:#2C79FF;}
	.st13{opacity:0.4;}
	.st14{opacity:0.4;fill:#407BFF;}
	.st15{opacity:0.1;fill:#263238;}
	.st16{opacity:0.2;fill:#FFFFFF;}
	.st17{fill:#FF8B7B;}
	.st18{fill:#263238;}
	.st19{fill:#FF5652;}
	.st20{opacity:0.4;fill:#FFFFFF;}
	.st21{opacity:0.3;}
</style>
<g id="Background_Complete">
	<g>
		<rect y="348.4" class="st0" width="500" height="0.2"/>
		<rect x="416.8" y="364.5" class="st0" width="33.1" height="0.2"/>
		<rect x="333.4" y="364.5" class="st0" width="70.8" height="0.2"/>
		<rect x="275.1" y="355.2" class="st0" width="19.2" height="0.2"/>
		<rect x="52.5" y="356.9" class="st0" width="34.3" height="0.2"/>
		<rect x="95.7" y="356.9" class="st0" width="62.3" height="0.2"/>
		<rect x="188.3" y="361.1" class="st0" width="36.8" height="0.2"/>
		<path class="st0" d="M237,303.8H43.9c-3.1,0-5.7-2.6-5.7-5.7V26.7c0-3.1,2.6-5.7,5.7-5.7H237c3.1,0,5.7,2.6,5.7,5.7v271.4
			C242.7,301.2,240.2,303.8,237,303.8z M43.9,21.2c-3,0-5.5,2.4-5.5,5.5v271.4c0,3,2.4,5.5,5.5,5.5H237c3,0,5.5-2.4,5.5-5.5V26.7
			c0-3-2.4-5.5-5.5-5.5H43.9z"/>
		<path class="st0" d="M453.3,303.8H260.2c-3.1,0-5.7-2.6-5.7-5.7V26.7c0-3.1,2.6-5.7,5.7-5.7h193.1c3.1,0,5.7,2.6,5.7,5.7v271.4
			C459,301.2,456.5,303.8,453.3,303.8z M260.2,21.2c-3,0-5.5,2.4-5.5,5.5v271.4c0,3,2.4,5.5,5.5,5.5h193.1c3,0,5.5-2.4,5.5-5.5V26.7
			c0-3-2.4-5.5-5.5-5.5H260.2z"/>
	</g>
	<g>
		<g>
			<g>
				<g>
					
						<rect x="337" y="208.2" transform="matrix(-1 -1.224647e-16 1.224647e-16 -1 692.5048 551.0037)" class="st1" width="18.5" height="134.6"/>
					
						<rect x="148" y="342.8" transform="matrix(-1 -1.224647e-16 1.224647e-16 -1 500 691.1835)" class="st1" width="203.9" height="5.6"/>
					<rect x="144.5" y="208.2" class="st2" width="192.5" height="134.6"/>
					
						<rect x="337" y="203.3" transform="matrix(-1 -1.224647e-16 1.224647e-16 -1 692.5048 411.5389)" class="st3" width="18.5" height="4.9"/>
					<rect x="144.5" y="203.3" class="st1" width="192.5" height="4.9"/>
					<path class="st4" d="M330.3,248.8H151.1v-30.3h179.2V248.8z M152.4,247.6h176.7v-27.8H152.4V247.6z"/>
					<path class="st4" d="M330.3,332.5H151.1v-76.3h179.2V332.5z M152.4,331.3h176.7v-73.8H152.4V331.3z"/>
					
						<rect x="175.3" y="219.1" transform="matrix(-1 -1.224647e-16 1.224647e-16 -1 481.4926 442.2298)" class="st4" width="130.9" height="4"/>
					
						<rect x="175.3" y="256.8" transform="matrix(-1 -1.224647e-16 1.224647e-16 -1 481.4926 517.6834)" class="st4" width="130.9" height="4"/>
				</g>
			</g>
		</g>
		<g>
			<path class="st2" d="M420.9,344.8L420.9,344.8c-0.8,0-1.5-0.7-1.5-1.5V112.3c0-0.8,0.7-1.5,1.5-1.5l0,0c0.8,0,1.5,0.7,1.5,1.5
				v231.1C422.4,344.2,421.7,344.8,420.9,344.8z"/>
			<path class="st1" d="M427.9,348.4h-14.1v-3.1c0-2.2,1.8-4.1,4.1-4.1h6c2.2,0,4.1,1.8,4.1,4.1V348.4z"/>
			<g>
				<path class="st4" d="M392.1,143c0,0,0.7-28.3,28.8-28.3c28,0,28.8,28.3,28.8,28.3H392.1z"/>
			</g>
		</g>
		<g>
			<path class="st2" d="M79.1,344.8L79.1,344.8c-0.8,0-1.5-0.7-1.5-1.5V112.3c0-0.8,0.7-1.5,1.5-1.5l0,0c0.8,0,1.5,0.7,1.5,1.5
				v231.1C80.6,344.2,79.9,344.8,79.1,344.8z"/>
			<path class="st1" d="M86.1,348.4H72.1v-3.1c0-2.2,1.8-4.1,4.1-4.1h6c2.2,0,4.1,1.8,4.1,4.1V348.4z"/>
			<g>
				<path class="st4" d="M50.3,143c0,0,0.7-28.3,28.8-28.3c28,0,28.8,28.3,28.8,28.3H50.3z"/>
			</g>
		</g>
		<g>
			<rect x="214.9" y="201.2" class="st4" width="71.1" height="2.1"/>
			<polygon class="st4" points="286,201.2 214.9,201.2 221.8,160.5 292.9,160.5 			"/>
			<polygon class="st0" points="284.7,201.2 213.6,201.2 220.4,160.5 291.6,160.5 			"/>
			<path class="st5" d="M216.3,198l5.8-34.6c0.1-0.4,0.5-0.8,0.9-0.8h65c0.6,0,1,0.5,0.9,1.1l-5.8,34.6c-0.1,0.4-0.5,0.8-0.9,0.8
				h-65C216.6,199.1,216.2,198.6,216.3,198z"/>
			<rect x="198.8" y="201.2" class="st1" width="71.1" height="2.1"/>
		</g>
		<g>
			<rect x="154.4" y="53.8" class="st0" width="188.5" height="60.9"/>
			
				<rect x="342.9" y="53.8" transform="matrix(-1 -1.224647e-16 1.224647e-16 -1 688.4761 168.4302)" class="st4" width="2.7" height="60.9"/>
			<rect x="162.7" y="62" class="st6" width="172" height="44.4"/>
			
				<rect x="241.3" y="76.9" transform="matrix(0.7071 0.7071 -0.7071 0.7071 132.3756 -151.1551)" class="st2" width="14.6" height="14.6"/>
			
				<rect x="213.5" y="76.9" transform="matrix(0.7071 0.7071 -0.7071 0.7071 124.2369 -131.5061)" class="st2" width="14.6" height="14.6"/>
			
				<rect x="185.8" y="76.9" transform="matrix(0.7071 0.7071 -0.7071 0.7071 116.0981 -111.8572)" class="st2" width="14.6" height="14.6"/>
			
				<rect x="269.1" y="76.9" transform="matrix(0.7071 0.7071 -0.7071 0.7071 140.5144 -170.804)" class="st2" width="14.6" height="14.6"/>
			
				<rect x="296.9" y="76.9" transform="matrix(0.7071 0.7071 -0.7071 0.7071 148.6545 -190.4536)" class="st2" width="14.6" height="14.6"/>
		</g>
	</g>
</g>
<g id="Background_Simple" class="st7">
	<g class="st8">
		<path class="st9" d="M49.1,183.7c-0.8,25.8,5.1,57.8,40.9,60.6c17.9,1.4,37.8-4.5,55.7-1.9c19,2.8,31.5,9.4,54.1,6.8
			c87.8-10.3,140.1-84.7,134.1-136.3c-5-42.7-48.1-117.9-129.6-70c-16.1,9.5-28.9,21.9-44.7,31.3c-15,8.9-38.8,1.2-67.8,22
			C65.6,115.1,49.7,163.1,49.1,183.7z"/>
		<path class="st10" d="M49.1,183.7c-0.8,25.8,5.1,57.8,40.9,60.6c17.9,1.4,37.8-4.5,55.7-1.9c19,2.8,31.5,9.4,54.1,6.8
			c87.8-10.3,140.1-84.7,134.1-136.3c-5-42.7-48.1-117.9-129.6-70c-16.1,9.5-28.9,21.9-44.7,31.3c-15,8.9-38.8,1.2-67.8,22
			C65.6,115.1,49.7,163.1,49.1,183.7z"/>
	</g>
</g>
<g id="Shadow_1_">
	<ellipse id="_x3C_Path_x3E__350_" class="st2" cx="250" cy="382.2" rx="193.9" ry="11.3"/>
</g>
<g id="Calculator">
	<g>
		<g>
			<path class="st9" d="M362.9,89c0.3-5-3.4-9-8.4-9H216.1c-5,0-9.3,4-9.6,9l-3.2,47.9l-19.9,147.4c-0.7,5,2.8,9,7.8,9h138.4
				c5,0,9.6-4,10.2-9L359.8,137L362.9,89z"/>
			<path class="st11" d="M362.9,89c0.3-5-3.4-9-8.4-9H216.1c-5,0-9.3,4-9.6,9l-3.2,47.9l-19.9,147.4c-0.7,5,2.8,9,7.8,9h138.4
				c5,0,9.6-4,10.2-9L359.8,137L362.9,89z"/>
		</g>
		<path class="st12" d="M324.7,293.4H186.2c-5,0-8.5-4-7.8-9L198.4,137h156.5l-19.9,147.4C334.2,289.4,329.6,293.4,324.7,293.4z"/>
		<rect x="216" y="76.5" class="st9" width="20.6" height="1"/>
		<path class="st9" d="M206.3,78.6l-0.4-0.9c1.7-0.8,3.5-1.2,5.3-1.2v1C209.5,77.5,207.9,77.9,206.3,78.6z"/>
		<path class="st9" d="M349.6,80H211.2c-5,0-9.3,4-9.6,9l-3.2,47.9h156.5L358,89C358.3,84.1,354.6,80,349.6,80z"/>
		<path class="st10" d="M206.1,125.3l2.2-33.5c0.2-2.6,2.4-4.7,5.1-4.7h133.1c2.6,0,4.6,2.1,4.4,4.7l-2.2,33.5
			c-0.2,2.6-2.4,4.7-5.1,4.7H210.5C207.9,130,205.9,127.9,206.1,125.3z"/>
		<g class="st13">
			<path class="st9" d="M336.9,92.5l-1.5,1.4c-0.1,0.1-0.2,0.1-0.3,0.1l-8,0c-0.1,0-0.2,0-0.3-0.1l-1.3-1.4
				c-0.2-0.3-0.1-0.7,0.3-0.7l10.8,0C337,91.8,337.1,92.2,336.9,92.5z"/>
			<path class="st9" d="M334.7,118.5l-10.8,0c-0.4,0-0.6-0.5-0.3-0.7l1.5-1.4c0.1-0.1,0.2-0.1,0.3-0.1l8,0c0.1,0,0.2,0,0.3,0.1
				l1.3,1.4C335.3,118,335.1,118.5,334.7,118.5z"/>
			<path class="st9" d="M335.8,105.4l-0.8,0.7c-0.1,0.1-0.2,0.1-0.3,0.1l-9.4,0c-0.2,0-0.4-0.2-0.4-0.4l0.1-1.4
				c0-0.2,0.2-0.4,0.4-0.4l9.4,0c0.1,0,0.2,0,0.3,0.1l0.6,0.7C336,105,336,105.3,335.8,105.4z"/>
			<path class="st9" d="M337.1,106.2l-0.8,10.9c0,0.4-0.5,0.5-0.7,0.2l-1.3-1.4c-0.1-0.1-0.1-0.2-0.1-0.3l0.6-8
				c0-0.1,0.1-0.2,0.1-0.3l1.5-1.4C336.7,105.6,337.1,105.8,337.1,106.2z"/>
			<path class="st9" d="M338,93.3l-0.8,10.9c0,0.4-0.5,0.5-0.7,0.2l-1.3-1.4c-0.1-0.1-0.1-0.2-0.1-0.3l0.6-8c0-0.1,0.1-0.2,0.1-0.3
				l1.5-1.4C337.6,92.7,338,93,338,93.3z"/>
		</g>
		<path class="st14" d="M319.5,123L319.5,123c0.1-0.8,0.7-1.4,1.5-1.4h17c0.8,0,1.5,0.7,1.4,1.5l0,0c-0.1,0.8-0.7,1.4-1.5,1.4h-17
			C320.1,124.5,319.5,123.8,319.5,123z"/>
		<path class="st14" d="M298.3,123L298.3,123c0.1-0.8,0.7-1.4,1.5-1.4h17c0.8,0,1.5,0.7,1.4,1.5l0,0c-0.1,0.8-0.7,1.4-1.5,1.4h-17
			C298.9,124.5,298.2,123.8,298.3,123z"/>
		<path class="st14" d="M277,123L277,123c0.1-0.8,0.7-1.4,1.5-1.4h17c0.8,0,1.5,0.7,1.4,1.5l0,0c-0.1,0.8-0.7,1.4-1.5,1.4h-17
			C277.6,124.5,276.9,123.8,277,123z"/>
		<path class="st14" d="M255.7,123L255.7,123c0.1-0.8,0.7-1.4,1.5-1.4h17c0.8,0,1.5,0.7,1.4,1.5l0,0c-0.1,0.8-0.7,1.4-1.5,1.4h-17
			C256.3,124.5,255.7,123.8,255.7,123z"/>
		<path class="st15" d="M208.8,205.4l6.3-46.3c0.4-3.1,3.2-5.5,6.3-5.5h46.3c3.1,0,5.2,2.5,4.8,5.5l-6.3,46.3
			c-0.4,3.1-3.2,5.5-6.3,5.5h-46.3C210.5,210.9,208.4,208.4,208.8,205.4z"/>
		<path class="st15" d="M274.7,205.4l6.3-46.3c0.4-3.1,3.2-5.5,6.3-5.5h46.3c3.1,0,5.2,2.5,4.8,5.5l-6.3,46.3
			c-0.4,3.1-3.2,5.5-6.3,5.5h-46.3C276.4,210.9,274.3,208.4,274.7,205.4z"/>
		<path class="st15" d="M199.9,271.3l6.3-46.3c0.4-3.1,3.2-5.5,6.3-5.5h46.3c3.1,0,5.2,2.5,4.8,5.5l-6.3,46.3
			c-0.4,3.1-3.2,5.5-6.3,5.5h-46.3C201.6,276.8,199.5,274.3,199.9,271.3z"/>
		<path class="st15" d="M265.8,271.3l6.3-46.3c0.4-3.1,3.2-5.5,6.3-5.5h46.3c3.1,0,5.2,2.5,4.8,5.5l-6.3,46.3
			c-0.4,3.1-3.2,5.5-6.3,5.5h-46.3C267.5,276.8,265.4,274.3,265.8,271.3z"/>
		<g>
			<path class="st9" d="M205.7,205.4l6.3-46.3c0.4-3.1,3.2-5.5,6.3-5.5h46.3c3.1,0,5.2,2.5,4.8,5.5l-6.3,46.3
				c-0.4,3.1-3.2,5.5-6.3,5.5h-46.3C207.4,210.9,205.3,208.4,205.7,205.4z"/>
			<path class="st16" d="M205.7,205.4l6.3-46.3c0.4-3.1,3.2-5.5,6.3-5.5h46.3c3.1,0,5.2,2.5,4.8,5.5l-6.3,46.3
				c-0.4,3.1-3.2,5.5-6.3,5.5h-46.3C207.4,210.9,205.3,208.4,205.7,205.4z"/>
		</g>
		<g>
			<path class="st9" d="M271.6,205.4l6.3-46.3c0.4-3.1,3.2-5.5,6.3-5.5h46.3c3.1,0,5.2,2.5,4.8,5.5l-6.3,46.3
				c-0.4,3.1-3.2,5.5-6.3,5.5h-46.3C273.4,210.9,271.2,208.4,271.6,205.4z"/>
			<path class="st16" d="M271.6,205.4l6.3-46.3c0.4-3.1,3.2-5.5,6.3-5.5h46.3c3.1,0,5.2,2.5,4.8,5.5l-6.3,46.3
				c-0.4,3.1-3.2,5.5-6.3,5.5h-46.3C273.4,210.9,271.2,208.4,271.6,205.4z"/>
		</g>
		<g>
			<path class="st9" d="M196.8,271.3l6.3-46.3c0.4-3.1,3.2-5.5,6.3-5.5h46.3c3.1,0,5.2,2.5,4.8,5.5l-6.3,46.3
				c-0.4,3.1-3.2,5.5-6.3,5.5h-46.3C198.5,276.8,196.4,274.3,196.8,271.3z"/>
			<path class="st16" d="M196.8,271.3l6.3-46.3c0.4-3.1,3.2-5.5,6.3-5.5h46.3c3.1,0,5.2,2.5,4.8,5.5l-6.3,46.3
				c-0.4,3.1-3.2,5.5-6.3,5.5h-46.3C198.5,276.8,196.4,274.3,196.8,271.3z"/>
		</g>
		<g>
			<path class="st9" d="M262.7,271.3L269,225c0.4-3.1,3.2-5.5,6.3-5.5h46.3c3.1,0,5.2,2.5,4.8,5.5l-6.3,46.3
				c-0.4,3.1-3.2,5.5-6.3,5.5h-46.3C264.4,276.8,262.3,274.3,262.7,271.3z"/>
			<path class="st16" d="M262.7,271.3L269,225c0.4-3.1,3.2-5.5,6.3-5.5h46.3c3.1,0,5.2,2.5,4.8,5.5l-6.3,46.3
				c-0.4,3.1-3.2,5.5-6.3,5.5h-46.3C264.4,276.8,262.3,274.3,262.7,271.3z"/>
		</g>
		<g>
			<path class="st6" d="M234.9,201.5L234.9,201.5c-3.1,0-5.2-2.5-4.8-5.6l3.7-27.4c0.4-3.1,3.3-5.6,6.3-5.6h0c3.1,0,5.2,2.5,4.8,5.6
				l-3.7,27.4C240.8,199,238,201.5,234.9,201.5z"/>
			<path class="st6" d="M218.3,182.2L218.3,182.2c0.4-3.1,3.3-5.6,6.3-5.6H252c3.1,0,5.2,2.5,4.8,5.6l0,0c-0.4,3.1-3.3,5.6-6.3,5.6
				h-27.4C220,187.8,217.9,185.3,218.3,182.2z"/>
			<path class="st6" d="M213.2,261.8L213.2,261.8c-1.9-2.2-1.4-5.7,1.1-7.9l22-19.4c2.5-2.2,6-2.2,7.9,0l0,0
				c1.9,2.2,1.4,5.7-1.1,7.9l-22,19.4C218.6,263.9,215,263.9,213.2,261.8z"/>
			<path class="st6" d="M216.8,234.5L216.8,234.5c2.5-2.2,6-2.2,7.9,0l16.8,19.4c1.9,2.2,1.4,5.7-1.1,7.9l0,0c-2.5,2.2-6,2.2-7.9,0
				l-16.8-19.4C213.9,240.2,214.4,236.7,216.8,234.5z"/>
			<path class="st6" d="M284.2,182.2L284.2,182.2c0.4-3.1,3.3-5.6,6.3-5.6h27.4c3.1,0,5.2,2.5,4.8,5.6l0,0c-0.4,3.1-3.3,5.6-6.3,5.6
				H289C285.9,187.8,283.8,185.3,284.2,182.2z"/>
			<path class="st6" d="M276.4,239.5L276.4,239.5c0.4-3.1,3.3-5.6,6.3-5.6h27.4c3.1,0,5.2,2.5,4.8,5.6l0,0c-0.4,3.1-3.3,5.6-6.3,5.6
				h-27.4C278.2,245.1,276,242.6,276.4,239.5z"/>
			<path class="st6" d="M274.1,256.8L274.1,256.8c0.4-3.1,3.3-5.6,6.3-5.6h27.4c3.1,0,5.2,2.5,4.8,5.6l0,0c-0.4,3.1-3.3,5.6-6.3,5.6
				h-27.4C275.9,262.3,273.7,259.8,274.1,256.8z"/>
		</g>
	</g>
</g>
<g id="Character_1_">
	<g>
		<path class="st17" d="M133.4,145.7c-1.8,3.3-3.6,6.9-5.3,10.5c-1.7,3.5-3.3,7.1-4.7,10.7c-0.4,0.9-0.7,1.8-1,2.7
			c-0.2,0.4-0.3,0.9-0.3,1.5c-0.1,1.1,0.2,2.6,0.8,4.1c1.2,3.1,3.4,6.4,5.7,9.3l-3.4,4c-1-0.7-1.9-1.3-2.7-2
			c-0.9-0.7-1.7-1.4-2.5-2.2c-1.6-1.6-3.1-3.3-4.4-5.4c-1.3-2.1-2.3-4.6-2.6-7.5c-0.1-1.5,0-3.1,0.4-4.6c0.3-1,0.5-2.1,0.9-3.1
			c1.2-4.1,2.7-8.1,4.4-12c0.9-1.9,1.7-3.8,2.7-5.7c1-1.9,1.9-3.7,3.1-5.6L133.4,145.7z"/>
		<path class="st17" d="M127,183.3l5,1.3l-3.7,7.2c0,0-3.7-1.4-4.6-4.7L127,183.3z"/>
		<polygon class="st17" points="138.9,186.9 134.4,192.6 128.3,191.9 132,184.6 		"/>
		<path class="st18" d="M156.9,107.6c0.1,0.6,0.5,0.9,0.9,0.9c0.4-0.1,0.6-0.6,0.5-1.1c-0.1-0.6-0.5-0.9-0.9-0.9
			C157,106.5,156.8,107,156.9,107.6z"/>
		<path class="st19" d="M157.4,108.5c0,0,1.9,3,3.6,4.2c-0.8,1.1-2.6,1-2.6,1L157.4,108.5z"/>
		<path class="st18" d="M158.1,112.3c-1.6,0-3.2-1.8-3.7-4.2c-0.3-1.3-0.2-2.6,0.2-3.6c0.4-1,1.1-1.7,2-1.9c0.9-0.2,1.8,0.2,2.6,1
			c0.8,0.8,1.4,1.9,1.6,3.2c0.3,1.3,0.2,2.6-0.2,3.6c-0.4,1-1.1,1.7-2,1.9C158.4,112.3,158.3,112.3,158.1,112.3z M157.1,102.8
			c-0.1,0-0.3,0-0.4,0c-0.8,0.2-1.4,0.8-1.8,1.7c-0.4,1-0.5,2.2-0.2,3.4c0.5,2.5,2.2,4.3,3.9,4c0.8-0.2,1.4-0.8,1.8-1.7
			c0.4-1,0.5-2.2,0.2-3.4c-0.3-1.2-0.8-2.3-1.5-3.1C158.4,103.1,157.7,102.8,157.1,102.8z"/>
		<path class="st17" d="M209.6,165.2l6.4-1.4l0.8,8.7c0,0-5.5,1.1-8.2-3.3L209.6,165.2z"/>
		<polygon class="st17" points="222.1,165.8 221.7,172.1 216.9,172.5 216,163.8 		"/>
		<path class="st18" d="M154.3,104.9c-0.1,0-0.2,0-0.2-0.1c-0.1-0.1-0.1-0.3,0-0.5c1.3-1.4,2.8-1.1,2.8-1.1c0.2,0,0.3,0.2,0.3,0.4
			c0,0.2-0.2,0.3-0.4,0.3l0,0c0,0-1.2-0.2-2.2,0.9C154.5,104.9,154.4,104.9,154.3,104.9z"/>
		<path class="st17" d="M141.5,117.7c1,5.1,1.6,12.3-2,15.7c0,0,1.4,5.2,11,5.2c10.5,0,5.1-4.6,5.1-4.6c-4.4-1.4-4.3-6.3-3.3-10.3
			L141.5,117.7z"/>
		<path class="st18" d="M152.3,132.1c2.4-1.7,5.9-3.7,6.6-1.6c0.4,1.3,0.6,7.4-1.8,6.9C153.5,136.8,152.3,132.1,152.3,132.1z"/>
		<path class="st9" d="M137.5,136.8c-0.9-1.3-0.9-5.5,0.1-6.3c1.6-1.2,8.5-1.5,17.8,0.7c-1,4.1,1.1,6.2,1.1,6.2L137.5,136.8z"/>
		<path class="st9" d="M106.3,374.2c0.7,0.2,1.4,0.2,1.8-0.1c0.1-0.1,0.3-0.4,0.2-0.8c-0.1-0.2-0.2-0.4-0.4-0.5
			c-0.9-0.5-3.1,0.4-3.2,0.5c-0.1,0-0.1,0.1-0.1,0.1c0,0.1,0,0.1,0.1,0.2C104.9,373.8,105.6,374.1,106.3,374.2z M107.4,373.1
			c0.1,0,0.1,0,0.2,0.1c0.1,0.1,0.2,0.2,0.3,0.3c0.1,0.3,0,0.4-0.1,0.4c-0.4,0.3-1.8,0-2.8-0.4C105.7,373.3,106.8,373,107.4,373.1z"
			/>
		<path class="st9" d="M104.6,373.7C104.6,373.7,104.6,373.7,104.6,373.7c0.9-0.2,2.6-1.4,2.6-2.2c0-0.1,0-0.4-0.4-0.5
			c-0.2-0.1-0.5-0.1-0.7,0.1c-0.9,0.5-1.5,2.4-1.6,2.5C104.4,373.5,104.5,373.6,104.6,373.7C104.5,373.6,104.5,373.7,104.6,373.7z
			 M106.6,371.2C106.6,371.2,106.6,371.2,106.6,371.2c0.3,0.1,0.3,0.2,0.3,0.2c0,0.5-1.1,1.4-2,1.8c0.2-0.6,0.7-1.7,1.3-2
			C106.3,371.2,106.4,371.2,106.6,371.2z"/>
		<path class="st9" d="M158.2,375.4c0.9,0,1.8-0.1,2.1-0.5c0.1-0.1,0.2-0.4,0-0.7c-0.1-0.2-0.3-0.3-0.5-0.4
			c-1.2-0.3-3.6,1.1-3.7,1.1c-0.1,0-0.1,0.1-0.1,0.2c0,0.1,0.1,0.1,0.1,0.1C156.5,375.3,157.4,375.4,158.2,375.4z M159.3,374.1
			c0.1,0,0.2,0,0.3,0c0.2,0,0.3,0.1,0.3,0.2c0.1,0.2,0.1,0.3,0,0.4c-0.3,0.5-2.1,0.5-3.4,0.3C157.3,374.6,158.5,374.1,159.3,374.1z"
			/>
		<path class="st9" d="M156.1,375.2C156.1,375.2,156.1,375.2,156.1,375.2c0.9-0.4,2.6-1.9,2.5-2.7c0-0.2-0.2-0.4-0.6-0.5
			c-0.3,0-0.7,0.1-0.9,0.3c-0.9,0.7-1.1,2.6-1.1,2.7C155.9,375.1,156,375.2,156.1,375.2C156,375.2,156.1,375.2,156.1,375.2z
			 M157.8,372.4c0,0,0.1,0,0.1,0c0.3,0,0.3,0.1,0.3,0.2c0.1,0.5-1.1,1.7-1.9,2.2c0.1-0.6,0.3-1.7,0.9-2.2
			C157.4,372.4,157.6,372.4,157.8,372.4z"/>
		<polygon class="st17" points="148.4,375.1 155.4,375.1 156.1,358.8 149.1,358.8 		"/>
		<polygon class="st17" points="96.7,371.8 103.6,373.3 110.5,358.1 103.6,356.6 		"/>
		<path class="st18" d="M104.3,372.6l-7.7-1.7c-0.3-0.1-0.6,0.1-0.7,0.3l-2.7,5.8c-0.3,0.6,0.1,1.3,0.7,1.4c2.7,0.5,4.1,0.7,7.4,1.4
			c2.1,0.5,6.8,1.6,9.7,2.2c2.8,0.6,3.9-2.1,2.8-2.7c-5-2.3-7.2-4.3-8.5-6.2C105.1,372.9,104.7,372.7,104.3,372.6z"/>
		<path class="st18" d="M155.4,374.2h-7.7c-0.3,0-0.5,0.2-0.6,0.5l-1.4,6.3c-0.1,0.6,0.3,1.3,1,1.3c2.8,0,6.8-0.2,10.3-0.2
			c4.1,0,7.6,0.2,12.4,0.2c2.9,0,3.7-2.9,2.5-3.2c-5.5-1.2-10-1.3-14.8-4.3C156.5,374.5,156,374.2,155.4,374.2z"/>
		<g>
			<path class="st9" d="M126.9,135c-6.6,1.5-12,18.3-12,18.3l13.2,10.1c0,0,4.9-4.6,7-13C137.4,141.6,133.7,133.4,126.9,135z"/>
			<path class="st20" d="M126.9,135c-6.6,1.5-12,18.3-12,18.3l13.2,10.1c0,0,4.9-4.6,7-13C137.4,141.6,133.7,133.4,126.9,135z"/>
		</g>
		<path class="st17" d="M166.5,143l11.1,10.2c1.8,1.7,3.7,3.4,5.6,5c1.8,1.7,3.7,3.3,5.5,4.8l-1.5-0.8c0.9,0.3,1.8,0.6,2.7,0.9
			c1,0.2,1.9,0.5,2.9,0.7c2,0.4,4.1,0.6,6.3,0.8c2.2,0.2,4.3,0.3,6.6,0.4c2.2,0.1,4.5,0.1,6.7,0.1l1.1,5.2c-2.4,0.9-4.6,1.5-7,2
			c-2.4,0.5-4.8,0.9-7.2,1.1c-2.4,0.2-4.9,0.3-7.5,0.1c-2.6-0.2-5.2-0.6-7.8-1.3l-0.8-0.2l-0.8-0.6c-2.2-1.7-4.1-3.3-6.1-5
			c-1.9-1.7-3.9-3.4-5.8-5.1c-3.8-3.4-7.5-6.9-11.2-10.4L166.5,143z"/>
		<path class="st11" d="M132.6,147.4c-3.6,3.5-4.7,10-5,15.6l0.6,0.5c0,0,4.9-4.6,7-13c0.1-0.5,0.2-1.1,0.3-1.6L132.6,147.4z"/>
		<g>
			<path class="st9" d="M168.6,142c1.4,7.6,2.3,23.2-1.8,54.1h-37.6c-0.3-5.8,3.4-33.9-2.2-61.2c0,0,6.4-1.3,12.6-1.6
				c4.8-0.2,11.8-0.4,16,0c1.8,0.2,3.5,0.4,5,0.7C164.6,134.8,167.8,138,168.6,142z"/>
			<path class="st20" d="M168.6,142c1.4,7.6,2.3,23.2-1.8,54.1h-37.6c-0.3-5.8,3.4-33.9-2.2-61.2c0,0,6.4-1.3,12.6-1.6
				c4.8-0.2,11.8-0.4,16,0c1.8,0.2,3.5,0.4,5,0.7C164.6,134.8,167.8,138,168.6,142z"/>
		</g>
		<path class="st11" d="M162.8,153.3l6.8-1.6c0.2,4.1,0.2,9.2-0.1,15.5C166.4,163.6,162.4,158.1,162.8,153.3z"/>
		<g>
			<polygon class="st11" points="156.1,358.8 155.7,367.2 148.7,367.2 149.1,358.8 			"/>
			<polygon class="st11" points="103.6,356.6 110.5,358.1 107,365.9 100.1,364.5 			"/>
		</g>
		<path class="st17" d="M138.2,110.2c1.8,6.7,2.5,10.8,6.7,13.6c6.3,4.2,14.1-0.6,14.3-7.8c0.2-6.4-2.8-16.4-10-17.7
			C142,96.9,136.3,103.4,138.2,110.2z"/>
		<path class="st18" d="M153.5,110.7c3.2-0.4,2.3-4.1,1.1-5.9c0,0,7-8.5-1.1-11.9c-8.1-3.4-6.1,1.9-6.1,1.9s-6.3-4.8-11.8-0.9
			c-5.5,3.8-0.8,5.5-0.8,5.5s-10,2.9-6,8c4,5.1,8.1,4.5,8.1,4.5s-8.3,3.3-2,6.9c6.3,3.7,8.7,3.8,8.7,3.8l0,0
			c3.5,0.4,6.8-1.7,7.8-5.1L153.5,110.7z"/>
		<path class="st17" d="M150.7,110.7c0.1,1.8,1,3.5,2,4.7c1.5,1.7,3.1,0.6,3.4-1.4c0.2-1.9-0.3-5-2.1-5.9
			C152.1,107.1,150.6,108.6,150.7,110.7z"/>
		<path class="st18" d="M153.4,196.1c0,0-8,53.8-12.4,73.9c-4.8,22.1-30.5,95-30.5,95l-12.6-2.7c0,0,18-59.5,22-90.3
			c3.1-23.7,9.2-75.9,9.2-75.9H153.4z"/>
		<path class="st9" d="M113.5,360.8c0.1,0-2.3,4.6-2.3,4.6L97,362.3l1.2-4.3L113.5,360.8z"/>
		<path class="st21" d="M148.4,215.3c-9.2,1.8-8.3,36.2-7.1,53.9c2.7-12.5,6.6-36.6,9.2-53.7C149.8,215.2,149.1,215.1,148.4,215.3z"
			/>
		<path class="st18" d="M166.7,196.1c0,0,1,52.6,0.2,74c-0.8,22.3-8.6,95.4-8.6,95.4h-11.9c0,0-0.4-71.7-1-93.7
			c-0.6-23.9-3.5-75.7-3.5-75.7H166.7z"/>
		<path class="st9" d="M160.7,360.8c0.1,0-0.7,4.9-0.7,4.9h-14.5l-0.4-4.4L160.7,360.8z"/>
		<g>
			<path class="st9" d="M153.8,144.3c-3.4,9.1,16.4,19.8,16.4,19.8l8.6-11c0,0-5.7-11.4-12.7-16.5
				C157.4,130.2,156.4,137.4,153.8,144.3z"/>
			<path class="st20" d="M153.8,144.3c-3.4,9.1,16.4,19.8,16.4,19.8l8.6-11c0,0-5.7-11.4-12.7-16.5
				C157.4,130.2,156.4,137.4,153.8,144.3z"/>
		</g>
		<ellipse class="st18" cx="210.8" cy="166.1" rx="2.5" ry="1.8"/>
		<path class="st18" d="M209.8,172c-0.1,0-0.3-0.1-0.4-0.2c-0.2-0.2-0.2-0.5,0.1-0.7c0.1-0.1,1.3-1.2,0.8-3.9
			c-0.1-0.3,0.1-0.5,0.4-0.6c0.3,0,0.5,0.1,0.6,0.4c0.7,3.3-1.1,4.8-1.1,4.9C210,171.9,209.9,172,209.8,172z"/>
		<path class="st20" d="M212.8,166c0,0.8-0.9,1.4-2,1.4s-2-0.6-2-1.4c0-0.8,0.9-1.4,2-1.4S212.8,165.2,212.8,166z"/>
		<path class="st9" d="M156.9,133.5c-4.6,3.3-12.6,16-14,23.5c0,0.2-0.3,0.3-0.5,0.1c-6.7-10.6-7.4-21.5-7.5-23.3
			c0-0.1-0.1-0.2-0.3-0.2c-0.7,0.1-2.5,0.2-3.3,0.4c-0.1,0-0.2,0.1-0.2,0.3c0.6,14.2,7.7,25,10.5,28.4c0,0,0.1,0.1,0.1,0.2
			c-0.6,11.3,0.2,31.4,0.3,33.8c0,0.1,0.1,0.2,0.2,0.2h3c0.1,0,0.3-0.1,0.2-0.3c-0.1-2.3-1.1-19.8,0-34.1c0,0,0,0,0,0
			c1.7-10.7,11.8-25.1,15.3-27.9c0.2-0.1,0.1-0.4-0.1-0.4c-1.5-0.3-3.2-0.5-3.6-0.6C157,133.4,157,133.4,156.9,133.5z"/>
	</g>
</g>
</svg>
