<svg width="90" height="91" viewBox="0 0 90 91" fill="none" xmlns="http://www.w3.org/2000/svg">
<path d="M61.9217 62.3556C62.5777 61.8439 63.1726 61.249 64.3628 60.0589L79.1972 45.2244C79.5555 44.8661 79.3914 44.2483 78.9123 44.0819C77.1614 43.4746 74.8834 42.3339 72.7527 40.2033C70.6221 38.0726 69.4814 35.7947 68.8741 34.0437C68.7077 33.5645 68.0899 33.4003 67.7316 33.759L52.8971 48.5932C51.707 49.7834 51.1121 50.3783 50.6004 51.0343C49.9969 51.8083 49.4792 52.6454 49.0571 53.5315C48.6992 54.2824 48.433 55.0808 47.9011 56.6773L47.2132 58.7401L46.1198 62.0201L45.0946 65.0958C44.8329 65.8815 45.0372 66.7474 45.6227 67.3333C46.2086 67.9188 47.0745 68.1231 47.8602 67.8614L50.9359 66.8362L54.2159 65.7428L56.2787 65.0549C57.8748 64.523 58.6736 64.2568 59.4244 63.8989C60.3106 63.4768 61.1476 62.9591 61.9217 62.3556Z" fill="white"/>
<path d="M83.8417 40.5801C87.0081 37.4138 87.0081 32.2805 83.8417 29.1144C80.6757 25.9482 75.5424 25.9482 72.376 29.1144L71.8992 29.5913C71.4389 30.0515 71.2305 30.6943 71.3456 31.3349C71.4179 31.7379 71.5517 32.327 71.7958 33.03C72.2835 34.436 73.2045 36.2816 74.9397 38.0164C76.6745 39.7516 78.5203 40.6727 79.926 41.1603C80.6292 41.4044 81.2181 41.5382 81.621 41.6105C82.2617 41.7256 82.9045 41.5172 83.3649 41.0569L83.8417 40.5801Z" fill="white"/>
<path fill-rule="evenodd" clip-rule="evenodd" d="M15.6368 12.3887C11.2451 16.7804 11.2451 23.8487 11.2451 37.9853V52.9794C11.2451 67.1159 11.2451 74.1845 15.6368 78.5759C20.0285 82.9677 27.0967 82.9677 41.2333 82.9677H48.7304C62.8669 82.9677 69.9355 82.9677 74.3269 78.5759C78.6482 74.2546 78.7175 67.3423 78.7186 53.6545L68.1542 64.219C67.1428 65.2307 66.3148 66.0595 65.3795 66.7894C64.2834 67.644 63.0978 68.3769 61.8431 68.9748C60.7722 69.4849 59.6607 69.8553 58.3034 70.307L49.6379 73.1956C46.8318 74.1309 43.7381 73.4007 41.6464 71.309C39.5551 69.2173 38.8245 66.1236 39.7602 63.3175L40.7854 60.2422L42.5663 54.899L42.6484 54.6524C43.1005 53.295 43.4705 52.1832 43.9806 51.1123C44.5785 49.8576 45.3114 48.672 46.1664 47.5763C46.8959 46.6407 47.7247 45.8126 48.7368 44.8013L63.7549 29.7831L67.9229 25.6153L68.3997 25.1384C71.0814 22.4567 74.5964 21.1162 78.1114 21.1169C77.5442 17.2539 76.4474 14.5093 74.3269 12.3887C69.9355 7.99707 62.8669 7.99707 48.7304 7.99707H41.2333C27.0967 7.99707 20.0285 7.99707 15.6368 12.3887ZM27.1764 34.2368C27.1764 32.6841 28.4351 31.4254 29.9878 31.4254H54.3532C55.9058 31.4254 57.1646 32.6841 57.1646 34.2368C57.1646 35.7895 55.9058 37.0482 54.3532 37.0482H29.9878C28.4351 37.0482 27.1764 35.7895 27.1764 34.2368ZM27.1764 49.2309C27.1764 47.6783 28.4351 46.4195 29.9878 46.4195H39.3591C40.9117 46.4195 42.1705 47.6783 42.1705 49.2309C42.1705 50.7835 40.9117 52.0423 39.3591 52.0423H29.9878C28.4351 52.0423 27.1764 50.7835 27.1764 49.2309ZM27.1764 64.225C27.1764 62.6724 28.4351 61.4136 29.9878 61.4136H35.6106C37.1632 61.4136 38.422 62.6724 38.422 64.225C38.422 65.7777 37.1632 67.0364 35.6106 67.0364H29.9878C28.4351 67.0364 27.1764 65.7777 27.1764 64.225Z" fill="white"/>
</svg>
