<svg width="89" height="92" viewBox="0 0 89 92" fill="none" xmlns="http://www.w3.org/2000/svg">
<path d="M64.6916 70.7411L76.2659 35.055C80.8811 20.8245 83.1889 13.7093 79.5346 9.95339C75.88 6.19748 68.9566 8.56925 55.1103 13.3128L20.6111 25.1315C12.9142 27.7683 9.06576 29.0867 7.89763 31.9872C7.62308 32.6689 7.45708 33.3916 7.40602 34.1275C7.1887 37.2587 10.0572 40.2068 15.7941 46.1027L16.839 47.1766C17.7807 48.1444 18.2515 48.6285 18.6074 49.1669C19.3094 50.2294 19.7078 51.4727 19.7576 52.7555C19.7829 53.4065 19.6841 54.0832 19.4864 55.4364C18.7629 60.3906 18.4011 62.8678 18.8273 64.7738C19.6767 68.5733 22.5381 71.5558 26.2227 72.4822C28.0712 72.9469 30.4862 72.6103 35.3164 71.9366L35.5804 71.8997C36.942 71.7097 37.623 71.6147 38.2767 71.6554C39.4631 71.7287 40.6092 72.1262 41.5971 72.806C42.141 73.1806 42.6268 73.6799 43.5984 74.6786L44.5275 75.6331C50.1114 81.372 52.9031 84.2413 55.8649 84.0916C56.6812 84.0506 57.4835 83.856 58.2318 83.5175C60.9459 82.2901 62.1945 78.4404 64.6916 70.7411Z" fill="white"/>
<path d="M22.1826 68.8979L77.6403 11.8997" stroke="#2C79FF" stroke-width="1.5" stroke-linecap="round"/>
</svg>
