<svg width="87" height="87" viewBox="0 0 87 87" fill="none" xmlns="http://www.w3.org/2000/svg">
<path d="M43.1342 58.0117C22.43 58.0117 18.7623 37.3776 18.1126 21.0118C17.9318 16.4594 17.8415 14.1832 19.5514 12.0772C21.2614 9.97124 23.308 9.62592 27.4011 8.93531C31.4415 8.25362 36.7231 7.68896 43.1342 7.68896C49.545 7.68896 54.8267 8.25362 58.8669 8.93531C62.9603 9.62592 65.0066 9.97124 66.7165 12.0772C68.4268 14.1832 68.3362 16.4594 68.1554 21.0118C67.5059 37.3776 63.8381 58.0117 43.1342 58.0117Z" fill="white" stroke="white" stroke-width="5"/>
<path d="M68.295 18.4724L71.7048 19.609C75.2637 20.7953 77.0429 21.3884 78.0605 22.8005C79.0785 24.2125 79.0785 26.0881 79.0781 29.8394V30.1001C79.0781 33.194 79.0781 34.741 78.3333 36.0066C77.5886 37.2723 76.2363 38.0235 73.5318 39.526L62.9033 45.431" stroke="white" stroke-width="5"/>
<path d="M17.9717 18.4724L14.5619 19.609C11.0032 20.7953 9.22378 21.3884 8.20608 22.8005C7.18833 24.2125 7.18837 26.0881 7.18848 29.8394V30.1001C7.18859 33.194 7.18862 34.741 7.93336 36.0066C8.67807 37.2723 10.0304 38.0235 12.7349 39.526L23.3634 45.431" stroke="white" stroke-width="5"/>
<path d="M43.1338 61.6062V68.7952" stroke="white" stroke-width="5" stroke-linecap="round"/>
<path d="M55.7141 79.5786H30.5527L31.7721 73.482C32.1081 71.8019 33.5833 70.5924 35.2967 70.5924H50.9701C52.6836 70.5924 54.1588 71.8019 54.4948 73.482L55.7141 79.5786Z" stroke="white" stroke-width="5" stroke-linecap="round" stroke-linejoin="round"/>
<path d="M64.7002 79.5786H21.5664" stroke="white" stroke-width="5" stroke-linecap="round"/>
</svg>
