<svg width="99" height="100" viewBox="0 0 99 100" fill="none" xmlns="http://www.w3.org/2000/svg">
<path d="M8.21582 25.9695C8.21582 21.3681 8.21582 19.0675 9.11131 17.31C9.899 15.764 11.1559 14.5072 12.7018 13.7195C14.4593 12.824 16.76 12.824 21.3613 12.824H23.0045C32.2073 12.824 36.8086 12.824 40.3236 14.6149C43.4155 16.1903 45.9292 18.7041 47.5046 21.796C49.2956 25.3109 49.2956 29.9123 49.2956 39.115V86.7676L48.8846 86.151C46.031 81.8707 44.6042 79.7305 42.7191 78.1811C41.0503 76.8095 39.1274 75.7804 37.0604 75.1527C34.7256 74.4436 32.1534 74.4436 27.0091 74.4436H21.3613C16.76 74.4436 14.4593 74.4436 12.7018 73.5481C11.1559 72.7605 9.899 71.5036 9.11131 69.9576C8.21582 68.2001 8.21582 65.8995 8.21582 61.2981V25.9695Z" fill="white"/>
<path d="M90.3754 25.9695C90.3754 21.3681 90.3754 19.0675 89.4799 17.31C88.6922 15.764 87.4353 14.5072 85.8894 13.7195C84.1319 12.824 81.8312 12.824 77.2298 12.824H75.5866C66.3839 12.824 61.7826 12.824 58.2676 14.6149C55.1757 16.1903 52.6619 18.7041 51.0866 21.796C49.2956 25.3109 49.2956 29.9123 49.2956 39.115V86.7676L49.7066 86.151C52.5602 81.8707 53.987 79.7305 55.8721 78.1811C57.5409 76.8095 59.4638 75.7804 61.5308 75.1527C63.8656 74.4436 66.4377 74.4436 71.5821 74.4436H77.2298C81.8312 74.4436 84.1319 74.4436 85.8894 73.5481C87.4353 72.7605 88.6922 71.5036 89.4799 69.9576C90.3754 68.2001 90.3754 65.8995 90.3754 61.2981V25.9695Z" fill="white"/>
<path d="M49.2956 86.7676L48.8846 86.151C46.031 81.8707 44.6042 79.7305 42.7191 78.1811C41.0503 76.8095 39.1274 75.7804 37.0604 75.1527C34.7256 74.4436 32.1534 74.4436 27.0091 74.4436H21.3613C16.76 74.4436 14.4593 74.4436 12.7018 73.5481C11.1559 72.7605 9.899 71.5036 9.11131 69.9576C8.21582 68.2002 8.21582 65.8995 8.21582 61.2981V25.9695C8.21582 21.3681 8.21582 19.0675 9.11131 17.31C9.899 15.764 11.1559 14.5072 12.7018 13.7195C14.4593 12.824 16.76 12.824 21.3613 12.824H23.0045C32.2073 12.824 36.8086 12.824 40.3236 14.6149C43.4155 16.1903 45.9292 18.7041 47.5046 21.796C49.2956 25.3109 49.2956 29.9123 49.2956 39.115M49.2956 86.7676V39.115M49.2956 86.7676L49.7066 86.151C52.5602 81.8707 53.987 79.7305 55.8721 78.1811C57.5409 76.8095 59.4638 75.7804 61.5308 75.1527C63.8656 74.4436 66.4377 74.4436 71.5821 74.4436H77.2298C81.8312 74.4436 84.1319 74.4436 85.8894 73.5481C87.4353 72.7605 88.6922 71.5036 89.4799 69.9576C90.3754 68.2002 90.3754 65.8995 90.3754 61.2981V25.9695C90.3754 21.3681 90.3754 19.0675 89.4799 17.31C88.6922 15.764 87.4353 14.5072 85.8894 13.7195C84.1319 12.824 81.8312 12.824 77.2298 12.824H75.5866C66.3839 12.824 61.7826 12.824 58.2676 14.6149C55.1757 16.1903 52.6619 18.7041 51.0866 21.796C49.2956 25.3109 49.2956 29.9123 49.2956 39.115" stroke="#2C79FF" stroke-linecap="round" stroke-linejoin="round"/>
</svg>
