<svg width="36" height="39" viewBox="0 0 36 39" fill="none" xmlns="http://www.w3.org/2000/svg">
<path d="M13.2085 17.8275L19.4151 24.377C20.088 25.087 21.3067 25.1884 22.6644 24.5193C26.1196 23.0868 27.2693 22.7375 27.9256 23.4301L35.0601 30.9587C35.9035 31.8486 35.6784 33.331 34.7353 34.3262C29.8383 39.4936 21.8789 39.4936 16.982 34.3262L3.65433 20.2624C-1.21811 15.1208 -1.21811 6.8027 3.65433 1.66114C4.61731 0.644971 6.09614 0.394943 6.97127 1.31841L14.1058 8.84701C14.7242 9.49956 14.3926 10.715 13.0425 14.3363C12.4149 15.7499 12.5154 17.0962 13.2085 17.8275Z" fill="#1565D8"/>
</svg>
