<svg width="40" height="38" viewBox="0 0 40 38" fill="none" xmlns="http://www.w3.org/2000/svg">
<path fill-rule="evenodd" clip-rule="evenodd" d="M39.3946 14.4627V31.3751C39.3946 34.8505 36.5002 37.6678 32.9297 37.6678H7.07032C3.49988 37.6678 0.605469 34.8505 0.605469 31.3751V14.4627C0.605469 13.5849 1.04774 12.7629 1.78933 12.2606L6.51063 9.06242C6.92928 8.77882 7.50487 8.87927 7.79622 9.28678C8.08758 9.69429 7.98438 10.2545 7.56572 10.5381L2.84442 13.7363C2.60242 13.9002 2.4573 14.1653 2.45268 14.4488C2.74152 14.3494 3.05233 14.2954 3.37612 14.2954C3.87022 14.2954 4.35532 14.424 4.78117 14.6679L20 23.384L35.2189 14.6679C35.9523 14.2478 36.8031 14.1938 37.5474 14.4495C37.543 14.1658 37.3978 13.9003 37.1556 13.7363L32.5695 10.6297C32.1508 10.3461 32.0476 9.78584 32.339 9.37834C32.6303 8.97083 33.2059 8.87038 33.6246 9.15397L38.2107 12.2606C38.9523 12.7629 39.3946 13.5849 39.3946 14.4627Z" fill="#1565D8"/>
<path fill-rule="evenodd" clip-rule="evenodd" d="M6.37793 13.9578V4.96837C6.37793 2.48599 8.44537 0.473633 10.9957 0.473633H29.4667C32.017 0.473633 34.0844 2.48599 34.0844 4.96837V13.9578L20.2312 22.0484L6.37793 13.9578ZM14.6897 9.46318H25.7723C26.2824 9.46318 26.6959 9.06071 26.6959 8.56423C26.6959 8.06776 26.2824 7.66528 25.7723 7.66528H14.6897C14.1796 7.66528 13.7662 8.06776 13.7662 8.56423C13.7662 9.06071 14.1796 9.46318 14.6897 9.46318ZM25.7723 14.8566H14.6897C14.1796 14.8566 13.7662 14.4541 13.7662 13.9577C13.7662 13.4612 14.1796 13.0587 14.6897 13.0587H25.7723C26.2824 13.0587 26.6959 13.4612 26.6959 13.9577C26.6959 14.4541 26.2824 14.8566 25.7723 14.8566Z" fill="#B8D0F3"/>
</svg>
