<svg width="35" height="38" viewBox="0 0 35 38" fill="none" xmlns="http://www.w3.org/2000/svg">
<path fill-rule="evenodd" clip-rule="evenodd" d="M7.01139 12.472C14.9758 13.596 21.2052 10.6931 25.5433 3.80227C25.565 3.76773 25.5849 3.73231 25.603 3.69617C27.2724 5.57475 28.2865 8.04879 28.2865 10.7597V14.6551C28.2865 18.5921 26.1277 22.1314 22.7812 23.9752C22.3451 23.6723 21.8154 23.4948 21.2443 23.4948C19.7549 23.4948 18.5474 24.7022 18.5474 26.1916C18.5474 27.681 19.7549 28.8885 21.2443 28.8885C21.9986 28.8885 22.6806 28.5788 23.17 28.0796C22.4407 30.3706 20.2445 32.0348 17.6485 32.0348C14.4593 32.0348 11.8735 29.5232 11.8696 26.4235L12.7223 24.0856C9.25882 22.2752 7.01139 18.6721 7.01139 14.6551V12.472ZM7.03397 10.0844C7.38224 4.52407 12.0023 0.12207 17.6504 0.12207C20.031 0.12207 22.2289 0.904037 24.0013 2.22512C23.9469 2.28114 23.8968 2.3446 23.8523 2.4153C19.9481 8.61695 14.4299 11.1632 7.13852 10.0938C7.10346 10.0887 7.06857 10.0856 7.03397 10.0844ZM9.64984 27.6003C10.2371 31.3828 13.595 34.2822 17.6493 34.2822C21.7046 34.2822 25.0629 31.3816 25.6492 27.5979L29.9599 28.4671C31.6723 28.8012 33.0367 30.096 33.4598 31.7886L34.7029 36.761C34.8448 37.3284 34.4157 37.878 33.8308 37.878H1.46873C0.883897 37.878 0.454777 37.3284 0.596619 36.761L1.83811 31.795C2.26229 30.0983 3.63216 28.8017 5.34095 28.473L9.64984 27.6003Z" fill="#1565D8"/>
<path opacity="0.3" fill-rule="evenodd" clip-rule="evenodd" d="M21.2466 27.0906C21.7431 27.0906 22.1456 26.6881 22.1456 26.1917C22.1456 25.6952 21.7431 25.2927 21.2466 25.2927C20.7501 25.2927 20.3477 25.6952 20.3477 26.1917C20.3477 26.6881 20.7501 27.0906 21.2466 27.0906Z" fill="#1565D8"/>
<path opacity="0.3" fill-rule="evenodd" clip-rule="evenodd" d="M29.9782 9.11157H30.2358C31.7252 9.11157 32.9327 10.319 32.9327 11.8084V15.4042C32.9327 16.8936 31.7252 18.101 30.2358 18.101H29.6006C29.9185 16.9978 30.0864 15.8399 30.0864 14.6551V10.7596C30.0864 10.2009 30.0496 9.65079 29.9782 9.11157Z" fill="#1565D8"/>
<path opacity="0.3" fill-rule="evenodd" clip-rule="evenodd" d="M5.70112 18.101H5.06501C3.57558 18.101 2.36816 16.8936 2.36816 15.4042V11.8084C2.36816 10.319 3.57558 9.11157 5.06501 9.11157H5.32352C5.25212 9.65079 5.21527 10.2009 5.21527 10.7596V14.6551C5.21527 15.8399 5.3832 16.9978 5.70112 18.101Z" fill="#1565D8"/>
</svg>
