<svg width="16" height="16" viewBox="0 0 16 16" fill="none" xmlns="http://www.w3.org/2000/svg">
<g clip-path="url(#clip0_1166_4458)">
<path d="M8.02036 0H14.042C15.2238 0 16.0047 0.780969 16.0047 1.9627V14.0369C16.0047 15.2186 15.2238 15.9996 14.042 15.9996H1.9627C0.786108 15.9996 0 15.2186 0 14.0369V1.9627C0 0.780969 0.78097 0 1.9627 0H8.02036ZM14.7716 8.02035V1.9627C14.7716 1.46432 14.5404 1.22797 14.0472 1.22797H1.96784C1.45918 1.22797 1.23311 1.45404 1.23311 1.96784V14.0266C1.23311 14.5404 1.45918 14.7665 1.96784 14.7665H14.0472C14.5404 14.7665 14.7716 14.5353 14.7716 14.0369V8.02035Z" fill="black"/>
<path d="M4.11547 5.73871V7.38286H6.50462C6.8951 7.38286 7.17769 7.63462 7.18283 7.98914C7.18797 8.34366 6.90538 8.61083 6.50462 8.61597H4.12574V10.2601H4.32612C5.07626 10.2601 5.82641 10.255 6.57141 10.2601C6.70391 10.2596 6.83292 10.3026 6.9387 10.3824C7.04448 10.4622 7.12121 10.5744 7.15714 10.702C7.1959 10.8262 7.19219 10.9598 7.14661 11.0817C7.10102 11.2035 7.01614 11.3068 6.90538 11.3751C6.79686 11.4416 6.67293 11.4787 6.54572 11.483C5.5284 11.4932 4.50595 11.4984 3.48864 11.4932C3.12898 11.4932 2.86694 11.1952 2.86694 10.8253V8.01997C2.86694 7.06945 2.87208 6.12406 2.87722 5.17354C2.88235 4.75223 3.12384 4.51074 3.55029 4.51074H6.76665C7.13145 4.53129 7.39349 4.79333 7.38835 5.13244C7.38321 5.47154 7.11604 5.73358 6.7461 5.73871H4.11547Z" fill="black"/>
<path d="M9.44367 6.0007C9.79819 5.91335 10.1476 5.79518 10.5021 5.75407C11.7866 5.61021 13.0659 6.69432 13.1122 7.98909C13.1481 8.95502 13.1276 9.9261 13.1224 10.892C13.1212 11.0479 13.0594 11.1973 12.9501 11.3085C12.8408 11.4197 12.6926 11.484 12.5367 11.488C12.3876 11.4923 12.2421 11.4418 12.1276 11.3462C12.0131 11.2507 11.9375 11.1165 11.915 10.9691C11.9021 10.8876 11.8969 10.805 11.8996 10.7225C11.8945 9.86958 11.9099 9.01668 11.8893 8.16378C11.8858 7.95316 11.8275 7.74709 11.7201 7.56587C11.6127 7.38464 11.46 7.23452 11.2769 7.13029C11.0939 7.02606 10.8868 6.97132 10.6762 6.97145C10.4655 6.97158 10.2586 7.02659 10.0756 7.13105C9.65432 7.36225 9.4488 7.73219 9.4488 8.22029C9.45394 9.0732 9.4488 9.9261 9.4488 10.779C9.4488 11.0616 9.36146 11.2928 9.09428 11.4264C8.67297 11.637 8.20028 11.3339 8.20028 10.8458C8.19514 9.89013 8.20028 8.93447 8.20028 7.97881C8.20028 7.32115 8.20028 6.65835 8.20542 6.0007C8.21056 5.60507 8.46232 5.3379 8.82197 5.3379C8.97399 5.33712 9.12085 5.39301 9.23389 5.49465C9.34694 5.5963 9.41806 5.73641 9.43339 5.88766C9.43853 5.9339 9.43853 5.98528 9.44367 6.0007Z" fill="black"/>
</g>
<defs>
<clipPath id="clip0_1166_4458">
<rect width="15.9996" height="15.9996" fill="white"/>
</clipPath>
</defs>
</svg>
