<svg width="24" height="24" viewBox="0 0 24 24" fill="none" xmlns="http://www.w3.org/2000/svg">
<g clip-path="url(#clip0_551_18)">
<path d="M22.9864 2.9735C21.263 7.2709 16.9431 13.1127 13.3284 16.0112L11.1238 17.7794C10.844 17.9808 10.5642 18.1599 10.2508 18.283C10.2508 18.0815 10.2397 17.8578 10.2061 17.6451C10.083 16.705 9.6577 15.8322 8.90794 15.0823C8.1469 14.3214 7.21806 13.8737 6.26681 13.7506C6.04298 13.7394 5.81916 13.717 5.59534 13.7394C5.71844 13.3925 5.90869 13.0679 6.1437 12.7994L7.88953 10.5946C10.7768 6.97993 16.641 2.63776 20.9272 0.925513C21.5875 0.679307 22.2254 0.858369 22.6283 1.27244C23.0535 1.68651 23.255 2.32441 22.9864 2.9735Z" stroke="#2C79FF" stroke-width="1.56" stroke-linecap="round" stroke-linejoin="round"/>
<path d="M10.2509 18.2836C10.2509 19.5146 9.78079 20.6897 8.89671 21.585C8.21407 22.2676 7.28518 22.7377 6.17725 22.8832L3.42423 23.1853C1.92461 23.3532 0.637632 22.0774 0.816687 20.5554L1.11885 17.8024C1.38744 15.3515 3.43542 13.7848 5.60651 13.74C5.83033 13.7288 6.06534 13.74 6.27797 13.7512C7.22923 13.8743 8.15807 14.3108 8.91911 15.0829C9.66887 15.8328 10.0942 16.7056 10.2173 17.6457C10.2285 17.8584 10.2509 18.071 10.2509 18.2836Z" stroke="#2C79FF" stroke-width="1.56" stroke-linecap="round" stroke-linejoin="round"/>
<path d="M14.5146 14.7583C14.5146 11.8374 12.1421 9.46484 9.22119 9.46484" stroke="#2C79FF" stroke-width="1.56" stroke-linecap="round" stroke-linejoin="round"/>
<path d="M21.095 12.8105L21.9232 13.6275C23.5907 15.2949 23.5907 16.9401 21.9232 18.6076L18.6106 21.9201C16.9655 23.5653 15.298 23.5653 13.653 21.9201" stroke="#2C79FF" stroke-width="1.56" stroke-linecap="round"/>
<path d="M2.05884 10.3263C0.413737 8.65877 0.413737 7.0137 2.05884 5.34621L5.37142 2.03363C7.01652 0.38853 8.68401 0.38853 10.3291 2.03363L11.1573 2.86178" stroke="#2C79FF" stroke-width="1.56" stroke-linecap="round"/>
<path d="M11.1685 2.87305L7.02771 7.01377" stroke="#2C79FF" stroke-width="1.56" stroke-linecap="round"/>
<path d="M21.095 12.8105L17.7824 16.1119" stroke="#2C79FF" stroke-width="1.56" stroke-linecap="round"/>
</g>
<defs>
<clipPath id="clip0_551_18">
<rect width="24" height="24" fill="white"/>
</clipPath>
</defs>
</svg>
