<svg width="24" height="24" viewBox="0 0 24 24" fill="none" xmlns="http://www.w3.org/2000/svg">
<g clip-path="url(#clip0_727_4919)">
<path d="M22.2963 11.7306V6.73612C22.2963 2.0113 21.1126 0.827148 16.3526 0.827148H6.83262C2.07262 0.827148 0.888916 2.0113 0.888916 6.73612V19.9374C0.888916 23.0561 2.72745 23.7947 4.95634 21.5671L4.96891 21.5555C6.00149 20.5355 7.57557 20.6175 8.46965 21.7312L9.74154 23.3141" stroke="#2C79FF" stroke-width="1.5" stroke-linecap="round" stroke-linejoin="round"/>
<path d="M6.55554 6.68945H16.6296" stroke="#2C79FF" stroke-width="1.5" stroke-linecap="round" stroke-linejoin="round"/>
<path d="M7.81488 11.3789H15.3704" stroke="#2C79FF" stroke-width="1.5" stroke-linecap="round" stroke-linejoin="round"/>
<path d="M19.4138 15.7997L14.956 19.9501C14.7797 20.1142 14.616 20.419 14.5782 20.6418L14.3389 22.2246C14.2508 22.7991 14.679 23.1976 15.296 23.1156L16.996 22.8928C17.2353 22.8577 17.5753 22.7052 17.739 22.5411L22.1968 18.3908C22.9649 17.6756 23.3301 16.8432 22.1968 15.788C21.076 14.7446 20.182 15.0846 19.4138 15.7997Z" stroke="#2C79FF" stroke-width="1.5" stroke-miterlimit="10" stroke-linecap="round" stroke-linejoin="round"/>
<path d="M18.7693 16.3975C19.1471 17.6637 20.2049 18.6485 21.5649 19.0002" stroke="#2C79FF" stroke-width="1.5" stroke-miterlimit="10" stroke-linecap="round" stroke-linejoin="round"/>
</g>
<defs>
<clipPath id="clip0_727_4919">
<rect width="24" height="24" fill="white"/>
</clipPath>
</defs>
</svg>
