<svg width="24" height="24" viewBox="0 0 24 24" fill="none" xmlns="http://www.w3.org/2000/svg">
<path d="M5 15V8" stroke="#2C79FF" stroke-width="1.5" stroke-linecap="round" stroke-linejoin="round"/>
<path d="M5.25 22C7.04493 22 8.5 20.545 8.5 18.75C8.5 16.955 7.04493 15.5 5.25 15.5C3.45507 15.5 2 16.955 2 18.75C2 20.545 3.45507 22 5.25 22Z" stroke="#2C79FF" stroke-width="1.5" stroke-linecap="round" stroke-linejoin="round"/>
<path d="M5 8C6.65686 8 8 6.65686 8 5C8 3.34314 6.65686 2 5 2C3.34314 2 2 3.34314 2 5C2 6.65686 3.34314 8 5 8Z" stroke="#2C79FF" stroke-width="1.5" stroke-linecap="round" stroke-linejoin="round"/>
<path d="M19 8C20.6569 8 22 6.65686 22 5C22 3.34314 20.6569 2 19 2C17.3431 2 16 3.34314 16 5C16 6.65686 17.3431 8 19 8Z" stroke="#2C79FF" stroke-width="1.5" stroke-linecap="round" stroke-linejoin="round"/>
<path d="M5.13 15C5.58 13.25 7.18 11.95 9.07002 11.96L12.5 11.97C15.12 11.98 17.35 10.3 18.17 7.95996" stroke="#2C79FF" stroke-width="1.5" stroke-linecap="round" stroke-linejoin="round"/>
</svg>
