<svg width="24" height="24" viewBox="0 0 24 24" fill="none" xmlns="http://www.w3.org/2000/svg">
<g clip-path="url(#clip0_727_5318)">
<path d="M22.1648 5.07692H18.0236V3.77884C18.0227 2.97586 17.7448 2.20604 17.2508 1.63823C16.7567 1.07043 16.087 0.751005 15.3883 0.75H8.61181C7.91313 0.751005 7.24339 1.07043 6.74934 1.63823C6.25532 2.20604 5.97739 2.97586 5.97652 3.77884V5.07692H1.83534C1.5358 5.07692 1.24854 5.21369 1.03673 5.45712C0.824923 5.70055 0.705933 6.03073 0.705933 6.375V15.0289C0.706878 15.2964 0.779726 15.557 0.914507 15.7752C1.04928 15.9933 1.23941 16.1582 1.45888 16.2474V21.9519C1.45888 22.2962 1.57787 22.6264 1.78967 22.8698C2.00147 23.1133 2.28875 23.25 2.58829 23.25H21.4118C21.7114 23.25 21.9986 23.1133 22.2104 22.8698C22.4223 22.6264 22.5412 22.2962 22.5412 21.9519V16.2474C22.7607 16.1582 22.9508 15.9933 23.0856 15.7752C23.2204 15.557 23.2932 15.2964 23.2942 15.0289V6.375C23.2942 6.03073 23.1752 5.70055 22.9634 5.45712C22.7516 5.21369 22.4643 5.07692 22.1648 5.07692ZM6.72946 3.77884C6.73009 3.20528 6.9286 2.65541 7.28151 2.24984C7.63438 1.84426 8.11276 1.6161 8.61181 1.61539H15.3883C15.8873 1.6161 16.3657 1.84426 16.7186 2.24984C17.0715 2.65541 17.27 3.20528 17.2707 3.77884V5.07692H16.5027L16.5177 3.77884C16.5169 3.43483 16.3977 3.10517 16.1861 2.86191C15.9745 2.61866 15.6876 2.48162 15.3883 2.48077H8.5977C8.2984 2.48162 8.01153 2.61866 7.79991 2.86191C7.58828 3.10517 7.46906 3.43483 7.46829 3.77884V3.78317L7.47866 5.07692H6.72946V3.77884ZM15.7647 3.7729L15.7497 5.07692H8.23156L8.21984 3.77884C8.21984 3.66409 8.25951 3.55403 8.3301 3.47289C8.40069 3.39174 8.49647 3.34616 8.59629 3.34616H15.3883C15.4872 3.34614 15.5822 3.39091 15.6527 3.47077C15.7232 3.55064 15.7634 3.65917 15.7647 3.7729ZM21.7883 21.9519C21.7883 22.0667 21.7486 22.1768 21.678 22.2579C21.6074 22.3391 21.5117 22.3847 21.4118 22.3847H2.58829C2.48844 22.3847 2.39268 22.3391 2.32208 22.2579C2.25148 22.1768 2.21181 22.0667 2.21181 21.9519V16.3269H4.84711V17.625C4.84711 17.7397 4.88677 17.8498 4.95738 17.9309C5.02798 18.0121 5.12373 18.0577 5.22358 18.0577H6.72946C6.82931 18.0577 6.92507 18.0121 6.99567 17.9309C7.06629 17.8498 7.10596 17.7397 7.10596 17.625V16.3269H16.8941V17.625C16.8941 17.7397 16.9338 17.8498 17.0044 17.9309C17.0751 18.0121 17.1708 18.0577 17.2707 18.0577H18.7765C18.8764 18.0577 18.9721 18.0121 19.0427 17.9309C19.1133 17.8498 19.153 17.7397 19.153 17.625V16.3269H21.7883V21.9519ZM5.60005 17.1923V15.0289C5.60004 14.9711 5.6103 14.914 5.63021 14.861C5.65012 14.8079 5.67925 14.7601 5.71581 14.7205C5.74969 14.6806 5.79025 14.649 5.83507 14.6276C5.87988 14.6062 5.928 14.5955 5.97652 14.5961C6.07637 14.5961 6.17212 14.6417 6.24273 14.7229C6.31333 14.804 6.35299 14.9141 6.35299 15.0289V17.1923H5.60005ZM17.6471 17.1923V15.0289C17.6471 14.9141 17.6868 14.804 17.7574 14.7229C17.828 14.6417 17.9237 14.5961 18.0236 14.5961C18.0738 14.5959 18.1235 14.6075 18.1697 14.6303C18.2158 14.6531 18.2574 14.6866 18.2918 14.7287C18.3264 14.7678 18.3539 14.8145 18.3725 14.8661C18.3911 14.9177 18.4005 14.973 18.4001 15.0289V17.1923H17.6471ZM22.5412 15.0289C22.5412 15.1436 22.5015 15.2536 22.4309 15.3348C22.3604 15.4159 22.2646 15.4615 22.1648 15.4615H19.153V15.0289C19.153 14.6846 19.034 14.3544 18.8222 14.111C18.6104 13.8675 18.3231 13.7308 18.0236 13.7308C17.724 13.7308 17.4368 13.8675 17.225 14.111C17.0132 14.3544 16.8941 14.6846 16.8941 15.0289V15.4615H7.10596V15.0289C7.10596 14.6846 6.98694 14.3544 6.77514 14.111C6.56333 13.8675 6.27606 13.7308 5.97652 13.7308C5.67698 13.7308 5.38971 13.8675 5.17791 14.111C4.9661 14.3544 4.84711 14.6846 4.84711 15.0289V15.4615H1.83534C1.7355 15.4615 1.63974 15.4159 1.56914 15.3348C1.49854 15.2536 1.45888 15.1436 1.45888 15.0289V6.375C1.45888 6.26024 1.49854 6.15019 1.56914 6.06904C1.63974 5.98789 1.7355 5.94231 1.83534 5.94231H22.1648C22.2646 5.94231 22.3604 5.98789 22.4309 6.06904C22.5015 6.15019 22.5412 6.26024 22.5412 6.375V15.0289Z" fill="#2C79FF" stroke="#2C79FF" stroke-width="0.5"/>
</g>
<defs>
<clipPath id="clip0_727_5318">
<rect width="24" height="24" fill="white"/>
</clipPath>
</defs>
</svg>
