<svg width="24" height="24" viewBox="0 0 24 24" fill="none" xmlns="http://www.w3.org/2000/svg">
<g clip-path="url(#clip0_727_8493)">
<path d="M9.61823 17.23C9.52979 17.2299 9.44423 17.1942 9.37689 17.1292L6.96357 14.8004C6.92245 14.7608 6.88943 14.7114 6.86677 14.6559C6.84413 14.6003 6.8324 14.5398 6.8324 14.4786C6.8324 14.4174 6.84413 14.3569 6.86677 14.3014C6.88943 14.2458 6.92245 14.1965 6.96357 14.1568L9.37689 11.828C9.45249 11.7584 9.5492 11.7251 9.64626 11.7352C9.74324 11.7453 9.83296 11.798 9.89614 11.8822C9.95924 11.9663 9.99087 12.0751 9.98409 12.1852C9.97739 12.2954 9.93284 12.3982 9.86007 12.4717L7.78237 14.4786L9.86007 16.4856C9.91816 16.5416 9.95974 16.6165 9.97908 16.7002C9.99842 16.7839 9.99468 16.8723 9.96828 16.9534C9.94195 17.0346 9.89423 17.1046 9.83162 17.154C9.76901 17.2036 9.69454 17.23 9.61823 17.23Z" fill="#2C79FF" stroke="#2C79FF" stroke-width="0.5"/>
<path d="M14.3819 17.23C14.3056 17.23 14.2312 17.2036 14.1686 17.154C14.1059 17.1046 14.0582 17.0346 14.0319 16.9534C14.0055 16.8723 14.0018 16.7839 14.0211 16.7002C14.0404 16.6165 14.082 16.5416 14.1401 16.4856L16.2178 14.4786L14.1401 12.4717C14.0673 12.3982 14.0228 12.2954 14.0161 12.1852C14.0093 12.0751 14.0409 11.9663 14.104 11.8822C14.1672 11.798 14.2569 11.7453 14.3539 11.7352C14.451 11.7251 14.5477 11.7584 14.6233 11.828L17.0366 14.1568C17.0777 14.1965 17.1107 14.2458 17.1334 14.3014C17.1561 14.3569 17.1678 14.4174 17.1678 14.4786C17.1678 14.5398 17.1561 14.6003 17.1334 14.6559C17.1107 14.7114 17.0777 14.7608 17.0366 14.8004L14.6233 17.1292C14.5559 17.1942 14.4704 17.2299 14.3819 17.23Z" fill="#2C79FF" stroke="#2C79FF" stroke-width="0.5"/>
<path d="M11.1476 18.9776C11.1217 18.9775 11.0958 18.9744 11.0704 18.9685C10.9737 18.9453 10.8891 18.8796 10.8352 18.7857C10.7812 18.6919 10.7624 18.5776 10.7827 18.468L12.2867 10.3774C12.3071 10.2677 12.3651 10.1717 12.448 10.1105C12.5308 10.0493 12.6318 10.028 12.7285 10.0511C12.8253 10.0742 12.91 10.14 12.964 10.2339C13.018 10.3278 13.0369 10.4422 13.0165 10.5519L11.512 18.6424C11.4943 18.7372 11.4485 18.8221 11.3821 18.8831C11.3159 18.9441 11.2331 18.9775 11.1476 18.9776Z" fill="#2C79FF" stroke="#2C79FF" stroke-width="0.5"/>
<path d="M20.7902 23.3864H3.20976C2.54594 23.3854 1.90956 23.0861 1.44018 22.5541C0.970789 22.0222 0.706719 21.3009 0.705872 20.5486V3.63754C0.706719 2.88522 0.970789 2.16399 1.44018 1.63202C1.90956 1.10004 2.54594 0.800765 3.20976 0.799805H20.7902C21.454 0.800765 22.0904 1.10004 22.5598 1.63202C23.0292 2.16399 23.2933 2.88522 23.2941 3.63754V20.5486C23.2933 21.3009 23.0292 22.0222 22.5598 22.5541C22.0904 23.0861 21.454 23.3854 20.7902 23.3864ZM3.20976 1.64508C2.74349 1.64508 2.29633 1.855 1.96663 2.22866C1.63693 2.60232 1.45171 3.10911 1.45171 3.63754V20.5486C1.45171 21.0771 1.63693 21.5839 1.96663 21.9575C2.29633 22.3312 2.74349 22.5411 3.20976 22.5411H20.7902C21.2565 22.5411 21.7037 22.3312 22.0333 21.9575C22.363 21.5839 22.5483 21.0771 22.5483 20.5486V3.63754C22.5483 3.10911 22.363 2.60232 22.0333 2.22866C21.7037 1.855 21.2565 1.64508 20.7902 1.64508H3.20976Z" fill="#2C79FF" stroke="#2C79FF" stroke-width="0.5"/>
<path d="M22.9212 7.56794H1.07879C0.979888 7.56794 0.885032 7.52341 0.8151 7.44414C0.745161 7.36489 0.705872 7.25738 0.705872 7.1453C0.705872 7.0332 0.745161 6.9257 0.8151 6.84644C0.885032 6.76718 0.979888 6.72266 1.07879 6.72266H22.9212C23.0201 6.72266 23.115 6.76718 23.1849 6.84644C23.2548 6.9257 23.2941 7.0332 23.2941 7.1453C23.2941 7.25738 23.2548 7.36489 23.1849 7.44414C23.115 7.52341 23.0201 7.56794 22.9212 7.56794Z" fill="#2C79FF" stroke="#2C79FF" stroke-width="0.5"/>
<mask id="path-6-inside-1_727_8493" fill="white">
<path d="M7.07746 5.54484C6.84409 5.54484 6.61595 5.4664 6.4219 5.31945C6.22784 5.1725 6.07659 4.96363 5.98729 4.71926C5.89797 4.47489 5.87461 4.206 5.92013 3.94657C5.96566 3.68715 6.07805 3.44885 6.24308 3.26182C6.40811 3.07479 6.61837 2.94742 6.84727 2.89581C7.07619 2.84421 7.31343 2.8707 7.52908 2.97192C7.74466 3.07314 7.92896 3.24456 8.05863 3.46448C8.1883 3.6844 8.25748 3.94297 8.25748 4.20748C8.25706 4.56202 8.13261 4.9019 7.91139 5.1526C7.69023 5.4033 7.3903 5.54436 7.07746 5.54484ZM7.07746 3.7154C6.99161 3.7154 6.90766 3.74426 6.83626 3.79833C6.76486 3.8524 6.70921 3.92925 6.67635 4.01916C6.64349 4.10908 6.63489 4.20802 6.65164 4.30348C6.66839 4.39893 6.70975 4.48661 6.77047 4.55543C6.83119 4.62424 6.90855 4.67111 6.99278 4.6901C7.07703 4.70908 7.16428 4.69934 7.24362 4.66209C7.32296 4.62485 7.3908 4.56178 7.43852 4.48086C7.48623 4.39994 7.51165 4.3048 7.51165 4.20748C7.5115 4.07702 7.46576 3.95195 7.38437 3.8597C7.30292 3.76745 7.19259 3.71556 7.07746 3.7154Z"/>
</mask>
<path d="M7.07746 5.54484C6.84409 5.54484 6.61595 5.4664 6.4219 5.31945C6.22784 5.1725 6.07659 4.96363 5.98729 4.71926C5.89797 4.47489 5.87461 4.206 5.92013 3.94657C5.96566 3.68715 6.07805 3.44885 6.24308 3.26182C6.40811 3.07479 6.61837 2.94742 6.84727 2.89581C7.07619 2.84421 7.31343 2.8707 7.52908 2.97192C7.74466 3.07314 7.92896 3.24456 8.05863 3.46448C8.1883 3.6844 8.25748 3.94297 8.25748 4.20748C8.25706 4.56202 8.13261 4.9019 7.91139 5.1526C7.69023 5.4033 7.3903 5.54436 7.07746 5.54484ZM7.07746 3.7154C6.99161 3.7154 6.90766 3.74426 6.83626 3.79833C6.76486 3.8524 6.70921 3.92925 6.67635 4.01916C6.64349 4.10908 6.63489 4.20802 6.65164 4.30348C6.66839 4.39893 6.70975 4.48661 6.77047 4.55543C6.83119 4.62424 6.90855 4.67111 6.99278 4.6901C7.07703 4.70908 7.16428 4.69934 7.24362 4.66209C7.32296 4.62485 7.3908 4.56178 7.43852 4.48086C7.48623 4.39994 7.51165 4.3048 7.51165 4.20748C7.5115 4.07702 7.46576 3.95195 7.38437 3.8597C7.30292 3.76745 7.19259 3.71556 7.07746 3.7154Z" fill="#2C79FF"/>
<path d="M7.07746 5.54484V6.54484L7.07899 6.54484L7.07746 5.54484ZM5.98729 4.71926L6.92653 4.376L6.92652 4.37598L5.98729 4.71926ZM6.84727 2.89581L6.62738 1.92029L6.62733 1.9203L6.84727 2.89581ZM7.52908 2.97192L7.95411 2.06674L7.95397 2.06667L7.52908 2.97192ZM8.05863 3.46448L8.92005 2.95658L8.92004 2.95657L8.05863 3.46448ZM8.25748 4.20748L9.25748 4.20867V4.20748H8.25748ZM7.91139 5.1526L7.16157 4.49096L7.16148 4.49107L7.91139 5.1526ZM7.07746 3.7154L7.07885 2.7154H7.07746V3.7154ZM6.67635 4.01916L5.73713 3.67585L5.73709 3.67594L6.67635 4.01916ZM6.99278 4.6901L6.77281 5.66561L6.77297 5.66564L6.99278 4.6901ZM7.24362 4.66209L6.81873 3.75685L6.81866 3.75688L7.24362 4.66209ZM7.51165 4.20748H8.51165L8.51165 4.20639L7.51165 4.20748ZM7.38437 3.8597L8.13424 3.19811L8.13396 3.19779L7.38437 3.8597ZM7.07746 4.54484C7.07189 4.54484 7.05391 4.54368 7.0256 4.52224L5.81819 6.11666C6.17799 6.38913 6.61629 6.54484 7.07746 6.54484V4.54484ZM7.0256 4.52224C6.99533 4.49932 6.95465 4.45296 6.92653 4.376L5.04805 5.06252C5.19854 5.4743 5.46035 5.84568 5.81819 6.11666L7.0256 4.52224ZM6.92652 4.37598C6.89831 4.29879 6.88953 4.20804 6.90508 4.11943L4.93519 3.77371C4.85968 4.20395 4.89763 4.65099 5.04805 5.06255L6.92652 4.37598ZM6.90508 4.11943C6.92062 4.03088 6.95672 3.96448 6.99292 3.92344L5.49325 2.6002C5.19939 2.93323 5.01071 3.34341 4.93519 3.77371L6.90508 4.11943ZM6.99292 3.92344C7.02803 3.88365 7.05686 3.87366 7.06721 3.87133L6.62733 1.9203C6.17988 2.02118 5.78819 2.26593 5.49325 2.6002L6.99292 3.92344ZM7.06716 3.87134C7.07298 3.87002 7.07771 3.86988 7.08221 3.87039C7.08677 3.87089 7.09406 3.87241 7.10419 3.87716L7.95397 2.06667C7.5405 1.87261 7.07662 1.81902 6.62738 1.92029L7.06716 3.87134ZM7.10405 3.8771C7.12424 3.88658 7.16203 3.9127 7.19722 3.97239L8.92004 2.95657C8.6959 2.57642 8.36507 2.2597 7.95411 2.06674L7.10405 3.8771ZM7.19722 3.97237C7.23275 4.03265 7.25748 4.11479 7.25748 4.20748H9.25748C9.25748 3.77116 9.14386 3.33616 8.92005 2.95658L7.19722 3.97237ZM7.25748 4.20628C7.25733 4.33361 7.21154 4.43432 7.16157 4.49096L8.6612 5.81425C9.05368 5.36948 9.25679 4.79043 9.25748 4.20867L7.25748 4.20628ZM7.16148 4.49107C7.13783 4.51787 7.11675 4.53127 7.1032 4.53764C7.09001 4.54385 7.08122 4.54483 7.07592 4.54484L7.07899 6.54484C7.69968 6.54388 8.26532 6.26302 8.6613 5.81414L7.16148 4.49107ZM7.07746 2.7154C6.76381 2.7154 6.4697 2.82154 6.23254 3.00114L7.43999 4.59553C7.34563 4.66698 7.21941 4.7154 7.07746 4.7154V2.7154ZM6.23254 3.00114C5.99739 3.17922 5.83118 3.41855 5.73713 3.67585L7.61557 4.36248C7.58725 4.43996 7.53234 4.52559 7.43999 4.59553L6.23254 3.00114ZM5.73709 3.67594C5.64316 3.93299 5.61996 4.21004 5.66669 4.47632L7.63659 4.13064C7.64982 4.206 7.64382 4.28518 7.6156 4.36239L5.73709 3.67594ZM5.66669 4.47632C5.71343 4.74269 5.83111 5.00225 6.02063 5.21705L7.52031 3.89381C7.58839 3.97097 7.62335 4.05518 7.63659 4.13064L5.66669 4.47632ZM6.02063 5.21705C6.21128 5.43312 6.47007 5.59734 6.77281 5.66561L7.21275 3.71459C7.34704 3.74487 7.4511 3.81537 7.52031 3.89381L6.02063 5.21705ZM6.77297 5.66564C7.07749 5.73426 7.39137 5.69745 7.66859 5.5673L6.81866 3.75688C6.93719 3.70123 7.07658 3.68391 7.21259 3.71456L6.77297 5.66564ZM7.66851 5.56734C7.94324 5.43839 8.15766 5.23003 8.2999 4.98881L6.57713 3.97291C6.62394 3.89353 6.70268 3.81132 6.81873 3.75685L7.66851 5.56734ZM8.2999 4.98881C8.44193 4.74796 8.51165 4.47631 8.51165 4.20748H6.51165C6.51165 4.13328 6.53054 4.05192 6.57713 3.97291L8.2999 4.98881ZM8.51165 4.20639C8.51126 3.84894 8.38701 3.48461 8.13424 3.19811L6.63451 4.52129C6.54451 4.41928 6.51175 4.3051 6.51165 4.20856L8.51165 4.20639ZM8.13396 3.19779C7.87786 2.90777 7.50199 2.71599 7.07885 2.71541L7.07607 4.7154C6.88319 4.71514 6.72797 4.62713 6.63479 4.52161L8.13396 3.19779Z" fill="#2C79FF" mask="url(#path-6-inside-1_727_8493)"/>
<mask id="path-8-inside-2_727_8493" fill="white">
<path d="M3.4516 5.53237C3.21806 5.53249 2.98974 5.4541 2.79551 5.30714C2.60129 5.16016 2.44989 4.95121 2.36048 4.7067C2.27106 4.4622 2.24763 4.19313 2.29317 3.93354C2.3387 3.67394 2.45115 3.43548 2.61628 3.24833C2.78142 3.06117 2.99183 2.93373 3.22088 2.88213C3.44994 2.83052 3.68735 2.85706 3.90309 2.95841C4.11883 3.05975 4.3032 3.23134 4.43288 3.45146C4.56256 3.67157 4.63173 3.93034 4.63162 4.19502C4.63134 4.5496 4.50693 4.88958 4.28569 5.14031C4.06445 5.39105 3.76447 5.53205 3.4516 5.53237ZM3.4516 3.70234C3.3656 3.70222 3.28149 3.73101 3.20994 3.78507C3.13838 3.83913 3.08258 3.91604 3.04959 4.00605C3.0166 4.09606 3.00792 4.19514 3.02464 4.29076C3.04135 4.38637 3.08271 4.47421 3.14349 4.54317C3.20426 4.61213 3.28172 4.65912 3.36606 4.67818C3.4504 4.69724 3.53783 4.68752 3.6173 4.65025C3.69676 4.61298 3.76469 4.54982 3.81248 4.46879C3.86027 4.38776 3.88578 4.29248 3.88578 4.19502C3.88564 4.0645 3.83987 3.93937 3.75849 3.84702C3.67711 3.75468 3.56675 3.70265 3.4516 3.70234Z"/>
</mask>
<path d="M3.4516 5.53237C3.21806 5.53249 2.98974 5.4541 2.79551 5.30714C2.60129 5.16016 2.44989 4.95121 2.36048 4.7067C2.27106 4.4622 2.24763 4.19313 2.29317 3.93354C2.3387 3.67394 2.45115 3.43548 2.61628 3.24833C2.78142 3.06117 2.99183 2.93373 3.22088 2.88213C3.44994 2.83052 3.68735 2.85706 3.90309 2.95841C4.11883 3.05975 4.3032 3.23134 4.43288 3.45146C4.56256 3.67157 4.63173 3.93034 4.63162 4.19502C4.63134 4.5496 4.50693 4.88958 4.28569 5.14031C4.06445 5.39105 3.76447 5.53205 3.4516 5.53237ZM3.4516 3.70234C3.3656 3.70222 3.28149 3.73101 3.20994 3.78507C3.13838 3.83913 3.08258 3.91604 3.04959 4.00605C3.0166 4.09606 3.00792 4.19514 3.02464 4.29076C3.04135 4.38637 3.08271 4.47421 3.14349 4.54317C3.20426 4.61213 3.28172 4.65912 3.36606 4.67818C3.4504 4.69724 3.53783 4.68752 3.6173 4.65025C3.69676 4.61298 3.76469 4.54982 3.81248 4.46879C3.86027 4.38776 3.88578 4.29248 3.88578 4.19502C3.88564 4.0645 3.83987 3.93937 3.75849 3.84702C3.67711 3.75468 3.56675 3.70265 3.4516 3.70234Z" fill="#2C79FF"/>
<path d="M3.4516 5.53237L3.45211 6.53237L3.45262 6.53237L3.4516 5.53237ZM2.79551 5.30714L2.19208 6.10455L2.1921 6.10457L2.79551 5.30714ZM2.36048 4.7067L3.29965 4.36325L3.29964 4.36323L2.36048 4.7067ZM2.29317 3.93354L3.27813 4.10631L3.27813 4.10631L2.29317 3.93354ZM2.61628 3.24833L1.86646 2.58669L1.86645 2.58671L2.61628 3.24833ZM3.22088 2.88213L3.44065 3.85768L3.44067 3.85767L3.22088 2.88213ZM3.90309 2.95841L3.47791 3.86352L3.47792 3.86352L3.90309 2.95841ZM4.43288 3.45146L3.57128 3.95904L3.5713 3.95908L4.43288 3.45146ZM4.63162 4.19502L5.63162 4.19581L5.63162 4.19542L4.63162 4.19502ZM3.4516 3.70234L3.45431 2.70234L3.45299 2.70234L3.4516 3.70234ZM3.20994 3.78507L3.81273 4.58297L3.81277 4.58294L3.20994 3.78507ZM3.04959 4.00605L3.98852 4.35015L3.98853 4.35013L3.04959 4.00605ZM3.02464 4.29076L2.03958 4.46296L2.03958 4.46298L3.02464 4.29076ZM3.14349 4.54317L2.39323 5.20432L2.39327 5.20436L3.14349 4.54317ZM3.36606 4.67818L3.58652 3.70278L3.58645 3.70276L3.36606 4.67818ZM3.6173 4.65025L4.04193 5.55561L4.04197 5.5556L3.6173 4.65025ZM3.81248 4.46879L2.95115 3.96075L2.95111 3.96081L3.81248 4.46879ZM3.88578 4.19502H4.88579L4.88578 4.19393L3.88578 4.19502ZM3.75849 3.84702L3.00822 4.50816L3.00825 4.50819L3.75849 3.84702ZM3.45108 4.53237C3.44539 4.53237 3.42731 4.53118 3.39893 4.50971L2.1921 6.10457C2.55217 6.37702 2.99074 6.5326 3.45211 6.53237L3.45108 4.53237ZM3.39895 4.50972C3.36858 4.48674 3.32783 4.44031 3.29965 4.36325L1.42131 5.05015C1.57196 5.4621 1.834 5.83357 2.19208 6.10455L3.39895 4.50972ZM3.29964 4.36323C3.27136 4.28591 3.26257 4.19502 3.27813 4.10631L1.30821 3.76076C1.23269 4.19123 1.27075 4.63849 1.42132 5.05018L3.29964 4.36323ZM3.27813 4.10631C3.29369 4.0176 3.32984 3.95107 3.36612 3.90995L1.86645 2.58671C1.57246 2.91989 1.38372 3.33027 1.3082 3.76076L3.27813 4.10631ZM3.36611 3.90996C3.40134 3.87004 3.43026 3.86002 3.44065 3.85768L3.00111 1.90658C2.55339 2.00744 2.16151 2.25231 1.86646 2.58669L3.36611 3.90996ZM3.44067 3.85767C3.44654 3.85635 3.45131 3.85621 3.45586 3.85672C3.46046 3.85723 3.46777 3.85876 3.47791 3.86352L4.32826 2.0533C3.91463 1.85899 3.45051 1.80532 3.00108 1.90658L3.44067 3.85767ZM3.47792 3.86352C3.4982 3.87305 3.53604 3.89923 3.57128 3.95904L5.29448 2.94387C5.07036 2.56344 4.73946 2.24645 4.32825 2.05329L3.47792 3.86352ZM3.5713 3.95908C3.60693 4.01955 3.63166 4.10186 3.63162 4.19462L5.63162 4.19542C5.63179 3.75881 5.5182 3.32359 5.29446 2.94383L3.5713 3.95908ZM3.63162 4.19422C3.63152 4.32144 3.58577 4.42211 3.53585 4.47869L5.03553 5.80193C5.42808 5.35704 5.63116 4.77776 5.63162 4.19581L3.63162 4.19422ZM3.53585 4.47869C3.51218 4.50552 3.49111 4.51889 3.47762 4.52523C3.46449 4.53141 3.45579 4.53236 3.45057 4.53237L3.45262 6.53237C4.07359 6.53173 4.63942 6.25085 5.03553 5.80193L3.53585 4.47869ZM3.45299 2.70234C3.13916 2.7019 2.84468 2.8077 2.6071 2.9872L3.81277 4.58294C3.71831 4.65431 3.59204 4.70253 3.4502 4.70233L3.45299 2.70234ZM2.60714 2.98718C2.37155 3.16516 2.20498 3.40457 2.11065 3.66198L3.98853 4.35013C3.96018 4.42751 3.90521 4.51311 3.81273 4.58297L2.60714 2.98718ZM2.11066 3.66196C2.01638 3.9192 1.99299 4.19649 2.03958 4.46296L4.0097 4.11855C4.02285 4.1938 4.01683 4.27292 3.98852 4.35015L2.11066 3.66196ZM2.03958 4.46298C2.08617 4.72948 2.20371 4.98926 2.39323 5.20432L3.89374 3.88203C3.9617 3.95915 3.99653 4.04325 4.0097 4.11854L2.03958 4.46298ZM2.39327 5.20436C2.58385 5.42061 2.8427 5.58513 3.14567 5.65359L3.58645 3.70276C3.72074 3.73311 3.82467 3.80366 3.8937 3.88199L2.39327 5.20436ZM3.1456 5.65357C3.45031 5.72244 3.7645 5.68574 4.04193 5.55561L3.19267 3.74488C3.31117 3.6893 3.4505 3.67204 3.58652 3.70278L3.1456 5.65357ZM4.04197 5.5556C4.31697 5.4266 4.53153 5.2181 4.67384 4.97678L2.95111 3.96081C2.99785 3.88155 3.07656 3.79935 3.19264 3.7449L4.04197 5.5556ZM4.67381 4.97683C4.81576 4.73618 4.88578 4.46443 4.88578 4.19502H2.88578C2.88578 4.12053 2.90479 4.03934 2.95115 3.96075L4.67381 4.97683ZM4.88578 4.19393C4.8854 3.8363 4.76106 3.47218 4.50872 3.18585L3.00825 4.50819C2.91868 4.40655 2.88589 4.2927 2.88579 4.1961L4.88578 4.19393ZM4.50875 3.18589C4.25288 2.89552 3.87719 2.70348 3.45431 2.70234L3.44889 4.70233C3.25631 4.70181 3.10134 4.61383 3.00822 4.50816L4.50875 3.18589Z" fill="#2C79FF" mask="url(#path-8-inside-2_727_8493)"/>
<path d="M10.7033 5.55753C10.47 5.55741 10.2419 5.47888 10.0479 5.33185C9.85395 5.18483 9.70275 4.97592 9.61353 4.73154C9.5243 4.48716 9.50101 4.21828 9.54661 3.95889C9.59221 3.69952 9.70466 3.46128 9.86969 3.2743C10.0347 3.08733 10.245 2.96002 10.4739 2.90847C10.7028 2.85691 10.94 2.88343 11.1556 2.98467C11.3712 3.08591 11.5554 3.25733 11.6851 3.47724C11.8148 3.69715 11.8839 3.95569 11.8839 4.22017C11.8838 4.57492 11.7593 4.91508 11.538 5.16586C11.3165 5.41665 11.0164 5.55753 10.7033 5.55753ZM10.7033 3.72809C10.6175 3.72821 10.5336 3.75717 10.4623 3.81132C10.391 3.86546 10.3354 3.94236 10.3026 4.03228C10.2699 4.12221 10.2613 4.22113 10.2781 4.31654C10.2949 4.41196 10.3364 4.49957 10.3971 4.56833C10.4578 4.63709 10.5352 4.6839 10.6194 4.70284C10.7036 4.72177 10.7909 4.712 10.8701 4.67473C10.9495 4.63747 11.0172 4.5744 11.065 4.49349C11.1126 4.41258 11.1381 4.31747 11.1381 4.22017C11.138 4.08961 11.0921 3.96445 11.0105 3.87219C10.9291 3.77992 10.8185 3.72809 10.7033 3.72809Z" fill="#2C79FF"/>
</g>
<defs>
<clipPath id="clip0_727_8493">
<rect width="24" height="24" fill="white"/>
</clipPath>
</defs>
</svg>
