<svg width="24" height="24" viewBox="0 0 24 24" fill="none" xmlns="http://www.w3.org/2000/svg">
<path d="M17.7353 20.0005C17.6814 20.0005 17.6285 19.9895 17.5764 19.9675L6.10584 14.9675C5.93555 14.8935 5.82349 14.7075 5.82349 14.5005V8.50049C5.82349 8.29349 5.93555 8.10749 6.10584 8.03349L17.5764 3.03349C17.7132 2.97349 17.8641 2.99549 17.985 3.08849C18.105 3.18149 18.1764 3.33549 18.1764 3.50049V19.5005C18.1764 19.6655 18.105 19.8195 17.985 19.9125C17.91 19.9705 17.8235 20.0005 17.7353 20.0005ZM6.70584 14.1565L17.2941 18.7725V4.22849L6.70584 8.84449V14.1565Z" fill="#2C79FF" stroke="#2C79FF"/>
<path d="M6.26468 15H3.17645C2.20321 15 1.41174 14.103 1.41174 13V10C1.41174 8.897 2.20321 8 3.17645 8H6.26468C6.50821 8 6.70586 8.224 6.70586 8.5V14.5C6.70586 14.776 6.50821 15 6.26468 15ZM3.17645 9C2.68939 9 2.2941 9.448 2.2941 10V13C2.2941 13.552 2.68939 14 3.17645 14H5.82351V9H3.17645Z" fill="#2C79FF" stroke="#2C79FF"/>
<path d="M8.02937 22H5.38231C5.16261 22 4.97643 21.817 4.94555 21.57L4.06319 14.57C4.02878 14.297 4.19643 14.044 4.43819 14.005C4.67466 13.971 4.90231 14.156 4.93672 14.43L5.76525 21H7.53525L6.94584 15.046C6.91937 14.772 7.09319 14.525 7.33496 14.493C7.56878 14.464 7.79466 14.66 7.8229 14.934L8.46702 21.444C8.48113 21.586 8.44143 21.727 8.35761 21.833C8.27466 21.939 8.15555 22 8.02937 22Z" fill="#2C79FF" stroke="#2C79FF"/>
<path d="M19.5001 8.99973C19.358 8.99973 19.2186 8.92173 19.133 8.77673C18.998 8.54773 19.0527 8.23673 19.2556 8.08373L21.9027 6.08373C22.1039 5.93173 22.3783 5.99173 22.5142 6.22273C22.6492 6.45173 22.5945 6.76273 22.3915 6.91573L19.7445 8.91573C19.6695 8.97273 19.5848 8.99973 19.5001 8.99973Z" fill="#2C79FF" stroke="#2C79FF"/>
<path d="M22.147 18.0004C22.0623 18.0004 21.9776 17.9734 21.9026 17.9164L19.2555 15.9164C19.0535 15.7634 18.9979 15.4524 19.1329 15.2234C19.2688 14.9934 19.5441 14.9324 19.7444 15.0844L22.3914 17.0844C22.5935 17.2374 22.6491 17.5484 22.5141 17.7774C22.4285 17.9224 22.2891 18.0004 22.147 18.0004Z" fill="#2C79FF" stroke="#2C79FF"/>
<path d="M22.1471 12.5H19.5C19.2565 12.5 19.0588 12.276 19.0588 12C19.0588 11.724 19.2565 11.5 19.5 11.5H22.1471C22.3906 11.5 22.5883 11.724 22.5883 12C22.5883 12.276 22.3906 12.5 22.1471 12.5Z" fill="#2C79FF" stroke="#2C79FF"/>
</svg>
