<svg width="20" height="20" viewBox="0 0 20 20" fill="none" xmlns="http://www.w3.org/2000/svg">
<path d="M17.2559 16.0775L14.4264 13.248C15.3047 12.1187 15.8333 10.7047 15.8333 9.16667C15.8333 5.49072 12.8426 2.5 9.16667 2.5C5.49072 2.5 2.5 5.49072 2.5 9.16667C2.5 12.8426 5.49072 15.8333 9.16667 15.8333C10.7047 15.8333 12.1187 15.3047 13.248 14.4264L16.0775 17.2559C16.2402 17.4186 16.4535 17.5 16.6667 17.5C16.8799 17.5 17.0931 17.4186 17.2559 17.2559C17.5814 16.9303 17.5814 16.403 17.2559 16.0775ZM4.16667 9.16667C4.16667 6.40951 6.40951 4.16667 9.16667 4.16667C11.9238 4.16667 14.1667 6.40951 14.1667 9.16667C14.1667 11.9238 11.9238 14.1667 9.16667 14.1667C6.40951 14.1667 4.16667 11.9238 4.16667 9.16667Z" fill="#626262"/>
</svg>
