<svg width="20" height="20" viewBox="0 0 20 20" fill="none" xmlns="http://www.w3.org/2000/svg">
<path d="M11.6663 9.99935C11.6663 9.07887 10.9201 8.33268 9.99967 8.33268C9.0792 8.33268 8.33301 9.07887 8.33301 9.99935C8.33301 10.9198 9.0792 11.666 9.99967 11.666C10.9201 11.666 11.6663 10.9198 11.6663 9.99935Z" stroke="white" stroke-width="1.5"/>
<path d="M10.0003 16.6673C10.0003 15.7468 9.25413 15.0007 8.33366 15.0007C7.41318 15.0007 6.66699 15.7468 6.66699 16.6673C6.66699 17.5878 7.41318 18.334 8.33366 18.334C9.25413 18.334 10.0003 17.5878 10.0003 16.6673Z" stroke="white" stroke-width="1.5"/>
<path d="M9.99967 3.33333C9.99967 2.41286 10.7459 1.66667 11.6663 1.66667C12.5868 1.66667 13.333 2.41286 13.333 3.33333C13.333 4.25381 12.5868 5 11.6663 5C10.7459 5 9.99968 4.25381 9.99967 3.33333Z" stroke="white" stroke-width="1.5"/>
<path d="M13.333 10H15.833" stroke="white" stroke-width="1.5" stroke-linecap="round"/>
<path d="M11.667 16.666H15.8337" stroke="white" stroke-width="1.5" stroke-linecap="round"/>
<path d="M8.33366 3.33398H4.16699" stroke="white" stroke-width="1.5" stroke-linecap="round"/>
<path d="M4.16699 10H6.66699" stroke="white" stroke-width="1.5" stroke-linecap="round"/>
<path d="M4.16699 16.666H5.00033" stroke="white" stroke-width="1.5" stroke-linecap="round"/>
<path d="M15.8333 3.33398H15" stroke="white" stroke-width="1.5" stroke-linecap="round"/>
</svg>
