<svg width="90" height="91" viewBox="0 0 90 91" fill="none" xmlns="http://www.w3.org/2000/svg">
<path d="M45.4458 0.910156H44.3433V14.5654H45.4458V0.910156Z" fill="#435FB5"/>
<path d="M62.1527 7.21681H49.6945V3.01172H62.1527L59.7171 5.11426L62.1527 7.21681Z" fill="#2C79FF"/>
<path d="M57.9054 0.910156H45.4458V5.11452H57.9054V0.910156Z" fill="#2C79FF"/>
<path d="M49.6982 7.21777V5.11523H57.9055L49.6982 7.21777Z" fill="#1A7541"/>
<path d="M87.0894 80.4766H2.69891L0.636353 86.3086H89.1527L87.0894 80.4766Z" fill="#2C79FF"/>
<path d="M70.3724 21.8184H19.4175L0.636353 36.0947H89.1527L70.3724 21.8184Z" fill="#2C79FF"/>
<path d="M87.0895 36.0957H2.69891V80.4775H87.0895V36.0957Z" fill="#879696"/>
<path d="M87.0895 37.8066H2.69891V80.4765H87.0895V37.8066Z" fill="#BDC3C7"/>
<path d="M44.8945 7.73828L17.9963 31.2459H71.7934L44.8945 7.73828Z" fill="#F9B316"/>
<path d="M44.8946 10.4746L21.1237 31.2448H68.6655L44.8946 10.4746Z" fill="#95A5A6"/>
<path d="M45.8109 12.3926L22.9534 31.2457H68.6683L45.8109 12.3926Z" fill="#E3E7E8"/>
<path d="M66.291 31.2461H23.4975V86.1057H66.291V31.2461Z" fill="#2C79FF"/>
<path d="M69.5346 31.2461H20.2546V33.3217H69.5346V31.2461Z" fill="#ECF0F1"/>
<path d="M65.3753 33.6055H24.4131V36.7H65.3753V33.6055Z" fill="#435FB5"/>
<path d="M68.9527 33.3223H20.8364V34.3601H68.9527V33.3223Z" fill="#F1C40F"/>
<path d="M69.5346 81.5312H20.2546V83.6069H69.5346V81.5312Z" fill="#BDC3C7"/>
<path d="M68.9527 80.4941H20.8364V81.532H68.9527V80.4941Z" fill="#F1C40F"/>
<path d="M70.8349 83.6074H18.9535V85.4874H70.8349V83.6074Z" fill="#ECF0F1"/>
<path d="M72.2196 85.3945H17.5695V87.2745H72.2196V85.3945Z" fill="#BDC3C7"/>
<path d="M73.6917 87.1836H16.0967V89.0629H73.6917V87.1836Z" fill="#ECF0F1"/>
<path d="M75.2582 88.9688H14.5302V90.848H75.2582V88.9688Z" fill="#BDC3C7"/>
<path d="M28.5273 34.3594H24.16V80.4932H28.5273V34.3594Z" fill="#435FB5"/>
<path d="M39.3622 34.3594H34.9957V80.4932H39.3622V34.3594Z" fill="#435FB5"/>
<path d="M58.7099 34.3594H54.3433V80.4932H58.7099V34.3594Z" fill="#435FB5"/>
<path d="M26.5418 34.3594H22.1753V80.4932H26.5418V34.3594Z" fill="#ECF0F1"/>
<path d="M37.3753 34.3594H33.0095V80.4932H37.3753V34.3594Z" fill="#ECF0F1"/>
<path d="M56.7244 34.3594H52.3571V80.4932H56.7244V34.3594Z" fill="#ECF0F1"/>
<path d="M67.5593 34.3594H63.1927V80.4932H67.5593V34.3594Z" fill="#ECF0F1"/>
<g style="mix-blend-mode:multiply">
<path d="M17.9331 55.3274V54.0234H7.19638V55.3274H17.9331Z" fill="#95A5A6"/>
</g>
<path d="M17.5062 54.3626V53.0586H6.7695V54.3626H17.5062Z" fill="#ECF0F1"/>
<path d="M16.8887 53.6995V41.8457H7.38692V53.6995H16.8887Z" fill="#ECF0F1"/>
<path d="M16.0204 43.0332H8.25385V52.5117H16.0204V43.0332Z" fill="#2980B9"/>
<path d="M16.0211 43.4676V43.0312H8.25385V52.0123C10.5043 48.8737 13.1108 46.0064 16.0211 43.4676Z" fill="#3498DB"/>
<g style="mix-blend-mode:multiply">
<path d="M17.9331 75.3938V74.0898H7.19638V75.3938H17.9331Z" fill="#95A5A6"/>
</g>
<path d="M17.5062 74.429V73.125H6.7695V74.429H17.5062Z" fill="#ECF0F1"/>
<path d="M16.8887 73.7659V61.9121H7.38692V73.7659H16.8887Z" fill="#ECF0F1"/>
<path d="M16.0204 63.0996H8.25385V72.5774H16.0204V63.0996Z" fill="#2980B9"/>
<path d="M16.0211 63.536V63.0996H8.25385V72.0807C10.504 68.9419 13.1105 66.0745 16.0211 63.536Z" fill="#3498DB"/>
<g style="mix-blend-mode:multiply">
<path d="M82.9556 55.3274V54.0234H72.2204V55.3274H82.9556Z" fill="#95A5A6"/>
</g>
<path d="M82.5287 54.3626V53.0586H71.7935V54.3626H82.5287Z" fill="#ECF0F1"/>
<path d="M81.9113 53.6995V41.8457H72.4109V53.6995H81.9113Z" fill="#ECF0F1"/>
<path d="M81.0444 43.0332H73.2778V52.5117H81.0444V43.0332Z" fill="#2980B9"/>
<path d="M81.0437 43.4676V43.0312H73.2778V52.0123C75.5278 48.8738 78.1338 46.0064 81.0437 43.4676Z" fill="#3498DB"/>
<g style="mix-blend-mode:multiply">
<path d="M82.9556 75.3938V74.0898H72.2204V75.3938H82.9556Z" fill="#95A5A6"/>
</g>
<path d="M82.5287 74.429V73.125H71.7935V74.429H82.5287Z" fill="#ECF0F1"/>
<path d="M81.9113 73.7659V61.9121H72.4109V73.7659H81.9113Z" fill="#ECF0F1"/>
<path d="M81.0444 63.0996H73.2778V72.5774H81.0444V63.0996Z" fill="#2980B9"/>
<path d="M81.0437 63.536V63.0996H73.2778V72.0807C75.5275 68.9419 78.1335 66.0745 81.0437 63.536Z" fill="#3498DB"/>
<path d="M46.1156 31.8807C44.1876 29.6786 39.6167 31.2989 37.6887 31.3767V22.5986C39.6167 22.5208 44.1876 20.9018 46.1156 23.1077V31.8807Z" fill="#95A5A6"/>
<path d="M46.1149 31.8807C48.0429 29.6786 52.6138 31.2989 54.5426 31.3767V22.5986C52.6138 22.5208 48.0422 20.9018 46.1149 23.1077V31.8807Z" fill="#95A5A6"/>
<path d="M44.8946 30.66C42.9666 28.4579 38.3957 30.0782 36.4677 30.156V21.3779C38.3957 21.3 42.9666 19.6811 44.8946 21.887V30.66Z" fill="#E67E22"/>
<path d="M44.8946 30.6608C42.9666 28.4586 39.3273 28.7168 37.3978 28.7953V20.0178C39.3266 19.94 42.9666 19.6811 44.8946 21.8833V30.6608Z" fill="#F39C12"/>
<path d="M44.8946 30.6605C42.9666 28.4583 40.5702 27.3943 38.64 27.4728V18.6954C40.568 18.6176 42.9644 19.6808 44.8946 21.883V30.6605Z" fill="#F1C40F"/>
<path d="M44.8946 30.66C46.8226 28.4579 51.3935 30.0782 53.3222 30.156V21.3779C51.3935 21.3 46.8219 19.6811 44.8946 21.887V30.66Z" fill="#D35400"/>
<path d="M44.8946 30.6608C46.8226 28.4586 50.4633 28.7168 52.3906 28.7953V20.0178C50.4626 19.94 46.8219 19.6811 44.8946 21.8833V30.6608Z" fill="#E67E22"/>
<path d="M44.8946 30.6605C46.8226 28.4583 49.219 27.3943 51.1491 27.4728V18.6954C49.2204 18.6176 46.8233 19.6808 44.8946 21.883V30.6605Z" fill="#F1C40F"/>
<path d="M47.4975 19.7266C46.5177 20.2981 45.6384 21.0266 44.8946 21.8829V30.6604C45.6384 29.804 46.5177 29.0756 47.4975 28.504V19.7266Z" fill="#F39C12"/>
<path d="M55.4618 39.7656C47.0982 46.5547 38.7214 66.7016 38.7214 66.7016L31.8923 52.0296L26.7105 52.1387L38.864 75.0223C47.8429 55.3133 63.5614 40.642 63.5614 40.642C60.8912 40.1212 58.1816 39.828 55.4618 39.7656Z" fill="#F9B316"/>
</svg>
