<svg width="91" height="92" viewBox="0 0 91 92" fill="none" xmlns="http://www.w3.org/2000/svg">
<path d="M77.0916 27.707H0.696777V77.6943H77.0916V27.707Z" fill="#2C79FF"/>
<path d="M0.696777 27.7069L38.8931 0.970703L77.0916 27.7069H0.696777Z" fill="#2C79FF"/>
<path d="M0.696777 27.707L38.8938 52.6992L77.0945 27.707H0.696777Z" fill="#435FB5"/>
<path d="M0.696777 77.6933L36.065 56.5957L0.696777 71.7763V77.6933Z" fill="#435FB5"/>
<path d="M77.128 77.6933L41.7598 56.5957L77.128 71.7763V77.6933Z" fill="#435FB5"/>
<path d="M11.9369 35.0612L38.8916 52.7005L65.8464 35.0612V10.5039H11.9369V35.0612Z" fill="white"/>
<path d="M36.5691 16.748H18.3805V34.936H36.5691V16.748Z" fill="#F9B316"/>
<path d="M27.4752 16.748H18.3805V34.936H27.4752V16.748Z" fill="#F9B316"/>
<path d="M27.4738 28.2149C28.6535 28.2149 29.7849 27.7462 30.6192 26.912C31.4534 26.0778 31.922 24.9464 31.922 23.7666C31.922 22.5869 31.4534 21.4554 30.6192 20.6212C29.7849 19.787 28.6535 19.3184 27.4738 19.3184V28.2149Z" fill="white"/>
<path d="M27.4738 28.2149C26.294 28.2149 25.1626 27.7462 24.3284 26.912C23.4942 26.0778 23.0255 24.9464 23.0255 23.7666C23.0255 22.5869 23.4942 21.4554 24.3284 20.6212C25.1626 19.787 26.294 19.3184 27.4738 19.3184V28.2149Z" fill="white"/>
<path d="M27.4737 32.7452V28.2656C26.2793 28.2662 25.1329 28.7362 24.2818 29.5741C23.4306 30.4121 22.9428 31.5509 22.9235 32.7452H27.4737Z" fill="white"/>
<path d="M32.024 32.7452C32.0053 31.5508 31.5176 30.4116 30.6663 29.5735C29.815 28.7354 28.6684 28.2657 27.4738 28.2656V32.7452H32.024Z" fill="white"/>
<path d="M59.8071 18.0957H41.7598V19.7895H59.8071V18.0957Z" fill="#F9B316"/>
<path d="M59.8071 22.541H41.7598V24.2348H59.8071V22.541Z" fill="#F9B316"/>
<path d="M59.8071 26.9863H41.7598V28.6801H59.8071V26.9863Z" fill="#F9B316"/>
<path d="M59.8071 31.4316H41.7598V33.1254H59.8071V31.4316Z" fill="#F9B316"/>
<path d="M70.2051 83.7287V78.1432H66.2595C65.4747 78.1434 64.7222 78.4553 64.1673 79.0102C63.6124 79.5651 63.3005 80.3177 63.3003 81.1024V91.5718H48.1117V71.924C48.1115 70.7456 48.3434 69.5788 48.7942 68.4901C49.2449 67.4015 49.9057 66.4122 50.7388 65.5789C51.5719 64.7456 52.561 64.0846 53.6496 63.6335C54.7382 63.1825 55.9049 62.9503 57.0833 62.9502H70.2051V57.3633L90.513 70.4611L90.6448 70.5449L70.2051 83.7287Z" fill="#F9B316"/>
<path d="M70.2058 83.7271V78.1416H66.2602C65.4754 78.1418 64.7228 78.4536 64.1679 79.0085C63.613 79.5635 63.3012 80.316 63.301 81.1008V91.5724H55.5905V74.161C55.5903 73.6752 55.6858 73.1941 55.8716 72.7452C56.0574 72.2963 56.3298 71.8884 56.6733 71.5448C57.0167 71.2012 57.4245 70.9286 57.8734 70.7426C58.3222 70.5567 58.8032 70.4609 59.2891 70.4609H90.5136L90.6455 70.5447L70.2058 83.7271Z" fill="#F9B316"/>
</svg>
