<svg width="69" height="91" viewBox="0 0 69 91" fill="none" xmlns="http://www.w3.org/2000/svg">
<path d="M65.3562 0.849609H3.64386C2.03996 0.849609 0.739746 2.14982 0.739746 3.75372V87.9729C0.739746 89.5768 2.03996 90.877 3.64386 90.877H65.3562C66.9601 90.877 68.2603 89.5768 68.2603 87.9729V3.75372C68.2603 2.14982 66.9601 0.849609 65.3562 0.849609Z" fill="#2C79FF"/>
<path d="M59.8608 39.1602H8.65918V40.8867H59.8608V39.1602Z" fill="#F9B316"/>
<path d="M59.8608 43.6934H8.65918V45.422H59.8608V43.6934Z" fill="#F9B316"/>
<path d="M59.8608 48.2305H8.65918V49.9584H59.8608V48.2305Z" fill="#F9B316"/>
<path d="M59.8608 52.7656H8.65918V54.4943H59.8608V52.7656Z" fill="#F9B316"/>
<path d="M59.8608 16.582H8.65918V18.3107H59.8608V16.582Z" fill="#F9B316"/>
<path d="M59.8608 21.1172H8.65918V22.8459H59.8608V21.1172Z" fill="#F9B316"/>
<path d="M59.8608 25.6523H8.65918V27.381H59.8608V25.6523Z" fill="#F9B316"/>
<path d="M59.8608 30.1875H8.65918V31.9155H59.8608V30.1875Z" fill="#F9B316"/>
<path d="M59.8608 60.0371H8.6062V61.7658H59.8608V60.0371Z" fill="#F9B316"/>
<path d="M59.8608 64.5723H8.6062V66.3009H59.8608V64.5723Z" fill="#F9B316"/>
<path d="M59.8608 69.1074H8.6062V70.8361H59.8608V69.1074Z" fill="#F9B316"/>
<path d="M59.8608 73.6426H8.6062V75.3712H59.8608V73.6426Z" fill="#F9B316"/>
</svg>
