<svg width="94" height="93" viewBox="0 0 94 93" fill="none" xmlns="http://www.w3.org/2000/svg">
<path d="M32.1949 51.9767C38.6632 51.9767 44.8666 49.4072 49.4403 44.8334C54.0141 40.2596 56.5836 34.0562 56.5836 27.5879C56.5836 21.1197 54.0141 14.9163 49.4403 10.3425C44.8666 5.76874 38.6632 3.19922 32.1949 3.19922V51.9767Z" fill="#FCDC97"/>
<path d="M32.1949 51.9767C25.7266 51.9767 19.5232 49.4072 14.9494 44.8334C10.3757 40.2596 7.80615 34.0562 7.80615 27.5879C7.80615 21.1197 10.3757 14.9163 14.9494 10.3425C19.5232 5.76874 25.7266 3.19922 32.1949 3.19922V51.9767Z" fill="#FCE5AC"/>
<path d="M32.1956 46.0645H23.4858V63.8455H32.1956V46.0645Z" fill="#FCE5AC"/>
<path d="M40.9054 46.0645H32.1956V63.8455H40.9054V46.0645Z" fill="#FCDC97"/>
<path d="M42.552 0.181641H21.8385C19.9958 0.181545 18.1711 0.544427 16.4686 1.24957C14.7661 1.95471 13.2192 2.98829 11.9162 4.2913C10.6132 5.59431 9.57959 7.14123 8.87445 8.84371C8.1693 10.5462 7.80642 12.3709 7.80652 14.2136V27.5904C7.80652 27.5904 19.5883 20.6733 22.9592 15.7693C30.84 24.3976 56.584 27.5904 56.584 27.5904V14.2136C56.5841 12.3709 56.2212 10.5462 55.516 8.84371C54.8109 7.14123 53.7773 5.59431 52.4743 4.2913C51.1713 2.98829 49.6244 1.95471 47.9219 1.24957C46.2194 0.544427 44.3947 0.181545 42.552 0.181641Z" fill="#010F2E"/>
<path d="M32.1949 92.0914H0.454529V73.746C0.454722 69.004 2.33844 64.4563 5.69137 61.1031C9.0443 57.7499 13.5918 55.8658 18.3338 55.8652H32.1949V92.0914Z" fill="#2C79FF"/>
<path d="M32.1949 92.0914H63.9367V73.746C63.9365 69.004 62.0528 64.4563 58.6999 61.1031C55.3469 57.7499 50.7994 55.8658 46.0574 55.8652H32.1949V92.0914Z" fill="#2C79FF"/>
<path d="M23.4858 53.7285L32.1942 86.5794V55.866L23.4858 53.7285Z" fill="white"/>
<path d="M32.1956 55.866V86.5787L40.9062 53.7285L32.1956 55.866Z" fill="white"/>
<path d="M32.0102 60.2129L27.8407 79.9569L32.1956 86.5751L32.0102 60.2129Z" fill="#FDC00E"/>
<path d="M32.0102 60.2129L36.8276 79.5358L32.1956 86.5787L32.0102 60.2129Z" fill="#F99C1D"/>
<path d="M35.0909 55.8652H28.9287C28.2294 55.8652 27.6625 56.4321 27.6625 57.1314V63.2936C27.6625 63.9929 28.2294 64.5598 28.9287 64.5598H35.0909C35.7902 64.5598 36.3571 63.9929 36.3571 63.2936V57.1314C36.3571 56.4321 35.7902 55.8652 35.0909 55.8652Z" fill="#FDC00E"/>
<path d="M33.4705 55.8652H32.0094V64.5605H33.4705C34.2363 64.5605 34.9707 64.2563 35.5121 63.7148C36.0536 63.1734 36.3578 62.439 36.3578 61.6732V58.7525C36.3574 57.9869 36.0531 57.2527 35.5117 56.7113C34.9703 56.1699 34.2362 55.8656 33.4705 55.8652Z" fill="#F99C1D"/>
<path d="M32.1971 86.5794L23.4858 53.7285L12.6109 56.8005L32.1971 86.5794Z" fill="#435FB5"/>
<path d="M32.1956 86.5794L40.9062 53.7285L51.7803 56.8005L32.1956 86.5794Z" fill="#435FB5"/>
<path d="M64.017 72.4615L67.8299 76.1035L70.2813 73.5371L66.4684 69.8951L64.017 72.4615Z" fill="#F9B316"/>
<path opacity="0.5" d="M63.0539 53.3388C64.6835 54.8944 65.8151 56.8984 66.3057 59.0973C66.7963 61.2961 66.6237 63.5911 65.8098 65.6919C64.996 67.7926 63.5774 69.6049 61.7334 70.8993C59.8895 72.1938 57.7031 72.9123 55.4508 72.964C53.1985 73.0158 50.9814 72.3984 49.08 71.19C47.1786 69.9815 45.6783 68.2363 44.7688 66.1751C43.8594 64.1139 43.5816 61.8294 43.9707 59.6103C44.3598 57.3912 45.3982 55.3374 46.9547 53.7086C49.0408 51.5252 51.9087 50.2597 54.9277 50.1903C57.9467 50.121 60.8697 51.2535 63.0539 53.3388Z" fill="#BEE4F9"/>
<g style="mix-blend-mode:multiply" opacity="0.5">
<path d="M43.8495 60.5235C43.7145 62.0128 43.8741 63.514 44.3193 64.9416C44.7645 66.3692 45.4865 67.6951 46.4441 68.8436C47.4017 69.9921 48.5761 70.9408 49.9004 71.6354C51.2246 72.3301 52.6727 72.7571 54.1619 72.8921C55.6512 73.0271 57.1525 72.8675 58.58 72.4223C60.0076 71.9771 61.3335 71.2551 62.482 70.2975C63.6305 69.3399 64.5792 68.1654 65.2738 66.8412C65.9685 65.517 66.3955 64.0689 66.5305 62.5796C58.9632 62.0064 51.4114 61.1872 43.8495 60.5235Z" fill="#BEE4F9"/>
</g>
<path d="M44.4717 51.3382C42.4475 53.4578 41.0973 56.1301 40.5918 59.0171C40.0864 61.9041 40.4483 64.8762 41.6319 67.5575C42.8156 70.2388 44.7677 72.5089 47.2415 74.0807C49.7153 75.6526 52.5996 76.4556 55.5298 76.3882C58.46 76.3208 61.3043 75.386 63.7032 73.7021C66.1021 72.0181 67.9478 69.6607 69.0069 66.9278C70.066 64.1949 70.2909 61.2093 69.6532 58.3486C69.0155 55.4879 67.5438 52.8805 65.4243 50.8562C64.0169 49.512 62.3585 48.4582 60.5439 47.755C58.7292 47.0518 56.7938 46.7128 54.8482 46.7576C52.9025 46.8023 50.9848 47.2299 49.2044 48.0158C47.424 48.8018 45.8158 49.9307 44.4717 51.3382ZM63.4234 69.4411C61.8676 71.0703 59.8636 72.2015 57.6648 72.6917C55.4661 73.1819 53.1713 73.0091 51.0708 72.1951C48.9703 71.3811 47.1583 69.9624 45.8641 68.1186C44.5698 66.2748 43.8514 64.0885 43.7997 61.8364C43.748 59.5842 44.3653 57.3674 45.5735 55.4661C46.7818 53.5648 48.5267 52.0645 50.5877 51.1549C52.6486 50.2453 54.933 49.9673 57.152 50.3561C59.3709 50.7449 61.4247 51.7829 63.0537 53.339C65.2377 55.4254 66.5035 58.2939 66.5728 61.3135C66.6421 64.3331 65.5093 67.2566 63.4234 69.4411Z" fill="#F9B316"/>
<g style="mix-blend-mode:multiply" opacity="0.31">
<path d="M44.4719 51.3362C42.4477 53.4559 41.0975 56.1281 40.592 59.0152C40.0865 61.9022 40.4485 64.8742 41.6321 67.5555C42.8158 70.2368 44.7679 72.5069 47.2417 74.0788C49.7155 75.6506 52.5998 76.4536 55.53 76.3862C58.4601 76.3188 61.3045 75.3841 63.7034 73.7001C66.1023 72.0162 67.948 69.6587 69.0071 66.9258C70.0662 64.1929 70.2911 61.2073 69.6534 58.3466C69.0157 55.4859 67.544 52.8785 65.4245 50.8542C64.0171 49.5101 62.3587 48.4563 60.5441 47.753C58.7294 47.0498 56.794 46.7109 54.8484 46.7556C52.9027 46.8004 50.985 47.228 49.2046 48.0139C47.4242 48.7998 45.816 49.9288 44.4719 51.3362ZM64.7351 70.693C62.9312 72.5814 60.6078 73.8926 58.0588 74.4607C55.5097 75.0287 52.8494 74.8281 50.4144 73.8842C47.9793 72.9403 45.8788 71.2956 44.3785 69.1579C42.8782 67.0202 42.0455 64.4857 41.9857 61.8748C41.9259 59.2639 42.6416 56.6939 44.0424 54.4897C45.4432 52.2856 47.4662 50.5464 49.8554 49.4919C52.2447 48.4375 54.893 48.1153 57.4654 48.566C60.0378 49.0166 62.4188 50.22 64.3073 52.0239C65.5614 53.2216 66.5673 54.6545 67.2676 56.2409C67.9678 57.8273 68.3488 59.5361 68.3886 61.2697C68.4285 63.0034 68.1265 64.7279 67.4998 66.3448C66.8732 67.9617 65.9342 69.4393 64.7365 70.6933L64.7351 70.693Z" fill="#F9B316"/>
</g>
<path d="M80.4618 90.8398L66.0309 77.0485L71.1505 71.6914L85.5814 85.4828L80.4618 90.8398Z" fill="black"/>
<g style="mix-blend-mode:multiply">
<path d="M80.9148 87.4918L67.9115 75.0704L66.0211 77.0487L80.4609 90.8416L85.5803 85.482L84.1464 84.1118L80.9148 87.4918Z" fill="#AEB0B3"/>
</g>
<path d="M62.571 56.3378C62.9921 56.8679 63.355 57.4418 63.6533 58.0496" stroke="white" stroke-width="3.00036" stroke-miterlimit="10"/>
<path d="M48.2407 55.6738C49.9827 53.8506 52.3776 52.7941 54.8986 52.7365C57.4195 52.6789 59.8602 53.625 61.6836 55.3668" stroke="white" stroke-width="3.00036" stroke-miterlimit="10"/>
</svg>
