<svg width="86" height="92" viewBox="0 0 86 92" fill="none" xmlns="http://www.w3.org/2000/svg">
<mask id="mask0_283_6245" style="mask-type:luminance" maskUnits="userSpaceOnUse" x="0" y="23" width="72" height="69">
<path d="M65.5455 23.4551H6.63642C3.42313 23.4551 0.818237 26.06 0.818237 29.2733V85.2733C0.818237 88.4866 3.42313 91.0914 6.63642 91.0914H65.5455C68.7588 91.0914 71.3637 88.4866 71.3637 85.2733V29.2733C71.3637 26.06 68.7588 23.4551 65.5455 23.4551Z" fill="white"/>
</mask>
<g mask="url(#mask0_283_6245)">
<path d="M69.4008 89.3194C69.2081 89.5252 69.0161 89.731 68.819 89.9332C59.9692 99.0853 48.0792 104.687 35.3872 105.684C22.6952 106.681 10.0765 103.004 -0.09375 95.3463V27.9623C-0.09375 26.8808 0.335874 25.8436 1.10061 25.0788C1.86535 24.3141 2.90257 23.8845 3.98407 23.8845H67.755C68.1308 23.8845 68.4992 23.989 68.819 24.1863V19.8066H71.0335C79.2876 29.4934 83.717 41.8627 83.4884 54.587C83.2598 67.3114 78.3888 79.5136 69.7921 88.8975V88.9019C69.7593 88.9375 69.7259 88.9746 69.6932 89.0074C69.5979 89.1121 69.499 89.2146 69.4008 89.3194Z" fill="#435FB5"/>
</g>
<mask id="mask1_283_6245" style="mask-type:luminance" maskUnits="userSpaceOnUse" x="4" y="19" width="64" height="73">
<path d="M61.9091 19.0898H10.2728C7.05948 19.0898 4.45459 21.6947 4.45459 24.908V85.2717C4.45459 88.485 7.05948 91.0898 10.2728 91.0898H61.9091C65.1224 91.0898 67.7273 88.485 67.7273 85.2717V24.908C67.7273 21.6947 65.1224 19.0898 61.9091 19.0898Z" fill="white"/>
</mask>
<g mask="url(#mask1_283_6245)">
<path d="M65.9767 89.1993C65.8044 89.4175 65.632 89.6356 65.456 89.8538C56.9411 100.327 45.008 106.836 31.7942 106.836C21.2175 106.836 11.4611 102.663 3.62109 95.6291V23.7018C3.62109 21.2982 5.25891 19.3491 7.28 19.3491H64.5018C64.8464 19.3516 65.1811 19.4645 65.4567 19.6713V15H67.4451C74.4175 24.7273 78.6284 37.3411 78.6284 51.1265C78.6284 65.6306 73.9666 78.8356 66.3309 88.7491V88.7542C66.3018 88.792 66.2713 88.8269 66.2422 88.8662C66.1535 88.9775 66.064 89.0873 65.9767 89.1993Z" fill="#2C79FF"/>
</g>
<path d="M46.4749 27.1719H9.52947C9.28451 27.1719 9.04958 27.2692 8.87636 27.4424C8.70315 27.6156 8.60583 27.8506 8.60583 28.0955V48.4148C8.60583 48.6597 8.70315 48.8947 8.87636 49.0679C9.04958 49.2411 9.28451 49.3384 9.52947 49.3384H46.4749C46.7199 49.3384 46.9548 49.2411 47.128 49.0679C47.3013 48.8947 47.3986 48.6597 47.3986 48.4148V28.0955C47.3986 27.9742 47.3747 27.8541 47.3283 27.7421C47.2818 27.63 47.2138 27.5282 47.128 27.4424C47.0423 27.3566 46.9405 27.2886 46.8284 27.2422C46.7163 27.1958 46.5962 27.1719 46.4749 27.1719ZM45.5513 47.4911H10.4538V29.0184H45.552L45.5513 47.4911ZM13.2248 45.6446H42.7804C43.0253 45.6446 43.2603 45.5473 43.4335 45.3741C43.6067 45.2009 43.704 44.9659 43.704 44.721V31.7901C43.704 31.5451 43.6067 31.3102 43.4335 31.137C43.2603 30.9637 43.0253 30.8664 42.7804 30.8664H13.2248C12.9798 30.8664 12.7449 30.9637 12.5716 31.137C12.3984 31.3102 12.3011 31.5451 12.3011 31.7901V44.721C12.3011 44.9659 12.3984 45.2009 12.5716 45.3741C12.7449 45.5473 12.9798 45.6446 13.2248 45.6446ZM14.1484 32.7137H41.8575V43.7973H14.1484V32.7137ZM39.0858 35.8541V36.9624C39.0858 37.0604 39.0469 37.1544 38.9776 37.2237C38.9083 37.293 38.8144 37.3319 38.7164 37.3319H27.448C27.35 37.3319 27.2561 37.293 27.1868 37.2237C27.1175 37.1544 27.0786 37.0604 27.0786 36.9624V35.8541C27.0786 35.8055 27.0881 35.7575 27.1067 35.7127C27.1253 35.6678 27.1525 35.6271 27.1868 35.5928C27.2211 35.5585 27.2618 35.5313 27.3066 35.5127C27.3515 35.4942 27.3995 35.4846 27.448 35.4846H38.7157C38.7642 35.4845 38.8124 35.494 38.8573 35.5125C38.9022 35.531 38.943 35.5582 38.9774 35.5926C39.0118 35.6269 39.039 35.6676 39.0577 35.7125C39.0763 35.7574 39.0858 35.8055 39.0858 35.8541ZM37.2386 39.5486V40.657C37.2386 40.7055 37.229 40.7535 37.2104 40.7983C37.1919 40.8432 37.1647 40.8839 37.1304 40.9182C37.0961 40.9525 37.0553 40.9797 37.0105 40.9983C36.9657 41.0169 36.9176 41.0264 36.8691 41.0264H32.9898C32.9413 41.0264 32.8933 41.0169 32.8485 40.9983C32.8036 40.9797 32.7629 40.9525 32.7286 40.9182C32.6943 40.8839 32.6671 40.8432 32.6485 40.7983C32.6299 40.7535 32.6204 40.7055 32.6204 40.657V39.5486C32.6204 39.4506 32.6593 39.3566 32.7286 39.2874C32.7979 39.2181 32.8918 39.1791 32.9898 39.1791H36.8691C36.9671 39.1791 37.0611 39.2181 37.1304 39.2874C37.1996 39.3566 37.2386 39.4506 37.2386 39.5486ZM30.7731 39.5486V40.657C30.7731 40.7055 30.7636 40.7535 30.745 40.7983C30.7264 40.8432 30.6992 40.8839 30.6649 40.9182C30.6306 40.9525 30.5899 40.9797 30.545 40.9983C30.5002 41.0169 30.4522 41.0264 30.4037 41.0264H27.448C27.3995 41.0264 27.3515 41.0169 27.3066 40.9983C27.2618 40.9797 27.2211 40.9525 27.1868 40.9182C27.1525 40.8839 27.1253 40.8432 27.1067 40.7983C27.0881 40.7535 27.0786 40.7055 27.0786 40.657V39.5486C27.0786 39.4506 27.1175 39.3566 27.1868 39.2874C27.2561 39.2181 27.35 39.1791 27.448 39.1791H30.4037C30.5016 39.1791 30.5956 39.2181 30.6649 39.2874C30.7342 39.3566 30.7731 39.4506 30.7731 39.5486ZM24.3077 38.2555C24.3077 38.9862 24.091 39.7005 23.685 40.3081C23.2791 40.9157 22.702 41.3892 22.027 41.6688C21.3519 41.9485 20.609 42.0216 19.8923 41.8791C19.1757 41.7365 18.5174 41.3846 18.0007 40.868C17.484 40.3513 17.1321 39.693 16.9896 38.9763C16.847 38.2596 16.9202 37.5168 17.1998 36.8417C17.4794 36.1666 17.953 35.5896 18.5605 35.1836C19.1681 34.7776 19.8824 34.561 20.6131 34.561C21.0983 34.561 21.5787 34.6565 22.027 34.8422C22.4752 35.0279 22.8825 35.3 23.2256 35.6431C23.5686 35.9861 23.8408 36.3934 24.0264 36.8417C24.2121 37.2899 24.3077 37.7703 24.3077 38.2555Z" fill="#F9B316"/>
<path d="M43.7032 55.3066C40.7805 55.3066 37.9235 56.1733 35.4933 57.7971C33.0632 59.4209 31.1691 61.7288 30.0507 64.429C28.9322 67.1292 28.6395 70.1005 29.2097 72.967C29.7799 75.8336 31.1873 78.4667 33.254 80.5333C35.3207 82.6 37.9538 84.0074 40.8203 84.5776C43.6868 85.1478 46.6581 84.8552 49.3583 83.7367C52.0586 82.6182 54.3665 80.7242 55.9902 78.294C57.614 75.8639 58.4807 73.0068 58.4807 70.0841C58.4761 66.1663 56.9177 62.4103 54.1474 59.64C51.3771 56.8696 47.621 55.3113 43.7032 55.3066ZM43.7032 83.0157C40.4353 83.0113 37.29 81.7711 34.8985 79.544C32.507 77.3169 31.0462 74.2678 30.8094 71.0085H35.3913C35.6362 71.0085 35.8711 70.9111 36.0443 70.7379C36.2176 70.5647 36.3149 70.3298 36.3149 70.0848C36.3149 69.8399 36.2176 69.6049 36.0443 69.4317C35.8711 69.2585 35.6362 69.1612 35.3913 69.1612H30.8094C31.0419 65.9002 32.5013 62.8485 34.8938 60.6206C37.2862 58.3926 40.434 57.1539 43.7032 57.1539C46.9724 57.1539 50.1202 58.3926 52.5127 60.6206C54.9052 62.8485 56.3646 65.9002 56.5971 69.1612H52.0152C51.7703 69.1612 51.5353 69.2585 51.3621 69.4317C51.1889 69.6049 51.0916 69.8399 51.0916 70.0848C51.0916 70.3298 51.1889 70.5647 51.3621 70.7379C51.5353 70.9111 51.7703 71.0085 52.0152 71.0085H56.5971C56.3602 74.2678 54.8995 77.3169 52.508 79.544C50.1165 81.7711 46.9711 83.0113 43.7032 83.0157ZM43.7032 63.6201C44.982 63.6201 46.232 63.9993 47.2953 64.7097C48.3585 65.4202 49.1872 66.4299 49.6765 67.6113C50.1659 68.7927 50.2939 70.0927 50.0445 71.3469C49.795 72.6011 49.1792 73.7531 48.275 74.6573C47.3708 75.5615 46.2188 76.1773 44.9646 76.4268C43.7104 76.6763 42.4104 76.5482 41.229 76.0589C40.0476 75.5695 39.0379 74.7408 38.3274 73.6776C37.617 72.6143 37.2378 71.3643 37.2378 70.0856C37.2377 69.2364 37.4049 68.3956 37.7297 67.6111C38.0546 66.8266 38.5308 66.1138 39.1312 65.5133C39.7316 64.9129 40.4444 64.4366 41.2289 64.1116C42.0133 63.7866 42.8541 63.6194 43.7032 63.6194V63.6201ZM35.0996 66.727C35.0105 66.9552 34.8344 67.1386 34.61 67.237C34.3857 67.3353 34.1314 67.3405 33.9032 67.2514C33.6751 67.1623 33.4916 66.9861 33.3933 66.7618C33.295 66.5374 33.2898 66.2832 33.3789 66.055C34.19 63.9768 35.6094 62.1918 37.4514 60.9334C39.2935 59.675 41.4724 59.0018 43.7032 59.0018C45.9341 59.0018 48.113 59.675 49.955 60.9334C51.7971 62.1918 53.2165 63.9768 54.0276 66.055C54.1167 66.2832 54.1115 66.5374 54.0132 66.7618C53.9149 66.9861 53.7314 67.1623 53.5032 67.2514C53.2751 67.3405 53.0208 67.3353 52.7965 67.237C52.5721 67.1386 52.396 66.9552 52.3069 66.727C51.6307 64.9955 50.4478 63.5082 48.9128 62.4597C47.3778 61.4113 45.5621 60.8504 43.7032 60.8504C41.8443 60.8504 40.0287 61.4113 38.4937 62.4597C36.9587 63.5082 35.7758 64.9955 35.0996 66.727ZM52.3069 73.4434C52.351 73.3304 52.417 73.2272 52.501 73.1397C52.585 73.0522 52.6854 72.9821 52.7965 72.9334C52.9076 72.8847 53.0272 72.8584 53.1484 72.8559C53.2697 72.8534 53.3903 72.8749 53.5032 72.919C53.6162 72.9631 53.7194 73.0291 53.8069 73.1131C53.8944 73.1971 53.9645 73.2975 54.0132 73.4086C54.0619 73.5197 54.0882 73.6393 54.0907 73.7605C54.0932 73.8818 54.0717 74.0024 54.0276 74.1154C53.2165 76.1935 51.7971 77.9785 49.955 79.2369C48.113 80.4954 45.9341 81.1686 43.7032 81.1686C41.4724 81.1686 39.2935 80.4954 37.4514 79.2369C35.6094 77.9785 34.19 76.1935 33.3789 74.1154C33.3347 74.0024 33.3133 73.8818 33.3158 73.7605C33.3183 73.6393 33.3446 73.5197 33.3933 73.4086C33.442 73.2975 33.5121 73.1971 33.5996 73.1131C33.6871 73.0291 33.7903 72.9631 33.9032 72.919C34.0162 72.8749 34.1368 72.8534 34.2581 72.8559C34.3793 72.8584 34.4989 72.8847 34.61 72.9334C34.7211 72.9821 34.8215 73.0522 34.9055 73.1397C34.9895 73.2272 35.0555 73.3304 35.0996 73.4434C35.7758 75.1749 36.9587 76.6622 38.4937 77.7106C40.0287 78.7591 41.8443 79.32 43.7032 79.32C45.5621 79.32 47.3778 78.7591 48.9128 77.7106C50.4478 76.6622 51.6307 75.1749 52.3069 73.4434Z" fill="#F9B316"/>
<path d="M79.4073 18.4231C72.1935 25.6348 60.5215 32.1919 57.3651 29.0355C54.2088 25.8791 60.7637 14.2071 67.9775 6.99404C75.1913 -0.219048 80.3324 -0.243775 83.488 2.91259C86.6437 6.06895 86.6211 11.2093 79.4073 18.4231Z" fill="#F9B316"/>
<path d="M68.6313 32.4612L63.0801 38.0124C62.7336 38.3589 62.2638 38.5535 61.7739 38.5535C61.2839 38.5535 60.8141 38.3589 60.4677 38.0124L48.3855 25.9332C48.0391 25.5867 47.8445 25.1169 47.8445 24.627C47.8445 24.1371 48.0391 23.6672 48.3855 23.3208L53.9368 17.7695C54.2832 17.4231 54.7531 17.2285 55.243 17.2285C55.7329 17.2285 56.2027 17.4231 56.5491 17.7695L68.6313 29.8517C68.9768 30.198 69.1709 30.6672 69.1709 31.1564C69.1709 31.6456 68.9768 32.1149 68.6313 32.4612Z" fill="#DF9E0C"/>
<path d="M69.448 43.0768L63.8967 48.628C63.5503 48.9744 63.0804 49.169 62.5905 49.169C62.1006 49.169 61.6308 48.9744 61.2843 48.628L37.7731 25.1168C37.4267 24.7703 37.2321 24.3005 37.2321 23.8106C37.2321 23.3207 37.4267 22.8508 37.7731 22.5044L43.3243 16.9531C43.6708 16.6067 44.1406 16.4121 44.6305 16.4121C45.1204 16.4121 45.5903 16.6067 45.9367 16.9531L69.448 40.4644C69.7944 40.8108 69.989 41.2807 69.989 41.7706C69.989 42.2605 69.7944 42.7303 69.448 43.0768Z" fill="#E78703"/>
<path d="M73.6931 44.0532L68.1418 49.6045C67.7954 49.9509 67.3255 50.1455 66.8356 50.1455C66.3457 50.1455 65.8759 49.9509 65.5295 49.6045L36.7935 20.8707C36.447 20.5242 36.2524 20.0544 36.2524 19.5645C36.2524 19.0746 36.447 18.6047 36.7935 18.2583L42.3447 12.707C42.6912 12.3606 43.161 12.166 43.6509 12.166C44.1408 12.166 44.6107 12.3606 44.9571 12.707L73.6931 41.443C74.0388 41.7894 74.233 42.2588 74.233 42.7481C74.233 43.2375 74.0388 43.7069 73.6931 44.0532Z" fill="#F9B316"/>
</svg>
