<svg width="79" height="86" viewBox="0 0 79 86" fill="none" xmlns="http://www.w3.org/2000/svg">
<path d="M0.454544 31.1849L39.2836 0.818359L78.1142 31.1849H0.454544Z" fill="#435FB5"/>
<path d="M78.1142 31.1855H0.454544V85.875H78.1142V31.1855Z" fill="#2C79FF"/>
<path d="M0.454544 85.8745L39.2836 58.5291L0.454544 31.1836V85.8745Z" fill="#2C79FF"/>
<path d="M78.1142 85.8745L39.2836 58.5291L78.1142 31.1836V85.8745Z" fill="#2C79FF"/>
<path d="M39.2844 58.5287L29.8029 51.8516L0.455276 85.8741H78.1149L48.7665 51.8516L39.2844 58.5287Z" fill="#435FB5"/>
<g style="mix-blend-mode:multiply">
<path d="M0.454544 31.1836L39.2836 51.3756L78.1149 31.1836L39.2844 58.5291L0.454544 31.1836Z" fill="#AEB0B3"/>
</g>
<path d="M69.6604 13.3926V37.6675L39.2873 58.53L8.91418 37.6675V13.3926H69.6604Z" fill="white"/>
<path d="M62.224 24.817C62.2236 25.0854 62.1168 25.3427 61.9271 25.5325C61.7373 25.7222 61.48 25.829 61.2116 25.8294H17.3571C17.0888 25.829 16.8317 25.7222 16.6422 25.5324C16.4526 25.3426 16.3462 25.0853 16.3462 24.817C16.3461 24.6842 16.3722 24.5526 16.4229 24.4299C16.4737 24.3071 16.5481 24.1955 16.642 24.1015C16.7358 24.0075 16.8473 23.9329 16.97 23.882C17.0927 23.831 17.2242 23.8048 17.3571 23.8047H61.2116C61.4801 23.8049 61.7375 23.9116 61.9273 24.1014C62.1171 24.2912 62.2238 24.5486 62.224 24.817Z" fill="#F9B316"/>
<path d="M62.224 31.1835C62.2238 31.4519 62.1171 31.7093 61.9273 31.8991C61.7375 32.089 61.4801 32.1957 61.2116 32.1959H17.3571C17.2242 32.1958 17.0927 32.1695 16.97 32.1186C16.8473 32.0677 16.7358 31.9931 16.642 31.8991C16.5481 31.8051 16.4737 31.6935 16.4229 31.5707C16.3722 31.4479 16.3461 31.3164 16.3462 31.1835C16.3461 31.0507 16.3722 30.9192 16.4229 30.7964C16.4737 30.6737 16.5481 30.5622 16.642 30.4682C16.7359 30.3743 16.8474 30.2997 16.9701 30.2489C17.0928 30.198 17.2243 30.1719 17.3571 30.1719H61.2116C61.4799 30.1721 61.7372 30.2787 61.927 30.4683C62.1168 30.658 62.2236 30.9152 62.224 31.1835Z" fill="#F9B316"/>
<path d="M62.224 37.5546C62.2238 37.823 62.1171 38.0804 61.9273 38.2702C61.7375 38.4601 61.4801 38.5668 61.2116 38.567H17.3571C17.2242 38.5669 17.0927 38.5406 16.97 38.4897C16.8473 38.4388 16.7358 38.3642 16.642 38.2702C16.5481 38.1761 16.4737 38.0646 16.4229 37.9418C16.3722 37.819 16.3461 37.6874 16.3462 37.5546C16.346 37.4218 16.372 37.2902 16.4227 37.1674C16.4735 37.0446 16.5479 36.9331 16.6418 36.8391C16.7357 36.7451 16.8472 36.6706 16.97 36.6198C17.0927 36.569 17.2242 36.5429 17.3571 36.543H61.2116C61.48 36.543 61.7374 36.6495 61.9272 36.8392C62.1171 37.0289 62.2238 37.2862 62.224 37.5546Z" fill="#F9B316"/>
</svg>
