<svg width="64" height="64" viewBox="0 0 64 64" fill="none" xmlns="http://www.w3.org/2000/svg">
<path d="M51.3333 52.0007H48V55.334C48 56.218 47.6488 57.0659 47.0237 57.691C46.3986 58.3161 45.5507 58.6673 44.6667 58.6673H11.3333C10.4493 58.6673 9.60142 58.3161 8.9763 57.691C8.35118 57.0659 7.99999 56.218 7.99999 55.334V15.334C7.99999 14.4499 8.35118 13.6021 8.9763 12.977C9.60142 12.3518 10.4493 12.0007 11.3333 12.0007H14.6667V8.66732C14.6667 7.78326 15.0178 6.93542 15.643 6.3103C16.2681 5.68517 17.1159 5.33398 18 5.33398H51.3333C52.2174 5.33398 53.0652 5.68517 53.6903 6.3103C54.3155 6.93542 54.6667 7.78326 54.6667 8.66732V48.6673C54.6667 49.5514 54.3155 50.3992 53.6903 51.0243C53.0652 51.6495 52.2174 52.0007 51.3333 52.0007ZM11.3333 15.334V55.334H44.6667V52.0007H18C17.1159 52.0007 16.2681 51.6495 15.643 51.0243C15.0178 50.3992 14.6667 49.5514 14.6667 48.6673V15.334H11.3333ZM23 12.0007C22.558 12.0007 22.134 12.1762 21.8215 12.4888C21.5089 12.8014 21.3333 13.2253 21.3333 13.6673C21.3333 14.1093 21.5089 14.5333 21.8215 14.8458C22.134 15.1584 22.558 15.334 23 15.334H36.4733C36.9153 15.334 37.3393 15.1584 37.6518 14.8458C37.9644 14.5333 38.14 14.1093 38.14 13.6673C38.14 13.2253 37.9644 12.8014 37.6518 12.4888C37.3393 12.1762 36.9153 12.0007 36.4733 12.0007H23ZM46.4733 22.0007H23C22.558 22.0007 22.134 22.1762 21.8215 22.4888C21.5089 22.8014 21.3333 23.2253 21.3333 23.6673C21.3333 24.1093 21.5089 24.5333 21.8215 24.8458C22.134 25.1584 22.558 25.334 23 25.334H46.4733C46.9154 25.334 47.3393 25.1584 47.6518 24.8458C47.9644 24.5333 48.14 24.1093 48.14 23.6673C48.14 23.2253 47.9644 22.8014 47.6518 22.4888C47.3393 22.1762 46.9154 22.0007 46.4733 22.0007ZM46.4733 32.0007H23C22.558 32.0007 22.134 32.1762 21.8215 32.4888C21.5089 32.8014 21.3333 33.2253 21.3333 33.6673C21.3333 34.1093 21.5089 34.5333 21.8215 34.8458C22.134 35.1584 22.558 35.334 23 35.334H46.4733C46.9154 35.334 47.3393 35.1584 47.6518 34.8458C47.9644 34.5333 48.14 34.1093 48.14 33.6673C48.14 33.2253 47.9644 32.8014 47.6518 32.4888C47.3393 32.1762 46.9154 32.0007 46.4733 32.0007ZM46.4733 42.0007H23C22.558 42.0007 22.134 42.1762 21.8215 42.4888C21.5089 42.8014 21.3333 43.2253 21.3333 43.6673C21.3333 44.1093 21.5089 44.5333 21.8215 44.8458C22.134 45.1584 22.558 45.334 23 45.334H46.4733C46.9154 45.334 47.3393 45.1584 47.6518 44.8458C47.9644 44.5333 48.14 44.1093 48.14 43.6673C48.14 43.2253 47.9644 42.8014 47.6518 42.4888C47.3393 42.1762 46.9154 42.0007 46.4733 42.0007Z" fill="#2C79FF"/>
</svg>
