<svg width="64" height="64" viewBox="0 0 64 64" fill="none" xmlns="http://www.w3.org/2000/svg">
<path fill-rule="evenodd" clip-rule="evenodd" d="M28.6667 5.33398H34C41.5424 5.33398 45.3136 5.33398 47.6568 7.67713C50 10.0203 50 13.7915 50 21.334V42.6673C50 50.2097 50 53.9809 47.6568 56.3241C45.3136 58.6673 41.5424 58.6673 34 58.6673H28.6667C21.1242 58.6673 17.353 58.6673 15.0098 56.3241C12.6667 53.9809 12.6667 50.2097 12.6667 42.6673V21.334C12.6667 13.7915 12.6667 10.0203 15.0098 7.67713C17.353 5.33398 21.1242 5.33398 28.6667 5.33398ZM21.3334 34.6673C21.3334 33.5628 22.2288 32.6673 23.3334 32.6673H39.3334C40.4379 32.6673 41.3334 33.5628 41.3334 34.6673C41.3334 35.7719 40.4379 36.6673 39.3334 36.6673H23.3334C22.2288 36.6673 21.3334 35.7719 21.3334 34.6673ZM21.3334 24.0007C21.3334 22.8961 22.2288 22.0007 23.3334 22.0007H39.3334C40.4379 22.0007 41.3334 22.8961 41.3334 24.0007C41.3334 25.1052 40.4379 26.0007 39.3334 26.0007H23.3334C22.2288 26.0007 21.3334 25.1052 21.3334 24.0007ZM21.3334 45.334C21.3334 44.2295 22.2288 43.334 23.3334 43.334H31.3334C32.4379 43.334 33.3334 44.2295 33.3334 45.334C33.3334 46.4385 32.4379 47.334 31.3334 47.334H23.3334C22.2288 47.334 21.3334 46.4385 21.3334 45.334Z" fill="#2C79FF"/>
<path fill-rule="evenodd" clip-rule="evenodd" d="M4.66669 11.334C5.77125 11.334 6.66669 12.2294 6.66669 13.334V50.6673C6.66669 51.7719 5.77125 52.6673 4.66669 52.6673C3.56213 52.6673 2.66669 51.7719 2.66669 50.6673V13.334C2.66669 12.2294 3.56213 11.334 4.66669 11.334Z" fill="#2C79FF"/>
<path fill-rule="evenodd" clip-rule="evenodd" d="M58 11.334C59.1045 11.334 60 12.2294 60 13.334V50.6673C60 51.7719 59.1045 52.6673 58 52.6673C56.8955 52.6673 56 51.7719 56 50.6673V13.334C56 12.2294 56.8955 11.334 58 11.334Z" fill="#2C79FF"/>
</svg>
