<svg width="64" height="64" viewBox="0 0 64 64" fill="none" xmlns="http://www.w3.org/2000/svg">
<path d="M44.0504 44.0028C44.5171 43.6388 44.9403 43.2156 45.7869 42.3689L56.34 31.8158C56.5949 31.5609 56.4781 31.1214 56.1373 31.003C54.8917 30.571 53.2712 29.7596 51.7555 28.2438C50.2397 26.7281 49.4283 25.1076 48.9963 23.8619C48.8779 23.5211 48.4384 23.4043 48.1835 23.6594L37.6304 34.2124C36.7837 35.059 36.3605 35.4822 35.9965 35.9489C35.5672 36.4996 35.1989 37.095 34.8987 37.7254C34.644 38.2596 34.4547 38.8276 34.0763 39.9633L33.5869 41.4308L32.8091 43.7641L32.0797 45.9521C31.8936 46.511 32.0389 47.127 32.4555 47.5438C32.8723 47.9604 33.4883 48.1057 34.0472 47.9196L36.2352 47.1902L38.5685 46.4124L40.036 45.923C41.1715 45.5446 41.7397 45.3553 42.2739 45.1006C42.9043 44.8004 43.4997 44.4321 44.0504 44.0028Z" fill="#2C79FF"/>
<path d="M59.644 28.5119C61.8966 26.2595 61.8966 22.6077 59.644 20.3553C57.3918 18.1029 53.74 18.1029 51.4875 20.3553L51.1483 20.6946C50.8208 21.022 50.6726 21.4792 50.7544 21.935C50.8059 22.2216 50.9011 22.6408 51.0747 23.1409C51.4216 24.1411 52.0768 25.454 53.3112 26.6881C54.5454 27.9225 55.8584 28.5778 56.8584 28.9247C57.3587 29.0983 57.7776 29.1935 58.0643 29.245C58.52 29.3268 58.9774 29.1785 59.3048 28.8511L59.644 28.5119Z" fill="#2C79FF"/>
<path fill-rule="evenodd" clip-rule="evenodd" d="M11.1242 8.45817C8 11.5824 8 16.6107 8 26.6673V37.334C8 47.3905 8 52.4191 11.1242 55.5431C14.2484 58.6673 19.2767 58.6673 29.3333 58.6673H34.6667C44.7232 58.6673 49.7517 58.6673 52.8757 55.5431C55.9499 52.4689 55.9992 47.5516 56 37.8143L48.4845 45.3297C47.7651 46.0494 47.176 46.639 46.5107 47.1582C45.7309 47.7663 44.8875 48.2876 43.9949 48.7129C43.2331 49.0759 42.4424 49.3393 41.4768 49.6607L35.3123 51.7156C33.316 52.3809 31.1152 51.8615 29.6272 50.3735C28.1395 48.8854 27.6197 46.6847 28.2853 44.6884L29.0147 42.5007L30.2816 38.6996L30.34 38.5241C30.6616 37.5585 30.9248 36.7676 31.2877 36.0057C31.7131 35.1132 32.2344 34.2697 32.8427 33.4903C33.3616 32.8247 33.9512 32.2356 34.6712 31.5161L45.3549 20.8323L48.32 17.8674L48.6592 17.5282C50.5669 15.6204 53.0675 14.6668 55.568 14.6673C55.1645 11.9192 54.3843 9.9667 52.8757 8.45817C49.7517 5.33398 44.7232 5.33398 34.6667 5.33398H29.3333C19.2767 5.33398 14.2484 5.33398 11.1242 8.45817ZM19.3333 24.0007C19.3333 22.8961 20.2288 22.0007 21.3333 22.0007H38.6667C39.7712 22.0007 40.6667 22.8961 40.6667 24.0007C40.6667 25.1052 39.7712 26.0007 38.6667 26.0007H21.3333C20.2288 26.0007 19.3333 25.1052 19.3333 24.0007ZM19.3333 34.6673C19.3333 33.5628 20.2288 32.6673 21.3333 32.6673H28C29.1045 32.6673 30 33.5628 30 34.6673C30 35.7719 29.1045 36.6673 28 36.6673H21.3333C20.2288 36.6673 19.3333 35.7719 19.3333 34.6673ZM19.3333 45.334C19.3333 44.2295 20.2288 43.334 21.3333 43.334H25.3333C26.4379 43.334 27.3333 44.2295 27.3333 45.334C27.3333 46.4385 26.4379 47.334 25.3333 47.334H21.3333C20.2288 47.334 19.3333 46.4385 19.3333 45.334Z" fill="#2C79FF"/>
</svg>
