<svg width="64" height="64" viewBox="0 0 64 64" fill="none" xmlns="http://www.w3.org/2000/svg">
<path d="M26.6667 58.6664H37.3333C47.3899 58.6664 52.4184 58.6664 55.5424 55.5421C58.6667 52.4181 58.6667 47.3896 58.6667 37.3331C58.6667 27.2765 58.6667 22.2481 55.5424 19.1239C54.5755 18.157 53.4248 17.4893 51.9989 17.0283C52 17.4804 52 17.9427 52 18.413V24.1679C52 24.2462 52.0008 24.3315 52.0016 24.423C52.0093 25.3309 52.0227 26.8525 51.3707 28.2445C50.7187 29.6368 49.5413 30.6008 48.8387 31.176C48.7685 31.2333 48.7013 31.2882 48.6419 31.3379L44.6245 34.6859C42.3291 36.5986 40.3309 38.264 38.5347 39.4192C36.5987 40.6645 34.5043 41.5856 32 41.5856C29.4957 41.5856 27.4016 40.6645 25.4653 39.4192C23.6691 38.264 21.671 36.5986 19.3757 34.6859L15.3583 31.3379C15.2982 31.288 15.2322 31.2339 15.1614 31.176C14.4589 30.6008 13.2815 29.6368 12.6295 28.2445C11.9774 26.8525 11.9906 25.3309 11.9985 24.423C11.9993 24.3315 12 24.2462 12 24.1679V18.4129C12 17.9421 12 17.4799 12.0011 17.0273C10.5754 17.4884 9.42513 18.1563 8.45753 19.1239C5.33334 22.2481 5.33334 27.2765 5.33334 37.3331C5.33334 47.3896 5.33334 52.4181 8.45753 55.5421C11.5817 58.6664 16.6101 58.6664 26.6667 58.6664Z" fill="#2C79FF"/>
<path fill-rule="evenodd" clip-rule="evenodd" d="M17.9193 28.2665L21.7573 31.4649C26.655 35.5463 29.1037 37.5871 32.0003 37.5871C34.8965 37.5871 37.3456 35.5463 42.2432 31.4649L46.0813 28.2665C47.0248 27.4801 47.4968 27.0871 47.7485 26.5494C48.0003 26.0119 48.0003 25.3977 48.0003 24.1693V18.6673C48.0003 17.8123 48.0003 17.0154 47.9952 16.2718C47.964 11.5489 47.7347 8.97361 46.0477 7.2866C44.0949 5.33398 40.9523 5.33398 34.6669 5.33398H29.3336C23.0482 5.33398 19.9055 5.33398 17.9529 7.2866C16.2658 8.97361 16.0314 11.5489 16.0002 16.2718C15.9953 17.0154 16.0002 17.8123 16.0002 18.6673V24.1693C16.0002 25.3977 16.0002 26.0119 16.252 26.5494C16.5038 27.0871 16.9756 27.4801 17.9193 28.2665ZM24.6667 16.0007C24.6667 14.8961 25.5621 14.0007 26.6667 14.0007H37.3333C38.4379 14.0007 39.3333 14.8961 39.3333 16.0007C39.3333 17.1052 38.4379 18.0007 37.3333 18.0007H26.6667C25.5621 18.0007 24.6667 17.1052 24.6667 16.0007ZM27.3333 24.0007C27.3333 22.8961 28.2288 22.0007 29.3333 22.0007H34.6667C35.7712 22.0007 36.6667 22.8961 36.6667 24.0007C36.6667 25.1052 35.7712 26.0007 34.6667 26.0007H29.3333C28.2288 26.0007 27.3333 25.1052 27.3333 24.0007Z" fill="#2C79FF"/>
</svg>
