<svg width="64" height="64" viewBox="0 0 64 64" fill="none" xmlns="http://www.w3.org/2000/svg">
<path fill-rule="evenodd" clip-rule="evenodd" d="M26.6667 10.666H37.3334C47.3899 10.666 52.4184 10.666 55.5424 13.7902C58.6667 16.9144 58.6667 21.9427 58.6667 31.9993C58.6667 42.0559 58.6667 47.0844 55.5424 50.2084C52.4184 53.3327 47.3899 53.3327 37.3334 53.3327H26.6667C16.6101 53.3327 11.5818 53.3327 8.45756 50.2084C5.33337 47.0844 5.33337 42.0559 5.33337 31.9993C5.33337 21.9427 5.33337 16.9144 8.45756 13.7902C11.5818 10.666 16.6101 10.666 26.6667 10.666ZM35.3334 23.9993C35.3334 22.8948 36.2288 21.9993 37.3334 21.9993H50.6667C51.7712 21.9993 52.6667 22.8948 52.6667 23.9993C52.6667 25.1039 51.7712 25.9993 50.6667 25.9993H37.3334C36.2288 25.9993 35.3334 25.1039 35.3334 23.9993ZM38 31.9993C38 30.8948 38.8955 29.9993 40 29.9993H50.6667C51.7712 29.9993 52.6667 30.8948 52.6667 31.9993C52.6667 33.1039 51.7712 33.9993 50.6667 33.9993H40C38.8955 33.9993 38 33.1039 38 31.9993ZM40.6667 39.9993C40.6667 38.8948 41.5622 37.9993 42.6667 37.9993H50.6667C51.7712 37.9993 52.6667 38.8948 52.6667 39.9993C52.6667 41.1039 51.7712 41.9993 50.6667 41.9993H42.6667C41.5622 41.9993 40.6667 41.1039 40.6667 39.9993ZM29.3334 23.9993C29.3334 26.9449 26.9456 29.3327 24 29.3327C21.0545 29.3327 18.6667 26.9449 18.6667 23.9993C18.6667 21.0538 21.0545 18.666 24 18.666C26.9456 18.666 29.3334 21.0538 29.3334 23.9993ZM24 45.3327C34.6667 45.3327 34.6667 42.9449 34.6667 39.9993C34.6667 37.0537 29.891 34.666 24 34.666C18.109 34.666 13.3334 37.0537 13.3334 39.9993C13.3334 42.9449 13.3334 45.3327 24 45.3327Z" fill="#2C79FF"/>
</svg>
