<svg width="47" height="46" viewBox="0 0 47 46" fill="none" xmlns="http://www.w3.org/2000/svg">
<path d="M11.195 15.8126H5.23657L7.68751 9.1282C7.73639 8.98697 7.82808 8.86449 7.94981 8.7778C8.07155 8.69112 8.21728 8.64453 8.36673 8.64453C8.51618 8.64453 8.66191 8.69112 8.78364 8.7778C8.90538 8.86449 8.99707 8.98697 9.04595 9.1282L11.195 15.8126Z" fill="#F4C01E"/>
<path d="M18.8998 12.9517H18.0158C16.6661 12.9517 15.572 14.0458 15.572 15.3954V16.2795C15.572 17.6291 16.6661 18.7232 18.0158 18.7232H18.8998C20.2495 18.7232 21.3436 17.6291 21.3436 16.2795V15.3954C21.3436 14.0458 20.2495 12.9517 18.8998 12.9517Z" fill="#FF6470"/>
<path d="M35 3.59375V28.0959L37.4725 32.9331C37.5777 33.1401 37.7381 33.3139 37.936 33.4353C38.1339 33.5567 38.3616 33.6209 38.5938 33.6209C38.8259 33.6209 39.0536 33.5567 39.2515 33.4353C39.4494 33.3139 39.6098 33.1401 39.715 32.9331L42.1875 28.0959V3.59375" fill="#2C79FF"/>
<path d="M40.3187 31.3948L39.449 32.9113C39.3555 33.079 39.2189 33.2186 39.0534 33.3158C38.8878 33.413 38.6994 33.4643 38.5074 33.4643C38.3154 33.4643 38.127 33.413 37.9614 33.3158C37.7959 33.2186 37.6593 33.079 37.5658 32.9113L36.689 31.2869C37.9108 30.331 39.3124 30.2807 40.3187 31.3948Z" fill="#B5B5B5"/>
<path d="M41.9431 28.5773L40.3188 31.3948C39.3197 30.2808 37.9109 30.3311 36.725 31.2583L35.2444 28.5126L36.8328 27.2548C37.3484 26.8537 37.9853 26.6401 38.6385 26.6492C39.2918 26.6584 39.9224 26.8897 40.4266 27.3051L41.9431 28.5773Z" fill="#B5B5B5"/>
<path d="M40.3977 31.2585L39.449 32.9116C39.3555 33.0793 39.2189 33.2189 39.0534 33.3161C38.8878 33.4133 38.6994 33.4646 38.5074 33.4646C38.3154 33.4646 38.127 33.4133 37.9614 33.3161C37.7959 33.2189 37.6593 33.0793 37.5658 32.9116L36.689 31.2872C37.1954 30.8271 37.8536 30.5698 38.5378 30.5645C39.2221 30.5592 39.8842 30.8063 40.3977 31.2585Z" fill="#626262"/>
<path d="M38.5938 34.3419C38.229 34.3436 37.8711 34.2436 37.56 34.0532C37.249 33.8627 36.9971 33.5894 36.8328 33.2637L34.3603 28.4194C34.309 28.3192 34.2819 28.2085 34.2812 28.0959V3.59375C34.2812 3.40313 34.357 3.22031 34.4918 3.08552C34.6266 2.95073 34.8094 2.875 35 2.875C35.1906 2.875 35.3734 2.95073 35.5082 3.08552C35.643 3.22031 35.7188 3.40313 35.7188 3.59375V27.9234L38.1122 32.6097C38.1571 32.6989 38.2259 32.7739 38.3109 32.8263C38.3959 32.8787 38.4939 32.9065 38.5938 32.9065C38.6936 32.9065 38.7916 32.8787 38.8766 32.8263C38.9616 32.7739 39.0304 32.6989 39.0753 32.6097L41.4688 27.9234V3.59375C41.4688 3.40313 41.5445 3.22031 41.6793 3.08552C41.8141 2.95073 41.9969 2.875 42.1875 2.875C42.3781 2.875 42.5609 2.95073 42.6957 3.08552C42.8305 3.22031 42.9062 3.40313 42.9062 3.59375V28.0959C42.9056 28.2085 42.8785 28.3192 42.8272 28.4194L40.3547 33.2637C40.1904 33.5894 39.9385 33.8627 39.6275 34.0532C39.3164 34.2436 38.9585 34.3436 38.5938 34.3419Z" fill="black"/>
<path d="M38.5936 23.7547C38.403 23.7547 38.2202 23.679 38.0854 23.5442C37.9506 23.4094 37.8749 23.2266 37.8749 23.0359V3.59375C37.8749 3.40313 37.9506 3.22031 38.0854 3.08552C38.2202 2.95073 38.403 2.875 38.5936 2.875C38.7843 2.875 38.9671 2.95073 39.1019 3.08552C39.2367 3.22031 39.3124 3.40313 39.3124 3.59375V23.0359C39.3124 23.2266 39.2367 23.4094 39.1019 23.5442C38.9671 23.679 38.7843 23.7547 38.5936 23.7547ZM41.943 29.2962C41.7784 29.2969 41.6186 29.2411 41.4902 29.1381L39.909 27.8587C39.5283 27.5579 39.0573 27.3943 38.5721 27.3943C38.0869 27.3943 37.6159 27.5579 37.2352 27.8587L35.654 29.1022C35.505 29.2197 35.3156 29.2736 35.1271 29.252C34.9386 29.2305 34.7663 29.1353 34.6477 28.9872C34.5884 28.9132 34.5443 28.8283 34.518 28.7372C34.4917 28.6461 34.4836 28.5507 34.4943 28.4565C34.505 28.3623 34.5342 28.2712 34.5803 28.1883C34.6263 28.1055 34.6883 28.0325 34.7627 27.9737L36.3512 26.7231C36.9913 26.2289 37.7794 25.965 38.588 25.9741C39.3967 25.9833 40.1786 26.2649 40.8074 26.7734L42.3886 28.0312C42.4625 28.0906 42.5239 28.1639 42.5693 28.247C42.6147 28.3301 42.6432 28.4214 42.6532 28.5156C42.6632 28.6097 42.6546 28.705 42.6277 28.7958C42.6007 28.8866 42.5562 28.9712 42.4965 29.0447C42.4282 29.1245 42.3433 29.1884 42.2476 29.2319C42.152 29.2753 42.048 29.2973 41.943 29.2962ZM30.6874 28.0888H27.0936C26.903 28.0888 26.7202 28.013 26.5854 27.8782C26.4506 27.7434 26.3749 27.5606 26.3749 27.37C26.3749 27.1794 26.4506 26.9966 26.5854 26.8618C26.7202 26.727 26.903 26.6513 27.0936 26.6513H30.6874C30.878 26.6513 31.0608 26.727 31.1956 26.8618C31.3304 26.9966 31.4061 27.1794 31.4061 27.37C31.4061 27.5606 31.3304 27.7434 31.1956 27.8782C31.0608 28.013 30.878 28.0888 30.6874 28.0888ZM23.4999 28.0888H6.2499C6.05927 28.0888 5.87646 28.013 5.74167 27.8782C5.60687 27.7434 5.53115 27.5606 5.53115 27.37C5.53115 27.1794 5.60687 26.9966 5.74167 26.8618C5.87646 26.727 6.05927 26.6513 6.2499 26.6513H23.4999C23.6905 26.6513 23.8733 26.727 24.0081 26.8618C24.1429 26.9966 24.2187 27.1794 24.2187 27.37C24.2187 27.5606 24.1429 27.7434 24.0081 27.8782C23.8733 28.013 23.6905 28.0888 23.4999 28.0888ZM32.1249 33.0625H13.4374C13.2468 33.0625 13.064 32.9868 12.9292 32.852C12.7944 32.7172 12.7186 32.5344 12.7186 32.3438C12.7186 32.1531 12.7944 31.9703 12.9292 31.8355C13.064 31.7007 13.2468 31.625 13.4374 31.625H32.1249C32.3155 31.625 32.4983 31.7007 32.6331 31.8355C32.7679 31.9703 32.8436 32.1531 32.8436 32.3438C32.8436 32.5344 32.7679 32.7172 32.6331 32.852C32.4983 32.9868 32.3155 33.0625 32.1249 33.0625ZM9.84365 33.0625H6.2499C6.05927 33.0625 5.87646 32.9868 5.74167 32.852C5.60687 32.7172 5.53115 32.5344 5.53115 32.3438C5.53115 32.1531 5.60687 31.9703 5.74167 31.8355C5.87646 31.7007 6.05927 31.625 6.2499 31.625H9.84365C10.0343 31.625 10.2171 31.7007 10.3519 31.8355C10.4867 31.9703 10.5624 32.1531 10.5624 32.3438C10.5624 32.5344 10.4867 32.7172 10.3519 32.852C10.2171 32.9868 10.0343 33.0625 9.84365 33.0625ZM39.3124 37.4325H6.2499C6.05927 37.4325 5.87646 37.3568 5.74167 37.222C5.60687 37.0872 5.53115 36.9044 5.53115 36.7138C5.53115 36.5231 5.60687 36.3403 5.74167 36.2055C5.87646 36.0707 6.05927 35.995 6.2499 35.995H39.3124C39.503 35.995 39.6858 36.0707 39.8206 36.2055C39.9554 36.3403 40.0311 36.5231 40.0311 36.7138C40.0311 36.9044 39.9554 37.0872 39.8206 37.222C39.6858 37.3568 39.503 37.4325 39.3124 37.4325ZM39.3124 42.3128H17.8362C17.6455 42.3128 17.4627 42.2371 17.3279 42.1023C17.1931 41.9675 17.1174 41.7847 17.1174 41.5941C17.1174 41.4034 17.1931 41.2206 17.3279 41.0858C17.4627 40.951 17.6455 40.8753 17.8362 40.8753H39.3124C39.503 40.8753 39.6858 40.951 39.8206 41.0858C39.9554 41.2206 40.0311 41.4034 40.0311 41.5941C40.0311 41.7847 39.9554 41.9675 39.8206 42.1023C39.6858 42.2371 39.503 42.3128 39.3124 42.3128ZM14.1561 42.4062L6.2499 42.3128C6.05927 42.3128 5.87646 42.2371 5.74167 42.1023C5.60687 41.9675 5.53115 41.7847 5.53115 41.5941C5.53115 41.4034 5.60687 41.2206 5.74167 41.0858C5.87646 40.951 6.05927 40.8753 6.2499 40.8753L14.1561 40.9688C14.3468 40.9688 14.5296 41.0445 14.6644 41.1793C14.7992 41.3141 14.8749 41.4969 14.8749 41.6875C14.8749 41.8781 14.7992 42.0609 14.6644 42.1957C14.5296 42.3305 14.3468 42.4062 14.1561 42.4062ZM4.15834 19.4422C4.07311 19.4436 3.9882 19.4315 3.90677 19.4062C3.81787 19.3735 3.73633 19.3234 3.66685 19.259C3.59736 19.1946 3.5413 19.117 3.50189 19.0309C3.46248 18.9447 3.44049 18.8516 3.4372 18.7569C3.43391 18.6622 3.44938 18.5678 3.48271 18.4791L7.07646 8.855C7.17992 8.57229 7.36953 8.3292 7.61853 8.16001C7.86754 7.99082 8.16338 7.90408 8.46432 7.91202C8.76526 7.91996 9.05612 8.02218 9.29586 8.20427C9.53559 8.38635 9.71212 8.6391 9.80052 8.92688L12.7833 18.515C12.8117 18.6051 12.8219 18.7 12.8136 18.7941C12.8053 18.8882 12.7785 18.9798 12.7348 19.0635C12.691 19.1473 12.6313 19.2216 12.5588 19.2823C12.4864 19.3429 12.4027 19.3887 12.3126 19.417C12.1305 19.4742 11.9332 19.4567 11.764 19.3685C11.6803 19.3247 11.6059 19.265 11.5453 19.1925C11.4846 19.1201 11.4388 19.0364 11.4105 18.9463L8.40615 9.34375L4.8124 18.975C4.76233 19.1092 4.67331 19.2253 4.55678 19.3086C4.44024 19.3918 4.3015 19.4383 4.15834 19.4422Z" fill="black"/>
<path d="M11.195 16.5312H5.23657C5.04595 16.5312 4.86313 16.4555 4.72834 16.3207C4.59355 16.1859 4.51782 16.0031 4.51782 15.8125C4.51782 15.6219 4.59355 15.4391 4.72834 15.3043C4.86313 15.1695 5.04595 15.0937 5.23657 15.0937H11.195C11.3856 15.0937 11.5685 15.1695 11.7032 15.3043C11.838 15.4391 11.9138 15.6219 11.9138 15.8125C11.9138 16.0031 11.838 16.1859 11.7032 16.3207C11.5685 16.4555 11.3856 16.5312 11.195 16.5312ZM15.5938 19.4422C15.4031 19.4422 15.2203 19.3665 15.0855 19.2317C14.9507 19.0969 14.875 18.9141 14.875 18.7234V8.625C14.875 8.43438 14.9507 8.25156 15.0855 8.11677C15.2203 7.98198 15.4031 7.90625 15.5938 7.90625C15.7844 7.90625 15.9672 7.98198 16.102 8.11677C16.2368 8.25156 16.3125 8.43438 16.3125 8.625V18.7234C16.3125 18.9141 16.2368 19.0969 16.102 19.2317C15.9672 19.3665 15.7844 19.4422 15.5938 19.4422Z" fill="black"/>
<path d="M18.8998 19.4422H18.0158C17.177 19.4422 16.3726 19.109 15.7795 18.5159C15.1865 17.9228 14.8533 17.1184 14.8533 16.2797V15.3956C14.8533 14.5569 15.1865 13.7525 15.7795 13.1594C16.3726 12.5663 17.177 12.2331 18.0158 12.2331H18.8998C19.7386 12.2331 20.543 12.5663 21.1361 13.1594C21.7291 13.7525 22.0623 14.5569 22.0623 15.3956V16.2797C22.0623 17.1184 21.7291 17.9228 21.1361 18.5159C20.543 19.109 19.7386 19.4422 18.8998 19.4422ZM18.0158 13.6922C17.5589 13.6941 17.1212 13.8764 16.7981 14.1995C16.475 14.5226 16.2927 14.9603 16.2908 15.4172V16.3013C16.2927 16.7582 16.475 17.1958 16.7981 17.5189C17.1212 17.842 17.5589 18.0244 18.0158 18.0262H18.8998C19.3568 18.0244 19.7944 17.842 20.1175 17.5189C20.4406 17.1958 20.6229 16.7582 20.6248 16.3013V15.3956C20.6258 15.1682 20.5819 14.9427 20.4957 14.7322C20.4096 14.5217 20.2828 14.3302 20.1226 14.1687C19.9624 14.0072 19.772 13.8788 19.5622 13.7909C19.3524 13.7029 19.1273 13.6572 18.8998 13.6562L18.0158 13.6922ZM31.4061 12.9375H24.9373C24.7467 12.9375 24.5639 12.8618 24.4291 12.727C24.2943 12.5922 24.2186 12.4094 24.2186 12.2188C24.2186 12.0281 24.2943 11.8453 24.4291 11.7105C24.5639 11.5757 24.7467 11.5 24.9373 11.5H31.4061C31.5967 11.5 31.7795 11.5757 31.9143 11.7105C32.0491 11.8453 32.1248 12.0281 32.1248 12.2188C32.1248 12.4094 32.0491 12.5922 31.9143 12.727C31.7795 12.8618 31.5967 12.9375 31.4061 12.9375ZM31.4061 17.9688H24.9373C24.7467 17.9688 24.5639 17.893 24.4291 17.7582C24.2943 17.6234 24.2186 17.4406 24.2186 17.25C24.2186 17.0594 24.2943 16.8766 24.4291 16.7418C24.5639 16.607 24.7467 16.5312 24.9373 16.5312H31.4061C31.5967 16.5312 31.7795 16.607 31.9143 16.7418C32.0491 16.8766 32.1248 17.0594 32.1248 17.25C32.1248 17.4406 32.0491 17.6234 31.9143 17.7582C31.7795 17.893 31.5967 17.9688 31.4061 17.9688ZM31.4061 23H18.4686C18.278 23 18.0951 22.9243 17.9604 22.7895C17.8256 22.6547 17.7498 22.4719 17.7498 22.2812C17.7498 22.0906 17.8256 21.9078 17.9604 21.773C18.0951 21.6382 18.278 21.5625 18.4686 21.5625H31.4061C31.5967 21.5625 31.7795 21.6382 31.9143 21.773C32.0491 21.9078 32.1248 22.0906 32.1248 22.2812C32.1248 22.4719 32.0491 22.6547 31.9143 22.7895C31.7795 22.9243 31.5967 23 31.4061 23ZM36.6889 31.9772C36.5718 31.9782 36.4563 31.9505 36.3523 31.8967C36.2483 31.8428 36.1591 31.7643 36.0923 31.6681C36.0394 31.5898 36.0024 31.5018 35.9834 31.4092C35.9645 31.3166 35.9641 31.2211 35.9821 31.1283C36.0001 31.0355 36.0363 30.9472 36.0885 30.8684C36.1407 30.7896 36.208 30.7218 36.2864 30.6691C36.93 30.1541 37.7298 29.8735 38.5541 29.8735C39.3783 29.8735 40.1781 30.1541 40.8217 30.6691C40.9733 30.7822 41.0741 30.9506 41.1024 31.1376C41.1306 31.3246 41.084 31.5152 40.9726 31.6681C40.8606 31.8208 40.6927 31.9231 40.5056 31.9527C40.3186 31.9823 40.1273 31.9368 39.9736 31.8262C39.5715 31.4868 39.0623 31.3005 38.5361 31.3005C38.0099 31.3005 37.5006 31.4868 37.0986 31.8262C36.9793 31.9147 36.8371 31.9671 36.6889 31.9772Z" fill="black"/>
</svg>
