<svg width="40" height="40" viewBox="0 0 40 40" fill="none" xmlns="http://www.w3.org/2000/svg">
<path opacity="0.2" d="M35 19.9997C35.0003 22.634 34.3069 25.2219 32.9895 27.5031C31.6721 29.7843 29.7772 31.6783 27.4953 32.9946C25.2135 34.311 22.6253 35.0031 19.991 35.0016C17.3567 35 14.7693 34.3047 12.4891 32.9856L6.64688 34.9341C6.42663 35.0075 6.19028 35.0182 5.96432 34.9648C5.73836 34.9115 5.53171 34.7963 5.36754 34.6321C5.20337 34.468 5.08817 34.2613 5.03484 34.0354C4.98152 33.8094 4.99218 33.5731 5.06563 33.3528L7.01406 27.5106C5.86236 25.5185 5.1844 23.2882 5.03266 20.9921C4.88091 18.6961 5.25944 16.3959 6.13895 14.2696C7.01847 12.1432 8.37539 10.2478 10.1047 8.7298C11.8341 7.21183 13.8895 6.11207 16.1119 5.51561C18.3343 4.91916 20.6641 4.842 22.9211 5.29011C25.1781 5.73821 27.3017 6.69957 29.1277 8.0998C30.9537 9.50002 32.4331 11.3016 33.4513 13.3651C34.4696 15.4285 34.9995 17.6986 35 19.9997Z" fill="#3EC68C"/>
<path d="M19.9996 3.75C17.1941 3.74939 14.4362 4.47514 11.9944 5.85661C9.55259 7.23808 7.51003 9.22821 6.06553 11.6333C4.62104 14.0384 3.82383 16.7764 3.7515 19.581C3.67916 22.3856 4.33417 25.1612 5.65277 27.6375L3.87933 32.9578C3.73243 33.3983 3.71111 33.871 3.81776 34.3229C3.92441 34.7749 4.15482 35.1881 4.48316 35.5165C4.8115 35.8448 5.22479 36.0752 5.67671 36.1819C6.12864 36.2885 6.60134 36.2672 7.04183 36.1203L12.3621 34.3469C14.5415 35.506 16.9562 36.1534 19.4231 36.24C21.89 36.3266 24.3442 35.85 26.5994 34.8465C28.8546 33.8429 30.8516 32.3388 32.4387 30.4483C34.0258 28.5577 35.1614 26.3304 35.7592 23.9355C36.357 21.5406 36.4014 19.0409 35.8889 16.6263C35.3764 14.2117 34.3206 11.9455 32.8016 9.99987C31.2825 8.05421 29.3402 6.48019 27.122 5.39727C24.9038 4.31436 22.4681 3.75101 19.9996 3.75ZM19.9996 33.75C17.5824 33.7516 15.2076 33.1151 13.1153 31.9047C12.9254 31.7945 12.7098 31.7363 12.4903 31.7359C12.3558 31.736 12.2222 31.7582 12.095 31.8016L6.24964 33.75L8.19808 27.9062C8.25424 27.7383 8.27409 27.5604 8.25632 27.3842C8.23854 27.2081 8.18354 27.0377 8.09495 26.8844C6.57928 24.2639 5.97075 21.2165 6.36375 18.2149C6.75675 15.2133 8.12932 12.4253 10.2685 10.2834C12.4077 8.14151 15.194 6.76542 18.1951 6.36863C21.1962 5.97184 24.2444 6.57652 26.8667 8.08888C29.4891 9.60124 31.5391 11.9367 32.6986 14.733C33.8582 17.5294 34.0626 20.6302 33.28 23.5545C32.4974 26.4788 30.7717 29.0632 28.3705 30.9066C25.9693 32.75 23.0269 33.7495 19.9996 33.75ZM26.2496 17.5C26.2496 17.8315 26.1179 18.1495 25.8835 18.3839C25.6491 18.6183 25.3312 18.75 24.9996 18.75H14.9996C14.6681 18.75 14.3502 18.6183 14.1158 18.3839C13.8813 18.1495 13.7496 17.8315 13.7496 17.5C13.7496 17.1685 13.8813 16.8505 14.1158 16.6161C14.3502 16.3817 14.6681 16.25 14.9996 16.25H24.9996C25.3312 16.25 25.6491 16.3817 25.8835 16.6161C26.1179 16.8505 26.2496 17.1685 26.2496 17.5ZM26.2496 22.5C26.2496 22.8315 26.1179 23.1495 25.8835 23.3839C25.6491 23.6183 25.3312 23.75 24.9996 23.75H14.9996C14.6681 23.75 14.3502 23.6183 14.1158 23.3839C13.8813 23.1495 13.7496 22.8315 13.7496 22.5C13.7496 22.1685 13.8813 21.8505 14.1158 21.6161C14.3502 21.3817 14.6681 21.25 14.9996 21.25H24.9996C25.3312 21.25 25.6491 21.3817 25.8835 21.6161C26.1179 21.8505 26.2496 22.1685 26.2496 22.5Z" fill="#3EC68C"/>
</svg>
