<svg width="20" height="20" viewBox="0 0 20 20" fill="none" xmlns="http://www.w3.org/2000/svg">
<path d="M1.66699 9.99967C1.66699 6.85697 1.66699 5.28563 2.6433 4.30932C3.61962 3.33301 5.19096 3.33301 8.33366 3.33301H11.667C14.8097 3.33301 16.3811 3.33301 17.3573 4.30932C18.3337 5.28563 18.3337 6.85697 18.3337 9.99967C18.3337 13.1423 18.3337 14.7138 17.3573 15.69C16.3811 16.6663 14.8097 16.6663 11.667 16.6663H8.33366C5.19096 16.6663 3.61962 16.6663 2.6433 15.69C1.66699 14.7138 1.66699 13.1423 1.66699 9.99967Z" stroke="#717070" stroke-width="1.5"/>
<path d="M5 6.66699L6.79908 8.16623C8.32961 9.44166 9.09492 10.0794 10 10.0794C10.9051 10.0794 11.6704 9.44166 13.2009 8.16623L15 6.66699" stroke="#717070" stroke-width="1.5" stroke-linecap="round"/>
</svg>
