<svg width="268" height="225" viewBox="0 0 268 225" fill="none" xmlns="http://www.w3.org/2000/svg">
<g clip-path="url(#clip0_114_14985)">
<g opacity="0.35">
<path d="M242.3 224.433H25.7C11.5 224.433 0 212.916 0 198.695V67.9004C0 53.6792 11.5 42.1621 25.7 42.1621H242.3C256.5 42.1621 268 53.6792 268 67.9004V198.695C268 212.916 256.5 224.433 242.3 224.433Z" fill="#D6DCE5"/>
</g>
<path d="M115.45 0.500978C118.05 -0.200065 120.7 0.0503075 123.35 0.200531C124.55 0.350754 125.7 0.651201 126.85 0.951648C128.9 1.50247 131.1 1.70276 133.1 2.6041C135.15 3.35522 137.05 4.30664 139 5.30812C140.6 6.15939 142.05 7.21095 143.5 8.31259C144.7 9.26401 145.9 10.2655 146.9 11.4172C148.7 13.4703 150.7 15.4232 152.1 17.7767C153.65 20.3305 155.3 22.8843 156.35 25.6884C157.2 28.2422 158.2 30.8461 158.55 33.5501C158.85 35.2526 158.75 37.0052 158.95 38.7078C159.15 40.0097 159.35 41.3116 159.4 42.6136C159.4 43.4649 159.55 44.3161 159.5 45.2175C159.4 46.92 159.35 48.6726 158.75 50.275C158.5 50.976 158.2 51.627 158 52.3781C157.85 52.9289 157.8 53.4797 157.5 53.9304C157.3 54.0306 156.95 54.0806 156.8 53.8303C156.5 53.2294 156.6 52.5283 156.55 51.8774C156.5 51.2765 156.5 50.6756 156.45 50.0246C156.45 49.624 155.9 49.4738 156 49.0231C156.15 48.1719 156.15 47.3206 156.1 46.4693C155.9 46.4192 155.7 46.3191 155.45 46.269C155.45 45.0672 155.2 43.9155 155.05 42.7137C154.8 41.1614 154.5 39.559 154.2 38.0067C154 38.1069 153.75 38.207 153.55 38.2571C153.2 38.0067 153.25 37.5561 153.15 37.2055C153.1 36.7549 152.9 36.3543 152.7 36.0038C150.85 32.3483 149.05 28.6428 146.8 25.1877C146.5 24.737 145.95 24.4866 145.65 23.9859C144.9 22.7841 144.2 21.6324 143.35 20.4807C143 19.9799 142.6 19.4792 142.35 18.9284C142.15 18.5278 142.3 18.1272 142.25 17.7266C141.65 17.2759 141.15 16.675 140.55 16.2744C140.2 16.7752 139.75 17.2258 139.2 17.4762C137.4 17.9269 135.6 16.8753 133.8 17.2258C132.8 17.4261 131.75 17.3761 130.75 17.4762C130.35 17.7767 130 18.1773 129.5 18.3275C128.6 18.678 127.55 18.7281 126.6 18.8282C123 19.2288 119.4 19.5293 115.85 19.7296C113.7 19.7796 111.5 19.7796 109.35 19.7296C108.7 19.6795 108.05 19.6294 107.45 19.379C107.05 19.2288 106.7 18.9284 106.4 18.678C105.7 19.0786 105.15 19.6795 104.3 19.8297C103.3 20.1302 102.25 19.5293 101.65 18.7782C101.1 18.8282 100.6 18.9784 100.05 19.0786C99.6001 19.0786 99.4501 19.5293 99.2501 19.8297C96.4001 24.4366 93.7501 29.1936 91.8501 34.3012C91.0501 36.3543 90.4001 38.4574 89.9001 40.5605C89.1501 43.4649 88.7001 46.4693 88.3001 49.4237C88.2001 50.0246 88.1501 50.6756 87.8001 51.2264C87.5501 51.627 87.1501 51.8273 86.8001 52.0777C86.9001 52.7286 87.2501 53.3295 87.2001 54.0306C87.2001 54.6815 86.5501 55.2824 85.9001 55.1823C85.4001 55.1322 85.0001 54.7316 84.7501 54.2809C84.2001 53.2294 83.7501 52.0777 83.5001 50.9259C82.8001 47.621 82.3501 44.266 82.6501 40.861C82.7001 38.7579 82.9001 36.6547 83.2001 34.5516C83.4001 33.2997 83.6501 31.9978 83.9001 30.7459C84.5001 27.8917 85.5001 25.0875 86.8501 22.4837C87.7001 20.8312 88.5501 19.1787 89.6001 17.6264C91.3501 14.8723 93.7001 12.5188 96.2001 10.5159C97.2001 9.6646 98.2501 8.86341 99.4001 8.16237C100.3 7.61155 101.2 7.16088 102.05 6.55999C104.2 5.1579 106.4 3.90604 108.8 2.95463C110.9 1.85299 113.2 1.10187 115.45 0.500978Z" fill="#38312D"/>
<path d="M31.0998 211.465C31.4998 212.667 31.6498 213.969 31.8998 215.271C31.9998 216.122 32.4498 216.873 32.9998 217.474C33.8998 218.425 35.0998 219.076 36.1998 219.828C38.8498 221.63 41.7498 223.132 44.7998 224.084C44.9498 224.134 45.0498 224.184 45.1998 224.234H133.5C134.15 224.084 134.8 223.984 135.45 223.834C146.5 221.53 157.55 218.976 168.35 215.621C176.55 213.068 184.55 209.963 192.5 206.708C196.4 205.056 200.35 203.353 204.1 201.35C207.1 199.748 210 198.045 212.9 196.293C216.3 194.139 219.7 191.986 222.7 189.282C224.2 187.98 225.6 186.628 226.95 185.226C227.7 184.375 228.4 183.474 229.15 182.672C229.5 182.222 230.15 182.472 230.6 182.172C231.3 181.671 231.65 180.82 231.65 179.968C231.65 178.116 231.4 176.263 230.8 174.51C230.3 173.058 229.75 171.606 229.1 170.204C228.35 168.501 227.45 166.899 226.5 165.297C224.6 161.942 222.55 158.587 219.75 155.883C218.65 154.781 217.6 153.679 216.4 152.728C213.2 150.074 209.75 147.67 206.2 145.467C204.65 144.466 203.1 143.564 201.45 142.713C199.2 141.561 197.05 140.309 194.75 139.208C193.45 138.607 192.2 137.856 190.9 137.255C189.7 136.704 188.55 136.053 187.35 135.552C185.55 134.801 183.85 133.9 182.1 133.099C181.05 132.548 180 132.097 178.9 131.647C177.5 131.096 176.1 130.395 174.7 129.844C173.65 129.443 172.65 128.942 171.6 128.542C169.85 127.841 168.25 126.94 166.45 126.289C165.05 125.788 163.7 125.137 162.35 124.486C160.6 123.635 159 122.533 157.4 121.431C156.6 120.931 156.15 120.029 155.35 119.528C155 119.328 154.75 119.028 154.35 118.928C153.65 118.878 153.15 119.478 152.5 119.579C151.95 119.629 151.45 119.478 150.9 119.328C149.75 118.978 148.55 118.727 147.4 118.327C147.1 119.528 146.6 120.68 146.15 121.832C145.9 122.483 145.35 123.034 144.7 123.184C143.95 123.334 143.2 122.984 142.5 122.833C141.65 122.583 140.8 122.132 140.45 121.281C140.1 120.53 140.55 119.679 140.35 118.928C140.15 118.176 140.35 117.375 140.75 116.724C138.85 116.374 137 116.023 135.1 115.823C131.7 115.422 128.3 115.122 124.9 115.122C121.55 115.072 118.25 115.422 114.95 115.923C112.15 116.324 109.35 116.875 106.6 117.526C104.25 118.076 101.9 118.677 99.6998 119.579C99.2498 119.729 98.8998 119.979 98.4498 120.079C97.9998 119.929 97.5998 119.579 97.0998 119.679C96.2998 119.729 95.7998 120.48 95.3498 121.081C94.4498 122.233 93.4998 123.334 92.4998 124.386C91.0498 125.988 89.5998 127.641 87.8998 128.993C86.2498 130.445 84.4998 131.797 82.7998 133.199C80.9998 134.601 79.2498 136.103 77.3998 137.505C73.6998 140.309 69.8998 142.813 66.0998 145.517C63.9998 146.919 61.9998 148.472 59.9498 149.924C56.2998 152.628 52.6998 155.382 49.2498 158.386C45.2998 161.841 41.2998 165.397 38.4998 169.853C38.2498 170.254 37.7498 170.454 37.5998 170.905C37.3998 171.606 36.9498 172.257 36.6498 172.908C35.7998 174.51 35.0498 176.113 34.3498 177.765C34.0498 178.466 33.7998 179.217 33.4498 179.918C32.6498 182.071 32.2998 184.325 31.8498 186.578C31.2498 189.533 30.7998 192.537 30.5998 195.541C30.3498 198.145 30.1998 200.799 30.2498 203.403C30.2498 205.006 30.2498 206.608 30.3998 208.21C30.4998 209.062 30.7498 210.263 31.0998 211.465Z" fill="#7703FC"/>
<path d="M37.6002 170.604C37.4002 171.305 36.9502 171.956 36.6502 172.606C35.8002 174.209 35.0502 175.811 34.3502 177.464C34.0502 178.165 33.8002 178.916 33.4502 179.617C33.8002 178.565 34.2002 177.564 34.5502 176.512C34.9502 175.311 35.4002 174.109 36.1002 173.007C36.5502 172.156 37.0002 171.305 37.6002 170.604Z" fill="#533F37"/>
<path d="M245.7 224.133C245.95 223.081 245.95 222.03 245.6 221.028C244.35 217.173 243.1 213.317 241.8 209.461C241.6 208.86 241.3 208.259 240.95 207.708C240.05 201.85 238.8 196.091 237.05 190.383C236.55 188.83 236.05 187.278 235.5 185.726C235.2 184.925 234.9 184.123 234.65 183.322C234.25 182.271 233.85 181.47 233.15 180.568C233.65 181.219 233.3 180.718 233.1 180.318C232.3 178.866 231.45 177.413 230.55 175.961C229.6 174.409 228.75 172.957 227.95 171.605C226.05 168.3 221.1 170.553 221.95 174.159C222.4 176.212 223.05 178.265 223.75 180.268C223.75 180.318 223.8 180.368 223.8 180.418C221.7 180.768 219.55 182.221 219.1 184.424C218.95 185.125 218.85 185.776 218.75 186.427H218.7C216.15 186.527 214.05 188.129 213.25 190.583C212.7 192.336 212.3 194.138 212.1 195.941C212.05 195.941 211.95 195.941 211.9 195.991C209.95 196.342 208.05 196.942 206.15 197.443C204.05 197.994 201.95 198.495 199.85 198.996C191.5 201.049 166.35 206.657 162.1 207.508C161.55 207.508 161 207.608 160.5 207.859C159.25 208.359 158.2 208.91 157.4 210.012C157.2 210.012 152.6 210.513 150.55 210.713C146.5 211.063 142.5 211.364 138.45 211.614C130.3 212.115 122.15 212.415 114 212.616C97.6496 212.966 81.2996 212.766 64.9996 212.616C60.4996 212.566 55.9496 212.666 51.4496 212.516C50.9996 212.516 50.4996 212.466 50.0496 212.415C49.8996 212.365 49.6996 212.365 49.6496 212.365C49.2496 212.265 48.8996 212.165 48.5496 212.065C48.5996 212.065 48.5996 212.115 48.6496 212.165C48.5996 212.115 48.5496 212.115 48.4996 212.065C48.3996 212.015 48.3496 212.015 48.2496 211.965C48.1996 211.965 48.1496 211.915 48.1496 211.915L47.9996 211.765C47.9996 211.765 47.9496 211.765 47.9496 211.714L47.7496 211.514V211.414C47.8996 209.361 46.4996 207.458 44.7996 206.507V206.457C44.8996 204.704 43.8496 202.901 42.3996 201.85V201.549C42.3996 200.448 42.0996 199.396 41.4996 198.545L42.0996 194.489C42.9996 188.83 44.0496 183.172 45.2996 177.614C45.8996 175.01 44.6996 172.356 42.1996 171.304C39.5496 170.203 37.1496 171.354 35.5496 173.508C33.0496 176.813 31.3996 180.869 30.1496 184.774C28.8496 188.78 27.8496 192.836 26.8496 196.892C24.7496 205.405 23.0496 213.968 21.7496 222.631C21.6496 223.181 21.5996 223.682 21.5996 224.133H245.7ZM47.8996 211.714C47.9496 211.765 48.0496 211.815 48.0496 211.865L47.8996 211.714ZM44.2996 217.673C44.3496 217.573 44.3996 217.523 44.3996 217.423C44.5496 217.122 44.7496 216.972 44.2496 217.723L44.2996 217.673Z" fill="#7703FC"/>
<path d="M48.4502 211.964C48.5002 211.964 48.5002 211.964 48.4502 211.964C48.2002 211.764 48.0002 211.664 47.9502 211.664C48.0002 211.714 48.0002 211.714 48.0502 211.714C48.1502 211.814 48.3502 211.914 48.4502 211.964Z" fill="#AED4DB"/>
<path d="M135.65 15.4731C138.5 15.1226 141.35 14.7721 144.15 14.1211C145.05 16.4746 146.4 18.6779 147.5 20.9312C149.1 23.485 150.2 26.3393 151.8 28.8931C152.55 30.1449 153.15 31.4469 153.85 32.6987C154.45 33.8504 155 35.0021 155.35 36.254C155.65 37.3556 156.15 38.4072 156.4 39.5088C157 42.0126 157.85 44.4662 158.1 47.02C158.2 47.6209 158.2 48.2218 158.4 48.7726C158.25 48.8728 158.05 48.9729 157.9 49.1231V48.5723C157.75 48.5723 157.6 48.5723 157.4 48.5222C157.35 49.4737 157.35 50.375 157.45 51.3264C157.55 53.0289 157.75 54.7315 157.6 56.4841C157.6 57.2352 157.65 57.9362 157.65 58.6874C157.65 59.5887 157.8 60.49 157.7 61.3413C157.55 62.5932 157.7 63.845 157.55 65.0468C157.45 66.5991 157.3 68.2015 156.95 69.7037C156.9 69.904 157 70.0543 157.05 70.2546L156.85 70.0543C156.5 71.6566 156.35 73.3091 155.95 74.9115C155.7 75.8629 155.55 76.8143 155.2 77.7156C154.8 78.7171 154.6 79.7687 154.3 80.7702C153.9 82.0721 153.3 83.324 152.9 84.6259C152.55 85.7276 152.1 86.7791 151.45 87.7305C151.1 88.1812 150.85 88.732 150.6 89.2328C150.4 89.7335 149.9 89.8837 149.5 90.1341C149.15 89.3329 148.65 88.6319 148.2 87.8808C147.5 86.7791 146.75 85.6775 145.95 84.5758C145.15 83.5744 144.45 82.4727 143.6 81.5213C142.85 80.67 142.2 79.7687 141.4 78.9675C140.45 77.966 139.35 77.2149 138.35 76.3136C137.3 75.3621 136.15 74.4608 134.8 73.91C132.25 72.9085 129.45 72.8084 126.8 72.4578C126.85 71.6566 126.75 70.8554 126.45 70.1043C126.35 69.904 126.15 69.7037 125.9 69.7538C125.5 69.904 125.2 70.2546 124.8 70.2546C124.1 70.3046 123.45 70.0042 122.75 70.0042C122.25 69.9541 121.7 70.0543 121.2 70.2045C120.85 69.854 120.55 69.5034 120.2 69.1529C119.8 68.7523 119.2 68.552 118.65 68.552C118.45 68.6522 118.3 68.8024 118.15 68.9025C118.5 69.5535 118.8 70.3046 119.3 70.8554C119.85 71.5064 120.5 72.0072 121.15 72.5079C118.9 72.558 116.75 73.0587 114.6 73.6095C112.95 73.8599 111.4 74.561 109.9 75.3121C109.25 75.6626 108.6 76.0632 108.05 76.5139C107.4 77.0647 106.55 77.4653 105.95 78.0662C104.65 79.3681 103.7 80.9204 102.65 82.3726C101.2 84.6259 99.9002 87.0796 99.4002 89.7335C99.2002 90.4846 98.8502 91.1857 98.6002 91.9368C97.9002 91.2358 97.3502 90.3845 96.7502 89.5833C95.6002 88.031 94.3502 86.5788 93.5002 84.8763C92.7002 83.3741 91.8502 81.8718 91.2002 80.2694C90.8502 79.1177 90.3002 78.0662 90.0002 76.9145C89.8002 76.2134 89.4502 75.5124 89.2502 74.8113C88.5502 72.4578 88.0002 70.0543 87.4502 67.7008C86.9002 65.3973 86.6002 63.0438 86.3002 60.6903C86.2502 60.44 86.2502 60.1395 86.2002 59.8891C86.1502 58.6373 86.0002 57.4355 86.0502 56.1836C86.0502 55.4826 86.1002 54.7816 86.1002 54.0805C86.1002 53.7801 85.9002 53.5798 85.7002 53.3795H85.8002C85.9002 51.2763 86.0502 49.1231 86.4502 47.0701C86.6502 44.9169 86.9002 42.7136 87.2002 40.5604C87.4002 39.3085 87.5002 38.0066 87.8502 36.7547C88.4002 34.5014 89.3002 32.3983 90.0502 30.2451C91.1502 27.3407 92.0502 24.3363 92.9502 21.3819C93.2502 20.3804 93.4502 19.3789 93.8002 18.4275C95.3502 17.8266 97.0002 17.8767 98.6002 17.7765C100.2 17.6263 101.8 17.4761 103.4 17.426C105.3 17.2257 107.25 17.4761 109.2 17.426C111.8 17.6263 114.45 17.5262 117.05 17.5262L121.55 17.2257C126.25 16.6749 130.95 16.0239 135.65 15.4731Z" fill="#F2844F"/>
<path d="M139.65 46.0176C139.95 45.9675 140.3 45.8173 140.55 46.1177C140.5 46.6185 139.95 46.7687 139.6 46.969C138.8 47.3195 138.15 47.8202 137.45 48.2709C136.35 48.9219 135.3 49.6229 134.3 50.374C132.85 51.5758 131.6 53.1281 130.75 54.7806C129.7 56.9338 129.1 59.2372 128.6 61.5907C128.4 62.3418 128.5 63.1931 128.1 63.8941C127.9 63.8441 127.55 63.8441 127.5 63.5937C127.3 62.8426 127.15 62.0915 127.2 61.2903C127.1 60.5892 127.1 59.8882 127.05 59.2372C126.85 58.2858 126.9 57.2342 127.25 56.3329C126.95 56.0825 126.65 55.732 126.65 55.3314C126.65 54.4301 126.95 53.5287 127.1 52.6775C127.15 52.1767 127.35 51.7761 127.6 51.3255C127.85 50.8748 127.6 50.2739 128 49.8733C128.45 49.3726 129.15 49.2223 129.65 48.8217C130.55 48.1207 131.65 47.9204 132.75 47.6199C133.55 47.4196 134.3 47.1693 135.1 47.0191C135.5 46.9189 135.85 47.2194 136.15 47.4697C137.25 47.0191 138.4 46.4182 139.65 46.0176Z" fill="#E56324"/>
<path d="M158.4 48.7727C159.7 47.9715 161.25 47.7712 162.75 47.8213C164.3 47.7712 165.95 47.8713 167.35 48.6725C168.15 49.1232 168.7 49.8743 169.2 50.6254C169.7 51.4266 170.2 52.2278 170.45 53.1291C170.85 54.4311 171.15 55.8332 171.1 57.2353C171.15 60.0394 170.65 62.7935 169.65 65.3974C168.65 67.851 167.8 70.4048 166.2 72.5079C165.1 73.91 163.95 75.262 162.55 76.3637C161.1 77.5655 159.45 78.6671 157.6 79.0176C157.3 79.0677 157 79.0677 156.7 79.0677C157.35 76.564 157.65 73.9601 158.05 71.3562C158.3 69.7038 158.45 68.0012 158.6 66.2987C158.75 64.7464 158.75 63.2442 158.8 61.6919C158.9 60.3399 158.95 59.0379 158.9 57.6859C158.9 56.6844 158.7 55.733 158.7 54.7315C158.7 53.5798 158.25 52.4782 158.2 51.3765C158.15 50.6254 158.15 49.8242 157.85 49.1232C158.1 48.973 158.25 48.8728 158.4 48.7727Z" fill="#F95939"/>
<path d="M157.45 48.5215C157.6 48.5215 157.75 48.5215 157.95 48.5716V49.0723C157.8 49.8234 157.55 50.5745 157.5 51.3257C157.4 50.4243 157.4 49.4729 157.45 48.5215Z" fill="#B16A54"/>
<path d="M79.7497 53.8293C80.9997 53.4287 82.2997 52.8278 83.6497 53.0281C84.3497 53.1282 85.0997 53.0281 85.6997 53.4287C85.8997 53.629 86.0997 53.8293 86.0997 54.1297C86.0997 54.8307 86.0497 55.5318 86.0497 56.2328C85.9997 57.4847 86.1997 58.6865 86.1997 59.9383C86.0997 59.3875 85.9997 58.7866 85.9497 58.2358H85.5997C85.5497 59.1872 85.6997 60.0886 85.7497 61.04C85.8497 61.9413 85.4497 62.8427 85.4997 63.744C85.5497 64.9458 85.7497 66.1476 85.9997 67.3494C86.1997 68.2507 86.0997 69.2021 86.3497 70.0534C86.4997 70.6543 86.6997 71.2552 86.8497 71.8561C87.0497 72.5571 86.8997 73.3583 87.0497 74.0593C87.8497 77.865 89.3497 81.4203 90.0997 85.2259C89.7497 85.4763 89.3497 85.7767 88.8497 85.8769C87.9997 85.977 87.1997 85.977 86.3497 85.8268C85.2997 85.6265 84.2497 85.4262 83.2997 84.9255C81.5997 84.1243 80.2997 82.6721 79.0997 81.27C77.6497 79.6176 76.8497 77.5645 75.9497 75.5616C75.3997 74.2596 74.8497 72.9577 74.4497 71.6057C74.0997 70.4039 73.8997 69.102 73.6497 67.9002C73.1997 65.8972 73.1997 63.7941 73.5997 61.7911C74.1497 59.3374 75.3997 56.8337 77.5497 55.3816C78.1997 54.7807 78.8997 54.1297 79.7497 53.8293Z" fill="#F95939"/>
<path d="M85.5497 58.2363H85.8997C85.9997 58.7871 86.0997 59.388 86.1497 59.9389C86.1997 60.1892 86.1997 60.4897 86.2497 60.74C86.0997 60.69 85.9997 60.5898 85.8497 60.5397C85.8997 61.4411 85.7497 62.2924 85.6497 63.1436C85.6997 64.746 86.0497 66.2983 86.2497 67.8506C86.2997 68.6017 86.2497 69.3028 86.2997 70.0539C85.9997 69.1525 86.0997 68.2512 85.9497 67.3499C85.6997 66.1481 85.4997 64.9463 85.4497 63.7445C85.3997 62.8432 85.7997 61.9418 85.6997 61.0405C85.5997 60.0891 85.4997 59.1377 85.5497 58.2363Z" fill="#B15D4E"/>
<path d="M118.1 68.9521C118.25 68.8019 118.4 68.7017 118.6 68.6016C119.15 68.6016 119.75 68.7518 120.15 69.2025C120.5 69.553 120.8 69.9035 121.15 70.254C121.65 70.1038 122.15 70.0036 122.7 70.0537C123.4 70.1038 124.05 70.3542 124.75 70.3041C125.2 70.3041 125.5 69.9536 125.85 69.8033C126.1 69.8033 126.3 69.9536 126.4 70.1539C126.7 70.905 126.85 71.7062 126.75 72.5074C125.5 72.4072 124.25 72.257 123 72.5074C122.35 72.6576 121.7 72.5574 121.1 72.6075C120.45 72.1068 119.8 71.606 119.25 70.9551C118.8 70.3542 118.45 69.6531 118.1 68.9521Z" fill="#E56324"/>
<path d="M158.8 54.7307C158.8 53.579 158.35 52.4773 158.3 51.3757C158.25 50.6246 158.25 49.8234 157.95 49.1223V49.0723C157.8 49.8234 157.55 50.5745 157.5 51.3256C157.6 53.0281 157.75 54.7307 157.65 56.4833C157.6 57.2344 157.7 57.9354 157.7 58.6866C157.7 59.5879 157.85 60.4892 157.75 61.3405C157.6 62.5924 157.75 63.8442 157.6 65.046C157.5 66.5983 157.35 68.2007 157 69.7029C156.95 69.9032 157.05 70.0535 157.1 70.2538L156.9 70.0535C156.55 71.6558 156.4 73.3083 156 74.9107C155.75 75.8621 155.6 76.8135 155.25 77.7149C154.85 78.7163 154.65 79.7679 154.35 80.7694C153.95 82.0713 153.35 83.3232 152.95 84.6251C152.6 85.7268 152.15 86.7783 151.5 87.7297C151.15 88.1804 150.9 88.7312 150.65 89.232C150.45 89.7327 149.95 89.8829 149.55 90.1333C149.2 89.3321 148.7 88.6311 148.25 87.88C147.55 86.7783 146.8 85.6266 146 84.5751C145.25 83.5235 144.5 82.4719 143.65 81.5205C142.9 80.6693 142.25 79.7679 141.45 78.9667C140.5 78.0153 139.4 77.2141 138.4 76.3128C137.35 75.3614 136.2 74.46 134.85 73.9092C132.3 72.9077 129.5 72.8076 126.85 72.457C125.6 72.3569 124.35 72.2067 123.1 72.457C122.45 72.6073 121.8 72.5071 121.2 72.5572C118.95 72.6073 116.8 73.108 114.65 73.6588C113 73.9092 111.45 74.6102 109.95 75.3614C109.3 75.7119 108.65 76.1125 108.1 76.5631C107.45 77.114 106.6 77.5146 106 78.1155C104.7 79.4174 103.75 80.9697 102.7 82.4219C101.2 84.6251 99.95 87.1289 99.45 89.7828C99.25 90.5339 98.9 91.235 98.65 91.9861C97.95 91.285 97.4 90.4338 96.8 89.6326C95.65 88.1303 94.4 86.6281 93.55 84.9256C92.75 83.4233 91.9 81.9211 91.25 80.3187C90.9 79.167 90.35 78.1154 90.05 76.9637C89.85 76.2627 89.5 75.5617 89.3 74.8606C88.6 72.5071 88.05 70.1035 87.5 67.75C86.95 65.4466 86.65 63.0931 86.35 60.7396C86.2 60.6895 86.1 60.5894 85.95 60.5393C86 61.4407 85.85 62.2919 85.75 63.1432C85.8 64.7456 86.15 66.2979 86.35 67.8502C86.45 68.6013 86.35 69.3023 86.4 70.0535C86.55 70.6544 86.75 71.2553 86.9 71.8561C87.1 72.5572 86.95 73.3584 87.1 74.0594C87.9 77.8651 89.4 81.4204 90.15 85.226C90.25 85.9271 90.55 86.6281 90.75 87.2791C90.95 87.88 91.15 88.4809 91.4 89.0317C91.85 89.7327 92.15 90.4838 92.55 91.235L93.75 93.4883C94.2 94.3396 94.7 95.1408 95.25 95.8919C95.85 96.6931 96.25 97.6445 96.85 98.4457C98.3 100.499 99.95 102.452 101.9 104.104C102.8 104.855 103.45 105.807 104.35 106.558C105.5 107.559 106.65 108.711 108.05 109.362C108.95 109.863 109.9 110.263 110.8 110.764C113 111.816 115.2 112.867 117.5 113.768C118.55 114.169 119.7 114.369 120.8 114.52C121.8 114.52 122.75 114.47 123.75 114.52C125 114.219 126.3 114.119 127.5 113.768C129.95 113.017 132.5 112.567 134.95 111.665C135.85 111.315 136.6 110.664 137.4 110.113C139.25 108.861 140.95 107.409 142.75 106.157C143.6 105.456 144.55 104.855 145.2 103.954C146 103.002 146.6 101.851 147.45 100.899C147.95 100.298 148.45 99.6475 148.9 98.9965C149.6 97.9449 150.1 96.7932 150.75 95.7417C151.35 94.8403 151.9 93.939 152.35 92.9876C152.85 91.936 153 90.7843 153.5 89.7327C154 88.5309 154.4 87.3291 154.75 86.0773C155.5 83.7739 156.15 81.4204 156.85 79.0669C157.5 76.5631 157.8 73.9593 158.2 71.3554C158.45 69.7029 158.6 68.0004 158.75 66.2979C158.9 64.7456 158.9 63.2433 158.95 61.691C159 60.339 159.1 59.0371 159.05 57.6851C158.95 56.7337 158.75 55.7322 158.8 54.7307Z" fill="#996057"/>
<path d="M126.75 76.0134C128.35 75.9133 130 75.8131 131.6 76.3139C132.35 76.5142 133.15 76.7645 133.6 77.4656C134.2 78.2167 134.25 79.2683 134.1 80.1696C133.9 80.9708 133.4 81.6218 132.95 82.2727C132.1 83.4244 130.95 84.2757 129.65 84.8766C128.25 85.5276 126.7 85.9282 125.15 86.0784C123.15 86.2787 121.15 86.0283 119.15 85.8781C117.5 85.7779 115.85 85.3273 114.3 84.8265C112.85 84.3258 111.5 83.5246 110.35 82.5231C109.65 81.9222 109 81.0709 109.2 80.0694C109.4 79.2682 110.05 78.6674 110.8 78.3168C112.45 77.6158 114.25 77.3654 116 77.1651C117.8 76.8647 119.6 76.9648 121.35 76.7145C123.2 76.414 125 76.1136 126.75 76.0134ZM156.75 79.0179C157.05 79.0179 157.35 79.0179 157.65 78.9678C157.4 79.0179 157.05 78.9678 157 79.3183C156.65 80.6203 156.4 81.9723 156.05 83.2742C155.4 85.9282 154.4 88.532 153.45 91.0858C153.35 91.0858 153.25 91.0358 153.1 91.0358V91.9872C152.75 92.2375 152.45 92.5881 152.2 92.9887C152.7 91.9371 152.85 90.7854 153.35 89.7338C153.85 88.532 154.25 87.3302 154.6 86.0784C155.4 83.7249 156.05 81.3714 156.75 79.0179Z" fill="#F2844F"/>
<path d="M152.15 108.662C152.35 108.612 152.35 108.912 152.2 109.012C152.05 109.012 152 108.712 152.15 108.662Z" fill="#EC814B"/>
<path d="M152.405 110.615C152.564 110.615 152.617 110.722 152.511 110.881C152.299 110.828 152.246 110.775 152.405 110.615Z" fill="#ED8650"/>
<path d="M120.8 114.52C121.8 114.52 122.75 114.47 123.75 114.52C123.35 114.62 123 114.721 122.6 114.771C121.95 114.771 121.35 114.62 120.8 114.52Z" fill="#BE715C"/>
<path d="M127.55 117.976C129.95 117.826 132.3 117.175 134.7 117.175C136.65 117.175 138.65 117.125 140.6 117.225C141.65 117.275 142.7 117.575 143.7 117.826C145.85 118.326 147.9 119.027 150 119.678C151.5 120.129 153 120.78 154.45 121.331C154.7 121.481 155.05 121.481 155.35 121.431C154 123.484 152.45 125.387 150.7 127.089C149.2 128.491 147.55 129.743 145.8 130.745C143.6 131.997 141.3 133.098 138.9 133.899C136.3 134.701 133.65 135.251 130.95 135.602C129.95 135.702 129 135.802 128 135.852C126.55 135.852 125.1 135.953 123.7 135.702C121.1 135.201 118.45 134.851 115.95 133.95C114.35 133.399 112.75 132.898 111.25 132.147C110.75 131.897 110.25 131.696 109.75 131.446C108.55 130.945 107.45 130.344 106.35 129.693C104.95 128.792 103.4 128.041 102.15 126.939C102.6 126.839 103.1 126.889 103.5 127.089C104.1 127.34 104.7 127.089 105.2 126.789C107.15 125.587 108.85 123.935 110.95 122.983C114.95 120.98 119.15 119.428 123.45 118.326C124.75 117.976 126.2 118.176 127.55 117.976Z" fill="#F2844F"/>
<path d="M156.15 118.727C155.95 118.277 156 117.776 155.95 117.325C155.35 115.222 154.95 113.069 154.75 110.916C154.5 108.913 154.25 106.91 153.95 104.907C153.75 103.755 153.8 102.553 153.75 101.402C153.6 99.5488 153.3 97.6961 153.25 95.7933C153.15 94.5414 153.1 93.2395 153.15 91.9876C152.8 92.238 152.5 92.5885 152.25 92.9891C151.8 93.9405 151.25 94.8418 150.65 95.7432C149.95 96.7947 149.5 97.9965 148.8 98.998C148.35 99.649 147.9 100.3 147.35 100.901C146.55 101.852 145.9 102.954 145.1 103.955C144.45 104.857 143.5 105.458 142.65 106.159C140.85 107.461 139.15 108.913 137.3 110.115C136.5 110.665 135.8 111.316 134.85 111.667C132.45 112.568 129.9 113.069 127.4 113.77C126.15 114.12 124.9 114.221 123.65 114.521C123.25 114.621 122.9 114.721 122.5 114.771C121.9 114.822 121.3 114.621 120.75 114.521C119.65 114.371 118.5 114.171 117.45 113.77C115.15 112.919 112.95 111.817 110.75 110.765C109.85 110.315 108.9 109.864 108 109.363C106.55 108.712 105.45 107.561 104.3 106.559C103.4 105.808 102.75 104.857 101.85 104.106C99.8996 102.503 98.2496 100.5 96.7996 98.4472C96.1996 97.646 95.7996 96.6946 95.1996 95.8934C94.6496 95.0922 94.1496 94.3411 93.6996 93.4898L92.4996 91.2365C92.0996 90.4854 91.7996 89.7342 91.3496 89.0332C91.8496 90.6857 92.6996 92.238 93.4496 93.7903C94.2996 95.4928 94.4496 97.3956 94.8496 99.1983C95.1996 100.65 95.1496 102.103 95.3996 103.555C95.5496 105.107 95.7496 106.659 95.9996 108.212C96.1996 109.664 96.1496 111.166 96.1996 112.618C96.2496 114.571 95.7996 116.474 95.5996 118.377C95.5496 118.928 95.4996 119.428 95.2996 119.979C95.1996 120.28 95.0496 120.58 95.1996 120.881C95.2996 121.231 95.6996 121.331 95.9496 121.582C96.2496 121.882 96.4996 122.233 96.7996 122.583C97.3996 123.284 98.1996 123.785 98.8496 124.486C99.4996 125.187 100.3 125.738 101.05 126.339C101.4 126.589 101.7 126.94 102.1 127.09C102.55 126.99 103.05 127.04 103.45 127.24C104.05 127.49 104.65 127.24 105.15 126.94C107.1 125.738 108.8 124.135 110.9 123.134C114.9 121.181 119.1 119.579 123.4 118.477C124.75 118.076 126.2 118.277 127.55 118.076C129.95 117.926 132.3 117.275 134.7 117.275C136.65 117.275 138.65 117.225 140.6 117.325C141.65 117.375 142.7 117.676 143.7 117.926C145.85 118.427 147.9 119.128 150 119.779C151.5 120.23 153 120.881 154.45 121.431C154.7 121.582 155.05 121.582 155.35 121.532C155.55 121.081 155.85 120.68 156.1 120.23C156.3 119.729 156.3 119.178 156.15 118.727Z" fill="#E56324"/>
<path d="M138.2 42.4121C140.25 42.2619 142.4 42.2619 144.4 42.7126C146.7 43.2133 149 44.0145 150.7 45.6169C151 45.8172 150.7 46.3179 150.35 46.3179C147.2 46.1677 144 46.0175 140.9 46.6684C138.8 46.9689 136.75 47.6199 134.65 48.0705C132.85 48.4711 131.05 48.6213 129.3 49.1722C129 49.2723 128.65 49.4225 128.35 49.3224C128 49.0219 127.9 48.4711 128 48.0205C128.25 47.2193 128.65 46.4181 129.25 45.8172C130.1 45.016 131.1 44.4652 132.1 44.0145C133.1 43.4637 134.15 43.1132 135.25 43.013C136.3 42.9129 137.2 42.4622 138.2 42.4121ZM102.5 44.2649C104.1 43.8643 105.7 43.714 107.35 43.7641C109.05 43.714 110.75 43.9644 112.3 44.6655C113.1 45.016 113.6 45.717 114.1 46.4181C114.5 47.019 114.85 47.6699 114.8 48.421C113.1 48.421 111.4 48.5713 109.65 48.5713C104.3 48.6213 99.0002 49.2723 93.7002 49.9734C93.5002 49.9734 93.3502 49.8732 93.2002 49.7731C94.2502 48.371 95.5502 47.2193 97.0502 46.368C98.7502 45.3665 100.6 44.7656 102.5 44.2649Z" fill="#4F3E37"/>
<path d="M127.05 50.526C127.2 50.2255 127.5 50.0252 127.8 49.875C127.85 50.7263 127.3 51.3772 127.15 52.1784C126.85 53.1799 126.95 54.2315 126.95 55.233C126.8 54.7322 126.7 54.2315 126.7 53.6807C126.75 53.0297 126.85 52.4288 126.9 51.7778C126.6 52.579 126.45 53.3802 126.2 54.2315C126.15 53.0297 126.45 51.6777 127.05 50.526Z" fill="#B95D38"/>
<path d="M126.199 54.3306C126.449 53.5294 126.549 52.6781 126.899 51.877C126.849 52.5279 126.749 53.1288 126.699 53.7798C126.699 54.2805 126.799 54.8313 126.949 55.3321C127.049 55.7828 127.099 56.2835 127.149 56.7342C127.299 58.0862 127.549 59.4382 127.649 60.7902C127.749 62.3425 127.999 63.8447 128.149 65.347C128.249 66.0981 128.299 66.8993 128.249 67.6504C128.199 68.3514 127.699 68.9523 127.199 69.3529C127.599 68.702 127.999 68.0009 127.999 67.2498C128.049 66.4486 127.899 65.6474 127.849 64.8462C127.699 64.7962 127.599 64.7461 127.499 64.7461C127.399 64.8462 127.349 64.9965 127.249 65.0966C126.799 61.4912 125.949 57.936 126.199 54.3306Z" fill="#B95D38"/>
<path d="M139.45 52.0264C139.95 51.9262 140.5 51.9262 140.85 52.2767C141.35 52.6273 141.5 53.2782 141.5 53.8791C141.45 54.6803 141.65 55.5817 141.1 56.2326C140.5 57.0338 139.1 56.9837 138.6 56.1325C138.15 55.3313 138.15 54.3298 138.35 53.4285C138.4 52.8276 138.85 52.2267 139.45 52.0264ZM103.95 53.3784C104.4 53.2782 104.9 53.2782 105.3 53.5787C105.7 53.8791 105.85 54.3799 105.9 54.8806C106 55.782 106.3 56.6833 106.05 57.5846C105.9 58.2857 105.25 58.8365 104.5 58.8866C103.75 58.8866 103.15 58.2857 102.95 57.6347C102.65 56.6332 102.7 55.5817 102.95 54.5802C103.1 54.0293 103.45 53.5787 103.95 53.3784Z" fill="#15100D"/>
<path d="M161.6 57.0353C161.95 56.5846 162.6 56.5846 163.1 56.6848C163.9 56.9852 164.25 57.8865 164.35 58.6877C164.45 60.0397 164.1 61.3417 163.8 62.5935C163 65.5479 162 68.4522 160.35 71.0561C160.2 71.0561 160.05 71.006 159.9 71.006C160.15 70.2549 160.55 69.5539 160.85 68.8028C161.75 66.5995 162.45 64.3461 162.85 62.0427C163.05 60.7909 163.25 59.4388 162.75 58.187C162.6 57.7363 162.05 57.8365 161.65 57.6862C161.4 57.5861 161.4 57.2356 161.6 57.0353ZM82.7004 63.9956C83.0504 63.6952 83.5504 63.7452 83.9504 63.7953C84.0004 63.9956 84.1004 64.246 84.0504 64.4463C83.8004 64.7968 83.4004 65.0973 83.2004 65.4978C82.8504 66.249 82.8004 67.1002 82.8004 67.9014C82.7504 69.8543 83.3004 71.7571 83.9004 73.6099C84.3004 74.7616 84.7004 75.8632 85.3504 76.9148C85.5504 77.1652 85.5504 77.4656 85.5504 77.7661C85.2504 77.6659 85.0004 77.6159 84.8004 77.3655C83.6004 75.8632 82.8504 74.0105 82.2004 72.2078C81.6504 70.5053 81.0004 68.7026 81.2504 66.8999C81.4504 65.7482 81.8004 64.5965 82.7004 63.9956Z" fill="#CC492F"/>
<path d="M127.5 64.7461C127.6 64.7962 127.75 64.8462 127.85 64.8462C127.95 65.6474 128.05 66.4486 128 67.2498C127.95 68.0009 127.6 68.702 127.2 69.3529C126.8 69.8036 126.25 70.1041 125.7 70.3544C124.95 70.7049 124.15 70.4546 123.4 70.4546C122.4 70.4546 121.4 70.2042 120.4 70.054C119.45 69.9038 118.75 69.2027 117.9 68.8522C117.95 68.6519 118 68.5017 118.05 68.3014C118.5 68.3514 118.9 68.5017 119.35 68.5517C119.85 68.5517 120.35 68.8021 120.85 68.9023C122.5 69.2027 124.2 69.4531 125.8 68.9523C126.3 68.752 127 68.6018 127.1 67.9509C127.25 66.9994 127.35 66.048 127.25 65.0966C127.3 64.9464 127.4 64.8462 127.5 64.7461Z" fill="#B75C38"/>
<path d="M96.0004 127.339C96.7504 128.04 97.5004 128.641 98.2504 129.342C99.1004 130.143 100 130.844 100.95 131.546C102.95 132.948 105.1 134.199 107.3 135.251C108.05 135.602 108.8 136.102 109.6 136.403C110.25 136.653 110.85 137.004 111.5 137.204C112 137.504 112.6 137.905 113.2 137.705C112.95 137.304 112.65 136.853 112.2 136.653C111.75 136.403 111.2 136.202 110.7 136.002C108.15 134.6 105.55 133.198 103.05 131.646C101.45 130.594 99.8004 129.543 98.3504 128.241C98.2004 128.09 98.0504 127.99 97.8504 127.94C97.4004 127.389 96.7504 127.039 96.2004 126.588C95.8004 126.238 95.4004 125.937 94.9504 125.637V126.188C94.9504 126.738 95.6504 126.989 96.0004 127.339ZM94.9004 129.993C96.5004 131.596 98.3504 132.898 100.2 134.149C102.25 135.501 104.3 136.803 106.45 137.955C107.1 138.306 107.7 138.806 108.45 139.007C108.7 139.157 108.9 139.257 109.2 139.357C109.3 139.157 109.4 138.957 109.45 138.756C109.85 138.906 110.2 139.007 110.6 139.107C110.25 138.656 109.75 138.356 109.2 138.255C107.7 137.454 106.15 136.703 104.75 135.702C104.15 135.251 103.4 135.101 102.8 134.7C100.65 133.248 98.4504 131.896 96.3504 130.344C95.8504 129.993 95.5004 129.492 94.9504 129.192C94.4004 129.192 94.6504 129.843 94.9004 129.993ZM139.5 146.067C140.15 146.017 140.85 146.017 141.45 145.667C141.5 145.466 141.5 145.266 141.55 145.066C140.2 145.016 138.85 145.066 137.5 145.216C136.15 145.366 134.8 145.667 133.45 145.917C131.8 146.167 130.15 146.167 128.45 146.217C127.3 146.217 126.15 145.967 124.95 145.917C123.4 145.817 121.75 145.616 120.2 145.967C119.7 146.017 119.2 146.167 119 146.668C119.5 146.718 119.95 146.718 120.45 146.718C123.1 147.169 125.75 147.519 128.4 147.97C129.35 148.12 130.25 148.22 131.2 148.07C132.55 147.92 133.85 147.469 135.2 147.019C136.6 146.618 138.05 146.317 139.5 146.067ZM187.25 152.627C188.1 153.328 188.75 154.229 189.55 155.03C190.3 155.782 190.9 156.633 191.45 157.584C192.15 158.786 192.95 159.888 193.9 160.889C195.05 162.191 196.45 163.243 198.05 163.894V163.343C196.7 162.492 195.5 161.44 194.5 160.138C193.35 158.636 192.8 156.833 191.6 155.381C190.8 154.43 189.85 153.628 188.85 152.877C188.201 152.376 187.55 151.776 186.65 151.926C186.85 152.176 187 152.427 187.25 152.627ZM117.35 159.587C119 159.938 120.7 160.238 122.35 159.737C122.4 159.637 122.5 159.487 122.55 159.387C122.35 159.237 122.2 158.986 121.95 159.036C120.85 159.187 119.75 158.936 118.65 158.686C116.1 158.035 113.65 157.083 111.3 155.932C110.25 155.381 109 155.181 107.85 155.381C107.1 155.381 106.35 155.431 105.65 155.681C105.75 155.832 105.8 156.032 106 156.082C106.45 156.232 106.95 156.232 107.45 156.232C108.05 156.332 108.7 156.282 109.3 156.483C110.25 156.733 111.05 157.334 111.9 157.835C113.6 158.686 115.5 159.137 117.35 159.587ZM146.9 156.433C144.3 157.334 141.6 158.085 138.85 158.586C137.85 158.786 136.8 158.886 135.8 159.187C135.5 159.237 135.2 159.337 134.9 159.437C135.2 159.787 135.6 159.938 136.05 159.938C138.2 160.188 140.3 159.687 142.3 158.986C144.55 158.185 146.8 157.434 148.85 156.182V155.631C148.15 155.832 147.55 156.182 146.9 156.433ZM162.25 161.49C161.9 162.391 161.6 163.293 161.2 164.144C160.85 164.945 160.25 165.546 159.7 166.247C159.15 166.998 158.4 167.549 157.75 168.25C157 169.051 156.2 169.802 155.6 170.754C154.95 171.755 154.65 172.907 154.3 174.009C153.7 176.262 152.75 178.415 151.7 180.468C151.4 181.169 150.9 181.72 150.7 182.471C151 182.521 151.3 182.471 151.45 182.171C152.45 180.869 153.2 179.367 153.95 177.914C154.9 176.112 155.6 174.159 156.45 172.306C156.95 171.204 157.8 170.353 158.55 169.502C160 167.95 161.25 166.147 162 164.144C162.3 163.293 162.65 162.341 162.6 161.39C162.55 161.44 162.4 161.49 162.25 161.49ZM198.05 202.05C197.95 200.248 197.9 198.445 197.9 196.692C197.9 194.088 197.85 191.435 197.95 188.831C197.95 188.029 198.15 187.228 198 186.427C197.451 186.677 197 187.128 196.9 187.729C196.55 189.582 196.45 191.485 196.4 193.387C196.3 195.791 196.55 198.145 196.9 200.548C197 201.449 197.35 202.351 197.5 203.252C197.451 203.302 197.35 203.452 197.3 203.553C196.95 202.952 196.5 202.401 196.2 201.8C195.15 199.797 194.65 197.594 193.9 195.541C193.7 194.589 193.35 193.688 193.2 192.736C193.05 192.736 192.9 192.686 192.8 192.686C192.2 190.734 191.8 188.68 191.45 186.677C191.35 186.327 191.35 185.876 191.05 185.626C190.65 185.676 190.6 186.127 190.65 186.427C190.7 186.978 190.5 187.479 190.55 188.029C190.8 190.133 191.4 192.136 191.95 194.139C190.25 192.787 188.15 191.985 186.65 190.333C186.45 190.083 186.15 189.932 185.85 189.832V190.533C185.4 190.333 184.9 190.183 184.35 190.133C184.3 190.233 184.25 190.383 184.2 190.483C184.6 190.734 185.05 190.984 185.5 191.234C185.85 191.435 186.05 191.885 186.45 192.086C188.1 192.937 189.7 193.888 191.2 194.99C191.8 195.39 192.45 195.841 192.7 196.542C193.35 198.245 194.201 199.897 195.1 201.55C195.4 202.05 195.65 202.601 196.05 203.052C196.4 203.452 196.85 203.803 197.15 204.254C197.5 204.554 197.8 204.103 198.05 203.853C198.2 203.152 198.1 202.601 198.05 202.05ZM103.15 189.532C102.7 189.131 102.15 188.831 101.65 188.48C101.1 188.029 100.4 187.829 99.8504 187.328C99.3004 186.778 98.5504 186.527 97.9504 186.027C96.5504 184.775 95.2504 183.373 94.1504 181.82C93.4004 180.819 92.7504 179.667 91.6504 179.016C90.9504 178.615 90.2004 178.315 89.4004 178.265C88.8504 177.864 88.2004 177.514 87.5004 177.514C87.5004 177.614 87.5004 177.814 87.4504 177.864C88.1504 178.115 88.8004 178.515 89.3504 178.966C89.8004 179.317 90.3004 179.517 90.7504 179.917C91.5004 180.518 91.9504 181.37 92.4504 182.171C93.2004 183.373 94.0004 184.524 94.9504 185.576C95.6004 186.277 96.4004 186.778 97.1504 187.278C97.9504 187.829 98.7504 188.28 99.6504 188.731C100 188.881 100.35 189.131 100.75 189.131C101.6 189.031 102.15 189.832 102.85 190.183C103.65 190.583 104.4 191.034 105.15 191.585C105.15 191.334 105.2 191.084 105 190.934C104.5 190.333 103.85 189.882 103.15 189.532ZM61.5004 212.766C61.5504 214.218 61.4004 215.721 61.2504 217.173C61.2004 218.825 61.0504 220.478 60.9004 222.08C60.8504 222.731 60.9004 223.432 60.9004 224.133H62.1504C62.3004 223.232 62.3504 222.28 62.4504 221.379C62.7004 218.274 62.8504 215.12 63.4004 212.065C63.6504 211.164 64.0004 210.313 64.3504 209.411C65.4504 206.557 66.7004 203.753 68.1504 200.999C68.5504 200.198 69.1504 199.446 69.3004 198.545C69.1504 198.545 69.0004 198.495 68.8504 198.495C67.8004 199.446 67.1504 200.698 66.5004 201.9C65.6504 203.452 65.0004 205.155 64.4504 206.807C63.9504 208.159 63.6004 209.612 62.8004 210.863C62.7504 208.51 62.7004 206.156 62.4504 203.803C62.1504 200.949 61.7504 198.094 61.1504 195.29C60.8504 194.089 60.6004 192.837 60.0004 191.785C59.9004 191.535 59.6004 191.485 59.4004 191.384C59.4004 192.086 59.6004 192.787 59.7504 193.488C60.8004 199.947 61.4004 206.357 61.5004 212.766ZM158.2 205.856C156.7 206.707 155 207.358 153.9 208.81C153.5 209.311 153.05 209.862 153.15 210.513C153.25 210.713 153.6 210.663 153.75 210.513C154.1 210.162 154.45 209.712 154.8 209.361C155.65 208.61 156.6 208.059 157.55 207.408C158.75 206.557 160 205.806 161.1 204.804C161.55 204.404 162.1 203.953 162.15 203.252C161.85 203.302 161.55 203.452 161.35 203.703C160.45 204.654 159.3 205.255 158.2 205.856ZM65.1504 224.133C65.6504 221.93 66.2504 219.777 66.9504 217.623C67.7504 215.07 68.5004 212.466 69.3004 209.912C69.7004 208.66 70.2504 207.458 70.6504 206.207C70.4004 206.207 70.1004 206.156 70.0004 206.457C69.2504 207.659 68.7004 209.011 68.0504 210.313C67.6504 211.314 67.1504 212.215 66.8504 213.217C66.8504 213.117 66.8004 213.017 66.8004 212.916L66.6504 213.968C66.6004 213.918 66.6004 213.868 66.5504 213.818L66.4004 214.719C66.4004 214.669 66.3504 214.619 66.3504 214.569C66.0504 215.871 65.7004 217.123 65.3004 218.375C64.8004 220.127 64.4004 221.93 64.0004 223.733C63.9504 223.883 63.9504 224.033 63.9004 224.183H65.1504V224.133ZM123.55 206.908C122.25 207.759 120.7 208.209 119.2 208.56C118.1 208.81 116.95 208.86 115.95 209.361C115 209.812 114.05 210.313 113.2 210.914C112.05 211.815 111.35 213.167 110.3 214.118C110.05 214.369 109.8 214.669 109.8 215.07C110 215.02 110.2 215.02 110.4 214.97C112.2 214.168 113.35 212.416 115.2 211.715C116.55 211.064 118 210.563 119.45 210.062C121.15 209.411 122.9 208.76 124.3 207.508C124.55 207.308 124.5 207.008 124.45 206.707C124.1 206.607 123.8 206.757 123.55 206.908Z" fill="#600ADD"/>
<path d="M131.35 32.5481C131.65 32.498 132 32.498 132.3 32.498C132.3 32.6483 132.3 32.7484 132.25 32.8986C130.95 33.3994 129.6 33.6498 128.25 33.9502C126.15 34.451 124 34.7514 121.85 34.8515C120.2 35.0018 118.5 35.152 116.85 34.9016C116 34.7514 115.2 34.8015 114.35 34.8015C113.75 34.8015 113.1 34.5511 112.5 34.7013C111.85 34.8515 111.2 35.0518 110.5 35.1019C110.9 34.7514 111.4 34.6012 111.85 34.3508C112.4 34.0504 113.1 34.0003 113.7 33.6998C114.35 33.3493 115.1 33.0989 115.85 32.8986C116.95 32.5982 118.05 32.5982 119.15 32.5982C121.05 32.5982 123 32.6483 124.9 32.7985C127.1 33.0489 129.3 32.9988 131.35 32.5481Z" fill="#FCB390"/>
<path d="M122.9 40.8609C125.55 40.5605 128.15 39.7593 130.8 39.3086C130.8 39.3587 130.85 39.5089 130.85 39.559C129.75 40.0096 128.6 40.3101 127.5 40.6606C126.3 41.0612 125.05 41.2615 123.8 41.5119C122.35 41.7622 120.85 41.9625 119.4 41.8123C118.1 41.6621 116.75 41.7622 115.45 41.7122C115.15 41.7122 114.85 41.612 114.6 41.4618C115.15 41.2615 115.75 41.4117 116.3 41.2114C116.6 41.1113 116.9 41.0612 117.2 41.0612C119.05 41.0612 121 41.0612 122.9 40.8609Z" fill="#FBB28F"/>
<path d="M104.75 41.0103C105.95 40.8601 107.1 40.9102 108.3 40.9602C108.65 40.9602 109.05 41.0604 109.15 41.4109C105.55 41.5611 102 42.5125 98.5 43.3137C98.5 43.2637 98.5 43.1134 98.55 43.0634C99.4 42.6628 100.2 42.0619 101.1 41.7614C102.2 41.1105 103.5 41.0604 104.75 41.0103Z" fill="#FBB18D"/>
<path d="M123.5 54.9316C123.55 54.9316 123.6 54.9817 123.65 54.9817C123.75 55.5325 124.05 56.0333 124.1 56.5841C124.15 57.6357 124.35 58.6872 124.5 59.7889C124.7 61.0407 124.8 62.2926 125.1 63.5444C125 63.6947 124.85 63.7948 124.75 63.945C124.55 63.6446 124.35 63.3942 124.25 63.0437C123.6 60.3397 123.15 57.6357 123.5 54.9316Z" fill="#FCB28F"/>
<path d="M145.25 57.3352C145.4 57.2851 145.6 57.3352 145.75 57.3853C145 58.0863 143.8 58.1364 143.2 58.9376C142.85 59.1879 142.35 59.188 141.95 59.238C140.65 59.2881 139.45 59.889 138.15 59.7388C137.5 59.7388 137 59.238 136.35 59.1379C135.9 59.0377 135.4 58.8374 135.05 58.537C136 58.2365 137.05 58.3367 138.05 58.4869C140 58.7373 142 58.2866 143.8 57.6356C144.25 57.4854 144.75 57.4854 145.25 57.3352ZM108.3 59.6887C108.8 59.6386 109.35 59.3882 109.85 59.6386C109.3 60.1894 108.55 60.2395 107.85 60.4899C106.5 60.9406 105.05 61.1909 103.65 61.2911C102 61.4413 100.45 60.9406 98.7998 60.7903V60.3897C100.65 59.9891 102.5 60.3397 104.4 60.2395C105.75 60.2896 107 59.7888 108.3 59.6887Z" fill="#E56324"/>
<path d="M143.45 59.5886C144.9 59.3382 146.4 59.7388 147.65 60.4399C149.2 61.2911 150.55 62.5931 151 64.3457C151.35 65.7978 151.25 67.3501 150.8 68.7522C150.2 70.5549 148.8 72.0071 147.2 72.9585C146 73.6094 144.55 73.8097 143.2 73.7096C139.75 73.6094 136.6 70.605 136.4 67.1498C136.4 64.8965 137.65 62.7433 139.55 61.4914C140.7 60.6402 142 59.8891 143.45 59.5886ZM102.6 61.7418C103.6 61.6417 104.65 61.6417 105.55 62.0923C106.5 62.543 107.5 62.9436 108.2 63.7448C109.4 65.0467 110.2 66.7993 110.15 68.5519C110.05 69.9039 109.85 71.306 109.2 72.5078C108.25 74.2103 106.5 75.4121 104.65 75.8127C103.1 76.1632 101.5 76.0631 99.9495 75.6625C98.8495 75.362 97.8995 74.661 97.0995 73.8598C95.7495 72.5078 95.0495 70.5549 95.2495 68.6521C95.3495 67.4002 95.8995 66.2485 96.5995 65.1969C97.1495 64.4458 97.7995 63.7448 98.6495 63.2941C99.1995 62.9937 99.8495 62.9436 100.4 62.5931C101.05 62.0923 101.8 61.842 102.6 61.7418Z" fill="#F95939"/>
<path d="M127.4 78.2655C128.05 78.2154 128.65 78.2154 129.3 78.1152C130.1 78.0151 130.9 78.0652 131.65 78.3656C132.2 78.5659 132.55 79.2169 132.4 79.8178C132.3 80.2184 132.05 80.619 131.8 80.9695C131.4 81.4702 130.75 81.7206 130.3 82.2213C129.1 83.4732 127.35 84.024 125.7 84.3245C123.5 84.675 121.2 84.9253 119 84.5748C117.95 84.4246 116.95 84.0741 115.9 83.8738C114.3 83.5233 112.65 82.8222 111.55 81.5704C111.15 81.1698 111.2 80.619 111.25 80.1182C111.3 79.9179 111.45 79.8178 111.65 79.7176C112.35 79.4172 113.15 79.3671 113.9 79.2669C115.3 79.0166 116.75 79.0166 118.2 78.8663C119.6 78.7161 121 78.616 122.4 78.5659C124 78.3656 125.7 78.3155 127.4 78.2655Z" fill="white"/>
</g>
<defs>
<clipPath id="clip0_114_14985">
<rect width="268" height="224.434" fill="white"/>
</clipPath>
</defs>
</svg>
