<svg width="268" height="225" viewBox="0 0 268 225" fill="none" xmlns="http://www.w3.org/2000/svg">
<g clip-path="url(#clip0_114_15021)">
<g opacity="0.35">
<path d="M242.3 224.1H25.7C11.5 224.1 0 212.6 0 198.4V67.7996C0 53.5996 11.5 42.0996 25.7 42.0996H242.3C256.5 42.0996 268 53.5996 268 67.7996V198.4C268 212.6 256.5 224.1 242.3 224.1Z" fill="#D6DCE5"/>
</g>
<path d="M145.25 6.24954C148.05 5.74954 150.9 5.69954 153.7 5.94954C157.5 6.09954 161.3 6.34954 164.95 7.34954C167.5 7.84954 170.05 8.49954 172.3 9.74954C173.2 10.2495 173.95 11.0495 174.65 11.7995C175.75 13.0495 177.1 14.0995 178.05 15.5495C179.2 15.6995 180.35 15.7995 181.45 16.1495C182.35 16.3995 183.2 16.7995 184.05 17.0995C185.05 17.3995 185.95 17.9495 186.9 18.3995C187.75 18.8495 188.5 19.4495 189.2 19.9995C190.4 20.8995 191.5 21.8995 192.45 23.0495C193.45 24.1495 194.35 25.2995 195.15 26.5495C195.65 27.4495 196.3 28.2995 196.7 29.2495C197.45 30.8495 198.1 32.5495 198.65 34.2495C199.65 36.8495 200.15 39.5495 200.8 42.2495C201.1 43.5495 201.55 44.7995 201.75 46.1495C202.15 48.0495 202.55 49.8995 202.95 51.7995C203.25 53.2495 203.4 54.7495 203.7 56.2495C204.15 59.3995 204.2 62.5995 204.1 65.7995C203.8 69.0495 203.35 72.2495 202.9 75.4995C202.65 77.0495 202.3 78.5495 202 80.0495C201.2 83.0495 200.4 85.9995 199.4 88.9495C197.55 94.4495 195.6 99.8995 193.85 105.45C193.05 108.2 192.15 110.95 191.25 113.7C190.9 115.15 190.3 116.5 189.95 117.9C189.15 120.55 188.25 123.15 187.6 125.85C187.3 127.35 186.85 128.85 186.75 130.35C186.5 132.3 186.3 134.25 186.15 136.2V141.6C186.15 142.55 186.05 143.55 186.35 144.5C186.9 146.4 187.55 148.3 188.25 150.15C188.65 151.75 189.3 153.3 189.9 154.85C190.1 155.55 190.4 156.25 190.6 156.95L190.15 156.65C190 156.7 189.85 156.7 189.7 156.75C189.35 156 189.05 155.2 188.8 154.4C187.65 153.85 186.45 153.55 185.35 152.95C184.2 152.45 182.9 152.3 181.7 151.9C178.55 151.05 175.35 150.5 172.1 150.15C165.3 149.3 158.45 148.5 151.7 147.35C145.75 146.35 139.8 145.25 133.9 143.75C131.15 143.05 128.45 142.2 125.75 141.3C125.8 142.25 125 142.85 124.4 143.45C122.2 145.4 119.95 147.25 117.6 149C116.95 149.4 116.35 149.95 115.6 150.1C115.05 150.15 114.7 149.75 114.5 149.3C114.35 149.25 114.25 149.2 114.1 149.15C113.65 149.6 112.85 149.65 112.45 149.05C113.4 148.9 114.3 148.65 115.2 148.25C115.4 148.5 115.6 148.85 115.95 148.95C116.75 149.15 117.55 148.6 118.15 148.15C119.45 147.15 120.5 145.95 121.6 144.75C121.9 144.45 122.45 144.5 122.6 144.1C122.95 143.4 123.25 142.7 123.75 142.1C124.9 140.65 125.8 139.05 126.8 137.45C127.9 135.15 128.85 132.7 129.6 130.25C129.7 129.85 130.05 129.6 130.25 129.25C130.5 128.6 130.5 127.85 130.85 127.25C131.3 126.4 131.25 125.4 131.45 124.45C131.95 121.65 132.7 118.85 132.85 115.95C132.95 114.9 133.25 113.9 133.45 112.9C133.55 112.4 133.4 111.9 133.45 111.4C133.55 110.3 133.8 109.2 133.9 108.1C133.95 107.8 133.7 107.6 133.55 107.35H132.85C133.05 105.6 132.85 103.8 132.85 102C132.8 99.3495 132.7 96.6995 132.65 93.9995H132.4C132.25 94.5495 132.3 95.1495 132.25 95.6995C132.1 97.2995 132.15 98.8995 132.1 100.5C132 103.15 132.1 105.8 131.75 108.45C131.55 110.6 131.05 112.7 130.6 114.8C130.1 116.85 129.6 118.9 128.85 120.85C128.05 123.2 127.1 125.45 126.15 127.75C125.05 130.35 123.75 132.85 122.2 135.15C120.85 137.1 119.3 138.95 117.55 140.5C116.7 141.15 115.8 141.8 114.85 142.35C113.7 142.95 112.5 143.5 111.3 144C109.6 144.65 107.75 144.75 105.9 144.85C105.15 144.85 104.4 144.65 103.75 144.35C102.55 143.9 101.5 143.15 100.65 142.2C99.6997 140.55 99.3997 138.6 99.4997 136.7C99.6997 136 99.8497 135.3 100.2 134.65C101.25 132.55 102.8 130.75 104.05 128.75C104.85 127.6 105.45 126.35 106.05 125.15C106.7 124 107.1 122.75 107.6 121.55C108.05 120.35 108.45 119.2 108.8 117.95C109.05 116.75 109.3 115.55 109.4 114.3C109.5 111.4 109.4 108.5 109 105.65C108.8 103.6 108.4 101.6 108 99.5995C107.3 95.5495 106.65 91.4995 106.05 87.3995C105.4 83.5995 104.9 79.7495 104.75 75.8995C104.7 73.7495 104.55 71.5995 104.6 69.4495C104.7 66.5995 104.65 63.7995 104.9 60.9495C105.1 59.4995 105.1 57.9995 105.3 56.5495C105.55 53.1995 106.2 49.8995 106.95 46.6495C107.45 44.1495 108.2 41.7495 109 39.3495C109.35 38.1495 109.85 36.9995 110.2 35.7495C110.8 34.1495 111.45 32.6495 112.1 31.0495C113.05 28.8995 113.95 26.6995 115.3 24.7495C116.2 23.1995 117.3 21.7495 118.5 20.4495C119.65 19.0995 120.9 17.7995 122.3 16.6995C123.75 15.2995 125.6 14.3495 127.25 13.1495C128.85 12.1495 130.45 11.1495 132.2 10.3995C133.6 9.69954 135 9.09954 136.4 8.44954C137.75 7.99954 139.05 7.44954 140.4 7.09954C141.95 6.89954 143.55 6.44954 145.25 6.24954Z" fill="#FFF0CF"/>
<path d="M137.1 29.6501C137.85 29.4501 138.65 29.2001 139.45 29.3001C138.35 30.0501 137 30.3501 135.8 30.8501C136.1 31.5501 136.05 32.3001 136.05 33.0501C136 34.9001 135.9 36.7001 135.95 38.5501C135.45 47.1501 133.4 55.5501 132.3 64.0501C132 66.1501 131.65 68.2501 131.25 70.3501C130.85 72.4001 130.2 74.4501 129.25 76.3501C128.5 77.8001 127.25 79.0501 125.6 79.5001C123.8 79.9501 122 79.2501 120.4 78.5001C119.2 77.8501 117.9 77.4001 116.9 76.5001C115.8 75.6001 114.75 74.6001 113.9 73.4501C112.75 72.0001 111.6 70.5001 110.9 68.7501C110 66.8501 109.45 64.7501 109.15 62.7001C108.9 59.8501 109.25 56.9501 109.9 54.1501C110.6 51.3001 111.75 48.5001 113.45 46.1001C115.65 43.0001 118.2 40.2001 121.2 37.9501C123.25 36.3001 125.45 34.8001 127.7 33.5001C130.65 31.7001 133.8 30.4001 137.1 29.6501ZM184.9 62.1001C185.3 62.3501 185.45 62.8001 185.7 63.1501C186.5 64.4001 187.1 65.8001 187.55 67.2001C187.9 68.4001 188.35 69.5501 188.7 70.7501C189.15 72.0001 189.35 73.3501 189.8 74.6001C190.1 75.5501 190.25 76.5501 190.6 77.5001C190.9 78.2501 191.05 79.0501 191.15 79.8501C191.3 79.6501 191.45 79.4001 191.6 79.2001C191.8 79.1501 192 79.1501 192.2 79.1501C192.4 78.7001 192.7 78.2501 193.1 77.9501C193.8 77.1501 194.3 76.2501 195 75.5001C195.35 75.1001 195.55 74.5501 195.85 74.1501C196.75 73.0001 197.2 71.6001 197.95 70.3501C198.1 70.0501 198.6 69.9001 198.85 70.2001C199.05 70.3501 199 70.6001 199 70.8001C198.85 71.4001 198.5 71.9501 198.4 72.6001C198 75.0501 197.05 77.4001 196 79.6501C194.7 82.6001 193.2 85.4501 191.2 88.0001C190.95 88.3001 190.6 88.6001 190.55 89.0001C190.25 92.6001 190 96.2001 189.55 99.8001C189.25 101.7 189.05 103.6 188.7 105.5C188.2 108.1 187.75 110.75 187.1 113.3C186.05 117.9 185.1 122.55 183.95 127.15C183.55 128.75 183.35 130.45 183.15 132.1C182.9 133.95 182.65 135.85 182.55 137.7C182.5 139.15 182.65 140.6 182.6 142.1C182.55 143.9 183.05 145.65 182.95 147.45C182.85 148 182.05 148.05 181.8 147.65C181.45 147.1 181.2 146.5 181 145.85C180.15 143.15 179.55 140.35 179.45 137.55C179.3 136.15 179.45 134.75 179.5 133.35C179.75 129.95 179.9 126.55 180.4 123.2C180.9 120 181.4 116.8 182.05 113.6C182.55 110.95 183.2 108.3 183.7 105.65C184.4 102.15 184.95 98.6501 185.35 95.1001V94.2501C184.45 95.6501 183.4 96.9001 182.65 98.3501C182.4 98.8501 182.1 99.3001 181.75 99.8001C180.1 104 178.9 108.4 177.85 112.75C177.2 115.7 176.65 118.65 176.35 121.65C175.95 125.45 175.5 129.25 175.3 133.1C175.2 134.8 175.35 136.55 175.2 138.25C175.15 138.65 175.25 139.1 174.9 139.4C174.55 139.8 173.95 139.65 173.65 139.3C173.25 138.75 173.05 138.05 172.8 137.4C171.85 134.4 170.3 131.65 169.2 128.65C168.25 126 167.2 123.35 166.4 120.6C165.6 117.85 165.25 114.95 165.3 112.1C165.35 106.1 166.3 100 168.75 94.5001C169.75 92.2501 170.9 90.1001 172.2 88.0501C173.7 85.8001 175.4 83.6001 177.25 81.6001C178.85 79.9501 180.55 78.5001 182.4 77.2001C183.45 76.5001 184.55 75.8001 185.8 75.5501C186.7 75.3501 187.6 75.3501 188.5 75.6001C188.15 74.1001 187.9 72.5501 187.55 71.0501C187.2 69.6001 186.8 68.2001 186.45 66.7501C186.15 65.3001 185.45 63.9501 184.95 62.5501C184.95 62.3001 184.9 62.1501 184.9 62.1001ZM132.35 94.1501H132.6C132.6 96.8001 132.7 99.4501 132.8 102.15C132.8 103.95 132.95 105.7 132.8 107.5H133.5C133.65 107.7 133.9 107.95 133.85 108.25C133.75 109.35 133.55 110.45 133.4 111.55C133.35 112.05 133.5 112.55 133.4 113.05C133.2 114.05 132.9 115.05 132.8 116.1C132.7 119 131.95 121.8 131.4 124.6C131.2 125.55 131.25 126.5 130.8 127.4C130.5 128.05 130.5 128.75 130.2 129.4C130 129.75 129.65 130 129.55 130.4C128.75 132.85 127.85 135.25 126.75 137.6C125.75 139.15 124.85 140.75 123.7 142.25C123.2 142.85 122.9 143.55 122.55 144.25C122.35 144.65 121.85 144.6 121.55 144.9C120.45 146.1 119.4 147.3 118.1 148.3C117.45 148.75 116.7 149.3 115.9 149.1C115.55 149.05 115.35 148.65 115.15 148.4C114.3 148.8 113.35 149.05 112.4 149.2C112.15 149.2 111.85 149.25 111.6 149.25H109.75C108.3 148.8 107.05 147.85 105.8 147C104.65 146.35 103.5 145.8 102.5 144.95C101.55 144.2 100.8 143.2 99.9502 142.4C100.25 142.55 100.5 142.7 100.8 142.85C100.75 142.75 100.65 142.6 100.6 142.5C101.45 143.45 102.5 144.2 103.7 144.65C104.4 144.95 105.1 145.15 105.85 145.15C107.65 145.05 109.5 145 111.25 144.3C112.45 143.8 113.65 143.25 114.8 142.65C115.75 142.1 116.65 141.5 117.5 140.8C119.3 139.25 120.85 137.4 122.15 135.45C123.7 133.1 125 130.6 126.1 128.05C127.05 125.75 128 123.5 128.8 121.15C129.55 119.2 130.1 117.15 130.55 115.1C131 113 131.5 110.9 131.7 108.75C132.05 106.1 131.95 103.45 132.05 100.8C132.1 99.2001 132.05 97.6001 132.2 96.0001C132.25 95.3001 132.2 94.7001 132.35 94.1501Z" fill="#BA9F80"/>
<path d="M220.25 223.701C220.25 223.651 220.25 223.601 220.3 223.601C220.75 222.101 220.95 220.501 221.25 218.951C221.6 217.151 221.7 215.301 221.7 213.451C221.8 210.601 221.35 207.751 221 204.951C220.75 203.051 220.6 201.151 220.4 199.251C220.25 197.501 220 195.751 219.85 194.001C219.7 192.001 219.55 189.951 219.25 187.951C219.05 186.301 218.95 184.601 218.6 183.001C218 180.151 217.1 177.401 215.95 174.751C214.95 172.501 213.65 170.401 212 168.601C210.7 167.201 209.2 166.001 207.6 164.951C206.5 164.201 205.45 163.451 204.4 162.701C201.9 161.001 199.25 159.551 196.7 157.951C195.6 157.401 194.45 156.951 193.3 156.501C192.15 156.051 191 155.501 189.9 154.901C190.1 155.601 190.4 156.301 190.6 157.001L190.15 156.701C190 156.751 189.85 156.751 189.7 156.801C189.35 156.051 189.05 155.251 188.8 154.451C187.65 153.901 186.45 153.601 185.35 153.001C184.2 152.501 182.9 152.351 181.7 151.951C178.55 151.101 175.35 150.551 172.1 150.201C165.3 149.351 158.45 148.551 151.7 147.401C145.75 146.401 139.8 145.301 133.9 143.801C131.15 143.101 128.45 142.251 125.75 141.351C125.8 142.301 125 142.901 124.4 143.501C122.2 145.451 119.95 147.301 117.6 149.051C116.95 149.451 116.35 150.001 115.6 150.151C115.05 150.201 114.7 149.801 114.5 149.351C114.35 149.301 114.25 149.251 114.1 149.201C113.65 149.651 112.85 149.701 112.45 149.101C112.2 149.101 111.9 149.151 111.65 149.151C111.45 149.301 111.25 149.501 110.95 149.501C110.5 149.551 110.15 149.301 109.8 149.151C108.35 148.701 107.1 147.751 105.85 146.901C104.7 146.251 103.55 145.701 102.55 144.851C101.6 144.101 100.85 143.101 100 142.301C100.3 142.451 100.55 142.601 100.85 142.751C100.8 142.651 100.7 142.501 100.65 142.401C99.7004 140.751 99.4004 138.801 99.5004 136.901C99.7004 136.201 99.8504 135.501 100.2 134.851C98.9004 134.751 97.6004 134.801 96.3004 134.951C93.8004 135.251 91.4004 136.051 88.9004 136.451C86.6004 136.801 84.2504 137.201 82.1004 138.101C80.6504 138.701 79.3004 139.651 78.2004 140.751C76.7004 142.451 75.3004 144.301 74.0004 146.151C72.2504 148.701 70.7004 151.401 69.3004 154.201C68.6004 155.401 68.0504 156.651 67.5004 157.901C66.3504 160.601 65.1504 163.301 64.1504 166.051C63.0504 168.851 62.1004 171.701 61.0004 174.501C60.1004 176.651 59.3504 178.851 58.2504 180.901C57.4004 182.501 56.7504 184.201 55.9004 185.851C55.3004 187.001 54.8504 188.251 54.2504 189.401C53.2004 191.601 52.4504 193.951 51.5004 196.251C50.2504 199.401 49.8504 202.801 49.2004 206.101C48.8004 208.651 48.2004 211.201 47.8504 213.751C47.3504 217.051 46.6504 220.301 46.4004 223.601H220.25V223.701Z" fill="#38312D"/>
<path d="M109.75 149.149C110.35 149.099 111 149.149 111.6 149.149C111.4 149.299 111.2 149.499 110.9 149.499C110.5 149.549 110.15 149.299 109.75 149.149Z" fill="#FFF0CF"/>
<path d="M170.6 25.1506C170.8 25.1506 171.05 25.1006 171.25 25.2506C171.8 25.6006 172.15 26.2006 172.55 26.7006C173.2 27.6006 174 28.4506 174.65 29.4006C175.2 30.2006 175.6 31.1006 176.05 31.9506C176.8 33.3006 177.55 34.6006 178.15 36.0006C178.95 37.8506 179.8 39.6506 180.6 41.5006C181.4 43.0506 181.9 44.7506 182.6 46.3506C183.65 49.3006 184.6 52.2506 185.15 55.3506C185.3 56.1006 185.45 56.9006 185.6 57.6506C185.7 58.2506 185.75 58.9006 186 59.5006C185.65 60.2006 185.55 60.9506 185.5 61.7006C185.4 63.2006 185.05 64.6506 184.9 66.1506C184.7 67.8506 184.4 69.5006 184.2 71.2006C183.9 73.7006 183.45 76.2006 182.9 78.6506C182.45 80.7506 182.15 82.9006 181.7 85.0506C181.55 85.7506 181.45 86.4506 181.35 87.1506C181.05 88.1506 180.55 89.1006 180.2 90.0506C178.35 94.3006 176.45 98.5006 174.15 102.501C174 102.701 173.95 102.951 173.75 103.051C172.6 103.601 171.7 104.551 170.75 105.401C170.05 106.001 169.35 106.551 168.65 107.151C167.7 107.901 166.8 108.651 165.75 109.201C164.55 109.801 163.35 110.351 162.2 111.001C160.85 111.751 159.4 112.301 157.9 112.601C156.2 112.801 154.45 113.051 152.75 112.751C151.5 112.601 150.25 112.201 149.05 111.751C147.8 111.301 146.75 110.551 145.65 109.801C144.45 108.951 143.25 108.101 142.15 107.151C141.05 106.301 140.15 105.201 139.3 104.151C138.1 102.651 136.85 101.151 135.85 99.5006C135.25 98.5506 134.55 97.6506 134 96.7006C133.35 95.6506 132.8 94.5506 132.05 93.5506C131.55 92.8506 130.95 92.2506 130.5 91.5006C130.25 91.0506 129.95 90.7006 129.6 90.3506C129.25 89.6006 129.1 88.7006 128.75 87.9506C128.2 86.2006 127.2 84.6506 126.2 83.1006C126.15 83.0006 126.1 82.9006 126.1 82.8006C126.05 82.1006 125.85 81.4506 125.65 80.8006C125.8 80.3506 126 79.9006 125.95 79.4506C125.9 77.7006 125.6 76.0006 125.65 74.2506C125.55 71.1006 126.1 68.0006 126.9 65.0006C127.45 62.9006 127.9 60.8006 128.85 58.8506C129.55 57.3506 130.2 55.8506 131.05 54.4506C132.95 51.4506 135.2 48.7006 137.85 46.3006C139.9 44.5006 142.15 42.9506 144.55 41.6006C146.75 40.4006 149 39.3506 151.25 38.2506C153.2 37.2506 155.25 36.3006 157.2 35.2506C159.2 34.0006 161.45 33.1506 163.45 31.9006C165.55 30.6506 167.55 29.1506 169.25 27.4006C169.9 26.6506 170.55 26.0006 171.05 25.1506C170.75 25.2506 170.65 25.2006 170.6 25.1506Z" fill="#F2844F"/>
<path d="M169.4 25.8504C169.8 25.6504 170.2 25.4004 170.6 25.1504C170.65 25.2004 170.75 25.2504 170.8 25.2504C170.3 26.1004 169.65 26.8004 169 27.5004C167.3 29.2504 165.35 30.7504 163.2 32.0004C161.2 33.2504 158.95 34.1004 156.95 35.3504C155 36.4004 153 37.3504 151 38.3504C148.75 39.4504 146.5 40.5004 144.3 41.7004C141.9 43.0504 139.65 44.6004 137.6 46.4004C135 48.8004 132.75 51.6004 130.8 54.5504C129.95 55.9504 129.3 57.4504 128.6 58.9504C127.65 60.9004 127.2 63.0004 126.65 65.1004C125.85 68.1004 125.3 71.2504 125.4 74.3504C125.35 76.1004 125.65 77.8004 125.7 79.5504C125.75 80.0004 125.55 80.5004 125.4 80.9004C125 80.7004 124.4 80.6504 124.35 80.1004C124.3 79.4004 124.55 78.7504 124.55 78.0504C124.45 76.1504 124.3 74.2004 124.15 72.3004C124.2 70.6004 123.9 68.9004 123.85 67.2004C123.75 65.7004 123.4 64.2004 123 62.7004C122.85 62.2004 122.8 61.6004 122.5 61.1504C122.25 60.8504 121.85 61.1004 121.5 61.1004V60.7004C121.75 60.5504 122 60.5004 122.2 60.2504C122.25 59.6504 122.15 59.0004 122.1 58.4004C122 56.4504 121.85 54.4504 122.05 52.5004C122.25 50.0004 122.6 47.5004 123.5 45.1004C124.2 43.2004 125 41.4004 126 39.6504C127.55 37.0504 129.6 34.7504 131.9 32.8004C133.4 31.4504 135.15 30.3004 137 29.5504C138.9 28.8004 140.9 28.2004 142.95 28.0004C144.55 27.8504 146.15 27.7004 147.75 27.6504C151 27.6004 154.25 28.3504 157.5 28.5504C159.4 28.6504 161.35 28.7004 163.25 28.2004C165.4 27.6504 167.4 26.8004 169.4 25.8504Z" fill="#E56324"/>
<path d="M192 54.9499C193.2 54.6999 194.55 54.6999 195.65 55.2499C196.6 55.6999 197.55 56.2499 198.2 57.0499C198.9 57.8999 199.65 58.7999 200 59.8999C200.65 61.7999 201.1 63.7999 200.8 65.7999C200.6 67.1999 200.3 68.5999 199.75 69.8999C198.85 72.0999 197.65 74.1499 196.4 76.1499C195.05 78.1999 193.4 80.0999 191.75 81.8999C189.2 84.5499 185.8 86.3499 182.25 87.1999C181.9 87.2499 181.6 87.2499 181.25 87.2499C181.35 86.5499 181.5 85.8499 181.6 85.1499C182 82.9999 182.3 80.8499 182.8 78.7499C183.4 76.2999 183.8 73.7999 184.1 71.2999C184.3 69.5999 184.6 67.9499 184.8 66.2499C184.95 64.7499 185.3 63.2999 185.4 61.7999C185.45 61.0499 185.6 60.2999 185.9 59.5999C186.65 58.4999 187.6 57.4999 188.6 56.6499C189.6 55.7999 190.8 55.1999 192 54.9499ZM118.45 61.5499C118.7 61.1499 119.05 60.8499 119.45 60.5999C120.15 60.4999 120.85 60.6999 121.55 60.7499V61.1499C121.85 61.0999 122.3 60.8499 122.55 61.1999C122.85 61.6499 122.9 62.1999 123.05 62.7499C123.45 64.1999 123.8 65.6999 123.9 67.2499C123.95 68.9499 124.25 70.6499 124.2 72.3499C124.35 74.2499 124.55 76.1999 124.6 78.0999C124.65 78.7999 124.4 79.4499 124.4 80.1499C124.45 80.6999 125.05 80.7499 125.45 80.9499C125.65 81.5999 125.85 82.2499 125.9 82.9499C125.5 82.5499 125.2 81.9999 124.8 81.5999C124.25 80.9499 123.55 80.4499 123 79.8499C122.35 79.1999 121.6 78.5499 120.8 78.0499C120.2 77.6499 119.5 77.3499 119.05 76.7499C118.75 76.3999 118.9 75.8999 118.8 75.4999C118.6 74.1499 118.35 72.7999 118.35 71.3999C118.15 68.8499 118.1 66.2999 118.2 63.6999C118.3 62.9499 118.25 62.1999 118.45 61.5499Z" fill="#F95939"/>
<path d="M129.55 90.4004C129.9 90.7504 130.2 91.1504 130.45 91.5504C130.9 92.3004 131.5 92.9004 132 93.6004C132.75 94.6004 133.3 95.7004 133.95 96.7504C134.55 97.7004 135.25 98.6004 135.8 99.5504C136.8 101.2 138.05 102.7 139.25 104.2C140.15 105.25 141.05 106.35 142.1 107.2C143.2 108.15 144.4 109 145.6 109.85C146.7 110.6 147.75 111.35 149 111.8C150.2 112.25 151.4 112.65 152.7 112.8C154.4 113.05 156.15 112.85 157.85 112.65C159.35 112.35 160.8 111.8 162.15 111.05C163.35 110.45 164.55 109.85 165.7 109.25C166.75 108.7 167.65 107.95 168.6 107.2C169.3 106.6 170 106.05 170.7 105.45C171.65 104.6 172.55 103.65 173.7 103.1C173.6 103.35 173.45 103.6 173.35 103.85C173.15 105 172.75 106.05 172.25 107.1C171.2 109.4 169.85 111.55 168 113.3C165.45 115.75 162.7 118.05 159.85 120.05C157.7 121.5 155.5 122.9 153.25 124.15C151 125.4 148.65 126.55 146.45 127.9C144.65 129.05 142.85 130.2 141.3 131.7C139.55 133.3 138 135.1 136.65 137.05C134.8 139.7 133.1 142.4 131.2 145.05C129.8 147.1 128.35 149.1 126.75 151.05C123.9 154.7 120.45 157.9 116.55 160.3C115.3 161.1 114 161.85 112.7 162.6C111.15 163.5 109.4 163.95 107.7 164.45C107.7 160.75 107.75 157.05 108.05 153.35C108.25 151.95 108.2 150.5 108.35 149.05C108.4 148.7 108.5 148.2 108.95 148.15C109.65 148.25 110.3 148.6 111 148.65C112.3 148.75 113.65 148.6 114.9 148.2C116.35 147.8 117.75 147.15 119.1 146.45C121.35 145.05 123.3 143.15 124.6 140.85C128 134.6 130.4 127.8 131.55 120.8C132.25 117.1 132.55 113.3 132.55 109.55C132.55 106.65 132.55 103.8 132.25 100.9C132.2 100.15 131.85 99.5004 131.8 98.7504C131.65 97.8004 131.6 96.9004 131.4 95.9504C131.05 94.1504 129.95 92.4004 129.55 90.4004Z" fill="#E56324"/>
<path d="M107.75 183.55C108.15 186.45 108.55 189.4 109.45 192.25C110.2 195 111.3 197.6 112.25 200.25C112.8 201.75 113.6 203.15 114.2 204.6C115.2 207 116.65 209.2 117.9 211.45C119.25 213.55 120.55 215.6 122.05 217.6C122.85 218.7 123.6 219.8 124.45 220.85C125.1 221.7 125.8 222.55 126.75 223.05C127.05 223.2 127.25 223.5 127.5 223.75H128.9C129 223.7 129.05 223.6 129.15 223.55C130.1 222.6 130.9 221.45 131.75 220.4C132.4 219.6 133.1 218.85 133.7 218C134.6 216.8 135.65 215.65 136.6 214.45C138.25 212.25 140.1 210.2 141.8 208C144.3 205.1 146.65 202.05 149.1 199.1C150.6 197.2 152.1 195.35 153.6 193.45C154.6 192.2 155.75 191 156.75 189.75C158.45 187.75 160.05 185.65 161.75 183.65C163.35 181.75 165 179.85 166.65 178C168.4 176 170.3 174.15 172.1 172.2C175.4 168.7 178.95 165.45 182.65 162.35C184.5 160.8 186.6 159.5 188.6 158.15C189.2 157.75 189.9 157.45 190.45 157C190.8 156.25 190.45 155.3 189.85 154.8C188.85 153.9 188.1 152.8 187.25 151.8C186.45 150.85 185.75 149.85 185.05 148.8C184.2 147.5 183.2 146.3 182.4 145C181.75 144 181.25 142.95 180.7 141.9C179.4 139.65 178.5 137.2 177.6 134.75C176.65 132.5 176.1 130.1 175.45 127.75C174.85 125.55 174.6 123.25 174.25 120.95C174 119.3 173.9 117.65 173.7 115.95C173.6 114.45 173.35 112.95 173.25 111.45C173.25 110.1 173.15 108.8 173.15 107.45C173.15 106.25 173.05 105.05 173.15 103.85C172.95 105 172.5 106.05 172.05 107.1C171 109.35 169.65 111.55 167.8 113.3C165.25 115.75 162.5 118.05 159.65 120.05C157.5 121.5 155.3 122.9 153.05 124.15C150.8 125.4 148.45 126.55 146.25 127.9C144.45 129.05 142.65 130.2 141.1 131.7C139.35 133.3 137.8 135.1 136.45 137.05C134.6 139.7 132.9 142.4 131 145.05C129.6 147.1 128.15 149.1 126.55 151.05C123.7 154.7 120.25 157.9 116.35 160.3C115.1 161.1 113.8 161.85 112.5 162.6C110.95 163.5 109.2 163.95 107.5 164.45C107.25 167.5 107.45 170.6 107.25 173.65C107.15 175.2 107.15 176.75 107.15 178.25C107.45 180.1 107.5 181.85 107.75 183.55Z" fill="#F2844F"/>
<path d="M147.7 9.40083C148.3 9.40083 148.9 9.25083 149.5 9.25083C150.95 9.25083 152.4 9.10083 153.9 9.15083C157.2 9.10083 160.55 9.30083 163.75 10.0508C165.95 10.6008 168.15 11.1008 170.25 11.9008C170.85 12.1508 171.55 12.4008 171.85 13.0508C171.1 13.1008 170.55 12.6508 169.9 12.4008C167.95 11.6508 165.85 11.2508 163.85 10.8008C160.95 10.2008 157.95 9.75083 154.95 9.70083C152.75 9.60083 150.5 9.70083 148.3 9.75083C147.6 9.70083 146.9 9.75083 146.2 9.75083C146.35 9.70083 146.5 9.60083 146.65 9.55083C146.95 9.40083 147.35 9.45083 147.7 9.40083Z" fill="#C5B68E"/>
<path d="M143.65 9.70017C144.65 9.60017 145.6 9.45017 146.6 9.50017C146.45 9.55017 146.3 9.65017 146.15 9.70017H148.25C147.8 9.90017 147.3 9.80017 146.85 9.85017C143.75 10.1002 140.65 10.4002 137.65 11.2502C136.8 11.4502 136 11.8002 135.2 12.0502C135.2 11.9502 135.25 11.8002 135.25 11.7502C137.9 10.6002 140.8 10.0502 143.65 9.70017Z" fill="#D4C7AB"/>
<path d="M142.85 12.7502C146.35 12.0502 149.9 11.9002 153.45 12.3002C155.45 12.5002 157.45 12.7502 159.4 13.1502C160.75 13.4502 162.15 13.6502 163.5 13.8502C165.75 14.3002 168.05 14.7502 170.3 15.1002C171.75 15.2502 173.25 15.5002 174.7 15.2002C174.75 15.3002 174.75 15.4002 174.8 15.5002C174.2 15.7002 173.55 15.9002 172.9 15.9002C170.4 15.9502 167.9 15.3502 165.45 14.9002C163.8 14.5502 162.2 14.3502 160.55 14.0502C157.3 13.5002 154 13.0502 150.7 12.9502C144.85 12.8002 139.05 14.2002 133.65 16.4002C132.1 17.0502 130.6 17.8002 129.25 18.8502C128.9 19.1502 128.55 19.4502 128.1 19.6002C128.2 18.9502 128.85 18.7002 129.25 18.3502C131.35 16.6502 133.9 15.6002 136.4 14.6502C138.5 13.9002 140.65 13.2002 142.85 12.7502Z" fill="#C1AF84"/>
<path d="M141.1 17.5992C144.35 17.2992 147.6 17.2492 150.85 17.5492C152.85 17.6992 154.9 17.8492 156.9 18.0992C159.3 18.2992 161.75 18.4992 164.15 18.6992C165.5 18.7492 166.9 18.7992 168.25 18.8492C169.25 18.8492 170.25 18.7492 171.25 18.6992H172.65C172.5 18.7992 172.35 18.8492 172.25 18.9492C171.5 19.1992 170.7 19.1992 169.9 19.2992C168.2 19.3492 166.55 19.4492 164.85 19.3492C162.85 19.3492 160.8 19.0992 158.8 18.9992C156.85 18.8992 154.9 18.5992 152.95 18.4992C149.15 18.2492 145.3 18.1492 141.5 18.4992C138.3 18.8492 135.05 19.0992 131.9 19.9992C129.9 20.5992 127.95 21.4492 126.2 22.4992C124.3 23.6992 122.6 25.1992 121 26.7992C120.2 27.4992 119.55 28.2992 118.8 29.0492L118.5 28.7492C120.05 27.0992 121.65 25.4492 123.3 23.8992C124.85 22.4492 126.6 21.2492 128.55 20.3992C130.25 19.5992 132 18.9492 133.9 18.5992C136.25 18.0492 138.65 17.7992 141.1 17.5992Z" fill="#C2B085"/>
<path d="M176.65 17.3508C176.75 17.3508 176.95 17.3008 177.05 17.3008C177 17.6508 176.9 18.0008 176.7 18.3008C175.45 20.2008 174.25 22.1008 172.75 23.8008C172 24.6008 171.2 25.4508 170.2 25.9008C170.15 25.8508 170.1 25.7508 170.1 25.6508C170.85 25.1508 171.6 24.6008 172.15 23.8508C173.85 21.8508 175 19.4508 176.65 17.3508Z" fill="#C7BA95"/>
<path d="M171.25 18.6992C171.9 18.4492 172.55 18.4492 173.2 18.4492C173.25 18.9992 172.55 18.8992 172.2 18.9992C172.35 18.8992 172.5 18.8492 172.6 18.7492C172.15 18.6992 171.7 18.6992 171.25 18.6992Z" fill="#DDD5C1"/>
<path d="M181.7 19.6504C182.25 20.0004 182.65 20.5004 183.2 20.9004C185.75 22.7504 187.8 25.2004 189.65 27.7504C191.05 29.6504 192.2 31.8004 193.15 34.0004C194.2 36.6004 195.15 39.3004 195.8 42.0504C196.2 43.6504 196.5 45.3004 196.8 46.9504C197 48.0004 197.2 49.0504 197.3 50.1504C197.3 50.5004 197.3 50.8504 197.25 51.2004C197.2 50.7504 197.15 50.3004 196.95 49.8504C196.65 49.0004 196.6 48.0504 196.35 47.1504C195.85 44.7504 195.15 42.4004 194.4 40.0504C193.45 37.4004 192.6 34.7004 191.3 32.2004C190.15 29.9504 188.7 27.9004 187.15 25.9004C186.1 24.6004 185.05 23.3504 183.85 22.2004C183.2 21.6004 182.45 21.0004 181.9 20.3004C181.7 20.1004 181.75 19.8504 181.7 19.6504Z" fill="#C1AE83"/>
<path d="M170.3 22.1508C170.8 21.7008 171.4 21.4008 172.1 21.3008C171.85 21.8508 171.25 22.1008 170.75 22.4008V22.1008C170.6 22.1008 170.45 22.1008 170.3 22.1508Z" fill="#D3C7AD"/>
<path d="M178.35 21.4004C178.9 21.4504 179.3 21.9004 179.7 22.2504C180.95 23.5004 182.15 24.7504 183.15 26.2004C185 28.8004 186.45 31.6004 187.75 34.5004C189.05 37.5504 190.15 40.7004 190.8 43.9004C191.15 45.6004 191.55 47.3504 191.75 49.0504C191.75 49.5004 191.75 49.9504 191.7 50.4004C191.65 49.9504 191.6 49.5004 191.4 49.0504C191.15 48.5004 191.1 47.8504 190.95 47.3004C190.35 44.7504 189.75 42.2004 188.8 39.7504C187.1 35.1504 185.05 30.7004 182.3 26.6504C181.4 25.3004 180.35 24.1004 179.35 22.8504C179.05 22.3504 178.55 22.0004 178.35 21.4004Z" fill="#C1AF84"/>
<path d="M164.2 23.4008C166.3 23.3508 168.4 22.9508 170.3 22.1008C170.45 22.1008 170.6 22.1008 170.75 22.0508V22.3508C169.35 23.1508 167.75 23.5008 166.2 23.8508C163.55 24.3008 160.8 24.2008 158.1 24.1508C156.5 24.1508 154.9 24.0008 153.3 24.0008C151.45 23.8508 149.55 23.7508 147.7 23.7508C145.9 23.6008 144.05 23.6508 142.25 23.8008C140.9 23.9008 139.6 23.9508 138.25 24.1008C136.5 24.3008 134.75 24.4008 133.05 24.9508C130.85 25.6008 128.75 26.4508 126.75 27.5508C124.7 28.6008 122.95 30.0508 121.2 31.4508C120.3 32.2008 119.4 32.9508 118.65 33.8508C118.35 34.2508 118 34.6508 117.6 35.0008C117.45 35.1008 117.35 35.2008 117.2 35.2508C117.3 35.0508 117.4 34.8008 117.5 34.6008C117.8 34.2008 118.15 33.9008 118.45 33.5008C119.3 32.3508 120.4 31.5008 121.4 30.5508C123 29.2008 124.6 27.8008 126.45 26.8508C128.5 25.7008 130.65 24.8008 132.9 24.1008C134.8 23.5008 136.8 23.3508 138.8 23.1508C141.05 22.9508 143.3 22.8008 145.55 22.7008C147.4 22.7508 149.2 22.8508 151.05 22.9508C153.85 23.2008 156.6 23.3508 159.4 23.4008C161.05 23.4508 162.65 23.5508 164.2 23.4008Z" fill="#C0AE83"/>
<path d="M174.95 24.75C175.45 25.05 175.8 25.6 176.15 26.05C177.35 27.75 178.7 29.3 179.75 31.05C181.55 34.1 183.2 37.3 184.25 40.7C184.65 41.95 185 43.2 185.3 44.4C185.8 46.3 186.1 48.25 186.7 50.1C186.85 50.6 187.1 51.1 187.2 51.65V52.2C187.05 51.85 186.85 51.55 186.7 51.2C185.45 48.65 184.95 45.85 184.05 43.15C183.15 39.85 181.9 36.65 180.25 33.65C179.25 31.75 178.2 29.85 176.9 28.1C176.25 27.1 175.35 26.05 174.95 24.75Z" fill="#C1AF84"/>
<path d="M114.2 33.7492C115.55 32.0492 116.9 30.2492 118.45 28.6992L118.75 28.9992C118.45 29.4492 118.05 29.8492 117.7 30.1992C116.95 30.9992 116.3 31.7992 115.6 32.6492C115.1 33.1992 114.7 33.8492 114.1 34.3492C114 34.0992 114.05 33.8992 114.2 33.7492Z" fill="#CDC3A7"/>
<path d="M116.75 35.5004C116.95 35.2004 117.2 34.8504 117.55 34.6504C117.45 34.8504 117.35 35.0504 117.25 35.3004C117.4 35.2004 117.5 35.1504 117.65 35.0504C117.4 35.5004 117.1 35.9004 116.8 36.3004C114.7 39.1504 112.8 42.1004 111.2 45.2504C110.95 45.6504 110.8 46.2004 110.35 46.4504C110.4 46.1504 110.55 45.8504 110.7 45.5504C111.4 44.3004 111.95 43.0004 112.7 41.8004C113.95 39.5504 115.35 37.5004 116.75 35.5004Z" fill="#D0C9AE"/>
<path d="M164.5 44.8508C166.05 44.4008 167.7 44.1008 169.35 44.1008C170 44.1008 170.7 44.0508 171.3 44.3508C171.15 44.5508 170.95 44.7508 170.65 44.7008C168.35 44.6008 166.05 45.1008 163.85 45.8508C162.7 46.2008 161.6 46.8008 160.45 47.2508C160.4 47.2008 160.25 47.1508 160.15 47.1008C161.3 45.8008 162.95 45.2508 164.5 44.8508Z" fill="#FDBB9C"/>
<path d="M163.85 49.6499C166.05 48.5999 168.55 48.1499 170.95 48.2499C173.1 48.1999 175.25 48.5499 177.15 49.6499C177.75 49.9999 178.35 50.2499 178.85 50.6999C179.3 51.0999 179.85 51.4999 180.15 52.0499C179.9 52.1499 179.7 52.1999 179.45 52.1999C176.85 52.1999 174.2 52.0999 171.65 52.5499C169.45 52.8499 167.4 53.5999 165.3 54.2999C164.15 54.6999 162.95 54.9999 161.85 55.4999C161.3 55.7499 160.7 55.6499 160.15 55.6499C159.5 55.6499 158.95 54.9499 159.15 54.2999C159.3 53.0499 160.15 52.0499 161.1 51.2999C161.95 50.5999 162.95 50.1999 163.85 49.6499Z" fill="#B65A35"/>
<path d="M191.45 49.0996C191.65 49.4996 191.7 49.9996 191.75 50.4496C191.8 49.9996 191.8 49.5496 191.8 49.0996C192 49.6496 192 50.1996 192.1 50.7496C192.2 51.1996 192.25 51.6496 192.25 52.1496C192.15 52.1496 192 52.0996 191.9 52.0996C191.75 51.0496 191.4 50.0996 191.45 49.0996Z" fill="#D3C7AD"/>
<path d="M131.4 50.0992C132.75 49.6492 134.2 49.4992 135.65 49.3492C137.3 49.1992 138.95 49.3492 140.6 49.4992C141.75 49.5992 142.8 50.0992 143.9 50.4492C145.05 50.8992 146.15 51.5492 147.05 52.3992C147.55 52.8992 148 53.5492 148 54.2992C148 54.8492 147.5 55.3492 146.9 55.2992C145.25 55.1492 143.75 54.4492 142.15 54.2492C140.05 53.9492 137.9 53.6992 135.8 53.3992C134.35 53.1992 132.85 53.1992 131.35 53.2492C130.25 53.3492 129.15 53.4992 128 53.5492C127.2 53.5492 126.35 53.5992 125.55 53.5492C127.05 51.8492 129.2 50.7992 131.4 50.0992Z" fill="#B65A35"/>
<path d="M196.95 49.75C197.15 50.15 197.2 50.65 197.25 51.1C197.3 50.75 197.3 50.4 197.3 50.05C197.5 50.6 197.5 51.15 197.55 51.7C197.65 52.4 197.7 53.05 197.65 53.75C197.6 53.75 197.45 53.7 197.35 53.7C197.25 52.4 197 51.1 196.95 49.75Z" fill="#D3CAB3"/>
<path d="M186.75 51.3008C186.95 51.6008 187.1 51.9508 187.25 52.3008V51.7508C187.65 52.4008 187.8 53.1008 188.1 53.8008C188.35 54.5508 188.7 55.2508 188.8 56.0008C188.3 55.7008 188.25 55.0508 188 54.6008C187.6 53.5008 187 52.4508 186.75 51.3008Z" fill="#D3CAAE"/>
<path d="M171.3 58.4006C171.8 58.3006 172.35 58.5506 172.55 59.0506C172.8 59.6506 172.7 60.3506 172.65 60.9506C172.55 61.5506 172.4 62.2506 171.8 62.5506C171.25 62.9006 170.45 62.6506 170.15 62.1006C169.65 61.2506 169.7 60.1506 170.15 59.3006C170.4 58.8506 170.85 58.5006 171.3 58.4006ZM135.4 59.7506C135.85 59.5006 136.45 59.6506 136.8 60.0006C137.25 60.4506 137.4 61.1006 137.45 61.7006C137.45 62.3006 137.4 62.9506 137.2 63.5506C137 64.0506 136.5 64.6006 135.9 64.5006C135.4 64.5006 135 64.0506 134.8 63.6506C134.4 62.8506 134.4 61.9006 134.6 61.0506C134.7 60.5506 134.9 60.0006 135.4 59.7506Z" fill="#160E0B"/>
<path d="M188.1 63.4999C188.75 62.6999 189.8 62.1999 190.85 62.0999C191.85 62.0499 192.9 62.4499 193.5 63.2999C194.1 64.1499 194.25 65.2499 194.2 66.2999C194.15 67.7999 193.65 69.1999 192.95 70.5499C191.8 72.8499 189.95 74.6999 188 76.4499C188.05 76.2499 188.05 76.0499 188.1 75.8999C189.8 74.0999 191.5 72.1499 192.45 69.8499C193.05 68.3999 193.4 66.7499 193 65.1999C192.85 64.5999 192.55 63.9499 191.95 63.6499C191.3 63.2499 190.5 63.2999 189.85 63.5499C189.2 63.7499 188.7 64.1999 188.1 64.4499C187.7 64.1999 187.95 63.7499 188.1 63.4999Z" fill="#B75C37"/>
<path d="M168.7 63.8508C169.25 63.8008 169.75 64.0008 170.3 64.0008C171.4 64.0508 172.45 64.0008 173.55 63.8008V64.1008C172.55 64.3508 171.5 64.5008 170.45 64.5008C169.9 64.5008 169.3 64.4508 168.85 64.1508C168.7 64.1008 168.65 64.0008 168.7 63.8508Z" fill="#B95D38"/>
<path d="M119 65.2998C119.75 65.2498 120.3 65.8498 120.7 66.4498C121.35 67.5998 121.6 68.8998 121.9 70.1498C122.3 71.9498 122.7 73.7998 122.85 75.6498C122.85 76.2498 122.8 76.8498 122.8 77.4998C122.7 76.9498 122.6 76.3498 122.45 75.7998C121.8 72.7498 121.3 69.6498 119.95 66.7998C119.7 66.2998 119.05 65.9498 119 65.2998Z" fill="#BC5F3F"/>
<path d="M133.75 65.5996C135.3 66.0996 137 65.9496 138.5 65.3496C138.5 65.4496 138.45 65.5996 138.45 65.6496C137.4 66.1996 136.25 66.3996 135.05 66.3496C134.6 66.3496 134.15 66.1496 133.75 65.9496V65.5996Z" fill="#B95D38"/>
<path d="M154.15 67.8008H154.55C154.75 68.4508 154.55 69.1508 154.4 69.8508C154.1 71.1508 153.65 72.4508 153.2 73.7508C152.8 75.0008 152.45 76.2508 152.05 77.5508C151.95 77.8508 151.9 78.3008 151.5 78.4008C151.65 76.7008 152.2 75.0008 152.6 73.3508C153.1 71.4508 153.7 69.6508 154.15 67.8008Z" fill="#FDB998"/>
<path d="M178.25 68.8496C178.45 68.5996 178.8 68.6496 179.05 68.5996C179.05 69.0496 178.7 69.3996 178.4 69.6996C177.85 70.2496 177.3 70.7496 176.7 71.2996C175.45 72.2496 174.35 73.4996 172.85 73.9496C172.85 73.6996 172.7 73.3996 173 73.1996C173.95 72.3496 175 71.5996 175.95 70.7996C175.9 70.7496 175.8 70.5996 175.75 70.5496H176.25C176.95 69.9996 177.6 69.4496 178.25 68.8496Z" fill="#FBB490"/>
<path d="M135.95 69.0499C137.7 68.7999 139.5 69.2499 141.1 69.9999C142.3 70.6999 143.35 71.7999 143.85 73.0999C144.65 74.9999 144.3 77.2499 143.35 79.0499C142.45 80.7999 141.05 82.3999 139.15 83.0499C137.8 83.5999 136.2 83.4999 134.9 82.8499C133.25 82.1499 131.9 80.7999 131.2 79.1499C130.55 77.8499 130.35 76.3499 130.65 74.8999C130.9 73.5499 131.45 72.2499 132.3 71.1999C132.75 70.6499 133.4 70.2499 133.95 69.7999C134.45 69.3999 135.2 69.1499 135.95 69.0499ZM170.3 69.4999C171.85 69.0999 173.45 69.3999 174.9 69.9999C175.2 70.1499 175.55 70.2499 175.75 70.5499C175.8 70.5999 175.9 70.7499 175.95 70.7999C174.95 71.5999 173.95 72.3999 173 73.1999C172.7 73.3499 172.85 73.6999 172.85 73.9499C174.4 73.4499 175.5 72.2499 176.7 71.2999C177.5 72.2499 178 73.3999 178 74.6499C178.1 76.6499 177.65 78.7499 176.35 80.2999C175.25 81.6499 173.75 82.6499 172 82.9499C169.9 83.4999 167.55 82.7499 165.95 81.2499C165.15 80.3999 164.45 79.3499 164.2 78.1999C163.8 76.3499 164.2 74.3499 165.25 72.7999C165.85 71.9499 166.7 71.2499 167.6 70.7499C168.5 70.2499 169.3 69.6499 170.3 69.4999Z" fill="#F95939"/>
<path d="M109.2 70.3496C109.3 70.4996 109.45 70.6496 109.5 70.7996C110.05 72.6496 111.15 74.1996 112.15 75.7996L111.75 76.1996C111.35 75.7496 111.05 75.1496 110.75 74.5996C110.05 73.2996 109.3 71.8996 109.2 70.3496Z" fill="#C7B992"/>
<path d="M199.15 74.6496C199.25 74.6496 199.4 74.5996 199.45 74.5996C199.2 76.1996 199 77.8496 198.55 79.4496C197.75 82.5496 197.1 85.6996 196.2 88.7496C195.45 91.3996 194.55 93.9496 193.7 96.5496C193.15 98.2996 192.75 100.1 192.15 101.85C192.15 101.6 192.1 101.35 192.1 101.1C192.6 98.3996 193.35 95.7996 194.15 93.1996C195.05 90.1496 196 87.0996 196.75 83.9996C197.35 81.4496 198.1 78.9996 198.65 76.4496C198.8 75.7996 198.95 75.1996 199.15 74.6496Z" fill="#C5B38B"/>
<path d="M122.85 75.6504C123.15 76.5004 123.1 77.4004 123.1 78.2504H122.65C122.65 77.4504 122.45 76.6504 122.45 75.8004C122.6 76.3504 122.7 76.9004 122.8 77.5004C122.8 76.9004 122.85 76.3004 122.85 75.6504Z" fill="#CA8D77"/>
<path d="M111.7 76.2496L112.1 75.8496C112.85 76.8996 113.6 77.9496 114.55 78.7996C115.85 79.9496 117.15 81.1496 118.4 82.3496C120.1 84.1996 121.85 86.0496 123.1 88.2496C124.1 89.9996 124.95 91.8496 125.55 93.7496C126.25 96.2496 126.7 98.8496 126.9 101.45C127.05 103.85 127 106.25 126.9 108.65C126.6 113.05 125.7 117.4 124.2 121.5C123.5 123.3 122.65 125 121.75 126.75C121.45 127.25 121.25 127.75 120.9 128.2C120.8 128.3 120.65 128.4 120.55 128.5C120.55 128.4 120.6 128.25 120.65 128.15C122 125.2 123.5 122.25 124.3 119.05C125.55 114.6 126.15 109.95 126.1 105.3C126.1 103.2 126.15 101.05 125.8 98.9996C125.4 96.4996 124.9 93.9996 123.95 91.6496C123.25 90.0996 122.55 88.5496 121.55 87.1996C120.4 85.4996 118.95 84.0496 117.6 82.5496C117.1 81.9496 116.45 81.4996 115.9 80.9496C115.05 80.1496 114.1 79.4496 113.4 78.5496C112.75 77.7996 112.2 77.0496 111.7 76.2496Z" fill="#C1AF84"/>
<path d="M186.15 77.3996C186.9 76.9496 187.5 76.3496 188.15 75.8496C188.1 76.0496 188.1 76.2496 188.05 76.3996C188.05 76.5496 187.9 76.6496 187.8 76.7496C187.3 77.1996 186.75 77.5496 186.1 77.7496C186.1 77.6496 186.1 77.4996 186.15 77.3996Z" fill="#CA8C70"/>
<path d="M157.15 76.9004C157.45 76.5504 157.95 76.6504 158.3 76.9004C158.8 77.2004 159.1 77.8504 159 78.4504C158.85 79.3504 158.25 80.0504 157.45 80.4504C156.95 80.6504 156.4 80.6004 155.85 80.7004C156 80.6004 156.15 80.4504 156.25 80.3504C156.05 80.3004 155.9 80.2004 155.75 80.1504C156.2 80.1004 156.6 80.1504 157.05 80.0504C157.65 79.7004 158.25 79.1504 158.3 78.4004C158.25 77.7504 157.6 77.3004 157.15 76.9004Z" fill="#BD6543"/>
<path d="M183.85 78.8997C184.2 78.6497 184.65 78.4497 185.1 78.4497C186.4 78.3997 187.8 78.4497 188.9 79.1497V79.5497C188.2 79.3997 187.5 79.1997 186.75 79.1997C185.95 79.1497 185.15 79.3497 184.3 79.3497C184 79.3997 183.95 79.0997 183.85 78.8997Z" fill="#FDB694"/>
<path d="M155.1 78.8491C155.75 78.7491 156.5 78.6491 157.15 78.8991C157.1 79.1491 157.15 79.4491 156.85 79.4991C156.2 79.6991 155.45 79.7991 154.75 79.7491C154.45 79.7491 154.25 79.3991 154.4 79.1491C154.5 78.8991 154.85 78.8991 155.1 78.8491Z" fill="#BA5D37"/>
<path d="M109.3 79.1504H109.6C110 80.5004 111.2 81.3504 111.75 82.6504C111.6 82.6004 111.5 82.6004 111.35 82.5504V82.9004C110.95 82.4504 110.7 81.9004 110.4 81.4004C109.95 80.7504 109.35 80.0504 109.3 79.1504Z" fill="#CABD9D"/>
<path d="M111.35 82.5996C111.5 82.6496 111.6 82.6496 111.75 82.6996C114.6 87.0996 116.6 92.0496 117.6 97.1496C118.25 100.1 118.55 103.1 118.7 106.15C118.85 109 119 111.9 118.8 114.75C118.6 118.75 118 122.75 116.65 126.55C115.95 128.5 114.9 130.35 113.85 132.1C112.85 133.85 111.75 135.55 110.55 137.2H110.25L110.4 136.75C111.05 135.65 111.8 134.55 112.4 133.4C113.85 130.75 115.45 128.1 116.2 125.1C117.5 120.7 118 116.05 117.95 111.45C117.85 106.85 117.65 102.2 116.8 97.6496C116.35 95.0496 115.55 92.5496 114.65 90.0496C113.85 88.0496 112.95 86.0496 111.95 84.1496C111.75 83.7496 111.5 83.3496 111.35 82.9496V82.5996Z" fill="#C0AD83"/>
<path d="M156.25 80.4008C156.05 80.3508 155.9 80.2508 155.75 80.2008C155.1 80.2008 154.5 80.3008 153.85 80.3508C152.85 80.4508 151.85 80.4008 150.8 80.4008C150.4 80.4008 150.05 80.2508 149.75 80.0508C149.75 79.6008 149.75 79.1508 149.9 78.7508C151.05 74.9008 152.5 71.1008 153.05 67.0508C153.3 65.1508 153.6 63.2508 153.35 61.3508C153.2 59.9508 152.85 58.4508 151.95 57.3008C151.85 57.1008 151.6 57.1008 151.45 57.0508C151.8 57.8508 152.2 58.7008 152.35 59.5508C152.6 61.2008 152.6 62.8508 152.5 64.5008C152.35 66.7508 152 68.9508 151.4 71.1008C150.8 73.5008 149.85 75.8008 149.25 78.1508C149.1 78.8508 148.7 79.6508 149.15 80.3508C149.65 81.0508 150.6 81.0508 151.35 81.1008C152.2 81.1508 153.05 81.1008 153.9 81.0008C153.9 82.0008 153.85 83.0508 153.85 84.0508C153.85 84.7508 153.8 85.4008 153.7 86.1008C153.75 86.1008 153.9 86.0508 154 86.0008C154.2 85.2008 154.35 84.4008 154.35 83.6008C154.6 82.7008 154.6 81.8008 154.55 80.9008C154.8 80.8508 155.05 80.8508 155.3 80.8008C155.3 81.3508 155.25 81.9508 155.3 82.5008C155.25 83.7008 155.35 84.8508 155.45 86.0508C155.5 86.0508 155.65 86.1008 155.75 86.1008C155.75 85.5008 155.8 84.9008 155.75 84.3008C155.9 84.0008 155.95 83.7008 156 83.4008C156.05 82.5508 156.05 81.6508 156 80.8008C155.95 80.6508 156.1 80.5508 156.25 80.4008Z" fill="#B95D38"/>
<path d="M153.15 86.849C157.2 86.649 161.25 85.949 165.35 86.099C165.85 86.149 166.3 86.249 166.7 86.549C166.9 86.749 166.75 87.049 166.65 87.249C166.45 87.099 166.25 86.799 165.95 86.899C165.3 87.049 164.7 87.349 164.1 87.499C161.8 88.149 159.5 88.749 157.1 88.999C155.3 89.199 153.45 89.399 151.65 89.099C150.05 88.849 148.4 88.799 146.85 88.299C145.8 87.999 144.8 87.699 143.75 87.349C144.4 86.649 145.45 86.799 146.25 86.799C148.6 86.699 150.85 86.799 153.15 86.849Z" fill="#F95939"/>
<path d="M166 86.9009C166.3 86.8009 166.5 87.1009 166.7 87.2509L166.6 87.3508L166.35 87.6008C165.5 87.8008 164.75 88.3008 163.85 88.4508C162.6 88.7008 161.4 89.1009 160.1 89.2509C158.1 89.4509 156.1 89.8008 154.1 89.8508C151.65 89.8508 149.15 89.8509 146.8 89.0509C146.3 88.9009 145.8 88.8009 145.3 88.6509C144.65 88.4509 144.1 88.1009 143.5 87.7509C143.6 87.6009 143.65 87.4508 143.8 87.3508C144.8 87.7008 145.85 88.0009 146.9 88.3009C148.45 88.7509 150.1 88.8508 151.7 89.1008C153.5 89.3508 155.35 89.1509 157.15 89.0009C159.55 88.7509 161.85 88.1509 164.15 87.5009C164.75 87.3509 165.35 87.0509 166 86.9009Z" fill="#D1444D"/>
<path d="M166.35 87.5996C166.4 87.4996 166.5 87.3996 166.6 87.3496C166.75 87.4496 166.85 87.4996 167 87.5996C167 87.8996 166.9 88.1996 166.7 88.4496C166.1 89.2996 165.45 90.0996 164.7 90.8496C164.5 91.0496 164.25 91.0496 164 91.0996C164.2 90.4496 164.9 90.0996 165 89.3996C165.45 88.7996 165.95 88.1996 166.35 87.5996Z" fill="#FBBB9E"/>
<path d="M163.85 88.4496C164.7 88.2496 165.45 87.7496 166.35 87.5996C165.95 88.1996 165.5 88.7996 165 89.3996C164.35 89.8996 163.8 90.4996 163 90.7996C161.3 91.4496 159.65 92.2496 157.8 92.3996C155.25 92.6996 152.6 92.7996 150.1 92.1996C149.25 91.9996 148.35 91.8496 147.6 91.4496C145.95 90.5996 144.55 89.3496 143.5 87.7996C144.1 88.0996 144.65 88.4996 145.3 88.6996C145.8 88.8496 146.3 88.9496 146.8 89.0996C149.15 89.8996 151.65 89.8996 154.1 89.8996C156.1 89.8996 158.1 89.5496 160.1 89.2996C161.4 89.0996 162.6 88.6996 163.85 88.4496Z" fill="#F95939"/>
<path d="M129.45 90.25H129.8C130.2 90.95 130.6 91.7 131.05 92.4C131.15 92.55 131.25 92.7 131.25 92.9C131.2 93.05 131.1 93.2 131 93.35C130.7 93 130.5 92.6 130.25 92.2C130 91.6 129.6 91 129.45 90.25Z" fill="#C77F63"/>
<path d="M155.75 90.7992C156.95 90.8992 158.15 90.5992 159.3 90.4492C159.25 90.6492 159.25 90.8992 159 90.9492C157.7 91.3992 156.3 91.5992 154.9 91.4992C154.35 91.4492 153.7 91.3992 153.25 91.0492C154.1 90.8992 154.9 90.6992 155.75 90.7992Z" fill="#FBAA87"/>
<path d="M110.15 91.1C110.25 91.05 110.35 91.05 110.45 91C110.85 92.15 111.4 93.3 111.7 94.5C112.75 97.5 113.2 100.7 113.55 103.85C114.05 109.15 113.5 114.5 112.3 119.7C111.2 124.35 108.95 128.6 106.7 132.8L106.4 132.5C108.15 129.15 109.85 125.7 110.95 122.05C112.05 118.4 112.55 114.6 112.8 110.8C113.05 107.05 112.75 103.3 112.2 99.55C111.8 96.65 110.85 93.9 110.15 91.1Z" fill="#C2B187"/>
<path d="M131.05 93.3992C131.15 93.2492 131.2 93.0992 131.3 92.9492C131.95 93.7992 132.5 94.7492 133.1 95.6492C135.1 98.5492 137.2 101.299 139.4 103.999C140.55 105.399 141.9 106.649 143.25 107.849C144.4 108.949 145.7 109.799 147 110.699C148.05 111.399 149.25 111.799 150.4 112.249C151.25 112.549 152.1 112.599 152.95 112.849C154.85 113.299 156.75 112.799 158.65 112.549C160.85 112.199 162.85 111.049 164.8 110.049C165.2 109.899 165.65 109.849 166.05 109.849C163.8 111.199 161.55 112.599 158.95 113.149C157.05 113.599 155.05 113.949 153.1 113.649C152.1 113.349 151 113.249 150.05 112.899C148.85 112.499 147.65 112.099 146.6 111.399C145.3 110.599 144 109.749 142.9 108.649C141.8 107.649 140.75 106.599 139.7 105.499C138.25 103.949 137 102.149 135.7 100.449C134.05 98.1492 132.5 95.7992 131.05 93.3992Z" fill="#BC633F"/>
<path d="M152.85 96.6492C154.35 96.3992 155.9 96.7492 157.35 96.9492C158.25 97.1492 159.2 97.1992 160 97.6492C159.85 97.7992 159.65 97.8992 159.45 97.8492C158 97.6492 156.5 97.3992 155.05 97.2992C153.8 97.1992 152.6 97.4492 151.4 97.7992C150.65 98.0492 150 98.3992 149.25 98.5492C149.55 98.0992 150 97.7992 150.55 97.6492C151.35 97.3492 152 96.7992 152.85 96.6492Z" fill="#B95E3A"/>
<path d="M182.95 100.55C183.2 99.6504 183.4 98.7504 183.85 97.9004C183.8 99.3504 183.45 100.8 183.1 102.2C183 102.95 182.25 103.3 182.05 104C182 104.1 181.95 104.25 181.85 104.4C182.1 103.05 182.55 101.8 182.95 100.55Z" fill="#CABC95"/>
<path d="M153.2 99.7504C154.4 99.4504 155.65 99.4504 156.85 99.7504C156.85 99.8504 156.8 100 156.8 100.1C156.15 100.05 155.5 99.9504 154.85 100.05C154.3 100.1 153.75 100.2 153.2 100.25V99.7504Z" fill="#FCC0A4"/>
<path d="M191.5 103.101C191.65 102.401 191.75 101.701 192.1 101.051C192.1 101.301 192.15 101.551 192.15 101.801C192.15 102.151 192.05 102.501 191.95 102.901C191.05 106.101 190.3 109.301 189.35 112.501C189.3 112.501 189.15 112.551 189.1 112.601C189.45 111.201 189.9 109.901 190.2 108.501C190.6 106.651 191.1 104.901 191.5 103.101Z" fill="#D6CEB4"/>
<path d="M172.35 104.75C172.8 104.35 173.05 103.8 173.55 103.5C173.35 104 173.05 104.45 172.7 104.85C172.25 105.4 171.85 106 171.3 106.45C170 107.45 168.65 108.4 167.2 109.25C166.85 109.45 166.45 109.75 166.05 109.8C165.6 109.85 165.2 109.9 164.8 110C166.95 108.85 169.05 107.55 170.85 105.9C171.35 105.5 171.9 105.2 172.35 104.75Z" fill="#C26D4C"/>
<path d="M181.85 104.4C181.9 104.25 181.95 104.15 182.05 104C182.3 104.3 182.45 104.7 182.3 105.1C181.45 108.3 180.5 111.45 179.8 114.65C179.1 117.7 178.55 120.8 178.2 123.9C178.15 124.45 178.1 125 177.95 125.55C177.85 126.05 177.75 126.5 177.6 126.95C177.7 126.2 177.75 125.45 177.75 124.7C177.75 123.15 178 121.65 178.2 120.1C178.7 115.55 179.85 111.15 181.15 106.75C181.35 106 181.5 105.15 181.85 104.4Z" fill="#C4B48B"/>
<path d="M177.6 125.351C177.6 125.151 177.7 124.951 177.75 124.801C177.8 125.551 177.7 126.301 177.6 127.051C177.7 126.601 177.85 126.101 177.95 125.651C177.95 127.301 177.7 128.901 177.65 130.551C177.55 131.251 177.65 132.051 177.2 132.601C177.15 131.651 177.3 130.751 177.35 129.801C177.3 128.251 177.5 126.801 177.6 125.351Z" fill="#D8CCB4"/>
<path d="M120.1 128.75C120.2 128.5 120.35 128.25 120.6 128.1C120.6 128.2 120.55 128.35 120.5 128.45C120.6 128.35 120.75 128.25 120.85 128.15C120.55 129.1 119.9 129.85 119.45 130.7C118.5 132.2 117.55 133.7 116.45 135.1C116.2 135.4 115.95 135.7 115.6 135.85C116.1 135 116.8 134.3 117.3 133.45C118.3 131.95 119.3 130.4 120.1 128.75Z" fill="#D5CAB5"/>
<path d="M103.95 136.849C104.85 135.449 105.5 133.899 106.35 132.449L106.65 132.749C106.4 133.449 105.95 134.049 105.65 134.699C105.25 135.449 104.8 136.199 104.3 136.949C104.2 136.899 104.1 136.899 103.95 136.849Z" fill="#D1CAAE"/>
<path d="M109.25 138.349C109.3 137.649 109.9 137.149 110.4 136.699L110.25 137.149H110.55C110.2 137.649 109.85 138.149 109.25 138.349Z" fill="#CEC2A5"/>
<path d="M73.5504 187.2C73.5504 187.4 73.6504 187.6 73.8004 187.75C73.8004 187.65 73.8004 187.4 73.8504 187.3C73.6004 183.95 73.7504 180.6 74.1004 177.3C74.4504 174.1 74.9504 170.9 75.6504 167.75C76.4004 164.55 77.3504 161.4 78.2004 158.25C78.3504 157.8 78.4504 157.3 78.4504 156.85C78.1004 157.1 78.0504 157.6 77.9504 157.95C76.8504 161.6 75.6504 165.3 74.9504 169.05C74.2504 172.65 73.6504 176.35 73.5004 180C73.4504 181.5 73.3004 183 73.4504 184.5C73.4504 185.45 73.3504 186.35 73.5504 187.2ZM69.9504 207.15C69.0504 203.9 68.1504 200.6 67.8504 197.2C67.9004 196.25 67.9004 195.25 68.0004 194.3H67.6004C67.6004 194.35 67.6004 194.5 67.6504 194.6C67.1504 195.9 67.3004 197.4 67.4004 198.75C67.7504 202.85 69.1504 206.75 70.4004 210.7C71.3004 213.5 72.2004 216.3 73.3004 219.05C73.6004 219.7 73.7504 220.4 74.2004 221C74.4504 220.7 74.2004 220.3 74.1004 220C72.5504 215.75 71.2004 211.45 69.9504 207.15ZM155.05 198.1C153.35 199.95 151.7 201.85 150.05 203.8C148.05 206.15 146.1 208.5 144.5 211.15C144.25 211.55 143.85 211.95 144.1 212.45C144.25 212.25 144.4 212.1 144.55 211.9C146.85 208.3 149.7 205.1 152.5 201.9C154.05 200.15 155.75 198.5 156.95 196.5C157.2 196.15 157.45 195.75 157.5 195.3C156.55 196.1 155.9 197.15 155.05 198.1ZM186.9 208C188.3 205.95 189.8 204 191.55 202.25C193.05 200.7 194.8 199.2 195.55 197.05C194.95 197.2 194.7 197.75 194.35 198.15C193.25 199.6 191.85 200.75 190.6 202.1C189.7 203.05 188.95 204.1 188.2 205.15C186.75 207.15 185.4 209.25 184.4 211.45C184.25 211.7 184.25 211.95 184.2 212.25C184.4 212.15 184.55 212 184.65 211.75C185.25 210.45 186.05 209.2 186.9 208ZM72.3004 202.9C72.2004 202.45 72.1004 201.95 71.8504 201.5C71.8004 200.75 71.5504 200.05 71.4004 199.35C70.7004 195.9 70.1504 192.45 70.1004 188.9C70.0504 185.65 70.3504 182.4 70.8504 179.15C70.9504 178.35 71.2504 177.6 71.2504 176.8C70.7504 177.1 70.7504 177.7 70.6004 178.2C70.0004 181.15 69.6504 184.2 69.6004 187.25C69.5504 190.6 69.9004 194 70.6004 197.3C70.9504 198.9 71.2504 200.45 71.7504 202C71.8004 202.9 72.2004 203.8 72.4004 204.7C72.8504 206.3 73.5004 207.9 74.1004 209.45C74.1504 209.65 74.3504 209.85 74.5504 209.95C74.4004 209.2 74.0004 208.55 73.7504 207.85C73.2004 206.25 72.7004 204.55 72.3004 202.9ZM198 202.25C197.15 203.35 196.1 204.2 195.1 205.1C192.95 206.95 191.1 209.05 189.5 211.4C188.2 213.4 186.95 215.4 185.95 217.55C185.45 218.65 184.9 219.8 184.6 221C184.7 221 184.85 220.95 184.9 220.95C185.55 219.45 186.25 217.95 187.05 216.5C188.3 214.25 189.7 212.05 191.35 210.1C192.85 208.25 194.6 206.6 196.35 204.95C197.3 204.05 198.2 203.05 198.7 201.85C198.4 201.9 198.2 202.05 198 202.25ZM190.95 215.5C189.65 217.4 188.4 219.3 187.6 221.45C187.75 221.35 187.95 221.25 188.05 221.1C188.5 220.4 188.8 219.7 189.25 219C190.65 216.7 192.3 214.5 194.2 212.6C194.55 212.25 195.05 212 195.1 211.45C194.55 211.5 194.15 211.9 193.75 212.25C192.7 213.2 191.75 214.3 190.95 215.5ZM128.15 223.7H128.5C128.5 223.6 128.45 223.55 128.45 223.45V221.4C128.6 218.4 128.7 215.35 129.35 212.45C129.5 212.2 129.2 212.2 129 212.15C128.4 213.9 128.1 215.75 128.05 217.6C128 219.2 127.95 220.85 128.1 222.45C128.15 222.9 128.1 223.3 128.15 223.7ZM113.15 218.25C114.1 219.7 115.05 221.15 115.95 222.6C116.2 222.95 116.4 223.35 116.65 223.7H117.1C116.4 222.45 115.65 221.25 114.95 220C113.65 217.85 112.25 215.75 111.4 213.35C111.25 213.35 111.15 213.35 111 213.4C111 214.1 111.35 214.75 111.65 215.4C112 216.4 112.55 217.35 113.15 218.25ZM80.4504 216.75C80.4004 216.05 80.2504 215.35 80.1504 214.65C79.5004 211.1 78.7504 207.55 77.7004 204.1C76.7504 201.2 75.8004 198.3 75.2004 195.3C74.9504 194.05 74.9004 192.75 74.6504 191.5C74.5504 191.6 74.3504 191.65 74.3504 191.8C74.3004 193 74.3504 194.2 74.5504 195.35C75.0504 198.45 76.0504 201.4 77.0504 204.4C78.1504 207.7 78.9504 211.15 79.6504 214.55C79.7504 214.95 79.8004 215.35 79.9504 215.75C79.9504 216.1 80.0004 216.4 80.0504 216.75C80.3504 218.25 80.6004 219.75 80.8504 221.3C80.9004 221.3 81.0504 221.35 81.1504 221.4C81.2004 220.35 80.9504 219.35 80.8004 218.35C80.7004 217.8 80.7004 217.25 80.4504 216.75Z" fill="#150F0C"/>
</g>
<defs>
<clipPath id="clip0_114_15021">
<rect width="268" height="224.1" fill="white"/>
</clipPath>
</defs>
</svg>
