<svg width="268" height="225" viewBox="0 0 268 225" fill="none" xmlns="http://www.w3.org/2000/svg">
<g clip-path="url(#clip0_114_15126)">
<g opacity="0.35">
<path d="M242.3 224.1H25.7C11.5 224.1 0 212.6 0 198.4V67.7996C0 53.5996 11.5 42.0996 25.7 42.0996H242.3C256.5 42.0996 268 53.5996 268 67.7996V198.4C268 212.6 256.5 224.1 242.3 224.1Z" fill="#D6DCE5"/>
</g>
<path d="M240.25 224.15C235.65 210.1 230.1 196.3 223.55 183C222.55 181 221.7 178.95 220.2 177.25L220 177.05C219.25 175.55 218.3 174.15 217.25 172.85C216.1 171.55 214.75 170.55 213.4 169.45C212.45 168.7 211.4 168.1 210.3 167.6C209.3 167.15 208.2 166.85 207.2 166.45C204.3 165.35 201.4 164.1 198.5 162.95C195.7 161.85 193.05 160.45 190.35 159.2C187.6 157.95 184.85 156.7 182.1 155.4C180.85 154.8 179.55 154.3 178.35 153.6C177.1 152.95 175.85 152.35 174.65 151.6C173.5 150.85 172.3 150.15 171.15 149.45C170 148.7 168.7 148.25 167.5 147.55C167.1 147.1 166.7 146.65 166.3 146.25C165.85 145.85 165.55 145.2 164.9 145C164.8 145 164.65 145.05 164.6 145.05C165 145.5 165.45 145.9 165.6 146.55C165.85 147.8 165.8 149.1 165.45 150.3C165.1 151.5 164.85 152.75 164.4 153.9C163.5 156.25 162.65 158.6 161.6 160.9C160.45 163.4 159.35 165.95 158.2 168.45C156.85 171.3 155.4 174.05 153.95 176.8C152 180.65 150.15 184.55 147.95 188.25C147.05 189.45 146.45 190.85 145.85 192.25C144.5 195.1 143.1 197.9 141.4 200.55C141.25 200.75 140.95 200.75 140.75 200.85C139.65 200.3 138.5 199.95 137.35 199.55C134.5 198.5 131.7 197.4 129 196C126.75 194.75 124.35 193.75 122.2 192.3C121.1 191.55 119.95 190.8 118.9 189.95C117.85 189.1 116.75 188.3 115.75 187.4C115.1 186.8 114.45 186.25 113.75 185.7C111.95 184.15 110.45 182.3 108.95 180.45C108.1 179.25 107.1 178.1 106.3 176.85C105.85 176.2 105.45 175.5 104.95 174.95C104.3 174.25 103.8 173.45 103.3 172.65C101.95 170.5 100.95 168.15 99.85 165.9C99.25 164.65 98.75 163.35 98.3 162.05C97.15 158.8 95.85 155.65 95.15 152.25C94.95 151.1 94.5 150 94.7 148.8C94.8 147.9 95.2 147.1 95.55 146.25C95.5 146.2 95.35 146.1 95.3 146.05C95.1 146.15 94.95 146.25 94.8 146.45C93.9 147.45 92.9 148.3 92 149.35C91.65 149.75 91.35 150.2 90.95 150.55C89.8 151.55 88.6 152.5 87.45 153.55C86.35 154.55 85.15 155.45 83.95 156.3C82.25 157.45 80.6 158.75 78.9 159.9C76.6 161.4 74.5 163.1 72.5 164.95C71.45 165.9 70.35 166.8 69.3 167.7C67.25 169.25 65.4 171 63.35 172.5C62.25 173.45 61.15 174.35 60.1 175.35C58.8 176.45 57.45 177.55 56.1 178.6C55.15 179.25 54.25 179.95 53.45 180.8C52.15 182.2 50.6 183.3 49.25 184.6C48.4 185 47.7 185.65 47.1 186.5C42.9 192.4 39.55 198.85 37 205.65C36.25 207.6 35.65 209.55 35.05 211.5C33.75 215.65 32.6 219.85 31.75 224.1L240.25 224.15Z" fill="#38312D"/>
<path d="M128.15 17.6508C129.55 17.5508 130.95 17.5508 132.35 17.5508C134.6 17.5508 136.9 17.5508 139.15 17.6508C143.05 17.7508 146.9 18.8008 150.4 20.5008C152 21.2008 153.4 22.2008 154.75 23.2508C155.35 23.6008 155.95 23.9008 156.5 24.3508C157.9 25.5508 159.25 26.8008 160.35 28.3008C161.85 30.3508 163.3 32.4508 164.4 34.7508C165.2 36.4008 165.95 38.1008 166.35 39.9008C166.65 41.5008 167.2 43.0008 167.55 44.5508C168.2 47.6508 168.45 50.8008 168.8 53.9508C169 57.0508 169.6 60.1008 169.55 63.2008C169.6 63.9008 169.5 64.6008 169.55 65.3008C169.75 66.5008 169.65 67.6508 169.6 68.8508C169.3 70.9508 169.25 73.1008 168.5 75.1508C167.65 77.3508 166.9 79.6008 165.8 81.7008C165.4 82.5008 165.1 83.4008 164.6 84.2008C164.05 85.0508 163.45 85.9008 162.65 86.5008C161.6 87.2508 160.3 87.4508 159.05 87.5008C157.9 87.6008 156.75 87.6008 155.65 87.5508C152.85 87.4008 150.1 87.6008 147.3 87.6508C143.5 87.8508 139.7 88.5508 135.95 88.9508C132 89.5008 128.05 89.7508 124.05 90.0008C120.45 90.2008 116.85 90.5508 113.3 91.0008C110.5 91.3008 107.7 91.5508 104.9 91.9008C103.6 91.9508 102.2 92.0508 100.95 91.6008C100.2 91.3508 99.6502 90.7508 99.1502 90.1508C97.7002 88.4008 96.7002 86.3508 95.7002 84.3508C94.8502 82.7008 94.1002 81.0008 93.2002 79.3508C92.3502 77.7508 91.6002 76.0508 90.7002 74.4508C90.1502 73.3008 89.6002 72.1008 89.1502 70.9008C88.5502 69.4508 88.0002 68.0008 87.6002 66.5008C87.3002 65.3508 86.9502 64.2008 86.7502 63.0508C86.4002 60.6508 86.5002 58.2008 86.7002 55.7508C86.9002 54.1508 87.3502 52.5508 87.7502 51.0008C88.3502 48.9508 88.9502 46.9508 89.8502 45.0508C91.4002 41.6508 93.8002 38.7508 96.7002 36.4008C98.1502 35.2008 99.6502 34.0008 101.25 33.0008C103.25 31.8508 105.4 30.9508 107.6 30.3008C108.15 28.5008 109.2 26.9008 110.5 25.5508C111.7 24.3508 112.75 22.9508 114.15 21.9508C115.2 21.1508 116.4 20.6508 117.55 20.1008C118.6 19.6008 119.8 19.4508 120.9 19.0508C121.9 18.7008 123 18.6008 124 18.3508C125.45 17.9008 126.8 17.7508 128.15 17.6508Z" fill="#764074"/>
<path d="M101.15 135.9C101.6 135.35 102.1 134.85 102.75 134.5C102.95 134.35 103.2 134.5 103.4 134.5C103.35 134.85 103.35 135.2 103.3 135.55C105.6 136 107.85 136.8 110.2 137.05C113.7 137.55 117.2 138.15 120.7 138.2C122.35 138.35 124 138.2 125.65 138.15C126.6 138.1 127.55 138.15 128.45 138C131.7 137.8 134.95 137.55 138.15 137.1C141.95 136.8 145.7 136.3 149.45 135.75C150.9 135.45 152.35 135.3 153.85 135.15C154.65 135.15 155.5 135.05 156.3 135.3C157.4 135.65 158 136.7 158.85 137.4C160 138.3 160.95 139.4 161.75 140.6C162.45 141.7 163.05 142.85 163.85 143.9C164.15 144.3 164.5 144.65 164.75 145.05C164.65 145.05 164.5 145.1 164.45 145.1C164.85 145.55 165.3 145.95 165.45 146.6C165.7 147.85 165.65 149.15 165.3 150.35C164.95 151.55 164.7 152.8 164.25 153.95C163.35 156.3 162.55 158.7 161.45 160.95C160.35 163.5 159.2 166 158.05 168.5C156.7 171.35 155.25 174.1 153.8 176.85C151.85 180.7 150 184.6 147.8 188.3C146.9 189.5 146.3 190.9 145.7 192.3C144.35 195.15 142.95 197.95 141.25 200.6C141.1 200.8 140.8 200.8 140.6 200.9C139.5 200.35 138.35 200 137.2 199.6C134.35 198.55 131.55 197.45 128.85 196.05C126.6 194.8 124.2 193.8 122.05 192.35C120.95 191.6 119.8 190.85 118.75 190C117.7 189.15 116.6 188.35 115.6 187.45C114.95 186.85 114.3 186.3 113.6 185.75C111.8 184.2 110.3 182.35 108.8 180.5C107.95 179.3 106.95 178.15 106.15 176.9C105.7 176.25 105.3 175.6 104.8 175C104.15 174.35 103.65 173.5 103.15 172.7C101.8 170.55 100.8 168.2 99.7001 165.95C99.1001 164.7 98.6001 163.4 98.1501 162.1C97.0001 158.85 95.7001 155.7 95.0001 152.3C94.8001 151.15 94.3501 150.05 94.5501 148.85C94.6501 147.95 95.0501 147.15 95.4001 146.3C95.3501 146.25 95.2001 146.15 95.1501 146.1C96.9501 143.2 97.9001 139.75 99.9001 136.95C100.25 136.45 100.75 136.25 101.15 135.9Z" fill="#FFF3DB"/>
<path d="M113.85 37.05C114.45 36.85 115.05 37.2 115.65 37.2C117.5 37.15 119.3 37.75 121.15 37.85C122.35 37.95 123.45 38.4 124.6 38.65C127.05 39.2 129.45 40 131.75 40.95C133 41.4 134.15 42 135.3 42.65C136.55 43.3 137.6 44.25 138.85 44.95C140.05 45.7 141.45 46.15 142.75 46.75C145.05 47.95 146.85 49.8 149.1 51.05C149.95 51.5 150.7 52.05 151.4 52.7C152.65 53.7 153.8 54.75 155 55.75C156.2 57.05 157.5 58.25 158.65 59.6C159.6 60.7 160.4 61.95 161.15 63.2C161.65 64.05 162 65 162.55 65.8C162.4 66 162.15 65.85 161.95 65.8C161 65.4 160.1 64.95 159.25 64.35C158.2 63.6 157.25 62.65 156.2 61.85C154.05 60.25 151.75 58.85 149.6 57.3C147.15 55.6 144.8 53.7 142.2 52.2C140.9 51.35 139.45 50.75 138.05 50.1C136.15 49.4 134.4 48.45 132.7 47.4C130.1 45.85 127.3 44.75 124.65 43.2C122.35 41.85 120.15 40.25 117.7 39.1C116.4 38.5 114.95 38 113.85 37.05Z" fill="#E56324"/>
<path d="M112.4 37.6508C112.85 37.3508 113.35 37.1508 113.85 37.0508C114.95 38.0508 116.4 38.5008 117.7 39.1508C120.1 40.3008 122.3 41.9008 124.65 43.2508C127.25 44.7508 130.1 45.9008 132.7 47.4508C134.4 48.5008 136.2 49.4508 138.05 50.1508C139.45 50.8008 140.9 51.4008 142.2 52.2508C144.8 53.7508 147.15 55.6008 149.6 57.3508C151.8 58.9008 154.05 60.3508 156.2 61.9008C157.25 62.7008 158.15 63.6508 159.25 64.4008C160.1 65.0008 161 65.4508 161.95 65.8508C162.15 65.9008 162.35 66.0508 162.55 65.8508C163.25 66.8508 164.35 67.5008 165.25 68.3508C165.75 68.8508 166.55 69.2008 166.6 70.0008C166.7 71.6008 166.55 73.2508 166.35 74.8508C166.3 75.1008 166.35 75.4008 166.2 75.6008C165.85 75.9008 165.85 76.4008 165.7 76.8508C165.45 77.8508 165.45 78.8508 165.35 79.8508C165.2 81.6008 165.15 83.3508 165 85.0508C164.9 86.2008 164.9 87.3508 164.8 88.5008C164.65 89.7508 164.7 91.0508 164.75 92.3008C164.95 94.7508 164.55 97.2508 164.8 99.7008H165.05C164.4 101.501 164 103.351 163.7 105.201C163.4 107.151 162.85 109.001 162.25 110.901C161.35 114.001 160 116.951 158.55 119.851C157.85 121.301 157 122.601 156.35 124.051C156.35 124.051 156.25 123.851 156.25 123.801C155.5 124.951 154.7 126.051 154.1 127.251C153.65 128.351 152.8 129.201 152.25 130.201C151 132.451 149.6 134.601 148.4 136.851C147.6 138.151 146.75 139.501 145.65 140.601C144.7 141.651 143.4 142.351 142 142.651C140.25 143.201 138.4 143.301 136.6 143.351C134.7 143.501 132.8 143.451 130.95 143.451C129.35 143.351 127.7 143.451 126.15 143.101C124.4 142.751 122.8 142.101 121.2 141.351C119.65 140.551 118.05 139.651 116.85 138.301C115.3 136.601 114.1 134.701 112.9 132.751C110.95 129.501 109.1 126.151 107.2 122.851C106.35 121.551 105.4 120.301 104.4 119.101C103.8 118.301 103.05 117.601 102.5 116.751C102.05 116.051 101.5 115.401 100.95 114.751C100.75 114.551 100.55 114.301 100.25 114.301H100.15C99.1502 112.601 98.2502 110.851 97.5502 109.001C97.2002 107.901 96.7502 106.801 96.7002 105.651L96.8002 105.551C97.0502 105.251 97.0502 104.851 97.1002 104.501C97.4002 101.251 97.7502 98.0008 98.2002 94.7508C98.4502 92.4508 98.9002 90.1008 98.7002 87.7508C98.6002 86.8508 98.5502 85.9508 98.2002 85.1008C98.3502 84.2008 98.5502 83.3008 98.6502 82.4008C98.7502 80.3008 98.2002 78.2508 97.9002 76.1508C97.7502 74.3008 97.7502 72.3508 98.6502 70.7008C99.4502 69.1008 100.3 67.4508 100.7 65.7008C100.7 65.7008 101.05 65.6008 101.15 65.5508C101.7 64.5008 102.2 63.4508 102.6 62.3008C103.4 60.3508 104.3 58.4008 104.55 56.3008C104.85 54.7508 104.9 53.2008 105.1 51.6508C105.35 49.9008 105.6 48.1008 106.2 46.4008C106.8 44.5008 107.75 42.7508 108.85 41.1008C109.1 40.7508 109.4 40.4508 109.5 40.0508C109.5 39.9008 109.65 39.8008 109.75 39.7508C110.6 38.9508 111.5 38.2508 112.4 37.6508Z" fill="#F2844F"/>
<path d="M107.35 42.1C108 41.35 108.65 40.6 109.45 40C109.35 40.4 109 40.7 108.8 41.05C107.7 42.7 106.75 44.45 106.15 46.35C105.55 48.05 105.3 49.85 105.05 51.6C104.8 53.15 104.8 54.7 104.5 56.25C104.25 58.35 103.35 60.3 102.55 62.25C102.15 63.35 101.65 64.45 101.1 65.5C101 65.55 100.8 65.6 100.7 65.65C101 64.4 101.4 63.2 101.6 61.9C102 60.1 102.4 58.25 102.45 56.4C102.45 54.95 102.55 53.55 102.65 52.1C103 48.3 104.9 44.9 107.35 42.1Z" fill="#E56324"/>
<path d="M173.05 69.3506C174.45 68.8006 175.95 68.3006 177.5 68.5506C179.05 68.7506 180.55 69.5006 181.5 70.7506C182.7 72.1506 183.3 73.9506 183.4 75.7506C183.4 77.6506 183.2 79.6006 182.7 81.4506C181.9 84.3506 180.65 87.2006 178.9 89.6506C178.05 90.8506 177.15 92.0006 176.1 93.1006C174.85 94.4506 173.35 95.5506 171.85 96.6506C170.95 97.3506 169.95 97.9506 169 98.6006C167.8 99.3506 166.4 99.6506 165 99.6506H164.75C164.55 97.2006 164.95 94.7006 164.7 92.2506C164.7 91.0006 164.6 89.7006 164.75 88.4506C164.85 87.3006 164.8 86.1506 164.95 85.0006C165.15 83.2506 165.15 81.5006 165.3 79.8006C165.4 78.8006 165.4 77.7506 165.65 76.8006C165.8 76.4006 165.8 75.9006 166.15 75.5506C166.1 76.3506 165.9 77.1006 165.85 77.9006C166.45 75.8006 167.35 73.8006 168.3 71.8006C168.4 71.5506 168.5 71.3006 168.8 71.1506C170.2 70.4006 171.65 69.9006 173.05 69.3506ZM84.0498 76.3506C85.3498 75.4506 87.0498 75.1006 88.5998 75.4006C90.5498 75.6506 92.5498 76.5006 93.7998 78.0506C94.7498 79.3506 95.3498 80.8506 96.0998 82.3006C96.5998 83.6006 97.2998 84.8006 97.9998 85.9506C98.0498 85.6506 98.0498 85.3006 98.0998 85.0006C98.4498 85.8506 98.4998 86.7506 98.5998 87.6506C98.7998 90.0006 98.3998 92.3506 98.0998 94.6506C97.6498 97.9006 97.2498 101.151 96.9998 104.401C96.9498 104.751 96.9998 105.151 96.6998 105.451C95.8498 105.151 94.8998 105.151 94.0998 104.751C92.3998 104.251 90.7998 103.351 89.1998 102.551C88.0998 102.001 87.1498 101.151 86.1998 100.301C85.1498 99.2006 84.1498 98.0506 83.3498 96.7506C81.7498 94.4006 80.4498 91.7506 80.0498 88.9006C79.8498 86.3006 79.8998 83.6006 80.7498 81.1006C81.3498 79.3006 82.3998 77.4506 84.0498 76.3506Z" fill="#F95939"/>
<path d="M100.15 114.25C100.45 114.25 100.65 114.5 100.85 114.7C101.4 115.35 101.95 116 102.4 116.7C102.95 117.55 103.7 118.25 104.3 119.05C105.3 120.25 106.25 121.45 107.1 122.8C109 126.1 110.85 129.45 112.8 132.7C114 134.65 115.2 136.6 116.75 138.25C117.95 139.55 119.5 140.5 121.1 141.3C122.7 142.05 124.35 142.7 126.05 143.05C127.65 143.4 129.25 143.25 130.85 143.4C132.75 143.4 134.65 143.45 136.5 143.3C138.3 143.25 140.15 143.2 141.9 142.6C143.3 142.3 144.55 141.55 145.55 140.55C146.65 139.45 147.5 138.15 148.3 136.8C149.5 134.55 150.9 132.4 152.15 130.15C152.7 129.1 153.5 128.25 154 127.2C154.65 126 155.4 124.85 156.15 123.75C156.15 123.8 156.2 123.9 156.25 123.95C156.05 124.75 156.15 125.6 156.15 126.4C156.2 128.5 156.2 130.55 156.2 132.65C156.2 133.9 156.4 135.2 156.45 136.45C156.6 137.95 156.75 139.5 157.45 140.85C157.6 141.9 157.15 142.95 156.7 143.9C154.6 147.35 152.9 151.05 150.5 154.3C149.8 155.35 149.05 156.45 148.3 157.5C147.4 158.75 146.55 160 145.65 161.25C144.5 162.65 143.55 164.15 142.35 165.5C140.8 167.45 139.15 169.25 137.45 171.1C136.15 172.75 135.35 174.75 134.7 176.75C134.5 177.4 134.25 178.05 134.2 178.75C133.15 176.55 131.95 174.35 130.3 172.55C129.25 171.4 128.15 170.25 126.95 169.25C126.05 168.5 125.15 167.75 124.3 166.9C123.35 166.05 122.35 165.35 121.25 164.7C119.85 163.9 118.65 162.85 117.35 161.95C116.15 161 114.9 160.15 113.8 159.1C112.6 158.15 111.65 157 110.5 156C109.2 154.8 108.2 153.35 107.05 152.1C105.7 150.5 104.8 148.5 104.15 146.5C103.7 144.9 103.1 143.35 102.9 141.7C102.8 141.1 102.7 140.55 102.65 139.95C102.45 138.25 101.75 136.65 101.85 134.9C102 133.6 102.2 132.35 102.25 131.05C102.25 128.3 102 125.55 101.65 122.8C101.45 121.45 101.6 120.05 101.45 118.7C101.35 117.8 101.45 116.85 101.15 116C101 115.35 100.5 114.85 100.15 114.25ZM138.45 100.55C138.75 100.2 139.05 99.7001 139.6 99.8001C139.9 99.8001 140.05 100.2 139.95 100.45C139.8 100.95 139.5 101.4 139.25 101.9C138.65 102.85 137.75 103.55 137.15 104.45C136.75 105.1 136.25 105.7 135.7 106.25C135.1 106.85 134.65 107.6 134 108.1C133.2 108.75 132.05 109 131.05 108.65C129.85 108.3 129.1 107.15 128.45 106.15C127.95 105.35 127.25 104.65 126.8 103.8C126.5 103.2 126.05 102.65 125.95 101.95C126.1 101.65 126.45 101.45 126.8 101.5C127.1 101.6 127.35 101.75 127.65 101.85C127.9 101.9 128.15 101.75 128.4 101.8C128.6 101.9 128.75 102.1 128.95 102.25C130.6 102.45 132.2 102.95 133.85 103C134.6 103.05 135.25 102.65 135.95 102.45C136.8 101.9 137.85 101.45 138.45 100.55Z" fill="#E56324"/>
<path d="M139.5 116.35C140.2 116.15 140.85 115.75 141.55 115.75C141.5 116.35 141 116.7 140.65 117.1C140 117.75 139.65 118.55 139.1 119.25C138.65 119.9 138.15 120.55 137.6 121.2C137.25 121.6 136.95 122.15 136.4 122.3C134.65 122.9 132.75 122.85 130.9 123.1C130.2 123.1 129.35 123.4 128.75 122.9C128.4 122.6 127.95 122.5 127.7 122.1C126.75 120.95 125.85 119.8 124.8 118.75C124.2 118.15 123.75 117.45 123.05 116.9C123.1 116.85 123.25 116.75 123.35 116.7C124.35 116.8 125.35 117.1 126.35 117.2C126.95 117.25 127.5 117.4 128.05 117.5C131.2 118 134.45 117.65 137.55 117.15C138.3 117 138.9 116.55 139.5 116.35Z" fill="#E56324"/>
<path d="M142.15 59.5006C140.2 59.3006 138.25 59.2006 136.3 59.1006C134.7 59.0506 133.1 58.9506 131.5 59.0506C128.4 59.2006 125.3 59.4506 122.35 60.3506C121.35 60.7006 120.25 60.9506 119.3 61.4506C118.75 61.6006 118.15 61.7506 117.7 62.2006C118.4 62.2506 119.1 62.1006 119.7 61.7506C121.35 61.3006 123 60.7506 124.7 60.5006C128.75 59.8006 132.85 60.0006 136.9 59.9506C138.7 60.0006 140.5 60.0506 142.3 60.1506C143.3 60.1506 144.25 60.4006 145.25 60.2506V59.9006C144.2 59.7506 143.2 59.6006 142.15 59.5006Z" fill="#B95D38"/>
<path d="M135.65 60.9492C133.75 60.8992 131.85 61.0992 130 61.2492C128.2 61.3992 126.45 61.6492 124.7 62.1492C124.2 62.2992 123.65 62.4492 123.25 62.7992C124.35 62.6992 125.45 62.3992 126.55 62.2492C129.7 61.6992 132.9 61.5992 136.1 61.5492C139.05 61.5492 142.05 61.9492 145 62.2492V61.8992C141.85 61.4492 138.75 61.0492 135.65 60.9492ZM138.45 63.3992C135.6 63.0992 132.7 62.9992 129.85 63.1492C129.35 63.1492 128.9 63.2492 128.4 63.3992C128.4 63.4992 128.45 63.6492 128.5 63.6992C131.5 63.8492 134.55 63.5992 137.55 63.8492C138.35 63.8992 139.1 63.9992 139.9 63.8992C139.9 63.7992 139.85 63.6492 139.85 63.5492C139.35 63.4992 138.9 63.4492 138.45 63.3992ZM135.55 71.3992C135.55 71.2492 135.75 71.1492 135.85 71.0492C135.9 72.9992 136.8 74.7492 137.15 76.6492C136.65 76.2992 136.6 75.6992 136.4 75.1492C136 73.9492 135.4 72.6992 135.55 71.3992ZM129.15 71.4992C129.7 72.1492 129.75 73.0492 129.9 73.8992C130 75.1992 130 76.5992 129.65 77.8492C129.55 77.8492 129.45 77.8992 129.35 77.8992C129.6 76.6492 129.7 75.3992 129.55 74.1492C129.45 73.2492 129.15 72.3992 129.15 71.4992Z" fill="#B95D38"/>
<path d="M170.35 75.7507C171.45 74.9007 172.8 74.3507 174.2 74.2007C175.4 74.0507 176.75 74.3507 177.5 75.3007C178.35 76.4007 178.25 77.9507 177.9 79.2007C177.8 79.3007 177.75 79.4007 177.65 79.5007C177.7 78.7007 177.85 77.9007 177.65 77.1007C177.5 76.3007 177.05 75.5007 176.25 75.2007C174.8 74.6007 173.15 75.1007 171.75 75.7007C170.75 76.1007 170 76.9007 169.05 77.4007C169.2 76.7007 169.8 76.1507 170.35 75.7507Z" fill="#CC492F"/>
<path d="M161.05 77.7004C159.95 77.5504 158.9 77.0004 157.75 76.9504C156.7 76.9004 155.65 76.6504 154.6 76.6004C153.1 76.5004 151.7 76.0004 150.2 76.0504C148.75 76.0004 147.25 76.0504 145.8 76.1004C144.65 76.2004 143.5 76.4504 142.35 76.6004C141.7 76.6504 141 76.6004 140.35 76.7004C139.6 76.5004 139.1 75.9004 138.6 75.3504C138 74.7504 137.6 73.9004 137.95 73.0504C138.45 73.5004 138.75 74.1004 139.1 74.6504C138.65 73.8004 138.4 72.9004 138.5 71.9504C138.6 71.9504 138.75 71.9504 138.85 72.0004C139.15 72.9504 139.45 73.9504 139.8 74.9004C139.85 74.8504 139.9 74.7504 139.9 74.6504C139.35 73.4504 139.3 72.1004 139.35 70.8504C139.65 69.9004 140.55 69.3004 141.55 69.2004C142.55 69.1004 143.55 69.0004 144.55 69.0504C146.25 69.1504 147.85 69.5504 149.5 70.0004C151.35 70.5504 153.3 71.0004 154.8 72.2004C156 72.6504 156.95 73.4504 157.95 74.2004C158.4 74.3004 158.75 74.6004 159.1 74.9004V75.3004C158.65 75.1504 158.2 74.9504 157.8 74.7504C157 74.6004 156.2 74.5504 155.4 74.5504C156.6 74.6504 157.8 74.9504 158.85 75.5504L158.95 75.5004C159.45 75.7504 159.9 76.0504 160.25 76.5004C159.85 76.5504 159.55 76.3504 159.2 76.2004C158.7 75.9504 158.2 75.9004 157.65 75.8004C157.05 75.6504 156.45 75.5504 155.8 75.5504C156.65 75.7504 157.45 76.1504 158.3 76.4004C159.2 76.7504 160.25 77.0504 161.05 77.7004ZM127.55 72.6504C127.5 73.0504 127.45 73.4004 127.45 73.8004C127.3 73.1504 127.15 72.5004 126.8 71.9504C126.4 72.1504 126.35 72.6004 126.3 73.0004C125.55 72.4004 125.05 71.5504 124.5 70.7504C124.4 70.7504 124.2 70.7004 124.1 70.7004C124.15 71.2004 124.2 71.7004 124.15 72.1504C123.5 71.8004 122.8 71.4504 122.1 71.2504C120.8 70.8504 119.4 70.7504 118.05 70.7004C116.8 70.6504 115.55 70.8504 114.4 71.3504C113.3 71.8004 112.2 72.2504 111.2 72.8504C109.85 73.6004 108.4 74.1504 107.15 75.0504C106.5 75.5504 105.75 75.9504 105.3 76.6504C105.4 76.6504 105.6 76.7004 105.7 76.7004C106.3 76.4504 106.9 76.1004 107.45 75.8004C106.7 76.4504 106 77.1504 105.3 77.8504C104.9 78.2504 104.35 78.6004 104.15 79.2004C104.65 79.1004 105.05 78.8004 105.5 78.6004C105.25 79.3504 104.45 79.8004 104.35 80.6004C105.3 80.2504 106.15 79.5504 107.1 79.1504C109.9 78.0004 112.95 77.5004 115.95 77.0504C117.85 76.9004 119.75 76.8004 121.65 77.0004C123.4 77.1004 125.15 77.2504 126.9 77.0504C127.3 77.0504 127.45 76.6504 127.6 76.3504C128 75.2504 128.25 74.0004 127.9 72.8504C127.75 72.7504 127.6 72.7004 127.55 72.6504Z" fill="#764074"/>
<path d="M177.7 77.1504C177.9 77.9504 177.75 78.7504 177.7 79.5504C177.8 79.4504 177.85 79.3504 177.95 79.2504C177.8 80.1004 177.4 80.9504 177.05 81.7004C176.2 83.6004 175.05 85.3004 173.85 87.0004C173.15 87.9004 172.45 88.9004 171.45 89.5504C171.85 88.9004 172.45 88.5004 172.9 87.9004C174.1 86.4504 175.1 84.8504 176 83.2004C177 81.3004 177.7 79.2504 177.7 77.1504Z" fill="#CC492F"/>
<path d="M129.4 19.3001C130 19.1001 130.65 19.1501 131.25 19.1501C131.85 19.1501 132.4 19.1001 133 19.3001C134.45 19.3001 135.85 19.6001 137.25 19.8001C139.85 20.1501 142.45 20.7001 144.85 21.7001C146.85 22.5001 148.75 23.6001 150.45 24.9001C151.8 25.9501 153.15 26.9501 154.4 28.1001H154.5C155.5 29.0001 156.55 29.9001 157.5 30.9001C157.9 31.3001 158.5 31.6001 158.65 32.2001C158.05 31.8501 157.55 31.3501 157.05 30.9001C156.05 30.0001 155 29.1501 154.05 28.2001C152 26.5501 149.95 24.9001 147.65 23.6001C145.05 22.2001 142.2 21.2501 139.3 20.7001C137.7 20.4501 136.15 20.2001 134.55 19.9001C133.4 19.7001 132.25 19.7001 131.1 19.5001C130.55 19.6001 129.95 19.5501 129.4 19.3001ZM114.85 24.5001C116.1 23.3001 117.45 22.2501 118.85 21.2501C119.1 21.1001 119.35 20.8501 119.45 20.6001C118.9 20.8001 118.4 21.1501 117.95 21.5001C116.55 22.4501 115.2 23.5001 114.05 24.7501C113.1 25.6001 112.25 26.5001 111.4 27.4001C110.4 28.4501 109.45 29.5501 109 30.9501C109.1 31.0001 109.25 31.0001 109.4 31.0501C109.6 30.8001 109.8 30.5001 110 30.2001C111.25 28.1501 112.9 26.4001 114.55 24.7501C114.65 24.7501 114.75 24.6001 114.85 24.5001ZM128.85 21.9501C133 21.9501 137.15 22.7001 141.05 24.0501C144.3 25.1001 147.4 26.6501 150.3 28.4001C152.5 29.8001 154.65 31.3001 156.55 33.1001C156.95 33.6001 157.45 34.0001 157.85 34.5001C158.1 34.7501 158.3 35.2001 158.75 35.1001C158.15 34.2501 157.45 33.4001 156.65 32.6501C151.35 27.7501 144.8 24.1501 137.8 22.3501C136.1 21.9001 134.35 21.7001 132.6 21.4501C130.8 21.3001 129.05 21.4001 127.25 21.4501C127.05 21.5001 126.45 21.6001 126.75 21.9001C127.45 22.0501 128.15 22.0001 128.85 21.9501ZM114.7 28.3001C116.9 26.5501 119.2 24.9001 121.55 23.3501C122.1 22.9501 122.75 22.6501 123.2 22.1501C123.05 22.1501 122.9 22.1001 122.8 22.2001C120.6 23.6001 118.4 24.9501 116.35 26.5501C114.65 27.8501 112.85 29.1001 111.5 30.8001C111.1 31.3001 110.6 31.8501 110.55 32.6001C110.75 32.5001 110.9 32.4001 111 32.2001C111.95 30.6001 113.3 29.4001 114.7 28.3001ZM121.2 27.3001C122.55 26.6501 123.95 25.9501 125.45 25.6001C125.45 25.5001 125.5 25.3501 125.5 25.3001C124.9 25.3001 124.35 25.4501 123.8 25.6501C121.35 26.5501 119 27.7501 116.8 29.1001C114.85 30.3001 112.85 31.5501 111.3 33.2501C111.1 33.3501 111.2 33.6001 111.2 33.8001C112.05 33.2501 112.75 32.5501 113.55 31.9501C115.95 30.2001 118.55 28.6501 121.2 27.3001ZM157.75 38.2001C155.4 36.1001 152.95 34.1501 150.4 32.3501C146.2 29.4001 141.5 27.2001 136.5 25.9501C134.95 25.6001 133.4 25.4001 131.8 25.3001C131.2 25.2501 130.65 25.3501 130.05 25.5501C130.95 25.6501 131.85 25.7001 132.8 25.8001C136.8 26.4001 140.7 27.6001 144.35 29.4001C147 30.6501 149.4 32.2501 151.8 33.9001C153.8 35.3501 155.75 36.8501 157.6 38.4501C157.9 38.7001 158.2 39.0501 158.65 39.1001C158.4 38.7501 158.05 38.5001 157.75 38.2001ZM120.6 31.0501C123.05 30.2001 125.55 29.4501 128.15 29.2501C128.4 29.2001 128.6 29.1501 128.85 29.1001C128.65 28.7501 128.2 28.8501 127.9 28.8501C124.7 29.1001 121.65 30.0501 118.65 31.2001C117.15 31.8001 115.7 32.4001 114.35 33.3001C113.7 33.7501 113 34.1501 112.55 34.8501C112.95 35.0001 113.25 34.6501 113.55 34.5001C115.65 32.9501 118.1 31.9501 120.6 31.0501ZM141.35 33.2001C146.3 35.3501 151 38.0001 155.3 41.3001V40.8501C151.5 37.7001 147.15 35.3001 142.75 33.1001C140 31.7501 137.15 30.7501 134.15 30.2001C133.45 30.0001 132.75 29.8001 132.05 30.0501C132.45 30.3001 132.95 30.4501 133.4 30.5001C136.1 31.1501 138.75 32.0501 141.35 33.2001ZM128.3 33.4501C129.7 33.6501 131.05 34.0001 132.4 34.3501C135.15 35.1001 137.85 35.9001 140.5 36.9001C140.7 36.9501 140.9 37.0501 141.1 37.0501L141 37.1001C141.65 37.4001 142.35 37.6501 143.05 37.9001C143.75 38.1501 144.4 38.5001 145.1 38.6501C145.1 38.5501 145.05 38.4001 145.05 38.3001C143.9 37.8501 142.85 37.2501 141.65 36.9501C138.3 35.5501 134.8 34.4501 131.3 33.5001C128.25 32.6501 125.05 32.4501 121.9 32.8001C119.65 33.0501 117.4 33.5001 115.3 34.4001C114.5 34.7501 113.65 35.0501 113.05 35.7001C113.7 35.7001 114.25 35.3501 114.85 35.1501C116.55 34.5501 118.25 34.0501 120.05 33.7501C122.8 33.2501 125.55 33.0501 128.3 33.4501ZM163.7 38.5001C164.4 39.8001 165 41.1501 165.55 42.5001C165.6 42.7001 165.8 42.9001 165.95 43.0001C165.4 41.0001 164.45 39.1001 163.5 37.2001C162.95 36.1001 162.25 35.0001 161.15 34.3501C161.1 34.4001 160.95 34.4501 160.85 34.4501C161.25 34.9001 161.7 35.3001 162.1 35.8001C162.75 36.6501 163.2 37.6001 163.7 38.5001ZM95.85 52.1501C95.7 53.6501 95.55 55.2001 96.05 56.6501C96.15 56.5001 96.3 56.4001 96.25 56.2501C96 54.5501 96.2 52.8001 96.45 51.1501C96.85 48.8001 97.35 46.4501 98.2 44.2501C99.2 41.5001 100.8 39.0501 102.85 36.9501C103.45 36.3501 104.1 35.8001 104.85 35.4001C104.8 35.3501 104.75 35.2001 104.75 35.1501C103.6 35.4001 102.8 36.3001 102 37.0501C99.7 39.4001 98.1 42.4001 97.2 45.6001C96.6 47.7001 96.05 49.9001 95.85 52.1501ZM125.7 36.1001C129 36.2001 132.2 36.9501 135.35 37.8501C138.6 38.8501 141.8 40.0501 144.9 41.5001C146.5 42.2501 148 43.1501 149.5 44.0001C150.2 44.5501 151 44.9501 151.75 45.4501C152.15 45.6501 152.5 46.0501 152.95 45.8501C152 45.1001 151 44.4501 149.95 43.8001C147.75 42.4501 145.6 41.1001 143.25 40.0001C140.95 38.9501 138.55 38.0001 136.15 37.2001C132.7 36.1501 129.15 35.3501 125.55 35.3001C124.4 35.2001 123.3 35.3501 122.15 35.3501C120.5 35.3501 118.85 35.5501 117.2 35.7001C116.5 35.7501 115.7 35.7001 115.15 36.2501C116.25 36.3501 117.35 36.2001 118.45 36.2001C119.15 36.2001 119.9 36.1501 120.6 36.1001C122.35 36.1501 124 36.0001 125.7 36.1001ZM105.25 37.4501C105.6 37.0501 106.1 36.7001 106.35 36.2001C106.1 36.0001 105.75 36.2001 105.55 36.3501C103.55 38.1001 102.1 40.3501 101.05 42.7501C100.2 44.7001 99.75 46.7501 99.3 48.8001C99.25 49.1001 99.2 49.4501 99.2 49.8001C99.1 50.0001 99 50.2501 99 50.5001C98.8 51.9001 98.6 53.3501 98.65 54.8001C98.65 55.0001 98.6 55.3501 98.9 55.4501C98.95 54.9501 98.95 54.5001 99 54.0001C99.05 52.9501 99.3 51.9501 99.35 50.9001C99.65 49.4001 99.95 47.8501 100.4 46.3501C101.3 43.0501 102.95 39.9501 105.25 37.4501ZM104.45 40.8501C103.45 42.2001 102.8 43.7001 102.2 45.2501C101.55 47.0001 100.95 48.8001 100.5 50.6501C100.3 51.5501 100.1 52.4501 100.05 53.3501L99.95 53.3001C99.9 53.9001 99.85 54.5501 99.9 55.1501H100.25C100.25 54.6501 100.3 54.1501 100.35 53.6501C100.65 51.2001 101.45 48.8501 102.25 46.5001C102.75 45.1001 103.3 43.7001 104.1 42.4001C105.25 40.5001 106.8 38.8501 108.55 37.5001C108.85 37.2001 109.35 37.0001 109.35 36.5001C109.05 36.5001 108.75 36.6001 108.5 36.7501C106.9 37.8501 105.55 39.3001 104.45 40.8501ZM159.9 38.4501C160.6 39.2001 161.15 40.0001 161.75 40.8501C162.7 42.2001 163.65 43.5501 164.6 44.9501C164.65 44.9501 164.8 44.9001 164.85 44.8501C164 43.2501 162.95 41.8001 162 40.3001C161.3 39.2501 160.6 38.2001 159.55 37.5001C159.35 37.3501 159.1 37.3501 158.9 37.3501C159.15 37.8001 159.55 38.1001 159.9 38.4501ZM151.8 49.4001C149.9 47.8001 147.9 46.3501 145.8 45.0001C140.8 41.7001 135.1 39.4501 129.3 38.0001C128.85 37.9001 128.4 37.7501 127.95 37.7501C127.5 37.5501 127.05 37.5001 126.55 37.4001C125.65 37.2501 124.7 37.0001 123.8 37.1001C123.85 37.1501 123.9 37.3001 123.9 37.3501C125.15 37.7001 126.4 38.0001 127.65 38.1501C129.75 38.6501 131.85 39.2501 133.9 40.0001C136.7 40.9501 139.35 42.2001 141.95 43.5501C146.6 46.1001 150.8 49.4001 154.75 52.8501C156.8 54.6501 158.8 56.5001 160.5 58.5501C160.7 58.7501 160.9 58.9501 161.2 58.9501C161.05 58.4501 160.65 58.1001 160.35 57.7501C157.9 54.6501 154.85 52.0001 151.8 49.4001ZM162.65 51.8501C162.85 52.0501 163.05 52.2001 163.3 52.3501C163.2 52.1501 163.1 52.0001 162.95 51.8501C161.05 49.9001 159.15 48.0001 157.15 46.1501C155.3 44.3501 153.35 42.6001 151.2 41.2001C150.55 40.8001 149.9 40.3501 149.1 40.3001C149.6 40.8001 150.3 41.1001 150.85 41.5001C155.05 44.6501 158.85 48.2501 162.65 51.8501ZM156.65 40.2501C156.6 40.3001 156.45 40.3501 156.4 40.4001C156.9 40.9001 157.4 41.3501 157.9 41.8501C159 43.0001 159.9 44.3001 160.85 45.5501C161.4 46.3501 162.05 47.1501 162.55 48.0001C162.65 48.2001 162.8 48.3501 163 48.5001C163 48.1501 162.85 47.8501 162.65 47.5501C161.95 46.4001 161.25 45.3001 160.45 44.2001C159.75 43.2001 159.1 42.2001 158.2 41.3501C157.75 40.9501 157.25 40.5001 156.65 40.2501ZM163.75 47.8001C163.8 48.5501 164.35 49.2001 164.65 49.9001C165.65 52.1501 166.75 54.4001 167.5 56.7501C167.55 56.9501 167.7 57.1001 167.85 57.2001C167.75 56.0001 167.3 54.9001 166.85 53.8001C166.15 51.9501 165.45 50.1001 164.45 48.4001C164.25 48.1501 164 47.9501 163.75 47.8001ZM166.2 64.9001H166.5C166.3 63.7501 165.9 62.6001 165.45 61.5001C163.65 57.4001 161.2 53.4501 157.8 50.4001C157.45 50.1501 157.05 49.7501 156.6 49.8501C159.15 52.5001 161.5 55.3501 163.35 58.5001C164.5 60.5501 165.6 62.6501 166.2 64.9001ZM94.8 55.0501C94.85 55.0501 94.95 55.0001 95 54.9501C95 54.6001 94.95 54.2501 94.9 53.9001C94.8 52.9501 94.95 51.9501 94.9 51.0001C95.05 50.4001 95.05 49.8001 95.15 49.2001C95.65 45.8501 96.5 42.4501 98.3 39.5001C98.85 38.6501 99.35 37.8001 100.05 37.1501C100.15 37.0501 100.25 36.9001 100.3 36.7501C99.55 36.6501 99.1 37.4001 98.7 37.9001C96.2 40.8501 95.45 44.7501 94.85 48.4501C94.75 49.1001 94.65 49.7501 94.65 50.4001C94.4 50.9001 94.5 51.4501 94.5 52.0001C94.55 53.0501 94.4 54.1001 94.8 55.0501ZM88.5 56.0501C88.6 54.9001 88.9 53.8001 89.1 52.6501C89.05 52.6501 88.9 52.7001 88.8 52.7501C88.1 55.1001 87.95 57.6001 88 60.0001C88 60.9001 87.95 61.8001 88.15 62.6501C88.2 62.9501 88.2 63.3501 88.5 63.5501C88.45 62.8501 88.25 62.1001 88.25 61.4001C88.15 59.6501 88.3 57.8501 88.5 56.0501ZM167.35 62.3001C167.4 61.6501 167.15 61.0001 166.95 60.4001C166.45 58.9501 165.8 57.5501 165.1 56.1501C164.65 55.2501 164.15 54.4001 163.5 53.6501C163.4 53.5001 163.15 53.5001 163 53.4501C163.1 53.9001 163.4 54.2501 163.65 54.6001C164.3 55.6001 164.85 56.6501 165.4 57.7001C166 58.9001 166.6 60.1001 166.95 61.4001C167.05 61.7501 167.2 62.0501 167.35 62.3001ZM90.5 67.1501C90.55 67.1501 90.7 67.2001 90.8 67.2501C90.2 64.8001 90.2 62.2501 90.25 59.7501C90.3 58.7001 90.5 57.7001 90.55 56.6501C90.45 56.6501 90.3 56.7001 90.25 56.7501C89.7 58.9001 89.8 61.1501 89.95 63.3501C89.95 64.6001 90.1 65.9001 90.5 67.1501ZM98.7 58.3501C98.65 58.9001 98.7 59.4001 98.65 59.9501C98.55 61.5501 98.2 63.0501 97.9 64.6001C97.55 65.9001 97.3 67.2501 96.65 68.4501C96.75 68.4501 96.85 68.5001 96.95 68.5001C97.6 67.4001 97.95 66.1001 98.3 64.9001C98.7 63.4001 99.15 61.9001 99.3 60.3501C99.3 59.6001 99.4 58.7501 99.05 58.0501C98.95 58.1001 98.8 58.2001 98.7 58.3501ZM162.05 60.3001C162.05 60.6501 162.05 60.9501 162.2 61.2501C162.9 62.8001 163.7 64.3501 164.65 65.7501C165.2 66.5001 165.75 67.3001 166.55 67.8501C164.65 65.7501 163.4 63.1501 162.3 60.5501C162.25 60.4501 162.15 60.3501 162.05 60.3001ZM92.95 62.9001C93.2 62.0501 93.2 61.1501 93.35 60.2501C93.45 58.8001 93.65 57.3501 93.4 55.9501H92.95C92.85 57.6501 92.9 59.3001 92.85 61.0001C92.65 61.9001 92.6 62.9001 92.6 63.8501C92.7 63.8501 92.85 63.8001 92.9 63.7501C92.9 63.4501 92.95 63.2001 92.95 62.9001ZM168.95 65.8501C168.8 64.6001 168.65 63.3501 168.2 62.2001H167.85C168 63.0001 168.3 63.7501 168.4 64.6001C168.65 66.0501 168.85 67.5001 168.85 68.9501H169C169.05 67.9001 169.1 66.8501 168.95 65.8501ZM167 65.2501L166.8 65.4501C167 66.5501 167.45 67.5501 167.65 68.6001C167.75 68.9501 167.75 69.3501 168.05 69.6001C168.15 68.6001 167.8 67.6501 167.55 66.6501C167.4 66.1501 167.3 65.6501 167 65.2501ZM89.15 66.8001C89.1 66.8001 88.95 66.7501 88.85 66.7001C88.8 67.8501 89.4 68.8501 89.75 69.8501C90.25 70.9501 90.65 72.1001 91.4 73.0501C91.4 72.9501 91.4 72.8001 91.35 72.7001C90.5 70.8501 89.65 68.8501 89.15 66.8001ZM95.25 68.0001C95.75 66.2501 96.35 64.5001 96.8 62.7501C97.05 61.9001 97.25 60.9501 97.1 60.0501H96.65C96.45 61.0501 96.3 62.0501 96.05 63.0501C95.7 64.6001 95.2 66.1501 94.95 67.7501V67.6001C94.75 68.1501 94.65 68.7501 94.55 69.3001H94.9C95.05 68.9001 95.15 68.4501 95.25 68.0001ZM92.9 69.2001C93.2 68.8001 93.3 68.3001 93.35 67.8001C93.55 67.4001 93.6 66.9001 93.7 66.4501C94.35 64.0001 95.25 61.5501 95.15 59.0001C95.2 58.8001 95 58.7001 94.9 58.5501C94.8 58.8001 94.7 59.0501 94.7 59.3001C94.6 60.5501 94.4 61.8001 94.1 63.0001C93.8 64.6001 93.25 66.1501 93.1 67.7501C92.9 68.2001 92.65 68.7501 92.9 69.2001ZM92.45 70.4501C92.4 71.1501 92.6 71.8501 92.8 72.5501C93.15 73.7001 93.55 74.8001 94 75.9001C94.1 75.9001 94.25 75.9501 94.35 75.9501C93.75 74.0001 93 72.0501 92.85 69.9501C92.65 70.0501 92.45 70.2001 92.45 70.4501ZM96.2 76.7501C96.15 76.1501 95.9 75.6501 95.8 75.1001C95.45 73.7501 95.3 72.3001 95.3 70.9001H94.85C94.7 71.4001 94.7 71.9001 94.75 72.4001C94.9 73.9001 95.3 75.3501 95.95 76.7001C95.95 76.6501 96.1 76.7001 96.2 76.7501ZM95.35 77.7501C95.4 78.3501 95.8 78.8001 96.05 79.3001C96.5 80.1001 96.8 81.0001 97.15 81.8501C97.2 81.8001 97.3 81.7501 97.4 81.7001C97.2 80.7001 96.85 79.7001 96.4 78.8001C96.15 78.4001 95.95 77.7501 95.35 77.7501Z" fill="#4F2A4D"/>
<path d="M126.6 78.5C126.65 78.5 126.8 78.55 126.85 78.55C127.55 79.95 128.15 81.45 128.35 83C128.7 84.85 128.65 86.75 128.5 88.65C128.35 90.45 127.9 92.2 127.5 93.95C127.05 95.5 126.75 97.15 125.7 98.4H125.2C125.35 97.85 125.6 97.3 125.75 96.7C125.1 97.2 124.5 97.85 124.25 98.6C124.05 99.25 124.6 99.85 125.1 100.2C125.75 100.6 126.55 100.75 127.3 101C128.8 101.4 130.3 101.65 131.85 102C132.9 102.2 133.95 102.45 135.05 102.25C135.9 101.95 136.65 101.4 137.4 100.95C138.5 100.25 139.75 99.5 140.15 98.15C140.4 97.45 139.9 96.8 140.05 96.1C140.35 96.1 140.7 95.95 140.95 96.2C141.45 96.75 141.6 97.6 141.3 98.3C140.8 99.5 139.75 100.35 138.7 101.1C137.75 101.7 136.8 102.25 135.75 102.7C135.05 103 134.25 102.95 133.45 102.95C132.35 102.9 131.25 102.6 130.15 102.45C128.55 102.25 126.95 101.85 125.45 101.35C124.6 101.05 123.85 100.45 123.5 99.6C123.15 98.55 123.8 97.5 124.5 96.75C124.95 96.2 125.6 95.85 126.25 95.65C127.05 92.6 127.8 89.45 127.85 86.25C127.95 84.65 127.75 83.05 127.4 81.5C127.1 80.5 126.5 79.55 126.6 78.5Z" fill="#B95F3B"/>
<path d="M155.35 79.3C156.4 78.95 157.45 78.5 158.6 78.5C158.6 78.65 158.55 78.8 158.55 78.9C157.05 79.4 155.5 79.95 154.1 80.7C153.35 81.05 152.75 81.55 152 81.85C152.05 81.6 152.05 81.3 152.25 81.1C153.05 80.2 154.25 79.8 155.35 79.3Z" fill="#B95D38"/>
<path d="M115.85 78.9499C116.3 78.8499 116.75 78.9999 117 79.3999C117.3 79.9499 117.1 80.6499 117 81.2499C116.9 81.7999 116.75 82.4499 116.15 82.6999C115.6 82.9999 114.95 82.5999 114.8 82.0499C114.6 81.3499 114.65 80.5999 114.95 79.8999C115.1 79.4499 115.4 79.0499 115.85 78.9499Z" fill="#160E0B"/>
<path d="M110.1 79.6504C110.2 79.6004 110.35 79.4504 110.4 79.4004C111.4 79.5504 112.4 80.0004 113.25 80.6004C113.45 80.7004 113.45 80.9504 113.5 81.2004C112.85 81.0504 112.25 80.7004 111.6 80.5504C111.1 80.2504 110.45 80.1504 110.1 79.6504Z" fill="#B95D38"/>
<path d="M149.05 79.8004C149.6 79.7004 150.15 80.0004 150.35 80.5004C150.6 81.2004 150.45 81.9504 150.3 82.6504C150.15 83.2504 149.9 83.9004 149.3 84.2004C148.85 84.3504 148.25 84.2504 148 83.8504C147.55 83.2004 147.55 82.3504 147.7 81.6004C147.85 80.8504 148.25 80.0004 149.05 79.8004Z" fill="#160E0B"/>
<path d="M107.3 80.0504C108.2 79.8004 109.15 80.1504 110 80.4504C111.1 80.9504 112.2 81.5504 113.15 82.2504V82.6504C112.4 82.4004 111.75 82.0004 111 81.7004C109.8 81.1504 108.55 80.8504 107.3 80.4504C107.35 80.3004 107.3 80.1004 107.3 80.0504ZM156.6 80.5504C157.2 80.2504 157.75 79.9504 158.4 79.9004V80.3504C156.65 81.5504 154.85 82.7004 153.05 83.8004C152.3 84.2004 151.55 84.8004 150.65 84.8004C150.6 84.3004 151 84.0004 151.35 83.7004C152.95 82.4004 154.75 81.4504 156.6 80.5504Z" fill="#B95D38"/>
<path d="M86.8496 82.6004C87.9496 82.2004 89.3496 82.1504 90.2996 83.0004C91.3996 83.9004 91.8496 85.3004 92.1496 86.6504C92.3496 87.6004 92.5996 88.5504 92.5996 89.5504V90.7004C92.5496 90.4004 92.4496 90.1004 92.3996 89.8004C91.9996 87.9504 91.7996 86.0004 90.6996 84.4004C90.1996 83.6504 89.4496 83.0004 88.5496 82.9504C87.7496 82.9004 86.7996 83.0504 86.2996 83.7504C85.8996 84.3004 85.8496 85.0004 85.6496 85.6504C85.5996 85.8004 85.4996 85.9504 85.4496 86.1504C85.3996 85.6004 85.3496 85.1004 85.3996 84.5504C85.4996 83.7004 86.0496 82.9004 86.8496 82.6004Z" fill="#CC492F"/>
<path d="M110.4 83C111.05 83.15 111.65 83.45 112.3 83.65C113.25 83.95 114.2 84.2 115.15 84.35C116.8 84.6 118.5 84.35 120.15 84.1C120.95 84 121.7 83.7 122.45 83.6C122.3 84 121.85 84.05 121.55 84.2C120.15 84.65 118.7 84.85 117.25 85.05C116.1 85.2 114.9 85.05 113.75 84.75C112.75 84.45 111.7 84.2 110.8 83.6C110.6 83.45 110.5 83.25 110.4 83Z" fill="#B95D38"/>
<path d="M85.3498 86.6008C85.1998 85.9508 85.1998 85.2008 85.3498 84.5508C85.3498 85.1008 85.3998 85.6008 85.3998 86.1508C85.4498 86.0008 85.5498 85.8508 85.5998 85.6508V86.7508C85.5998 86.7008 85.4498 86.6508 85.3498 86.6008Z" fill="#CC492F"/>
<path d="M144.2 84.75C144.9 84.8 145.5 85.3 146.15 85.45C148.15 86 150.2 85.85 152.25 85.8C153.35 85.75 154.45 85.6 155.5 85.35C155.5 85.45 155.45 85.6 155.45 85.7C154.2 86.25 152.85 86.3 151.55 86.45C149.4 86.65 147.15 86.75 145.2 85.75C144.8 85.45 144.25 85.25 144.2 84.75ZM119.2 85.55C119.95 85.4 120.6 85.1 121.35 85C121.15 85.4 120.7 85.5 120.3 85.65C118.8 86.15 117.2 86.45 115.65 86.55C114.35 86.65 113 86.25 111.9 85.6C111.9 85.5 111.85 85.35 111.85 85.25C112.65 85.5 113.4 85.9 114.25 86C115.9 86.15 117.55 85.9 119.2 85.55Z" fill="#B95D38"/>
<path d="M143.85 86.4004C144.65 86.6004 145.4 87.0004 146.25 87.1504C148.5 87.6004 150.8 87.5004 153.05 87.3004C153.65 87.2504 154.2 87.1004 154.8 87.0504C154.5 87.5004 153.9 87.5004 153.45 87.6504C151.85 87.9004 150.2 88.0004 148.55 88.0004C146.9 87.9004 145.05 87.6504 143.85 86.4004Z" fill="#B95D38"/>
<path d="M109.55 86.8492C110.4 86.7992 111.2 87.2992 112 87.4492C114.05 87.9992 116.2 88.2992 118.3 88.1492C118.5 88.1492 118.8 88.0992 118.95 88.2492C119.05 88.5492 118.6 88.5492 118.4 88.5992C116.5 88.8492 114.55 88.7492 112.65 88.3992C111.55 88.1492 110.45 87.7992 109.5 87.1992C109.6 87.1492 109.55 86.9492 109.55 86.8492ZM132.2 88.4992C132.3 88.0492 132.35 87.4492 132.9 87.2492C132.95 89.4492 132.7 91.5992 132.55 93.7992C132.45 95.0992 132.5 96.4492 132.5 97.7492C132.4 97.7492 132.25 97.7492 132.15 97.6992C131.8 96.1492 131.9 94.4992 131.9 92.8992C131.95 91.4492 131.95 89.9492 132.2 88.4992Z" fill="#FDB897"/>
<path d="M92.5996 89.5L92.7496 89.95C92.9496 91.5 92.9496 93.05 92.8496 94.55C92.7996 94.85 92.8496 95.2 92.5496 95.35C92.4996 94.4 92.5996 93.45 92.5496 92.5C92.5496 91.6 92.3496 90.7 92.3996 89.75C92.4496 90.05 92.5496 90.35 92.5996 90.65V89.5ZM167.5 91.9C168.85 90.9 170.35 90.1 171.95 89.7C172 89.8 172.05 89.95 172.1 90.05C170.9 90.6 169.7 91.15 168.6 91.95C167.8 92.45 167 93 166.55 93.85H166.25C166.1 92.95 166.85 92.35 167.5 91.9ZM172.5 90.5C172.7 90.4 172.9 90.3 173.1 90.25C172.8 91.2 171.75 91.5 170.95 91.9C169.9 92.35 168.95 93 168.15 93.8C167.7 94.2 167.55 94.85 167 95.1C167.25 93.8 168.35 92.9 169.3 92.15C170.25 91.4 171.4 91.05 172.5 90.5ZM86.5996 92.75C87.1996 93.1 87.3996 93.85 87.7996 94.4C89.0996 96.25 90.6496 97.9 92.3996 99.3C92.7996 99.6 93.1996 99.95 93.4496 100.35C92.8996 100.15 92.3996 99.8 91.9496 99.45C90.4496 98.25 89.0496 96.95 87.8996 95.45C87.3496 94.6 86.8496 93.7 86.5996 92.75ZM88.9996 97.9C89.2496 98.05 89.4496 98.25 89.5996 98.45C90.0496 99.05 90.6496 99.5 91.2496 99.9C91.9996 100.45 92.7996 100.95 93.6496 101.35C93.9996 101.5 94.4496 101.65 94.6996 102C93.9996 101.95 93.2996 101.65 92.6996 101.3C91.4996 100.65 90.2996 99.85 89.3996 98.75C89.1496 98.5 89.0496 98.2 88.9996 97.9Z" fill="#CC492F"/>
<path d="M134.95 103.801C135.25 104.001 135.2 104.351 135.25 104.701C135.35 106.151 135.1 107.551 134.8 108.951C134.65 109.001 134.5 109.101 134.35 109.151C134.9 107.451 134.65 105.601 134.95 103.801ZM133.1 104.151C133.2 104.151 133.35 104.201 133.45 104.201C133.75 106.101 132.95 107.951 132.65 109.801H133.3C133.1 109.851 132.9 109.851 132.75 109.901C132.55 109.701 132.4 109.451 132.2 109.251C132.35 109.101 132.5 108.901 132.55 108.701C132.8 107.251 132.95 105.701 133.1 104.151Z" fill="#B95D38"/>
<path d="M141.3 108.8C142.7 108.85 144.05 108.15 145.4 108.45C145.35 108.75 145.25 109.05 145.2 109.35C143.7 109.9 142.1 110 140.55 110.4C138.5 110.95 136.4 111.25 134.3 111.45C130.8 111.6 127.3 111.3 123.85 111.1C121.95 110.95 120.1 110.65 118.2 110.65C117.65 110.65 117.05 110.6 116.5 110.85C116.4 111 116.35 111.2 116.25 111.35H115.7C115.7 111.05 115.65 110.8 115.75 110.5C116.1 110.15 116.6 109.95 117.05 109.9C117.6 109.85 118.2 109.7 118.75 109.65C120.1 109.45 121.5 109.5 122.85 109.5C124.35 109.6 125.8 109.45 127.25 109.25C128.55 109 129.9 108.85 131.2 108.9C131.55 108.9 131.9 109 132.1 109.3C132.3 109.5 132.45 109.75 132.65 109.95C132.85 109.9 133.05 109.9 133.2 109.85C133.6 109.7 133.9 109.35 134.25 109.15C134.4 109.05 134.55 109 134.7 108.95C136.95 108.95 139.1 108.7 141.3 108.8ZM118.6 113.2C119.45 113.6 120.2 114.15 120.9 114.8C119.95 114.55 119.2 113.9 118.6 113.2ZM132.5 117.15C133.65 116.8 134.8 116.65 136 116.5C135.9 116.65 135.8 116.75 135.65 116.75C134.6 117 133.55 117.2 132.5 117.15Z" fill="#E56324"/>
<path d="M162.55 81.3992C162.55 84.7992 163.05 88.1492 163 91.4992C163 92.7492 163.05 94.0492 162.9 95.2992C162.85 95.9492 162.9 96.5992 162.75 97.2492C162.85 98.3992 162.65 99.4992 162.55 100.649C162.35 102.599 162.1 104.549 161.65 106.449C161.65 106.649 161.5 106.749 161.35 106.849C161.35 106.249 161.5 105.699 161.6 105.099C161.95 102.849 162.1 100.549 162.3 98.2992C162.35 97.7492 162.25 97.1992 162.45 96.6992C162.65 91.8492 162 86.9992 162.2 82.1492C162.25 81.8992 162.3 81.5492 162.55 81.3992ZM99.7 100.599C99.7 97.6492 100.15 94.6992 100.55 91.7492C100.75 90.4492 100.75 89.0992 100.8 87.7992C100.8 87.5992 100.8 87.3992 100.75 87.1992C100.55 87.3992 100.45 87.6992 100.4 87.9992C100.2 89.2492 100.15 90.5492 99.95 91.8492C99.7 93.6992 99.45 95.5992 99.3 97.4492C99.15 99.3492 99.1 101.249 99.2 103.149C99.35 106.349 100.1 109.499 101 112.549C101.3 113.449 101.7 114.299 102.15 115.149C102.25 115.149 102.4 115.199 102.5 115.199C102.05 114.199 101.65 113.249 101.25 112.199C100.25 108.449 99.6 104.499 99.7 100.599ZM164.95 93.8992C165 92.8492 165 91.7492 164.95 90.6992C164.85 88.0992 164.7 85.4992 164.6 82.8992C164.55 81.1492 164.4 79.3992 164.45 77.6492C164.55 77.1492 164.7 76.5992 164.65 76.0992C164.3 76.0492 164.15 76.5492 164.25 76.7992C163.9 78.0992 164 79.4492 163.95 80.7492C163.95 84.0492 164.05 87.3992 164.45 90.6992C164.55 91.3992 164.5 92.0992 164.65 92.7492C164.6 94.4992 164.75 96.2492 164.55 97.9492C164.5 98.6992 164.35 99.4492 164.35 100.199C164.45 100.099 164.6 99.9492 164.6 99.7992C164.8 98.6992 164.95 97.5992 165 96.4992C165 95.5992 165.1 94.7492 164.95 93.8992ZM118.5 98.4492C117.8 99.2492 117 99.9492 116.15 100.599C114.5 101.899 112.75 103.149 111.35 104.699C109.85 106.349 108.75 108.399 108.5 110.599C108.35 111.999 108.55 113.449 109.1 114.799C109.7 116.299 110.45 117.699 111.45 118.999C111.55 118.999 111.75 118.999 111.8 119.049C111.5 118.299 111.05 117.649 110.7 116.899C109.75 114.899 109 112.699 109.3 110.449C109.65 108.049 111.15 105.999 112.85 104.349C114.15 103.099 115.55 101.949 116.95 100.799C117.75 100.099 118.6 99.4492 119.2 98.5492H119.3C119.55 98.2492 119.75 97.8992 119.6 97.4992C119.2 97.6992 118.85 98.0492 118.5 98.4492ZM151.95 106.549C151.5 104.899 150.95 103.249 149.95 101.799C150 101.649 149.85 101.449 149.8 101.299C149.5 100.699 149.15 100.149 148.8 99.5992C148.55 99.1992 148.25 98.7492 147.75 98.5992C147.85 98.9992 148.1 99.3992 148.35 99.7492C148.9 100.549 149.25 101.499 149.65 102.399L149.7 102.299C150.45 104.149 151.15 106.049 151.4 108.049C151.75 110.199 151.5 112.399 151.2 114.549C150.9 116.449 150.5 118.349 149.95 120.199H150.3C151.1 118.699 151.45 116.999 151.85 115.349C152.5 112.499 152.7 109.449 151.95 106.549ZM108.1 106.249C108.65 104.999 109.55 103.949 110.5 102.949C110.7 102.749 110.85 102.549 111 102.299C110.65 102.299 110.3 102.399 110.05 102.649C108.807 103.736 107.846 105.109 107.25 106.649C106.65 108.349 106.6 110.149 106.55 111.949C106.6 112.849 106.6 113.799 106.8 114.649C106.9 114.399 107.1 114.199 107.05 113.949C106.95 113.049 106.9 112.149 107.05 111.249C107.15 109.549 107.35 107.799 108.1 106.249ZM152.8 104.549C153.35 106.249 153.65 107.999 153.65 109.799C153.7 112.299 153 114.749 152 116.999C152.45 116.749 152.6 116.249 152.8 115.799C153.15 114.949 153.4 113.999 153.7 113.099C154.2 111.299 154.35 109.349 153.95 107.499C153.7 106.499 153.5 105.399 152.8 104.549ZM98.3 107.649C98.1 105.649 97.85 103.699 97.85 101.699C97.8 99.2992 98 96.8992 98.25 94.4492C98.4 92.8992 98.7 91.3492 98.75 89.7492C98.75 88.7992 98.8 87.7992 98.5 86.8492C98.5 86.4492 98.45 85.8992 98 85.7492C98.05 86.4492 98.25 87.1492 98.25 87.8992C98.25 88.5992 98.25 89.2492 98.3 89.9492C97.95 92.3992 97.55 94.7992 97.4 97.2992C97.2 99.8992 97.4 102.499 97.65 105.099C97.8 106.049 97.8 106.999 98.1 107.899C98.15 109.049 98.55 110.099 99 111.149C99.1 111.099 99.2 111.099 99.3 111.049C99.05 110.399 98.8 109.799 98.7 109.149C98.55 108.699 98.5 108.149 98.3 107.649ZM129.85 124.449C132.45 124.099 135.1 123.899 137.75 123.799V123.449C134.9 123.399 132.05 123.499 129.25 123.949C128.7 124.049 128.1 124.099 127.65 124.549C128.4 124.649 129.1 124.499 129.85 124.449ZM139.35 125.199C135.25 125.349 131.15 125.299 127.15 126.149C127.05 126.199 126.95 126.299 126.85 126.399C127.8 126.399 128.75 126.249 129.7 126.199C131.9 126.049 134.05 125.799 136.25 125.699C137.6 125.649 138.95 125.649 140.25 125.449C140 125.099 139.65 125.199 139.35 125.199Z" fill="#B95D38"/>
<path d="M155.55 124.9C155.15 125.4 154.8 125.9 154.5 126.45C153.7 127.95 152.65 129.3 151.8 130.8C150.45 132.8 149.15 134.9 147.75 136.9C146.9 138.4 145.85 139.8 144.4 140.8C143.15 141.65 141.55 141.75 140.15 142.25C138.5 142.85 136.75 142.9 135.05 143.2C133.35 143.05 131.65 143.25 129.95 143.1C128.1 142.95 126.25 142.8 124.4 142.55C123.55 142.45 122.7 142.1 121.9 141.8C121.25 141.55 120.55 141.35 119.95 140.9C119.75 140.75 119.55 140.55 119.3 140.5C118.6 139.65 117.6 139.1 116.95 138.2C115.65 136.5 114.3 134.85 113.2 133.05C112.3 131.6 111.45 130.15 110.7 128.65C109.6 126.55 108.4 124.45 107.1 122.45C106.4 121.35 105.5 120.35 104.7 119.35C104 118.45 103.2 117.75 102.45 116.95C102.15 116.65 101.85 116.4 101.5 116.25C102.15 117.35 103 118.35 103.75 119.35C104.65 120.6 105.75 121.75 106.55 123.1C107 123.85 107.45 124.55 107.9 125.3C108.65 126.7 109.55 128.05 110.25 129.45C111.25 131.35 112.35 133.25 113.6 135.05C114.5 136.25 115.35 137.45 116.3 138.55C117 139.35 117.85 140 118.75 140.6C119.75 141.4 120.9 142.1 122.15 142.45C123.65 143.1 125.35 143.25 127 143.4C128.7 143.55 130.4 143.75 132.1 143.7C133.2 143.65 134.3 143.8 135.4 143.7C135.65 143.75 135.95 143.75 136.2 143.75C137.95 143.65 139.75 143.5 141.45 142.85C142.05 142.6 142.65 142.2 143.3 142.15C144.3 142.05 145.1 141.45 145.85 140.85C147 139.9 147.85 138.65 148.6 137.4C149.35 136.35 150.05 135.25 150.65 134.1C151.2 133.05 151.85 132.1 152.35 131L152.45 131.05C153.3 129.6 154.25 128.25 154.95 126.75C155.3 126.15 155.75 125.6 155.85 124.9H155.55Z" fill="#B95D38"/>
<path d="M116 133.4C117.05 134.8 118.05 136.2 119.4 137.35C119.8 137.7 120.25 137.95 120.75 138.1C120.25 137.65 119.6 137.35 119.15 136.85C118.05 135.65 117.1 134.35 116.2 133C114.95 131.1 113.45 129.3 112.15 127.4C111.85 127 111.6 126.55 111.25 126.15C111.35 127.1 111.95 127.85 112.45 128.65C113.6 130.35 114.85 131.85 116 133.4ZM120.2 135.5C120.7 136.1 121.25 136.6 121.9 137.05C121.9 136.9 121.95 136.65 121.8 136.55C121.35 136.1 120.9 135.65 120.45 135.25C118.3 132.75 116.4 130.05 114.65 127.3C114.6 127.35 114.45 127.4 114.4 127.45C114.65 128.45 115.3 129.3 115.9 130.15C117.25 132 118.7 133.8 120.2 135.5ZM108.4 138.3C107.75 135.55 107.65 132.6 106.35 130C106.05 129.45 105.9 128.85 105.5 128.35C105.45 128.9 105.5 129.45 105.7 129.95C106.25 131.3 106.6 132.7 106.9 134.15C107.7 138.05 108.7 141.95 110.25 145.6C110.45 146.1 110.6 146.6 110.95 147C111 147 111.15 146.95 111.2 146.95C111.05 146.4 110.8 145.9 110.55 145.4C109.6 143.15 108.95 140.75 108.4 138.3ZM113.25 144.1C112.7 142.25 112.15 140.45 111.5 138.65C110.75 136.5 110 134.35 109 132.3C108.8 131.9 108.75 131.35 108.25 131.2C108.25 131.85 108.55 132.45 108.8 133.1C110.55 137.2 112.05 141.35 113.4 145.6C113.4 146.45 113.7 147.25 113.85 148.1C113.95 148.05 114.05 148.05 114.15 148C113.95 147 113.85 145.9 113.45 144.95C113.45 144.65 113.35 144.35 113.25 144.1ZM148.05 151.05C147.95 149.55 148.1 148.05 148.45 146.6C148.85 144.9 149.35 143.2 149.95 141.6C150.9 138.95 152.2 136.45 152.75 133.65C152.6 133.65 152.45 133.65 152.3 133.7C151.7 135.05 151.25 136.5 150.65 137.9C149.35 141.05 148.3 144.25 147.75 147.6C147.6 148.75 147.45 149.9 147.75 151.05C147.8 151 148 151.05 148.05 151.05Z" fill="#B95D38"/>
<path d="M151.35 140.7C150.65 142.95 150.4 145.3 149.85 147.55C149.2 150.15 148.15 152.65 146.75 154.9C147.3 154.6 147.55 154 147.9 153.5C148.95 151.6 149.75 149.55 150.4 147.5C150.95 145.55 151.25 143.6 151.6 141.6C151.7 140.95 151.9 140.3 151.9 139.65C151.6 139.95 151.5 140.35 151.35 140.7ZM140.85 156.45C140.4 157.95 139.8 159.4 139.3 160.85C138.75 161.6 138.55 162.55 138.15 163.4C137.7 164.45 137.1 165.45 136.75 166.55C137.35 166.15 137.5 165.4 137.85 164.85C138.45 163.55 139.15 162.25 139.55 160.9C140.3 159.15 141 157.35 141.6 155.55C142.45 152.9 142.85 150.15 142.95 147.4C143 146.55 143.35 145.8 143.5 145C142.85 145.7 142.5 146.65 142.45 147.6C142.2 150.55 141.75 153.55 140.85 156.45ZM131.75 158.55C130.6 156.55 129.8 154.25 129.7 151.95C129.65 151.15 129.9 150.35 129.7 149.55C129.6 149.55 129.45 149.6 129.35 149.6C128.8 150.65 128.75 151.9 128.85 153.05C128.95 154.55 129.55 155.95 130.2 157.25C130.75 158.4 131.5 159.5 132.45 160.4C132.8 160.7 133.15 161.1 133.65 161.1V160.75C132.9 160.1 132.2 159.4 131.75 158.55ZM121.85 155.05C121.45 154.1 120.9 153.2 120.7 152.2C120.65 152.05 120.6 151.9 120.5 151.75C120.45 152.4 120.45 153.05 120.7 153.65C121.35 155.25 122 156.9 122.9 158.4C124.2 160.55 125.7 162.5 127 164.65C127.25 165.05 127.45 165.6 127.9 165.85C127.85 165.5 127.7 165.15 127.55 164.8C125.8 161.5 123.4 158.5 121.85 155.05ZM127.25 159.45C126.75 158.4 126.05 157.45 125.6 156.4C125.55 156.25 125.4 156.15 125.3 156C125.2 156.85 125.75 157.6 126.1 158.35C127.5 160.9 128.6 163.55 129.8 166.2C130 166.65 130.1 167.15 130.5 167.4C130.35 166.65 130 165.95 129.7 165.2C128.95 163.3 128.2 161.35 127.25 159.45Z" fill="#B95D38"/>
<path d="M117.1 168.751C117.75 168.351 118.6 168.401 119.25 168.801C120.15 169.301 120.95 169.901 121.7 170.601C122.6 171.351 123.4 172.301 123.85 173.451C124.05 174.001 124.25 174.601 124.8 174.901C125.95 175.501 127.4 175.101 128.55 175.701C128.9 175.851 129.2 176.051 129.6 176.101C130.15 176.151 130.65 176.401 131.15 176.651C132.25 177.151 133.25 177.901 133.9 178.951C134 178.801 134.1 178.701 134.2 178.551C134.35 178.601 134.5 178.651 134.7 178.701C134.05 180.551 133.25 182.401 132.5 184.251C132.8 183.851 133.1 183.451 133.5 183.151C133.4 183.401 133.3 183.701 133.2 183.951C133.55 183.701 133.95 183.501 134.35 183.301C133.75 184.001 133 184.551 132.3 185.101C132.1 185.251 132 185.451 131.9 185.701C131.4 186.951 131.1 188.301 130.85 189.651C130.6 191.201 130.75 192.801 130.8 194.401C130.8 195.201 131.05 196.001 131.05 196.801C130.85 196.751 130.7 196.751 130.5 196.651C130.3 196.351 130.25 196.001 130.2 195.701C129.95 193.701 129.7 191.701 129.95 189.701C130.2 188.051 130.6 186.451 131.3 184.951C132.15 183.201 132.9 181.401 133.75 179.601C133 178.901 132.2 178.301 131.35 177.851C130 177.101 128.55 176.351 127 176.251C126 176.151 124.8 176.251 123.95 175.551C123.1 174.851 123 173.651 122.3 172.801C121.7 172.051 120.95 171.501 120.3 170.851C119.75 170.401 119.15 169.951 118.5 169.651C117.95 169.401 117.4 169.801 117 170.151C116.1 170.951 115.3 171.901 114.45 172.701C112.4 174.601 110.45 176.751 108.05 178.251C107.8 178.401 107.55 178.451 107.3 178.451C107.45 178.001 107.85 177.751 108.15 177.451C109.15 176.551 110.2 175.751 111.15 174.751C112.25 173.601 113.45 172.601 114.5 171.401C115.3 170.451 116 169.351 117.1 168.751Z" fill="#BA9F80"/>
<path d="M141.7 172.6C142.45 172.35 143.15 172.8 143.8 173.1C144.6 173.45 145.15 174.25 146 174.45C146.8 174.3 147.45 173.6 148.3 173.5C149.4 173.25 150.55 173.6 151.35 174.35C152.05 175 152.85 175.45 153.55 176.1C153.8 176.3 153.9 176.65 153.85 176.95C152.9 177.2 152.15 176.55 151.4 176.1C150.7 175.65 150.2 174.95 149.4 174.7C149 174.6 148.55 174.6 148.15 174.7C147.35 174.95 146.7 175.7 145.8 175.65C144.95 175.6 144.35 174.95 143.65 174.5C143.15 174.15 142.6 173.9 142.05 173.65C141.6 174.35 141.45 175.15 141 175.85C140.5 176.75 139.9 177.65 139.2 178.45C138.15 179.6 137.05 180.65 135.9 181.7C135.35 182.2 134.9 182.75 134.25 183.15C133.85 183.35 133.5 183.6 133.1 183.8C133.2 183.55 133.3 183.25 133.4 183C134.85 181.15 136.7 179.6 138.3 177.85C139.25 176.75 140.05 175.5 140.55 174.15C140.95 173.6 141.1 172.9 141.7 172.6ZM133.55 187.45C134.05 187.35 134.6 187.7 134.6 188.25C134.7 189.05 133.95 189.75 133.2 189.85C132.65 189.8 132.3 189.2 132.5 188.7C132.7 188.2 133 187.6 133.55 187.45Z" fill="#BA9F80"/>
<path d="M182 224.15C182.2 223.3 182.2 222.45 182.3 221.55C182.4 221.2 182.5 220.8 182.55 220.4C183.45 215.55 184.8 210.8 185.85 205.95C185.95 205.5 186.15 204.95 185.85 204.55C185.55 204.6 185.5 204.9 185.6 205.1C185.2 206.05 184.9 207.05 184.55 208.05C183.55 211.05 183 214.2 182.45 217.3C182.2 218.65 181.9 219.95 181.85 221.3C181.6 221.9 181.65 222.55 181.55 223.15C181.55 223.4 181.5 223.75 181.55 224H182V224.15ZM188.7 216.45C188.85 216.1 188.95 215.75 189 215.35C190.45 209.7 192.3 204.2 194.4 198.75C195.35 196.1 196.6 193.45 196.7 190.55C196.3 190.8 196.15 191.25 195.95 191.65C195.55 192.75 195.15 193.85 194.65 194.9C193.65 197.15 192.7 199.5 191.95 201.85C190.8 205.5 189.85 209.2 188.95 212.9C188.7 214 188.35 215.1 188.25 216.25C187.95 217.1 187.75 218.05 187.55 218.95H187.95C188.3 218.2 188.6 217.35 188.7 216.45ZM150.7 198.5C151.65 196.1 152.85 193.75 154.25 191.55C154.95 190.55 155.35 189.3 155.15 188.1C154.85 188.45 154.8 188.95 154.65 189.4C154.3 190.35 153.6 191.1 153.1 191.95C151.6 194.6 150.55 197.45 149.6 200.35C149.7 200.35 149.85 200.35 149.95 200.3C150.2 199.65 150.45 199.05 150.7 198.5ZM150.4 205.15C151.7 203.4 152.95 201.6 154.1 199.75C154.9 198.4 155.55 196.95 156.05 195.45C155.8 195.55 155.55 195.7 155.45 195.95C155 196.65 154.6 197.45 154.15 198.15C152 201.5 150 205 147.4 208.05C147.45 208.15 147.55 208.3 147.6 208.35C148.7 207.5 149.55 206.3 150.4 205.15ZM63.15 221.15C63.05 218.15 62.45 215.2 61.4 212.4C61.25 212.4 61.1 212.4 60.9 212.45C60.95 213.25 61.25 214 61.45 214.8C62.1 217.55 62.4 220.35 62.65 223.15C62.7 223.5 62.7 223.85 62.75 224.2H63.35C63.25 223.15 63.2 222.15 63.15 221.15ZM192.5 221.85C192.6 218.7 193.05 215.5 194.3 212.55C194.5 211.95 194.95 211.45 194.95 210.75C194.45 210.9 194.15 211.4 193.9 211.8C192.45 214.15 191.85 216.9 191.75 219.65C191.7 221.1 191.65 222.65 192.05 224.05H192.7C192.55 223.4 192.45 222.65 192.5 221.85ZM129.95 206.2C130.1 206.4 130.3 206.55 130.5 206.7C130.55 206.6 130.65 206.45 130.7 206.4C130.5 206.05 130.2 205.75 129.85 205.55C128.6 204.45 127.45 203.25 126.45 201.95C125.85 201.2 125.25 200.4 124.4 199.85C124.2 199.65 123.9 199.75 123.65 199.8C124.05 200.35 124.55 200.8 125 201.35C126.45 203.2 128.15 204.75 129.95 206.2ZM63.3 203.6C64.7 206.7 65.55 210 66 213.4C66.25 215 66.2 216.6 66.2 218.25H66.65C66.9 215.9 66.8 213.5 66.45 211.1C66 208.25 65.4 205.4 64.3 202.75C63.25 200.25 62.05 197.85 60.55 195.6C59.85 194.55 59.3 193.4 59.15 192.15C58.95 192.15 58.65 192.2 58.6 192.45C58.45 193.85 59 195.15 59.7 196.35C61 198.65 62.15 201.1 63.3 203.6ZM68.55 224.15C68.5 223.8 68.5 223.45 68.45 223.15C68.4 222.65 68.5 222.1 68.1 221.75C67.85 221.9 67.55 222.05 67.55 222.35C67.45 222.95 67.45 223.6 67.5 224.2H68.55V224.15ZM127.45 216.9C127.75 217.15 128.05 217.45 128.45 217.65C128.35 217.15 127.95 216.85 127.6 216.55C125.45 214.65 123.4 212.7 121.4 210.7C120.8 210.1 120.25 209.4 119.4 209.15C119.7 209.85 120.3 210.35 120.75 210.9C122.75 213.1 125.1 214.95 127.45 216.9ZM68 204.4C68.6 207.45 68.95 210.55 69.6 213.6C70.25 216.8 71.05 220.05 72.55 223C72.6 223.2 72.85 223.25 73.05 223.3C73.05 222.6 72.65 222 72.45 221.4C71.3 218.3 70.75 215.05 70.3 211.8C69.95 208.75 69.5 205.7 68.45 202.85C68.3 202.4 68.25 201.85 67.85 201.55C67.65 201.6 67.6 201.75 67.6 201.95C67.55 202.75 67.8 203.6 68 204.4Z" fill="#150F0C"/>
</g>
<defs>
<clipPath id="clip0_114_15126">
<rect width="268" height="224.1" fill="white"/>
</clipPath>
</defs>
</svg>
