<svg width="268" height="225" viewBox="0 0 268 225" fill="none" xmlns="http://www.w3.org/2000/svg">
<g clip-path="url(#clip0_114_15090)">
<g opacity="0.35">
<path d="M242.3 224.1H25.7C11.5 224.1 0 212.6 0 198.4V67.7996C0 53.5996 11.5 42.0996 25.7 42.0996H242.3C256.5 42.0996 268 53.5996 268 67.7996V198.4C268 212.6 256.5 224.1 242.3 224.1Z" fill="#D6DCE5"/>
</g>
<path d="M245.25 224.101V224.001C244.35 219.551 242.7 215.301 240.6 211.251C238.55 207.201 235.95 203.501 233 200.101C230.2 196.851 227.1 193.851 223.75 191.151C222.5 190.151 221.2 189.151 219.9 188.201C216.2 183.951 211.65 180.451 206.9 177.501C203.3 175.301 200 172.551 197.05 169.551C194.45 167.051 191.35 165.201 188.7 162.751C186.1 160.501 184 157.601 181 155.801C177.45 153.651 174.1 151.201 170.7 148.801C168.5 147.151 165.75 146.751 163.1 146.351C157.5 145.451 151.8 145.401 146.1 145.451C135.35 145.801 124.65 147.451 114.1 149.401C112.1 149.701 110.05 150.151 108.05 149.701C106.45 149.851 104.9 150.401 103.3 150.701C101.5 151.051 99.7 151.701 98.3 152.901C97 154.101 95.85 155.451 94.6 156.701C91.65 159.651 88.5 162.351 85.1 164.701C82.45 166.501 80 168.551 77.45 170.551C73.85 173.601 70.65 177.101 66.85 179.901C63.05 182.601 59.15 185.201 55.2 187.751C54.95 187.951 54.65 188.101 54.4 188.301C54 188.501 53.55 188.701 53.15 188.901C51.15 189.801 49.3 190.901 47.45 192.101C43.6 194.601 40 197.451 36.85 200.801C33.55 204.301 30.65 208.251 28.25 212.401C26.1 216.101 24.3 220.101 22.75 224.101H245.25Z" fill="#764074"/>
<path d="M158.8 12.2996C161.4 11.3496 164.15 10.8496 166.9 10.8496C168.35 10.8996 170.05 11.2496 170.9 12.5496C171.45 13.6996 171.05 15.1496 170.25 16.0496C168.5 18.1496 166.05 19.5496 164.1 21.4496C166.4 19.9996 168.9 18.5996 171.7 18.3996C172.85 18.3496 174.1 18.4496 175.1 19.0996C176.05 19.7996 176 21.1496 175.6 22.1496C174.95 23.4996 173.9 24.5996 172.9 25.6996C174.65 24.8996 176.5 24.0996 178.45 23.8496C179.1 23.7996 180.05 23.7496 180.35 24.4996C180.45 25.5996 179.7 26.4996 179.05 27.2496C176.8 29.8496 173.5 31.2996 170.25 32.1996C171.5 33.4496 172.9 34.4996 174.1 35.8496C177.6 39.4496 180.1 43.9496 181.3 48.7996C182.05 51.3996 182.65 54.0496 182.55 56.7496C182.45 59.7496 182.35 62.7996 181.7 65.7496C181.3 67.6496 180.5 69.4496 179.75 71.2496C179.25 72.3496 179.25 73.5496 179 74.7496C178.6 76.9496 178.05 79.1496 177.2 81.1996C176.75 82.1996 176.1 83.1496 175.35 83.9496C172.45 86.7996 169.3 89.4996 165.65 91.3496C162.45 92.8996 158.9 93.8496 155.35 94.0496C151.1 94.0996 146.85 93.8996 142.6 93.8996C140.05 93.7996 137.45 93.6496 134.9 93.3996C132.2 93.1496 129.5 92.5996 126.75 92.3496C124.25 92.1496 121.75 91.8996 119.25 91.9996C116.95 92.0496 114.55 92.1496 112.3 91.4496C110.45 90.8496 109.1 89.3496 108.05 87.7996C104.4 82.3996 102.15 76.1996 100.7 69.8996C99.7997 66.3996 99.6497 62.6996 99.7997 59.0996C100.1 54.9996 100.2 50.7996 101.5 46.8496C102.35 44.2496 103.3 41.6496 104.75 39.2996C105.65 37.8496 106.65 36.3996 108.1 35.4496C109.9 34.2496 111.95 33.0496 114.15 33.1996C114.15 31.3496 114.45 29.5496 115.15 27.8496C115.9 25.8996 116.7 23.9496 118.1 22.3996C119.25 21.1496 120.65 20.2496 122.15 19.4996C124.05 18.6496 126 17.7996 128.1 17.7496C132.65 17.5996 137.25 17.7496 141.8 17.4496C144.45 17.2496 147.15 17.2496 149.65 16.1996C152.8 14.9496 155.75 13.4496 158.8 12.2996Z" fill="#38312D"/>
<path d="M132.05 30.2506C138.05 27.9506 144.4 26.5006 150.8 26.6006C152.5 26.8006 154.25 26.9506 155.85 27.6006C156.75 27.9506 157.65 28.3506 158.5 28.8006C160.3 29.8506 162.3 30.6006 164.3 31.1506C165.2 31.4006 166.1 31.7506 166.95 32.1006C168 32.4506 168.75 33.2506 169.65 33.8506C169.65 35.5506 169.6 37.2506 169.6 38.9506C169.4 41.6506 169.75 44.4006 169.95 47.1006C170.3 51.0006 171 54.8006 171.55 58.6506C171.75 60.4006 172.25 62.1506 172.55 63.9006C172.65 66.9006 173.85 69.8006 173.7 72.8006C173.75 75.4006 172.25 77.7506 172.35 80.3506L172.2 80.5506C170.85 82.8006 170.3 85.4506 169.6 88.0006C168.85 91.1506 168.05 94.3006 167.25 97.4506C166.7 99.1006 166.15 100.701 165.25 102.201C165 102.651 164.85 103.101 164.7 103.601C163.3 104.101 162.25 105.201 160.95 105.901C159.4 106.801 157.7 107.351 156.05 108.001C152.65 109.251 149 108.651 145.45 108.701C141.85 108.501 138.25 109.001 134.6 108.951C130.65 108.901 126.55 108.951 122.75 107.551C119.25 106.201 115.95 104.301 113.3 101.651C112.15 100.201 110.95 98.8506 109.85 97.3506C110.1 98.7006 110.65 100.001 111.2 101.251C112.15 103.151 112.8 105.151 113.8 107.051C114.55 108.651 115.6 110.101 116.45 111.651C117.3 113.151 118.5 114.501 119.2 116.101C119.9 117.701 120.75 119.201 121.5 120.801C122.35 122.401 123.5 124.051 125.25 124.701C127.05 125.251 128.85 124.451 130.55 123.901C132.6 123.201 134.8 123.201 136.95 123.301C140.85 123.501 144.4 125.401 148.25 126.001C149.15 126.201 149.95 126.751 150.9 126.951C154.15 127.701 157.3 128.901 160.45 129.951C161.95 130.301 163.4 130.951 164.85 131.351C164.9 130.601 164.95 129.801 165 129.051C165 132.201 165.1 135.351 165.4 138.451C166.05 143.251 165.6 148.101 166 152.901C166.5 155.801 165.8 158.751 165.05 161.601C164.25 165.051 163.05 168.451 161.3 171.501C160.05 173.551 159.05 175.751 157.6 177.651C156.35 179.251 155.1 180.901 153.7 182.401C152.4 184.001 150.75 185.251 149.2 186.601C147.45 188.001 145.9 189.551 144.15 190.951C142.75 192.051 141.25 193.201 139.55 193.801C138.35 194.451 137.1 195.151 135.75 195.451C134.65 195.851 133.5 195.451 132.4 195.551C130.25 195.351 128.15 194.451 126.5 193.051C124.85 191.851 123.25 190.501 121.7 189.201C118.85 186.201 116.1 183.001 113.75 179.551C112.2 177.451 110.9 175.251 109.35 173.151C108.1 171.001 106.75 168.901 105.7 166.701C104.3 162.701 104.75 158.351 105.15 154.201C105.25 151.851 105.6 149.501 106 147.201C106.85 142.451 106.8 137.601 107.35 132.801C107.9 128.001 108.3 123.201 108.1 118.351C107.85 114.151 108.35 109.951 108.1 105.801C108.45 104.751 108.35 103.601 108.5 102.501C109 97.2006 108.7 91.9006 108.7 86.6006C108.6 85.2006 108.6 83.8006 108.2 82.5006C108.45 81.0006 108.1 79.4506 108.15 77.9506C107.85 74.8506 108.2 71.7006 108.85 68.6506C109.9 65.5006 110.65 62.2506 111.15 59.0006C112 54.7006 111.9 50.3006 112.65 46.0006C112.95 44.0506 113.4 42.1006 114 40.1506C114.15 39.6006 114.45 39.0006 115 38.7506C116.8 37.8006 118.6 36.8006 120.3 35.6506C124.05 33.2006 128 31.5006 132.05 30.2506Z" fill="#F2844F"/>
<path d="M179.2 71.5501C181.45 71.4501 183.6 72.8001 184.7 74.7001C186.15 76.9001 186.45 79.6001 186.4 82.1501C186.4 84.3001 185.55 86.3001 185 88.3001C184.3 90.4501 183.55 92.6001 182.4 94.5001C180.6 97.5501 178.25 100.35 175.3 102.3C173.05 103.8 170.1 104.65 167.4 103.85C166.6 103.8 165.9 103.45 165.15 103.35C165.05 103.35 164.85 103.4 164.7 103.45C164.85 102.95 164.95 102.5 165.25 102.05C166.15 100.6 166.7 98.9501 167.25 97.3001C168.05 94.1501 168.9 91.0501 169.6 87.8501C170.3 85.3501 170.85 82.7001 172.2 80.4001C172.25 80.4001 172.35 80.4501 172.4 80.5001C173.5 78.8501 174.65 77.2001 175.8 75.5501C177 74.3501 178.2 73.0501 179.2 71.5501ZM99.0503 75.3501C100.4 74.7501 101.95 75.1501 103.2 75.8501C105.7 77.2501 107.2 79.8501 108.35 82.3501C108.75 83.7001 108.75 85.1001 108.85 86.4501C108.85 91.7501 109.15 97.0501 108.65 102.35C108.5 103.45 108.6 104.6 108.25 105.65C107.35 105.45 106.45 105.5 105.55 105.2C103.05 104.45 101.15 102.55 99.5003 100.65C97.1003 97.8001 95.6503 94.3001 94.5003 90.8001C93.4003 87.6001 93.6003 84.0501 94.7003 80.8501C95.4503 78.6501 96.7003 76.2501 99.0503 75.3501Z" fill="#F95939"/>
<path d="M109.95 97.3008C111 98.8008 112.25 100.151 113.4 101.601C116.05 104.251 119.4 106.151 122.85 107.501C126.65 108.901 130.75 108.801 134.7 108.901C138.3 108.951 141.9 108.501 145.55 108.651C149.05 108.601 152.75 109.151 156.15 107.951C157.8 107.301 159.5 106.751 161.05 105.851C162.35 105.151 163.4 104.051 164.8 103.551C164.9 103.551 165.1 103.501 165.25 103.451C165.2 104.851 165.2 106.201 165.25 107.601C165.25 108.751 164.9 109.851 164.35 110.901C164.65 110.951 165 110.951 165.35 111.001C165.05 117.001 165.5 123.051 165.25 129.051C165.2 129.801 165.15 130.601 165.1 131.351C163.6 130.951 162.2 130.251 160.7 129.951C157.55 128.901 154.4 127.701 151.15 126.951C150.2 126.751 149.4 126.201 148.5 126.001C144.65 125.401 141.15 123.501 137.2 123.301C135.05 123.251 132.85 123.201 130.8 123.901C129.1 124.451 127.3 125.251 125.5 124.701C123.75 124.051 122.6 122.401 121.75 120.801C121 119.251 120.15 117.701 119.45 116.101C118.75 114.501 117.55 113.151 116.7 111.651C115.85 110.101 114.8 108.651 114.05 107.051C113.05 105.151 112.4 103.151 111.45 101.251C110.75 99.9508 110.2 98.6508 109.95 97.3008ZM145.2 54.4008C145.95 52.9008 147.15 51.3008 149 51.1508C149 51.2508 149 51.5008 148.95 51.6008C149.05 51.6508 149.2 51.8008 149.3 51.8508C149.35 51.6508 149.4 51.3008 149.45 51.1508C150.75 50.9508 152.15 51.0008 153.45 51.2008C152.15 52.3008 150.8 53.3508 149.8 54.7508C148.75 56.3508 147.9 58.0508 147.55 59.9508C147.4 60.8008 147.1 61.7508 147.65 62.5008C148.45 63.8508 149.6 65.3508 149.1 67.0508C148.8 67.5508 148.3 68.2008 147.7 68.2508C147.85 67.6508 148.5 67.2508 148.5 66.6008C148.65 65.2008 147.6 64.1008 147.05 62.9008C146.5 61.5508 145.35 60.5508 145 59.1508C144.65 57.5508 144.45 55.9008 145.2 54.4008Z" fill="#E56324"/>
<path d="M164.3 110.851C164.8 109.801 165.15 108.701 165.2 107.551C165.35 108.651 165.3 109.801 165.3 110.901C164.95 110.901 164.6 110.901 164.3 110.851Z" fill="#E56324"/>
<path d="M156.4 17.1004C159.1 16.0504 161.7 14.7004 164.5 13.9004C163.55 14.6004 162.45 15.0504 161.35 15.5504C159.75 16.3004 158.15 17.1004 156.55 17.7504C154.15 18.7004 151.65 19.2504 149.1 19.6504C147.2 19.9504 145.3 20.2504 143.4 20.0504C147.8 19.2504 152.25 18.6504 156.4 17.1004ZM164.3 17.0504C164.65 16.9004 165 16.8504 165.35 16.7504C163.8 18.1504 161.8 18.8004 159.95 19.6504C158.2 20.3004 156.3 21.1504 154.4 20.6504C157.8 19.8504 161.15 18.6004 164.3 17.0504ZM122.5 24.3004C124.6 22.4004 127 20.7504 129.7 19.7504C129.8 19.8004 130.05 19.8504 130.15 19.8504C127.65 20.9004 125.35 22.4004 123.35 24.2004C121.8 25.6004 120.6 27.4504 120 29.5004C119.7 30.5004 119.6 31.6004 119.15 32.5504C119.05 31.9004 119.05 31.2004 119.2 30.5504C119.65 28.2504 120.75 25.9504 122.5 24.3004ZM129.85 23.7004C131.7 22.6004 133.7 21.6004 135.85 21.1504C135.4 21.4504 134.9 21.7004 134.35 21.9004C132.1 22.7504 130 24.0504 128.05 25.4504C125.85 27.0004 124.15 29.2504 123.1 31.7004C123.2 30.1504 124.05 28.8004 124.95 27.6504C126.25 26.0004 128.05 24.8004 129.85 23.7004ZM162.15 24.5504C165.2 23.5504 168.2 22.3504 171.1 20.9504C170.4 21.9504 169.25 22.3504 168.2 22.9004C166.65 23.6004 165.15 24.3504 163.5 24.7004C163.1 24.8004 162.6 24.7504 162.15 24.5504ZM141.05 23.6504C143.55 23.2004 146.1 23.0004 148.6 23.2504C148.15 23.5004 147.7 23.6504 147.2 23.6504C144.2 23.7504 141.25 24.1504 138.4 25.0504C137.1 25.4504 136 26.2504 134.75 26.7004C136.2 24.7004 138.75 24.0504 141.05 23.6504ZM108.85 38.3004C109.35 37.8504 109.9 37.3504 110.6 37.5004C110.3 38.2504 109.45 38.5004 108.95 39.1004C106.45 41.7004 105.25 45.2004 104.2 48.5504C103.6 50.4004 103.45 52.3004 103.3 54.2004C102.85 50.8004 104 47.5504 105.15 44.4004C106.05 42.2004 107.05 39.9504 108.85 38.3004ZM172.05 37.5004C172.45 37.8504 172.8 38.3504 172.9 38.9004C173.6 41.2504 173.95 43.7004 173.9 46.1004C173.8 48.9004 173.65 51.7504 173.15 54.5004C173 55.2504 172.8 55.9504 172.5 56.6504C173.25 53.1004 173.5 49.5004 173.4 45.8504C173.4 43.0004 172.7 40.2504 172.05 37.5004Z" fill="#150F0C"/>
<path d="M124.9 40.9495C126.8 39.7495 129.2 39.8495 131.35 40.0995C130.15 40.2495 128.9 40.2495 127.7 40.4495C126.8 40.6495 125.85 40.8995 124.9 40.9495Z" fill="#FDB697"/>
<path d="M110.05 41.8508C110.45 41.3008 111.05 40.8508 111.65 40.5508C111.05 41.5508 110.2 42.4008 109.75 43.5008C108.3 46.5008 107.25 49.7508 106.55 53.0008C106.25 54.3508 106.3 55.7008 106.25 57.0508C105.7 55.9508 105.85 54.6508 106 53.4508C106.35 51.1508 107 48.9008 107.75 46.7508C108.3 45.0508 108.95 43.3508 110.05 41.8508ZM175.9 40.9508C176.45 41.5008 176.75 42.2508 176.9 43.0008C177.65 46.2008 177.55 49.5508 177.45 52.8508C177.4 54.4008 177.3 55.9008 177.05 57.4008C176.9 58.2008 176.75 59.1008 176.1 59.6508C176.95 56.7508 176.85 53.6508 176.85 50.6508C176.9 47.4008 176.5 44.1508 175.9 40.9508Z" fill="#150F0C"/>
<path d="M128.3 42.6493C130.3 42.2993 132.5 42.1493 134.35 42.9993C136.15 44.1493 137.5 46.2993 137 48.4993C136.55 48.5993 136.1 48.5493 135.65 48.4493C133.9 48.1493 132.1 47.9493 130.35 47.7993C127.15 47.9993 123.95 48.2493 120.9 49.0993C118.75 49.7493 116.85 50.9993 114.85 51.9993C114.75 51.2493 115.2 50.6493 115.55 50.0993C116.85 48.0493 118.6 46.2993 120.8 45.2493C123.2 44.0493 125.7 43.0993 128.3 42.6493ZM147.1 44.5493C148.35 43.5993 150 43.5493 151.5 43.6493C156.15 44.1993 160.6 45.7993 164.6 48.1993C165.65 48.8493 166.55 49.6993 167.45 50.5493C167.15 50.5993 166.85 50.5993 166.55 50.5493C161.65 49.5993 156.75 48.3993 151.75 48.1993C149.8 48.1993 147.9 48.3493 145.95 48.5993C145.6 48.6493 145.2 48.5493 144.9 48.3993C145.4 46.9993 146 45.5493 147.1 44.5493Z" fill="#45362F"/>
<path d="M122 55.3008C122.5 54.9508 123.4 55.1008 123.5 55.8008C123.75 56.9008 123.95 58.2508 123.2 59.2008C122.65 59.8508 121.6 59.4008 121.5 58.6008C121.3 57.5008 120.95 56.0008 122 55.3008Z" fill="#160E0B"/>
<path d="M107.6 59.8C107.95 58.3 108.15 56.65 109.2 55.4C108.3 58.75 107.4 62.15 107.1 65.6C106.7 63.65 107.25 61.7 107.6 59.8ZM180.3 55.25C181.7 57.7 180.8 60.6 180.05 63.1C179.3 65.3 178.8 67.7 177.35 69.55C178.6 66.7 179.5 63.7 180.05 60.6C180.4 58.85 180.25 57.05 180.3 55.25Z" fill="#150F0C"/>
<path d="M157.4 56.0006C158 55.6006 158.95 55.9506 159 56.6506C159.05 57.7006 158.8 58.8006 158.15 59.6506C157.6 60.3506 156.35 59.9506 156.25 59.0506C156.1 57.9506 156.4 56.7006 157.4 56.0006Z" fill="#160E0B"/>
<path d="M138.05 60.2006C139.1 59.3506 140.55 59.2506 141.8 59.5006C142.2 59.5506 142.45 59.9506 142.75 60.2006C141.2 59.9006 139.6 60.2006 138.05 60.2006Z" fill="#FCB48E"/>
<path d="M103.35 63.8492C103.2 62.3992 102.95 60.7992 103.55 59.4492C103.65 62.0492 103.85 64.6992 104.4 67.2492C104.65 68.9492 105.25 70.5492 105.3 72.2992C104.4 69.5492 103.75 66.6992 103.35 63.8492Z" fill="#150F0C"/>
<path d="M119.1 60.6505C120.3 60.5005 121.45 60.7005 122.65 60.7505C123.7 60.8005 124.75 60.6005 125.85 60.6005C124.4 61.2005 122.75 61.2005 121.2 61.1005C120.5 61.1005 119.8 60.9005 119.1 60.6505Z" fill="#BE6547"/>
<path d="M155.1 61.1496C156.95 61.3996 158.8 61.3496 160.65 61.0996C160.35 61.4496 159.95 61.6996 159.5 61.7496C158.3 61.9996 157.05 62.0996 155.85 61.8996C155.45 61.8496 155.25 61.4996 155.1 61.1496Z" fill="#B65B36"/>
<path d="M175.15 62.8496C175.5 63.0496 175.9 63.2496 175.9 63.6996C176.15 65.7496 175.95 67.8496 175.7 69.8996C175.6 69.8996 175.35 69.8496 175.25 69.8496C175.45 67.4996 175.25 65.1496 175.15 62.8496Z" fill="#150F0C"/>
<path d="M118.15 64.0006C120.15 63.8506 122.2 63.9006 124.2 63.9006C123.05 64.5506 121.75 64.5006 120.5 64.6006C119.7 64.6006 118.75 64.7006 118.15 64.0006Z" fill="#FBB38E"/>
<path d="M134.55 66.7501C134.7 65.1001 136.75 64.4501 138.1 65.0001C138.3 65.4001 138.45 65.8001 138.65 66.2001C138.2 67.4001 136.8 67.8001 135.65 67.8001C135.05 67.8001 134.5 67.3501 134.55 66.7501ZM143.65 65.4501C144.5 65.1501 145.4 65.5001 146.1 65.9001C146.5 66.2001 147 66.6501 146.85 67.2001C146.7 67.8001 145.95 67.8001 145.5 67.8001C144.65 67.7501 143.6 67.8501 142.95 67.1501C142.5 66.5001 143 65.6501 143.65 65.4501Z" fill="#B65A35"/>
<path d="M155.15 68.5997C156.2 67.6997 157.65 67.6497 158.95 67.7497C160.1 67.8497 161.3 67.8997 162.25 68.6497C161.05 68.5997 159.9 68.3497 158.7 68.2997C157.55 68.2997 156.35 68.5497 155.15 68.5997Z" fill="#FBB48F"/>
<path d="M118.45 68.5991C120.65 68.3491 123.25 68.5491 124.85 70.3491C127.1 72.6491 126.65 76.6992 124.35 78.7992C122.55 80.3992 120.05 81.1991 117.65 80.8491C115.9 80.5491 114.25 79.5991 113.15 78.1991C112.2 76.9491 112.2 75.1991 112.6 73.6991C113.15 71.7491 114.75 70.3991 116.35 69.3491C116.95 68.9491 117.7 68.6991 118.45 68.5991ZM159.1 70.7491C160.8 70.4491 162.5 70.7992 164.05 71.5492C165.7 72.3492 167.05 73.8491 167.3 75.6991C167.55 78.8491 165.45 82.0991 162.35 82.8491C160.15 83.3991 157.85 82.6991 156 81.4991C154.45 80.4991 153.25 78.7491 153.25 76.8491C153.2 74.9991 154.25 73.2491 155.75 72.2491C156.8 71.5991 157.9 70.9491 159.1 70.7491Z" fill="#F95939"/>
<path d="M157.85 72.3496C157.95 72.4996 157.95 72.4996 157.85 72.3496V72.3496Z" fill="#FBA187"/>
<path d="M130.7 74.8003C132 74.0503 133.25 73.2003 134.75 72.8503C135.85 72.5503 136.95 72.8503 138.05 72.9003C139 72.9503 140 72.7003 140.95 73.0003C142.55 73.4503 143.9 74.4503 145.25 75.4003C147 76.6003 148.45 78.3003 149.35 80.2503C149.8 81.2003 149.95 82.3003 150.2 83.3003C150.05 83.1503 149.7 82.8503 149.5 82.7003C149.4 82.7503 149.25 82.9503 149.2 83.0003C145.15 81.3003 140.75 80.7503 136.4 80.6003C133.4 80.7503 130.4 80.9003 127.5 81.5503C126.55 81.7503 125.6 81.8503 124.65 81.9003C125.15 80.5503 126.1 79.4503 126.9 78.3503C127.9 77.0003 129.15 75.7003 130.7 74.8003Z" fill="#E56324"/>
<path d="M133.2 76.3004C134.9 75.6004 136.75 75.4004 138.55 75.2004C139.4 75.0504 140.25 75.3504 141.05 75.6004C143.2 76.4004 145.2 77.6004 146.8 79.2504C147.8 80.2504 148.6 81.4004 149.45 82.5004C146.7 81.4004 143.7 80.9504 140.8 80.6004C135.9 80.1004 130.95 80.5004 126.1 81.4004C128.2 79.4004 130.45 77.4504 133.2 76.3004Z" fill="white"/>
<path d="M179.9 81.2C180.2 80.85 180.65 80.8 181.05 80.75C179.3 82.5 178.1 84.75 176.9 86.9C175.95 88.65 175.1 90.45 174.45 92.35C174.15 93.1 173.95 93.95 173.35 94.55C173.9 91.5 175.3 88.7 176.7 85.95C177.65 84.3 178.5 82.55 179.9 81.2Z" fill="#CC492F"/>
<path d="M134.5 82.1009C135.2 81.4509 136.2 81.5009 137.05 81.5009C138.7 81.6009 140.4 81.6509 142.05 82.1009C141.1 82.2009 140.15 82.2009 139.25 82.1509C137.7 82.1509 136.1 82.2509 134.5 82.1009Z" fill="#FBB898"/>
<path d="M99.4502 83.3496C100.95 84.2496 101.65 85.8996 102.25 87.4496C103.35 90.5996 104.35 93.8496 104.6 97.1496C103.95 93.4496 103 89.7996 101.45 86.3996C100.9 85.2496 100.1 84.3496 99.4502 83.3496Z" fill="#CC492F"/>
<path d="M131.5 84.9507C132.05 84.7507 132.65 84.6007 133.2 84.6007C135.75 84.4507 138.35 84.4007 140.9 84.7507C141.5 84.8007 142.05 85.0507 142.55 85.4007C141.9 86.4507 141.2 87.5007 140.8 88.7007C140.2 88.8507 139.6 88.8507 139 88.8007C137.05 88.7007 135.05 88.9507 133.1 89.1007C132.8 87.6507 132.3 86.2507 131.5 84.9507Z" fill="#E56324"/>
<path d="M131.6 94.3503C132.35 93.9503 133.1 93.6003 133.95 93.5003C135.85 93.2503 137.8 93.3003 139.7 93.5503C140.2 93.6003 140.7 93.8003 141.15 94.1003C139.55 94.1503 137.95 93.8503 136.35 93.9503C134.75 93.9503 133.2 94.3003 131.6 94.3503Z" fill="#FFB18D"/>
<path d="M127.85 138.6C128.6 141.35 128.6 144.25 128.65 147.05C128.65 149.7 128.75 152.45 127.8 155C127.9 153.7 128.2 152.45 128.25 151.15C128.35 148.5 128.2 145.85 128.05 143.2C127.95 141.7 127.65 140.15 127.85 138.6Z" fill="#FDB697"/>
<path d="M96.4501 161.199C96.9001 163.049 96.4501 164.949 96.5001 166.799C96.3501 170.699 97.8501 174.399 99.5001 177.899C100.6 180.299 101.9 182.599 103 184.999C101.45 182.299 100 179.499 98.6001 176.699C97.3001 174.049 96.2001 171.249 96.1001 168.249C96.0001 165.899 96.2501 163.549 96.4501 161.199ZM169.6 164.849C169.6 164.499 169.65 164.149 169.75 163.799C170 164.099 170.3 164.399 170.3 164.849C170.55 166.899 170.2 168.999 169.7 170.999C169.05 173.549 168.1 176.049 166.5 178.149C166.35 178.449 166 178.499 165.7 178.599C166.4 177.349 167.2 176.149 167.7 174.799C168.9 171.649 169.5 168.249 169.6 164.849ZM92.0001 164.999C92.1501 165.049 92.4001 165.199 92.5001 165.249C92.8001 166.399 92.7501 167.599 93.0501 168.799C94.0501 173.349 96.1001 177.599 98.4501 181.599C98.9001 182.449 99.6501 183.199 99.7501 184.199C99.0501 183.649 98.6501 182.849 98.1501 182.149C96.3001 179.349 94.7501 176.399 93.4501 173.349C92.4001 170.749 91.4501 167.849 92.0001 164.999ZM156.2 184.899C157.45 183.749 158.5 182.349 159.3 180.849C159.4 181.299 159.55 181.799 159.3 182.249C158.65 183.849 157.5 185.199 156.2 186.349C154.45 187.999 152.85 189.749 151.45 191.699C151 192.299 150.6 192.949 149.95 193.249C150 192.949 149.95 192.599 150.15 192.299C151.8 189.599 153.85 187.049 156.2 184.899ZM159.65 192.449C160.25 191.849 160.85 191.199 161.75 191.099C161.35 192.099 160.55 192.849 159.9 193.649C158.65 195.049 157.55 196.599 156.45 198.099C156.15 198.449 155.8 199.049 155.25 198.849C156.4 196.549 157.75 194.299 159.65 192.449ZM133 195.699C132 195.649 130.9 195.549 130 195.149C129.85 195.099 129.75 195.049 129.6 194.949C129.45 194.999 129.25 194.949 129.1 194.849C128.75 194.599 128.45 194.399 128.15 194.149H128.1C129.2 195.049 130.05 196.249 131.15 197.149C131.85 197.749 132.55 198.399 133.25 198.999L133.3 198.949C133.5 198.799 133.75 198.699 134 198.599C134 198.549 134 198.549 133.95 198.499C135.3 198.049 136.05 196.799 137 195.849C137.4 195.449 138.05 195.049 138.05 194.449C136.65 195.599 134.85 195.749 133 195.699ZM143.15 197.549C143.6 196.999 144.15 196.399 144.9 196.299C144.55 197.499 143.55 198.299 142.9 199.299C142.3 200.099 141.95 201.099 141.55 201.999C141.4 202.049 141.15 202.099 141 202.149C141.2 200.449 142.05 198.849 143.15 197.549Z" fill="#4F2A4D"/>
<path d="M132.15 196.75C132.35 196.45 132.9 196.75 132.7 197.1C132.5 197.4 131.95 197.1 132.15 196.75ZM194.7 224.1C194.85 221.65 195.1 219.2 195.7 216.8C197.2 210.7 199.4 204.8 202.3 199.25C202.45 198.95 202.5 198.65 202.4 198.3C201.85 198.3 201.6 198.8 201.3 199.2C199.55 201.9 198.4 204.9 197.25 207.9C196.15 210.95 195.15 214.05 194.55 217.25C194.15 219.3 194.15 221.4 194.05 223.5V224.05H194.7V224.1ZM118.7 200.55C119.05 200.25 119.5 200.5 119.85 200.6C122 201.65 123.85 203.1 125.65 204.6C126.7 205.5 128 206.4 128.3 207.85C127.45 207.6 127.05 206.8 126.35 206.3C123.9 204.35 121.3 202.45 118.7 200.55ZM198.65 224.1C198.75 223.5 198.9 222.9 199 222.3C200.05 216.95 201.55 211.65 203.8 206.6C204.1 205.85 204.5 205.1 204.5 204.3C204.15 204.6 203.8 205 203.55 205.4C202 208 200.95 210.85 200 213.7C198.85 217.1 198.3 220.6 197.75 224.1H198.65ZM52.5502 224.1H53.3502C52.7002 218.65 51.5002 213.35 50.1502 208.05C49.9002 207.25 49.6502 206.45 49.1502 205.8C49.0002 205.8 48.7502 205.75 48.6002 205.75C48.5502 206.65 49.0502 207.4 49.2502 208.25C50.4502 213.5 51.6002 218.75 52.5502 224.1ZM56.0002 224.1H57.0002C56.9502 223.6 56.9002 223.05 56.8002 222.55C56.3002 219.7 55.7002 216.9 54.9002 214.15C54.4002 212.4 53.9502 210.55 53.1502 208.9C53.0002 208.5 52.6502 208.35 52.3002 208.15C53.8002 213.35 55.1502 218.6 55.9502 223.95C56.0002 224 56.0002 224.05 56.0002 224.1ZM123.25 209.25C123.9 209.15 124.4 209.65 124.95 209.95C126.55 210.95 127.6 212.65 128 214.45C128.1 214.85 128.2 215.8 127.55 215.3C127.1 214.5 126.75 213.55 126.2 212.8C125.5 211.75 124.4 211.05 123.5 210.2C123.25 209.9 123.15 209.6 123.25 209.25ZM132.95 211.75C133.1 211.65 133.35 211.5 133.5 211.4C134.55 213.25 135 215.35 135.5 217.4C135.6 218.1 135.95 218.85 135.45 219.45C134.7 218.3 134.55 216.9 134.1 215.65C133.75 214.3 133.1 213.1 132.95 211.75Z" fill="#4F2A4D"/>
</g>
<defs>
<clipPath id="clip0_114_15090">
<rect width="268" height="224.1" fill="white"/>
</clipPath>
</defs>
</svg>
