<svg width="16" height="16" viewBox="0 0 16 16" fill="none" xmlns="http://www.w3.org/2000/svg">
<path d="M8 0.333008C3.58 0.333008 0 3.85301 0 8.19401C0 11.668 2.292 14.614 5.47 15.652C5.87 15.726 6.017 15.483 6.017 15.274C6.017 15.087 6.01 14.593 6.007 13.938C3.782 14.412 3.312 12.883 3.312 12.883C2.948 11.976 2.422 11.733 2.422 11.733C1.697 11.246 2.478 11.255 2.478 11.255C3.281 11.31 3.703 12.065 3.703 12.065C4.416 13.267 5.576 12.92 6.033 12.719C6.105 12.211 6.311 11.864 6.54 11.668C4.763 11.471 2.896 10.795 2.896 7.78301C2.896 6.92501 3.206 6.22401 3.719 5.67401C3.629 5.47601 3.359 4.67601 3.789 3.59301C3.789 3.59301 4.459 3.38201 5.989 4.39901C6.629 4.22401 7.309 4.13801 7.989 4.13401C8.669 4.13801 9.349 4.22401 9.989 4.39901C11.509 3.38201 12.179 3.59301 12.179 3.59301C12.609 4.67601 12.339 5.47501 12.259 5.67401C12.769 6.22401 13.079 6.92501 13.079 7.78301C13.079 10.803 11.209 11.468 9.429 11.661C9.709 11.897 9.969 12.379 9.969 13.115C9.969 14.167 9.959 15.012 9.959 15.268C9.959 15.474 10.099 15.72 10.509 15.641C13.71 14.611 16 11.663 16 8.19501C16 3.85301 12.418 0.333008 8 0.333008Z" fill="#CDCDCD"/>
</svg>
