<svg width="125" height="125" viewBox="0 0 125 125" fill="none" xmlns="http://www.w3.org/2000/svg">
<g clip-path="url(#clip0_517_69)">
<path d="M124.933 66.3785C124.867 61.1389 122.577 57.1923 118.098 54.6406C117.434 54.2663 117.301 53.8581 117.202 53.1776C116.97 50.5919 116.737 48.0061 116.273 45.4544C110.067 11.9079 75.3582 -8.53989 44.1331 3.47018C21.9669 12.0099 9.98784 28.9873 7.79777 53.1436C7.80382 53.4679 7.71553 53.7867 7.54414 54.0594C7.37275 54.3321 7.12605 54.5462 6.83548 54.6746C3.08581 56.818 0.530725 60.0502 0.298444 64.4392C-0.0832053 70.5003 -0.0832053 76.5803 0.298444 82.6414C0.729822 88.6634 5.14314 93.0184 10.8506 94.039C16.5581 95.0597 21.1705 91.4193 21.2368 85.8395C21.3364 77.6741 21.3032 69.5426 21.2368 61.3771C21.2037 57.3964 18.6154 54.2663 14.8326 53.3477L13.8371 53.0415C15.2971 26.8439 37.3969 4.66098 65.3369 6.29408C93.2769 7.92718 110.499 31.3689 111.096 53.1096L110.167 53.3477C106.451 54.2663 103.829 57.3964 103.796 61.275C103.73 69.5313 103.73 77.7761 103.796 86.0097C103.796 88.9356 105.156 91.2492 107.579 92.7802C108.674 93.4947 109.968 93.8349 111.328 94.4133C111.328 96.4547 111.362 98.6321 111.295 100.844C111.129 106.696 106.716 111.833 101.009 112.479C97.7566 112.82 94.4715 112.616 91.1864 112.718C90.4896 112.752 90.1577 112.479 89.8259 111.833C88.2995 108.635 85.8108 106.73 82.3266 106.593C78.8005 106.406 75.2673 106.406 71.7412 106.593C69.441 106.726 67.2822 107.774 65.726 109.516C64.1698 111.258 63.3394 113.555 63.4123 115.916C63.4385 118.325 64.3905 120.627 66.0617 122.321C67.7329 124.016 69.9883 124.966 72.3385 124.966C75.4909 125.034 78.6433 125 81.7957 124.966C82.2966 124.971 82.7968 124.926 83.2889 124.83C86.6404 124.149 88.8636 122.074 90.2241 118.808C93.2769 118.808 96.2966 118.876 99.3162 118.808C108.276 118.672 115.709 112.207 117.036 103.157C117.467 100.265 117.268 97.2372 117.301 94.2772C117.301 93.4607 117.467 93.0184 118.23 92.5761C122.611 89.9903 124.867 86.0777 124.933 80.9062C125 75.7348 125.033 71.2097 124.933 66.3785ZM15.2971 61.8534V85.1591C15.2639 87.3706 14.3348 88.2211 12.1779 88.051C10.5336 87.8706 9.00887 87.0852 7.8862 85.8403C6.76353 84.5953 6.11908 82.9753 6.07228 81.2805C5.97273 76.177 5.97273 71.0736 6.07228 66.0042C6.1122 64.2414 6.80181 62.5596 8.00235 61.2971C9.20289 60.0346 10.8252 59.2852 12.5429 59.1996C14.3348 59.1656 15.2639 60.0502 15.2971 61.8534ZM81.5966 118.876H72.5044C70.6794 118.808 69.4184 117.549 69.3853 115.78C69.3521 114.01 70.613 112.684 72.4713 112.65C75.5241 112.616 78.6101 112.616 81.6629 112.65C83.5212 112.684 84.7489 114.01 84.7158 115.78C84.6826 117.549 83.4548 118.842 81.5966 118.876ZM118.994 79.2051C118.994 79.8175 118.994 80.4639 118.961 81.0763C118.894 84.955 115.908 88.051 112.324 88.085C110.731 88.085 109.769 87.2345 109.736 85.6354V61.7173C109.736 60.0162 110.731 59.1656 112.39 59.1996C115.941 59.2677 118.894 62.3638 118.961 66.1743C119.027 68.658 118.994 71.1757 118.994 73.6934V79.2051Z" fill="white"/>
<path d="M94.4716 42.9369C94.3721 35.1796 88.9633 29.804 81.3976 29.804C68.8102 29.7587 56.2339 29.7587 43.6686 29.804C36.0365 29.804 30.6277 35.2137 30.5282 43.0049C30.4286 51.6467 30.4618 60.2545 30.5282 68.8623C30.5613 73.9997 32.7182 78.0144 37.1316 80.4641C38.9898 81.4507 41.1799 81.825 43.4031 82.5735C43.4031 84.2746 43.3368 86.316 43.4031 88.3234C43.4316 89.4267 43.6333 90.518 44.0004 91.5555C44.3935 92.4862 45.0024 93.3042 45.774 93.9386C46.5457 94.573 47.4568 95.0046 48.4282 95.1957C49.3996 95.3869 50.4018 95.3318 51.3477 95.0354C52.2936 94.739 53.1546 94.2101 53.8558 93.4948C57.3731 90.0245 60.791 86.4521 64.3084 82.9478C64.8429 82.4675 65.5227 82.191 66.233 82.1652C71.2436 82.0972 76.2874 82.1312 81.298 82.1312C88.9301 82.0972 94.4053 76.7216 94.5048 68.9303C94.6044 60.2545 94.6044 51.6127 94.4716 42.9369ZM88.5319 68.2158C88.5319 73.2852 85.8773 76.0071 80.933 76.0071C75.9887 76.0071 70.1486 76.0411 64.7397 75.9731C64.0648 75.9454 63.392 76.068 62.7677 76.3323C62.1433 76.5965 61.5822 76.9963 61.1228 77.5041C57.6718 81.1105 54.1212 84.6489 50.637 88.1873L49.6747 89.1059L49.3761 88.9698V79.8177C49.3429 77.0278 48.3806 76.0411 45.5932 76.0071C44.3965 76.0183 43.2001 75.9615 42.0095 75.837C40.5851 75.608 39.276 74.8979 38.2901 73.8192C37.3042 72.7406 36.6979 71.3552 36.5675 69.883C36.5122 69.3406 36.49 68.7951 36.5011 68.2499C36.479 60.039 36.479 51.8395 36.5011 43.6514C36.5011 38.5819 39.1225 35.8941 44.1 35.8941H80.8998C85.8773 35.8941 88.5319 38.5819 88.5319 43.6514C88.5761 51.8622 88.5761 60.0504 88.5319 68.2158Z" fill="white"/>
<path d="M62.4833 51.9189C63.6542 51.9277 64.7752 52.4062 65.6063 53.252C66.4374 54.0977 66.9125 55.2435 66.9298 56.444C66.9041 57.6417 66.4264 58.7825 65.5971 59.6265C64.7678 60.4704 63.6516 60.9517 62.4833 60.969C61.3322 60.9348 60.2373 60.4507 59.423 59.6157C58.6087 58.7808 58.1365 57.6583 58.1032 56.478C58.0988 55.8838 58.2086 55.2945 58.4264 54.7437C58.6441 54.193 58.9655 53.6917 59.3723 53.2683C59.779 52.845 60.2631 52.5079 60.7969 52.2764C61.3307 52.0448 61.9037 51.9234 62.4833 51.9189Z" fill="white"/>
<path d="M52.3956 56.4439C52.387 57.6412 51.9192 58.787 51.0934 59.6337C50.2676 60.4804 49.1501 60.96 47.9823 60.9689C46.8088 60.951 45.6898 60.4581 44.8693 59.5977C44.0488 58.7373 43.5933 57.5791 43.6022 56.3758C43.6195 55.1934 44.0876 54.0649 44.9062 53.2319C45.7248 52.3989 46.829 51.9276 47.9823 51.9188C48.5631 51.9143 49.139 52.0283 49.6764 52.2541C50.2139 52.4799 50.7022 52.813 51.1129 53.2341C51.5236 53.6552 51.8485 54.1558 52.0687 54.7069C52.2889 55.2579 52.4001 55.8484 52.3956 56.4439Z" fill="white"/>
<path d="M81.4307 56.4099C81.4138 57.6077 80.9444 58.7522 80.1213 59.6025C79.2982 60.4528 78.1855 60.9426 77.0174 60.9689C75.8667 60.9516 74.7673 60.4775 73.9505 59.6463C73.1336 58.8151 72.6629 57.6916 72.6372 56.5119C72.6194 55.3175 73.0629 54.1644 73.871 53.304C74.6791 52.4436 75.7863 51.9456 76.951 51.9188C78.1246 51.9097 79.2542 52.3767 80.0933 53.218C80.9325 54.0593 81.4132 55.2066 81.4307 56.4099Z" fill="white"/>
</g>
<defs>
<clipPath id="clip0_517_69">
<rect width="125" height="125" fill="white"/>
</clipPath>
</defs>
</svg>
