<svg width="16" height="14" viewBox="0 0 16 14" fill="none" xmlns="http://www.w3.org/2000/svg">
<path d="M15.2469 13.9272V8.56724C15.2469 5.69524 13.7139 4.35924 11.6699 4.35924C10.0209 4.35924 9.28193 5.26624 8.86993 5.90324V4.57924H5.76293C5.80393 5.45624 5.76293 13.9272 5.76293 13.9272H8.86993V8.70624C8.86993 8.42724 8.88993 8.14824 8.97293 7.94924C9.19693 7.39124 9.70793 6.81324 10.5659 6.81324C11.6909 6.81324 12.1399 7.67024 12.1399 8.92624V13.9272H15.2469ZM2.48993 3.30324C3.57293 3.30324 4.24793 2.58524 4.24793 1.68724C4.22793 0.770243 3.57293 0.0732422 2.50993 0.0732422C1.44693 0.0732422 0.75293 0.770243 0.75293 1.68724C0.75293 2.58424 1.42793 3.30324 2.46993 3.30324H2.48993ZM4.04293 13.9272V4.57924H0.93693V13.9272H4.04293Z" fill="#CDCDCD"/>
</svg>
