<svg width="303" height="207" viewBox="0 0 303 207" fill="none" xmlns="http://www.w3.org/2000/svg">
<path d="M134.787 40.0186V40.8684C134.71 40.4822 134.607 40.1216 134.504 39.7354C134.581 39.8384 134.684 39.9156 134.787 40.0186Z" fill="white"/>
<path d="M167.028 114.185C166.951 114.185 166.874 114.16 166.822 114.108C166.771 114.057 166.745 113.979 166.745 113.902L166.822 109.73C166.822 109.601 166.925 109.473 167.054 109.447L167.209 109.421C170.685 108.777 174.29 108.134 176.866 105.533C179.93 102.442 179.776 96.8026 179.673 92.6822V92.2444C179.518 87.0683 179.183 81.8921 178.797 76.1493C178.746 75.557 178.694 74.8875 178.617 74.1664C178.256 70.6126 177.793 66.209 179.827 63.5308C179.853 63.505 179.879 63.4793 179.93 63.4535C180.626 63.1187 181.347 62.9385 182.068 62.9385C182.48 62.9385 182.866 62.99 183.278 63.093C183.381 63.1187 183.433 63.196 183.484 63.2733C185.982 70.4324 185.724 78.261 185.493 85.8579C185.39 89.0512 185.287 92.3732 185.415 95.515C185.596 100.125 185.802 105.867 182.531 109.807C179.364 113.619 173.492 113.876 168.78 114.057C168.136 114.134 167.569 114.16 167.028 114.185Z" fill="#00EEF0"/>
<path d="M132.649 149.44C132.597 149.44 132.546 149.414 132.494 149.388C132.391 149.337 132.34 149.208 132.366 149.105C132.7 146.607 134.22 144.753 136.538 144.006C136.563 144.006 136.589 143.98 136.615 143.98C136.666 143.98 136.718 144.006 136.769 144.032C136.847 144.083 136.898 144.161 136.898 144.264L136.924 144.856C136.975 145.757 137.001 146.684 137.053 147.586C137.053 147.74 136.95 147.869 136.795 147.895C135.379 148.049 134.04 148.564 132.778 149.363C132.752 149.414 132.7 149.44 132.649 149.44ZM143.98 155.208C139.113 154.874 134.632 154.101 130.615 152.916C130.512 152.891 130.434 152.813 130.409 152.71C130.383 152.607 130.409 152.504 130.46 152.427C132.366 150.238 134.683 148.951 137.104 148.719C137.336 148.693 137.568 148.693 137.774 148.693C141.739 148.693 143.362 152.17 144.237 154.796C144.263 154.899 144.263 154.977 144.186 155.054C144.186 155.157 144.109 155.208 143.98 155.208C144.006 155.208 144.006 155.208 143.98 155.208ZM147.74 155.389C147.044 155.363 146.323 155.337 145.628 155.286C145.499 155.286 145.371 155.183 145.371 155.054C145.165 153.766 144.675 152.504 143.98 151.397C143.928 151.32 143.928 151.217 143.954 151.14C143.98 151.062 144.057 150.985 144.134 150.959C144.572 150.831 145.01 150.779 145.422 150.779C146.813 150.779 148.023 151.449 148.821 152.659C148.873 152.736 148.873 152.865 148.847 152.942C148.512 153.638 148.229 154.384 148.023 155.183C147.997 155.286 147.869 155.389 147.74 155.389ZM151.371 155.44C150.675 155.44 150.006 155.44 149.311 155.414C149.233 155.414 149.13 155.363 149.079 155.311C149.027 155.234 149.002 155.157 149.027 155.054C150.057 151.346 152.967 149.028 156.624 149.028C157.577 149.028 158.581 149.182 159.56 149.517C159.663 149.543 159.715 149.62 159.74 149.723C159.766 149.826 159.74 149.929 159.663 149.981C158.35 151.371 157.551 153.148 157.345 155.08C157.32 155.234 157.217 155.337 157.062 155.337L153.328 155.389C152.684 155.44 152.015 155.44 151.371 155.44Z" fill="#D1FFFF"/>
<path d="M153.663 148.513C153.612 148.513 153.535 148.487 153.509 148.461C153.432 148.41 153.38 148.332 153.38 148.229C153.354 143.98 153.251 139.68 153.148 135.508C152.942 127.628 152.736 119.464 153.123 111.429C153.329 106.923 153.818 102.365 154.281 97.9352C154.462 96.2356 154.642 94.536 154.796 92.8363C155.466 85.8832 155.698 79.0074 155.827 73.1874C155.981 66.8266 155.878 60.3628 155.775 54.1051C155.672 48.1563 155.595 42.0015 155.698 35.9498L155.749 33.8639C155.827 29.3315 155.93 24.6188 156.187 20.0092L156.213 19.3396C156.445 15.4511 156.651 11.4337 155.569 7.75116C155.543 7.64815 155.569 7.54514 155.646 7.46788C155.698 7.41638 155.775 7.39063 155.852 7.39063C155.878 7.39063 155.93 7.39062 155.955 7.41638C157.99 8.13744 159.973 9.34779 161.698 10.8929C161.724 10.9187 161.75 10.9702 161.775 11.0217C162.265 12.3608 162.419 13.8544 162.548 15.2708L162.599 15.9146C162.908 18.9791 162.96 22.1209 162.96 24.8248C162.986 30.7478 162.934 36.7738 162.805 42.7226C162.651 49.6757 162.239 56.7318 161.827 63.5561C161.543 68.449 161.234 73.5222 161.054 78.5181C160.719 87.0678 160.539 95.7463 160.385 104.142C160.333 107.232 160.256 110.322 160.204 113.438C160.101 117.558 159.998 121.679 159.87 125.799C159.638 133.113 159.406 140.684 159.406 148.152C159.406 148.229 159.355 148.332 159.303 148.384C159.252 148.435 159.2 148.435 159.123 148.435H159.046C158.221 148.203 157.372 148.1 156.548 148.1C155.569 148.1 154.642 148.255 153.741 148.564C153.741 148.513 153.715 148.513 153.663 148.513Z" fill="#00EEF0"/>
<path d="M158.196 155.337C158.118 155.337 158.015 155.286 157.964 155.234C157.912 155.157 157.887 155.054 157.912 154.977C158.917 151.423 161.26 149.079 164.891 148.024C165.561 147.818 166.256 147.74 166.951 147.74C170.145 147.74 173.158 149.697 174.471 152.633C174.497 152.71 174.497 152.788 174.471 152.865C174.445 152.942 174.368 152.994 174.317 153.02C169.398 154.822 163.423 155.208 158.196 155.337C158.221 155.337 158.221 155.337 158.196 155.337ZM169.913 147.122H169.836C169.037 146.916 168.188 146.813 167.312 146.813H166.848C166.771 146.813 166.694 146.787 166.642 146.736C166.591 146.684 166.565 146.607 166.539 146.53C166.539 145.989 166.514 143.774 166.514 143.774C166.514 143.671 166.565 143.594 166.642 143.543C166.694 143.517 166.745 143.491 166.797 143.491C166.848 143.491 166.874 143.491 166.9 143.517C168.394 144.161 169.527 145.294 170.145 146.736C170.196 146.839 170.17 146.942 170.093 147.045C170.067 147.097 169.99 147.122 169.913 147.122Z" fill="#D1FFFF"/>
<path d="M129.431 152.53C129.405 152.53 129.379 152.53 129.354 152.504L129.045 152.401C128.916 152.349 128.761 152.324 128.632 152.272C125.98 151.371 124.255 149.8 124.074 148.1C123.946 147.07 124.306 145.499 126.778 143.928C129.688 142.074 133.448 141.328 136.461 140.735H136.513C136.59 140.735 136.641 140.761 136.693 140.787C136.77 140.838 136.796 140.915 136.796 140.993L136.847 142.744C136.847 142.873 136.744 143.001 136.616 143.027C133.422 143.697 131.156 146.838 131.491 150.16C131.491 150.238 131.465 150.341 131.388 150.392C130.77 150.959 130.203 151.603 129.663 152.324C129.611 152.504 129.534 152.53 129.431 152.53ZM175.939 152.324C176.686 151.989 177.278 151.68 177.793 151.345C179.879 150.083 180.806 148.744 180.575 147.431C179.879 143.491 169.038 141.044 166.874 140.606H166.823C166.746 140.606 166.694 140.632 166.643 140.684C166.565 140.735 166.54 140.812 166.54 140.915V142.641C166.54 142.77 166.617 142.873 166.746 142.924C169.063 143.594 170.737 145.268 171.278 147.56C171.304 147.637 171.355 147.714 171.433 147.74C173.338 148.641 174.755 150.186 175.553 152.195C175.579 152.272 175.63 152.324 175.707 152.349C175.733 152.375 175.785 152.375 175.81 152.375C175.862 152.349 175.888 152.349 175.939 152.324Z" fill="#AD8353"/>
<path d="M167.106 108.983C167.028 108.983 166.977 108.958 166.925 108.906C166.848 108.855 166.822 108.777 166.822 108.674L166.874 105.97C166.874 105.842 166.977 105.713 167.106 105.687C170.35 105.018 173.106 104.193 174.265 101.206C176.222 96.0816 175.964 90.8281 175.475 85.4202L175.321 83.8235C174.909 79.2396 174.497 74.939 175.372 70.4066C175.784 68.2435 176.737 66.2605 178.025 64.8957C178.076 64.8442 178.153 64.7927 178.231 64.7927C178.282 64.7927 178.334 64.8184 178.385 64.8442C178.514 64.9214 178.565 65.0502 178.514 65.179C177.896 67.1104 177.973 69.3508 177.999 71.1792C178.102 75.4026 178.385 79.7804 178.643 83.9265C178.72 84.9309 178.797 85.9352 178.874 86.9653C179.286 91.9097 179.698 97.0344 178.385 101.85C176.943 107.155 171.278 108.185 167.157 108.958C167.157 108.983 167.131 108.983 167.106 108.983ZM160.771 148.951C160.719 148.951 160.693 148.951 160.668 148.925C160.462 148.848 160.256 148.745 160.05 148.667C159.947 148.616 159.869 148.513 159.869 148.384C159.895 140.736 160.127 132.959 160.359 125.465C160.487 121.422 160.616 117.379 160.693 113.336C160.771 110.116 160.822 106.923 160.899 103.704C161.08 94.7682 161.26 85.4974 161.646 76.4069C161.852 71.6943 162.11 66.8786 162.393 62.2432C162.805 55.1614 163.217 47.8477 163.372 40.6371C163.5 34.3021 163.526 28.4564 163.475 22.7651V21.0655C163.475 18.3873 163.475 15.3743 162.882 12.7218C162.857 12.593 162.908 12.4643 163.037 12.387C163.088 12.3613 163.114 12.3613 163.166 12.3613C163.243 12.3613 163.32 12.387 163.372 12.4643C163.784 12.9278 164.17 13.4171 164.479 13.9064C167.595 18.4388 167.827 24.027 168.084 29.4092L168.11 30.0272C168.419 36.6456 167.955 43.4184 167.569 49.3671C166.694 62.4492 166.282 75.3511 165.973 86.2442C165.432 105.378 164.942 125.8 165.148 146.479L165.2 146.659C165.226 146.736 165.2 146.813 165.174 146.891C165.123 146.968 165.071 146.994 164.994 147.019C163.552 147.354 162.161 147.972 161.002 148.848C160.874 148.925 160.822 148.951 160.771 148.951ZM149.285 151.912C149.208 151.912 149.131 151.887 149.079 151.809C148.101 150.728 146.916 150.135 145.654 150.135C145.5 150.135 145.397 150.032 145.371 149.878C143.8 138.907 144.907 127.679 145.963 116.812C147.302 103.266 147.895 92.7595 147.92 82.7419C147.946 76.7417 147.869 70.6127 147.817 64.6897C147.611 45.7361 147.405 26.1129 149.774 7.00481C149.8 6.87605 149.877 6.77304 150.006 6.74729C150.573 6.64428 151.165 6.59277 151.757 6.59277C152.736 6.59277 153.74 6.72153 154.77 7.00481C154.873 7.03056 154.951 7.10782 154.976 7.18507C156.316 11.0737 156.058 15.3485 155.8 19.4946L155.723 20.7822C155.491 25.1086 155.414 29.4865 155.337 33.7613L155.285 36.9288C155.157 42.9806 155.26 49.1353 155.363 55.0583C155.466 61.3161 155.569 67.7799 155.414 74.1665C155.26 81.4543 154.59 88.7937 153.946 95.9013C153.483 101 153.019 106.254 152.71 111.456C152.272 119.49 152.478 127.679 152.71 135.585C152.839 139.86 152.942 144.29 152.968 148.642C152.968 148.745 152.916 148.848 152.813 148.899C151.5 149.543 150.418 150.522 149.543 151.783C149.465 151.861 149.388 151.912 149.285 151.912ZM142.487 91.3689C142.461 91.3689 142.409 91.3689 142.384 91.3432C140.092 90.5191 137.594 90.3646 135.199 90.2358C132.855 90.0813 130.435 89.9525 128.143 89.18C121.524 87.0168 122.374 77.2052 122.863 71.3337L122.966 70.2006C123.456 64.0716 123.971 57.7366 124.306 51.2985C124.357 50.423 124.409 49.5216 124.46 48.6203C124.743 44.1909 125.027 39.6071 124.228 35.2807C124.203 35.1777 124.254 35.0489 124.357 34.9974C124.409 34.9717 124.46 34.9459 124.512 34.9459C124.563 34.9459 124.615 34.9717 124.666 34.9974C129.482 38.2679 129.662 47.41 129.765 52.3029V52.5089C129.842 55.7022 129.559 58.9984 129.327 62.1659C128.915 67.2134 128.503 72.4668 129.404 77.4627C130.28 82.2269 132.933 84.7763 137.774 85.4717C137.928 85.5232 138.006 85.5489 138.134 85.5489H138.263C138.856 85.6262 139.474 85.6519 140.117 85.6777C141.714 86.0382 142.615 87.8924 142.744 91.0599C142.744 91.1629 142.693 91.2401 142.615 91.3174C142.615 91.3432 142.564 91.3689 142.487 91.3689Z" fill="#00EEF0"/>
<path d="M141.637 97.9096C138.804 97.9096 135.971 97.2658 133.241 96.622L132.417 96.4418C131.619 96.2615 130.846 96.107 130.048 95.9267C127.885 95.4632 125.644 94.9996 123.533 94.2271C117.146 91.8836 117.121 84.6215 117.121 78.7758V77.3079C117.095 73.6511 117.224 69.917 117.352 66.3117C117.507 62.0369 117.661 57.6075 117.533 53.2811C117.43 49.5471 117.507 46.1993 117.764 43.0318C118.048 39.7613 118.511 36.4135 120.185 33.9413C120.237 33.864 120.314 33.8125 120.417 33.8125H120.649C121.112 33.8125 121.576 33.864 122.039 33.9413C122.554 34.0443 123.044 34.173 123.507 34.379C123.584 34.4048 123.662 34.4821 123.687 34.5851C124.743 39.3235 124.408 44.3966 124.048 49.2895C123.945 50.6287 123.868 51.942 123.79 53.2296C123.636 56.6547 123.327 60.1055 123.044 63.4532C122.734 67.007 122.425 70.6638 122.271 74.2949C122.091 78.544 121.756 86.4499 127.009 89.2054C129.533 90.5188 132.443 90.6475 135.25 90.7763C137.696 90.8793 140.246 91.0081 142.564 91.8836C142.692 91.9351 142.77 92.0381 142.77 92.1669C142.77 93.8923 142.564 95.8495 142.203 97.6779C142.177 97.8066 142.049 97.9096 141.92 97.9096H141.637Z" fill="#00EEF0"/>
<path d="M136.77 102.056C133.963 102.056 130.667 101.541 129.431 101.335L128.298 101.154C125.542 100.717 122.71 100.279 120.083 99.12C111.533 95.3345 111.636 81.5828 111.688 73.3936V71.6682C111.688 65.2044 112.125 58.6119 112.537 52.2511C112.64 50.7832 112.743 49.3153 112.821 47.8475C113.052 44.1392 113.593 35.4349 118.975 34.0186H119.053C119.13 34.0186 119.233 34.0701 119.285 34.1216C119.362 34.2246 119.362 34.3276 119.31 34.4306C116.838 38.7312 116.941 44.886 116.993 49.8304L117.018 51.2468C117.044 55.5989 116.941 60.0025 116.838 64.2774C116.709 69.1445 116.581 74.1662 116.658 79.0849V79.5226C116.761 85.1366 116.864 91.4974 122.323 94.2271C124.409 95.283 126.804 95.7465 129.122 96.21C129.92 96.3646 130.744 96.5191 131.517 96.6993L132.624 96.9569C135.56 97.6522 138.573 98.3475 141.586 98.3475H141.689C141.766 98.3475 141.869 98.399 141.921 98.4505C141.972 98.5277 141.998 98.605 141.972 98.708C141.818 99.326 141.586 100.176 141.328 100.691C140.916 101.618 139.397 102.056 136.77 102.056Z" fill="#00EEF0"/>
<path d="M143.543 150.599C143.466 150.599 143.389 150.573 143.311 150.496C142.075 149.002 140.504 148.126 138.779 147.92C138.65 147.895 138.521 147.792 138.521 147.663C137.672 133.551 138.032 119.155 138.341 105.249L138.393 103.601C138.393 103.472 138.496 103.343 138.65 103.318C141.792 102.828 143.414 100.974 143.878 97.3174C144.135 95.283 145.191 85.0336 140.53 84.2868L140.324 84.261C139.938 84.2353 139.603 84.2353 139.268 84.2095C139.114 84.2095 138.985 84.055 138.985 83.9005C139.191 78.2093 139.5 72.4408 139.809 66.8526C140.324 57.0925 140.891 46.9976 140.916 37.0058C140.942 32.1901 140.994 26.9367 141.122 20.9364C141.2 17.0221 141.586 12.5412 145.217 9.19346C146.324 8.18912 147.56 7.44231 148.925 7.03027H149.003C149.08 7.03027 149.131 7.05603 149.183 7.10753C149.26 7.15903 149.286 7.26204 149.286 7.36505C146.917 26.6277 147.148 46.3796 147.354 65.5134C147.406 71.1789 147.483 77.0504 147.483 82.7932C147.483 95.3602 146.453 107.464 145.449 117.687C144.316 129.25 143.492 139.68 144.934 149.955C144.959 150.109 144.856 150.238 144.702 150.29C144.367 150.367 144.032 150.47 143.646 150.624C143.62 150.599 143.569 150.599 143.543 150.599Z" fill="#00EEF0"/>
<path d="M149.724 192.137C134.916 192.137 125.825 188.789 122.709 182.171C122.684 182.145 122.658 182.068 122.632 182.016C122.297 178.514 121.963 175.038 121.602 171.535L121.216 167.724C120.83 163.887 120.418 160.024 120.031 156.187C120.031 156.058 120.083 155.955 120.212 155.904C120.237 155.878 120.289 155.878 120.315 155.878C120.392 155.878 120.469 155.904 120.521 155.981C127.087 163.501 143.878 163.655 151.938 163.732H153.844C169.166 163.732 179.235 161.131 183.742 155.981C183.794 155.929 183.871 155.878 183.948 155.878C184 155.878 184.025 155.878 184.051 155.904C184.154 155.955 184.231 156.084 184.231 156.187C183.845 160.076 183.433 163.964 183.047 167.827L182.635 171.87C182.429 173.956 182.248 176.068 182.068 178.154L181.759 181.707C181.759 181.733 181.733 181.785 181.733 181.81C181.733 181.836 181.682 181.888 181.682 181.888C177.665 191.21 163.166 191.725 154.513 192.008L154.076 192.034C152.505 192.111 151.063 192.137 149.724 192.137Z" fill="#FFE40E"/>
<path d="M152.015 201.562C151.397 201.562 150.805 201.562 150.238 201.536C140.555 201.407 124.151 199.347 123.095 187.089L123.018 186.265C123.018 186.136 123.069 186.033 123.198 185.982C123.224 185.956 123.275 185.956 123.301 185.956C123.378 185.956 123.456 185.982 123.507 186.059C129.92 193.295 143.8 193.45 152.092 193.553H153.818C167.518 193.553 176.325 191.106 180.78 186.033C180.832 185.982 180.909 185.93 180.986 185.93C181.038 185.93 181.063 185.93 181.115 185.956C181.218 186.008 181.295 186.136 181.295 186.265L181.218 186.909L181.063 188.145C179.879 197.055 170.093 201.562 152.015 201.562ZM150.186 162.29C131.336 162.29 120.984 158.375 119.49 150.65L119.413 149.955C118.434 139.911 130.048 137.645 136.28 136.409H136.332C136.409 136.409 136.461 136.435 136.512 136.486C136.589 136.538 136.615 136.615 136.615 136.692C136.615 137.181 136.692 139.01 136.692 139.01C136.692 139.139 136.589 139.267 136.461 139.293C128.58 140.89 123.533 143.259 122.245 145.989C121.73 147.07 121.808 148.178 122.426 149.388C123.997 152.401 127.422 153.586 131.078 154.616C137.594 156.47 144.779 156.805 151.577 156.882H152.71C158.247 156.882 164.093 156.341 170.067 155.285C174.522 154.487 178.977 153.302 181.553 149.955C182.505 148.718 182.763 147.585 182.325 146.452C180.574 141.817 168.161 139.345 166.745 139.087C166.616 139.061 166.488 138.933 166.488 138.804V136.46C166.488 136.383 166.513 136.306 166.591 136.229C166.642 136.177 166.719 136.151 166.771 136.151H166.822C173.003 137.259 185.853 139.525 184.952 149.156L184.772 150.856C182.299 161.981 161.672 162.161 152.865 162.238H152.092C151.551 162.264 150.908 162.29 150.186 162.29Z" fill="#FDC435"/>
<path d="M166.926 119.361C166.849 119.361 166.771 119.335 166.72 119.284C166.668 119.232 166.643 119.155 166.643 119.078L166.72 114.906C166.72 114.751 166.849 114.623 167.003 114.623C167.544 114.597 168.11 114.571 168.677 114.545C173.003 114.339 177.896 114.133 181.347 111.455C185.158 108.494 185.776 103.678 185.854 98.9139C185.905 95.9524 185.879 92.9394 185.854 90.0294C185.828 87.1194 185.802 84.1064 185.854 81.1449C185.957 75.8657 185.905 69.7367 184.103 64.0197C184.077 63.9167 184.103 63.7879 184.206 63.7107C184.257 63.6592 184.334 63.6592 184.386 63.6592C184.437 63.6592 184.489 63.6592 184.54 63.7107C185.519 64.2772 186.446 65.1528 187.322 66.3374C190.026 70.02 190.051 75.5824 190.103 80.0376V80.8359C190.154 85.3683 190 89.9779 189.845 94.433L189.82 95.4374C189.614 101.515 189.356 109.859 184.618 114.545C180.446 118.614 173.338 119.258 166.926 119.361Z" fill="#00EEF0"/>
<path d="M184.592 114.494C180.446 118.589 173.338 119.259 166.926 119.362C166.848 119.362 166.771 119.336 166.72 119.284C166.668 119.233 166.642 119.156 166.642 119.078L166.72 114.906C166.72 114.752 166.848 114.623 167.003 114.623C167.544 114.597 168.11 114.572 168.677 114.546C169.63 114.494 170.608 114.443 171.587 114.391C178.308 118.125 184.643 112.486 186.626 109.499C187.502 108.185 188.635 103.73 189.665 99.0689C189.356 104.503 188.454 110.709 184.592 114.494ZM167.029 114.185C167.595 114.16 168.136 114.134 168.703 114.108C173.415 113.902 179.287 113.67 182.454 109.859C185.725 105.919 185.519 100.176 185.338 95.5666C185.313 94.6395 185.287 93.6867 185.287 92.7081C185.029 97.3435 184.334 103.06 182.609 104.786C179.879 107.516 175.733 112.022 166.771 110.142L166.694 113.902C166.694 113.979 166.72 114.057 166.771 114.108C166.874 114.16 166.951 114.185 167.029 114.185ZM175.939 103.55C173.492 105.636 169.681 106.846 166.848 107.438L166.823 108.674C166.823 108.752 166.848 108.855 166.926 108.906C166.977 108.958 167.054 108.983 167.106 108.983H167.157C171.304 108.211 176.969 107.181 178.385 101.876C179.415 98.0646 179.364 94.073 179.106 90.1071C179.003 94.2017 178.411 101.412 175.939 103.55ZM141.38 100.691C141.405 100.64 141.431 100.563 141.457 100.485C137.208 100.434 126.958 98.5281 120.057 96.2104C114.262 94.279 112.305 79.8063 111.713 73.2652V73.394C111.662 81.6089 111.559 95.3348 120.108 99.1204C122.735 100.279 125.568 100.717 128.323 101.155L129.456 101.335C130.692 101.541 133.989 102.056 136.796 102.056C139.397 102.056 140.916 101.618 141.38 100.691ZM132.444 96.4422L133.268 96.6224C135.997 97.2405 138.83 97.91 141.663 97.91H141.972C142.101 97.91 142.229 97.807 142.255 97.6783C142.41 96.9315 142.513 96.1846 142.59 95.4121C136.976 96.8027 130.486 93.4807 124.306 91.7038C118.563 90.0556 117.404 75.1709 117.198 70.9733C117.147 73.085 117.095 75.1966 117.121 77.3083V78.7762C117.121 84.6219 117.147 91.9098 123.533 94.2275C125.645 95 127.885 95.4636 130.049 95.9271C130.847 96.0816 131.645 96.2619 132.444 96.4422ZM142.487 91.369C142.538 91.369 142.616 91.3432 142.667 91.3175C142.744 91.266 142.796 91.163 142.796 91.06C142.744 90.0041 142.616 89.1286 142.41 88.356C141.431 88.6393 140.143 88.6908 138.985 88.15C136.847 87.1199 134.401 87.841 128.478 86.1671C123.482 84.7507 123.25 70.7158 123.301 66.3379C123.198 67.6255 123.095 68.9389 122.992 70.2265L122.889 71.3596C122.374 77.2311 121.55 87.0169 128.169 89.2058C130.461 89.9526 132.881 90.1071 135.225 90.2617C137.62 90.4162 140.118 90.5707 142.41 91.369H142.487ZM160.05 148.668C160.256 148.745 160.462 148.822 160.668 148.925C160.694 148.951 160.745 148.951 160.771 148.951C160.822 148.951 160.9 148.925 160.951 148.899C162.11 148.024 163.501 147.406 164.943 147.071C165.02 147.045 165.072 147.019 165.123 146.942C165.175 146.865 165.175 146.788 165.149 146.71L165.097 146.53C165.02 138.521 165.046 130.538 165.123 122.658C164.196 129.353 162.599 136.59 159.998 137.98C159.921 141.457 159.87 144.933 159.844 148.41C159.844 148.513 159.921 148.616 160.05 148.668ZM153.2 137.208C153.277 140.839 153.38 144.573 153.38 148.23C153.38 148.333 153.432 148.41 153.509 148.462C153.56 148.487 153.612 148.513 153.663 148.513C153.689 148.513 153.715 148.513 153.766 148.487C154.642 148.178 155.595 148.024 156.573 148.024C157.397 148.024 158.221 148.127 159.071 148.359H159.149C159.2 148.359 159.277 148.333 159.329 148.307C159.406 148.256 159.432 148.178 159.432 148.075C159.458 140.633 159.689 133.062 159.895 125.722C160.024 121.602 160.153 117.482 160.23 113.361C160.307 110.271 160.359 107.181 160.41 104.065V103.679C159.689 110.941 158.376 124.564 158.273 126.083C158.196 127.731 156.908 135.997 153.2 137.208ZM145.371 149.878C145.397 150.007 145.5 150.135 145.654 150.135C146.916 150.161 148.075 150.728 149.079 151.809C149.131 151.861 149.208 151.912 149.285 151.912H149.311C149.388 151.912 149.491 151.861 149.517 151.784C150.367 150.522 151.474 149.569 152.788 148.899C152.891 148.848 152.942 148.745 152.942 148.642C152.916 144.29 152.813 139.86 152.685 135.585C152.479 127.654 152.247 119.465 152.685 111.456C152.762 110.014 152.865 108.546 152.968 107.104C152.092 111.739 151.037 119.027 151.191 126.469C151.423 137.028 147.586 143.517 144.805 144.573C144.933 146.35 145.114 148.127 145.371 149.878ZM138.521 147.637C138.521 147.766 138.65 147.895 138.779 147.895C140.504 148.101 142.075 148.977 143.311 150.47C143.362 150.547 143.44 150.573 143.543 150.573C143.594 150.573 143.62 150.573 143.646 150.547C144.032 150.393 144.367 150.264 144.702 150.213C144.856 150.187 144.959 150.032 144.933 149.878C143.671 140.916 144.135 131.826 145.036 121.963C143.491 129.07 141.096 137.285 138.16 138.341C138.238 141.483 138.341 144.573 138.521 147.637Z" fill="#00B2B6"/>
<path d="M179.029 182.608C173.827 184.926 168.367 186.651 162.753 187.656C157.062 188.66 151.242 188.969 145.474 188.608C142.589 188.428 139.705 188.068 136.847 187.527C133.937 186.986 130.924 186.368 128.271 185.029C125.822 183.778 123.777 181.858 122.374 179.492C122.451 180.342 122.554 181.166 122.632 182.016C122.632 182.042 122.683 182.119 122.709 182.17C125.825 188.789 134.915 192.136 149.723 192.136C151.062 192.136 152.504 192.111 154.075 192.059L154.513 192.033C163.165 191.75 177.664 191.235 181.681 181.913C181.707 181.887 181.733 181.836 181.733 181.836C181.759 181.81 181.759 181.758 181.759 181.733C181.784 181.578 181.784 181.449 181.784 181.295C180.909 181.758 179.982 182.196 179.029 182.608Z" fill="#FAB301"/>
<path d="M180.497 190.54C180.394 190.669 180.291 190.824 180.239 191.03C180.213 191.081 180.213 191.133 180.188 191.158C179.698 191.545 179.235 191.931 178.745 192.214C176.84 193.399 174.805 194.3 172.694 195.047C168.342 196.566 163.758 197.287 159.174 197.854C149.285 199.039 138.134 199.94 129.43 194.171C127.421 192.832 125.567 191.158 124.125 189.227C123.765 188.738 123.456 188.248 123.146 187.733C124.666 199.476 140.684 201.485 150.212 201.614C150.779 201.614 151.371 201.64 151.989 201.64C168.419 201.562 177.947 197.854 180.497 190.54Z" fill="#F1A12B"/>
<path d="M184.282 156.212C184.282 156.084 184.231 155.981 184.102 155.929C184.076 155.903 184.025 155.903 183.999 155.903C183.922 155.903 183.844 155.929 183.793 156.006C179.261 161.157 169.217 163.758 153.895 163.758H151.989C143.929 163.68 127.138 163.526 120.571 156.006C120.52 155.955 120.443 155.903 120.365 155.903C120.314 155.903 120.288 155.903 120.262 155.929C120.159 155.981 120.082 156.109 120.082 156.212C120.185 157.345 120.314 158.479 120.443 159.612C120.726 159.843 120.983 160.075 121.241 160.255C123.224 161.801 125.413 162.908 127.73 163.835C132.907 165.869 138.572 166.41 144.109 166.359C150.006 166.307 155.929 165.715 161.775 164.942C167.131 164.221 172.591 163.449 177.793 161.955C179.801 161.389 181.964 160.616 183.973 159.586C184.05 158.427 184.179 157.32 184.282 156.212Z" fill="#FBF686"/>
<path d="M181.244 186.935L181.321 186.291C181.347 186.162 181.269 186.033 181.141 185.982C181.115 185.956 181.063 185.956 181.012 185.956C180.935 185.956 180.857 185.982 180.806 186.059C176.351 191.106 167.518 193.579 153.843 193.579H152.118C144.804 193.501 133.164 193.347 126.108 188.351C126.083 189.227 126.598 190.179 127.138 190.772C128.272 192.059 130.048 192.832 131.645 193.321C136.306 194.789 141.199 195.227 146.066 195.33C150.856 195.433 155.672 195.278 160.462 194.995C165.149 194.738 169.81 194.094 174.136 192.214C176.145 191.338 177.999 190.179 179.647 188.737C180.214 188.248 180.754 187.707 181.192 187.115C181.244 187.038 181.244 186.986 181.244 186.935Z" fill="#FEE434"/>
<path d="M127.808 47.8216C128.092 42.5167 124.821 35.3576 124.821 35.3576L125.182 35.3833C129.534 38.9114 129.714 47.5899 129.817 52.3025V52.5085C129.894 55.7018 129.611 58.9981 129.379 62.1656C129.096 65.8224 128.787 69.5822 128.993 73.2648C128.143 67.0327 127.551 52.6373 127.808 47.8216ZM122.297 74.2691C122.452 70.6638 122.761 66.9812 123.07 63.4274C123.353 60.0797 123.636 56.6031 123.817 53.2038C123.868 51.9162 123.971 50.6029 124.074 49.2638C124.409 44.3708 124.77 39.2977 123.714 34.5593C123.688 34.4563 123.636 34.4048 123.533 34.3532C123.044 34.1472 122.555 34.0185 122.066 33.9155H122.04C122.478 35.1258 123.482 38.6281 123.018 43.0832C122.452 48.6972 121.757 67.1358 121.267 71.4879C120.855 75.2992 120.726 81.9948 123.611 85.394C121.963 81.8917 122.169 77.2048 122.297 74.2691ZM116.117 41.1518C115.628 46.0705 115.447 63.5562 115.55 67.9083C115.653 72.0802 114.237 83.4884 117.816 88.8191C116.838 85.9863 116.761 82.6128 116.709 79.471V79.0332C116.632 74.0888 116.761 69.0672 116.889 64.2258C116.992 59.9509 117.121 55.5215 117.07 51.1952L117.044 49.7788C116.967 44.8344 116.889 38.6796 119.362 34.379C119.413 34.276 119.413 34.1472 119.336 34.07C119.336 34.0957 116.606 36.2332 116.117 41.1518ZM177.098 90.5445C176.892 87.1452 176.274 78.75 176.068 75.8657C175.888 73.1103 176.918 66.8267 177.021 66.2602C176.248 67.4705 175.682 68.8869 175.398 70.432C174.523 74.9644 174.935 79.265 175.347 83.8489L175.501 85.4455C175.991 90.8535 176.248 96.1069 174.291 101.232C174.085 101.772 173.802 102.21 173.518 102.622C176.222 100.588 177.278 93.7377 177.098 90.5445ZM179.879 63.4789C179.828 63.5047 179.802 63.5305 179.776 63.5562C177.742 66.2344 178.205 70.638 178.566 74.1918C178.643 74.9129 178.695 75.5567 178.746 76.1748C179.158 81.9175 179.493 87.0937 179.622 92.2699V92.7076C179.725 95.8752 179.828 99.944 178.463 103.06C182.12 99.429 180.781 85.4455 180.6 82.7158C180.42 79.8058 179.57 71.1788 179.57 68.7324C179.57 67.1873 180.394 64.6893 181.012 63.0927C180.652 63.1699 180.265 63.2987 179.879 63.4789ZM184.103 63.994C185.905 69.711 185.957 75.8142 185.854 81.1192C185.802 84.0807 185.828 87.0937 185.854 90.0037C185.879 92.9137 185.905 95.9267 185.854 98.8882C185.802 102.339 185.442 105.815 183.819 108.622C186.961 106.459 186.781 95.4631 186.832 90.5445C186.884 85.5228 187.09 77.7199 186.704 72.1317C186.317 66.5177 184.206 63.685 184.206 63.685C184.103 63.7622 184.051 63.891 184.103 63.994ZM141.122 20.9364C140.993 26.9366 140.942 32.1901 140.916 37.0057C140.89 46.9976 140.35 57.0924 139.809 66.8525C139.603 70.5608 139.397 74.3464 139.242 78.1319C139.294 78.5182 139.371 78.5955 139.397 78.3637C139.886 75.7627 141.921 55.7533 141.921 49.1865C141.921 42.6197 142.41 26.1126 142.873 18.4642C143.363 10.8415 148.925 7.0302 148.925 7.0302C147.56 7.44223 146.324 8.16329 145.217 9.19338C141.586 12.5412 141.199 17.022 141.122 20.9364ZM151.758 6.61816C151.166 6.61816 150.573 6.66967 150.007 6.77268C149.878 6.79843 149.775 6.90144 149.775 7.0302C147.406 26.1383 147.612 45.7615 147.818 64.7151C147.818 65.2301 147.818 65.7451 147.844 66.2602C148.436 59.7964 149.363 47.9761 149.363 41.9244C149.363 34.585 149.363 24.6447 149.26 20.9621C149.157 17.3053 150.135 11.8716 150.702 9.86294C151.269 7.82852 154.771 7.0302 154.771 7.0302C153.741 6.74692 152.711 6.61816 151.758 6.61816ZM155.878 7.39073C155.801 7.39073 155.724 7.41648 155.672 7.46799C155.595 7.54524 155.569 7.64825 155.595 7.75126C156.677 11.4338 156.445 15.4512 156.239 19.3397L156.213 20.0093C155.955 24.6189 155.878 29.3316 155.775 33.864L155.724 35.9499C155.595 42.0016 155.698 48.1564 155.801 54.1052C155.904 60.3629 156.007 66.8267 155.852 73.1875C155.749 78.1062 155.543 83.7716 155.106 89.5916C155.878 86.1151 156.986 80.3981 156.986 76.2005C156.986 69.7367 157.166 55.5215 156.986 47.8989C156.78 40.2762 157.475 25.3915 157.552 18.4384C157.629 13.2365 157.423 9.50241 157.32 7.93152C156.883 7.72551 156.419 7.51949 155.981 7.36498C155.93 7.39073 155.904 7.39073 155.878 7.39073ZM163.424 21.0909V22.7905C163.475 28.4818 163.449 34.3275 163.321 40.6625C163.166 47.8731 162.754 55.1868 162.342 62.2686C162.084 66.904 161.801 71.6939 161.595 76.4323C161.518 78.3122 161.441 80.1921 161.389 82.0978C162.934 73.5738 164.299 52.148 164.402 47.8474C164.505 43.109 165.561 28.25 164.994 21.3742C164.402 14.5241 162.986 12.4382 162.986 12.4382C162.857 12.4897 162.806 12.6184 162.831 12.7729C163.424 15.3997 163.424 18.4127 163.424 21.0909Z" fill="#8BFCFC"/>
<path d="M147.766 172.925C155.002 178.024 170.453 176.145 176.608 170.17C176.943 169.861 176.659 169.346 176.247 169.32C171.406 169.011 167.054 170.453 162.264 171.097C157.5 171.741 152.504 171.303 147.817 172.462C147.611 172.513 147.611 172.797 147.766 172.925ZM140.632 172.977C141.534 174.548 144.547 174.677 145.268 172.9C145.602 172.101 144.315 171.432 143.8 171.252C142.873 170.968 141.534 171.2 140.787 171.818C140.452 172.076 140.426 172.642 140.632 172.977Z" fill="#FBF686"/>
<path d="M166.874 140.606H166.822C166.745 140.606 166.694 140.632 166.642 140.684C166.565 140.735 166.539 140.812 166.539 140.915V142.641C166.539 142.77 166.616 142.873 166.745 142.924C168.033 143.285 169.114 143.98 169.913 144.907C172.076 145.422 174.213 146.092 176.222 147.07C177.819 147.843 178.926 148.744 179.75 149.8C180.42 149.027 180.703 148.255 180.574 147.457C179.879 143.491 169.037 141.044 166.874 140.606ZM136.667 140.838C136.615 140.787 136.564 140.787 136.486 140.787H136.435C133.422 141.379 129.662 142.126 126.752 143.98C124.306 145.551 123.919 147.122 124.048 148.152C124.074 148.332 124.125 148.512 124.177 148.693C125.516 147.019 127.241 145.654 129.971 144.675C132.16 143.877 134.452 143.362 136.795 143.001C136.821 142.95 136.847 142.898 136.847 142.821L136.795 141.07C136.77 140.967 136.718 140.89 136.667 140.838Z" fill="#895725"/>
<path d="M162.161 151.5C162.135 151.552 162.187 151.603 162.238 151.578C163.114 151.088 163.938 150.625 164.916 150.367C165.895 150.11 166.925 150.238 167.904 149.981C167.981 149.955 168.007 149.852 167.929 149.801C166.384 148.822 162.934 149.852 162.161 151.5ZM168.522 149.852C168.47 149.904 168.444 149.981 168.496 150.032C168.779 150.264 169.243 150.496 169.603 150.316C169.655 150.29 169.681 150.213 169.655 150.161C169.603 149.672 168.882 149.595 168.522 149.852ZM138.572 150.393C138.52 150.393 138.52 150.47 138.546 150.496C139.139 150.753 139.705 151.114 140.194 151.552C140.658 151.964 141.044 152.479 141.508 152.865C141.559 152.917 141.662 152.891 141.662 152.814C141.508 151.526 139.885 150.084 138.572 150.393ZM151.474 153.535C152.169 152.968 152.813 152.376 153.585 151.964C154.384 151.552 155.259 151.526 156.109 151.32C156.212 151.294 156.238 151.14 156.135 151.088C154.487 150.187 151.834 151.784 151.371 153.483C151.397 153.56 151.448 153.586 151.474 153.535Z" fill="#68182B"/>
<path d="M193.476 89.7202C192.986 90.261 192.317 90.57 191.673 90.879C191.699 88.8961 191.699 86.9132 191.776 84.956C191.956 79.4708 191.931 73.9083 190.308 68.6034C190.231 68.3974 190.179 68.1914 190.102 67.9853C190.54 67.5733 190.617 66.7235 190.463 66.1827C190.411 65.9767 190.128 66.0024 190.076 66.1827C189.973 66.4402 189.793 66.6462 189.613 66.8523C186.729 61.2383 179.312 58.7918 175.733 64.5603C175.681 64.5088 175.604 64.4573 175.552 64.4058C175.346 64.277 175.14 64.174 174.96 64.0453C174.754 63.8908 174.522 63.7362 174.316 63.5817C174.239 63.5302 174.11 63.5817 174.11 63.659C173.956 64.4058 174.522 65.4359 175.269 65.4874C175.166 65.6677 175.089 65.8737 175.011 66.0797C173.08 70.7666 172.977 75.6595 173.363 80.6297C173.647 84.4152 174.136 88.175 174.213 91.9864C174.265 94.5101 173.904 96.9823 173.209 99.403C172.256 102.802 169.887 103.42 167.312 103.935L167.621 91.7546C167.981 91.6773 168.367 91.5228 168.445 91.1365C168.47 91.085 168.445 91.0078 168.367 90.982C168.136 90.8533 167.878 90.879 167.646 90.9048C167.646 90.57 167.672 90.2095 167.672 89.8747C168.316 89.5142 168.599 88.8961 168.805 88.2008C168.831 88.072 168.676 87.969 168.573 88.072C168.342 88.3553 168.007 88.5098 167.698 88.6643C167.801 85.1105 167.904 81.5825 167.981 78.0287C168.161 71.3846 168.573 64.7663 168.985 58.1223C169.166 58.045 169.346 57.9163 169.475 57.8647C170.067 57.53 170.556 57.0922 171.046 56.6286C171.123 56.5514 171.046 56.3969 170.943 56.4484C170.247 56.6544 169.655 56.9634 169.037 57.324C169.5 49.5468 169.964 41.7439 169.99 33.9667C170.016 29.7176 169.913 25.2883 169.037 21.1422C169.526 20.7559 169.784 19.9576 169.681 19.4425C169.655 19.3395 169.552 19.3395 169.475 19.391C169.217 19.597 169.037 19.9061 168.857 20.1893C168.857 20.1893 168.857 20.2151 168.831 20.2151C167.775 15.76 165.741 11.6396 161.878 8.49785C157.474 4.89254 151.371 4.01697 146.246 6.46342C138.727 10.043 139.448 19.5713 139.345 26.4471C139.293 29.1511 139.267 31.8808 139.242 34.5848C138.804 34.3015 138.34 34.0182 137.877 33.7865C137.8 33.7607 137.697 33.838 137.748 33.9152C138.057 34.3788 138.521 34.7651 138.907 35.1771L139.242 35.5119V36.851C138.778 36.6965 138.315 36.5935 137.877 36.5162C137.722 36.4904 137.619 36.6707 137.774 36.7737C138.186 37.057 138.701 37.2888 139.242 37.3918C139.19 44.2161 139.139 51.0404 138.881 57.8647C138.752 61.4185 138.521 64.9981 138.289 68.5519C138.237 68.5261 138.212 68.5004 138.16 68.4746C137.722 68.2171 137.491 67.9081 137.156 67.5476C137.104 67.4961 136.976 67.5218 136.976 67.6248C137.079 68.3716 137.568 69.0927 138.212 69.5562C137.877 74.2431 137.542 78.9558 137.336 83.6427C134.735 83.1534 132.598 81.9173 131.568 78.8013C130.486 75.5822 130.821 71.4876 130.949 68.1399C131.078 64.7921 131.336 61.4958 131.516 58.1738C131.568 58.0965 131.593 58.045 131.645 57.9678C131.902 57.5557 132.211 57.2209 132.469 56.8089C132.52 56.7059 132.417 56.6029 132.314 56.6544C132.057 56.8347 131.825 57.0149 131.568 57.1952C131.645 55.2895 131.696 53.3839 131.645 51.4525C131.542 46.7141 131.181 39.6322 127.833 35.5119C128.091 35.0226 128.297 34.5075 128.503 33.9667C128.529 33.8637 128.4 33.7865 128.349 33.8637C128.039 34.2243 127.705 34.5848 127.37 34.9453C126.855 34.4045 126.263 33.9152 125.619 33.5032C117.919 28.7648 114.262 33.6835 112.485 40.6881C111.841 40.3275 111.198 40.0185 110.708 39.4262C110.58 39.2717 110.399 39.4777 110.477 39.6065C110.837 40.4305 111.429 41.2546 112.253 41.6666C110.734 48.4395 110.76 56.7317 110.554 60.2855C110.167 66.569 109.936 72.8268 110.296 79.136C110.348 80.0631 110.399 81.0417 110.477 82.0203C110.193 81.943 109.91 81.84 109.627 81.737C109.498 81.6855 109.421 81.84 109.472 81.943C109.678 82.3808 110.09 82.8186 110.58 83.0504C110.914 87.145 111.558 91.5228 113.361 94.8706C116.116 100.047 121.473 101.824 126.932 102.725C126.623 102.931 126.314 103.137 125.979 103.266C125.851 103.317 125.928 103.549 126.057 103.523C126.906 103.498 127.653 103.343 128.426 103.008C128.452 102.983 128.477 102.957 128.503 102.957C129.713 103.111 130.924 103.266 132.108 103.369C133.782 103.549 135.353 103.678 136.795 103.678C136.666 109.009 136.538 114.339 136.46 119.67C135.92 119.541 135.379 119.49 134.864 119.309C134.761 119.284 134.658 119.412 134.761 119.515C135.224 119.953 135.817 120.314 136.46 120.468C136.409 125.155 136.383 129.868 136.46 134.555C130.022 135.791 118.614 138.263 117.687 146.426C116.94 152.942 118.897 160.513 119.567 167.002C120.237 173.44 121.215 179.93 121.498 186.394C121.859 194.763 128.426 199.09 135.894 201.201C148.023 204.626 163.423 204.446 174.908 198.935C180.831 196.102 182.737 190.952 183.278 184.9C184.025 176.659 184.952 168.47 185.802 160.23C186.368 154.744 188.712 147.276 185.235 142.358C181.346 136.872 173.106 135.405 166.977 134.323V130.048C167.698 129.791 168.342 129.301 168.728 128.657C168.779 128.554 168.676 128.426 168.573 128.451C168.033 128.632 167.492 128.812 166.977 129.018L167.054 121.035C172.488 120.932 177.844 120.211 182.789 117.867C185.132 116.76 186.754 115.138 187.939 113.206C188.351 113.129 188.737 113 189.072 112.794C189.175 112.743 189.149 112.588 189.046 112.562C188.84 112.511 188.609 112.485 188.377 112.434C189.484 110.348 190.154 107.953 190.695 105.481C191.622 101.025 191.776 96.4415 191.828 91.8576C191.853 91.8576 191.905 91.8576 191.931 91.8319C192.806 91.3683 193.373 90.6988 193.836 89.8232C193.733 89.7459 193.579 89.5914 193.476 89.7202ZM183.149 63.4015C186.677 73.5736 184.669 85.0075 185.055 95.5402C185.235 100.227 185.39 105.815 182.222 109.652C178.771 113.824 172.024 113.618 167.003 113.876L167.08 109.704C170.659 109.034 174.393 108.39 177.046 105.712C180.316 102.416 180.033 96.4415 179.904 92.2181C179.75 86.8617 179.389 81.4537 179.003 76.123C178.746 72.6207 177.612 66.8265 179.982 63.7105C180.986 63.2469 182.042 63.1182 183.149 63.4015ZM136.769 147.637C135.25 147.817 133.859 148.332 132.623 149.156C132.932 146.838 134.349 145.01 136.589 144.289C136.666 145.396 136.718 146.529 136.769 147.637ZM136.538 142.847C133.19 143.568 130.846 146.864 131.181 150.289C130.537 150.882 129.945 151.525 129.43 152.246C129.198 152.169 128.941 152.118 128.709 152.015C124.177 150.47 122.477 147.044 126.906 144.212C129.688 142.435 133.216 141.714 136.486 141.07C136.486 141.662 136.512 142.255 136.538 142.847ZM137.156 149.053C141.147 148.667 142.95 151.757 144.006 154.925C139.499 154.616 134.993 153.895 130.692 152.658C132.392 150.727 134.581 149.285 137.156 149.053ZM145.654 155.002C145.448 153.689 144.959 152.375 144.212 151.216C145.886 150.727 147.56 151.242 148.59 152.787C148.229 153.483 147.946 154.255 147.74 155.079C147.045 155.079 146.349 155.053 145.654 155.002ZM159.483 149.8C158.195 151.165 157.32 152.942 157.088 155.053C155.8 155.079 154.538 155.105 153.354 155.131C152.015 155.156 150.676 155.156 149.337 155.131C150.573 150.47 154.899 148.281 159.483 149.8ZM153.431 111.455C153.74 105.249 154.513 99.0682 155.105 92.8877C155.749 86.3466 155.981 79.7798 156.135 73.213C156.418 60.8005 155.775 48.388 156.006 35.9754C156.109 30.6705 156.187 25.3655 156.47 20.0606C156.702 16.0175 157.011 11.6396 155.852 7.69953C157.912 8.44634 159.869 9.65669 161.517 11.0988C162.058 12.6182 162.161 14.3436 162.341 15.9145C162.65 18.876 162.702 21.8375 162.702 24.799C162.728 30.7477 162.676 36.7222 162.547 42.6967C162.29 54.6457 161.26 66.5432 160.796 78.4665C160.333 90.1065 160.204 101.746 159.946 113.386C159.689 124.975 159.174 136.538 159.122 148.126C157.191 147.611 155.311 147.688 153.663 148.255C153.611 135.971 152.839 123.687 153.431 111.455ZM164.968 148.281C168.651 147.199 172.694 149.336 174.213 152.71C169.372 154.513 163.5 154.899 158.195 155.028C159.174 151.603 161.414 149.336 164.968 148.281ZM166.822 143.774C168.239 144.392 169.32 145.448 169.913 146.838C168.908 146.581 167.878 146.478 166.848 146.529C166.822 145.602 166.822 144.675 166.822 143.774ZM175.81 152.066C174.934 149.851 173.389 148.332 171.561 147.457C170.968 145.036 169.191 143.285 166.822 142.615V140.89C171.458 141.843 186.368 145.783 177.664 151.113C177.046 151.448 176.428 151.757 175.81 152.066ZM174.548 101.334C176.531 96.184 176.273 90.8275 175.784 85.4196C175.346 80.3721 174.702 75.505 175.681 70.4833C176.093 68.3459 177.02 66.4402 178.256 65.1011C177.638 67.0325 177.69 69.2987 177.741 71.2044C177.844 75.4277 178.102 79.7283 178.385 83.9517C178.771 89.8232 179.698 96.0037 178.153 101.772C176.788 106.794 171.612 107.85 167.131 108.674C167.157 107.772 167.157 106.871 167.183 105.97C170.222 105.352 173.286 104.579 174.548 101.334ZM164.196 14.0861C167.389 18.7472 167.518 24.6445 167.775 30.0782C168.058 36.5162 167.646 42.98 167.234 49.3923C166.41 61.7018 165.972 73.9599 165.638 86.2951C165.071 106.382 164.608 126.469 164.814 146.555C164.814 146.658 164.839 146.71 164.865 146.787C163.397 147.122 161.981 147.766 160.771 148.667C160.564 148.59 160.358 148.487 160.152 148.409C160.178 136.718 160.719 125.052 160.977 113.361C161.26 101.051 161.414 88.7416 161.904 76.4321C162.393 64.5088 163.371 52.6113 163.629 40.6623C163.758 34.7135 163.784 28.739 163.732 22.7903C163.706 19.8546 163.887 15.966 163.114 12.6697C163.5 13.1332 163.861 13.5968 164.196 14.0861ZM154.693 7.31325C156.161 11.5624 155.672 16.4038 155.44 20.8074C155.131 26.1896 155.105 31.5718 155.002 36.954C154.77 49.3665 155.414 61.7791 155.131 74.1916C154.848 86.6814 153.122 98.991 152.427 111.455C151.732 123.816 152.633 136.28 152.684 148.667C151.345 149.336 150.212 150.341 149.311 151.654C148.281 150.521 147.045 149.903 145.68 149.877C144.109 138.984 145.216 127.782 146.272 116.889C147.405 105.506 148.203 94.2268 148.229 82.7928C148.281 57.5815 146.967 32.1641 150.058 7.08148C151.577 6.7982 153.148 6.90121 154.693 7.31325ZM129.533 52.534C129.713 60.8005 127.679 69.3502 129.173 77.5394C130.125 82.7928 133.19 85.1363 137.774 85.7801C137.928 85.8316 138.083 85.8574 138.237 85.8574C138.83 85.9346 139.473 85.9604 140.117 85.9861C141.714 86.3466 142.358 88.5098 142.486 91.1108C137.928 89.4884 132.855 90.467 128.246 88.9476C121.395 86.7072 122.838 75.7883 123.275 70.2515C123.79 63.9423 124.28 57.6845 124.614 51.3494C124.898 46.096 125.516 40.5078 124.537 35.2543C129.301 38.4991 129.43 47.7184 129.533 52.534ZM123.404 34.6105C124.743 40.585 123.816 47.1518 123.507 53.1779C123.172 60.2082 122.323 67.2128 122.013 74.2431C121.782 79.342 121.679 86.7072 126.906 89.4369C131.671 91.9349 137.568 90.261 142.512 92.1409H142.538C142.538 94.0208 142.28 95.978 141.971 97.6003C138.778 97.6518 135.611 96.8535 132.52 96.1325C129.559 95.4629 126.52 94.9736 123.662 93.9435C116.915 91.4713 117.481 83.2049 117.43 77.2819C117.352 69.273 118.073 61.264 117.842 53.2551C117.739 49.8558 117.79 46.4308 118.073 43.0315C118.305 40.0958 118.743 36.5935 120.443 34.0697C120.932 34.044 121.447 34.0955 121.988 34.1728C122.477 34.3015 122.941 34.4303 123.404 34.6105ZM129.379 101.025C126.263 100.536 123.147 100.15 120.237 98.8622C111.275 94.8964 112.022 79.8056 112.022 71.6679C112.022 63.7362 112.665 55.7531 113.155 47.8472C113.438 43.2633 114.185 35.5634 119.103 34.2758C116.348 39.0657 116.734 46.096 116.76 51.2207C116.837 60.5172 116.245 69.788 116.4 79.0845C116.503 84.75 116.477 91.6001 122.22 94.4843C125.078 95.9264 128.4 96.287 131.49 96.9823C134.838 97.7549 138.263 98.6562 141.714 98.6304C141.508 99.4802 141.302 100.15 141.096 100.562C139.989 102.751 131.362 101.334 129.379 101.025ZM144.16 97.3428C144.547 94.2011 145.293 84.75 140.581 83.9774H140.478C140.426 83.9774 140.375 83.9517 140.298 83.9259C139.963 83.9259 139.602 83.9002 139.267 83.8744C139.86 68.2171 141.147 52.6628 141.199 36.9797C141.225 31.6233 141.302 26.2668 141.405 20.9361C141.482 16.5325 142.049 12.5152 145.422 9.39917C146.53 8.36908 147.74 7.69953 149.028 7.31325C145.963 32.3186 147.251 57.6587 147.225 82.7671C147.225 94.4586 146.324 105.996 145.19 117.61C144.135 128.297 143.156 139.242 144.675 149.929C144.315 150.006 143.929 150.135 143.568 150.289C142.383 148.847 140.761 147.817 138.855 147.611C137.98 132.958 138.392 118.202 138.727 103.549C141.585 103.137 143.62 101.566 144.16 97.3428ZM182.377 171.844C182.042 175.114 181.784 178.411 181.501 181.707L181.449 181.758C177.406 191.132 162.625 191.467 154.049 191.75C144.804 192.059 127.627 191.931 122.941 182.016C122.941 181.99 122.915 181.99 122.889 181.964C122.554 178.462 122.22 174.986 121.859 171.483C121.344 166.359 120.803 161.26 120.288 156.135C126.984 163.783 144.006 163.912 152.092 163.989C160.152 164.067 177.226 163.809 183.947 156.135C183.458 161.388 182.917 166.616 182.377 171.844ZM150.264 201.253C140.813 201.124 124.434 199.167 123.404 187.063C123.378 186.78 123.353 186.523 123.327 186.239C129.765 193.501 143.542 193.707 152.144 193.81C160.59 193.913 174.651 193.45 181.063 186.214C180.986 186.832 180.934 187.475 180.831 188.093C179.08 200.738 159.74 201.382 150.264 201.253ZM184.694 149.156C184.643 149.723 184.591 150.289 184.514 150.856C182.016 162.058 160.436 161.903 152.118 161.981C143.774 162.058 121.962 161.955 119.747 150.598C119.722 150.367 119.696 150.135 119.67 149.929C118.769 140.709 128.786 138.16 136.306 136.692L136.383 139.01C132.289 139.834 118.691 142.924 122.168 149.517C123.868 152.761 127.705 153.946 131.001 154.899C137.568 156.753 144.804 157.088 151.577 157.191C157.783 157.268 163.99 156.676 170.119 155.594C174.29 154.847 179.08 153.689 181.784 150.16C187.166 143.182 169.861 139.396 166.797 138.83H166.771V136.486C173.878 137.722 185.544 140.091 184.694 149.156ZM189.51 95.3857C189.304 101.54 189.046 109.704 184.385 114.288C180.136 118.485 172.591 118.975 166.925 119.052L167.003 114.88C171.818 114.623 177.535 114.726 181.501 111.635C185.441 108.571 186.033 103.549 186.111 98.8622C186.214 92.9392 186.008 87.0162 186.136 81.0932C186.239 75.3247 186.111 69.4017 184.385 63.8908C185.287 64.4058 186.188 65.2299 187.063 66.4402C189.87 70.2773 189.742 76.2518 189.793 80.7584C189.845 85.6513 189.664 90.5442 189.51 95.3857Z" fill="#68182B"/>
<path d="M156.11 166.565C151.191 166.822 146.247 166.874 141.328 166.513C136.589 166.179 132.134 164.839 127.447 164.17C127.37 164.17 127.344 164.247 127.396 164.299C130.95 166.771 136.332 167.106 140.53 167.543C145.731 168.084 151.036 168.033 156.161 166.951C156.341 166.874 156.29 166.539 156.11 166.565ZM161.827 165.612C160.539 165.767 159.2 165.973 157.99 166.436C157.912 166.462 157.912 166.565 157.99 166.591C159.329 167.054 160.796 166.642 161.904 165.87C162.007 165.792 161.981 165.586 161.827 165.612Z" fill="#68182B"/>
</svg>
