<svg width="303" height="207" viewBox="0 0 303 207" fill="none" xmlns="http://www.w3.org/2000/svg">
<path d="M191.853 29.898C192.343 29.383 192.806 28.8165 193.115 28.1984C193.192 28.0696 193.064 27.9409 192.909 27.9924C192.188 28.3272 191.519 28.7907 190.926 29.3057C187.398 27.2971 182.995 26.6018 178.102 27.8379C177.097 28.0954 176.196 28.4559 175.32 28.868C174.033 24.0008 171.998 19.1851 168.779 15.3481C169.088 15.0648 169.269 14.627 169.346 14.2407C169.372 14.1377 169.243 14.0347 169.14 14.1377C168.882 14.3695 168.599 14.5755 168.342 14.833C167.08 13.4167 165.663 12.1548 164.015 11.099C158.788 7.72543 151.448 9.47657 147.56 14.0347C146.014 15.8374 145.139 18.0778 144.598 20.4727L144.135 20.241C143.723 20.0092 143.439 19.7259 143.104 19.4169C143.027 19.3397 142.898 19.3912 142.898 19.4942C142.95 20.3182 143.62 21.1681 144.392 21.5028C143.877 24.3871 143.851 27.4258 143.8 30.1041C143.723 33.5806 143.774 37.0571 143.233 40.5079C142.795 43.2892 141.92 46.0446 140.864 48.7229C136.126 45.5296 133.988 40.7397 132.932 35.4605C133.499 34.9455 133.988 34.3274 134.452 33.7094C134.529 33.6064 134.374 33.5033 134.297 33.5548C133.756 33.8381 133.267 34.2244 132.778 34.6107C131.877 29.4087 131.902 23.8205 131.464 18.8504C131.13 14.936 129.945 10.6354 127.344 7.80268C127.782 7.51941 128.091 6.97861 128.22 6.48932C128.245 6.36056 128.091 6.2318 127.988 6.30906C127.602 6.61808 127.215 6.97861 126.932 7.39065C125.387 5.87127 123.404 4.84118 120.855 4.63517C113.927 4.06862 108.674 8.88427 106.433 15.1163C105.352 18.1293 104.888 21.4771 104.888 24.9021C104.631 24.6446 104.27 24.4386 103.935 24.3098C103.755 24.2326 103.575 24.3871 103.652 24.5931C103.91 25.1081 104.347 25.5717 104.888 25.7004C105.12 34.6879 108.622 44.2162 113.541 50.6543C113.592 50.7058 113.644 50.7573 113.67 50.8088C112.923 51.4011 112.176 52.0707 111.481 52.8175L111.326 52.972C108.777 56.191 107.283 59.9766 106.562 63.9939C106.459 63.9424 106.33 63.9167 106.227 63.8651C105.815 63.6849 105.429 63.4531 105.017 63.2728C104.914 63.2213 104.76 63.3244 104.837 63.4531C105.223 63.9939 105.79 64.4575 106.433 64.7922C105.197 73.0844 107.257 82.3037 110.863 89.9263C110.348 90.3384 109.858 90.8277 109.498 91.3427C109.446 91.42 109.524 91.523 109.627 91.4972C110.167 91.317 110.76 91.0594 111.249 90.6989C112.305 92.8106 113.464 94.7935 114.7 96.5962C118.073 101.463 122.735 105.558 128.142 107.979C128.142 108.056 128.117 108.133 128.117 108.236C128.529 111.198 129.044 114.133 129.585 117.069C129.07 116.992 128.503 116.966 128.014 116.863C127.885 116.837 127.756 117.018 127.885 117.095C128.4 117.481 129.07 117.764 129.739 117.867C130.074 119.593 130.383 121.318 130.743 123.044C123.996 124.357 116.322 126.263 112.279 132.289C110.013 135.662 110.425 141.07 110.837 144.856C111.326 149.182 114.88 152.272 118.64 154.049C119.644 162.367 120.623 170.711 121.576 179.029C122.116 183.613 121.807 189.252 124.357 193.321C129.095 200.918 141.044 202.309 149.079 202.463C157.5 202.618 168.599 201.073 174.239 194.068C177.02 190.617 176.788 185.596 177.252 181.424C178.308 172.256 179.364 163.114 180.471 153.946C184.668 151.654 187.527 148.229 187.578 143.156C187.63 138.572 187.939 134.632 185.003 130.872C179.956 124.408 169.372 123.147 161.826 122.142C161.569 120.623 161.311 119.129 161.054 117.61C160.899 116.709 160.77 115.833 160.667 114.932C161.26 114.52 161.801 114.108 162.29 113.541C162.367 113.438 162.264 113.309 162.161 113.387C161.62 113.644 161.105 113.85 160.59 114.108C160.358 112.228 160.204 110.374 160.101 108.519C166.951 109.189 174.754 106.124 178.951 100.613C179.467 100.665 179.982 100.639 180.522 100.562C180.651 100.536 180.651 100.33 180.522 100.304C180.136 100.227 179.75 100.124 179.364 99.9954C181.089 97.4975 182.093 94.536 181.964 91.214C181.836 88.1494 180.188 84.2866 176.994 83.3338C174.033 82.4582 171.355 83.2565 168.728 84.5441V84.4411C168.779 83.9776 168.882 83.5141 168.985 83.0505C169.011 82.9218 168.857 82.8702 168.779 82.9733C168.393 83.4883 167.955 84.2351 167.93 84.9562C165.818 86.0635 163.758 87.4026 161.672 88.3297C162.444 84.8274 163.5 81.3766 164.814 77.9516C166.822 78.0288 168.908 77.6683 170.84 77.1275C171.123 77.385 171.483 77.5653 171.895 77.6426C171.973 77.6683 172.05 77.5653 171.973 77.5138C171.792 77.3335 171.586 77.1533 171.406 76.9987C171.664 76.9215 171.921 76.8442 172.179 76.7412C180.11 73.7025 187.295 69.3761 192.291 63.2213C192.986 63.5046 193.759 63.6591 194.48 63.4274C194.583 63.4016 194.609 63.2471 194.506 63.1956C194.017 62.8608 193.398 62.7321 192.832 62.526C195.871 58.586 198.008 53.9248 198.909 48.3881C200.3 40.5337 197.287 33.5548 191.853 29.898Z" fill="#68182B"/>
<path d="M138.546 137.182C136.229 128.065 134.709 118.975 134.606 109.549C133.113 109.446 131.619 109.163 130.229 108.725C131.233 115.627 132.649 122.451 134.066 129.276C134.941 133.422 135.096 135.868 138.546 137.182ZM159.509 119.593C158.736 114.88 157.964 110.09 157.886 105.3C157.835 100.15 158.324 95.0252 159.328 90.0293C159.303 89.7975 159.354 89.5658 159.483 89.3597C160.307 85.3681 161.466 81.4796 162.934 77.6425C161.878 77.4365 160.874 77.076 159.947 76.5352C155.337 86.012 154.822 97.4202 155.285 107.721C155.723 117.507 157.062 127.524 160.23 136.847C160.384 136.744 160.565 136.666 160.719 136.589C163.14 135.07 161.62 131.825 161.208 129.482C160.616 126.185 160.024 122.889 159.509 119.593Z" fill="#FFA3BC"/>
<path d="M161.285 90.5447C161.028 91.8838 160.822 93.2229 160.642 94.5621C164.607 94.15 168.444 92.6821 171.483 90.0812C172.951 88.8193 174.857 87.0682 175.681 85.0853C171.457 84.4415 165.406 88.9223 161.285 90.5447ZM174.342 97.163C170.17 100.202 165.277 102.133 160.049 102.082C159.998 103.55 160.024 105.043 160.049 106.511C168.573 107.618 181.733 100.717 180.059 90.7507C179.029 93.4032 176.659 95.4634 174.342 97.163Z" fill="#FFA3BC"/>
<path d="M176.608 85.3165C175.758 87.4797 173.853 89.4111 172.179 90.7502C168.78 93.5057 164.865 95.1281 160.539 95.5401C160.333 97.3943 160.178 99.2484 160.101 101.103C164.659 101.128 169.14 99.609 172.874 97.008C175.707 95.0251 179.055 92.4241 179.621 88.8703C178.926 86.8874 177.87 85.8058 176.608 85.3165ZM193.141 33.0396C191.854 31.9065 190.283 30.9537 188.609 30.2584C189.15 36.4131 187.527 42.6452 185.493 48.4136C183.536 53.9504 180.703 59.075 176.634 63.3757C173.698 66.4917 171.2 70.0197 167.956 72.8267C166.668 73.934 165.097 75.1959 163.397 75.7367C166.153 76.1745 169.449 75.5307 171.741 74.7581C172.05 74.6294 172.385 74.5006 172.694 74.3718C172.745 74.3203 172.771 74.2688 172.848 74.2431C180.085 70.4575 186.755 63.5302 190.051 56.0363C193.064 49.1605 194.918 40.8425 193.45 33.3486C193.373 33.2714 193.27 33.1426 193.141 33.0396ZM138.753 60.8777C138.856 62.3456 138.804 63.8392 138.675 65.3328C138.701 65.3328 138.727 65.3071 138.753 65.3071C139.165 65.1526 139.551 64.9723 139.937 64.8178C140.014 64.792 140.117 64.895 140.066 64.9723C139.757 65.3843 139.293 65.7191 138.856 65.9509C138.778 65.9766 138.701 66.0281 138.598 66.0539C137.877 73.419 135.688 80.9644 139.911 87.5312C140.066 87.7887 140.246 88.0462 140.427 88.3038C139.345 76.5608 142.281 64.7405 145.963 53.6671C148.281 46.6883 151.371 39.8124 152.479 32.4731C153.406 26.3955 153.946 19.0047 151.629 13.1074C148.281 15.4251 146.427 19.7 146.04 24.3611C145.603 29.4858 145.937 34.6362 145.319 39.7352C144.598 45.7869 141.817 51.6584 139.268 57.2209C138.675 58.56 138.65 59.2296 138.753 60.8777Z" fill="#FFA3BC"/>
<path d="M131.98 52.0713C132.932 54.6465 132.932 57.505 132.52 60.2605C131.567 66.2865 129.945 72.3125 130.743 78.4673C131.593 84.9568 134.658 89.7982 138.984 94.5624C140.813 96.571 143.671 98.9145 144.83 101.644C145.654 94.6654 136.872 89.5922 135.739 82.8451C134.89 77.772 136.048 72.8275 136.563 67.7801C137.181 61.9859 136.872 55.7796 131.98 52.0713Z" fill="#FFA3BC"/>
<path d="M126.16 49.418C123.121 53.0748 121.988 58.1995 121.319 62.7833C120.469 68.6548 120.16 74.7066 121.447 80.5266C122.709 86.3208 125.181 91.9863 128.504 96.9307C131.027 100.691 135.07 106.382 139.963 107.232C141.946 106.691 143.543 105.583 144.367 103.575C144.058 100.948 141.611 98.8879 139.886 96.9822C138.315 95.2568 136.744 93.5314 135.276 91.703C132.366 88.0977 130.667 84.0546 129.92 79.4707C129.122 74.5778 129.791 69.5047 130.718 64.689C131.542 60.2854 132.83 55.1607 130.538 51.0661C129.07 50.2935 127.602 49.727 126.16 49.418ZM140.066 137.645C141.045 137.877 142.126 138.083 143.259 138.289C144.702 128.451 143.62 118.047 141.689 108.339C139.834 109.266 137.723 109.627 135.56 109.601C135.663 119.129 137.233 128.323 139.628 137.542C139.783 137.568 139.912 137.619 140.066 137.645Z" fill="#FFA3BC"/>
<path d="M123.198 49.1605C113.438 53.4096 112.305 66.6978 113.361 76.1231C114.468 85.9346 118.537 97.0596 125.49 104.347C125.953 104.631 126.443 104.914 126.932 105.171C129.482 106.511 133.962 107.824 137.799 107.566C134.22 106.021 131.258 102.416 129.121 99.4803C125.284 94.2268 122.116 88.0463 120.726 81.6598C119.361 75.3247 119.412 68.8867 120.417 62.5002C121.138 57.9163 122.219 52.9719 125.104 49.212C124.434 49.1605 123.816 49.1348 123.198 49.1605ZM152.478 12.644C154.538 17.7944 154.332 23.7947 153.843 29.2026C153.199 36.4132 150.701 43.1345 148.281 49.9074C143.774 62.6289 139.808 76.3548 141.559 89.9777C145.01 94.7934 149.182 100.124 144.959 105.635C144.263 106.536 143.465 107.257 142.564 107.824C144.572 117.739 145.654 128.348 144.212 138.418C146.272 138.727 148.512 138.907 150.727 138.881C150.521 137.31 150.315 135.765 150.135 134.194C149.027 124.692 149.053 115.344 149.156 105.815C149.285 93.789 147.611 81.6083 149.208 69.6593C150.032 63.4787 151.422 57.3497 153.611 51.4782C154.847 48.1305 156.47 44.9629 157.809 41.6667C161.749 31.9323 161.44 21.7345 159.74 11.5109C156.856 11.0731 154.435 11.5624 152.478 12.644ZM119.052 6.56646C113.901 11.5624 113.077 19.7258 113.85 26.5244C114.674 33.941 117.223 41.2546 121.756 47.2549C124.254 46.9459 126.881 47.2806 129.533 48.3622C133.113 49.8043 136.074 52.7143 137.619 56.2166C138.083 55.2123 138.546 54.208 139.01 53.1779C131.181 48.0789 125.876 40.5851 123.301 31.6233C121.035 23.7689 120.056 14.9874 123.146 7.23601C121.807 6.69522 120.417 6.4892 119.052 6.56646Z" fill="#FFA3BC"/>
<path d="M130.667 33.1433C129.714 26.1902 131.646 14.6532 126.212 9.32254C125.516 8.65298 124.795 8.11219 124.023 7.70015C120.933 15.3743 122.014 24.4133 124.461 32.1132C127.113 40.5084 132.006 47.4358 139.397 52.3029C139.654 51.7106 139.912 51.1441 140.144 50.5518C133.963 46.5859 131.646 40.2509 130.667 33.1433ZM194.687 34.7142C195.665 41.9763 193.94 50.0367 190.927 56.5263C188.275 62.2432 183.974 67.5739 178.849 71.5398C186.832 67.3164 193.837 61.1874 196.258 52.0711C197.674 46.7147 198.266 39.5041 194.687 34.7142ZM115.267 49.5989C116.967 48.5431 118.769 47.7963 120.649 47.4358C116.091 41.178 113.361 33.4781 112.769 25.7782C112.28 19.2886 113.027 11.8463 117.456 6.79883C113.31 7.72591 109.55 11.1509 108.314 15.5803C105.172 26.8598 108.211 40.4054 115.267 49.5989ZM160.771 11.7432C161.003 13.1339 161.235 14.5502 161.389 15.9666C162.497 25.2116 162.085 34.1991 158.376 42.8261C156.831 46.4572 155.106 49.9852 153.844 53.745C151.681 60.2861 150.239 67.0847 149.749 73.9605C148.951 85.3945 150.316 96.9572 150.084 108.417C149.878 118.666 150.342 128.684 151.706 138.856C154.462 138.753 157.14 138.289 159.329 137.285C155.93 127.422 154.513 116.683 154.23 106.305C153.973 96.1846 154.591 85.2142 159.123 75.9434C158.608 75.5571 158.144 75.0936 157.707 74.5785C154.127 70.2264 158.247 65.4108 160.179 61.5737C160.565 60.8011 160.9 59.9771 161.235 59.1015C160.771 58.7667 160.565 58.0199 160.488 57.5049C160.462 57.4018 160.565 57.3503 160.642 57.4018C160.977 57.6594 161.26 57.9941 161.492 58.3547C163.037 53.8738 164.016 48.3371 165.561 43.1866C165.072 42.8004 164.969 41.9505 164.995 41.384C164.995 41.2552 165.149 41.2552 165.201 41.3582C165.355 41.7188 165.587 42.0278 165.819 42.3626C166.591 39.8904 167.518 37.5212 168.703 35.4352C168.986 32.4737 168.342 29.3577 167.905 26.4992C167.287 22.3016 167.003 18.001 165.226 14.0867C163.913 13.0051 162.419 12.1553 160.771 11.7432Z" fill="#FFA3BC"/>
<path d="M176.712 30.4652C167.003 35.7187 166.849 48.9295 163.681 58.1746C162.368 61.9859 157.99 66.544 158.325 70.5356C158.376 71.2052 158.531 71.7717 158.737 72.3125C159.483 69.2995 162.007 66.8273 163.964 64.4066C168.033 59.3592 170.48 52.9469 172.643 46.9209C174.162 42.646 175.579 38.5514 178.128 34.7658C179.467 32.7572 181.141 30.4137 183.304 29.0746C181.012 28.9459 178.746 29.3836 176.712 30.4652ZM122.297 102.005C119.619 98.3994 117.585 94.2791 116.014 90.1072C114.16 85.2658 112.717 80.2442 112.305 75.0422C111.584 66.1835 112.769 54.6723 120.546 49.5218C117.739 50.1914 115.087 51.8138 112.795 54.286C104.297 65.1019 108.468 84.0812 115.73 94.5366C117.559 97.2406 119.748 99.8416 122.297 102.005ZM168.934 26.8857C169.269 29.1004 169.707 31.4953 169.733 33.813C170.789 32.2936 172.05 30.9545 173.57 29.8987C172.437 25.4693 170.351 19.6751 166.9 15.7607C168.085 19.3403 168.368 23.1259 168.934 26.8857Z" fill="#FFA3BC"/>
<path d="M185.133 29.2803C181.759 30.4906 179.338 34.4307 177.716 37.3149C175.656 40.9718 174.471 44.8861 172.978 48.8262C171.072 53.8736 168.986 59.1528 165.818 63.5564C163.63 66.5952 159.664 69.7369 159.483 73.7028C159.921 74.2436 160.462 74.6813 161.08 74.9904C164.428 75.7372 168.213 71.4108 170.145 69.3249C172.462 66.8012 174.754 64.2002 176.969 61.5992C180.549 57.4016 183.15 52.6375 184.849 47.384C186.652 41.7701 188.3 35.8471 187.631 29.9241C186.806 29.6151 185.982 29.409 185.133 29.2803Z" fill="#FFA3BC"/>
<path d="M136.847 138.598C133.473 137.181 133.293 134.967 132.572 131.593C132.418 130.821 132.237 130.022 132.083 129.25C128.374 129.971 124.254 130.743 121.112 132.881C116.219 136.177 119.567 139.576 123.997 140.993C132.649 143.748 142.203 144.315 151.242 144.109C159.277 143.929 170.608 144.16 177.587 139.602C186.574 133.731 168.368 129.636 163.063 128.709C163.088 128.786 163.088 128.889 163.114 128.967C163.423 130.821 164.659 133.782 163.99 135.688C163.269 137.774 161.131 138.804 159.123 139.37C152.247 141.276 143.465 141.405 136.847 138.598Z" fill="#FF915B"/>
<path d="M125.774 191.751C130.281 198.961 141.457 200.455 149.157 200.455C156.676 200.455 169.372 199.425 173.493 191.751C175.862 187.347 175.476 180.677 176.042 175.81C176.84 168.831 177.665 161.853 178.514 154.9C169.913 158.608 157.423 158.634 151.011 158.685C141.071 158.762 130.229 158.325 120.804 154.822C121.654 161.956 122.503 169.063 123.327 176.197C123.791 180.703 123.276 187.759 125.774 191.751Z" fill="#D1FFFF"/>
<path d="M143.8 172.282C147.457 173.982 152.53 173.853 156.007 173.75C160.874 173.596 167.158 173.107 171.098 169.939C174.368 167.287 172.643 165.87 169.501 165.741C165.767 165.587 162.084 166.978 158.222 167.621C155.054 168.136 151.809 168.368 148.616 168.471C147.097 168.523 145.526 168.42 143.981 168.471C138.83 168.651 141.714 171.304 143.8 172.282ZM136.384 170.119C136.899 170.325 137.517 170.428 138.058 170.3C140.195 169.81 140.427 168.214 138.676 167.287C138.083 166.977 137.491 166.874 136.821 166.823C134.478 166.694 134.169 169.269 136.384 170.119Z" fill="#ECFFFE"/>
<path d="M183.124 131.568C177.742 126.34 169.424 125.052 162.239 124.1C162.393 124.949 162.548 125.825 162.677 126.701H162.702C166.282 127.241 185.725 130.074 181.733 138.032C179.75 141.972 174.291 143.362 170.351 144.109C164.042 145.319 157.629 146.015 151.191 146.066C143.981 146.143 136.667 145.757 129.585 144.392C125.722 143.646 119.954 142.718 117.404 139.216C111.996 131.825 126.958 128.297 131.671 127.344C131.491 126.52 131.336 125.696 131.156 124.898C125.053 126.057 116.555 127.808 113.645 133.834C112.202 136.821 112.099 141.972 112.898 145.113C114.494 151.345 121.885 153.637 127.473 154.719C135.199 156.213 143.079 156.882 150.959 156.728C159.973 156.547 185.673 156.908 185.673 143.079C185.699 139.036 186.343 134.684 183.124 131.568Z" fill="#91DEFF"/>
<path d="M181.449 133.551C182.376 134.813 182.608 136.306 181.758 138.006C179.776 141.946 174.316 143.337 170.376 144.083C164.067 145.294 157.654 145.989 151.216 146.041C144.006 146.118 136.692 145.732 129.61 144.367C126.005 143.671 120.752 142.822 117.996 139.886C119.232 142.77 121.215 143.388 123.43 144.315C128.838 146.607 134.89 147.457 140.735 147.946C146.504 148.436 152.324 148.23 158.092 147.637C161.028 147.354 163.938 146.942 166.848 146.504C169.629 146.092 172.462 145.732 175.166 144.985C178.102 144.186 180.909 142.693 182.531 140.04C183.613 138.238 183.767 135.122 181.449 133.551Z" fill="#D1FFFF"/>
<path d="M150.959 158.685C141.019 158.762 130.177 158.325 120.752 154.822C120.829 155.389 120.881 155.955 120.958 156.548C123.198 161.389 132.392 162.78 140.993 163.526C151.165 164.402 174.677 163.089 178.282 156.548C178.36 156.007 178.411 155.44 178.488 154.9C169.861 158.582 157.372 158.634 150.959 158.685Z" fill="#65B3BC"/>
<path d="M124.847 189.794C125.104 190.515 125.387 191.159 125.774 191.751C130.28 198.962 141.457 200.455 149.157 200.455C156.676 200.455 169.372 199.425 173.493 191.751C173.57 191.597 173.673 191.416 173.75 191.236C171.407 193.167 168.471 194.481 165.278 195.382C150.316 199.683 131.285 197.7 124.847 189.794Z" fill="#A9F7FF"/>
<path d="M163.037 128.684C163.063 128.761 163.063 128.864 163.088 128.941C163.191 129.585 163.423 130.357 163.629 131.156C168.033 132.109 177.51 134.967 179.158 138.289C183.922 133.139 167.956 129.559 163.037 128.684ZM129.945 132.263C130.795 132.006 131.671 131.774 132.546 131.594C132.392 130.821 132.212 130.048 132.057 129.276C128.349 129.997 124.228 130.77 121.087 132.907C118.563 134.607 118.228 136.358 119.104 137.826C121.215 134.838 125.619 133.551 129.945 132.263Z" fill="#FF564D"/>
<path d="M159.509 119.593C159.328 118.511 159.148 117.43 158.994 116.348C158.891 120.7 158.479 124.949 157.397 126.108C158.118 129.739 159.045 133.345 160.23 136.847C160.384 136.744 160.564 136.667 160.719 136.589C163.14 135.07 161.62 131.825 161.208 129.482C160.616 126.186 160.024 122.889 159.509 119.593ZM138.546 137.182C138.134 135.585 137.748 133.988 137.413 132.392C135.096 128.606 132.701 121.911 132.572 117.301C132.417 112.151 133.731 110.168 134.323 109.524C132.907 109.395 131.516 109.112 130.203 108.7C131.207 115.601 132.623 122.426 134.04 129.25C134.941 133.422 135.096 135.868 138.546 137.182ZM133.216 86.5014C134.658 89.3857 136.641 91.9866 138.984 94.5619C140.813 96.5705 143.671 98.914 144.83 101.644C145.319 97.4461 142.332 93.9181 139.628 90.3128C136.847 90.287 134.761 88.6389 133.216 86.5014ZM125.49 104.348C125.954 104.631 126.443 104.914 126.932 105.172C129.482 106.511 133.962 107.824 137.8 107.567C134.22 106.022 131.259 102.416 129.121 99.4805C128.786 99.017 128.452 98.5534 128.143 98.0899C122.992 97.9096 117.79 89.669 114.932 84.3125C116.889 91.7034 120.417 99.0427 125.49 104.348ZM145.86 126.366C145.963 121.653 144.469 113.155 144.186 111.97C144.083 107.927 146.478 106.047 146.401 103.009C146.118 103.884 145.654 104.785 144.984 105.661C144.289 106.562 143.491 107.283 142.589 107.85C144.598 117.765 145.68 128.374 144.238 138.444C146.298 138.753 148.538 138.933 150.753 138.907C150.547 137.336 150.341 135.791 150.161 134.22C150.006 132.778 149.852 131.336 149.749 129.894C147.894 131.078 145.808 129.636 145.86 126.366Z" fill="#F07493"/>
<path d="M124.46 89.6692C125.593 92.2187 126.958 94.6652 128.503 96.9571C131.027 100.717 135.07 106.408 139.963 107.258C141.946 106.717 143.543 105.61 144.367 103.601C144.109 101.386 142.358 99.5838 140.787 97.9614C136.075 100.614 129.044 94.5364 124.46 89.6692ZM169.655 71.2564C169.115 71.7972 168.574 72.3123 167.981 72.8016C166.694 73.9089 165.123 75.1708 163.423 75.7116C166.179 76.1493 169.475 75.5056 171.767 74.733C172.076 74.6042 172.411 74.4755 172.72 74.3467C172.746 74.2952 172.797 74.2437 172.874 74.2179C180.111 70.4324 186.781 63.505 190.077 56.0112C190.746 54.4918 191.364 52.8951 191.88 51.247C187.167 58.7409 177.278 72.5956 169.655 71.2564ZM150.805 130.641C151.037 133.371 151.346 136.1 151.706 138.856C154.462 138.753 157.14 138.289 159.329 137.285C155.929 127.422 154.513 116.683 154.23 106.305C154.178 104.245 154.153 102.185 154.204 100.073C152.891 108.7 154.178 122.452 154.101 123.456C153.895 127.551 152.736 128.864 150.805 130.641ZM160.101 101.103C163.578 101.129 167.003 100.253 170.093 98.6567C165.02 99.9959 163.629 97.1374 163.243 95.1029C162.342 95.309 161.44 95.4635 160.513 95.5407C160.333 97.3949 160.179 99.249 160.101 101.103ZM137.748 118.872C137.182 113.181 140.761 109.395 141.74 108.494C141.74 108.443 141.714 108.391 141.714 108.34C139.86 109.267 137.748 109.627 135.585 109.601C135.688 119.13 137.259 128.323 139.654 137.543C139.809 137.594 139.937 137.62 140.092 137.671C141.07 137.903 142.152 138.109 143.285 138.315C143.44 137.285 143.543 136.281 143.646 135.251C139.268 132.469 138.289 124.357 137.748 118.872ZM115.112 33.375C116.426 38.3709 118.615 43.1351 121.731 47.2554C124.229 46.9464 126.855 47.2812 129.508 48.3628C133.087 49.8049 136.049 52.7149 137.594 56.2172C138.057 55.2128 138.521 54.2085 138.985 53.1784C135.508 50.9122 132.521 48.1567 130.049 45.015C124.46 44.5514 118.769 38.3194 115.112 33.375Z" fill="#F07493"/>
<path d="M196.747 49.882C194.584 54.7234 191.236 60.6979 187.322 62.6808C184.952 66.0029 182.042 69.0674 178.823 71.5653C186.807 67.342 193.811 61.213 196.232 52.0967C196.438 51.3756 196.618 50.6546 196.747 49.882ZM115.267 49.5987C116.967 48.5429 118.769 47.7961 120.649 47.4355C119.619 46.0192 118.692 44.5513 117.842 43.0062C113.722 41.6928 109.808 34.4565 107.232 28.585C107.953 36.2076 110.812 43.7787 115.267 49.5987ZM126.186 36.6969C129.045 43.0319 133.397 48.3626 139.371 52.3027C139.629 51.7104 139.886 51.1439 140.118 50.5516C137.877 49.1094 136.152 47.3583 134.813 45.3754C132.315 44.8088 128.941 40.6885 126.186 36.6969ZM160.488 64.0972C159.226 66.2604 158.144 68.4751 158.325 70.5352C158.376 71.2048 158.531 71.7713 158.737 72.3121C159.484 69.2991 162.007 66.8269 163.964 64.4062C166.308 61.4705 168.136 58.0969 169.681 54.5946C167.364 58.7923 163.99 63.6852 160.488 64.0972ZM160.642 94.562C162.497 94.3817 164.325 93.944 166.05 93.2744C163.578 93.0941 162.239 91.6005 161.569 90.4417C161.466 90.4932 161.363 90.5189 161.286 90.5704C161.054 91.8838 160.823 93.2229 160.642 94.562ZM165.51 101.412C163.733 101.876 161.93 102.107 160.05 102.082C159.999 103.55 160.024 105.043 160.05 106.511C166.179 107.309 174.755 103.962 178.411 98.2961C170.918 104.94 166.926 102.725 165.51 101.412ZM161.956 68.2175C160.642 69.8914 159.587 71.6941 159.484 73.7028C159.921 74.2436 160.462 74.6813 161.08 74.9904C164.428 75.7372 168.188 71.4108 170.145 69.3249C172.463 66.8012 174.755 64.2002 176.969 61.5992C180.549 57.4016 183.15 52.6375 184.849 47.384L185.004 46.9205C181.321 53.6676 171.175 70.4837 161.956 68.2175ZM122.297 102.004C120.109 99.0686 118.383 95.7981 116.941 92.4246C112.537 88.021 109.447 77.4883 108.108 72.1319C108.597 80.3211 111.688 88.742 115.705 94.5363C117.559 97.2402 119.748 99.8412 122.297 102.004Z" fill="#F07493"/>
<path d="M142.718 88.665C142.77 88.7937 142.924 88.7937 142.976 88.665C143.13 88.2529 143.156 87.8409 143.182 87.4031C143.182 87.0683 143.13 86.6305 142.847 86.4503C142.821 86.4245 142.77 86.4245 142.718 86.476C142.461 86.7336 142.512 87.0941 142.512 87.4289C142.487 87.8151 142.564 88.2529 142.718 88.665ZM144.16 70.4067C143.362 72.7244 143.027 75.1451 142.77 77.5658C142.512 80.2183 142.435 82.8707 142.667 85.5232C142.667 85.652 142.847 85.652 142.847 85.5232C143.079 82.9995 143.233 80.4758 143.465 77.9521C143.697 75.4284 144.083 72.9304 144.315 70.4324C144.341 70.3294 144.186 70.3037 144.16 70.4067ZM129.713 59.668C128.58 64.5609 128.04 74.6043 130.177 80.8621C130.074 80.3985 129.997 79.9607 129.919 79.4714C129.121 74.5785 129.791 69.5054 130.718 64.6897C131.542 60.2861 132.829 55.1614 130.538 51.0668C129.095 50.2427 127.628 49.7019 126.185 49.3929C127.138 50.2685 131.001 54.0798 129.713 59.668ZM178.617 55.0584C180.136 53.7193 181.295 51.7364 181.784 49.7792C181.81 49.6762 181.681 49.6247 181.604 49.7019C180.394 51.2986 179.467 53.2042 178.488 54.9554C178.437 55.0584 178.54 55.1356 178.617 55.0584ZM121.164 83.5403C120.983 82.9222 120.829 82.3042 120.7 81.6861C119.335 75.3511 119.387 68.9131 120.391 62.5265C121.112 57.9426 122.194 52.9982 125.078 49.2384C124.486 49.1611 123.919 49.1354 123.353 49.1354C122.117 51.4273 114.211 67.2649 121.164 83.5403ZM182.222 49.0066C182.686 48.8779 182.866 48.1053 182.48 47.822C182.325 47.719 182.093 48.028 182.042 48.1311C181.913 48.3628 181.836 48.6976 182.016 48.9294C182.042 48.9809 182.145 49.0324 182.222 49.0066ZM112.279 75.0421C111.558 66.1833 112.743 54.6721 120.52 49.5217C118.923 49.908 117.352 50.6033 115.91 51.6076C113.541 54.6979 108.416 63.7369 113.026 80.1925C112.666 78.4671 112.408 76.7675 112.279 75.0421ZM112.794 25.7782C112.305 19.2886 113.052 11.8463 117.481 6.79883C116.631 6.97909 115.782 7.28812 114.983 7.6744C112.975 10.8419 109.446 18.8508 113.644 31.6497C113.232 29.7183 112.923 27.7353 112.794 25.7782ZM153.843 29.2032C153.199 36.4138 150.701 43.1351 148.281 49.908C146.916 53.745 145.603 57.6851 144.495 61.6767C145.628 58.7409 146.967 55.1099 148.616 51.9424C154.152 41.1007 155.569 31.0831 156.29 24.3103C156.805 19.5977 155.182 14.5502 154.152 11.9235C153.56 12.1295 152.993 12.3613 152.478 12.6703C154.539 17.795 154.333 23.7953 153.843 29.2032ZM192.085 53.8223C196 49.5732 196.412 42.1308 196.206 37.4697C195.819 36.4911 195.33 35.5897 194.686 34.7399C195.536 40.9977 194.351 47.8735 192.085 53.8223Z" fill="#FFE4DF"/>
<path d="M124.049 60.595C124.538 60.1057 124.512 59.3074 124.332 58.6893C124.306 58.612 124.177 58.5605 124.126 58.6378C123.662 59.1528 123.431 59.9512 123.791 60.5692C123.843 60.6465 123.971 60.6722 124.049 60.595ZM147.947 120.469C148.487 116.632 148.204 112.614 147.792 108.803C147.792 108.7 147.638 108.7 147.612 108.803C147.2 112.64 147.174 116.657 147.741 120.469C147.766 120.598 147.947 120.598 147.947 120.469ZM123.559 61.3675C122.169 65.7196 121.834 70.4065 122.297 74.9389C122.684 78.8532 123.25 83.1281 125.104 86.6304C125.182 86.7592 125.362 86.6562 125.336 86.5274C124.615 82.5358 123.534 78.6472 123.147 74.6041C122.941 72.544 122.915 70.4838 123.07 68.3979C123.25 66.0544 123.688 63.7367 123.74 61.3675C123.74 61.2903 123.585 61.2645 123.559 61.3675ZM135.457 79.9348C135.328 75.866 136.152 71.8487 136.564 67.7798C137.156 61.9598 136.847 55.7536 131.98 52.0452C132.315 52.9208 132.521 53.8479 132.65 54.8007C133.706 56.2686 135.328 59.0756 135.534 62.5264C135.74 66.621 134.015 74.3466 135.457 79.9348ZM145.32 39.7872C144.599 45.839 141.818 51.7105 139.268 57.2729C138.676 58.5605 138.65 59.2558 138.753 60.8782C138.805 61.5478 138.805 62.2173 138.805 62.8869C141.045 56.3716 144.007 49.3155 146.118 42.9547C149.389 33.1174 148.101 24.4132 147.123 19.3915C146.556 20.9624 146.195 22.662 146.041 24.4132C145.603 29.5378 145.938 34.6883 145.32 39.7872ZM161.389 15.9407C162.497 25.1857 162.085 34.1732 158.376 42.8002C156.831 46.4313 155.106 49.9593 153.844 53.7191C152.968 56.3201 152.221 58.9726 151.603 61.6765C152.659 58.715 153.998 55.7536 155.698 52.0452C158.402 46.1222 160.591 40.0962 162.085 34.9973C164.042 28.3275 164.351 20.2671 162.574 12.3869C162.007 12.1036 161.389 11.8976 160.771 11.7431C161.003 13.1337 161.209 14.5501 161.389 15.9407ZM168.935 26.8854C169.269 29.1001 169.707 31.495 169.733 33.8127C170.171 33.1947 170.634 32.6024 171.149 32.0358C169.887 28.8683 168.986 20.8336 168.368 17.6403C167.905 16.9708 167.441 16.3527 166.926 15.7604C168.085 19.34 168.368 23.1256 168.935 26.8854ZM126.186 9.3224C127.654 11.9749 128.864 17.2541 128.761 20.5503C128.993 24.7479 129.276 30.3362 130.976 35.1261C130.847 34.4823 130.744 33.8127 130.667 33.1431C129.688 26.1901 131.645 14.6273 126.186 9.3224ZM185.519 48.4142C185.004 49.9078 184.412 51.3499 183.742 52.7663C190.206 44.5256 190.103 33.6839 189.974 30.877C189.536 30.6452 189.099 30.4392 188.635 30.2589C189.176 36.4137 187.528 42.6715 185.519 48.4142ZM124.023 33.9672C123.765 33.1947 123.508 32.4221 123.276 31.6495C121.01 23.7951 120.031 15.0136 123.121 7.26222C122.452 6.97895 121.731 6.77293 121.036 6.66992C120.108 10.2237 117.817 21.8122 124.023 33.9672ZM118.229 35.1003C118.28 35.1261 118.357 35.1003 118.383 35.0488C118.563 34.6625 118.435 34.2762 118.254 33.9157C118.151 33.7097 117.894 33.1689 117.585 33.3234C117.302 33.4779 117.508 33.9672 117.611 34.1732C117.765 34.5338 117.92 34.8685 118.229 35.1003ZM174.343 97.163C173.338 97.9098 172.282 98.5536 171.201 99.146C175.836 98.3734 178.72 95.0771 180.24 92.7852C180.266 92.1156 180.214 91.4461 180.111 90.7765C179.029 93.4032 176.66 95.4634 174.343 97.163ZM165.922 88.2528C168.008 87.7635 171.201 86.7849 174.858 85.008C172.205 85.008 168.935 86.6562 165.922 88.2528ZM172.179 90.7507C170.892 91.7808 169.553 92.6564 168.136 93.3775C172.978 93.1714 176.686 88.021 177.922 86.1154C177.51 85.7548 177.098 85.4973 176.609 85.317C175.759 87.4802 173.853 89.4116 172.179 90.7507ZM177.69 37.315C175.63 40.9718 174.446 44.8861 172.952 48.8262C172.076 51.1697 171.149 53.5389 170.093 55.8566C173.287 51.2469 175.63 44.2681 177.896 39.6584C180.446 34.4565 182.712 31.2117 186.343 29.5378C185.931 29.4348 185.519 29.3576 185.107 29.2803C181.759 30.4649 179.338 34.4308 177.69 37.315ZM117.405 32.6024C117.276 31.1345 116.864 29.7181 116.58 28.276C116.246 26.6021 116.014 24.954 115.473 23.3316C115.447 23.2286 115.293 23.2543 115.267 23.3573C115.241 24.9797 115.422 26.5248 115.731 28.1215C116.014 29.6924 116.323 31.289 117.173 32.6796C117.25 32.7569 117.43 32.7311 117.405 32.6024ZM176.712 30.4649C169.784 34.2247 167.724 42.0534 165.947 49.5988C173.75 30.2589 180.188 29.6666 183.021 29.0743C180.832 28.997 178.669 29.4091 176.712 30.4649Z" fill="#FFE4DF"/>
<path d="M146.118 160.926C142.744 160.874 139.37 160.797 136.023 160.514C132.984 160.256 129.997 159.612 126.984 159.252C125.413 159.072 125.336 159.535 126.881 159.973C129.842 160.823 133.035 161.157 136.048 161.467C139.422 161.801 142.77 161.853 146.092 161.441C147.74 161.261 147.766 160.951 146.118 160.926ZM148.719 161.389C149.079 161.441 149.465 161.441 149.852 161.415C150.933 161.338 150.959 160.72 149.903 160.694C149.543 160.668 149.156 160.694 148.822 160.745C147.92 160.9 147.869 161.286 148.719 161.389Z" fill="#68182B"/>
</svg>
