<svg width="303" height="207" viewBox="0 0 303 207" fill="none" xmlns="http://www.w3.org/2000/svg">
<path d="M160.539 160.075C158.633 160.075 156.702 160.075 154.822 160.049H147.225C132.675 160.049 117.61 160.049 103.807 155.929C103.704 155.903 103.627 155.8 103.601 155.697L103.009 151.242C102.983 151.139 103.034 151.01 103.137 150.933C103.189 150.907 103.24 150.882 103.318 150.882C103.369 150.882 103.421 150.882 103.446 150.907C106.331 152.71 111.12 153.251 113.953 153.586C114.314 153.637 114.648 153.663 114.958 153.714C126.546 155.157 138.495 155.285 148.796 155.285H155.517C166.153 155.285 177.175 155.26 187.759 153.74C188.171 153.689 188.66 153.611 189.227 153.56C192.317 153.174 197.467 152.53 200.48 150.598C200.532 150.573 200.583 150.547 200.635 150.547C200.686 150.547 200.738 150.573 200.789 150.598C200.893 150.65 200.944 150.779 200.918 150.882L200.274 155.723C200.249 155.826 200.171 155.929 200.068 155.955C187.218 159.766 172.926 160.075 160.539 160.075Z" fill="#D1FFFF"/>
<path d="M159.303 117.765C159.148 117.739 159.045 117.636 159.045 117.482C158.891 107.515 156.882 98.1674 154.719 89.5662C150.315 71.9775 151.268 55.1613 157.526 39.607C157.577 39.504 157.68 39.4268 157.783 39.4268H157.861C158.015 39.4783 158.092 39.607 158.067 39.7615C156.161 49.6504 157.809 59.9512 159.38 69.9431C159.689 71.926 159.998 73.9089 160.281 75.8661C161.646 85.2914 162.058 93.2745 161.543 100.923C161.183 106.279 160.693 111.996 159.586 117.507C159.56 117.636 159.431 117.739 159.303 117.739C159.328 117.765 159.303 117.765 159.303 117.765Z" fill="#FF915B"/>
<path d="M159.071 125.773C159.921 123.842 160.771 121.911 161.646 119.979C163.243 116.425 164.891 112.769 166.359 109.086C166.694 108.004 167.029 107 167.389 106.047C167.441 105.919 167.492 105.841 167.621 105.738C167.647 105.713 167.672 105.661 167.698 105.61C169.063 101.901 170.093 98.5277 170.84 95.2829C173.441 83.8747 172.308 71.5652 167.595 59.6419C166.797 57.659 165.921 55.6503 165.071 53.7189C162.728 48.4655 160.333 43.0575 159.689 37.3405C159.663 37.2118 159.56 37.083 159.432 37.083H159.406C159.277 37.083 159.148 37.1603 159.123 37.289C156.238 48.3882 158.196 60.1054 160.075 71.4622C160.462 73.8056 160.848 76.149 161.183 78.441C162.264 85.7804 162.522 93.6605 161.981 101.85C161.569 108.185 160.874 115.576 158.917 122.297C158.839 123.353 158.685 124.434 158.53 125.567C158.505 125.722 158.608 125.851 158.736 125.902H158.814C158.917 125.954 159.02 125.876 159.071 125.773Z" fill="#FF915B"/>
<path d="M144.135 201.073C148.59 201.073 153.071 200.944 157.398 200.841C159.072 200.79 160.745 200.764 162.394 200.712L162.986 200.687C169.887 200.532 177.021 200.378 183.948 199.116L184.592 199.013C187.682 198.472 194.069 197.339 195.073 194.3C196.232 190.746 196.567 186.626 196.901 182.66C197.056 180.78 197.211 179.003 197.442 177.278L199.914 158.659L200.018 157.912C200.018 157.809 199.992 157.706 199.914 157.655C199.863 157.603 199.786 157.578 199.734 157.578H199.657C186.137 161.44 171.458 161.466 157.269 161.492H153.097L149.955 161.518C147.689 161.543 145.397 161.543 143.079 161.543C131.053 161.543 117.147 161.234 104.322 157.552H104.245C104.168 157.552 104.116 157.578 104.065 157.629C103.988 157.681 103.962 157.784 103.962 157.887L104.116 159.148C105.378 168.78 106.64 178.385 107.954 188.017C108.031 188.557 108.108 189.098 108.16 189.665C108.366 191.184 108.546 192.729 108.829 194.249C109.396 197.416 116.786 198.626 120.34 199.193C120.727 199.27 121.061 199.322 121.345 199.348C127.68 200.532 134.942 201.073 144.135 201.073Z" fill="#ACFF1D"/>
<path d="M151.474 148.95C151.371 148.95 151.268 148.873 151.216 148.77C150.727 147.663 150.109 146.22 149.594 144.701C148.487 141.559 147.688 138.675 147.122 135.92C145.834 129.739 145.319 123.61 145.551 117.764C146.014 105.97 148.641 94.4328 151.165 83.2821C151.191 83.1534 151.319 83.0504 151.448 83.0504C151.577 83.0504 151.706 83.1534 151.731 83.2821C152.298 85.7286 152.916 88.2008 153.508 90.5957C155.517 98.5789 157.603 106.82 157.603 115.215C157.629 124.408 155.672 132.52 153.56 139.937C153.534 140.066 153.534 140.194 153.56 140.349C153.586 140.4 153.586 140.452 153.56 140.529C152.736 143.362 152.143 146.04 151.757 148.744C151.731 148.873 151.628 148.976 151.5 149.002C151.5 148.924 151.474 148.95 151.474 148.95ZM153.096 153.792C155.955 153.792 158.813 153.766 161.672 153.714C161.775 153.714 161.852 153.663 161.904 153.586C161.955 153.508 161.981 153.405 161.929 153.328C159.225 145.551 158.324 137.439 159.354 129.868C159.38 129.713 159.277 129.585 159.148 129.559H159.071C158.968 129.559 158.839 129.636 158.813 129.739C156.264 135.971 153.277 144.289 152.71 153.483C152.71 153.56 152.736 153.637 152.787 153.689C152.839 153.74 152.916 153.792 152.993 153.792H153.096ZM167.955 146.169C168.084 146.169 168.187 146.092 168.239 145.963C169.191 142.615 170.814 139.422 172.385 136.332C174.986 131.207 176.994 125.593 178.514 119.155C180.085 112.434 180.857 106.382 180.857 100.639C180.857 94.3556 179.904 88.072 178.848 82.2263C178.539 80.5524 178.256 78.8785 177.947 77.1789C174.702 59.3841 171.02 39.2202 178.333 21.8375C178.385 21.7087 178.333 21.5284 178.205 21.4769C178.153 21.4512 178.102 21.4512 178.076 21.4512C177.973 21.4512 177.896 21.5027 177.844 21.5799C173.492 28.0695 170.556 36.9797 168.908 48.8772C168.934 51.916 168.728 54.8517 168.316 57.6072C168.316 57.6587 168.316 57.7102 168.342 57.7617C168.779 58.7403 169.191 59.7446 169.603 60.749C173.286 70.0455 174.599 80.8614 173.209 90.3897C172.488 95.3341 171.097 100.407 168.882 106.33C168.882 106.356 168.857 106.408 168.882 106.408C166.153 113.721 165.045 121.112 165.354 129.662C165.509 133.756 166.256 137.825 166.977 141.765C167.234 143.156 167.492 144.572 167.724 145.963C167.698 146.066 167.801 146.169 167.955 146.169Z" fill="#FF821D"/>
<path d="M163.887 153.689C164.84 153.663 165.818 153.663 166.771 153.637C166.848 153.637 166.926 153.611 166.977 153.534C167.029 153.483 167.054 153.405 167.054 153.328C166.874 149.182 166.127 145.036 165.432 141.019C164.711 136.924 163.964 132.675 163.81 128.426C163.681 125.129 163.835 121.936 164.273 118.666C164.299 118.511 164.196 118.382 164.067 118.357H163.99C163.887 118.357 163.784 118.434 163.732 118.537L163.269 119.541C162.419 121.447 161.543 123.378 160.694 125.336C158.53 134.246 159.148 144.006 162.496 153.508C162.548 153.637 162.651 153.714 162.78 153.714C162.754 153.714 163.887 153.689 163.887 153.689ZM132.856 153.534C132.959 153.534 133.036 153.483 133.087 153.405C133.139 153.328 133.165 153.225 133.113 153.122C131.98 150.521 130.744 147.972 129.559 145.499C127.834 141.92 126.186 138.546 124.795 134.915C122.941 131.671 120.881 128.452 118.898 125.336C115.215 119.593 111.404 113.644 108.726 107.232C103.781 95.4887 100.949 82.9732 100.305 70.0714C100.305 69.9168 100.176 69.8138 100.021 69.7881H99.9957C99.867 69.7881 99.7382 69.8911 99.7125 70.0199C97.266 83.4367 99.3519 98.1412 106.151 115.009C108.056 119.722 110.219 124.357 112.305 128.812C115.859 136.435 119.567 144.315 121.962 152.71C121.988 152.839 122.091 152.916 122.22 152.916C122.426 152.916 122.606 152.942 122.735 152.942C125.851 153.225 129.147 153.405 132.856 153.534Z" fill="#FF821D"/>
<path d="M123.121 130.847C123.25 130.795 123.327 130.641 123.275 130.486C122.554 128.091 122.039 125.825 121.73 123.584C121.086 119.155 120.623 114.623 120.185 110.245C119.773 106.202 119.335 102.03 118.794 97.9353C118.794 97.858 118.743 97.8065 118.691 97.755C118.614 97.7035 118.563 97.6262 118.537 97.5747C116.683 94.6905 114.674 91.8835 112.717 89.1795C108.004 82.69 103.549 76.5352 101.309 69.0156C101.283 68.8868 101.154 68.8096 101.025 68.8096H100.974C100.819 68.8353 100.716 68.9641 100.742 69.1186C101.309 82.9733 104.399 96.2871 109.91 108.725C112.537 114.674 116.116 120.237 119.567 125.619C120.649 127.318 121.756 129.018 122.812 130.718C122.863 130.795 122.966 130.847 123.069 130.847C123.018 130.872 123.069 130.872 123.121 130.847Z" fill="#FF821D"/>
<path d="M140.994 153.715C141.071 153.715 141.148 153.689 141.2 153.637C141.251 153.586 141.277 153.509 141.277 153.431C141.174 151.629 141.019 149.723 140.813 147.354C139.732 144.83 138.521 142.307 137.388 139.86C135.019 134.838 132.547 129.636 130.899 124.177C129.302 118.924 128.478 113.799 128.375 108.545C128.349 107.515 128.349 106.485 128.349 105.481C128.323 100.511 128.272 95.3861 126.495 90.5704C125.079 86.7076 122.864 83.1538 120.727 79.703C119.851 78.3124 118.95 76.8445 118.126 75.4282C115.267 70.4322 113.31 64.947 111.662 59.7709C108.417 49.7018 107.104 40.2507 107.747 31.6752C107.747 31.5207 107.644 31.392 107.516 31.3662H107.464C107.335 31.3662 107.207 31.4435 107.181 31.5722C103.524 44.8603 108.288 57.7364 112.872 70.1747C114.855 75.5569 116.915 81.1451 118.306 86.7334C120.263 94.665 121.061 102.983 121.834 111.018C122.091 113.85 122.375 116.786 122.709 119.645C123.559 127.164 124.976 132.701 127.448 138.186C128.504 140.53 129.688 142.847 130.821 145.088C132.212 147.792 133.628 150.573 134.813 153.406C134.813 153.431 134.839 153.483 134.839 153.509C134.864 153.637 134.993 153.715 135.096 153.715C137.053 153.663 139.011 153.689 140.994 153.715Z" fill="#FF915B"/>
<path d="M140.297 144.572C140.426 144.547 140.529 144.392 140.503 144.263C139.834 137.98 138.907 131.619 138.006 125.464C136.229 113.361 134.4 100.871 134.555 88.4069C134.555 88.3812 134.503 88.2782 134.503 88.2524C131.619 76.0201 125.387 67.3417 118.176 57.2983L117.636 56.5258C112.614 49.4954 109.704 41.2032 108.777 31.1599C108.751 31.0054 108.648 30.9023 108.494 30.9023C108.339 30.9023 108.21 31.0311 108.21 31.1599C107.438 40.3791 108.983 50.5255 112.949 62.1912C114.932 68.037 117.327 73.2389 120.288 78.1061L121.241 79.6512C123.636 83.5398 126.082 87.5829 127.499 92.0122C128.838 96.1841 128.838 100.742 128.812 105.172V107.644C128.863 113.206 129.765 118.846 131.567 124.846C133.164 130.125 135.559 135.147 137.902 140.014C138.598 141.482 139.319 142.95 139.988 144.444C140.04 144.547 140.143 144.624 140.246 144.624C140.246 144.598 140.272 144.598 140.297 144.572Z" fill="#FF915B"/>
<path d="M150.959 153.792C151.113 153.792 151.242 153.663 151.242 153.509C151.294 152.479 151.397 151.474 151.5 150.418C151.397 149.929 151.088 149.337 150.804 148.822C150.65 148.564 150.521 148.307 150.444 148.101C149.877 146.736 149.336 145.319 148.847 143.903C147.946 141.354 147.199 138.495 146.504 135.147C145.396 129.765 144.907 123.919 145.087 117.739C145.422 106.331 148.023 94.9225 150.547 83.9006L151.216 80.9906V80.8618C148.564 68.1402 150.341 53.204 156.238 38.8343C156.264 38.7828 156.264 38.757 156.264 38.7055C155.774 33.3491 154.77 27.7351 153.07 21.0395C151.886 16.4041 150.366 11.1507 146.941 7.54539C146.89 7.49389 146.813 7.44238 146.735 7.44238C146.684 7.44238 146.632 7.46814 146.581 7.49389C146.452 7.57114 146.426 7.72566 146.478 7.85442C150.083 16.7132 150.521 25.5977 147.946 36.6711C146.632 42.3108 144.83 47.9505 143.104 53.3843C140.529 61.4962 137.851 69.8656 136.692 78.5184C136.306 81.4026 136.048 84.4929 135.945 87.6346C135.945 87.6604 135.971 87.7891 135.971 87.8149C135.997 87.9437 135.997 88.0724 135.919 88.3299C135.585 100.897 137.542 113.644 139.448 126.005C140.838 135.019 142.28 144.341 142.795 153.483C142.795 153.637 142.924 153.766 143.079 153.766C145.68 153.792 148.306 153.792 150.959 153.792Z" fill="#FF821D"/>
<path d="M167.003 54.2859C167.132 54.2602 167.235 54.1572 167.235 54.0284C167.364 52.5348 167.415 50.9382 167.415 49.2128C167.389 49.1098 167.389 48.981 167.389 48.878L167.415 48.5947C167.286 34.9203 162.29 16.1212 148.693 8.16381C148.642 8.13806 148.59 8.1123 148.539 8.1123C148.462 8.1123 148.384 8.13806 148.333 8.21531C148.23 8.31832 148.23 8.47283 148.307 8.57584C150.702 11.6919 152.015 15.7092 153.097 19.5978C154.719 25.495 155.878 31.2893 156.47 36.826C156.496 36.9547 156.573 37.0577 156.728 37.0835H156.779C156.882 37.0835 157.011 37.0062 157.037 36.9032C157.887 34.9976 158.788 33.1177 159.741 31.315C159.87 31.0832 160.05 30.9802 160.282 30.9802C160.359 30.9802 160.462 31.006 160.591 31.0317C160.797 31.0575 161.157 31.1862 161.106 31.6755C160.205 39.8132 163.501 47.1011 166.668 54.1572C166.72 54.2602 166.823 54.3374 166.926 54.3374C166.977 54.2859 167.003 54.2859 167.003 54.2859ZM168.806 153.561C170.016 153.535 171.226 153.483 172.437 153.432C172.591 153.432 172.72 153.252 172.694 153.097C172.617 149.363 174.368 145.989 175.888 143.002L176.995 140.865C179.158 136.693 181.193 132.779 182.892 128.401C187.605 116.271 189.794 103.395 189.279 91.1373C188.918 82.8708 186.935 74.6302 185.004 66.6985C183.922 62.1919 182.789 57.5565 181.991 52.9726C179.802 40.56 179.081 30.4652 179.699 21.1687C179.699 21.0399 179.622 20.9111 179.493 20.8596H179.416C179.313 20.8596 179.21 20.9369 179.158 21.0399C171.329 38.4741 174.858 57.8655 178.283 76.6131C178.798 79.3943 179.287 82.124 179.75 84.828C181.682 96.2105 181.527 106.898 179.338 117.482C178.154 123.225 176.454 128.607 174.291 133.474C173.647 134.916 172.926 136.358 172.205 137.749C170.48 141.174 168.677 144.728 168.059 148.719C168.291 150.367 168.419 151.861 168.497 153.329C168.522 153.458 168.651 153.561 168.806 153.561Z" fill="#FF821D"/>
<path d="M186.523 124.254C190.798 115.808 194.069 107.206 196.489 97.8841C197.726 93.1457 198.781 88.2528 199.811 83.5401L200.558 80.0894C200.867 78.7245 201.176 77.3596 201.511 76.0205C202.335 72.647 203.185 69.1447 203.494 65.6166C203.494 65.4621 203.417 65.3334 203.288 65.3076H203.211C203.108 65.3076 202.979 65.3849 202.953 65.4879C200.121 71.9517 196.464 79.3683 190.644 85.3686C190.566 85.4458 190.463 85.5231 190.386 85.5488C190.257 85.6003 190.18 85.7291 190.206 85.8578C190.463 87.7893 190.644 89.5147 190.772 91.1885C191.468 100.949 189.845 111.996 186.008 124.048C185.957 124.203 186.034 124.357 186.163 124.409C186.189 124.435 186.24 124.435 186.266 124.435C186.369 124.409 186.472 124.357 186.523 124.254Z" fill="#FF915B"/>
<path d="M174.496 153.354C176.376 153.251 178.282 153.148 180.162 153.019C180.291 153.019 180.394 152.916 180.419 152.813C181.862 147.792 184.514 143.336 187.089 139.01C188.016 137.439 188.969 135.843 189.87 134.194C193.733 127.19 196.849 119.155 199.425 109.653C202.695 97.5491 204.24 84.261 204.317 67.8311C204.317 67.6766 204.189 67.5479 204.06 67.5479H204.034C203.88 67.5479 203.777 67.6509 203.751 67.8054C203.287 71.2047 202.438 74.5782 201.588 77.8745L201.407 78.6213C200.609 81.7373 199.914 84.9563 199.244 88.0466C198.6 91.0338 197.931 94.0983 197.158 97.1113C194.197 108.906 189.819 119.773 183.716 130.435C182.48 133.551 181.244 136.28 179.904 138.83C179.441 139.705 178.926 140.607 178.411 141.508C176.299 145.165 174.136 148.925 174.187 153.097C174.187 153.174 174.213 153.251 174.29 153.303C174.342 153.328 174.419 153.354 174.496 153.354Z" fill="#FF915B"/>
<path d="M120.057 152.839C120.134 152.839 120.237 152.788 120.288 152.736C120.34 152.659 120.366 152.556 120.34 152.479C119.413 149.286 118.254 146.015 116.838 142.487C116.786 142.384 116.683 142.307 116.58 142.307L116.142 142.358C112.048 142.873 102.494 144.084 102.622 147.895C103.292 150.625 108.983 152.247 120.057 152.839C120.031 152.839 120.031 152.839 120.057 152.839ZM182.377 152.865C190.54 152.402 200.069 151.346 201.33 147.328C201.202 144.341 193.064 142.976 186.935 142.229H186.909C186.806 142.229 186.703 142.281 186.652 142.384C185.158 145.036 183.278 148.59 182.068 152.505C182.042 152.608 182.068 152.685 182.145 152.762C182.171 152.839 182.274 152.865 182.377 152.865Z" fill="#67D8EB"/>
<path d="M107.902 188.016C107.979 188.557 108.056 189.098 108.108 189.664C108.314 191.184 108.494 192.729 108.777 194.248C109.344 197.416 116.735 198.626 120.288 199.193C120.675 199.27 121.009 199.322 121.293 199.347C127.679 200.506 134.916 201.047 144.109 201.047C148.564 201.047 153.045 200.918 157.371 200.815C159.045 200.764 160.719 200.738 162.367 200.686L162.96 200.661C169.861 200.506 176.995 200.352 183.922 199.09L184.566 198.987C187.656 198.446 194.043 197.313 195.047 194.274C196.206 190.72 196.54 186.6 196.875 182.634C196.927 182.145 196.953 181.681 197.004 181.218C194.995 183.458 192.755 185.493 190.283 187.192C187.373 189.227 184.179 190.926 180.832 192.111C176.789 193.553 172.591 194.094 168.316 194.506C158.891 195.407 149.414 196.463 139.937 196.36C135.199 196.309 130.409 196.025 125.722 195.304C121.73 194.686 117.662 193.708 114.211 191.544C111.198 189.664 109.035 186.883 107.335 183.87C107.541 185.261 107.721 186.651 107.902 188.016Z" fill="#98B718"/>
<path d="M168.11 95.9778C165.535 95.128 163.861 91.9348 163.114 89.5398C162.625 87.9689 162.367 86.3208 162.187 84.6984C162.007 83.2048 162.187 81.4279 161.672 80.0115C161.672 79.9857 161.646 79.9857 161.621 80.0115C161.543 80.1918 161.492 80.372 161.44 80.578C162.29 87.3251 162.47 94.4842 161.981 101.901C161.569 108.236 160.874 115.627 158.917 122.348C158.839 123.404 158.685 124.485 158.53 125.619C158.505 125.773 158.608 125.902 158.736 125.953H158.814C158.917 125.953 159.045 125.876 159.071 125.773C159.921 123.842 160.771 121.91 161.646 119.979C163.243 116.425 164.891 112.768 166.359 109.086C166.694 108.004 167.029 107 167.389 106.047C167.441 105.918 167.492 105.841 167.621 105.738C167.647 105.712 167.672 105.661 167.698 105.609C168.986 102.133 169.964 98.9393 170.685 95.8748C169.836 96.1581 168.96 96.2611 168.11 95.9778Z" fill="#FF564D"/>
<path d="M159.303 117.765H159.328C159.457 117.765 159.586 117.662 159.612 117.533C160.745 112.022 161.208 106.305 161.569 100.949C161.775 97.6526 161.826 94.279 161.697 90.751C161.62 91.0343 161.543 91.3175 161.491 91.6008C161.363 92.2961 161.337 92.9914 161.002 93.6352C160.281 95.0773 158.813 95.4894 157.474 94.6653C156.702 94.2018 156.032 93.5065 155.491 92.7339C157.32 100.434 158.891 108.7 159.019 117.456C159.045 117.636 159.148 117.765 159.303 117.765Z" fill="#FF564D"/>
<path d="M143.491 164.35C151.397 164.428 159.277 164.299 167.157 164.016C174.625 163.732 182.119 163.449 189.536 162.496C192.935 162.058 196.309 161.466 199.631 160.616C199.708 159.972 199.811 159.303 199.888 158.659L199.991 157.912C199.991 157.809 199.965 157.706 199.888 157.655C199.837 157.603 199.759 157.578 199.708 157.578H199.631C186.111 161.44 171.432 161.466 157.243 161.492H153.071L149.929 161.518C147.663 161.543 145.371 161.543 143.053 161.543C131.027 161.543 117.121 161.234 104.296 157.552H104.219C104.142 157.552 104.09 157.578 104.039 157.629C103.961 157.681 103.936 157.784 103.936 157.887L104.064 158.942C109.421 161.157 115.421 162.136 121.035 162.908C128.477 163.938 135.971 164.273 143.491 164.35Z" fill="#CFFF73"/>
<path d="M181.218 78.4666C181.424 79.9088 181.45 81.3766 181.579 82.8445C181.579 82.9475 181.424 82.9475 181.399 82.8703C180.935 81.2479 180.394 79.677 180.085 78.0031C179.802 76.4322 179.544 74.8356 179.287 73.2647C178.798 70.3032 178.36 67.3417 177.999 64.3544C177.587 61.1869 177.252 57.9937 176.866 54.8261C176.506 51.7101 175.785 48.3881 176.197 45.2721C176.197 45.2206 176.248 45.2206 176.274 45.2721C177.252 48.1821 177.278 51.5299 177.639 54.5944C177.999 57.8134 178.489 61.0324 178.978 64.2514C179.467 67.419 179.931 70.5865 180.446 73.754C180.703 75.2991 180.986 76.87 181.218 78.4666ZM171.51 43.2119C171.407 44.5253 170.763 45.8129 170.505 47.1005C170.274 48.1821 170.171 49.3152 170.093 50.4225C170.016 51.5814 169.965 52.766 170.068 53.9248C170.171 55.1094 170.505 56.294 170.789 57.4271C170.814 57.4786 170.892 57.4786 170.892 57.4271C170.866 56.2425 170.995 55.0837 171.02 53.9248C171.046 52.766 170.995 51.5814 171.02 50.4225C171.046 49.2637 171.149 48.0791 171.226 46.9202C171.304 45.7356 171.201 44.345 171.638 43.2119C171.638 43.1604 171.51 43.1347 171.51 43.2119ZM162.033 29.5118C161.775 28.2242 161.492 26.9623 161.029 25.7262C160.797 25.1339 160.539 24.5416 160.282 23.9751C159.998 23.357 159.792 22.7132 159.458 22.1209C158.84 20.9621 158.093 19.8805 157.32 18.8246C156.985 18.3611 156.651 17.7688 156.187 17.4083C156.136 17.3567 155.569 17.022 155.492 17.2022C155.337 17.5628 155.518 17.8975 155.698 18.1808C156.033 18.6959 156.393 19.1594 156.728 19.6487C157.423 20.6788 157.964 21.7861 158.634 22.842C159.277 23.872 159.844 24.9021 160.333 26.0095C160.874 27.1683 161.466 28.3272 161.93 29.5118C161.981 29.589 162.059 29.5633 162.033 29.5118ZM147.431 47.6928C146.376 49.1092 145.964 50.8088 145.448 52.4827C144.882 54.2854 144.341 56.0623 143.852 57.8907C142.873 61.5217 141.998 65.1528 141.277 68.8353C140.556 72.4149 139.963 76.0202 139.474 79.6255C139.242 81.4024 138.933 83.1793 138.83 84.9562C138.701 86.8876 138.83 88.8448 138.753 90.8019C138.753 90.8534 138.83 90.8792 138.856 90.8019C139.113 88.9478 139.577 87.1709 139.912 85.3425C140.272 83.5141 140.427 81.6341 140.736 79.78C141.302 76.1489 141.946 72.5436 142.693 68.9383C143.44 65.333 144.238 61.7535 145.114 58.1997C145.552 56.4485 145.989 54.7231 146.453 52.972C146.916 51.2208 147.612 49.4955 147.534 47.667C147.509 47.667 147.457 47.667 147.431 47.6928Z" fill="#FDCE1A"/>
<path d="M116.4 59.9507C114.829 57.3239 113.67 54.5169 112.485 51.71H112.459C112.408 57.3497 116.606 62.3971 119.902 66.6205C121.807 69.0412 123.739 71.4104 125.542 73.9341C127.396 76.535 128.786 79.1103 130.022 82.0718C130.048 82.1233 130.1 82.0975 130.1 82.046C128.889 76.3805 124.898 71.5134 121.473 67.0325C119.67 64.7406 117.893 62.4486 116.4 59.9507Z" fill="#FEC771"/>
<path d="M108.803 88.7932C107.953 87.5313 107.206 86.2179 106.511 84.8531C105.815 83.4625 105.3 81.9688 104.347 80.7327C104.322 80.707 104.296 80.707 104.296 80.7585C104.373 82.2264 105.043 83.5912 105.687 84.9046C106.408 86.3725 107.232 87.8146 108.107 89.2052C108.931 90.5186 109.858 91.7804 110.863 92.965C111.893 94.2011 113.309 95.2055 114.494 96.3128C114.52 96.3385 114.597 96.287 114.545 96.2613C113.438 95.1539 112.665 93.8921 111.713 92.6817C110.682 91.3941 109.704 90.1323 108.803 88.7932Z" fill="#FDCE1A"/>
<path d="M200.3 96.5452C198.807 101.129 197.931 105.867 196.412 110.451C194.892 115.009 193.708 119.671 192.06 124.203C192.06 124.229 192.085 124.255 192.111 124.203C193.965 119.671 195.948 115.164 197.184 110.4C198.369 105.842 199.837 101.258 200.326 96.5452C200.326 96.5452 200.3 96.5194 200.3 96.5452ZM194.815 96.0301C195.253 94.691 195.562 93.3519 195.948 91.9871C196.334 90.6479 196.798 89.3346 197.107 87.9697C197.416 86.6049 197.699 85.24 198.008 83.8751C198.317 82.4845 198.292 81.0939 198.523 79.6775C198.523 79.6518 198.498 79.6518 198.498 79.6775C198.137 81.0424 197.571 82.3042 197.262 83.6691C196.952 85.034 196.618 86.3988 196.334 87.7637C196.025 89.1286 195.845 90.5192 195.588 91.9098C195.33 93.2747 194.97 94.6395 194.738 96.0301C194.712 96.0559 194.789 96.0816 194.815 96.0301Z" fill="#FEC771"/>
<path d="M163.732 142.384C163.449 140.916 163.217 139.422 162.857 137.954C162.496 136.461 162.522 134.89 162.445 133.345C162.368 131.98 162.522 130.409 162.059 129.121C162.033 129.018 161.878 129.018 161.853 129.121C161.44 130.486 161.75 132.109 161.878 133.525C162.007 134.967 162.316 136.409 162.368 137.877C162.393 139.268 162.548 140.607 162.754 141.997C162.857 142.77 162.986 143.568 163.166 144.315C163.372 145.088 163.784 145.757 164.016 146.504C164.041 146.581 164.17 146.581 164.17 146.478C164.093 145.706 164.17 144.933 164.067 144.186C163.964 143.568 163.835 142.976 163.732 142.384ZM149.62 38.2162C149.517 38.4738 149.337 38.7055 149.234 38.9888C149.131 39.2721 149.054 39.5811 148.976 39.8901C148.796 40.5082 148.616 41.1262 148.41 41.7443C148.23 42.3366 148.075 42.9546 147.895 43.5469C147.818 43.8302 147.663 44.165 147.663 44.474C147.663 44.7573 147.74 45.0663 147.843 45.3238C147.869 45.3753 147.946 45.4268 147.998 45.3753C148.204 45.2208 148.436 45.0406 148.59 44.8345C148.822 44.577 148.873 44.2165 148.976 43.9075C149.157 43.3152 149.337 42.7229 149.491 42.1048C149.62 41.4868 149.723 40.8687 149.826 40.2507C149.878 39.9416 149.929 39.6584 149.981 39.3493C150.032 38.9888 149.929 38.654 149.904 38.2935C149.904 38.1647 149.698 38.0617 149.62 38.2162Z" fill="#FDCE1A"/>
<path d="M169.218 78.6732C169.063 74.1409 168.471 69.5312 167.209 65.1534C166.565 62.9387 165.793 60.7497 164.891 58.6381C164.479 57.6595 164.067 56.7066 163.604 55.7538C163.346 55.213 163.089 54.6207 162.754 54.1057C162.393 53.5649 161.878 53.2559 161.518 52.6893C161.492 52.6378 161.415 52.6893 161.441 52.7408C161.672 53.2816 161.698 54.0284 161.904 54.595C162.084 55.11 162.342 55.5993 162.574 56.0886C163.089 57.2474 163.604 58.4063 164.042 59.5651C164.814 61.5738 165.509 63.6082 166.127 65.6941C167.415 69.969 168.445 74.2696 169.063 78.699C169.115 78.7505 169.244 78.7247 169.218 78.6732ZM169.089 80.2184C169.089 80.1669 169.012 80.1926 169.012 80.2184C169.166 81.9438 169.295 83.6949 169.244 85.4461C169.192 87.2487 168.883 89.0514 168.548 90.8025C168.548 90.8283 168.574 90.8283 168.574 90.8025C169.836 87.5577 170.093 83.5919 169.089 80.2184ZM157.269 69.866C156.882 67.8058 156.496 65.7714 156.187 63.7112C156.007 62.4751 155.878 61.2133 155.724 59.9772C155.595 58.8698 155.337 57.7625 155.415 56.6294C155.415 56.5521 155.312 56.5521 155.312 56.6294C155.415 57.7367 155.234 58.8698 155.286 59.9772C155.337 61.0845 155.492 62.2176 155.621 63.3249C155.852 65.2564 156.187 67.1878 156.496 69.0934C156.831 71.1536 157.269 73.188 157.604 75.2482C157.964 77.6174 158.016 79.9866 158.247 82.3558C158.247 82.4073 158.325 82.4073 158.35 82.3558C158.608 80.1411 158.325 77.8749 158.067 75.6602C157.835 73.7288 157.629 71.7717 157.269 69.866Z" fill="#FEC771"/>
<path d="M185.982 124.023C185.931 124.177 186.008 124.332 186.137 124.383C186.162 124.409 186.214 124.409 186.24 124.409C186.343 124.409 186.446 124.358 186.497 124.255C187.038 123.199 187.553 122.143 188.042 121.087C188.3 120.572 188.531 120.031 188.763 119.516C189.021 118.975 189.278 118.435 189.51 117.894L190.592 115.344C190.695 115.113 190.798 114.907 190.875 114.675C191.313 113.619 191.725 112.563 192.137 111.482C192.137 111.456 192.163 111.43 192.163 111.404C192.523 110.426 192.884 109.447 193.218 108.469C193.27 108.34 193.296 108.237 193.347 108.108C194.506 104.786 195.536 101.413 196.437 97.9102C196.437 97.936 196.412 97.9617 196.412 98.0132C196.309 97.9102 194.171 102.52 193.811 102.958C193.579 103.215 193.553 103.395 193.347 103.189C193.141 102.983 193.218 102.546 193.218 102.262C193.064 99.7901 193.09 97.3437 193.115 94.8715C193.167 91.1116 193.218 87.1201 192.394 83.386C191.828 84.0555 191.235 84.7251 190.617 85.3689C190.54 85.4462 190.437 85.5234 190.36 85.5492C190.231 85.6007 190.154 85.7294 190.18 85.8582C190.437 87.7896 190.617 89.515 190.746 91.1889C191.441 100.923 189.845 111.997 185.982 124.023ZM139.757 137.8C139.551 136.126 139.319 134.478 139.087 132.804C138.237 130.976 137.542 129.096 136.95 127.165C135.431 122.349 134.658 117.43 134.091 112.409C133.551 107.593 132.907 102.777 132.057 98.0132C131.259 93.6096 129.92 89.7468 127.241 86.1415C125.928 84.3646 124.46 82.6907 123.095 80.9653C122.297 79.9867 121.576 78.9566 120.829 77.9265C120.056 76.8707 119.207 75.9179 118.795 74.656C118.769 74.6045 118.666 74.6303 118.692 74.6818C119.001 75.4286 119.258 76.1496 119.541 76.8707C119.773 77.2827 120.031 77.6948 120.262 78.1068L121.215 79.6519C123.61 83.5405 126.057 87.5836 127.473 92.013C128.812 96.1848 128.812 100.743 128.786 105.172V107.645C128.838 113.207 129.739 118.847 131.542 124.847C133.139 130.126 135.534 135.148 137.877 140.015C138.572 141.483 139.293 142.951 139.963 144.444C140.014 144.547 140.117 144.625 140.22 144.625H140.298C140.426 144.599 140.529 144.444 140.504 144.316C140.298 142.487 140.092 140.659 139.86 138.805C139.834 138.444 139.783 138.109 139.757 137.8Z" fill="#FF564D"/>
<path d="M120.159 110.297C120.134 109.936 120.082 109.576 120.056 109.189C120.056 109.988 120.056 110.786 120.082 111.559C120.108 112.125 120.082 112.743 120.134 113.361C120.056 113.284 119.953 113.232 119.876 113.155C118.614 112.099 117.378 111.018 116.194 109.859C113.85 107.541 111.713 104.992 109.859 102.262C108.03 99.6096 106.382 96.7768 105.069 93.8411C104.476 92.5535 104.013 91.2144 103.524 89.901C104.296 93.1458 105.197 96.339 106.253 99.4808V99.5066C106.768 101.077 107.335 102.623 107.927 104.168C107.927 104.193 107.953 104.219 107.953 104.219C108.545 105.764 109.189 107.284 109.859 108.777C112.485 114.726 116.065 120.289 119.516 125.671C120.597 127.37 121.705 129.07 122.76 130.77C122.812 130.847 122.915 130.898 123.018 130.898C123.069 130.898 123.095 130.898 123.147 130.873C123.275 130.821 123.353 130.667 123.301 130.512C122.58 128.117 122.065 125.851 121.756 123.611C121.087 119.181 120.623 114.649 120.159 110.297ZM129.559 145.5C129.379 145.139 129.198 144.779 129.044 144.418L128.838 144.65C127.885 145.294 126.752 145.629 125.645 145.345C123.636 144.856 122.554 142.796 121.705 141.096C120.803 139.268 120.185 137.285 119.387 135.405C118.486 133.268 117.481 131.156 116.425 129.07C112.202 120.829 107.103 113.026 103.266 104.605C102.39 102.674 101.592 100.691 100.871 98.7082C101.463 101.283 102.21 103.884 103.06 106.563L103.215 107.026C103.575 108.108 103.936 109.215 104.348 110.322C104.451 110.606 104.554 110.915 104.657 111.198C105.12 112.46 105.609 113.748 106.125 115.061C108.03 119.774 110.193 124.409 112.279 128.864C115.833 136.487 119.541 144.367 121.936 152.762C121.962 152.891 122.065 152.968 122.194 152.968C122.4 152.968 122.58 152.994 122.709 152.994C125.825 153.226 129.121 153.406 132.83 153.535C132.933 153.535 133.01 153.483 133.061 153.406C133.113 153.329 133.139 153.226 133.087 153.123C131.98 150.522 130.769 147.972 129.559 145.5ZM168.239 145.963C169.192 142.616 170.814 139.422 172.385 136.332C174.986 131.207 176.995 125.594 178.514 119.155C180.085 112.434 180.857 106.382 180.857 100.64C180.857 99.8671 180.832 99.1203 180.806 98.3477C180.806 98.0644 180.78 97.7812 180.754 97.4979C180.729 97.0086 180.703 96.5451 180.677 96.0558C180.651 95.6952 180.626 95.3605 180.6 94.9999C180.574 94.5879 180.548 94.2016 180.497 93.7896C180.471 93.3775 180.42 92.9913 180.368 92.5792C180.342 92.2445 180.291 91.8839 180.265 91.5491C180.214 91.1114 180.162 90.6478 180.085 90.21C180.059 89.9268 180.008 89.6435 179.982 89.3602C179.905 88.8709 179.853 88.3559 179.776 87.8666C179.75 87.6348 179.724 87.4288 179.673 87.197C179.595 86.6305 179.492 86.0897 179.415 85.5231C179.389 85.3944 179.364 85.2399 179.338 85.1111C179.235 84.4673 179.132 83.8235 179.003 83.1797H178.977C178.128 86.9395 178.05 90.8023 177.458 94.6136C176.917 98.1932 176.119 101.747 175.037 105.224C174.11 108.237 172.926 111.147 171.2 113.799C169.655 116.168 167.801 118.022 165.612 119.671C165.535 120.366 165.483 121.061 165.406 121.756C165.38 121.962 165.38 122.168 165.355 122.374C165.303 122.967 165.277 123.585 165.252 124.177C165.226 124.589 165.226 125.001 165.226 125.413C165.226 125.877 165.2 126.34 165.2 126.804C165.2 127.731 165.2 128.658 165.252 129.637C165.406 133.731 166.153 137.8 166.874 141.74C167.131 143.131 167.389 144.547 167.621 145.938C167.646 146.066 167.749 146.169 167.904 146.169H167.93C168.084 146.169 168.213 146.092 168.239 145.963Z" fill="#F26200"/>
<path d="M187.167 130.409L187.115 130.306C187.115 130.306 189.278 121.859 190.617 116.528C190.128 117.687 189.613 118.872 189.072 120.005C188.557 121.112 188.042 122.22 187.501 123.301C187.347 123.636 187.167 123.971 186.986 124.305C186.574 125.13 186.162 125.928 185.724 126.752C185.081 127.962 184.411 129.173 183.716 130.383C182.48 133.499 181.244 136.229 179.904 138.778C179.441 139.654 178.926 140.555 178.411 141.456C176.299 145.113 174.136 148.873 174.187 153.045C174.187 153.122 174.213 153.199 174.29 153.251C174.342 153.302 174.419 153.328 174.496 153.328H174.522C176.402 153.225 178.308 153.122 180.188 152.993C180.316 152.993 180.419 152.89 180.445 152.787C181.887 147.766 184.54 143.311 187.115 138.984C187.141 138.933 187.192 138.855 187.218 138.804C185.596 137.568 186.6 132.675 187.167 130.409Z" fill="#FF564D"/>
<path d="M162.522 149.002C161.981 147.74 161.492 146.427 161.131 145.01C160.462 142.435 160.101 139.782 159.895 137.156C159.741 135.327 159.741 133.499 159.612 131.696C159.355 134.323 159.329 137.027 159.535 139.731C159.535 139.808 159.535 139.86 159.561 139.937C159.638 140.787 159.715 141.662 159.818 142.512V142.564C159.921 143.414 160.076 144.263 160.23 145.113C160.256 145.242 160.282 145.396 160.307 145.525C160.462 146.324 160.642 147.148 160.822 147.946C160.822 147.997 160.848 148.023 160.848 148.075C161.054 148.899 161.26 149.723 161.518 150.521C161.569 150.701 161.621 150.907 161.672 151.088C161.93 151.912 162.187 152.736 162.471 153.534C162.522 153.663 162.625 153.74 162.754 153.74L163.887 153.714C164.84 153.689 165.818 153.689 166.771 153.663C166.848 153.663 166.926 153.637 166.977 153.56C167.029 153.508 167.054 153.431 167.054 153.354C167.003 152.324 166.926 151.294 166.823 150.264C164.247 153.663 162.522 149.002 162.522 149.002ZM177.021 140.89C179.184 136.718 181.218 132.804 182.918 128.426C187.63 116.297 189.819 103.42 189.304 91.1624C189.253 90.1581 189.201 89.1537 189.098 88.1237C189.073 87.7631 189.021 87.4283 188.995 87.0678C188.918 86.424 188.867 85.7545 188.789 85.1106C188.738 84.6729 188.661 84.2608 188.609 83.823C188.532 83.2565 188.455 82.6642 188.351 82.0976L188.12 80.707C188.017 80.1662 187.939 79.6512 187.836 79.1104C187.733 78.6211 187.63 78.1061 187.553 77.6168L187.244 76.1489C187.141 75.6081 187.012 75.0673 186.884 74.5265C186.781 74.0887 186.678 73.6509 186.6 73.2131C186.472 72.5951 186.317 72.0028 186.188 71.3847C186.111 71.0242 186.034 70.6637 185.931 70.3289C185.751 69.5306 185.544 68.7323 185.364 67.9082C185.39 68.14 185.441 68.3717 185.519 68.6035C185.57 73.3419 186.188 78.0803 186.575 82.793C187.012 88.2782 187.321 93.7891 187.167 99.2743C186.884 109.421 184.798 119.593 179.57 128.374C178.282 130.563 176.815 132.675 174.96 134.452C174.96 134.452 174.265 135.044 173.235 135.791C172.9 136.435 172.591 137.104 172.256 137.748C170.531 141.173 168.728 144.727 168.11 148.718C168.342 150.367 168.471 151.86 168.548 153.328C168.548 153.483 168.677 153.611 168.831 153.611C170.042 153.586 171.252 153.534 172.462 153.483C172.617 153.483 172.746 153.302 172.72 153.148C172.643 149.414 174.394 146.04 175.913 143.053L177.021 140.89Z" fill="#F26200"/>
<path d="M161.235 151.088C161.054 150.496 160.9 149.878 160.72 149.286C158.711 150.033 156.445 149.337 156.058 145.783C155.595 141.534 158.402 135.019 159.046 133.628C159.071 133.113 159.097 132.573 159.149 132.058C159.2 131.336 159.277 130.59 159.38 129.869C159.406 129.714 159.303 129.585 159.174 129.56H159.097C158.994 129.56 158.865 129.637 158.84 129.74C156.29 135.972 153.303 144.29 152.736 153.483C152.736 153.561 152.762 153.638 152.814 153.689C152.865 153.741 152.942 153.792 153.02 153.792H153.123C155.981 153.792 158.84 153.767 161.698 153.715C161.801 153.715 161.878 153.664 161.93 153.586C161.981 153.509 162.007 153.406 161.956 153.329C161.698 152.608 161.466 151.835 161.235 151.088Z" fill="#F26200"/>
<path d="M139.268 143.903C138.856 143.001 138.418 142.074 138.006 141.199C136.255 149.645 132.572 143.594 132.572 143.594C132.289 143.079 132.031 142.589 131.748 142.074C128.658 135.945 126.546 129.327 125.619 122.503C124.563 114.931 125.696 107.309 124.821 99.7377C123.945 92.3468 120.572 86.0376 116.992 79.651C116.271 78.3634 115.576 77.0501 114.906 75.7109C115.524 77.4363 116.091 79.1617 116.657 80.8871C116.735 81.0931 116.786 81.2992 116.863 81.5052C117.069 82.149 117.25 82.7928 117.43 83.4108C117.507 83.6426 117.559 83.8744 117.636 84.1061C117.868 84.9302 118.1 85.78 118.306 86.6299C120.263 94.5615 121.061 102.879 121.834 110.914C122.091 113.747 122.374 116.683 122.709 119.541C123.559 127.061 124.975 132.597 127.448 138.083C128.503 140.426 129.688 142.744 130.821 144.984C132.212 147.688 133.628 150.469 134.813 153.302C134.813 153.328 134.838 153.379 134.838 153.405C134.864 153.534 134.993 153.611 135.096 153.611C137.053 153.663 139.036 153.714 140.993 153.74C141.07 153.74 141.148 153.714 141.199 153.663C141.251 153.611 141.276 153.534 141.276 153.457C141.173 151.654 141.019 149.748 140.813 147.379C140.298 146.195 139.783 145.036 139.268 143.903Z" fill="#FF564D"/>
<path d="M150.445 148.127C149.878 146.762 149.337 145.346 148.848 143.929C147.947 141.38 147.2 138.521 146.504 135.173C145.397 129.791 144.908 123.945 145.088 117.765C145.423 106.357 148.024 94.9485 150.548 83.9266L151.217 81.0166V80.8878C151.063 80.141 150.934 79.3942 150.805 78.6474C150.754 78.3899 150.728 78.1066 150.676 77.8233C150.599 77.3341 150.522 76.8705 150.47 76.3812C150.419 76.0464 150.393 75.6859 150.367 75.3511C150.316 74.9391 150.29 74.5271 150.239 74.115C150.213 73.7287 150.187 73.3167 150.161 72.9304C150.136 72.5699 150.11 72.2094 150.11 71.8231C150.084 71.3853 150.058 70.9475 150.058 70.484V69.5826C150.058 69.0676 150.033 68.5526 150.058 68.0375V67.9088C150.084 66.4666 150.136 65.0245 150.264 63.5566C148.513 67.4452 147.38 71.7201 146.917 75.9434C146.35 80.9909 146.479 86.1155 146.067 91.1887C145.629 96.5709 144.419 101.721 143.157 106.949C142.539 109.473 141.998 111.996 141.766 114.572C141.509 117.353 141.612 120.186 141.74 122.967C141.946 127.628 142.513 132.341 141.509 136.847C141.431 136.744 141.354 136.616 141.251 136.513C141.148 136.358 141.071 136.203 140.968 136.049C141.148 137.414 141.354 138.753 141.509 140.118C141.56 140.427 141.586 140.736 141.637 141.045C141.766 142.049 141.895 143.079 141.998 144.084C142.049 144.521 142.101 144.959 142.127 145.371C142.23 146.324 142.307 147.277 142.41 148.23C142.436 148.642 142.487 149.054 142.513 149.466C142.616 150.805 142.719 152.118 142.796 153.457C142.796 153.612 142.925 153.741 143.079 153.741C145.732 153.766 148.359 153.792 150.985 153.792C151.14 153.792 151.269 153.663 151.269 153.509C151.32 152.479 151.423 151.475 151.526 150.419C151.423 149.929 151.114 149.337 150.831 148.822C150.651 148.565 150.522 148.307 150.445 148.127Z" fill="#F26200"/>
<path d="M153.561 140.324C153.509 140.169 153.509 140.066 153.561 139.912C155.672 132.495 157.629 124.383 157.604 115.189C157.578 106.794 155.518 98.5536 153.509 90.5704C153.123 89.0768 152.736 87.5317 152.376 85.9865C152.299 85.8063 152.247 85.626 152.17 85.4457C152.015 84.7504 151.861 84.0809 151.681 83.4113V83.1795L151.603 83.1023C151.552 83.0765 151.526 83.0508 151.475 83.0508C151.346 83.0508 151.217 83.1538 151.191 83.2825C150.445 86.6046 149.672 89.9524 148.977 93.3259C151.011 100.768 153.535 111.481 152.814 116.657C152.041 122.117 149.131 129.405 146.813 134.22C146.916 134.787 147.02 135.353 147.148 135.92C147.715 138.675 148.539 141.56 149.62 144.701C150.161 146.221 150.779 147.663 151.243 148.77C151.294 148.873 151.397 148.951 151.5 148.951H151.526C151.655 148.925 151.758 148.822 151.784 148.693C152.196 146.015 152.788 143.337 153.586 140.478C153.586 140.427 153.586 140.375 153.561 140.324Z" fill="#F26200"/>
<path d="M115.756 140.633C111.79 131.131 106.974 122.04 103.189 112.383C97.034 96.6226 94.5103 79.0854 99.6607 62.707C99.7122 62.192 100.098 61.9344 100.562 61.9344C101.129 61.8829 101.695 62.2692 101.695 62.8873V62.913C103.06 75.1196 111.043 83.7723 117.739 93.3779C117.172 90.0816 116.503 86.8111 115.627 83.5663C112.769 73.0851 107.773 63.3251 105.069 52.7924C102.519 42.8263 103.627 33.0405 108.159 23.847C108.185 23.7955 108.185 23.7697 108.21 23.7182V23.6925C108.236 23.641 108.288 23.6152 108.313 23.5637C108.339 23.538 108.365 23.4865 108.391 23.4607C108.674 23.1517 109.06 23.1259 109.395 23.2804C109.781 23.3835 110.116 23.6925 110.116 24.2333C110.245 37.1609 113.309 48.0025 121.087 58.3291C126.778 65.8745 131.49 73.3169 134.478 82.0211C136.718 56.4492 155.826 30.9546 143.568 5.79472C143.027 4.71313 144.469 3.7603 145.165 4.53287H145.242C159.122 9.81206 166.488 25.2376 168.522 40.4056C170.479 31.3924 173.853 22.2504 180.085 15.8123C180.42 15.4518 180.832 15.426 181.192 15.6063C181.604 15.7093 181.913 15.9926 181.836 16.5334C180.239 29.7442 181.81 43.1096 184.308 56.1145C186.059 65.2307 188.634 74.1667 190.077 83.3088C196.566 76.2784 200.326 67.2909 203.905 58.5352C203.905 58.5352 203.905 58.5094 203.931 58.5094C204.112 57.8914 204.781 57.7111 205.296 57.9171C205.734 58.0459 206.069 58.4322 205.914 58.9472C206.3 74.9908 205.425 91.0087 201.897 106.666C200.197 114.237 197.648 121.551 194.506 128.633C192.678 132.779 190.231 136.641 187.939 140.582C192.42 141.122 202.566 142.255 202.978 147.174C203.03 147.329 203.056 147.509 203.004 147.715C203.004 147.741 202.978 147.766 202.978 147.792V147.998C202.154 154.256 201.33 160.514 200.506 166.746C199.502 174.42 198.472 182.094 197.416 189.768C196.798 194.249 196.669 196.696 191.982 198.575C180.935 203.031 168.084 202.361 156.393 202.541C143.723 202.722 130.486 203.056 118.048 200.507C113.206 199.503 107.515 198.163 106.743 192.73C105.584 184.592 104.528 176.429 103.446 168.291C102.519 161.338 101.592 154.41 100.717 147.457C100.124 142.513 111.738 141.148 115.756 140.633ZM103.884 155.647C119.078 160.179 135.946 159.715 151.654 159.767C167.518 159.818 184.669 160.23 199.965 155.647C200.068 154.797 200.197 153.947 200.3 153.097C200.403 152.325 200.506 151.578 200.609 150.805C197.004 153.097 190.592 153.586 187.785 153.998C176.119 155.698 164.041 155.544 152.272 155.569C139.86 155.595 127.241 155.544 114.906 153.998C112.331 153.664 106.614 153.252 103.266 151.166C103.498 152.659 103.704 154.153 103.884 155.647ZM155.002 89.515C157.346 98.8888 159.174 107.876 159.328 117.508C160.436 112.048 160.925 106.357 161.286 100.949C161.852 92.5538 161.234 84.2616 160.024 75.9436C158.324 64.1234 155.491 51.6336 157.783 39.7361C151.371 55.7024 150.753 72.4671 155.002 89.515ZM151.423 83.3345C148.847 94.6912 146.272 106.099 145.809 117.765C145.577 123.843 146.143 129.92 147.379 135.869C147.998 138.83 148.847 141.74 149.852 144.625C150.341 145.99 150.882 147.329 151.474 148.668C151.886 145.861 152.53 143.131 153.302 140.427C153.251 140.247 153.225 140.067 153.277 139.861C155.62 131.62 157.32 123.791 157.32 115.216C157.294 104.323 153.843 93.8671 151.423 83.3345ZM152.993 153.509C155.878 153.509 158.762 153.483 161.672 153.432C159.045 145.835 158.015 137.749 159.071 129.843C155.981 137.414 153.508 145.165 152.993 153.509ZM159.38 37.3926C155.929 50.7323 159.483 65.1277 161.44 78.4416C162.573 86.2188 162.779 94.0732 162.264 101.902C161.826 108.597 161.105 115.834 159.2 122.375C159.097 123.482 158.968 124.564 158.813 125.671C161.234 120.134 163.835 114.623 166.101 109.009C166.41 108.005 166.771 106.975 167.131 105.971C167.209 105.79 167.312 105.662 167.44 105.533C168.677 102.185 169.758 98.7601 170.556 95.232C173.26 83.4118 171.767 70.9735 167.312 59.7713C164.376 52.3804 160.256 45.2728 159.38 37.3926ZM168.574 57.6338C169.011 58.6382 169.423 59.6168 169.835 60.6211C173.492 69.8146 174.883 80.6563 173.466 90.4164C172.668 95.9531 171.071 101.232 169.114 106.408C169.114 106.434 169.114 106.486 169.089 106.511C166.256 114.134 165.277 121.576 165.586 129.663C165.792 135.174 167.054 140.504 167.955 145.912C168.908 142.539 170.531 139.371 172.127 136.229C174.909 130.77 176.84 125.079 178.231 119.104C179.647 113.053 180.574 106.898 180.574 100.666C180.574 94.5109 179.647 88.3562 178.565 82.3044C175.089 62.7585 170.016 40.8434 178.05 21.7611C172.797 29.5897 170.428 39.8391 169.166 48.9039C169.192 51.8911 168.986 54.8526 168.574 57.6338ZM163.5 128.452C163.372 125.105 163.526 121.86 163.964 118.641C162.96 120.907 161.955 123.147 160.951 125.414C158.685 134.71 159.586 144.419 162.754 153.432C164.093 153.406 165.432 153.406 166.771 153.355C166.385 144.959 163.809 136.873 163.5 128.452ZM102.88 147.818C103.781 151.423 114.597 152.247 120.056 152.556C119.052 149.157 117.867 145.835 116.58 142.59C113.129 143.028 102.777 144.187 102.88 147.818ZM106.408 114.932C111.558 127.731 118.434 139.345 122.22 152.685C122.426 152.685 122.606 152.711 122.76 152.711C126.108 152.968 129.482 153.123 132.881 153.252C130.151 146.994 126.958 141.225 124.563 135.071C119.258 125.8 112.614 117.25 108.468 107.361C103.472 95.5153 100.665 82.8967 100.021 70.0979C97.2142 85.2402 100.639 100.614 106.408 114.932ZM118.254 97.7815C112.099 88.1244 104.219 79.961 100.974 69.1451C101.541 82.7422 104.579 96.1591 110.116 108.649C113.567 116.426 118.511 123.379 122.992 130.59C122.323 128.349 121.782 126.057 121.421 123.662C120.211 115.138 119.644 106.537 118.486 98.039C118.408 97.9617 118.331 97.8845 118.254 97.7815ZM118.563 86.5793C121.215 97.3437 121.705 108.546 122.966 119.516C123.713 126.109 124.949 131.903 127.679 137.955C129.997 143.105 132.881 147.972 135.07 153.174C135.096 153.226 135.07 153.252 135.096 153.303C137.053 153.355 139.036 153.406 140.993 153.432C140.89 151.423 140.71 149.44 140.529 147.457C137.182 139.706 133.061 132.367 130.589 124.229C129.044 119.079 128.168 113.877 128.04 108.494C127.911 102.468 128.297 96.3651 126.185 90.5966C124.203 85.1887 120.674 80.4503 117.842 75.5059C115.009 70.5872 113.078 65.1792 111.352 59.797C108.442 50.7323 106.717 41.1009 107.438 31.5726C102.262 50.449 113.953 67.9862 118.563 86.5793ZM117.404 56.681C111.867 48.9554 109.344 40.3284 108.468 31.1606C107.592 41.6417 109.833 52.1486 113.181 62.089C115.061 67.6772 117.43 72.9049 120.494 77.9523C123.224 82.4332 126.108 86.8883 127.731 91.91C129.327 96.9059 129.018 102.443 129.07 107.593C129.121 113.49 130.126 119.079 131.825 124.718C133.885 131.543 137.259 137.826 140.22 144.264C138.237 125.594 134.014 107.181 134.246 88.3562C134.246 88.3304 134.22 88.3047 134.194 88.2532C131.259 75.8149 124.666 66.8531 117.404 56.681ZM148.204 36.7746C144.907 50.861 138.856 64.1749 136.924 78.5961C136.512 81.6349 136.28 84.6479 136.177 87.6866C136.177 87.7124 136.203 87.7381 136.203 87.7896C136.255 88.0214 136.229 88.2017 136.152 88.3819C135.559 110.117 141.817 131.852 143.027 153.483C145.68 153.509 148.307 153.535 150.933 153.535C150.985 152.531 151.088 151.501 151.191 150.522C151.062 149.827 150.367 148.848 150.135 148.256C149.568 146.865 149.028 145.475 148.538 144.058C147.534 141.2 146.787 138.238 146.169 135.277C144.985 129.534 144.598 123.637 144.753 117.791C145.113 105.353 148.126 93.0946 150.882 81.0168C147.972 67.1621 150.495 52.0199 155.929 38.809C155.388 32.8345 154.23 26.9888 152.736 21.1688C151.551 16.5076 150.058 11.3829 146.684 7.80339C150.598 17.3059 150.598 26.4737 148.204 36.7746ZM148.564 8.39569C151.011 11.6147 152.324 15.6836 153.405 19.5206C154.976 25.1861 156.161 30.9546 156.805 36.8003C157.655 34.8689 158.556 32.989 159.509 31.1864C159.766 30.6971 160.23 30.5941 160.642 30.7486C161.08 30.8001 161.466 31.1091 161.414 31.7014C160.513 39.6846 163.732 46.8952 166.951 54.0285C167.08 52.5092 167.131 50.9125 167.157 49.3159C167.106 49.1871 167.106 49.0326 167.131 48.8523C167.131 48.7751 167.157 48.6978 167.157 48.6206C167.003 33.5298 161.26 15.8381 148.564 8.39569ZM188.995 91.1632C188.428 78.2356 183.948 65.6943 181.707 53.0242C179.853 42.5173 178.694 31.8044 179.415 21.143C170.428 41.1009 176.582 64.2264 180.033 84.7509C181.913 95.8501 181.913 106.486 179.621 117.533C178.488 123.044 176.84 128.427 174.574 133.577C172.359 138.573 169.243 143.234 168.367 148.668C168.574 150.213 168.728 151.732 168.805 153.303C170.016 153.277 171.226 153.226 172.436 153.174V153.149C172.359 149.44 174.007 146.144 175.655 142.925C178.153 138.058 180.651 133.474 182.634 128.349C187.218 116.529 189.562 103.782 188.995 91.1632ZM190.489 85.8067C190.72 87.5836 190.926 89.3605 191.055 91.1632C191.828 102.262 189.639 113.593 186.265 124.126C190.514 115.731 193.811 107.026 196.206 97.833C197.751 91.9615 198.961 85.987 200.274 80.064C201.33 75.2226 202.798 70.5099 203.21 65.617C200.043 72.8534 196.386 79.858 190.849 85.5749C190.746 85.6779 190.617 85.7552 190.489 85.8067ZM199.141 109.576C202.798 96.0046 203.957 81.8924 204.034 67.8317C203.545 71.4885 202.592 75.0938 201.691 78.6734C200.146 84.8024 198.987 91.0344 197.442 97.1634C194.48 108.958 190.025 119.98 183.999 130.512C182.866 133.397 181.604 136.229 180.162 138.933C177.844 143.286 174.419 147.947 174.471 153.071C176.351 152.968 178.256 152.865 180.136 152.737C182.093 145.887 186.214 140.247 189.613 134.066C193.862 126.366 196.849 118.048 199.141 109.576ZM186.883 142.539C185.055 145.758 183.407 149.054 182.325 152.608C187.038 152.325 199.708 151.604 201.021 147.38C200.892 144.264 190.231 142.951 186.883 142.539ZM108.185 187.991C108.468 190.051 108.7 192.137 109.06 194.198C109.653 197.52 118.898 198.627 121.344 199.065C134.606 201.485 148.95 200.713 162.393 200.404C169.604 200.249 176.788 200.121 183.896 198.807C186.523 198.318 193.785 197.288 194.789 194.172C196.463 188.996 196.412 182.558 197.133 177.201C197.982 170.737 198.832 164.299 199.682 157.836C184.772 162.085 168.393 161.698 153.045 161.776C137.027 161.853 119.747 162.291 104.193 157.836C104.245 158.248 104.296 158.66 104.348 159.097C105.609 168.754 106.871 178.36 108.185 187.991Z" fill="#68182B"/>
<path d="M132.984 164.737C143.543 164.737 154.101 165.432 164.659 165.252C168.805 165.201 172.977 165.02 177.123 164.686C182.815 164.222 188.3 162.728 193.965 162.059C194.094 162.033 194.094 162.239 193.991 162.265C184.488 165.535 174.625 166.334 164.659 166.54C154.101 166.772 143.388 166.694 132.933 165.046C132.752 165.02 132.804 164.737 132.984 164.737ZM131.465 164.814C131.542 164.84 131.542 164.943 131.465 164.969C130.306 165.329 128.915 165.304 127.808 164.814C127.731 164.789 127.731 164.66 127.808 164.634C128.941 164.145 130.306 164.428 131.465 164.814Z" fill="#68182B"/>
<path d="M160.539 160.075C158.633 160.075 156.702 160.075 154.822 160.049H147.225C132.675 160.049 117.61 160.049 103.807 155.929C103.704 155.903 103.627 155.8 103.601 155.697L103.009 151.242C102.983 151.139 103.034 151.01 103.137 150.933C103.189 150.907 103.24 150.882 103.318 150.882C103.369 150.882 103.421 150.882 103.446 150.907C106.331 152.71 111.12 153.251 113.953 153.586C114.314 153.637 114.648 153.663 114.958 153.714C126.546 155.157 138.495 155.285 148.796 155.285H155.517C166.153 155.285 177.175 155.26 187.759 153.74C188.171 153.689 188.66 153.611 189.227 153.56C192.317 153.174 197.467 152.53 200.48 150.598C200.532 150.573 200.583 150.547 200.635 150.547C200.686 150.547 200.738 150.573 200.789 150.598C200.893 150.65 200.944 150.779 200.918 150.882L200.274 155.723C200.249 155.826 200.171 155.929 200.068 155.955C187.218 159.766 172.926 160.075 160.539 160.075Z" fill="#D1FFFF"/>
</svg>
